999
dxfrw 0.6.3
  0
SECTION
  2
HEADER
  9
$ACADVER
  1
AC1021
  9
$DWGCODEPAGE
  3
ANSI_1252
  9
$INSBASE
 10
0
 20
0
 30
0
  9
$EXTMIN
 10
97.05500000000001
 20
-124.085
 30
0
  9
$EXTMAX
 10
195.541
 20
-34.29
 30
0
  9
$LIMMIN
 10
0
 20
0
  9
$LIMMAX
 10
420
 20
297
  9
$ORTHOMODE
 70
    0
  9
$REGENMODE
 70
    1
  9
$FILLMODE
 70
    1
  9
$QTEXTMODE
 70
    0
  9
$MIRRTEXT
 70
    0
  9
$LTSCALE
 40
1
  9
$ATTMODE
 70
    0
  9
$TEXTSIZE
 40
2.5
  9
$TRACEWID
 40
15.68
  9
$TEXTSTYLE
  7
STANDARD
  9
$CLAYER
  8
0
  9
$CELTYPE
  6
BYLAYER
  9
$CECOLOR
 62
  256
  9
$CELTSCALE
 40
1
  9
$DISPSILH
 70
    0
  9
$DIMSCALE
 40
2.5
  9
$DIMASZ
 40
2.5
  9
$DIMEXO
 40
0.625
  9
$DIMDLI
 40
3.75
  9
$DIMRND
 40
0
  9
$DIMDLE
 40
0
  9
$DIMEXE
 40
1.25
  9
$DIMTP
 40
0
  9
$DIMTM
 40
0
  9
$DIMTXT
 40
2.5
  9
$DIMCEN
 40
2.5
  9
$DIMTSZ
 40
0
  9
$DIMTOL
 70
    0
  9
$DIMLIM
 70
    0
  9
$DIMTIH
 70
    0
  9
$DIMTOH
 70
    0
  9
$DIMSE1
 70
    0
  9
$DIMSE2
 70
    0
  9
$DIMTAD
 70
    1
  9
$DIMZIN
 70
    8
  9
$DIMBLK
  1

  9
$DIMASO
 70
    1
  9
$DIMSHO
 70
    1
  9
$DIMPOST
  1

  9
$DIMAPOST
  1

  9
$DIMALT
 70
    0
  9
$DIMALTD
 70
    3
  9
$DIMALTF
 40
0.03937
  9
$DIMLFAC
 40
1
  9
$DIMTOFL
 70
    1
  9
$DIMTVP
 40
0
  9
$DIMTIX
 70
    0
  9
$DIMSOXD
 70
    0
  9
$DIMSAH
 70
    0
  9
$DIMBLK1
  1

  9
$DIMBLK2
  1

  9
$DIMSTYLE
  2
Standard
  9
$DIMCLRD
 70
    0
  9
$DIMCLRE
 70
    0
  9
$DIMCLRT
 70
    0
  9
$DIMTFAC
 40
1
  9
$DIMGAP
 40
0.625
  9
$DIMJUST
 70
    0
  9
$DIMSD1
 70
    0
  9
$DIMSD2
 70
    0
  9
$DIMTOLJ
 70
    0
  9
$DIMTZIN
 70
    8
  9
$DIMALTZ
 70
    0
  9
$DIMALTTZ
 70
    0
  9
$DIMUPT
 70
    0
  9
$DIMDEC
 70
    2
  9
$DIMTDEC
 70
    2
  9
$DIMALTU
 70
    2
  9
$DIMALTTD
 70
    3
  9
$DIMTXSTY
  7
STANDARD
  9
$DIMAUNIT
 70
    0
  9
$DIMADEC
 70
    0
  9
$DIMALTRND
 40
0
  9
$DIMAZIN
 70
    0
  9
$DIMDSEP
 70
   44
  9
$DIMATFIT
 70
    3
  9
$DIMFRAC
 70
    0
  9
$DIMLDRBLK
  1
STANDARD
  9
$DIMLUNIT
 70
    2
  9
$DIMLWD
 70
   -2
  9
$DIMLWE
 70
   -2
  9
$DIMTMOVE
 70
    0
  9
$DIMFXL
 40
1
  9
$DIMFXLON
 70
    0
  9
$DIMJOGANG
 40
0.7854
  9
$DIMTFILL
 70
    0
  9
$DIMTFILLCLR
 70
    0
  9
$DIMARCSYM
 70
    0
  9
$DIMLTYPE
  6

  9
$DIMLTEX1
  6

  9
$DIMLTEX2
  6

  9
$LUNITS
 70
    2
  9
$LUPREC
 70
    4
  9
$SKETCHINC
 40
1
  9
$FILLETRAD
 40
0
  9
$AUNITS
 70
    0
  9
$AUPREC
 70
    2
  9
$MENU
  1
.
  9
$ELEVATION
 40
0
  9
$PELEVATION
 40
0
  9
$THICKNESS
 40
0
  9
$LIMCHECK
 70
    0
  9
$CHAMFERA
 40
0
  9
$CHAMFERB
 40
0
  9
$CHAMFERC
 40
0
  9
$CHAMFERD
 40
0
  9
$SKPOLY
 70
    0
  9
$USRTIMER
 70
    1
  9
$ANGBASE
 50
0
  9
$ANGDIR
 70
    1
  9
$PDMODE
 70
   34
  9
$PDSIZE
 40
0
  9
$PLINEWID
 40
0
  9
$SPLFRAME
 70
    0
  9
$SPLINETYPE
 70
    2
  9
$SPLINESEGS
 70
    8
  9
$HANDSEED
  5
20000
  9
$SURFTAB1
 70
    6
  9
$SURFTAB2
 70
    6
  9
$SURFTYPE
 70
    6
  9
$SURFU
 70
    6
  9
$SURFV
 70
    6
  9
$UCSBASE
  2

  9
$UCSNAME
  2

  9
$UCSORG
 10
0
 20
0
 30
0
  9
$UCSXDIR
 10
1
 20
0
 30
0
  9
$UCSYDIR
 10
0
 20
1
 30
0
  9
$UCSORTHOREF
  2

  9
$UCSORTHOVIEW
 70
    0
  9
$UCSORGTOP
 10
0
 20
0
 30
0
  9
$UCSORGBOTTOM
 10
0
 20
0
 30
0
  9
$UCSORGLEFT
 10
0
 20
0
 30
0
  9
$UCSORGRIGHT
 10
0
 20
0
 30
0
  9
$UCSORGFRONT
 10
0
 20
0
 30
0
  9
$UCSORGBACK
 10
0
 20
0
 30
0
  9
$PUCSBASE
  2

  9
$PUCSNAME
  2

  9
$PUCSORG
 10
0
 20
0
 30
0
  9
$PUCSXDIR
 10
1
 20
0
 30
0
  9
$PUCSYDIR
 10
0
 20
1
 30
0
  9
$PUCSORTHOREF
  2

  9
$PUCSORTHOVIEW
 70
    0
  9
$PUCSORGTOP
 10
0
 20
0
 30
0
  9
$PUCSORGBOTTOM
 10
0
 20
0
 30
0
  9
$PUCSORGLEFT
 10
0
 20
0
 30
0
  9
$PUCSORGRIGHT
 10
0
 20
0
 30
0
  9
$PUCSORGFRONT
 10
0
 20
0
 30
0
  9
$PUCSORGBACK
 10
0
 20
0
 30
0
  9
$USERI1
 70
    0
  9
$USERI2
 70
    0
  9
$USERI3
 70
    0
  9
$USERI4
 70
    0
  9
$USERI5
 70
    0
  9
$USERR1
 40
0
  9
$USERR2
 40
0
  9
$USERR3
 40
0
  9
$USERR4
 40
0
  9
$USERR5
 40
0
  9
$WORLDVIEW
 70
    1
  9
$SHADEDGE
 70
    3
  9
$SHADEDIF
 70
   70
  9
$TILEMODE
 70
    1
  9
$MAXACTVP
 70
   64
  9
$PINSBASE
 10
0
 20
0
 30
0
  9
$PLIMCHECK
 70
    0
  9
$PEXTMIN
 10
0
 20
0
 30
0
  9
$PEXTMAX
 10
0
 20
0
 30
0
  9
$SNAPSTYLE
 70
    0
  9
$PLIMMIN
 10
0
 20
0
  9
$PLIMMAX
 10
297
 20
210
  9
$UNITMODE
 70
    0
  9
$VISRETAIN
 70
    1
  9
$PLINEGEN
 70
    0
  9
$PSLTSCALE
 70
    1
  9
$TREEDEPTH
 70
 3020
  9
$CMLSTYLE
  2
Standard
  9
$CMLJUST
 70
    0
  9
$CMLSCALE
 40
20
  9
$PROXYGRAPHICS
 70
    1
  9
$MEASUREMENT
 70
    0
  9
$CELWEIGHT
370
   -1
  9
$ENDCAPS
280
    0
  9
$JOINSTYLE
280
    0
  9
$LWDISPLAY
290
    0
  9
$INSUNITS
 70
    4
  9
$HYPERLINKBASE
  1

  9
$STYLESHEET
  1

  9
$XEDIT
290
    1
  9
$CEPSNTYPE
380
    0
  9
$PSTYLEMODE
290
    1
  9
$EXTNAMES
290
    1
  9
$PSVPSCALE
 40
1
  9
$OLESTARTUP
290
    0
  9
$SORTENTS
280
  127
  9
$INDEXCTL
280
    0
  9
$HIDETEXT
280
    1
  9
$XCLIPFRAME
290
    0
  9
$HALOGAP
280
    0
  9
$OBSCOLOR
 70
  257
  9
$OBSLTYPE
280
    0
  9
$INTERSECTIONDISPLAY
280
    0
  9
$INTERSECTIONCOLOR
 70
  257
  9
$DIMASSOC
280
    1
  9
$PROJECTNAME
  1

  9
$CAMERADISPLAY
290
    0
  9
$LENSLENGTH
 40
50
  9
$CAMERAHEIGHT
 40
0
  9
$STEPSPERSEC
 40
2
  9
$STEPSIZE
 40
50
  9
$3DDWFPREC
 40
2
  9
$PSOLWIDTH
 40
5
  9
$PSOLHEIGHT
 40
80
  9
$LOFTANG1
 40
1.570796326794897
  9
$LOFTANG2
 40
1.570796326794897
  9
$LOFTMAG1
 40
0
  9
$LOFTMAG2
 40
0
  9
$LOFTPARAM
 70
    7
  9
$LOFTNORMALS
280
    1
  9
$LATITUDE
 40
1
  9
$LONGITUDE
 40
1
  9
$NORTHDIRECTION
 40
0
  9
$TIMEZONE
 70
-8000
  9
$LIGHTGLYPHDISPLAY
280
    1
  9
$TILEMODELIGHTSYNCH
280
    1
  9
$SOLIDHIST
280
    1
  9
$SHOWHIST
280
    1
  9
$DWFFRAME
280
    2
  9
$DGNFRAME
280
    0
  9
$REALWORLDSCALE
290
    1
  9
$INTERFERECOLOR
 62
    1
  9
$CSHADOW
280
    0
  9
$SHADOWPLANELOCATION
 40
0
  0
ENDSEC
  0
SECTION
  2
CLASSES
  0
ENDSEC
  0
SECTION
  2
TABLES
  0
TABLE
  2
VPORT
  5
8
330
0
100
AcDbSymbolTable
 70
    1
  0
VPORT
  5
31
330
2
100
AcDbSymbolTableRecord
100
AcDbViewportTableRecord
  2
*ACTIVE
 70
    0
 10
0
 20
0
 11
1
 21
1
 12
139.6800000000003
 22
9.520000000000021
 13
0
 23
0
 14
10
 24
10
 15
10
 25
10
 16
0
 26
0
 36
1
 17
0
 27
0
 37
0
 40
129.6000000000003
 41
1.937037037037037
 42
50
 43
0
 44
0
 50
0
 51
0
 71
    0
 72
  100
 73
    1
 74
    3
 75
    0
 76
    1
 77
    0
 78
    0
281
    0
 65
    1
110
0
120
0
130
0
111
1
121
0
131
0
112
0
122
1
132
0
 79
    0
146
0
348
10020
 60
    7
 61
    5
292
1
282
    1
141
0
142
0
 63
  250
421
3358443
  0
ENDTAB
  0
TABLE
  2
LTYPE
  5
5
330
0
100
AcDbSymbolTable
 70
    4
  0
LTYPE
  5
14
330
5
100
AcDbSymbolTableRecord
100
AcDbLinetypeTableRecord
  2
ByBlock
 70
    0
  3

 72
   65
 73
    0
 40
0
  0
LTYPE
  5
15
330
5
100
AcDbSymbolTableRecord
100
AcDbLinetypeTableRecord
  2
ByLayer
 70
    0
  3

 72
   65
 73
    0
 40
0
  0
LTYPE
  5
16
330
5
100
AcDbSymbolTableRecord
100
AcDbLinetypeTableRecord
  2
Continuous
 70
    0
  3
Solid line
 72
   65
 73
    0
 40
0
  0
LTYPE
  5
32
330
5
100
AcDbSymbolTableRecord
100
AcDbLinetypeTableRecord
  2
DOT
 70
    0
  3
Dot . . . . . . . . . . . . . . . . . . . . . .
 72
   65
 73
    2
 40
6.35
 49
0
 74
    0
 49
-6.35
 74
    0
  0
LTYPE
  5
33
330
5
100
AcDbSymbolTableRecord
100
AcDbLinetypeTableRecord
  2
DOTTINY
 70
    0
  3
Dot (.15x) .....................................
 72
   65
 73
    2
 40
0.9525
 49
0
 74
    0
 49
-0.9525
 74
    0
  0
LTYPE
  5
34
330
5
100
AcDbSymbolTableRecord
100
AcDbLinetypeTableRecord
  2
DOT2
 70
    0
  3
Dot (.5x) .....................................
 72
   65
 73
    2
 40
3.175
 49
0
 74
    0
 49
-3.175
 74
    0
  0
LTYPE
  5
35
330
5
100
AcDbSymbolTableRecord
100
AcDbLinetypeTableRecord
  2
DOTX2
 70
    0
  3
Dot (2x) .  .  .  .  .  .  .  .  .  .  .  .  .
 72
   65
 73
    2
 40
12.7
 49
0
 74
    0
 49
-12.7
 74
    0
  0
LTYPE
  5
36
330
5
100
AcDbSymbolTableRecord
100
AcDbLinetypeTableRecord
  2
DASHED
 70
    0
  3
Dashed _ _ _ _ _ _ _ _ _ _ _ _ _ _ _ _ _
 72
   65
 73
    2
 40
19.05
 49
12.7
 74
    0
 49
-6.35
 74
    0
  0
LTYPE
  5
37
330
5
100
AcDbSymbolTableRecord
100
AcDbLinetypeTableRecord
  2
DASHEDTINY
 70
    0
  3
Dashed (.15x) _ _ _ _ _ _ _ _ _ _ _ _ _ _ _ _ _
 72
   65
 73
    2
 40
2.8575
 49
1.905
 74
    0
 49
-0.9525
 74
    0
  0
LTYPE
  5
38
330
5
100
AcDbSymbolTableRecord
100
AcDbLinetypeTableRecord
  2
DASHED2
 70
    0
  3
Dashed (.5x) _ _ _ _ _ _ _ _ _ _ _ _ _ _ _ _ _
 72
   65
 73
    2
 40
9.524999999999999
 49
6.35
 74
    0
 49
-3.175
 74
    0
  0
LTYPE
  5
39
330
5
100
AcDbSymbolTableRecord
100
AcDbLinetypeTableRecord
  2
DASHEDX2
 70
    0
  3
Dashed (2x) ____  ____  ____  ____  ____  ___
 72
   65
 73
    2
 40
38.09999999999999
 49
25.4
 74
    0
 49
-12.7
 74
    0
  0
LTYPE
  5
3A
330
5
100
AcDbSymbolTableRecord
100
AcDbLinetypeTableRecord
  2
DASHDOT
 70
    0
  3
Dash dot __ . __ . __ . __ . __ . __ . __ . __
 72
   65
 73
    4
 40
25.4
 49
12.7
 74
    0
 49
-6.35
 74
    0
 49
0
 74
    0
 49
-6.35
 74
    0
  0
LTYPE
  5
3B
330
5
100
AcDbSymbolTableRecord
100
AcDbLinetypeTableRecord
  2
DASHDOTTINY
 70
    0
  3
Dash dot (.15x) _._._._._._._._._._._._._._._.
 72
   65
 73
    4
 40
3.81
 49
1.905
 74
    0
 49
-0.9525
 74
    0
 49
0
 74
    0
 49
-0.9525
 74
    0
  0
LTYPE
  5
3C
330
5
100
AcDbSymbolTableRecord
100
AcDbLinetypeTableRecord
  2
DASHDOT2
 70
    0
  3
Dash dot (.5x) _._._._._._._._._._._._._._._.
 72
   65
 73
    4
 40
12.7
 49
6.35
 74
    0
 49
-3.175
 74
    0
 49
0
 74
    0
 49
-3.175
 74
    0
  0
LTYPE
  5
3D
330
5
100
AcDbSymbolTableRecord
100
AcDbLinetypeTableRecord
  2
DASHDOTX2
 70
    0
  3
Dash dot (2x) ____  .  ____  .  ____  .  ___
 72
   65
 73
    4
 40
50.8
 49
25.4
 74
    0
 49
-12.7
 74
    0
 49
0
 74
    0
 49
-12.7
 74
    0
  0
LTYPE
  5
3E
330
5
100
AcDbSymbolTableRecord
100
AcDbLinetypeTableRecord
  2
DIVIDE
 70
    0
  3
Divide ____ . . ____ . . ____ . . ____ . . ____
 72
   65
 73
    6
 40
31.75
 49
12.7
 74
    0
 49
-6.35
 74
    0
 49
0
 74
    0
 49
-6.35
 74
    0
 49
0
 74
    0
 49
-6.35
 74
    0
  0
LTYPE
  5
3F
330
5
100
AcDbSymbolTableRecord
100
AcDbLinetypeTableRecord
  2
DIVIDETINY
 70
    0
  3
Divide (.15x) __..__..__..__..__..__..__..__.._
 72
   65
 73
    6
 40
4.7625
 49
1.905
 74
    0
 49
-0.9525
 74
    0
 49
0
 74
    0
 49
-0.9525
 74
    0
 49
0
 74
    0
 49
-0.9525
 74
    0
  0
LTYPE
  5
40
330
5
100
AcDbSymbolTableRecord
100
AcDbLinetypeTableRecord
  2
DIVIDE2
 70
    0
  3
Divide (.5x) __..__..__..__..__..__..__..__.._
 72
   65
 73
    6
 40
15.875
 49
6.35
 74
    0
 49
-3.175
 74
    0
 49
0
 74
    0
 49
-3.175
 74
    0
 49
0
 74
    0
 49
-3.175
 74
    0
  0
LTYPE
  5
41
330
5
100
AcDbSymbolTableRecord
100
AcDbLinetypeTableRecord
  2
DIVIDEX2
 70
    0
  3
Divide (2x) ________  .  .  ________  .  .  _
 72
   65
 73
    6
 40
63.5
 49
25.4
 74
    0
 49
-12.7
 74
    0
 49
0
 74
    0
 49
-12.7
 74
    0
 49
0
 74
    0
 49
-12.7
 74
    0
  0
LTYPE
  5
42
330
5
100
AcDbSymbolTableRecord
100
AcDbLinetypeTableRecord
  2
BORDER
 70
    0
  3
Border __ __ . __ __ . __ __ . __ __ . __ __ .
 72
   65
 73
    6
 40
44.45
 49
12.7
 74
    0
 49
-6.35
 74
    0
 49
12.7
 74
    0
 49
-6.35
 74
    0
 49
0
 74
    0
 49
-6.35
 74
    0
  0
LTYPE
  5
43
330
5
100
AcDbSymbolTableRecord
100
AcDbLinetypeTableRecord
  2
BORDERTINY
 70
    0
  3
Border (.15x) __.__.__.__.__.__.__.__.__.__.__.
 72
   65
 73
    6
 40
6.6675
 49
1.905
 74
    0
 49
-0.9525
 74
    0
 49
1.905
 74
    0
 49
-0.9525
 74
    0
 49
0
 74
    0
 49
-0.9525
 74
    0
  0
LTYPE
  5
44
330
5
100
AcDbSymbolTableRecord
100
AcDbLinetypeTableRecord
  2
BORDER2
 70
    0
  3
Border (.5x) __.__.__.__.__.__.__.__.__.__.__.
 72
   65
 73
    6
 40
22.225
 49
6.35
 74
    0
 49
-3.175
 74
    0
 49
6.35
 74
    0
 49
-3.175
 74
    0
 49
0
 74
    0
 49
-3.175
 74
    0
  0
LTYPE
  5
45
330
5
100
AcDbSymbolTableRecord
100
AcDbLinetypeTableRecord
  2
BORDERX2
 70
    0
  3
Border (2x) ____  ____  .  ____  ____  .  ___
 72
   65
 73
    6
 40
88.89999999999999
 49
25.4
 74
    0
 49
-12.7
 74
    0
 49
25.4
 74
    0
 49
-12.7
 74
    0
 49
0
 74
    0
 49
-12.7
 74
    0
  0
LTYPE
  5
46
330
5
100
AcDbSymbolTableRecord
100
AcDbLinetypeTableRecord
  2
CENTER
 70
    0
  3
Center ____ _ ____ _ ____ _ ____ _ ____ _ ____
 72
   65
 73
    4
 40
50.8
 49
31.75
 74
    0
 49
-6.35
 74
    0
 49
6.35
 74
    0
 49
-6.35
 74
    0
  0
LTYPE
  5
47
330
5
100
AcDbSymbolTableRecord
100
AcDbLinetypeTableRecord
  2
CENTERTINY
 70
    0
  3
Center (.15x) ___ _ ___ _ ___ _ ___ _ ___ _ ___
 72
   65
 73
    4
 40
7.619999999999999
 49
4.7625
 74
    0
 49
-0.9525
 74
    0
 49
0.9525
 74
    0
 49
-0.9525
 74
    0
  0
LTYPE
  5
48
330
5
100
AcDbSymbolTableRecord
100
AcDbLinetypeTableRecord
  2
CENTER2
 70
    0
  3
Center (.5x) ___ _ ___ _ ___ _ ___ _ ___ _ ___
 72
   65
 73
    4
 40
28.575
 49
19.05
 74
    0
 49
-3.175
 74
    0
 49
3.175
 74
    0
 49
-3.175
 74
    0
  0
LTYPE
  5
49
330
5
100
AcDbSymbolTableRecord
100
AcDbLinetypeTableRecord
  2
CENTERX2
 70
    0
  3
Center (2x) ________  __  ________  __  _____
 72
   65
 73
    4
 40
101.6
 49
63.5
 74
    0
 49
-12.7
 74
    0
 49
12.7
 74
    0
 49
-12.7
 74
    0
  0
ENDTAB
  0
TABLE
  2
LAYER
  5
2
330
0
100
AcDbSymbolTable
 70
    1
  0
LAYER
  5
10
330
2
100
AcDbSymbolTableRecord
100
AcDbLayerTableRecord
  2
0
 70
    0
 62
    7
  6
CONTINUOUS
370
    0
390
F
  0
LAYER
  5
4A
330
2
100
AcDbSymbolTableRecord
100
AcDbLayerTableRecord
  2
BLACK
 70
    0
 62
    7
  6
CONTINUOUS
370
   -3
390
F
  0
LAYER
  5
4B
330
2
100
AcDbSymbolTableRecord
100
AcDbLayerTableRecord
  2
BLUE1
 70
    0
 62
  178
  6
CONTINUOUS
370
   -3
390
F
  0
LAYER
  5
4C
330
2
100
AcDbSymbolTableRecord
100
AcDbLayerTableRecord
  2
BLUE2
 70
    0
 62
    5
  6
CONTINUOUS
370
   -3
390
F
  0
LAYER
  5
4D
330
2
100
AcDbSymbolTableRecord
100
AcDbLayerTableRecord
  2
BLUE3
 70
    0
 62
  171
  6
CONTINUOUS
370
   -3
390
F
  0
LAYER
  5
4E
330
2
100
AcDbSymbolTableRecord
100
AcDbLayerTableRecord
  2
BLUE4
 70
    0
 62
    5
  6
CONTINUOUS
370
   -3
390
F
  0
LAYER
  5
4F
330
2
100
AcDbSymbolTableRecord
100
AcDbLayerTableRecord
  2
BROWN1
 70
    0
 62
   58
  6
CONTINUOUS
370
   -3
390
F
  0
LAYER
  5
50
330
2
100
AcDbSymbolTableRecord
100
AcDbLayerTableRecord
  2
BROWN2
 70
    0
 62
   54
  6
CONTINUOUS
370
   -3
390
F
  0
LAYER
  5
51
330
2
100
AcDbSymbolTableRecord
100
AcDbLayerTableRecord
  2
Black
 70
    0
 62
    7
  6
CONTINUOUS
370
   -3
390
F
  0
LAYER
  5
52
330
2
100
AcDbSymbolTableRecord
100
AcDbLayerTableRecord
  2
CYAN1
 70
    0
 62
  138
  6
CONTINUOUS
370
   -3
390
F
  0
LAYER
  5
53
330
2
100
AcDbSymbolTableRecord
100
AcDbLayerTableRecord
  2
CYAN2
 70
    0
 62
    4
  6
CONTINUOUS
370
   -3
390
F
  0
LAYER
  5
54
330
2
100
AcDbSymbolTableRecord
100
AcDbLayerTableRecord
  2
CYAN3
 70
    0
 62
  131
  6
CONTINUOUS
370
   -3
390
F
  0
LAYER
  5
55
330
2
100
AcDbSymbolTableRecord
100
AcDbLayerTableRecord
  2
CYAN4
 70
    0
 62
    4
  6
CONTINUOUS
370
   -3
390
F
  0
LAYER
  5
56
330
2
100
AcDbSymbolTableRecord
100
AcDbLayerTableRecord
  2
GRAY1
 70
    0
 62
  251
  6
CONTINUOUS
370
   -3
390
F
  0
LAYER
  5
57
330
2
100
AcDbSymbolTableRecord
100
AcDbLayerTableRecord
  2
GRAY2
 70
    0
 62
    8
  6
CONTINUOUS
370
   -3
390
F
  0
LAYER
  5
58
330
2
100
AcDbSymbolTableRecord
100
AcDbLayerTableRecord
  2
GRAY3
 70
    0
 62
    9
  6
CONTINUOUS
370
   -3
390
F
  0
LAYER
  5
59
330
2
100
AcDbSymbolTableRecord
100
AcDbLayerTableRecord
  2
GREEN1
 70
    0
 62
   98
  6
CONTINUOUS
370
   -3
390
F
  0
LAYER
  5
5A
330
2
100
AcDbSymbolTableRecord
100
AcDbLayerTableRecord
  2
GREEN2
 70
    0
 62
    3
  6
CONTINUOUS
370
   -3
390
F
  0
LAYER
  5
5B
330
2
100
AcDbSymbolTableRecord
100
AcDbLayerTableRecord
  2
GREEN3
 70
    0
 62
   91
  6
CONTINUOUS
370
   -3
390
F
  0
LAYER
  5
5C
330
2
100
AcDbSymbolTableRecord
100
AcDbLayerTableRecord
  2
GREEN4
 70
    0
 62
    3
  6
CONTINUOUS
370
   -3
390
F
  0
LAYER
  5
5D
330
2
100
AcDbSymbolTableRecord
100
AcDbLayerTableRecord
  2
LYELLOW
 70
    0
 62
   51
  6
CONTINUOUS
370
   -3
390
F
  0
LAYER
  5
5E
330
2
100
AcDbSymbolTableRecord
100
AcDbLayerTableRecord
  2
MAGENTA1
 70
    0
 62
  228
  6
CONTINUOUS
370
   -3
390
F
  0
LAYER
  5
5F
330
2
100
AcDbSymbolTableRecord
100
AcDbLayerTableRecord
  2
MAGENTA2
 70
    0
 62
    6
  6
CONTINUOUS
370
   -3
390
F
  0
LAYER
  5
60
330
2
100
AcDbSymbolTableRecord
100
AcDbLayerTableRecord
  2
MAGENTA3
 70
    0
 62
  221
  6
CONTINUOUS
370
   -3
390
F
  0
LAYER
  5
61
330
2
100
AcDbSymbolTableRecord
100
AcDbLayerTableRecord
  2
MAGENTA4
 70
    0
 62
    6
  6
CONTINUOUS
370
   -3
390
F
  0
LAYER
  5
62
330
2
100
AcDbSymbolTableRecord
100
AcDbLayerTableRecord
  2
RED1
 70
    0
 62
   18
  6
CONTINUOUS
370
   -3
390
F
  0
LAYER
  5
63
330
2
100
AcDbSymbolTableRecord
100
AcDbLayerTableRecord
  2
RED2
 70
    0
 62
    1
  6
CONTINUOUS
370
   -3
390
F
  0
LAYER
  5
64
330
2
100
AcDbSymbolTableRecord
100
AcDbLayerTableRecord
  2
RED3
 70
    0
 62
   11
  6
CONTINUOUS
370
   -3
390
F
  0
LAYER
  5
65
330
2
100
AcDbSymbolTableRecord
100
AcDbLayerTableRecord
  2
RED4
 70
    0
 62
    1
  6
CONTINUOUS
370
   -3
390
F
  0
LAYER
  5
66
330
2
100
AcDbSymbolTableRecord
100
AcDbLayerTableRecord
  2
WHITE
 70
    0
 62
    7
  6
CONTINUOUS
370
   -3
390
F
  0
LAYER
  5
67
330
2
100
AcDbSymbolTableRecord
100
AcDbLayerTableRecord
  2
YELLOW3
 70
    0
 62
    2
  6
CONTINUOUS
370
   -3
390
F
  0
LAYER
  5
68
330
2
100
AcDbSymbolTableRecord
100
AcDbLayerTableRecord
  2
YELLOW4
 70
    0
 62
    2
  6
CONTINUOUS
370
   -3
390
F
  0
ENDTAB
  0
TABLE
  2
STYLE
  5
3
330
0
100
AcDbSymbolTable
 70
    3
  0
STYLE
  5
69
330
2
100
AcDbSymbolTableRecord
100
AcDbTextStyleTableRecord
  2
Standard
 70
    0
 40
0
 41
1
 50
0
 71
    0
 42
1
  3
txt
  4

  0
ENDTAB
  0
TABLE
  2
VIEW
  5
6
330
0
100
AcDbSymbolTable
 70
    0
  0
ENDTAB
  0
TABLE
  2
UCS
  5
7
330
0
100
AcDbSymbolTable
 70
    0
  0
ENDTAB
  0
TABLE
  2
APPID
  5
9
330
0
100
AcDbSymbolTable
 70
    1
  0
APPID
  5
12
330
9
100
AcDbSymbolTableRecord
100
AcDbRegAppTableRecord
  2
ACAD
 70
    0
  0
APPID
  5
6A
330
9
100
AcDbSymbolTableRecord
100
AcDbRegAppTableRecord
  2
LibreCad
 70
    0
  0
ENDTAB
  0
TABLE
  2
DIMSTYLE
  5
A
330
0
100
AcDbSymbolTable
 70
    1
100
AcDbDimStyleTable
 71
    1
  0
DIMSTYLE
105
6B
330
A
100
AcDbSymbolTableRecord
100
AcDbDimStyleTableRecord
  2
Standard
 70
    0
 40
1
 41
2.5
 42
0.625
 43
0.38
 44
1.25
 45
0
 46
0
 47
0
 48
0
 49
1
140
2.5
141
0.09
142
2.5
143
25.4
144
1
145
0
146
1
147
0.625
148
0
 71
    0
 72
    0
 73
    0
 74
    1
 75
    0
 76
    0
 77
    0
 78
    1
 79
    0
170
    0
171
    2
172
    0
173
    0
174
    0
175
    0
176
    0
177
    0
178
    0
179
    0
271
    2
272
    4
273
    2
274
    2
275
    0
276
    0
277
    2
278
    0
279
    0
280
    0
281
    0
282
    0
283
    1
284
    0
285
    0
286
    0
288
    0
289
    3
340
standard
341

371
   -2
372
   -2
  0
ENDTAB
  0
TABLE
  2
BLOCK_RECORD
  5
1
330
0
100
AcDbSymbolTable
 70
    2
  0
BLOCK_RECORD
  5
1F
330
1
100
AcDbSymbolTableRecord
100
AcDbBlockTableRecord
  2
*Model_Space
 70
    0
280
    1
281
    0
  0
BLOCK_RECORD
  5
1E
330
1
100
AcDbSymbolTableRecord
100
AcDbBlockTableRecord
  2
*Paper_Space
 70
    0
280
    1
281
    0
  0
ENDTAB
  0
ENDSEC
  0
SECTION
  2
BLOCKS
  0
BLOCK
  5
20
330
1F
100
AcDbEntity
  8
0
100
AcDbBlockBegin
  2
*Model_Space
 70
    0
 10
0
 20
0
 30
0
  3
*Model_Space
  1

  0
ENDBLK
  5
21
330
1F
100
AcDbEntity
  8
0
100
AcDbBlockEnd
  0
BLOCK
  5
1C
330
1B
100
AcDbEntity
  8
0
100
AcDbBlockBegin
  2
*Paper_Space
 70
    0
 10
0
 20
0
 30
0
  3
*Paper_Space
  1

  0
ENDBLK
  5
1D
330
1F
100
AcDbEntity
  8
0
100
AcDbBlockEnd
  0
ENDSEC
  0
SECTION
  2
ENTITIES
  0
ARC
  5
6C
100
AcDbEntity
  8
Black
  6
ByLayer
 62
  256
370
   -1
100
AcDbCircle
 10
104.14
 20
-104.14
 40
3.81
100
AcDbArc
 50
-180
 51
-90
  0
ARC
  5
6D
100
AcDbEntity
  8
Black
  6
ByLayer
 62
  256
370
   -1
100
AcDbCircle
 10
180.34
 20
-104.14
 40
3.81
100
AcDbArc
 50
-90
 51
-0
  0
ARC
  5
6E
100
AcDbEntity
  8
Black
  6
ByLayer
 62
  256
370
   -1
100
AcDbCircle
 10
180.34
 20
-38.1
 40
3.81
100
AcDbArc
 50
-0
 51
90
  0
ARC
  5
6F
100
AcDbEntity
  8
Black
  6
ByLayer
 62
  256
370
   -1
100
AcDbCircle
 10
104.14
 20
-38.1
 40
3.81
100
AcDbArc
 50
90
 51
180
  0
LINE
  5
70
100
AcDbEntity
  8
Black
  6
ByLayer
 62
  256
370
   -1
100
AcDbLine
 10
180.34
 20
-107.95
 11
104.14
 21
-107.95
  0
LINE
  5
71
100
AcDbEntity
  8
Black
  6
ByLayer
 62
  256
370
   -1
100
AcDbLine
 10
104.14
 20
-34.29
 11
180.34
 21
-34.29
  0
LINE
  5
72
100
AcDbEntity
  8
Black
  6
ByLayer
 62
  256
370
   -1
100
AcDbLine
 10
184.15
 20
-104.14
 11
184.15
 21
-38.1
  0
LINE
  5
73
100
AcDbEntity
  8
Black
  6
ByLayer
 62
  256
370
   -1
100
AcDbLine
 10
100.33
 20
-38.1
 11
100.33
 21
-104.14
  0
LINE
  5
74
100
AcDbEntity
  8
Black
  6
ByLayer
 62
  256
370
   -1
100
AcDbLine
 10
166.64
 20
-65.04000000000001
 11
168.64
 21
-67.04000000000001
  0
LINE
  5
75
100
AcDbEntity
  8
Black
  6
ByLayer
 62
  256
370
   -1
100
AcDbLine
 10
168.64
 20
-65.04000000000001
 11
166.64
 21
-67.04000000000001
  0
LINE
  5
76
100
AcDbEntity
  8
Black
  6
ByLayer
 62
  256
370
   -1
100
AcDbLine
 10
166.64
 20
-73.84
 11
168.64
 21
-75.84
  0
LINE
  5
77
100
AcDbEntity
  8
Black
  6
ByLayer
 62
  256
370
   -1
100
AcDbLine
 10
168.64
 20
-73.84
 11
166.64
 21
-75.84
  0
LINE
  5
78
100
AcDbEntity
  8
Black
  6
ByLayer
 62
  256
370
   -1
100
AcDbLine
 10
166.64
 20
-86.72
 11
168.64
 21
-88.72
  0
LINE
  5
79
100
AcDbEntity
  8
Black
  6
ByLayer
 62
  256
370
   -1
100
AcDbLine
 10
168.64
 20
-86.72
 11
166.64
 21
-88.72
  0
LINE
  5
7A
100
AcDbEntity
  8
Black
  6
ByLayer
 62
  256
370
   -1
100
AcDbLine
 10
166.64
 20
-95.52
 11
168.64
 21
-97.52
  0
LINE
  5
7B
100
AcDbEntity
  8
Black
  6
ByLayer
 62
  256
370
   -1
100
AcDbLine
 10
168.64
 20
-95.52
 11
166.64
 21
-97.52
  0
CIRCLE
  5
7C
100
AcDbEntity
  8
Black
  6
ByLayer
 62
  256
370
   -1
100
AcDbCircle
 10
113.03
 20
-104.14
 40
1.6
  0
CIRCLE
  5
7D
100
AcDbEntity
  8
Black
  6
ByLayer
 62
  256
370
   -1
100
AcDbCircle
 10
124.46
 20
-104.14
 40
1.6
  0
CIRCLE
  5
7E
100
AcDbEntity
  8
Black
  6
ByLayer
 62
  256
370
   -1
100
AcDbCircle
 10
130.81
 20
-104.14
 40
1.6
  0
CIRCLE
  5
7F
100
AcDbEntity
  8
Black
  6
ByLayer
 62
  256
370
   -1
100
AcDbCircle
 10
142.24
 20
-104.14
 40
1.6
  0
CIRCLE
  5
80
100
AcDbEntity
  8
Black
  6
ByLayer
 62
  256
370
   -1
100
AcDbCircle
 10
168.125
 20
-70.425
 40
1.6
  0
CIRCLE
  5
81
100
AcDbEntity
  8
Black
  6
ByLayer
 62
  256
370
   -1
100
AcDbCircle
 10
168.15
 20
-92.125
 40
1.6
  0
LINE
  5
82
100
AcDbEntity
  8
Black
  6
ByLayer
 62
  256
370
   -1
100
AcDbLine
 10
102.969
 20
-112.682
 11
102.969
 21
-109.682
  0
LINE
  5
83
100
AcDbEntity
  8
Black
  6
ByLayer
 62
  256
370
   -1
100
AcDbLine
 10
102.969
 20
-109.682
 11
103.684
 21
-109.682
  0
LINE
  5
84
100
AcDbEntity
  8
Black
  6
ByLayer
 62
  256
370
   -1
100
AcDbLine
 10
103.684
 20
-109.682
 11
104.112
 21
-109.825
  0
LINE
  5
85
100
AcDbEntity
  8
Black
  6
ByLayer
 62
  256
370
   -1
100
AcDbLine
 10
104.112
 20
-109.825
 11
104.398
 21
-110.111
  0
LINE
  5
86
100
AcDbEntity
  8
Black
  6
ByLayer
 62
  256
370
   -1
100
AcDbLine
 10
104.398
 20
-110.111
 11
104.541
 21
-110.396
  0
LINE
  5
87
100
AcDbEntity
  8
Black
  6
ByLayer
 62
  256
370
   -1
100
AcDbLine
 10
104.541
 20
-110.396
 11
104.684
 21
-110.968
  0
LINE
  5
88
100
AcDbEntity
  8
Black
  6
ByLayer
 62
  256
370
   -1
100
AcDbLine
 10
104.684
 20
-110.968
 11
104.684
 21
-111.396
  0
LINE
  5
89
100
AcDbEntity
  8
Black
  6
ByLayer
 62
  256
370
   -1
100
AcDbLine
 10
104.684
 20
-111.396
 11
104.541
 21
-111.968
  0
LINE
  5
8A
100
AcDbEntity
  8
Black
  6
ByLayer
 62
  256
370
   -1
100
AcDbLine
 10
104.541
 20
-111.968
 11
104.398
 21
-112.254
  0
LINE
  5
8B
100
AcDbEntity
  8
Black
  6
ByLayer
 62
  256
370
   -1
100
AcDbLine
 10
104.398
 20
-112.254
 11
104.112
 21
-112.539
  0
LINE
  5
8C
100
AcDbEntity
  8
Black
  6
ByLayer
 62
  256
370
   -1
100
AcDbLine
 10
104.112
 20
-112.539
 11
103.684
 21
-112.682
  0
LINE
  5
8D
100
AcDbEntity
  8
Black
  6
ByLayer
 62
  256
370
   -1
100
AcDbLine
 10
103.684
 20
-112.682
 11
102.969
 21
-112.682
  0
LINE
  5
8E
100
AcDbEntity
  8
Black
  6
ByLayer
 62
  256
370
   -1
100
AcDbLine
 10
105.969
 20
-112.682
 11
105.969
 21
-110.682
  0
LINE
  5
8F
100
AcDbEntity
  8
Black
  6
ByLayer
 62
  256
370
   -1
100
AcDbLine
 10
105.969
 20
-111.254
 11
106.112
 21
-110.968
  0
LINE
  5
90
100
AcDbEntity
  8
Black
  6
ByLayer
 62
  256
370
   -1
100
AcDbLine
 10
106.112
 20
-110.968
 11
106.255
 21
-110.825
  0
LINE
  5
91
100
AcDbEntity
  8
Black
  6
ByLayer
 62
  256
370
   -1
100
AcDbLine
 10
106.255
 20
-110.825
 11
106.541
 21
-110.682
  0
LINE
  5
92
100
AcDbEntity
  8
Black
  6
ByLayer
 62
  256
370
   -1
100
AcDbLine
 10
106.541
 20
-110.682
 11
106.826
 21
-110.682
  0
LINE
  5
93
100
AcDbEntity
  8
Black
  6
ByLayer
 62
  256
370
   -1
100
AcDbLine
 10
107.826
 20
-112.682
 11
107.826
 21
-110.682
  0
LINE
  5
94
100
AcDbEntity
  8
Black
  6
ByLayer
 62
  256
370
   -1
100
AcDbLine
 10
107.826
 20
-109.682
 11
107.684
 21
-109.825
  0
LINE
  5
95
100
AcDbEntity
  8
Black
  6
ByLayer
 62
  256
370
   -1
100
AcDbLine
 10
107.684
 20
-109.825
 11
107.826
 21
-109.968
  0
LINE
  5
96
100
AcDbEntity
  8
Black
  6
ByLayer
 62
  256
370
   -1
100
AcDbLine
 10
107.826
 20
-109.968
 11
107.969
 21
-109.825
  0
LINE
  5
97
100
AcDbEntity
  8
Black
  6
ByLayer
 62
  256
370
   -1
100
AcDbLine
 10
107.969
 20
-109.825
 11
107.826
 21
-109.682
  0
LINE
  5
98
100
AcDbEntity
  8
Black
  6
ByLayer
 62
  256
370
   -1
100
AcDbLine
 10
107.826
 20
-109.682
 11
107.826
 21
-109.968
  0
LINE
  5
99
100
AcDbEntity
  8
Black
  6
ByLayer
 62
  256
370
   -1
100
AcDbLine
 10
109.684
 20
-112.682
 11
109.398
 21
-112.539
  0
LINE
  5
9A
100
AcDbEntity
  8
Black
  6
ByLayer
 62
  256
370
   -1
100
AcDbLine
 10
109.398
 20
-112.539
 11
109.255
 21
-112.254
  0
LINE
  5
9B
100
AcDbEntity
  8
Black
  6
ByLayer
 62
  256
370
   -1
100
AcDbLine
 10
109.255
 20
-112.254
 11
109.255
 21
-109.682
  0
LINE
  5
9C
100
AcDbEntity
  8
Black
  6
ByLayer
 62
  256
370
   -1
100
AcDbLine
 10
111.255
 20
-112.682
 11
110.969
 21
-112.539
  0
LINE
  5
9D
100
AcDbEntity
  8
Black
  6
ByLayer
 62
  256
370
   -1
100
AcDbLine
 10
110.969
 20
-112.539
 11
110.826
 21
-112.254
  0
LINE
  5
9E
100
AcDbEntity
  8
Black
  6
ByLayer
 62
  256
370
   -1
100
AcDbLine
 10
110.826
 20
-112.254
 11
110.826
 21
-109.682
  0
LINE
  5
9F
100
AcDbEntity
  8
Black
  6
ByLayer
 62
  256
370
   -1
100
AcDbLine
 10
114.684
 20
-112.682
 11
114.684
 21
-109.682
  0
LINE
  5
A0
100
AcDbEntity
  8
Black
  6
ByLayer
 62
  256
370
   -1
100
AcDbLine
 10
114.684
 20
-109.682
 11
115.684
 21
-111.825
  0
LINE
  5
A1
100
AcDbEntity
  8
Black
  6
ByLayer
 62
  256
370
   -1
100
AcDbLine
 10
115.684
 20
-111.825
 11
116.684
 21
-109.682
  0
LINE
  5
A2
100
AcDbEntity
  8
Black
  6
ByLayer
 62
  256
370
   -1
100
AcDbLine
 10
116.684
 20
-109.682
 11
116.684
 21
-112.682
  0
LINE
  5
A3
100
AcDbEntity
  8
Black
  6
ByLayer
 62
  256
370
   -1
100
AcDbLine
 10
119.398
 20
-112.682
 11
119.398
 21
-111.111
  0
LINE
  5
A4
100
AcDbEntity
  8
Black
  6
ByLayer
 62
  256
370
   -1
100
AcDbLine
 10
119.398
 20
-111.111
 11
119.255
 21
-110.825
  0
LINE
  5
A5
100
AcDbEntity
  8
Black
  6
ByLayer
 62
  256
370
   -1
100
AcDbLine
 10
119.255
 20
-110.825
 11
118.969
 21
-110.682
  0
LINE
  5
A6
100
AcDbEntity
  8
Black
  6
ByLayer
 62
  256
370
   -1
100
AcDbLine
 10
118.969
 20
-110.682
 11
118.398
 21
-110.682
  0
LINE
  5
A7
100
AcDbEntity
  8
Black
  6
ByLayer
 62
  256
370
   -1
100
AcDbLine
 10
118.398
 20
-110.682
 11
118.112
 21
-110.825
  0
LINE
  5
A8
100
AcDbEntity
  8
Black
  6
ByLayer
 62
  256
370
   -1
100
AcDbLine
 10
119.398
 20
-112.539
 11
119.112
 21
-112.682
  0
LINE
  5
A9
100
AcDbEntity
  8
Black
  6
ByLayer
 62
  256
370
   -1
100
AcDbLine
 10
119.112
 20
-112.682
 11
118.398
 21
-112.682
  0
LINE
  5
AA
100
AcDbEntity
  8
Black
  6
ByLayer
 62
  256
370
   -1
100
AcDbLine
 10
118.398
 20
-112.682
 11
118.112
 21
-112.539
  0
LINE
  5
AB
100
AcDbEntity
  8
Black
  6
ByLayer
 62
  256
370
   -1
100
AcDbLine
 10
118.112
 20
-112.539
 11
117.969
 21
-112.254
  0
LINE
  5
AC
100
AcDbEntity
  8
Black
  6
ByLayer
 62
  256
370
   -1
100
AcDbLine
 10
117.969
 20
-112.254
 11
117.969
 21
-111.968
  0
LINE
  5
AD
100
AcDbEntity
  8
Black
  6
ByLayer
 62
  256
370
   -1
100
AcDbLine
 10
117.969
 20
-111.968
 11
118.112
 21
-111.682
  0
LINE
  5
AE
100
AcDbEntity
  8
Black
  6
ByLayer
 62
  256
370
   -1
100
AcDbLine
 10
118.112
 20
-111.682
 11
118.398
 21
-111.539
  0
LINE
  5
AF
100
AcDbEntity
  8
Black
  6
ByLayer
 62
  256
370
   -1
100
AcDbLine
 10
118.398
 20
-111.539
 11
119.112
 21
-111.539
  0
LINE
  5
B0
100
AcDbEntity
  8
Black
  6
ByLayer
 62
  256
370
   -1
100
AcDbLine
 10
119.112
 20
-111.539
 11
119.398
 21
-111.396
  0
LINE
  5
B1
100
AcDbEntity
  8
Black
  6
ByLayer
 62
  256
370
   -1
100
AcDbLine
 10
120.826
 20
-110.682
 11
120.826
 21
-113.682
  0
LINE
  5
B2
100
AcDbEntity
  8
Black
  6
ByLayer
 62
  256
370
   -1
100
AcDbLine
 10
120.826
 20
-110.825
 11
121.112
 21
-110.682
  0
LINE
  5
B3
100
AcDbEntity
  8
Black
  6
ByLayer
 62
  256
370
   -1
100
AcDbLine
 10
121.112
 20
-110.682
 11
121.684
 21
-110.682
  0
LINE
  5
B4
100
AcDbEntity
  8
Black
  6
ByLayer
 62
  256
370
   -1
100
AcDbLine
 10
121.684
 20
-110.682
 11
121.969
 21
-110.825
  0
LINE
  5
B5
100
AcDbEntity
  8
Black
  6
ByLayer
 62
  256
370
   -1
100
AcDbLine
 10
121.969
 20
-110.825
 11
122.112
 21
-110.968
  0
LINE
  5
B6
100
AcDbEntity
  8
Black
  6
ByLayer
 62
  256
370
   -1
100
AcDbLine
 10
122.112
 20
-110.968
 11
122.255
 21
-111.254
  0
LINE
  5
B7
100
AcDbEntity
  8
Black
  6
ByLayer
 62
  256
370
   -1
100
AcDbLine
 10
122.255
 20
-111.254
 11
122.255
 21
-112.111
  0
LINE
  5
B8
100
AcDbEntity
  8
Black
  6
ByLayer
 62
  256
370
   -1
100
AcDbLine
 10
122.255
 20
-112.111
 11
122.112
 21
-112.396
  0
LINE
  5
B9
100
AcDbEntity
  8
Black
  6
ByLayer
 62
  256
370
   -1
100
AcDbLine
 10
122.112
 20
-112.396
 11
121.969
 21
-112.539
  0
LINE
  5
BA
100
AcDbEntity
  8
Black
  6
ByLayer
 62
  256
370
   -1
100
AcDbLine
 10
121.969
 20
-112.539
 11
121.684
 21
-112.682
  0
LINE
  5
BB
100
AcDbEntity
  8
Black
  6
ByLayer
 62
  256
370
   -1
100
AcDbLine
 10
121.684
 20
-112.682
 11
121.112
 21
-112.682
  0
LINE
  5
BC
100
AcDbEntity
  8
Black
  6
ByLayer
 62
  256
370
   -1
100
AcDbLine
 10
121.112
 20
-112.682
 11
120.826
 21
-112.539
  0
LINE
  5
BD
100
AcDbEntity
  8
Black
  6
ByLayer
 62
  256
370
   -1
100
AcDbLine
 10
123.541
 20
-112.396
 11
123.684
 21
-112.539
  0
LINE
  5
BE
100
AcDbEntity
  8
Black
  6
ByLayer
 62
  256
370
   -1
100
AcDbLine
 10
123.684
 20
-112.539
 11
123.541
 21
-112.682
  0
LINE
  5
BF
100
AcDbEntity
  8
Black
  6
ByLayer
 62
  256
370
   -1
100
AcDbLine
 10
123.541
 20
-112.682
 11
123.398
 21
-112.539
  0
LINE
  5
C0
100
AcDbEntity
  8
Black
  6
ByLayer
 62
  256
370
   -1
100
AcDbLine
 10
123.398
 20
-112.539
 11
123.541
 21
-112.396
  0
LINE
  5
C1
100
AcDbEntity
  8
Black
  6
ByLayer
 62
  256
370
   -1
100
AcDbLine
 10
123.541
 20
-112.396
 11
123.541
 21
-112.682
  0
LINE
  5
C2
100
AcDbEntity
  8
Black
  6
ByLayer
 62
  256
370
   -1
100
AcDbLine
 10
123.541
 20
-110.825
 11
123.684
 21
-110.968
  0
LINE
  5
C3
100
AcDbEntity
  8
Black
  6
ByLayer
 62
  256
370
   -1
100
AcDbLine
 10
123.684
 20
-110.968
 11
123.541
 21
-111.111
  0
LINE
  5
C4
100
AcDbEntity
  8
Black
  6
ByLayer
 62
  256
370
   -1
100
AcDbLine
 10
123.541
 20
-111.111
 11
123.398
 21
-110.968
  0
LINE
  5
C5
100
AcDbEntity
  8
Black
  6
ByLayer
 62
  256
370
   -1
100
AcDbLine
 10
123.398
 20
-110.968
 11
123.541
 21
-110.825
  0
LINE
  5
C6
100
AcDbEntity
  8
Black
  6
ByLayer
 62
  256
370
   -1
100
AcDbLine
 10
123.541
 20
-110.825
 11
123.541
 21
-111.111
  0
LINE
  5
C7
100
AcDbEntity
  8
Black
  6
ByLayer
 62
  256
370
   -1
100
AcDbLine
 10
98.255
 20
-116.625
 11
100.255
 21
-118.625
  0
LINE
  5
C8
100
AcDbEntity
  8
Black
  6
ByLayer
 62
  256
370
   -1
100
AcDbLine
 10
100.255
 20
-116.625
 11
98.255
 21
-118.625
  0
LINE
  5
C9
100
AcDbEntity
  8
Black
  6
ByLayer
 62
  256
370
   -1
100
AcDbLine
 10
102.826
 20
-116.268
 11
102.969
 21
-116.125
  0
LINE
  5
CA
100
AcDbEntity
  8
Black
  6
ByLayer
 62
  256
370
   -1
100
AcDbLine
 10
102.969
 20
-116.125
 11
103.255
 21
-115.982
  0
LINE
  5
CB
100
AcDbEntity
  8
Black
  6
ByLayer
 62
  256
370
   -1
100
AcDbLine
 10
103.255
 20
-115.982
 11
103.969
 21
-115.982
  0
LINE
  5
CC
100
AcDbEntity
  8
Black
  6
ByLayer
 62
  256
370
   -1
100
AcDbLine
 10
103.969
 20
-115.982
 11
104.255
 21
-116.125
  0
LINE
  5
CD
100
AcDbEntity
  8
Black
  6
ByLayer
 62
  256
370
   -1
100
AcDbLine
 10
104.255
 20
-116.125
 11
104.398
 21
-116.268
  0
LINE
  5
CE
100
AcDbEntity
  8
Black
  6
ByLayer
 62
  256
370
   -1
100
AcDbLine
 10
104.398
 20
-116.268
 11
104.541
 21
-116.554
  0
LINE
  5
CF
100
AcDbEntity
  8
Black
  6
ByLayer
 62
  256
370
   -1
100
AcDbLine
 10
104.541
 20
-116.554
 11
104.541
 21
-116.839
  0
LINE
  5
D0
100
AcDbEntity
  8
Black
  6
ByLayer
 62
  256
370
   -1
100
AcDbLine
 10
104.541
 20
-116.839
 11
104.398
 21
-117.268
  0
LINE
  5
D1
100
AcDbEntity
  8
Black
  6
ByLayer
 62
  256
370
   -1
100
AcDbLine
 10
104.398
 20
-117.268
 11
102.684
 21
-118.982
  0
LINE
  5
D2
100
AcDbEntity
  8
Black
  6
ByLayer
 62
  256
370
   -1
100
AcDbLine
 10
102.684
 20
-118.982
 11
104.541
 21
-118.982
  0
LINE
  5
D3
100
AcDbEntity
  8
Black
  6
ByLayer
 62
  256
370
   -1
100
AcDbLine
 10
105.826
 20
-118.696
 11
105.969
 21
-118.839
  0
LINE
  5
D4
100
AcDbEntity
  8
Black
  6
ByLayer
 62
  256
370
   -1
100
AcDbLine
 10
105.969
 20
-118.839
 11
105.826
 21
-118.982
  0
LINE
  5
D5
100
AcDbEntity
  8
Black
  6
ByLayer
 62
  256
370
   -1
100
AcDbLine
 10
105.826
 20
-118.982
 11
105.684
 21
-118.839
  0
LINE
  5
D6
100
AcDbEntity
  8
Black
  6
ByLayer
 62
  256
370
   -1
100
AcDbLine
 10
105.684
 20
-118.839
 11
105.826
 21
-118.696
  0
LINE
  5
D7
100
AcDbEntity
  8
Black
  6
ByLayer
 62
  256
370
   -1
100
AcDbLine
 10
105.826
 20
-118.696
 11
105.826
 21
-118.982
  0
LINE
  5
D8
100
AcDbEntity
  8
Black
  6
ByLayer
 62
  256
370
   -1
100
AcDbLine
 10
107.826
 20
-115.982
 11
108.112
 21
-115.982
  0
LINE
  5
D9
100
AcDbEntity
  8
Black
  6
ByLayer
 62
  256
370
   -1
100
AcDbLine
 10
108.112
 20
-115.982
 11
108.398
 21
-116.125
  0
LINE
  5
DA
100
AcDbEntity
  8
Black
  6
ByLayer
 62
  256
370
   -1
100
AcDbLine
 10
108.398
 20
-116.125
 11
108.541
 21
-116.268
  0
LINE
  5
DB
100
AcDbEntity
  8
Black
  6
ByLayer
 62
  256
370
   -1
100
AcDbLine
 10
108.541
 20
-116.268
 11
108.684
 21
-116.554
  0
LINE
  5
DC
100
AcDbEntity
  8
Black
  6
ByLayer
 62
  256
370
   -1
100
AcDbLine
 10
108.684
 20
-116.554
 11
108.826
 21
-117.125
  0
LINE
  5
DD
100
AcDbEntity
  8
Black
  6
ByLayer
 62
  256
370
   -1
100
AcDbLine
 10
108.826
 20
-117.125
 11
108.826
 21
-117.839
  0
LINE
  5
DE
100
AcDbEntity
  8
Black
  6
ByLayer
 62
  256
370
   -1
100
AcDbLine
 10
108.826
 20
-117.839
 11
108.684
 21
-118.411
  0
LINE
  5
DF
100
AcDbEntity
  8
Black
  6
ByLayer
 62
  256
370
   -1
100
AcDbLine
 10
108.684
 20
-118.411
 11
108.541
 21
-118.696
  0
LINE
  5
E0
100
AcDbEntity
  8
Black
  6
ByLayer
 62
  256
370
   -1
100
AcDbLine
 10
108.541
 20
-118.696
 11
108.398
 21
-118.839
  0
LINE
  5
E1
100
AcDbEntity
  8
Black
  6
ByLayer
 62
  256
370
   -1
100
AcDbLine
 10
108.398
 20
-118.839
 11
108.112
 21
-118.982
  0
LINE
  5
E2
100
AcDbEntity
  8
Black
  6
ByLayer
 62
  256
370
   -1
100
AcDbLine
 10
108.112
 20
-118.982
 11
107.826
 21
-118.982
  0
LINE
  5
E3
100
AcDbEntity
  8
Black
  6
ByLayer
 62
  256
370
   -1
100
AcDbLine
 10
107.826
 20
-118.982
 11
107.541
 21
-118.839
  0
LINE
  5
E4
100
AcDbEntity
  8
Black
  6
ByLayer
 62
  256
370
   -1
100
AcDbLine
 10
107.541
 20
-118.839
 11
107.398
 21
-118.696
  0
LINE
  5
E5
100
AcDbEntity
  8
Black
  6
ByLayer
 62
  256
370
   -1
100
AcDbLine
 10
107.398
 20
-118.696
 11
107.255
 21
-118.411
  0
LINE
  5
E6
100
AcDbEntity
  8
Black
  6
ByLayer
 62
  256
370
   -1
100
AcDbLine
 10
107.255
 20
-118.411
 11
107.112
 21
-117.839
  0
LINE
  5
E7
100
AcDbEntity
  8
Black
  6
ByLayer
 62
  256
370
   -1
100
AcDbLine
 10
107.112
 20
-117.839
 11
107.112
 21
-117.125
  0
LINE
  5
E8
100
AcDbEntity
  8
Black
  6
ByLayer
 62
  256
370
   -1
100
AcDbLine
 10
107.112
 20
-117.125
 11
107.255
 21
-116.554
  0
LINE
  5
E9
100
AcDbEntity
  8
Black
  6
ByLayer
 62
  256
370
   -1
100
AcDbLine
 10
107.255
 20
-116.554
 11
107.398
 21
-116.268
  0
LINE
  5
EA
100
AcDbEntity
  8
Black
  6
ByLayer
 62
  256
370
   -1
100
AcDbLine
 10
107.398
 20
-116.268
 11
107.541
 21
-116.125
  0
LINE
  5
EB
100
AcDbEntity
  8
Black
  6
ByLayer
 62
  256
370
   -1
100
AcDbLine
 10
107.541
 20
-116.125
 11
107.826
 21
-115.982
  0
LINE
  5
EC
100
AcDbEntity
  8
Black
  6
ByLayer
 62
  256
370
   -1
100
AcDbLine
 10
110.684
 20
-115.982
 11
110.969
 21
-115.982
  0
LINE
  5
ED
100
AcDbEntity
  8
Black
  6
ByLayer
 62
  256
370
   -1
100
AcDbLine
 10
110.969
 20
-115.982
 11
111.255
 21
-116.125
  0
LINE
  5
EE
100
AcDbEntity
  8
Black
  6
ByLayer
 62
  256
370
   -1
100
AcDbLine
 10
111.255
 20
-116.125
 11
111.398
 21
-116.268
  0
LINE
  5
EF
100
AcDbEntity
  8
Black
  6
ByLayer
 62
  256
370
   -1
100
AcDbLine
 10
111.398
 20
-116.268
 11
111.541
 21
-116.554
  0
LINE
  5
F0
100
AcDbEntity
  8
Black
  6
ByLayer
 62
  256
370
   -1
100
AcDbLine
 10
111.541
 20
-116.554
 11
111.684
 21
-117.125
  0
LINE
  5
F1
100
AcDbEntity
  8
Black
  6
ByLayer
 62
  256
370
   -1
100
AcDbLine
 10
111.684
 20
-117.125
 11
111.684
 21
-117.839
  0
LINE
  5
F2
100
AcDbEntity
  8
Black
  6
ByLayer
 62
  256
370
   -1
100
AcDbLine
 10
111.684
 20
-117.839
 11
111.541
 21
-118.411
  0
LINE
  5
F3
100
AcDbEntity
  8
Black
  6
ByLayer
 62
  256
370
   -1
100
AcDbLine
 10
111.541
 20
-118.411
 11
111.398
 21
-118.696
  0
LINE
  5
F4
100
AcDbEntity
  8
Black
  6
ByLayer
 62
  256
370
   -1
100
AcDbLine
 10
111.398
 20
-118.696
 11
111.255
 21
-118.839
  0
LINE
  5
F5
100
AcDbEntity
  8
Black
  6
ByLayer
 62
  256
370
   -1
100
AcDbLine
 10
111.255
 20
-118.839
 11
110.969
 21
-118.982
  0
LINE
  5
F6
100
AcDbEntity
  8
Black
  6
ByLayer
 62
  256
370
   -1
100
AcDbLine
 10
110.969
 20
-118.982
 11
110.684
 21
-118.982
  0
LINE
  5
F7
100
AcDbEntity
  8
Black
  6
ByLayer
 62
  256
370
   -1
100
AcDbLine
 10
110.684
 20
-118.982
 11
110.398
 21
-118.839
  0
LINE
  5
F8
100
AcDbEntity
  8
Black
  6
ByLayer
 62
  256
370
   -1
100
AcDbLine
 10
110.398
 20
-118.839
 11
110.255
 21
-118.696
  0
LINE
  5
F9
100
AcDbEntity
  8
Black
  6
ByLayer
 62
  256
370
   -1
100
AcDbLine
 10
110.255
 20
-118.696
 11
110.112
 21
-118.411
  0
LINE
  5
FA
100
AcDbEntity
  8
Black
  6
ByLayer
 62
  256
370
   -1
100
AcDbLine
 10
110.112
 20
-118.411
 11
109.969
 21
-117.839
  0
LINE
  5
FB
100
AcDbEntity
  8
Black
  6
ByLayer
 62
  256
370
   -1
100
AcDbLine
 10
109.969
 20
-117.839
 11
109.969
 21
-117.125
  0
LINE
  5
FC
100
AcDbEntity
  8
Black
  6
ByLayer
 62
  256
370
   -1
100
AcDbLine
 10
109.969
 20
-117.125
 11
110.112
 21
-116.554
  0
LINE
  5
FD
100
AcDbEntity
  8
Black
  6
ByLayer
 62
  256
370
   -1
100
AcDbLine
 10
110.112
 20
-116.554
 11
110.255
 21
-116.268
  0
LINE
  5
FE
100
AcDbEntity
  8
Black
  6
ByLayer
 62
  256
370
   -1
100
AcDbLine
 10
110.255
 20
-116.268
 11
110.398
 21
-116.125
  0
LINE
  5
FF
100
AcDbEntity
  8
Black
  6
ByLayer
 62
  256
370
   -1
100
AcDbLine
 10
110.398
 20
-116.125
 11
110.684
 21
-115.982
  0
LINE
  5
100
100
AcDbEntity
  8
Black
  6
ByLayer
 62
  256
370
   -1
100
AcDbLine
 10
112.969
 20
-118.982
 11
112.969
 21
-116.982
  0
LINE
  5
101
100
AcDbEntity
  8
Black
  6
ByLayer
 62
  256
370
   -1
100
AcDbLine
 10
112.969
 20
-117.268
 11
113.112
 21
-117.125
  0
LINE
  5
102
100
AcDbEntity
  8
Black
  6
ByLayer
 62
  256
370
   -1
100
AcDbLine
 10
113.112
 20
-117.125
 11
113.398
 21
-116.982
  0
LINE
  5
103
100
AcDbEntity
  8
Black
  6
ByLayer
 62
  256
370
   -1
100
AcDbLine
 10
113.398
 20
-116.982
 11
113.826
 21
-116.982
  0
LINE
  5
104
100
AcDbEntity
  8
Black
  6
ByLayer
 62
  256
370
   -1
100
AcDbLine
 10
113.826
 20
-116.982
 11
114.112
 21
-117.125
  0
LINE
  5
105
100
AcDbEntity
  8
Black
  6
ByLayer
 62
  256
370
   -1
100
AcDbLine
 10
114.112
 20
-117.125
 11
114.255
 21
-117.411
  0
LINE
  5
106
100
AcDbEntity
  8
Black
  6
ByLayer
 62
  256
370
   -1
100
AcDbLine
 10
114.255
 20
-117.411
 11
114.255
 21
-118.982
  0
LINE
  5
107
100
AcDbEntity
  8
Black
  6
ByLayer
 62
  256
370
   -1
100
AcDbLine
 10
114.255
 20
-117.411
 11
114.398
 21
-117.125
  0
LINE
  5
108
100
AcDbEntity
  8
Black
  6
ByLayer
 62
  256
370
   -1
100
AcDbLine
 10
114.398
 20
-117.125
 11
114.684
 21
-116.982
  0
LINE
  5
109
100
AcDbEntity
  8
Black
  6
ByLayer
 62
  256
370
   -1
100
AcDbLine
 10
114.684
 20
-116.982
 11
115.112
 21
-116.982
  0
LINE
  5
10A
100
AcDbEntity
  8
Black
  6
ByLayer
 62
  256
370
   -1
100
AcDbLine
 10
115.112
 20
-116.982
 11
115.398
 21
-117.125
  0
LINE
  5
10B
100
AcDbEntity
  8
Black
  6
ByLayer
 62
  256
370
   -1
100
AcDbLine
 10
115.398
 20
-117.125
 11
115.541
 21
-117.411
  0
LINE
  5
10C
100
AcDbEntity
  8
Black
  6
ByLayer
 62
  256
370
   -1
100
AcDbLine
 10
115.541
 20
-117.411
 11
115.541
 21
-118.982
  0
LINE
  5
10D
100
AcDbEntity
  8
Black
  6
ByLayer
 62
  256
370
   -1
100
AcDbLine
 10
116.969
 20
-118.982
 11
116.969
 21
-116.982
  0
LINE
  5
10E
100
AcDbEntity
  8
Black
  6
ByLayer
 62
  256
370
   -1
100
AcDbLine
 10
116.969
 20
-117.268
 11
117.112
 21
-117.125
  0
LINE
  5
10F
100
AcDbEntity
  8
Black
  6
ByLayer
 62
  256
370
   -1
100
AcDbLine
 10
117.112
 20
-117.125
 11
117.398
 21
-116.982
  0
LINE
  5
110
100
AcDbEntity
  8
Black
  6
ByLayer
 62
  256
370
   -1
100
AcDbLine
 10
117.398
 20
-116.982
 11
117.826
 21
-116.982
  0
LINE
  5
111
100
AcDbEntity
  8
Black
  6
ByLayer
 62
  256
370
   -1
100
AcDbLine
 10
117.826
 20
-116.982
 11
118.112
 21
-117.125
  0
LINE
  5
112
100
AcDbEntity
  8
Black
  6
ByLayer
 62
  256
370
   -1
100
AcDbLine
 10
118.112
 20
-117.125
 11
118.255
 21
-117.411
  0
LINE
  5
113
100
AcDbEntity
  8
Black
  6
ByLayer
 62
  256
370
   -1
100
AcDbLine
 10
118.255
 20
-117.411
 11
118.255
 21
-118.982
  0
LINE
  5
114
100
AcDbEntity
  8
Black
  6
ByLayer
 62
  256
370
   -1
100
AcDbLine
 10
118.255
 20
-117.411
 11
118.398
 21
-117.125
  0
LINE
  5
115
100
AcDbEntity
  8
Black
  6
ByLayer
 62
  256
370
   -1
100
AcDbLine
 10
118.398
 20
-117.125
 11
118.684
 21
-116.982
  0
LINE
  5
116
100
AcDbEntity
  8
Black
  6
ByLayer
 62
  256
370
   -1
100
AcDbLine
 10
118.684
 20
-116.982
 11
119.112
 21
-116.982
  0
LINE
  5
117
100
AcDbEntity
  8
Black
  6
ByLayer
 62
  256
370
   -1
100
AcDbLine
 10
119.112
 20
-116.982
 11
119.398
 21
-117.125
  0
LINE
  5
118
100
AcDbEntity
  8
Black
  6
ByLayer
 62
  256
370
   -1
100
AcDbLine
 10
119.398
 20
-117.125
 11
119.541
 21
-117.411
  0
LINE
  5
119
100
AcDbEntity
  8
Black
  6
ByLayer
 62
  256
370
   -1
100
AcDbLine
 10
119.541
 20
-117.411
 11
119.541
 21
-118.982
  0
LINE
  5
11A
100
AcDbEntity
  8
Black
  6
ByLayer
 62
  256
370
   -1
100
AcDbLine
 10
125.398
 20
-115.839
 11
122.826
 21
-119.696
  0
LINE
  5
11B
100
AcDbEntity
  8
Black
  6
ByLayer
 62
  256
370
   -1
100
AcDbLine
 10
129.255
 20
-115.982
 11
129.541
 21
-115.982
  0
LINE
  5
11C
100
AcDbEntity
  8
Black
  6
ByLayer
 62
  256
370
   -1
100
AcDbLine
 10
129.541
 20
-115.982
 11
129.826
 21
-116.125
  0
LINE
  5
11D
100
AcDbEntity
  8
Black
  6
ByLayer
 62
  256
370
   -1
100
AcDbLine
 10
129.826
 20
-116.125
 11
129.969
 21
-116.268
  0
LINE
  5
11E
100
AcDbEntity
  8
Black
  6
ByLayer
 62
  256
370
   -1
100
AcDbLine
 10
129.969
 20
-116.268
 11
130.112
 21
-116.554
  0
LINE
  5
11F
100
AcDbEntity
  8
Black
  6
ByLayer
 62
  256
370
   -1
100
AcDbLine
 10
130.112
 20
-116.554
 11
130.255
 21
-117.125
  0
LINE
  5
120
100
AcDbEntity
  8
Black
  6
ByLayer
 62
  256
370
   -1
100
AcDbLine
 10
130.255
 20
-117.125
 11
130.255
 21
-117.839
  0
LINE
  5
121
100
AcDbEntity
  8
Black
  6
ByLayer
 62
  256
370
   -1
100
AcDbLine
 10
130.255
 20
-117.839
 11
130.112
 21
-118.411
  0
LINE
  5
122
100
AcDbEntity
  8
Black
  6
ByLayer
 62
  256
370
   -1
100
AcDbLine
 10
130.112
 20
-118.411
 11
129.969
 21
-118.696
  0
LINE
  5
123
100
AcDbEntity
  8
Black
  6
ByLayer
 62
  256
370
   -1
100
AcDbLine
 10
129.969
 20
-118.696
 11
129.826
 21
-118.839
  0
LINE
  5
124
100
AcDbEntity
  8
Black
  6
ByLayer
 62
  256
370
   -1
100
AcDbLine
 10
129.826
 20
-118.839
 11
129.541
 21
-118.982
  0
LINE
  5
125
100
AcDbEntity
  8
Black
  6
ByLayer
 62
  256
370
   -1
100
AcDbLine
 10
129.541
 20
-118.982
 11
129.255
 21
-118.982
  0
LINE
  5
126
100
AcDbEntity
  8
Black
  6
ByLayer
 62
  256
370
   -1
100
AcDbLine
 10
129.255
 20
-118.982
 11
128.969
 21
-118.839
  0
LINE
  5
127
100
AcDbEntity
  8
Black
  6
ByLayer
 62
  256
370
   -1
100
AcDbLine
 10
128.969
 20
-118.839
 11
128.826
 21
-118.696
  0
LINE
  5
128
100
AcDbEntity
  8
Black
  6
ByLayer
 62
  256
370
   -1
100
AcDbLine
 10
128.826
 20
-118.696
 11
128.684
 21
-118.411
  0
LINE
  5
129
100
AcDbEntity
  8
Black
  6
ByLayer
 62
  256
370
   -1
100
AcDbLine
 10
128.684
 20
-118.411
 11
128.541
 21
-117.839
  0
LINE
  5
12A
100
AcDbEntity
  8
Black
  6
ByLayer
 62
  256
370
   -1
100
AcDbLine
 10
128.541
 20
-117.839
 11
128.541
 21
-117.125
  0
LINE
  5
12B
100
AcDbEntity
  8
Black
  6
ByLayer
 62
  256
370
   -1
100
AcDbLine
 10
128.541
 20
-117.125
 11
128.684
 21
-116.554
  0
LINE
  5
12C
100
AcDbEntity
  8
Black
  6
ByLayer
 62
  256
370
   -1
100
AcDbLine
 10
128.684
 20
-116.554
 11
128.826
 21
-116.268
  0
LINE
  5
12D
100
AcDbEntity
  8
Black
  6
ByLayer
 62
  256
370
   -1
100
AcDbLine
 10
128.826
 20
-116.268
 11
128.969
 21
-116.125
  0
LINE
  5
12E
100
AcDbEntity
  8
Black
  6
ByLayer
 62
  256
370
   -1
100
AcDbLine
 10
128.969
 20
-116.125
 11
129.255
 21
-115.982
  0
LINE
  5
12F
100
AcDbEntity
  8
Black
  6
ByLayer
 62
  256
370
   -1
100
AcDbLine
 10
131.541
 20
-118.696
 11
131.684
 21
-118.839
  0
LINE
  5
130
100
AcDbEntity
  8
Black
  6
ByLayer
 62
  256
370
   -1
100
AcDbLine
 10
131.684
 20
-118.839
 11
131.541
 21
-118.982
  0
LINE
  5
131
100
AcDbEntity
  8
Black
  6
ByLayer
 62
  256
370
   -1
100
AcDbLine
 10
131.541
 20
-118.982
 11
131.398
 21
-118.839
  0
LINE
  5
132
100
AcDbEntity
  8
Black
  6
ByLayer
 62
  256
370
   -1
100
AcDbLine
 10
131.398
 20
-118.839
 11
131.541
 21
-118.696
  0
LINE
  5
133
100
AcDbEntity
  8
Black
  6
ByLayer
 62
  256
370
   -1
100
AcDbLine
 10
131.541
 20
-118.696
 11
131.541
 21
-118.982
  0
LINE
  5
134
100
AcDbEntity
  8
Black
  6
ByLayer
 62
  256
370
   -1
100
AcDbLine
 10
133.541
 20
-115.982
 11
133.826
 21
-115.982
  0
LINE
  5
135
100
AcDbEntity
  8
Black
  6
ByLayer
 62
  256
370
   -1
100
AcDbLine
 10
133.826
 20
-115.982
 11
134.112
 21
-116.125
  0
LINE
  5
136
100
AcDbEntity
  8
Black
  6
ByLayer
 62
  256
370
   -1
100
AcDbLine
 10
134.112
 20
-116.125
 11
134.255
 21
-116.268
  0
LINE
  5
137
100
AcDbEntity
  8
Black
  6
ByLayer
 62
  256
370
   -1
100
AcDbLine
 10
134.255
 20
-116.268
 11
134.398
 21
-116.554
  0
LINE
  5
138
100
AcDbEntity
  8
Black
  6
ByLayer
 62
  256
370
   -1
100
AcDbLine
 10
134.398
 20
-116.554
 11
134.541
 21
-117.125
  0
LINE
  5
139
100
AcDbEntity
  8
Black
  6
ByLayer
 62
  256
370
   -1
100
AcDbLine
 10
134.541
 20
-117.125
 11
134.541
 21
-117.839
  0
LINE
  5
13A
100
AcDbEntity
  8
Black
  6
ByLayer
 62
  256
370
   -1
100
AcDbLine
 10
134.541
 20
-117.839
 11
134.398
 21
-118.411
  0
LINE
  5
13B
100
AcDbEntity
  8
Black
  6
ByLayer
 62
  256
370
   -1
100
AcDbLine
 10
134.398
 20
-118.411
 11
134.255
 21
-118.696
  0
LINE
  5
13C
100
AcDbEntity
  8
Black
  6
ByLayer
 62
  256
370
   -1
100
AcDbLine
 10
134.255
 20
-118.696
 11
134.112
 21
-118.839
  0
LINE
  5
13D
100
AcDbEntity
  8
Black
  6
ByLayer
 62
  256
370
   -1
100
AcDbLine
 10
134.112
 20
-118.839
 11
133.826
 21
-118.982
  0
LINE
  5
13E
100
AcDbEntity
  8
Black
  6
ByLayer
 62
  256
370
   -1
100
AcDbLine
 10
133.826
 20
-118.982
 11
133.541
 21
-118.982
  0
LINE
  5
13F
100
AcDbEntity
  8
Black
  6
ByLayer
 62
  256
370
   -1
100
AcDbLine
 10
133.541
 20
-118.982
 11
133.255
 21
-118.839
  0
LINE
  5
140
100
AcDbEntity
  8
Black
  6
ByLayer
 62
  256
370
   -1
100
AcDbLine
 10
133.255
 20
-118.839
 11
133.112
 21
-118.696
  0
LINE
  5
141
100
AcDbEntity
  8
Black
  6
ByLayer
 62
  256
370
   -1
100
AcDbLine
 10
133.112
 20
-118.696
 11
132.969
 21
-118.411
  0
LINE
  5
142
100
AcDbEntity
  8
Black
  6
ByLayer
 62
  256
370
   -1
100
AcDbLine
 10
132.969
 20
-118.411
 11
132.826
 21
-117.839
  0
LINE
  5
143
100
AcDbEntity
  8
Black
  6
ByLayer
 62
  256
370
   -1
100
AcDbLine
 10
132.826
 20
-117.839
 11
132.826
 21
-117.125
  0
LINE
  5
144
100
AcDbEntity
  8
Black
  6
ByLayer
 62
  256
370
   -1
100
AcDbLine
 10
132.826
 20
-117.125
 11
132.969
 21
-116.554
  0
LINE
  5
145
100
AcDbEntity
  8
Black
  6
ByLayer
 62
  256
370
   -1
100
AcDbLine
 10
132.969
 20
-116.554
 11
133.112
 21
-116.268
  0
LINE
  5
146
100
AcDbEntity
  8
Black
  6
ByLayer
 62
  256
370
   -1
100
AcDbLine
 10
133.112
 20
-116.268
 11
133.255
 21
-116.125
  0
LINE
  5
147
100
AcDbEntity
  8
Black
  6
ByLayer
 62
  256
370
   -1
100
AcDbLine
 10
133.255
 20
-116.125
 11
133.541
 21
-115.982
  0
LINE
  5
148
100
AcDbEntity
  8
Black
  6
ByLayer
 62
  256
370
   -1
100
AcDbLine
 10
135.541
 20
-115.982
 11
137.541
 21
-115.982
  0
LINE
  5
149
100
AcDbEntity
  8
Black
  6
ByLayer
 62
  256
370
   -1
100
AcDbLine
 10
137.541
 20
-115.982
 11
136.255
 21
-118.982
  0
LINE
  5
14A
100
AcDbEntity
  8
Black
  6
ByLayer
 62
  256
370
   -1
100
AcDbLine
 10
138.826
 20
-118.982
 11
139.398
 21
-118.982
  0
LINE
  5
14B
100
AcDbEntity
  8
Black
  6
ByLayer
 62
  256
370
   -1
100
AcDbLine
 10
139.398
 20
-118.982
 11
139.684
 21
-118.839
  0
LINE
  5
14C
100
AcDbEntity
  8
Black
  6
ByLayer
 62
  256
370
   -1
100
AcDbLine
 10
139.684
 20
-118.839
 11
139.826
 21
-118.696
  0
LINE
  5
14D
100
AcDbEntity
  8
Black
  6
ByLayer
 62
  256
370
   -1
100
AcDbLine
 10
139.826
 20
-118.696
 11
140.112
 21
-118.268
  0
LINE
  5
14E
100
AcDbEntity
  8
Black
  6
ByLayer
 62
  256
370
   -1
100
AcDbLine
 10
140.112
 20
-118.268
 11
140.255
 21
-117.696
  0
LINE
  5
14F
100
AcDbEntity
  8
Black
  6
ByLayer
 62
  256
370
   -1
100
AcDbLine
 10
140.255
 20
-117.696
 11
140.255
 21
-116.554
  0
LINE
  5
150
100
AcDbEntity
  8
Black
  6
ByLayer
 62
  256
370
   -1
100
AcDbLine
 10
140.255
 20
-116.554
 11
140.112
 21
-116.268
  0
LINE
  5
151
100
AcDbEntity
  8
Black
  6
ByLayer
 62
  256
370
   -1
100
AcDbLine
 10
140.112
 20
-116.268
 11
139.969
 21
-116.125
  0
LINE
  5
152
100
AcDbEntity
  8
Black
  6
ByLayer
 62
  256
370
   -1
100
AcDbLine
 10
139.969
 20
-116.125
 11
139.684
 21
-115.982
  0
LINE
  5
153
100
AcDbEntity
  8
Black
  6
ByLayer
 62
  256
370
   -1
100
AcDbLine
 10
139.684
 20
-115.982
 11
139.112
 21
-115.982
  0
LINE
  5
154
100
AcDbEntity
  8
Black
  6
ByLayer
 62
  256
370
   -1
100
AcDbLine
 10
139.112
 20
-115.982
 11
138.826
 21
-116.125
  0
LINE
  5
155
100
AcDbEntity
  8
Black
  6
ByLayer
 62
  256
370
   -1
100
AcDbLine
 10
138.826
 20
-116.125
 11
138.684
 21
-116.268
  0
LINE
  5
156
100
AcDbEntity
  8
Black
  6
ByLayer
 62
  256
370
   -1
100
AcDbLine
 10
138.684
 20
-116.268
 11
138.541
 21
-116.554
  0
LINE
  5
157
100
AcDbEntity
  8
Black
  6
ByLayer
 62
  256
370
   -1
100
AcDbLine
 10
138.541
 20
-116.554
 11
138.541
 21
-117.268
  0
LINE
  5
158
100
AcDbEntity
  8
Black
  6
ByLayer
 62
  256
370
   -1
100
AcDbLine
 10
138.541
 20
-117.268
 11
138.684
 21
-117.554
  0
LINE
  5
159
100
AcDbEntity
  8
Black
  6
ByLayer
 62
  256
370
   -1
100
AcDbLine
 10
138.684
 20
-117.554
 11
138.826
 21
-117.696
  0
LINE
  5
15A
100
AcDbEntity
  8
Black
  6
ByLayer
 62
  256
370
   -1
100
AcDbLine
 10
138.826
 20
-117.696
 11
139.112
 21
-117.839
  0
LINE
  5
15B
100
AcDbEntity
  8
Black
  6
ByLayer
 62
  256
370
   -1
100
AcDbLine
 10
139.112
 20
-117.839
 11
139.684
 21
-117.839
  0
LINE
  5
15C
100
AcDbEntity
  8
Black
  6
ByLayer
 62
  256
370
   -1
100
AcDbLine
 10
139.684
 20
-117.839
 11
139.969
 21
-117.696
  0
LINE
  5
15D
100
AcDbEntity
  8
Black
  6
ByLayer
 62
  256
370
   -1
100
AcDbLine
 10
139.969
 20
-117.696
 11
140.112
 21
-117.554
  0
LINE
  5
15E
100
AcDbEntity
  8
Black
  6
ByLayer
 62
  256
370
   -1
100
AcDbLine
 10
140.112
 20
-117.554
 11
140.255
 21
-117.268
  0
LINE
  5
15F
100
AcDbEntity
  8
Black
  6
ByLayer
 62
  256
370
   -1
100
AcDbLine
 10
141.398
 20
-115.982
 11
141.398
 21
-116.554
  0
LINE
  5
160
100
AcDbEntity
  8
Black
  6
ByLayer
 62
  256
370
   -1
100
AcDbLine
 10
142.541
 20
-115.982
 11
142.541
 21
-116.554
  0
LINE
  5
161
100
AcDbEntity
  8
Black
  6
ByLayer
 62
  256
370
   -1
100
AcDbLine
 10
146.969
 20
-120.125
 11
146.826
 21
-119.982
  0
LINE
  5
162
100
AcDbEntity
  8
Black
  6
ByLayer
 62
  256
370
   -1
100
AcDbLine
 10
146.826
 20
-119.982
 11
146.541
 21
-119.554
  0
LINE
  5
163
100
AcDbEntity
  8
Black
  6
ByLayer
 62
  256
370
   -1
100
AcDbLine
 10
146.541
 20
-119.554
 11
146.398
 21
-119.268
  0
LINE
  5
164
100
AcDbEntity
  8
Black
  6
ByLayer
 62
  256
370
   -1
100
AcDbLine
 10
146.398
 20
-119.268
 11
146.255
 21
-118.839
  0
LINE
  5
165
100
AcDbEntity
  8
Black
  6
ByLayer
 62
  256
370
   -1
100
AcDbLine
 10
146.255
 20
-118.839
 11
146.112
 21
-118.125
  0
LINE
  5
166
100
AcDbEntity
  8
Black
  6
ByLayer
 62
  256
370
   -1
100
AcDbLine
 10
146.112
 20
-118.125
 11
146.112
 21
-117.554
  0
LINE
  5
167
100
AcDbEntity
  8
Black
  6
ByLayer
 62
  256
370
   -1
100
AcDbLine
 10
146.112
 20
-117.554
 11
146.255
 21
-116.839
  0
LINE
  5
168
100
AcDbEntity
  8
Black
  6
ByLayer
 62
  256
370
   -1
100
AcDbLine
 10
146.255
 20
-116.839
 11
146.398
 21
-116.411
  0
LINE
  5
169
100
AcDbEntity
  8
Black
  6
ByLayer
 62
  256
370
   -1
100
AcDbLine
 10
146.398
 20
-116.411
 11
146.541
 21
-116.125
  0
LINE
  5
16A
100
AcDbEntity
  8
Black
  6
ByLayer
 62
  256
370
   -1
100
AcDbLine
 10
146.541
 20
-116.125
 11
146.826
 21
-115.696
  0
LINE
  5
16B
100
AcDbEntity
  8
Black
  6
ByLayer
 62
  256
370
   -1
100
AcDbLine
 10
146.826
 20
-115.696
 11
146.969
 21
-115.554
  0
LINE
  5
16C
100
AcDbEntity
  8
Black
  6
ByLayer
 62
  256
370
   -1
100
AcDbLine
 10
149.398
 20
-116.982
 11
149.398
 21
-118.982
  0
LINE
  5
16D
100
AcDbEntity
  8
Black
  6
ByLayer
 62
  256
370
   -1
100
AcDbLine
 10
148.684
 20
-115.839
 11
147.969
 21
-117.982
  0
LINE
  5
16E
100
AcDbEntity
  8
Black
  6
ByLayer
 62
  256
370
   -1
100
AcDbLine
 10
147.969
 20
-117.982
 11
149.826
 21
-117.982
  0
LINE
  5
16F
100
AcDbEntity
  8
Black
  6
ByLayer
 62
  256
370
   -1
100
AcDbLine
 10
153.255
 20
-118.982
 11
153.255
 21
-115.982
  0
LINE
  5
170
100
AcDbEntity
  8
Black
  6
ByLayer
 62
  256
370
   -1
100
AcDbLine
 10
154.541
 20
-118.982
 11
154.541
 21
-117.411
  0
LINE
  5
171
100
AcDbEntity
  8
Black
  6
ByLayer
 62
  256
370
   -1
100
AcDbLine
 10
154.541
 20
-117.411
 11
154.398
 21
-117.125
  0
LINE
  5
172
100
AcDbEntity
  8
Black
  6
ByLayer
 62
  256
370
   -1
100
AcDbLine
 10
154.398
 20
-117.125
 11
154.112
 21
-116.982
  0
LINE
  5
173
100
AcDbEntity
  8
Black
  6
ByLayer
 62
  256
370
   -1
100
AcDbLine
 10
154.112
 20
-116.982
 11
153.684
 21
-116.982
  0
LINE
  5
174
100
AcDbEntity
  8
Black
  6
ByLayer
 62
  256
370
   -1
100
AcDbLine
 10
153.684
 20
-116.982
 11
153.398
 21
-117.125
  0
LINE
  5
175
100
AcDbEntity
  8
Black
  6
ByLayer
 62
  256
370
   -1
100
AcDbLine
 10
153.398
 20
-117.125
 11
153.255
 21
-117.268
  0
LINE
  5
176
100
AcDbEntity
  8
Black
  6
ByLayer
 62
  256
370
   -1
100
AcDbLine
 10
156.398
 20
-118.982
 11
156.112
 21
-118.839
  0
LINE
  5
177
100
AcDbEntity
  8
Black
  6
ByLayer
 62
  256
370
   -1
100
AcDbLine
 10
156.112
 20
-118.839
 11
155.969
 21
-118.696
  0
LINE
  5
178
100
AcDbEntity
  8
Black
  6
ByLayer
 62
  256
370
   -1
100
AcDbLine
 10
155.969
 20
-118.696
 11
155.826
 21
-118.411
  0
LINE
  5
179
100
AcDbEntity
  8
Black
  6
ByLayer
 62
  256
370
   -1
100
AcDbLine
 10
155.826
 20
-118.411
 11
155.826
 21
-117.554
  0
LINE
  5
17A
100
AcDbEntity
  8
Black
  6
ByLayer
 62
  256
370
   -1
100
AcDbLine
 10
155.826
 20
-117.554
 11
155.969
 21
-117.268
  0
LINE
  5
17B
100
AcDbEntity
  8
Black
  6
ByLayer
 62
  256
370
   -1
100
AcDbLine
 10
155.969
 20
-117.268
 11
156.112
 21
-117.125
  0
LINE
  5
17C
100
AcDbEntity
  8
Black
  6
ByLayer
 62
  256
370
   -1
100
AcDbLine
 10
156.112
 20
-117.125
 11
156.398
 21
-116.982
  0
LINE
  5
17D
100
AcDbEntity
  8
Black
  6
ByLayer
 62
  256
370
   -1
100
AcDbLine
 10
156.398
 20
-116.982
 11
156.826
 21
-116.982
  0
LINE
  5
17E
100
AcDbEntity
  8
Black
  6
ByLayer
 62
  256
370
   -1
100
AcDbLine
 10
156.826
 20
-116.982
 11
157.112
 21
-117.125
  0
LINE
  5
17F
100
AcDbEntity
  8
Black
  6
ByLayer
 62
  256
370
   -1
100
AcDbLine
 10
157.112
 20
-117.125
 11
157.255
 21
-117.268
  0
LINE
  5
180
100
AcDbEntity
  8
Black
  6
ByLayer
 62
  256
370
   -1
100
AcDbLine
 10
157.255
 20
-117.268
 11
157.398
 21
-117.554
  0
LINE
  5
181
100
AcDbEntity
  8
Black
  6
ByLayer
 62
  256
370
   -1
100
AcDbLine
 10
157.398
 20
-117.554
 11
157.398
 21
-118.411
  0
LINE
  5
182
100
AcDbEntity
  8
Black
  6
ByLayer
 62
  256
370
   -1
100
AcDbLine
 10
157.398
 20
-118.411
 11
157.255
 21
-118.696
  0
LINE
  5
183
100
AcDbEntity
  8
Black
  6
ByLayer
 62
  256
370
   -1
100
AcDbLine
 10
157.255
 20
-118.696
 11
157.112
 21
-118.839
  0
LINE
  5
184
100
AcDbEntity
  8
Black
  6
ByLayer
 62
  256
370
   -1
100
AcDbLine
 10
157.112
 20
-118.839
 11
156.826
 21
-118.982
  0
LINE
  5
185
100
AcDbEntity
  8
Black
  6
ByLayer
 62
  256
370
   -1
100
AcDbLine
 10
156.826
 20
-118.982
 11
156.398
 21
-118.982
  0
LINE
  5
186
100
AcDbEntity
  8
Black
  6
ByLayer
 62
  256
370
   -1
100
AcDbLine
 10
159.112
 20
-118.982
 11
158.826
 21
-118.839
  0
LINE
  5
187
100
AcDbEntity
  8
Black
  6
ByLayer
 62
  256
370
   -1
100
AcDbLine
 10
158.826
 20
-118.839
 11
158.684
 21
-118.554
  0
LINE
  5
188
100
AcDbEntity
  8
Black
  6
ByLayer
 62
  256
370
   -1
100
AcDbLine
 10
158.684
 20
-118.554
 11
158.684
 21
-115.982
  0
LINE
  5
189
100
AcDbEntity
  8
Black
  6
ByLayer
 62
  256
370
   -1
100
AcDbLine
 10
161.398
 20
-118.839
 11
161.112
 21
-118.982
  0
LINE
  5
18A
100
AcDbEntity
  8
Black
  6
ByLayer
 62
  256
370
   -1
100
AcDbLine
 10
161.112
 20
-118.982
 11
160.541
 21
-118.982
  0
LINE
  5
18B
100
AcDbEntity
  8
Black
  6
ByLayer
 62
  256
370
   -1
100
AcDbLine
 10
160.541
 20
-118.982
 11
160.255
 21
-118.839
  0
LINE
  5
18C
100
AcDbEntity
  8
Black
  6
ByLayer
 62
  256
370
   -1
100
AcDbLine
 10
160.255
 20
-118.839
 11
160.112
 21
-118.554
  0
LINE
  5
18D
100
AcDbEntity
  8
Black
  6
ByLayer
 62
  256
370
   -1
100
AcDbLine
 10
160.112
 20
-118.554
 11
160.112
 21
-117.411
  0
LINE
  5
18E
100
AcDbEntity
  8
Black
  6
ByLayer
 62
  256
370
   -1
100
AcDbLine
 10
160.112
 20
-117.411
 11
160.255
 21
-117.125
  0
LINE
  5
18F
100
AcDbEntity
  8
Black
  6
ByLayer
 62
  256
370
   -1
100
AcDbLine
 10
160.255
 20
-117.125
 11
160.541
 21
-116.982
  0
LINE
  5
190
100
AcDbEntity
  8
Black
  6
ByLayer
 62
  256
370
   -1
100
AcDbLine
 10
160.541
 20
-116.982
 11
161.112
 21
-116.982
  0
LINE
  5
191
100
AcDbEntity
  8
Black
  6
ByLayer
 62
  256
370
   -1
100
AcDbLine
 10
161.112
 20
-116.982
 11
161.398
 21
-117.125
  0
LINE
  5
192
100
AcDbEntity
  8
Black
  6
ByLayer
 62
  256
370
   -1
100
AcDbLine
 10
161.398
 20
-117.125
 11
161.541
 21
-117.411
  0
LINE
  5
193
100
AcDbEntity
  8
Black
  6
ByLayer
 62
  256
370
   -1
100
AcDbLine
 10
161.541
 20
-117.411
 11
161.541
 21
-117.696
  0
LINE
  5
194
100
AcDbEntity
  8
Black
  6
ByLayer
 62
  256
370
   -1
100
AcDbLine
 10
161.541
 20
-117.696
 11
160.112
 21
-117.982
  0
LINE
  5
195
100
AcDbEntity
  8
Black
  6
ByLayer
 62
  256
370
   -1
100
AcDbLine
 10
162.684
 20
-118.839
 11
162.969
 21
-118.982
  0
LINE
  5
196
100
AcDbEntity
  8
Black
  6
ByLayer
 62
  256
370
   -1
100
AcDbLine
 10
162.969
 20
-118.982
 11
163.541
 21
-118.982
  0
LINE
  5
197
100
AcDbEntity
  8
Black
  6
ByLayer
 62
  256
370
   -1
100
AcDbLine
 10
163.541
 20
-118.982
 11
163.826
 21
-118.839
  0
LINE
  5
198
100
AcDbEntity
  8
Black
  6
ByLayer
 62
  256
370
   -1
100
AcDbLine
 10
163.826
 20
-118.839
 11
163.969
 21
-118.554
  0
LINE
  5
199
100
AcDbEntity
  8
Black
  6
ByLayer
 62
  256
370
   -1
100
AcDbLine
 10
163.969
 20
-118.554
 11
163.969
 21
-118.411
  0
LINE
  5
19A
100
AcDbEntity
  8
Black
  6
ByLayer
 62
  256
370
   -1
100
AcDbLine
 10
163.969
 20
-118.411
 11
163.826
 21
-118.125
  0
LINE
  5
19B
100
AcDbEntity
  8
Black
  6
ByLayer
 62
  256
370
   -1
100
AcDbLine
 10
163.826
 20
-118.125
 11
163.541
 21
-117.982
  0
LINE
  5
19C
100
AcDbEntity
  8
Black
  6
ByLayer
 62
  256
370
   -1
100
AcDbLine
 10
163.541
 20
-117.982
 11
163.112
 21
-117.982
  0
LINE
  5
19D
100
AcDbEntity
  8
Black
  6
ByLayer
 62
  256
370
   -1
100
AcDbLine
 10
163.112
 20
-117.982
 11
162.826
 21
-117.839
  0
LINE
  5
19E
100
AcDbEntity
  8
Black
  6
ByLayer
 62
  256
370
   -1
100
AcDbLine
 10
162.826
 20
-117.839
 11
162.684
 21
-117.554
  0
LINE
  5
19F
100
AcDbEntity
  8
Black
  6
ByLayer
 62
  256
370
   -1
100
AcDbLine
 10
162.684
 20
-117.554
 11
162.684
 21
-117.411
  0
LINE
  5
1A0
100
AcDbEntity
  8
Black
  6
ByLayer
 62
  256
370
   -1
100
AcDbLine
 10
162.684
 20
-117.411
 11
162.826
 21
-117.125
  0
LINE
  5
1A1
100
AcDbEntity
  8
Black
  6
ByLayer
 62
  256
370
   -1
100
AcDbLine
 10
162.826
 20
-117.125
 11
163.112
 21
-116.982
  0
LINE
  5
1A2
100
AcDbEntity
  8
Black
  6
ByLayer
 62
  256
370
   -1
100
AcDbLine
 10
163.112
 20
-116.982
 11
163.541
 21
-116.982
  0
LINE
  5
1A3
100
AcDbEntity
  8
Black
  6
ByLayer
 62
  256
370
   -1
100
AcDbLine
 10
163.541
 20
-116.982
 11
163.826
 21
-117.125
  0
LINE
  5
1A4
100
AcDbEntity
  8
Black
  6
ByLayer
 62
  256
370
   -1
100
AcDbLine
 10
164.969
 20
-120.125
 11
165.112
 21
-119.982
  0
LINE
  5
1A5
100
AcDbEntity
  8
Black
  6
ByLayer
 62
  256
370
   -1
100
AcDbLine
 10
165.112
 20
-119.982
 11
165.398
 21
-119.554
  0
LINE
  5
1A6
100
AcDbEntity
  8
Black
  6
ByLayer
 62
  256
370
   -1
100
AcDbLine
 10
165.398
 20
-119.554
 11
165.541
 21
-119.268
  0
LINE
  5
1A7
100
AcDbEntity
  8
Black
  6
ByLayer
 62
  256
370
   -1
100
AcDbLine
 10
165.541
 20
-119.268
 11
165.684
 21
-118.839
  0
LINE
  5
1A8
100
AcDbEntity
  8
Black
  6
ByLayer
 62
  256
370
   -1
100
AcDbLine
 10
165.684
 20
-118.839
 11
165.826
 21
-118.125
  0
LINE
  5
1A9
100
AcDbEntity
  8
Black
  6
ByLayer
 62
  256
370
   -1
100
AcDbLine
 10
165.826
 20
-118.125
 11
165.826
 21
-117.554
  0
LINE
  5
1AA
100
AcDbEntity
  8
Black
  6
ByLayer
 62
  256
370
   -1
100
AcDbLine
 10
165.826
 20
-117.554
 11
165.684
 21
-116.839
  0
LINE
  5
1AB
100
AcDbEntity
  8
Black
  6
ByLayer
 62
  256
370
   -1
100
AcDbLine
 10
165.684
 20
-116.839
 11
165.541
 21
-116.411
  0
LINE
  5
1AC
100
AcDbEntity
  8
Black
  6
ByLayer
 62
  256
370
   -1
100
AcDbLine
 10
165.541
 20
-116.411
 11
165.398
 21
-116.125
  0
LINE
  5
1AD
100
AcDbEntity
  8
Black
  6
ByLayer
 62
  256
370
   -1
100
AcDbLine
 10
165.398
 20
-116.125
 11
165.112
 21
-115.696
  0
LINE
  5
1AE
100
AcDbEntity
  8
Black
  6
ByLayer
 62
  256
370
   -1
100
AcDbLine
 10
165.112
 20
-115.696
 11
164.969
 21
-115.554
  0
LINE
  5
1AF
100
AcDbEntity
  8
Black
  6
ByLayer
 62
  256
370
   -1
100
AcDbLine
 10
170.398
 20
-120.125
 11
170.255
 21
-119.982
  0
LINE
  5
1B0
100
AcDbEntity
  8
Black
  6
ByLayer
 62
  256
370
   -1
100
AcDbLine
 10
170.255
 20
-119.982
 11
169.969
 21
-119.554
  0
LINE
  5
1B1
100
AcDbEntity
  8
Black
  6
ByLayer
 62
  256
370
   -1
100
AcDbLine
 10
169.969
 20
-119.554
 11
169.826
 21
-119.268
  0
LINE
  5
1B2
100
AcDbEntity
  8
Black
  6
ByLayer
 62
  256
370
   -1
100
AcDbLine
 10
169.826
 20
-119.268
 11
169.684
 21
-118.839
  0
LINE
  5
1B3
100
AcDbEntity
  8
Black
  6
ByLayer
 62
  256
370
   -1
100
AcDbLine
 10
169.684
 20
-118.839
 11
169.541
 21
-118.125
  0
LINE
  5
1B4
100
AcDbEntity
  8
Black
  6
ByLayer
 62
  256
370
   -1
100
AcDbLine
 10
169.541
 20
-118.125
 11
169.541
 21
-117.554
  0
LINE
  5
1B5
100
AcDbEntity
  8
Black
  6
ByLayer
 62
  256
370
   -1
100
AcDbLine
 10
169.541
 20
-117.554
 11
169.684
 21
-116.839
  0
LINE
  5
1B6
100
AcDbEntity
  8
Black
  6
ByLayer
 62
  256
370
   -1
100
AcDbLine
 10
169.684
 20
-116.839
 11
169.826
 21
-116.411
  0
LINE
  5
1B7
100
AcDbEntity
  8
Black
  6
ByLayer
 62
  256
370
   -1
100
AcDbLine
 10
169.826
 20
-116.411
 11
169.969
 21
-116.125
  0
LINE
  5
1B8
100
AcDbEntity
  8
Black
  6
ByLayer
 62
  256
370
   -1
100
AcDbLine
 10
169.969
 20
-116.125
 11
170.255
 21
-115.696
  0
LINE
  5
1B9
100
AcDbEntity
  8
Black
  6
ByLayer
 62
  256
370
   -1
100
AcDbLine
 10
170.255
 20
-115.696
 11
170.398
 21
-115.554
  0
LINE
  5
1BA
100
AcDbEntity
  8
Black
  6
ByLayer
 62
  256
370
   -1
100
AcDbLine
 10
171.541
 20
-116.982
 11
171.541
 21
-118.982
  0
LINE
  5
1BB
100
AcDbEntity
  8
Black
  6
ByLayer
 62
  256
370
   -1
100
AcDbLine
 10
171.541
 20
-117.268
 11
171.684
 21
-117.125
  0
LINE
  5
1BC
100
AcDbEntity
  8
Black
  6
ByLayer
 62
  256
370
   -1
100
AcDbLine
 10
171.684
 20
-117.125
 11
171.969
 21
-116.982
  0
LINE
  5
1BD
100
AcDbEntity
  8
Black
  6
ByLayer
 62
  256
370
   -1
100
AcDbLine
 10
171.969
 20
-116.982
 11
172.398
 21
-116.982
  0
LINE
  5
1BE
100
AcDbEntity
  8
Black
  6
ByLayer
 62
  256
370
   -1
100
AcDbLine
 10
172.398
 20
-116.982
 11
172.684
 21
-117.125
  0
LINE
  5
1BF
100
AcDbEntity
  8
Black
  6
ByLayer
 62
  256
370
   -1
100
AcDbLine
 10
172.684
 20
-117.125
 11
172.826
 21
-117.411
  0
LINE
  5
1C0
100
AcDbEntity
  8
Black
  6
ByLayer
 62
  256
370
   -1
100
AcDbLine
 10
172.826
 20
-117.411
 11
172.826
 21
-118.982
  0
LINE
  5
1C1
100
AcDbEntity
  8
Black
  6
ByLayer
 62
  256
370
   -1
100
AcDbLine
 10
174.684
 20
-118.982
 11
174.398
 21
-118.839
  0
LINE
  5
1C2
100
AcDbEntity
  8
Black
  6
ByLayer
 62
  256
370
   -1
100
AcDbLine
 10
174.398
 20
-118.839
 11
174.255
 21
-118.696
  0
LINE
  5
1C3
100
AcDbEntity
  8
Black
  6
ByLayer
 62
  256
370
   -1
100
AcDbLine
 10
174.255
 20
-118.696
 11
174.112
 21
-118.411
  0
LINE
  5
1C4
100
AcDbEntity
  8
Black
  6
ByLayer
 62
  256
370
   -1
100
AcDbLine
 10
174.112
 20
-118.411
 11
174.112
 21
-117.554
  0
LINE
  5
1C5
100
AcDbEntity
  8
Black
  6
ByLayer
 62
  256
370
   -1
100
AcDbLine
 10
174.112
 20
-117.554
 11
174.255
 21
-117.268
  0
LINE
  5
1C6
100
AcDbEntity
  8
Black
  6
ByLayer
 62
  256
370
   -1
100
AcDbLine
 10
174.255
 20
-117.268
 11
174.398
 21
-117.125
  0
LINE
  5
1C7
100
AcDbEntity
  8
Black
  6
ByLayer
 62
  256
370
   -1
100
AcDbLine
 10
174.398
 20
-117.125
 11
174.684
 21
-116.982
  0
LINE
  5
1C8
100
AcDbEntity
  8
Black
  6
ByLayer
 62
  256
370
   -1
100
AcDbLine
 10
174.684
 20
-116.982
 11
175.112
 21
-116.982
  0
LINE
  5
1C9
100
AcDbEntity
  8
Black
  6
ByLayer
 62
  256
370
   -1
100
AcDbLine
 10
175.112
 20
-116.982
 11
175.398
 21
-117.125
  0
LINE
  5
1CA
100
AcDbEntity
  8
Black
  6
ByLayer
 62
  256
370
   -1
100
AcDbLine
 10
175.398
 20
-117.125
 11
175.541
 21
-117.268
  0
LINE
  5
1CB
100
AcDbEntity
  8
Black
  6
ByLayer
 62
  256
370
   -1
100
AcDbLine
 10
175.541
 20
-117.268
 11
175.684
 21
-117.554
  0
LINE
  5
1CC
100
AcDbEntity
  8
Black
  6
ByLayer
 62
  256
370
   -1
100
AcDbLine
 10
175.684
 20
-117.554
 11
175.684
 21
-118.411
  0
LINE
  5
1CD
100
AcDbEntity
  8
Black
  6
ByLayer
 62
  256
370
   -1
100
AcDbLine
 10
175.684
 20
-118.411
 11
175.541
 21
-118.696
  0
LINE
  5
1CE
100
AcDbEntity
  8
Black
  6
ByLayer
 62
  256
370
   -1
100
AcDbLine
 10
175.541
 20
-118.696
 11
175.398
 21
-118.839
  0
LINE
  5
1CF
100
AcDbEntity
  8
Black
  6
ByLayer
 62
  256
370
   -1
100
AcDbLine
 10
175.398
 20
-118.839
 11
175.112
 21
-118.982
  0
LINE
  5
1D0
100
AcDbEntity
  8
Black
  6
ByLayer
 62
  256
370
   -1
100
AcDbLine
 10
175.112
 20
-118.982
 11
174.684
 21
-118.982
  0
LINE
  5
1D1
100
AcDbEntity
  8
Black
  6
ByLayer
 62
  256
370
   -1
100
AcDbLine
 10
176.541
 20
-116.982
 11
177.684
 21
-116.982
  0
LINE
  5
1D2
100
AcDbEntity
  8
Black
  6
ByLayer
 62
  256
370
   -1
100
AcDbLine
 10
176.969
 20
-115.982
 11
176.969
 21
-118.554
  0
LINE
  5
1D3
100
AcDbEntity
  8
Black
  6
ByLayer
 62
  256
370
   -1
100
AcDbLine
 10
176.969
 20
-118.554
 11
177.112
 21
-118.839
  0
LINE
  5
1D4
100
AcDbEntity
  8
Black
  6
ByLayer
 62
  256
370
   -1
100
AcDbLine
 10
177.112
 20
-118.839
 11
177.398
 21
-118.982
  0
LINE
  5
1D5
100
AcDbEntity
  8
Black
  6
ByLayer
 62
  256
370
   -1
100
AcDbLine
 10
177.398
 20
-118.982
 11
177.684
 21
-118.982
  0
LINE
  5
1D6
100
AcDbEntity
  8
Black
  6
ByLayer
 62
  256
370
   -1
100
AcDbLine
 10
180.969
 20
-116.982
 11
180.969
 21
-119.982
  0
LINE
  5
1D7
100
AcDbEntity
  8
Black
  6
ByLayer
 62
  256
370
   -1
100
AcDbLine
 10
180.969
 20
-117.125
 11
181.255
 21
-116.982
  0
LINE
  5
1D8
100
AcDbEntity
  8
Black
  6
ByLayer
 62
  256
370
   -1
100
AcDbLine
 10
181.255
 20
-116.982
 11
181.826
 21
-116.982
  0
LINE
  5
1D9
100
AcDbEntity
  8
Black
  6
ByLayer
 62
  256
370
   -1
100
AcDbLine
 10
181.826
 20
-116.982
 11
182.112
 21
-117.125
  0
LINE
  5
1DA
100
AcDbEntity
  8
Black
  6
ByLayer
 62
  256
370
   -1
100
AcDbLine
 10
182.112
 20
-117.125
 11
182.255
 21
-117.268
  0
LINE
  5
1DB
100
AcDbEntity
  8
Black
  6
ByLayer
 62
  256
370
   -1
100
AcDbLine
 10
182.255
 20
-117.268
 11
182.398
 21
-117.554
  0
LINE
  5
1DC
100
AcDbEntity
  8
Black
  6
ByLayer
 62
  256
370
   -1
100
AcDbLine
 10
182.398
 20
-117.554
 11
182.398
 21
-118.411
  0
LINE
  5
1DD
100
AcDbEntity
  8
Black
  6
ByLayer
 62
  256
370
   -1
100
AcDbLine
 10
182.398
 20
-118.411
 11
182.255
 21
-118.696
  0
LINE
  5
1DE
100
AcDbEntity
  8
Black
  6
ByLayer
 62
  256
370
   -1
100
AcDbLine
 10
182.255
 20
-118.696
 11
182.112
 21
-118.839
  0
LINE
  5
1DF
100
AcDbEntity
  8
Black
  6
ByLayer
 62
  256
370
   -1
100
AcDbLine
 10
182.112
 20
-118.839
 11
181.826
 21
-118.982
  0
LINE
  5
1E0
100
AcDbEntity
  8
Black
  6
ByLayer
 62
  256
370
   -1
100
AcDbLine
 10
181.826
 20
-118.982
 11
181.255
 21
-118.982
  0
LINE
  5
1E1
100
AcDbEntity
  8
Black
  6
ByLayer
 62
  256
370
   -1
100
AcDbLine
 10
181.255
 20
-118.982
 11
180.969
 21
-118.839
  0
LINE
  5
1E2
100
AcDbEntity
  8
Black
  6
ByLayer
 62
  256
370
   -1
100
AcDbLine
 10
184.112
 20
-118.982
 11
183.826
 21
-118.839
  0
LINE
  5
1E3
100
AcDbEntity
  8
Black
  6
ByLayer
 62
  256
370
   -1
100
AcDbLine
 10
183.826
 20
-118.839
 11
183.684
 21
-118.554
  0
LINE
  5
1E4
100
AcDbEntity
  8
Black
  6
ByLayer
 62
  256
370
   -1
100
AcDbLine
 10
183.684
 20
-118.554
 11
183.684
 21
-115.982
  0
LINE
  5
1E5
100
AcDbEntity
  8
Black
  6
ByLayer
 62
  256
370
   -1
100
AcDbLine
 10
186.541
 20
-118.982
 11
186.541
 21
-117.411
  0
LINE
  5
1E6
100
AcDbEntity
  8
Black
  6
ByLayer
 62
  256
370
   -1
100
AcDbLine
 10
186.541
 20
-117.411
 11
186.398
 21
-117.125
  0
LINE
  5
1E7
100
AcDbEntity
  8
Black
  6
ByLayer
 62
  256
370
   -1
100
AcDbLine
 10
186.398
 20
-117.125
 11
186.112
 21
-116.982
  0
LINE
  5
1E8
100
AcDbEntity
  8
Black
  6
ByLayer
 62
  256
370
   -1
100
AcDbLine
 10
186.112
 20
-116.982
 11
185.541
 21
-116.982
  0
LINE
  5
1E9
100
AcDbEntity
  8
Black
  6
ByLayer
 62
  256
370
   -1
100
AcDbLine
 10
185.541
 20
-116.982
 11
185.255
 21
-117.125
  0
LINE
  5
1EA
100
AcDbEntity
  8
Black
  6
ByLayer
 62
  256
370
   -1
100
AcDbLine
 10
186.541
 20
-118.839
 11
186.255
 21
-118.982
  0
LINE
  5
1EB
100
AcDbEntity
  8
Black
  6
ByLayer
 62
  256
370
   -1
100
AcDbLine
 10
186.255
 20
-118.982
 11
185.541
 21
-118.982
  0
LINE
  5
1EC
100
AcDbEntity
  8
Black
  6
ByLayer
 62
  256
370
   -1
100
AcDbLine
 10
185.541
 20
-118.982
 11
185.255
 21
-118.839
  0
LINE
  5
1ED
100
AcDbEntity
  8
Black
  6
ByLayer
 62
  256
370
   -1
100
AcDbLine
 10
185.255
 20
-118.839
 11
185.112
 21
-118.554
  0
LINE
  5
1EE
100
AcDbEntity
  8
Black
  6
ByLayer
 62
  256
370
   -1
100
AcDbLine
 10
185.112
 20
-118.554
 11
185.112
 21
-118.268
  0
LINE
  5
1EF
100
AcDbEntity
  8
Black
  6
ByLayer
 62
  256
370
   -1
100
AcDbLine
 10
185.112
 20
-118.268
 11
185.255
 21
-117.982
  0
LINE
  5
1F0
100
AcDbEntity
  8
Black
  6
ByLayer
 62
  256
370
   -1
100
AcDbLine
 10
185.255
 20
-117.982
 11
185.541
 21
-117.839
  0
LINE
  5
1F1
100
AcDbEntity
  8
Black
  6
ByLayer
 62
  256
370
   -1
100
AcDbLine
 10
185.541
 20
-117.839
 11
186.255
 21
-117.839
  0
LINE
  5
1F2
100
AcDbEntity
  8
Black
  6
ByLayer
 62
  256
370
   -1
100
AcDbLine
 10
186.255
 20
-117.839
 11
186.541
 21
-117.696
  0
LINE
  5
1F3
100
AcDbEntity
  8
Black
  6
ByLayer
 62
  256
370
   -1
100
AcDbLine
 10
187.541
 20
-116.982
 11
188.684
 21
-116.982
  0
LINE
  5
1F4
100
AcDbEntity
  8
Black
  6
ByLayer
 62
  256
370
   -1
100
AcDbLine
 10
187.969
 20
-115.982
 11
187.969
 21
-118.554
  0
LINE
  5
1F5
100
AcDbEntity
  8
Black
  6
ByLayer
 62
  256
370
   -1
100
AcDbLine
 10
187.969
 20
-118.554
 11
188.112
 21
-118.839
  0
LINE
  5
1F6
100
AcDbEntity
  8
Black
  6
ByLayer
 62
  256
370
   -1
100
AcDbLine
 10
188.112
 20
-118.839
 11
188.398
 21
-118.982
  0
LINE
  5
1F7
100
AcDbEntity
  8
Black
  6
ByLayer
 62
  256
370
   -1
100
AcDbLine
 10
188.398
 20
-118.982
 11
188.684
 21
-118.982
  0
LINE
  5
1F8
100
AcDbEntity
  8
Black
  6
ByLayer
 62
  256
370
   -1
100
AcDbLine
 10
190.826
 20
-118.839
 11
190.541
 21
-118.982
  0
LINE
  5
1F9
100
AcDbEntity
  8
Black
  6
ByLayer
 62
  256
370
   -1
100
AcDbLine
 10
190.541
 20
-118.982
 11
189.969
 21
-118.982
  0
LINE
  5
1FA
100
AcDbEntity
  8
Black
  6
ByLayer
 62
  256
370
   -1
100
AcDbLine
 10
189.969
 20
-118.982
 11
189.684
 21
-118.839
  0
LINE
  5
1FB
100
AcDbEntity
  8
Black
  6
ByLayer
 62
  256
370
   -1
100
AcDbLine
 10
189.684
 20
-118.839
 11
189.541
 21
-118.554
  0
LINE
  5
1FC
100
AcDbEntity
  8
Black
  6
ByLayer
 62
  256
370
   -1
100
AcDbLine
 10
189.541
 20
-118.554
 11
189.541
 21
-117.411
  0
LINE
  5
1FD
100
AcDbEntity
  8
Black
  6
ByLayer
 62
  256
370
   -1
100
AcDbLine
 10
189.541
 20
-117.411
 11
189.684
 21
-117.125
  0
LINE
  5
1FE
100
AcDbEntity
  8
Black
  6
ByLayer
 62
  256
370
   -1
100
AcDbLine
 10
189.684
 20
-117.125
 11
189.969
 21
-116.982
  0
LINE
  5
1FF
100
AcDbEntity
  8
Black
  6
ByLayer
 62
  256
370
   -1
100
AcDbLine
 10
189.969
 20
-116.982
 11
190.541
 21
-116.982
  0
LINE
  5
200
100
AcDbEntity
  8
Black
  6
ByLayer
 62
  256
370
   -1
100
AcDbLine
 10
190.541
 20
-116.982
 11
190.826
 21
-117.125
  0
LINE
  5
201
100
AcDbEntity
  8
Black
  6
ByLayer
 62
  256
370
   -1
100
AcDbLine
 10
190.826
 20
-117.125
 11
190.969
 21
-117.411
  0
LINE
  5
202
100
AcDbEntity
  8
Black
  6
ByLayer
 62
  256
370
   -1
100
AcDbLine
 10
190.969
 20
-117.411
 11
190.969
 21
-117.696
  0
LINE
  5
203
100
AcDbEntity
  8
Black
  6
ByLayer
 62
  256
370
   -1
100
AcDbLine
 10
190.969
 20
-117.696
 11
189.541
 21
-117.982
  0
LINE
  5
204
100
AcDbEntity
  8
Black
  6
ByLayer
 62
  256
370
   -1
100
AcDbLine
 10
193.541
 20
-118.982
 11
193.541
 21
-115.982
  0
LINE
  5
205
100
AcDbEntity
  8
Black
  6
ByLayer
 62
  256
370
   -1
100
AcDbLine
 10
193.541
 20
-118.839
 11
193.255
 21
-118.982
  0
LINE
  5
206
100
AcDbEntity
  8
Black
  6
ByLayer
 62
  256
370
   -1
100
AcDbLine
 10
193.255
 20
-118.982
 11
192.684
 21
-118.982
  0
LINE
  5
207
100
AcDbEntity
  8
Black
  6
ByLayer
 62
  256
370
   -1
100
AcDbLine
 10
192.684
 20
-118.982
 11
192.398
 21
-118.839
  0
LINE
  5
208
100
AcDbEntity
  8
Black
  6
ByLayer
 62
  256
370
   -1
100
AcDbLine
 10
192.398
 20
-118.839
 11
192.255
 21
-118.696
  0
LINE
  5
209
100
AcDbEntity
  8
Black
  6
ByLayer
 62
  256
370
   -1
100
AcDbLine
 10
192.255
 20
-118.696
 11
192.112
 21
-118.411
  0
LINE
  5
20A
100
AcDbEntity
  8
Black
  6
ByLayer
 62
  256
370
   -1
100
AcDbLine
 10
192.112
 20
-118.411
 11
192.112
 21
-117.554
  0
LINE
  5
20B
100
AcDbEntity
  8
Black
  6
ByLayer
 62
  256
370
   -1
100
AcDbLine
 10
192.112
 20
-117.554
 11
192.255
 21
-117.268
  0
LINE
  5
20C
100
AcDbEntity
  8
Black
  6
ByLayer
 62
  256
370
   -1
100
AcDbLine
 10
192.255
 20
-117.268
 11
192.398
 21
-117.125
  0
LINE
  5
20D
100
AcDbEntity
  8
Black
  6
ByLayer
 62
  256
370
   -1
100
AcDbLine
 10
192.398
 20
-117.125
 11
192.684
 21
-116.982
  0
LINE
  5
20E
100
AcDbEntity
  8
Black
  6
ByLayer
 62
  256
370
   -1
100
AcDbLine
 10
192.684
 20
-116.982
 11
193.255
 21
-116.982
  0
LINE
  5
20F
100
AcDbEntity
  8
Black
  6
ByLayer
 62
  256
370
   -1
100
AcDbLine
 10
193.255
 20
-116.982
 11
193.541
 21
-117.125
  0
LINE
  5
210
100
AcDbEntity
  8
Black
  6
ByLayer
 62
  256
370
   -1
100
AcDbLine
 10
194.684
 20
-120.125
 11
194.826
 21
-119.982
  0
LINE
  5
211
100
AcDbEntity
  8
Black
  6
ByLayer
 62
  256
370
   -1
100
AcDbLine
 10
194.826
 20
-119.982
 11
195.112
 21
-119.554
  0
LINE
  5
212
100
AcDbEntity
  8
Black
  6
ByLayer
 62
  256
370
   -1
100
AcDbLine
 10
195.112
 20
-119.554
 11
195.255
 21
-119.268
  0
LINE
  5
213
100
AcDbEntity
  8
Black
  6
ByLayer
 62
  256
370
   -1
100
AcDbLine
 10
195.255
 20
-119.268
 11
195.398
 21
-118.839
  0
LINE
  5
214
100
AcDbEntity
  8
Black
  6
ByLayer
 62
  256
370
   -1
100
AcDbLine
 10
195.398
 20
-118.839
 11
195.541
 21
-118.125
  0
LINE
  5
215
100
AcDbEntity
  8
Black
  6
ByLayer
 62
  256
370
   -1
100
AcDbLine
 10
195.541
 20
-118.125
 11
195.541
 21
-117.554
  0
LINE
  5
216
100
AcDbEntity
  8
Black
  6
ByLayer
 62
  256
370
   -1
100
AcDbLine
 10
195.541
 20
-117.554
 11
195.398
 21
-116.839
  0
LINE
  5
217
100
AcDbEntity
  8
Black
  6
ByLayer
 62
  256
370
   -1
100
AcDbLine
 10
195.398
 20
-116.839
 11
195.255
 21
-116.411
  0
LINE
  5
218
100
AcDbEntity
  8
Black
  6
ByLayer
 62
  256
370
   -1
100
AcDbLine
 10
195.255
 20
-116.411
 11
195.112
 21
-116.125
  0
LINE
  5
219
100
AcDbEntity
  8
Black
  6
ByLayer
 62
  256
370
   -1
100
AcDbLine
 10
195.112
 20
-116.125
 11
194.826
 21
-115.696
  0
LINE
  5
21A
100
AcDbEntity
  8
Black
  6
ByLayer
 62
  256
370
   -1
100
AcDbLine
 10
194.826
 20
-115.696
 11
194.684
 21
-115.554
  0
CIRCLE
  5
21B
100
AcDbEntity
  8
Black
  6
ByLayer
 62
  256
370
   -1
100
AcDbCircle
 10
98.655
 20
-121.585
 40
1.6
  0
LINE
  5
21C
100
AcDbEntity
  8
Black
  6
ByLayer
 62
  256
370
   -1
100
AcDbLine
 10
102.684
 20
-119.942
 11
104.541
 21
-119.942
  0
LINE
  5
21D
100
AcDbEntity
  8
Black
  6
ByLayer
 62
  256
370
   -1
100
AcDbLine
 10
104.541
 20
-119.942
 11
103.541
 21
-121.085
  0
LINE
  5
21E
100
AcDbEntity
  8
Black
  6
ByLayer
 62
  256
370
   -1
100
AcDbLine
 10
103.541
 20
-121.085
 11
103.969
 21
-121.085
  0
LINE
  5
21F
100
AcDbEntity
  8
Black
  6
ByLayer
 62
  256
370
   -1
100
AcDbLine
 10
103.969
 20
-121.085
 11
104.255
 21
-121.228
  0
LINE
  5
220
100
AcDbEntity
  8
Black
  6
ByLayer
 62
  256
370
   -1
100
AcDbLine
 10
104.255
 20
-121.228
 11
104.398
 21
-121.371
  0
LINE
  5
221
100
AcDbEntity
  8
Black
  6
ByLayer
 62
  256
370
   -1
100
AcDbLine
 10
104.398
 20
-121.371
 11
104.541
 21
-121.656
  0
LINE
  5
222
100
AcDbEntity
  8
Black
  6
ByLayer
 62
  256
370
   -1
100
AcDbLine
 10
104.541
 20
-121.656
 11
104.541
 21
-122.371
  0
LINE
  5
223
100
AcDbEntity
  8
Black
  6
ByLayer
 62
  256
370
   -1
100
AcDbLine
 10
104.541
 20
-122.371
 11
104.398
 21
-122.656
  0
LINE
  5
224
100
AcDbEntity
  8
Black
  6
ByLayer
 62
  256
370
   -1
100
AcDbLine
 10
104.398
 20
-122.656
 11
104.255
 21
-122.799
  0
LINE
  5
225
100
AcDbEntity
  8
Black
  6
ByLayer
 62
  256
370
   -1
100
AcDbLine
 10
104.255
 20
-122.799
 11
103.969
 21
-122.942
  0
LINE
  5
226
100
AcDbEntity
  8
Black
  6
ByLayer
 62
  256
370
   -1
100
AcDbLine
 10
103.969
 20
-122.942
 11
103.112
 21
-122.942
  0
LINE
  5
227
100
AcDbEntity
  8
Black
  6
ByLayer
 62
  256
370
   -1
100
AcDbLine
 10
103.112
 20
-122.942
 11
102.826
 21
-122.799
  0
LINE
  5
228
100
AcDbEntity
  8
Black
  6
ByLayer
 62
  256
370
   -1
100
AcDbLine
 10
102.826
 20
-122.799
 11
102.684
 21
-122.656
  0
LINE
  5
229
100
AcDbEntity
  8
Black
  6
ByLayer
 62
  256
370
   -1
100
AcDbLine
 10
105.826
 20
-122.656
 11
105.969
 21
-122.799
  0
LINE
  5
22A
100
AcDbEntity
  8
Black
  6
ByLayer
 62
  256
370
   -1
100
AcDbLine
 10
105.969
 20
-122.799
 11
105.826
 21
-122.942
  0
LINE
  5
22B
100
AcDbEntity
  8
Black
  6
ByLayer
 62
  256
370
   -1
100
AcDbLine
 10
105.826
 20
-122.942
 11
105.684
 21
-122.799
  0
LINE
  5
22C
100
AcDbEntity
  8
Black
  6
ByLayer
 62
  256
370
   -1
100
AcDbLine
 10
105.684
 20
-122.799
 11
105.826
 21
-122.656
  0
LINE
  5
22D
100
AcDbEntity
  8
Black
  6
ByLayer
 62
  256
370
   -1
100
AcDbLine
 10
105.826
 20
-122.656
 11
105.826
 21
-122.942
  0
LINE
  5
22E
100
AcDbEntity
  8
Black
  6
ByLayer
 62
  256
370
   -1
100
AcDbLine
 10
107.112
 20
-120.228
 11
107.255
 21
-120.085
  0
LINE
  5
22F
100
AcDbEntity
  8
Black
  6
ByLayer
 62
  256
370
   -1
100
AcDbLine
 10
107.255
 20
-120.085
 11
107.541
 21
-119.942
  0
LINE
  5
230
100
AcDbEntity
  8
Black
  6
ByLayer
 62
  256
370
   -1
100
AcDbLine
 10
107.541
 20
-119.942
 11
108.255
 21
-119.942
  0
LINE
  5
231
100
AcDbEntity
  8
Black
  6
ByLayer
 62
  256
370
   -1
100
AcDbLine
 10
108.255
 20
-119.942
 11
108.541
 21
-120.085
  0
LINE
  5
232
100
AcDbEntity
  8
Black
  6
ByLayer
 62
  256
370
   -1
100
AcDbLine
 10
108.541
 20
-120.085
 11
108.684
 21
-120.228
  0
LINE
  5
233
100
AcDbEntity
  8
Black
  6
ByLayer
 62
  256
370
   -1
100
AcDbLine
 10
108.684
 20
-120.228
 11
108.826
 21
-120.514
  0
LINE
  5
234
100
AcDbEntity
  8
Black
  6
ByLayer
 62
  256
370
   -1
100
AcDbLine
 10
108.826
 20
-120.514
 11
108.826
 21
-120.799
  0
LINE
  5
235
100
AcDbEntity
  8
Black
  6
ByLayer
 62
  256
370
   -1
100
AcDbLine
 10
108.826
 20
-120.799
 11
108.684
 21
-121.228
  0
LINE
  5
236
100
AcDbEntity
  8
Black
  6
ByLayer
 62
  256
370
   -1
100
AcDbLine
 10
108.684
 20
-121.228
 11
106.969
 21
-122.942
  0
LINE
  5
237
100
AcDbEntity
  8
Black
  6
ByLayer
 62
  256
370
   -1
100
AcDbLine
 10
106.969
 20
-122.942
 11
108.826
 21
-122.942
  0
LINE
  5
238
100
AcDbEntity
  8
Black
  6
ByLayer
 62
  256
370
   -1
100
AcDbLine
 10
110.684
 20
-119.942
 11
110.969
 21
-119.942
  0
LINE
  5
239
100
AcDbEntity
  8
Black
  6
ByLayer
 62
  256
370
   -1
100
AcDbLine
 10
110.969
 20
-119.942
 11
111.255
 21
-120.085
  0
LINE
  5
23A
100
AcDbEntity
  8
Black
  6
ByLayer
 62
  256
370
   -1
100
AcDbLine
 10
111.255
 20
-120.085
 11
111.398
 21
-120.228
  0
LINE
  5
23B
100
AcDbEntity
  8
Black
  6
ByLayer
 62
  256
370
   -1
100
AcDbLine
 10
111.398
 20
-120.228
 11
111.541
 21
-120.514
  0
LINE
  5
23C
100
AcDbEntity
  8
Black
  6
ByLayer
 62
  256
370
   -1
100
AcDbLine
 10
111.541
 20
-120.514
 11
111.684
 21
-121.085
  0
LINE
  5
23D
100
AcDbEntity
  8
Black
  6
ByLayer
 62
  256
370
   -1
100
AcDbLine
 10
111.684
 20
-121.085
 11
111.684
 21
-121.799
  0
LINE
  5
23E
100
AcDbEntity
  8
Black
  6
ByLayer
 62
  256
370
   -1
100
AcDbLine
 10
111.684
 20
-121.799
 11
111.541
 21
-122.371
  0
LINE
  5
23F
100
AcDbEntity
  8
Black
  6
ByLayer
 62
  256
370
   -1
100
AcDbLine
 10
111.541
 20
-122.371
 11
111.398
 21
-122.656
  0
LINE
  5
240
100
AcDbEntity
  8
Black
  6
ByLayer
 62
  256
370
   -1
100
AcDbLine
 10
111.398
 20
-122.656
 11
111.255
 21
-122.799
  0
LINE
  5
241
100
AcDbEntity
  8
Black
  6
ByLayer
 62
  256
370
   -1
100
AcDbLine
 10
111.255
 20
-122.799
 11
110.969
 21
-122.942
  0
LINE
  5
242
100
AcDbEntity
  8
Black
  6
ByLayer
 62
  256
370
   -1
100
AcDbLine
 10
110.969
 20
-122.942
 11
110.684
 21
-122.942
  0
LINE
  5
243
100
AcDbEntity
  8
Black
  6
ByLayer
 62
  256
370
   -1
100
AcDbLine
 10
110.684
 20
-122.942
 11
110.398
 21
-122.799
  0
LINE
  5
244
100
AcDbEntity
  8
Black
  6
ByLayer
 62
  256
370
   -1
100
AcDbLine
 10
110.398
 20
-122.799
 11
110.255
 21
-122.656
  0
LINE
  5
245
100
AcDbEntity
  8
Black
  6
ByLayer
 62
  256
370
   -1
100
AcDbLine
 10
110.255
 20
-122.656
 11
110.112
 21
-122.371
  0
LINE
  5
246
100
AcDbEntity
  8
Black
  6
ByLayer
 62
  256
370
   -1
100
AcDbLine
 10
110.112
 20
-122.371
 11
109.969
 21
-121.799
  0
LINE
  5
247
100
AcDbEntity
  8
Black
  6
ByLayer
 62
  256
370
   -1
100
AcDbLine
 10
109.969
 20
-121.799
 11
109.969
 21
-121.085
  0
LINE
  5
248
100
AcDbEntity
  8
Black
  6
ByLayer
 62
  256
370
   -1
100
AcDbLine
 10
109.969
 20
-121.085
 11
110.112
 21
-120.514
  0
LINE
  5
249
100
AcDbEntity
  8
Black
  6
ByLayer
 62
  256
370
   -1
100
AcDbLine
 10
110.112
 20
-120.514
 11
110.255
 21
-120.228
  0
LINE
  5
24A
100
AcDbEntity
  8
Black
  6
ByLayer
 62
  256
370
   -1
100
AcDbLine
 10
110.255
 20
-120.228
 11
110.398
 21
-120.085
  0
LINE
  5
24B
100
AcDbEntity
  8
Black
  6
ByLayer
 62
  256
370
   -1
100
AcDbLine
 10
110.398
 20
-120.085
 11
110.684
 21
-119.942
  0
LINE
  5
24C
100
AcDbEntity
  8
Black
  6
ByLayer
 62
  256
370
   -1
100
AcDbLine
 10
112.969
 20
-122.942
 11
112.969
 21
-120.942
  0
LINE
  5
24D
100
AcDbEntity
  8
Black
  6
ByLayer
 62
  256
370
   -1
100
AcDbLine
 10
112.969
 20
-121.228
 11
113.112
 21
-121.085
  0
LINE
  5
24E
100
AcDbEntity
  8
Black
  6
ByLayer
 62
  256
370
   -1
100
AcDbLine
 10
113.112
 20
-121.085
 11
113.398
 21
-120.942
  0
LINE
  5
24F
100
AcDbEntity
  8
Black
  6
ByLayer
 62
  256
370
   -1
100
AcDbLine
 10
113.398
 20
-120.942
 11
113.826
 21
-120.942
  0
LINE
  5
250
100
AcDbEntity
  8
Black
  6
ByLayer
 62
  256
370
   -1
100
AcDbLine
 10
113.826
 20
-120.942
 11
114.112
 21
-121.085
  0
LINE
  5
251
100
AcDbEntity
  8
Black
  6
ByLayer
 62
  256
370
   -1
100
AcDbLine
 10
114.112
 20
-121.085
 11
114.255
 21
-121.371
  0
LINE
  5
252
100
AcDbEntity
  8
Black
  6
ByLayer
 62
  256
370
   -1
100
AcDbLine
 10
114.255
 20
-121.371
 11
114.255
 21
-122.942
  0
LINE
  5
253
100
AcDbEntity
  8
Black
  6
ByLayer
 62
  256
370
   -1
100
AcDbLine
 10
114.255
 20
-121.371
 11
114.398
 21
-121.085
  0
LINE
  5
254
100
AcDbEntity
  8
Black
  6
ByLayer
 62
  256
370
   -1
100
AcDbLine
 10
114.398
 20
-121.085
 11
114.684
 21
-120.942
  0
LINE
  5
255
100
AcDbEntity
  8
Black
  6
ByLayer
 62
  256
370
   -1
100
AcDbLine
 10
114.684
 20
-120.942
 11
115.112
 21
-120.942
  0
LINE
  5
256
100
AcDbEntity
  8
Black
  6
ByLayer
 62
  256
370
   -1
100
AcDbLine
 10
115.112
 20
-120.942
 11
115.398
 21
-121.085
  0
LINE
  5
257
100
AcDbEntity
  8
Black
  6
ByLayer
 62
  256
370
   -1
100
AcDbLine
 10
115.398
 20
-121.085
 11
115.541
 21
-121.371
  0
LINE
  5
258
100
AcDbEntity
  8
Black
  6
ByLayer
 62
  256
370
   -1
100
AcDbLine
 10
115.541
 20
-121.371
 11
115.541
 21
-122.942
  0
LINE
  5
259
100
AcDbEntity
  8
Black
  6
ByLayer
 62
  256
370
   -1
100
AcDbLine
 10
116.969
 20
-122.942
 11
116.969
 21
-120.942
  0
LINE
  5
25A
100
AcDbEntity
  8
Black
  6
ByLayer
 62
  256
370
   -1
100
AcDbLine
 10
116.969
 20
-121.228
 11
117.112
 21
-121.085
  0
LINE
  5
25B
100
AcDbEntity
  8
Black
  6
ByLayer
 62
  256
370
   -1
100
AcDbLine
 10
117.112
 20
-121.085
 11
117.398
 21
-120.942
  0
LINE
  5
25C
100
AcDbEntity
  8
Black
  6
ByLayer
 62
  256
370
   -1
100
AcDbLine
 10
117.398
 20
-120.942
 11
117.826
 21
-120.942
  0
LINE
  5
25D
100
AcDbEntity
  8
Black
  6
ByLayer
 62
  256
370
   -1
100
AcDbLine
 10
117.826
 20
-120.942
 11
118.112
 21
-121.085
  0
LINE
  5
25E
100
AcDbEntity
  8
Black
  6
ByLayer
 62
  256
370
   -1
100
AcDbLine
 10
118.112
 20
-121.085
 11
118.255
 21
-121.371
  0
LINE
  5
25F
100
AcDbEntity
  8
Black
  6
ByLayer
 62
  256
370
   -1
100
AcDbLine
 10
118.255
 20
-121.371
 11
118.255
 21
-122.942
  0
LINE
  5
260
100
AcDbEntity
  8
Black
  6
ByLayer
 62
  256
370
   -1
100
AcDbLine
 10
118.255
 20
-121.371
 11
118.398
 21
-121.085
  0
LINE
  5
261
100
AcDbEntity
  8
Black
  6
ByLayer
 62
  256
370
   -1
100
AcDbLine
 10
118.398
 20
-121.085
 11
118.684
 21
-120.942
  0
LINE
  5
262
100
AcDbEntity
  8
Black
  6
ByLayer
 62
  256
370
   -1
100
AcDbLine
 10
118.684
 20
-120.942
 11
119.112
 21
-120.942
  0
LINE
  5
263
100
AcDbEntity
  8
Black
  6
ByLayer
 62
  256
370
   -1
100
AcDbLine
 10
119.112
 20
-120.942
 11
119.398
 21
-121.085
  0
LINE
  5
264
100
AcDbEntity
  8
Black
  6
ByLayer
 62
  256
370
   -1
100
AcDbLine
 10
119.398
 20
-121.085
 11
119.541
 21
-121.371
  0
LINE
  5
265
100
AcDbEntity
  8
Black
  6
ByLayer
 62
  256
370
   -1
100
AcDbLine
 10
119.541
 20
-121.371
 11
119.541
 21
-122.942
  0
LINE
  5
266
100
AcDbEntity
  8
Black
  6
ByLayer
 62
  256
370
   -1
100
AcDbLine
 10
125.398
 20
-119.799
 11
122.826
 21
-123.656
  0
LINE
  5
267
100
AcDbEntity
  8
Black
  6
ByLayer
 62
  256
370
   -1
100
AcDbLine
 10
129.255
 20
-119.942
 11
129.541
 21
-119.942
  0
LINE
  5
268
100
AcDbEntity
  8
Black
  6
ByLayer
 62
  256
370
   -1
100
AcDbLine
 10
129.541
 20
-119.942
 11
129.826
 21
-120.085
  0
LINE
  5
269
100
AcDbEntity
  8
Black
  6
ByLayer
 62
  256
370
   -1
100
AcDbLine
 10
129.826
 20
-120.085
 11
129.969
 21
-120.228
  0
LINE
  5
26A
100
AcDbEntity
  8
Black
  6
ByLayer
 62
  256
370
   -1
100
AcDbLine
 10
129.969
 20
-120.228
 11
130.112
 21
-120.514
  0
LINE
  5
26B
100
AcDbEntity
  8
Black
  6
ByLayer
 62
  256
370
   -1
100
AcDbLine
 10
130.112
 20
-120.514
 11
130.255
 21
-121.085
  0
LINE
  5
26C
100
AcDbEntity
  8
Black
  6
ByLayer
 62
  256
370
   -1
100
AcDbLine
 10
130.255
 20
-121.085
 11
130.255
 21
-121.799
  0
LINE
  5
26D
100
AcDbEntity
  8
Black
  6
ByLayer
 62
  256
370
   -1
100
AcDbLine
 10
130.255
 20
-121.799
 11
130.112
 21
-122.371
  0
LINE
  5
26E
100
AcDbEntity
  8
Black
  6
ByLayer
 62
  256
370
   -1
100
AcDbLine
 10
130.112
 20
-122.371
 11
129.969
 21
-122.656
  0
LINE
  5
26F
100
AcDbEntity
  8
Black
  6
ByLayer
 62
  256
370
   -1
100
AcDbLine
 10
129.969
 20
-122.656
 11
129.826
 21
-122.799
  0
LINE
  5
270
100
AcDbEntity
  8
Black
  6
ByLayer
 62
  256
370
   -1
100
AcDbLine
 10
129.826
 20
-122.799
 11
129.541
 21
-122.942
  0
LINE
  5
271
100
AcDbEntity
  8
Black
  6
ByLayer
 62
  256
370
   -1
100
AcDbLine
 10
129.541
 20
-122.942
 11
129.255
 21
-122.942
  0
LINE
  5
272
100
AcDbEntity
  8
Black
  6
ByLayer
 62
  256
370
   -1
100
AcDbLine
 10
129.255
 20
-122.942
 11
128.969
 21
-122.799
  0
LINE
  5
273
100
AcDbEntity
  8
Black
  6
ByLayer
 62
  256
370
   -1
100
AcDbLine
 10
128.969
 20
-122.799
 11
128.826
 21
-122.656
  0
LINE
  5
274
100
AcDbEntity
  8
Black
  6
ByLayer
 62
  256
370
   -1
100
AcDbLine
 10
128.826
 20
-122.656
 11
128.684
 21
-122.371
  0
LINE
  5
275
100
AcDbEntity
  8
Black
  6
ByLayer
 62
  256
370
   -1
100
AcDbLine
 10
128.684
 20
-122.371
 11
128.541
 21
-121.799
  0
LINE
  5
276
100
AcDbEntity
  8
Black
  6
ByLayer
 62
  256
370
   -1
100
AcDbLine
 10
128.541
 20
-121.799
 11
128.541
 21
-121.085
  0
LINE
  5
277
100
AcDbEntity
  8
Black
  6
ByLayer
 62
  256
370
   -1
100
AcDbLine
 10
128.541
 20
-121.085
 11
128.684
 21
-120.514
  0
LINE
  5
278
100
AcDbEntity
  8
Black
  6
ByLayer
 62
  256
370
   -1
100
AcDbLine
 10
128.684
 20
-120.514
 11
128.826
 21
-120.228
  0
LINE
  5
279
100
AcDbEntity
  8
Black
  6
ByLayer
 62
  256
370
   -1
100
AcDbLine
 10
128.826
 20
-120.228
 11
128.969
 21
-120.085
  0
LINE
  5
27A
100
AcDbEntity
  8
Black
  6
ByLayer
 62
  256
370
   -1
100
AcDbLine
 10
128.969
 20
-120.085
 11
129.255
 21
-119.942
  0
LINE
  5
27B
100
AcDbEntity
  8
Black
  6
ByLayer
 62
  256
370
   -1
100
AcDbLine
 10
131.541
 20
-122.656
 11
131.684
 21
-122.799
  0
LINE
  5
27C
100
AcDbEntity
  8
Black
  6
ByLayer
 62
  256
370
   -1
100
AcDbLine
 10
131.684
 20
-122.799
 11
131.541
 21
-122.942
  0
LINE
  5
27D
100
AcDbEntity
  8
Black
  6
ByLayer
 62
  256
370
   -1
100
AcDbLine
 10
131.541
 20
-122.942
 11
131.398
 21
-122.799
  0
LINE
  5
27E
100
AcDbEntity
  8
Black
  6
ByLayer
 62
  256
370
   -1
100
AcDbLine
 10
131.398
 20
-122.799
 11
131.541
 21
-122.656
  0
LINE
  5
27F
100
AcDbEntity
  8
Black
  6
ByLayer
 62
  256
370
   -1
100
AcDbLine
 10
131.541
 20
-122.656
 11
131.541
 21
-122.942
  0
LINE
  5
280
100
AcDbEntity
  8
Black
  6
ByLayer
 62
  256
370
   -1
100
AcDbLine
 10
134.541
 20
-122.942
 11
132.826
 21
-122.942
  0
LINE
  5
281
100
AcDbEntity
  8
Black
  6
ByLayer
 62
  256
370
   -1
100
AcDbLine
 10
133.684
 20
-122.942
 11
133.684
 21
-119.942
  0
LINE
  5
282
100
AcDbEntity
  8
Black
  6
ByLayer
 62
  256
370
   -1
100
AcDbLine
 10
133.684
 20
-119.942
 11
133.398
 21
-120.371
  0
LINE
  5
283
100
AcDbEntity
  8
Black
  6
ByLayer
 62
  256
370
   -1
100
AcDbLine
 10
133.398
 20
-120.371
 11
133.112
 21
-120.656
  0
LINE
  5
284
100
AcDbEntity
  8
Black
  6
ByLayer
 62
  256
370
   -1
100
AcDbLine
 10
133.112
 20
-120.656
 11
132.826
 21
-120.799
  0
LINE
  5
285
100
AcDbEntity
  8
Black
  6
ByLayer
 62
  256
370
   -1
100
AcDbLine
 10
135.684
 20
-120.228
 11
135.826
 21
-120.085
  0
LINE
  5
286
100
AcDbEntity
  8
Black
  6
ByLayer
 62
  256
370
   -1
100
AcDbLine
 10
135.826
 20
-120.085
 11
136.112
 21
-119.942
  0
LINE
  5
287
100
AcDbEntity
  8
Black
  6
ByLayer
 62
  256
370
   -1
100
AcDbLine
 10
136.112
 20
-119.942
 11
136.826
 21
-119.942
  0
LINE
  5
288
100
AcDbEntity
  8
Black
  6
ByLayer
 62
  256
370
   -1
100
AcDbLine
 10
136.826
 20
-119.942
 11
137.112
 21
-120.085
  0
LINE
  5
289
100
AcDbEntity
  8
Black
  6
ByLayer
 62
  256
370
   -1
100
AcDbLine
 10
137.112
 20
-120.085
 11
137.255
 21
-120.228
  0
LINE
  5
28A
100
AcDbEntity
  8
Black
  6
ByLayer
 62
  256
370
   -1
100
AcDbLine
 10
137.255
 20
-120.228
 11
137.398
 21
-120.514
  0
LINE
  5
28B
100
AcDbEntity
  8
Black
  6
ByLayer
 62
  256
370
   -1
100
AcDbLine
 10
137.398
 20
-120.514
 11
137.398
 21
-120.799
  0
LINE
  5
28C
100
AcDbEntity
  8
Black
  6
ByLayer
 62
  256
370
   -1
100
AcDbLine
 10
137.398
 20
-120.799
 11
137.255
 21
-121.228
  0
LINE
  5
28D
100
AcDbEntity
  8
Black
  6
ByLayer
 62
  256
370
   -1
100
AcDbLine
 10
137.255
 20
-121.228
 11
135.541
 21
-122.942
  0
LINE
  5
28E
100
AcDbEntity
  8
Black
  6
ByLayer
 62
  256
370
   -1
100
AcDbLine
 10
135.541
 20
-122.942
 11
137.398
 21
-122.942
  0
LINE
  5
28F
100
AcDbEntity
  8
Black
  6
ByLayer
 62
  256
370
   -1
100
AcDbLine
 10
139.969
 20
-119.942
 11
139.398
 21
-119.942
  0
LINE
  5
290
100
AcDbEntity
  8
Black
  6
ByLayer
 62
  256
370
   -1
100
AcDbLine
 10
139.398
 20
-119.942
 11
139.112
 21
-120.085
  0
LINE
  5
291
100
AcDbEntity
  8
Black
  6
ByLayer
 62
  256
370
   -1
100
AcDbLine
 10
139.112
 20
-120.085
 11
138.969
 21
-120.228
  0
LINE
  5
292
100
AcDbEntity
  8
Black
  6
ByLayer
 62
  256
370
   -1
100
AcDbLine
 10
138.969
 20
-120.228
 11
138.684
 21
-120.656
  0
LINE
  5
293
100
AcDbEntity
  8
Black
  6
ByLayer
 62
  256
370
   -1
100
AcDbLine
 10
138.684
 20
-120.656
 11
138.541
 21
-121.228
  0
LINE
  5
294
100
AcDbEntity
  8
Black
  6
ByLayer
 62
  256
370
   -1
100
AcDbLine
 10
138.541
 20
-121.228
 11
138.541
 21
-122.371
  0
LINE
  5
295
100
AcDbEntity
  8
Black
  6
ByLayer
 62
  256
370
   -1
100
AcDbLine
 10
138.541
 20
-122.371
 11
138.684
 21
-122.656
  0
LINE
  5
296
100
AcDbEntity
  8
Black
  6
ByLayer
 62
  256
370
   -1
100
AcDbLine
 10
138.684
 20
-122.656
 11
138.826
 21
-122.799
  0
LINE
  5
297
100
AcDbEntity
  8
Black
  6
ByLayer
 62
  256
370
   -1
100
AcDbLine
 10
138.826
 20
-122.799
 11
139.112
 21
-122.942
  0
LINE
  5
298
100
AcDbEntity
  8
Black
  6
ByLayer
 62
  256
370
   -1
100
AcDbLine
 10
139.112
 20
-122.942
 11
139.684
 21
-122.942
  0
LINE
  5
299
100
AcDbEntity
  8
Black
  6
ByLayer
 62
  256
370
   -1
100
AcDbLine
 10
139.684
 20
-122.942
 11
139.969
 21
-122.799
  0
LINE
  5
29A
100
AcDbEntity
  8
Black
  6
ByLayer
 62
  256
370
   -1
100
AcDbLine
 10
139.969
 20
-122.799
 11
140.112
 21
-122.656
  0
LINE
  5
29B
100
AcDbEntity
  8
Black
  6
ByLayer
 62
  256
370
   -1
100
AcDbLine
 10
140.112
 20
-122.656
 11
140.255
 21
-122.371
  0
LINE
  5
29C
100
AcDbEntity
  8
Black
  6
ByLayer
 62
  256
370
   -1
100
AcDbLine
 10
140.255
 20
-122.371
 11
140.255
 21
-121.656
  0
LINE
  5
29D
100
AcDbEntity
  8
Black
  6
ByLayer
 62
  256
370
   -1
100
AcDbLine
 10
140.255
 20
-121.656
 11
140.112
 21
-121.371
  0
LINE
  5
29E
100
AcDbEntity
  8
Black
  6
ByLayer
 62
  256
370
   -1
100
AcDbLine
 10
140.112
 20
-121.371
 11
139.969
 21
-121.228
  0
LINE
  5
29F
100
AcDbEntity
  8
Black
  6
ByLayer
 62
  256
370
   -1
100
AcDbLine
 10
139.969
 20
-121.228
 11
139.684
 21
-121.085
  0
LINE
  5
2A0
100
AcDbEntity
  8
Black
  6
ByLayer
 62
  256
370
   -1
100
AcDbLine
 10
139.684
 20
-121.085
 11
139.112
 21
-121.085
  0
LINE
  5
2A1
100
AcDbEntity
  8
Black
  6
ByLayer
 62
  256
370
   -1
100
AcDbLine
 10
139.112
 20
-121.085
 11
138.826
 21
-121.228
  0
LINE
  5
2A2
100
AcDbEntity
  8
Black
  6
ByLayer
 62
  256
370
   -1
100
AcDbLine
 10
138.826
 20
-121.228
 11
138.684
 21
-121.371
  0
LINE
  5
2A3
100
AcDbEntity
  8
Black
  6
ByLayer
 62
  256
370
   -1
100
AcDbLine
 10
138.684
 20
-121.371
 11
138.541
 21
-121.656
  0
LINE
  5
2A4
100
AcDbEntity
  8
Black
  6
ByLayer
 62
  256
370
   -1
100
AcDbLine
 10
141.398
 20
-119.942
 11
141.398
 21
-120.514
  0
LINE
  5
2A5
100
AcDbEntity
  8
Black
  6
ByLayer
 62
  256
370
   -1
100
AcDbLine
 10
142.541
 20
-119.942
 11
142.541
 21
-120.514
  0
LINE
  5
2A6
100
AcDbEntity
  8
Black
  6
ByLayer
 62
  256
370
   -1
100
AcDbLine
 10
146.969
 20
-124.085
 11
146.826
 21
-123.942
  0
LINE
  5
2A7
100
AcDbEntity
  8
Black
  6
ByLayer
 62
  256
370
   -1
100
AcDbLine
 10
146.826
 20
-123.942
 11
146.541
 21
-123.514
  0
LINE
  5
2A8
100
AcDbEntity
  8
Black
  6
ByLayer
 62
  256
370
   -1
100
AcDbLine
 10
146.541
 20
-123.514
 11
146.398
 21
-123.228
  0
LINE
  5
2A9
100
AcDbEntity
  8
Black
  6
ByLayer
 62
  256
370
   -1
100
AcDbLine
 10
146.398
 20
-123.228
 11
146.255
 21
-122.799
  0
LINE
  5
2AA
100
AcDbEntity
  8
Black
  6
ByLayer
 62
  256
370
   -1
100
AcDbLine
 10
146.255
 20
-122.799
 11
146.112
 21
-122.085
  0
LINE
  5
2AB
100
AcDbEntity
  8
Black
  6
ByLayer
 62
  256
370
   -1
100
AcDbLine
 10
146.112
 20
-122.085
 11
146.112
 21
-121.514
  0
LINE
  5
2AC
100
AcDbEntity
  8
Black
  6
ByLayer
 62
  256
370
   -1
100
AcDbLine
 10
146.112
 20
-121.514
 11
146.255
 21
-120.799
  0
LINE
  5
2AD
100
AcDbEntity
  8
Black
  6
ByLayer
 62
  256
370
   -1
100
AcDbLine
 10
146.255
 20
-120.799
 11
146.398
 21
-120.371
  0
LINE
  5
2AE
100
AcDbEntity
  8
Black
  6
ByLayer
 62
  256
370
   -1
100
AcDbLine
 10
146.398
 20
-120.371
 11
146.541
 21
-120.085
  0
LINE
  5
2AF
100
AcDbEntity
  8
Black
  6
ByLayer
 62
  256
370
   -1
100
AcDbLine
 10
146.541
 20
-120.085
 11
146.826
 21
-119.656
  0
LINE
  5
2B0
100
AcDbEntity
  8
Black
  6
ByLayer
 62
  256
370
   -1
100
AcDbLine
 10
146.826
 20
-119.656
 11
146.969
 21
-119.514
  0
LINE
  5
2B1
100
AcDbEntity
  8
Black
  6
ByLayer
 62
  256
370
   -1
100
AcDbLine
 10
149.398
 20
-119.942
 11
148.826
 21
-119.942
  0
LINE
  5
2B2
100
AcDbEntity
  8
Black
  6
ByLayer
 62
  256
370
   -1
100
AcDbLine
 10
148.826
 20
-119.942
 11
148.541
 21
-120.085
  0
LINE
  5
2B3
100
AcDbEntity
  8
Black
  6
ByLayer
 62
  256
370
   -1
100
AcDbLine
 10
148.541
 20
-120.085
 11
148.398
 21
-120.228
  0
LINE
  5
2B4
100
AcDbEntity
  8
Black
  6
ByLayer
 62
  256
370
   -1
100
AcDbLine
 10
148.398
 20
-120.228
 11
148.112
 21
-120.656
  0
LINE
  5
2B5
100
AcDbEntity
  8
Black
  6
ByLayer
 62
  256
370
   -1
100
AcDbLine
 10
148.112
 20
-120.656
 11
147.969
 21
-121.228
  0
LINE
  5
2B6
100
AcDbEntity
  8
Black
  6
ByLayer
 62
  256
370
   -1
100
AcDbLine
 10
147.969
 20
-121.228
 11
147.969
 21
-122.371
  0
LINE
  5
2B7
100
AcDbEntity
  8
Black
  6
ByLayer
 62
  256
370
   -1
100
AcDbLine
 10
147.969
 20
-122.371
 11
148.112
 21
-122.656
  0
LINE
  5
2B8
100
AcDbEntity
  8
Black
  6
ByLayer
 62
  256
370
   -1
100
AcDbLine
 10
148.112
 20
-122.656
 11
148.255
 21
-122.799
  0
LINE
  5
2B9
100
AcDbEntity
  8
Black
  6
ByLayer
 62
  256
370
   -1
100
AcDbLine
 10
148.255
 20
-122.799
 11
148.541
 21
-122.942
  0
LINE
  5
2BA
100
AcDbEntity
  8
Black
  6
ByLayer
 62
  256
370
   -1
100
AcDbLine
 10
148.541
 20
-122.942
 11
149.112
 21
-122.942
  0
LINE
  5
2BB
100
AcDbEntity
  8
Black
  6
ByLayer
 62
  256
370
   -1
100
AcDbLine
 10
149.112
 20
-122.942
 11
149.398
 21
-122.799
  0
LINE
  5
2BC
100
AcDbEntity
  8
Black
  6
ByLayer
 62
  256
370
   -1
100
AcDbLine
 10
149.398
 20
-122.799
 11
149.541
 21
-122.656
  0
LINE
  5
2BD
100
AcDbEntity
  8
Black
  6
ByLayer
 62
  256
370
   -1
100
AcDbLine
 10
149.541
 20
-122.656
 11
149.684
 21
-122.371
  0
LINE
  5
2BE
100
AcDbEntity
  8
Black
  6
ByLayer
 62
  256
370
   -1
100
AcDbLine
 10
149.684
 20
-122.371
 11
149.684
 21
-121.656
  0
LINE
  5
2BF
100
AcDbEntity
  8
Black
  6
ByLayer
 62
  256
370
   -1
100
AcDbLine
 10
149.684
 20
-121.656
 11
149.541
 21
-121.371
  0
LINE
  5
2C0
100
AcDbEntity
  8
Black
  6
ByLayer
 62
  256
370
   -1
100
AcDbLine
 10
149.541
 20
-121.371
 11
149.398
 21
-121.228
  0
LINE
  5
2C1
100
AcDbEntity
  8
Black
  6
ByLayer
 62
  256
370
   -1
100
AcDbLine
 10
149.398
 20
-121.228
 11
149.112
 21
-121.085
  0
LINE
  5
2C2
100
AcDbEntity
  8
Black
  6
ByLayer
 62
  256
370
   -1
100
AcDbLine
 10
149.112
 20
-121.085
 11
148.541
 21
-121.085
  0
LINE
  5
2C3
100
AcDbEntity
  8
Black
  6
ByLayer
 62
  256
370
   -1
100
AcDbLine
 10
148.541
 20
-121.085
 11
148.255
 21
-121.228
  0
LINE
  5
2C4
100
AcDbEntity
  8
Black
  6
ByLayer
 62
  256
370
   -1
100
AcDbLine
 10
148.255
 20
-121.228
 11
148.112
 21
-121.371
  0
LINE
  5
2C5
100
AcDbEntity
  8
Black
  6
ByLayer
 62
  256
370
   -1
100
AcDbLine
 10
148.112
 20
-121.371
 11
147.969
 21
-121.656
  0
LINE
  5
2C6
100
AcDbEntity
  8
Black
  6
ByLayer
 62
  256
370
   -1
100
AcDbLine
 10
153.255
 20
-122.942
 11
153.255
 21
-119.942
  0
LINE
  5
2C7
100
AcDbEntity
  8
Black
  6
ByLayer
 62
  256
370
   -1
100
AcDbLine
 10
154.541
 20
-122.942
 11
154.541
 21
-121.371
  0
LINE
  5
2C8
100
AcDbEntity
  8
Black
  6
ByLayer
 62
  256
370
   -1
100
AcDbLine
 10
154.541
 20
-121.371
 11
154.398
 21
-121.085
  0
LINE
  5
2C9
100
AcDbEntity
  8
Black
  6
ByLayer
 62
  256
370
   -1
100
AcDbLine
 10
154.398
 20
-121.085
 11
154.112
 21
-120.942
  0
LINE
  5
2CA
100
AcDbEntity
  8
Black
  6
ByLayer
 62
  256
370
   -1
100
AcDbLine
 10
154.112
 20
-120.942
 11
153.684
 21
-120.942
  0
LINE
  5
2CB
100
AcDbEntity
  8
Black
  6
ByLayer
 62
  256
370
   -1
100
AcDbLine
 10
153.684
 20
-120.942
 11
153.398
 21
-121.085
  0
LINE
  5
2CC
100
AcDbEntity
  8
Black
  6
ByLayer
 62
  256
370
   -1
100
AcDbLine
 10
153.398
 20
-121.085
 11
153.255
 21
-121.228
  0
LINE
  5
2CD
100
AcDbEntity
  8
Black
  6
ByLayer
 62
  256
370
   -1
100
AcDbLine
 10
156.398
 20
-122.942
 11
156.112
 21
-122.799
  0
LINE
  5
2CE
100
AcDbEntity
  8
Black
  6
ByLayer
 62
  256
370
   -1
100
AcDbLine
 10
156.112
 20
-122.799
 11
155.969
 21
-122.656
  0
LINE
  5
2CF
100
AcDbEntity
  8
Black
  6
ByLayer
 62
  256
370
   -1
100
AcDbLine
 10
155.969
 20
-122.656
 11
155.826
 21
-122.371
  0
LINE
  5
2D0
100
AcDbEntity
  8
Black
  6
ByLayer
 62
  256
370
   -1
100
AcDbLine
 10
155.826
 20
-122.371
 11
155.826
 21
-121.514
  0
LINE
  5
2D1
100
AcDbEntity
  8
Black
  6
ByLayer
 62
  256
370
   -1
100
AcDbLine
 10
155.826
 20
-121.514
 11
155.969
 21
-121.228
  0
LINE
  5
2D2
100
AcDbEntity
  8
Black
  6
ByLayer
 62
  256
370
   -1
100
AcDbLine
 10
155.969
 20
-121.228
 11
156.112
 21
-121.085
  0
LINE
  5
2D3
100
AcDbEntity
  8
Black
  6
ByLayer
 62
  256
370
   -1
100
AcDbLine
 10
156.112
 20
-121.085
 11
156.398
 21
-120.942
  0
LINE
  5
2D4
100
AcDbEntity
  8
Black
  6
ByLayer
 62
  256
370
   -1
100
AcDbLine
 10
156.398
 20
-120.942
 11
156.826
 21
-120.942
  0
LINE
  5
2D5
100
AcDbEntity
  8
Black
  6
ByLayer
 62
  256
370
   -1
100
AcDbLine
 10
156.826
 20
-120.942
 11
157.112
 21
-121.085
  0
LINE
  5
2D6
100
AcDbEntity
  8
Black
  6
ByLayer
 62
  256
370
   -1
100
AcDbLine
 10
157.112
 20
-121.085
 11
157.255
 21
-121.228
  0
LINE
  5
2D7
100
AcDbEntity
  8
Black
  6
ByLayer
 62
  256
370
   -1
100
AcDbLine
 10
157.255
 20
-121.228
 11
157.398
 21
-121.514
  0
LINE
  5
2D8
100
AcDbEntity
  8
Black
  6
ByLayer
 62
  256
370
   -1
100
AcDbLine
 10
157.398
 20
-121.514
 11
157.398
 21
-122.371
  0
LINE
  5
2D9
100
AcDbEntity
  8
Black
  6
ByLayer
 62
  256
370
   -1
100
AcDbLine
 10
157.398
 20
-122.371
 11
157.255
 21
-122.656
  0
LINE
  5
2DA
100
AcDbEntity
  8
Black
  6
ByLayer
 62
  256
370
   -1
100
AcDbLine
 10
157.255
 20
-122.656
 11
157.112
 21
-122.799
  0
LINE
  5
2DB
100
AcDbEntity
  8
Black
  6
ByLayer
 62
  256
370
   -1
100
AcDbLine
 10
157.112
 20
-122.799
 11
156.826
 21
-122.942
  0
LINE
  5
2DC
100
AcDbEntity
  8
Black
  6
ByLayer
 62
  256
370
   -1
100
AcDbLine
 10
156.826
 20
-122.942
 11
156.398
 21
-122.942
  0
LINE
  5
2DD
100
AcDbEntity
  8
Black
  6
ByLayer
 62
  256
370
   -1
100
AcDbLine
 10
159.112
 20
-122.942
 11
158.826
 21
-122.799
  0
LINE
  5
2DE
100
AcDbEntity
  8
Black
  6
ByLayer
 62
  256
370
   -1
100
AcDbLine
 10
158.826
 20
-122.799
 11
158.684
 21
-122.514
  0
LINE
  5
2DF
100
AcDbEntity
  8
Black
  6
ByLayer
 62
  256
370
   -1
100
AcDbLine
 10
158.684
 20
-122.514
 11
158.684
 21
-119.942
  0
LINE
  5
2E0
100
AcDbEntity
  8
Black
  6
ByLayer
 62
  256
370
   -1
100
AcDbLine
 10
161.398
 20
-122.799
 11
161.112
 21
-122.942
  0
LINE
  5
2E1
100
AcDbEntity
  8
Black
  6
ByLayer
 62
  256
370
   -1
100
AcDbLine
 10
161.112
 20
-122.942
 11
160.541
 21
-122.942
  0
LINE
  5
2E2
100
AcDbEntity
  8
Black
  6
ByLayer
 62
  256
370
   -1
100
AcDbLine
 10
160.541
 20
-122.942
 11
160.255
 21
-122.799
  0
LINE
  5
2E3
100
AcDbEntity
  8
Black
  6
ByLayer
 62
  256
370
   -1
100
AcDbLine
 10
160.255
 20
-122.799
 11
160.112
 21
-122.514
  0
LINE
  5
2E4
100
AcDbEntity
  8
Black
  6
ByLayer
 62
  256
370
   -1
100
AcDbLine
 10
160.112
 20
-122.514
 11
160.112
 21
-121.371
  0
LINE
  5
2E5
100
AcDbEntity
  8
Black
  6
ByLayer
 62
  256
370
   -1
100
AcDbLine
 10
160.112
 20
-121.371
 11
160.255
 21
-121.085
  0
LINE
  5
2E6
100
AcDbEntity
  8
Black
  6
ByLayer
 62
  256
370
   -1
100
AcDbLine
 10
160.255
 20
-121.085
 11
160.541
 21
-120.942
  0
LINE
  5
2E7
100
AcDbEntity
  8
Black
  6
ByLayer
 62
  256
370
   -1
100
AcDbLine
 10
160.541
 20
-120.942
 11
161.112
 21
-120.942
  0
LINE
  5
2E8
100
AcDbEntity
  8
Black
  6
ByLayer
 62
  256
370
   -1
100
AcDbLine
 10
161.112
 20
-120.942
 11
161.398
 21
-121.085
  0
LINE
  5
2E9
100
AcDbEntity
  8
Black
  6
ByLayer
 62
  256
370
   -1
100
AcDbLine
 10
161.398
 20
-121.085
 11
161.541
 21
-121.371
  0
LINE
  5
2EA
100
AcDbEntity
  8
Black
  6
ByLayer
 62
  256
370
   -1
100
AcDbLine
 10
161.541
 20
-121.371
 11
161.541
 21
-121.656
  0
LINE
  5
2EB
100
AcDbEntity
  8
Black
  6
ByLayer
 62
  256
370
   -1
100
AcDbLine
 10
161.541
 20
-121.656
 11
160.112
 21
-121.942
  0
LINE
  5
2EC
100
AcDbEntity
  8
Black
  6
ByLayer
 62
  256
370
   -1
100
AcDbLine
 10
162.684
 20
-122.799
 11
162.969
 21
-122.942
  0
LINE
  5
2ED
100
AcDbEntity
  8
Black
  6
ByLayer
 62
  256
370
   -1
100
AcDbLine
 10
162.969
 20
-122.942
 11
163.541
 21
-122.942
  0
LINE
  5
2EE
100
AcDbEntity
  8
Black
  6
ByLayer
 62
  256
370
   -1
100
AcDbLine
 10
163.541
 20
-122.942
 11
163.826
 21
-122.799
  0
LINE
  5
2EF
100
AcDbEntity
  8
Black
  6
ByLayer
 62
  256
370
   -1
100
AcDbLine
 10
163.826
 20
-122.799
 11
163.969
 21
-122.514
  0
LINE
  5
2F0
100
AcDbEntity
  8
Black
  6
ByLayer
 62
  256
370
   -1
100
AcDbLine
 10
163.969
 20
-122.514
 11
163.969
 21
-122.371
  0
LINE
  5
2F1
100
AcDbEntity
  8
Black
  6
ByLayer
 62
  256
370
   -1
100
AcDbLine
 10
163.969
 20
-122.371
 11
163.826
 21
-122.085
  0
LINE
  5
2F2
100
AcDbEntity
  8
Black
  6
ByLayer
 62
  256
370
   -1
100
AcDbLine
 10
163.826
 20
-122.085
 11
163.541
 21
-121.942
  0
LINE
  5
2F3
100
AcDbEntity
  8
Black
  6
ByLayer
 62
  256
370
   -1
100
AcDbLine
 10
163.541
 20
-121.942
 11
163.112
 21
-121.942
  0
LINE
  5
2F4
100
AcDbEntity
  8
Black
  6
ByLayer
 62
  256
370
   -1
100
AcDbLine
 10
163.112
 20
-121.942
 11
162.826
 21
-121.799
  0
LINE
  5
2F5
100
AcDbEntity
  8
Black
  6
ByLayer
 62
  256
370
   -1
100
AcDbLine
 10
162.826
 20
-121.799
 11
162.684
 21
-121.514
  0
LINE
  5
2F6
100
AcDbEntity
  8
Black
  6
ByLayer
 62
  256
370
   -1
100
AcDbLine
 10
162.684
 20
-121.514
 11
162.684
 21
-121.371
  0
LINE
  5
2F7
100
AcDbEntity
  8
Black
  6
ByLayer
 62
  256
370
   -1
100
AcDbLine
 10
162.684
 20
-121.371
 11
162.826
 21
-121.085
  0
LINE
  5
2F8
100
AcDbEntity
  8
Black
  6
ByLayer
 62
  256
370
   -1
100
AcDbLine
 10
162.826
 20
-121.085
 11
163.112
 21
-120.942
  0
LINE
  5
2F9
100
AcDbEntity
  8
Black
  6
ByLayer
 62
  256
370
   -1
100
AcDbLine
 10
163.112
 20
-120.942
 11
163.541
 21
-120.942
  0
LINE
  5
2FA
100
AcDbEntity
  8
Black
  6
ByLayer
 62
  256
370
   -1
100
AcDbLine
 10
163.541
 20
-120.942
 11
163.826
 21
-121.085
  0
LINE
  5
2FB
100
AcDbEntity
  8
Black
  6
ByLayer
 62
  256
370
   -1
100
AcDbLine
 10
164.969
 20
-124.085
 11
165.112
 21
-123.942
  0
LINE
  5
2FC
100
AcDbEntity
  8
Black
  6
ByLayer
 62
  256
370
   -1
100
AcDbLine
 10
165.112
 20
-123.942
 11
165.398
 21
-123.514
  0
LINE
  5
2FD
100
AcDbEntity
  8
Black
  6
ByLayer
 62
  256
370
   -1
100
AcDbLine
 10
165.398
 20
-123.514
 11
165.541
 21
-123.228
  0
LINE
  5
2FE
100
AcDbEntity
  8
Black
  6
ByLayer
 62
  256
370
   -1
100
AcDbLine
 10
165.541
 20
-123.228
 11
165.684
 21
-122.799
  0
LINE
  5
2FF
100
AcDbEntity
  8
Black
  6
ByLayer
 62
  256
370
   -1
100
AcDbLine
 10
165.684
 20
-122.799
 11
165.826
 21
-122.085
  0
LINE
  5
300
100
AcDbEntity
  8
Black
  6
ByLayer
 62
  256
370
   -1
100
AcDbLine
 10
165.826
 20
-122.085
 11
165.826
 21
-121.514
  0
LINE
  5
301
100
AcDbEntity
  8
Black
  6
ByLayer
 62
  256
370
   -1
100
AcDbLine
 10
165.826
 20
-121.514
 11
165.684
 21
-120.799
  0
LINE
  5
302
100
AcDbEntity
  8
Black
  6
ByLayer
 62
  256
370
   -1
100
AcDbLine
 10
165.684
 20
-120.799
 11
165.541
 21
-120.371
  0
LINE
  5
303
100
AcDbEntity
  8
Black
  6
ByLayer
 62
  256
370
   -1
100
AcDbLine
 10
165.541
 20
-120.371
 11
165.398
 21
-120.085
  0
LINE
  5
304
100
AcDbEntity
  8
Black
  6
ByLayer
 62
  256
370
   -1
100
AcDbLine
 10
165.398
 20
-120.085
 11
165.112
 21
-119.656
  0
LINE
  5
305
100
AcDbEntity
  8
Black
  6
ByLayer
 62
  256
370
   -1
100
AcDbLine
 10
165.112
 20
-119.656
 11
164.969
 21
-119.514
  0
LINE
  5
306
100
AcDbEntity
  8
Black
  6
ByLayer
 62
  256
370
   -1
100
AcDbLine
 10
170.398
 20
-124.085
 11
170.255
 21
-123.942
  0
LINE
  5
307
100
AcDbEntity
  8
Black
  6
ByLayer
 62
  256
370
   -1
100
AcDbLine
 10
170.255
 20
-123.942
 11
169.969
 21
-123.514
  0
LINE
  5
308
100
AcDbEntity
  8
Black
  6
ByLayer
 62
  256
370
   -1
100
AcDbLine
 10
169.969
 20
-123.514
 11
169.826
 21
-123.228
  0
LINE
  5
309
100
AcDbEntity
  8
Black
  6
ByLayer
 62
  256
370
   -1
100
AcDbLine
 10
169.826
 20
-123.228
 11
169.684
 21
-122.799
  0
LINE
  5
30A
100
AcDbEntity
  8
Black
  6
ByLayer
 62
  256
370
   -1
100
AcDbLine
 10
169.684
 20
-122.799
 11
169.541
 21
-122.085
  0
LINE
  5
30B
100
AcDbEntity
  8
Black
  6
ByLayer
 62
  256
370
   -1
100
AcDbLine
 10
169.541
 20
-122.085
 11
169.541
 21
-121.514
  0
LINE
  5
30C
100
AcDbEntity
  8
Black
  6
ByLayer
 62
  256
370
   -1
100
AcDbLine
 10
169.541
 20
-121.514
 11
169.684
 21
-120.799
  0
LINE
  5
30D
100
AcDbEntity
  8
Black
  6
ByLayer
 62
  256
370
   -1
100
AcDbLine
 10
169.684
 20
-120.799
 11
169.826
 21
-120.371
  0
LINE
  5
30E
100
AcDbEntity
  8
Black
  6
ByLayer
 62
  256
370
   -1
100
AcDbLine
 10
169.826
 20
-120.371
 11
169.969
 21
-120.085
  0
LINE
  5
30F
100
AcDbEntity
  8
Black
  6
ByLayer
 62
  256
370
   -1
100
AcDbLine
 10
169.969
 20
-120.085
 11
170.255
 21
-119.656
  0
LINE
  5
310
100
AcDbEntity
  8
Black
  6
ByLayer
 62
  256
370
   -1
100
AcDbLine
 10
170.255
 20
-119.656
 11
170.398
 21
-119.514
  0
LINE
  5
311
100
AcDbEntity
  8
Black
  6
ByLayer
 62
  256
370
   -1
100
AcDbLine
 10
171.541
 20
-120.942
 11
171.541
 21
-122.942
  0
LINE
  5
312
100
AcDbEntity
  8
Black
  6
ByLayer
 62
  256
370
   -1
100
AcDbLine
 10
171.541
 20
-121.228
 11
171.684
 21
-121.085
  0
LINE
  5
313
100
AcDbEntity
  8
Black
  6
ByLayer
 62
  256
370
   -1
100
AcDbLine
 10
171.684
 20
-121.085
 11
171.969
 21
-120.942
  0
LINE
  5
314
100
AcDbEntity
  8
Black
  6
ByLayer
 62
  256
370
   -1
100
AcDbLine
 10
171.969
 20
-120.942
 11
172.398
 21
-120.942
  0
LINE
  5
315
100
AcDbEntity
  8
Black
  6
ByLayer
 62
  256
370
   -1
100
AcDbLine
 10
172.398
 20
-120.942
 11
172.684
 21
-121.085
  0
LINE
  5
316
100
AcDbEntity
  8
Black
  6
ByLayer
 62
  256
370
   -1
100
AcDbLine
 10
172.684
 20
-121.085
 11
172.826
 21
-121.371
  0
LINE
  5
317
100
AcDbEntity
  8
Black
  6
ByLayer
 62
  256
370
   -1
100
AcDbLine
 10
172.826
 20
-121.371
 11
172.826
 21
-122.942
  0
LINE
  5
318
100
AcDbEntity
  8
Black
  6
ByLayer
 62
  256
370
   -1
100
AcDbLine
 10
174.684
 20
-122.942
 11
174.398
 21
-122.799
  0
LINE
  5
319
100
AcDbEntity
  8
Black
  6
ByLayer
 62
  256
370
   -1
100
AcDbLine
 10
174.398
 20
-122.799
 11
174.255
 21
-122.656
  0
LINE
  5
31A
100
AcDbEntity
  8
Black
  6
ByLayer
 62
  256
370
   -1
100
AcDbLine
 10
174.255
 20
-122.656
 11
174.112
 21
-122.371
  0
LINE
  5
31B
100
AcDbEntity
  8
Black
  6
ByLayer
 62
  256
370
   -1
100
AcDbLine
 10
174.112
 20
-122.371
 11
174.112
 21
-121.514
  0
LINE
  5
31C
100
AcDbEntity
  8
Black
  6
ByLayer
 62
  256
370
   -1
100
AcDbLine
 10
174.112
 20
-121.514
 11
174.255
 21
-121.228
  0
LINE
  5
31D
100
AcDbEntity
  8
Black
  6
ByLayer
 62
  256
370
   -1
100
AcDbLine
 10
174.255
 20
-121.228
 11
174.398
 21
-121.085
  0
LINE
  5
31E
100
AcDbEntity
  8
Black
  6
ByLayer
 62
  256
370
   -1
100
AcDbLine
 10
174.398
 20
-121.085
 11
174.684
 21
-120.942
  0
LINE
  5
31F
100
AcDbEntity
  8
Black
  6
ByLayer
 62
  256
370
   -1
100
AcDbLine
 10
174.684
 20
-120.942
 11
175.112
 21
-120.942
  0
LINE
  5
320
100
AcDbEntity
  8
Black
  6
ByLayer
 62
  256
370
   -1
100
AcDbLine
 10
175.112
 20
-120.942
 11
175.398
 21
-121.085
  0
LINE
  5
321
100
AcDbEntity
  8
Black
  6
ByLayer
 62
  256
370
   -1
100
AcDbLine
 10
175.398
 20
-121.085
 11
175.541
 21
-121.228
  0
LINE
  5
322
100
AcDbEntity
  8
Black
  6
ByLayer
 62
  256
370
   -1
100
AcDbLine
 10
175.541
 20
-121.228
 11
175.684
 21
-121.514
  0
LINE
  5
323
100
AcDbEntity
  8
Black
  6
ByLayer
 62
  256
370
   -1
100
AcDbLine
 10
175.684
 20
-121.514
 11
175.684
 21
-122.371
  0
LINE
  5
324
100
AcDbEntity
  8
Black
  6
ByLayer
 62
  256
370
   -1
100
AcDbLine
 10
175.684
 20
-122.371
 11
175.541
 21
-122.656
  0
LINE
  5
325
100
AcDbEntity
  8
Black
  6
ByLayer
 62
  256
370
   -1
100
AcDbLine
 10
175.541
 20
-122.656
 11
175.398
 21
-122.799
  0
LINE
  5
326
100
AcDbEntity
  8
Black
  6
ByLayer
 62
  256
370
   -1
100
AcDbLine
 10
175.398
 20
-122.799
 11
175.112
 21
-122.942
  0
LINE
  5
327
100
AcDbEntity
  8
Black
  6
ByLayer
 62
  256
370
   -1
100
AcDbLine
 10
175.112
 20
-122.942
 11
174.684
 21
-122.942
  0
LINE
  5
328
100
AcDbEntity
  8
Black
  6
ByLayer
 62
  256
370
   -1
100
AcDbLine
 10
176.541
 20
-120.942
 11
177.684
 21
-120.942
  0
LINE
  5
329
100
AcDbEntity
  8
Black
  6
ByLayer
 62
  256
370
   -1
100
AcDbLine
 10
176.969
 20
-119.942
 11
176.969
 21
-122.514
  0
LINE
  5
32A
100
AcDbEntity
  8
Black
  6
ByLayer
 62
  256
370
   -1
100
AcDbLine
 10
176.969
 20
-122.514
 11
177.112
 21
-122.799
  0
LINE
  5
32B
100
AcDbEntity
  8
Black
  6
ByLayer
 62
  256
370
   -1
100
AcDbLine
 10
177.112
 20
-122.799
 11
177.398
 21
-122.942
  0
LINE
  5
32C
100
AcDbEntity
  8
Black
  6
ByLayer
 62
  256
370
   -1
100
AcDbLine
 10
177.398
 20
-122.942
 11
177.684
 21
-122.942
  0
LINE
  5
32D
100
AcDbEntity
  8
Black
  6
ByLayer
 62
  256
370
   -1
100
AcDbLine
 10
180.969
 20
-120.942
 11
180.969
 21
-123.942
  0
LINE
  5
32E
100
AcDbEntity
  8
Black
  6
ByLayer
 62
  256
370
   -1
100
AcDbLine
 10
180.969
 20
-121.085
 11
181.255
 21
-120.942
  0
LINE
  5
32F
100
AcDbEntity
  8
Black
  6
ByLayer
 62
  256
370
   -1
100
AcDbLine
 10
181.255
 20
-120.942
 11
181.826
 21
-120.942
  0
LINE
  5
330
100
AcDbEntity
  8
Black
  6
ByLayer
 62
  256
370
   -1
100
AcDbLine
 10
181.826
 20
-120.942
 11
182.112
 21
-121.085
  0
LINE
  5
331
100
AcDbEntity
  8
Black
  6
ByLayer
 62
  256
370
   -1
100
AcDbLine
 10
182.112
 20
-121.085
 11
182.255
 21
-121.228
  0
LINE
  5
332
100
AcDbEntity
  8
Black
  6
ByLayer
 62
  256
370
   -1
100
AcDbLine
 10
182.255
 20
-121.228
 11
182.398
 21
-121.514
  0
LINE
  5
333
100
AcDbEntity
  8
Black
  6
ByLayer
 62
  256
370
   -1
100
AcDbLine
 10
182.398
 20
-121.514
 11
182.398
 21
-122.371
  0
LINE
  5
334
100
AcDbEntity
  8
Black
  6
ByLayer
 62
  256
370
   -1
100
AcDbLine
 10
182.398
 20
-122.371
 11
182.255
 21
-122.656
  0
LINE
  5
335
100
AcDbEntity
  8
Black
  6
ByLayer
 62
  256
370
   -1
100
AcDbLine
 10
182.255
 20
-122.656
 11
182.112
 21
-122.799
  0
LINE
  5
336
100
AcDbEntity
  8
Black
  6
ByLayer
 62
  256
370
   -1
100
AcDbLine
 10
182.112
 20
-122.799
 11
181.826
 21
-122.942
  0
LINE
  5
337
100
AcDbEntity
  8
Black
  6
ByLayer
 62
  256
370
   -1
100
AcDbLine
 10
181.826
 20
-122.942
 11
181.255
 21
-122.942
  0
LINE
  5
338
100
AcDbEntity
  8
Black
  6
ByLayer
 62
  256
370
   -1
100
AcDbLine
 10
181.255
 20
-122.942
 11
180.969
 21
-122.799
  0
LINE
  5
339
100
AcDbEntity
  8
Black
  6
ByLayer
 62
  256
370
   -1
100
AcDbLine
 10
184.112
 20
-122.942
 11
183.826
 21
-122.799
  0
LINE
  5
33A
100
AcDbEntity
  8
Black
  6
ByLayer
 62
  256
370
   -1
100
AcDbLine
 10
183.826
 20
-122.799
 11
183.684
 21
-122.514
  0
LINE
  5
33B
100
AcDbEntity
  8
Black
  6
ByLayer
 62
  256
370
   -1
100
AcDbLine
 10
183.684
 20
-122.514
 11
183.684
 21
-119.942
  0
LINE
  5
33C
100
AcDbEntity
  8
Black
  6
ByLayer
 62
  256
370
   -1
100
AcDbLine
 10
186.541
 20
-122.942
 11
186.541
 21
-121.371
  0
LINE
  5
33D
100
AcDbEntity
  8
Black
  6
ByLayer
 62
  256
370
   -1
100
AcDbLine
 10
186.541
 20
-121.371
 11
186.398
 21
-121.085
  0
LINE
  5
33E
100
AcDbEntity
  8
Black
  6
ByLayer
 62
  256
370
   -1
100
AcDbLine
 10
186.398
 20
-121.085
 11
186.112
 21
-120.942
  0
LINE
  5
33F
100
AcDbEntity
  8
Black
  6
ByLayer
 62
  256
370
   -1
100
AcDbLine
 10
186.112
 20
-120.942
 11
185.541
 21
-120.942
  0
LINE
  5
340
100
AcDbEntity
  8
Black
  6
ByLayer
 62
  256
370
   -1
100
AcDbLine
 10
185.541
 20
-120.942
 11
185.255
 21
-121.085
  0
LINE
  5
341
100
AcDbEntity
  8
Black
  6
ByLayer
 62
  256
370
   -1
100
AcDbLine
 10
186.541
 20
-122.799
 11
186.255
 21
-122.942
  0
LINE
  5
342
100
AcDbEntity
  8
Black
  6
ByLayer
 62
  256
370
   -1
100
AcDbLine
 10
186.255
 20
-122.942
 11
185.541
 21
-122.942
  0
LINE
  5
343
100
AcDbEntity
  8
Black
  6
ByLayer
 62
  256
370
   -1
100
AcDbLine
 10
185.541
 20
-122.942
 11
185.255
 21
-122.799
  0
LINE
  5
344
100
AcDbEntity
  8
Black
  6
ByLayer
 62
  256
370
   -1
100
AcDbLine
 10
185.255
 20
-122.799
 11
185.112
 21
-122.514
  0
LINE
  5
345
100
AcDbEntity
  8
Black
  6
ByLayer
 62
  256
370
   -1
100
AcDbLine
 10
185.112
 20
-122.514
 11
185.112
 21
-122.228
  0
LINE
  5
346
100
AcDbEntity
  8
Black
  6
ByLayer
 62
  256
370
   -1
100
AcDbLine
 10
185.112
 20
-122.228
 11
185.255
 21
-121.942
  0
LINE
  5
347
100
AcDbEntity
  8
Black
  6
ByLayer
 62
  256
370
   -1
100
AcDbLine
 10
185.255
 20
-121.942
 11
185.541
 21
-121.799
  0
LINE
  5
348
100
AcDbEntity
  8
Black
  6
ByLayer
 62
  256
370
   -1
100
AcDbLine
 10
185.541
 20
-121.799
 11
186.255
 21
-121.799
  0
LINE
  5
349
100
AcDbEntity
  8
Black
  6
ByLayer
 62
  256
370
   -1
100
AcDbLine
 10
186.255
 20
-121.799
 11
186.541
 21
-121.656
  0
LINE
  5
34A
100
AcDbEntity
  8
Black
  6
ByLayer
 62
  256
370
   -1
100
AcDbLine
 10
187.541
 20
-120.942
 11
188.684
 21
-120.942
  0
LINE
  5
34B
100
AcDbEntity
  8
Black
  6
ByLayer
 62
  256
370
   -1
100
AcDbLine
 10
187.969
 20
-119.942
 11
187.969
 21
-122.514
  0
LINE
  5
34C
100
AcDbEntity
  8
Black
  6
ByLayer
 62
  256
370
   -1
100
AcDbLine
 10
187.969
 20
-122.514
 11
188.112
 21
-122.799
  0
LINE
  5
34D
100
AcDbEntity
  8
Black
  6
ByLayer
 62
  256
370
   -1
100
AcDbLine
 10
188.112
 20
-122.799
 11
188.398
 21
-122.942
  0
LINE
  5
34E
100
AcDbEntity
  8
Black
  6
ByLayer
 62
  256
370
   -1
100
AcDbLine
 10
188.398
 20
-122.942
 11
188.684
 21
-122.942
  0
LINE
  5
34F
100
AcDbEntity
  8
Black
  6
ByLayer
 62
  256
370
   -1
100
AcDbLine
 10
190.826
 20
-122.799
 11
190.541
 21
-122.942
  0
LINE
  5
350
100
AcDbEntity
  8
Black
  6
ByLayer
 62
  256
370
   -1
100
AcDbLine
 10
190.541
 20
-122.942
 11
189.969
 21
-122.942
  0
LINE
  5
351
100
AcDbEntity
  8
Black
  6
ByLayer
 62
  256
370
   -1
100
AcDbLine
 10
189.969
 20
-122.942
 11
189.684
 21
-122.799
  0
LINE
  5
352
100
AcDbEntity
  8
Black
  6
ByLayer
 62
  256
370
   -1
100
AcDbLine
 10
189.684
 20
-122.799
 11
189.541
 21
-122.514
  0
LINE
  5
353
100
AcDbEntity
  8
Black
  6
ByLayer
 62
  256
370
   -1
100
AcDbLine
 10
189.541
 20
-122.514
 11
189.541
 21
-121.371
  0
LINE
  5
354
100
AcDbEntity
  8
Black
  6
ByLayer
 62
  256
370
   -1
100
AcDbLine
 10
189.541
 20
-121.371
 11
189.684
 21
-121.085
  0
LINE
  5
355
100
AcDbEntity
  8
Black
  6
ByLayer
 62
  256
370
   -1
100
AcDbLine
 10
189.684
 20
-121.085
 11
189.969
 21
-120.942
  0
LINE
  5
356
100
AcDbEntity
  8
Black
  6
ByLayer
 62
  256
370
   -1
100
AcDbLine
 10
189.969
 20
-120.942
 11
190.541
 21
-120.942
  0
LINE
  5
357
100
AcDbEntity
  8
Black
  6
ByLayer
 62
  256
370
   -1
100
AcDbLine
 10
190.541
 20
-120.942
 11
190.826
 21
-121.085
  0
LINE
  5
358
100
AcDbEntity
  8
Black
  6
ByLayer
 62
  256
370
   -1
100
AcDbLine
 10
190.826
 20
-121.085
 11
190.969
 21
-121.371
  0
LINE
  5
359
100
AcDbEntity
  8
Black
  6
ByLayer
 62
  256
370
   -1
100
AcDbLine
 10
190.969
 20
-121.371
 11
190.969
 21
-121.656
  0
LINE
  5
35A
100
AcDbEntity
  8
Black
  6
ByLayer
 62
  256
370
   -1
100
AcDbLine
 10
190.969
 20
-121.656
 11
189.541
 21
-121.942
  0
LINE
  5
35B
100
AcDbEntity
  8
Black
  6
ByLayer
 62
  256
370
   -1
100
AcDbLine
 10
193.541
 20
-122.942
 11
193.541
 21
-119.942
  0
LINE
  5
35C
100
AcDbEntity
  8
Black
  6
ByLayer
 62
  256
370
   -1
100
AcDbLine
 10
193.541
 20
-122.799
 11
193.255
 21
-122.942
  0
LINE
  5
35D
100
AcDbEntity
  8
Black
  6
ByLayer
 62
  256
370
   -1
100
AcDbLine
 10
193.255
 20
-122.942
 11
192.684
 21
-122.942
  0
LINE
  5
35E
100
AcDbEntity
  8
Black
  6
ByLayer
 62
  256
370
   -1
100
AcDbLine
 10
192.684
 20
-122.942
 11
192.398
 21
-122.799
  0
LINE
  5
35F
100
AcDbEntity
  8
Black
  6
ByLayer
 62
  256
370
   -1
100
AcDbLine
 10
192.398
 20
-122.799
 11
192.255
 21
-122.656
  0
LINE
  5
360
100
AcDbEntity
  8
Black
  6
ByLayer
 62
  256
370
   -1
100
AcDbLine
 10
192.255
 20
-122.656
 11
192.112
 21
-122.371
  0
LINE
  5
361
100
AcDbEntity
  8
Black
  6
ByLayer
 62
  256
370
   -1
100
AcDbLine
 10
192.112
 20
-122.371
 11
192.112
 21
-121.514
  0
LINE
  5
362
100
AcDbEntity
  8
Black
  6
ByLayer
 62
  256
370
   -1
100
AcDbLine
 10
192.112
 20
-121.514
 11
192.255
 21
-121.228
  0
LINE
  5
363
100
AcDbEntity
  8
Black
  6
ByLayer
 62
  256
370
   -1
100
AcDbLine
 10
192.255
 20
-121.228
 11
192.398
 21
-121.085
  0
LINE
  5
364
100
AcDbEntity
  8
Black
  6
ByLayer
 62
  256
370
   -1
100
AcDbLine
 10
192.398
 20
-121.085
 11
192.684
 21
-120.942
  0
LINE
  5
365
100
AcDbEntity
  8
Black
  6
ByLayer
 62
  256
370
   -1
100
AcDbLine
 10
192.684
 20
-120.942
 11
193.255
 21
-120.942
  0
LINE
  5
366
100
AcDbEntity
  8
Black
  6
ByLayer
 62
  256
370
   -1
100
AcDbLine
 10
193.255
 20
-120.942
 11
193.541
 21
-121.085
  0
LINE
  5
367
100
AcDbEntity
  8
Black
  6
ByLayer
 62
  256
370
   -1
100
AcDbLine
 10
194.684
 20
-124.085
 11
194.826
 21
-123.942
  0
LINE
  5
368
100
AcDbEntity
  8
Black
  6
ByLayer
 62
  256
370
   -1
100
AcDbLine
 10
194.826
 20
-123.942
 11
195.112
 21
-123.514
  0
LINE
  5
369
100
AcDbEntity
  8
Black
  6
ByLayer
 62
  256
370
   -1
100
AcDbLine
 10
195.112
 20
-123.514
 11
195.255
 21
-123.228
  0
LINE
  5
36A
100
AcDbEntity
  8
Black
  6
ByLayer
 62
  256
370
   -1
100
AcDbLine
 10
195.255
 20
-123.228
 11
195.398
 21
-122.799
  0
LINE
  5
36B
100
AcDbEntity
  8
Black
  6
ByLayer
 62
  256
370
   -1
100
AcDbLine
 10
195.398
 20
-122.799
 11
195.541
 21
-122.085
  0
LINE
  5
36C
100
AcDbEntity
  8
Black
  6
ByLayer
 62
  256
370
   -1
100
AcDbLine
 10
195.541
 20
-122.085
 11
195.541
 21
-121.514
  0
LINE
  5
36D
100
AcDbEntity
  8
Black
  6
ByLayer
 62
  256
370
   -1
100
AcDbLine
 10
195.541
 20
-121.514
 11
195.398
 21
-120.799
  0
LINE
  5
36E
100
AcDbEntity
  8
Black
  6
ByLayer
 62
  256
370
   -1
100
AcDbLine
 10
195.398
 20
-120.799
 11
195.255
 21
-120.371
  0
LINE
  5
36F
100
AcDbEntity
  8
Black
  6
ByLayer
 62
  256
370
   -1
100
AcDbLine
 10
195.255
 20
-120.371
 11
195.112
 21
-120.085
  0
LINE
  5
370
100
AcDbEntity
  8
Black
  6
ByLayer
 62
  256
370
   -1
100
AcDbLine
 10
195.112
 20
-120.085
 11
194.826
 21
-119.656
  0
LINE
  5
371
100
AcDbEntity
  8
Black
  6
ByLayer
 62
  256
370
   -1
100
AcDbLine
 10
194.826
 20
-119.656
 11
194.684
 21
-119.514
  0
ENDSEC
  0
SECTION
  2
OBJECTS
  0
DICTIONARY
  5
C
330
0
100
AcDbDictionary
281
    1
  3
ACAD_GROUP
350
D
  0
DICTIONARY
  5
D
330
C
100
AcDbDictionary
281
    1
  0
ENDSEC
  0
EOF
