G04 #@! TF.FileFunction,Soldermask,Bot*
%FSLAX46Y46*%
G04 Gerber Fmt 4.6, Leading zero omitted, Abs format (unit mm)*
G04 Created by KiCad (PCBNEW 4.0.7-e2-6376~58~ubuntu16.04.1) date Tue May  1 20:05:14 2018*
%MOMM*%
%LPD*%
G01*
G04 APERTURE LIST*
%ADD10C,0.100000*%
%ADD11R,2.000000X2.000000*%
%ADD12C,2.000000*%
%ADD13R,2.400000X3.000000*%
%ADD14O,2.400000X3.000000*%
%ADD15C,1.920000*%
%ADD16C,3.100000*%
%ADD17R,2.100000X2.100000*%
%ADD18O,2.100000X2.100000*%
%ADD19R,3.000000X2.400000*%
%ADD20O,3.000000X2.400000*%
%ADD21C,6.400000*%
%ADD22C,1.924000*%
%ADD23C,2.500000*%
%ADD24C,2.150000*%
%ADD25C,4.050000*%
%ADD26R,1.900000X1.900000*%
%ADD27C,1.900000*%
%ADD28R,1.150000X1.600000*%
%ADD29R,1.398220X2.051000*%
%ADD30R,1.670000X1.370000*%
%ADD31C,2.200000*%
%ADD32C,4.400000*%
G04 APERTURE END LIST*
D10*
D11*
X176570000Y-48260000D03*
D12*
X179070000Y-48260000D03*
D11*
X165100000Y-55920000D03*
D12*
X165100000Y-58420000D03*
D13*
X170180000Y-38100000D03*
D14*
X172720000Y-38100000D03*
D15*
X159670000Y-44545000D03*
X157130000Y-44545000D03*
X157130000Y-42545000D03*
X159670000Y-42545000D03*
D16*
X164400000Y-39845000D03*
X152400000Y-39845000D03*
D13*
X154940000Y-67310000D03*
D14*
X152400000Y-67310000D03*
D17*
X157480000Y-54610000D03*
D18*
X154940000Y-54610000D03*
X152400000Y-54610000D03*
D13*
X154940000Y-104140000D03*
D14*
X152400000Y-104140000D03*
X149860000Y-104140000D03*
X147320000Y-104140000D03*
D13*
X143510000Y-79375000D03*
D14*
X140970000Y-79375000D03*
X138430000Y-79375000D03*
X135890000Y-79375000D03*
D19*
X104140000Y-85090000D03*
D20*
X104140000Y-82550000D03*
X104140000Y-80010000D03*
X104140000Y-77470000D03*
D19*
X104140000Y-72390000D03*
D20*
X104140000Y-69850000D03*
X104140000Y-67310000D03*
X104140000Y-64770000D03*
D21*
X180340000Y-104140000D03*
X104140000Y-38100000D03*
X104140000Y-104140000D03*
X180340000Y-38100000D03*
D22*
X106680000Y-43180000D03*
X106680000Y-45720000D03*
X106680000Y-48260000D03*
X106680000Y-50800000D03*
X106680000Y-53340000D03*
X106680000Y-55880000D03*
X127000000Y-55880000D03*
X127000000Y-53340000D03*
X127000000Y-50800000D03*
X127000000Y-48260000D03*
X127000000Y-45720000D03*
X127000000Y-43180000D03*
D12*
X139700000Y-69850000D03*
X142240000Y-69850000D03*
X144780000Y-69850000D03*
X147320000Y-69850000D03*
X137160000Y-69850000D03*
X134620000Y-69850000D03*
X132080000Y-69850000D03*
X147320000Y-67310000D03*
X147320000Y-64770000D03*
X147320000Y-62230000D03*
X147320000Y-59690000D03*
X147320000Y-57150000D03*
X147320000Y-54610000D03*
X147320000Y-52070000D03*
X147320000Y-49530000D03*
X147320000Y-46990000D03*
X147320000Y-44450000D03*
X147320000Y-41910000D03*
X147320000Y-39370000D03*
X147320000Y-36830000D03*
X144780000Y-39370000D03*
X144780000Y-44450000D03*
X144780000Y-46990000D03*
X144780000Y-49530000D03*
X132080000Y-67310000D03*
X132080000Y-64770000D03*
X132080000Y-62230000D03*
X132080000Y-59690000D03*
X132080000Y-57150000D03*
X132080000Y-54610000D03*
X132080000Y-52070000D03*
X132080000Y-49530000D03*
X132080000Y-46990000D03*
X132080000Y-44450000D03*
X132080000Y-41910000D03*
X132080000Y-39370000D03*
D11*
X132080000Y-36830000D03*
D12*
X139700000Y-52070000D03*
X139700000Y-54610000D03*
X139700000Y-57150000D03*
X139700000Y-59690000D03*
X139700000Y-62230000D03*
X139700000Y-64770000D03*
X139700000Y-67310000D03*
X142240000Y-67310000D03*
X142240000Y-64770000D03*
X142240000Y-62230000D03*
X142240000Y-59690000D03*
X142240000Y-57150000D03*
X142240000Y-54610000D03*
X142240000Y-52070000D03*
D23*
X179655000Y-68590000D03*
D24*
X182145000Y-67330000D03*
X182145000Y-62830000D03*
D23*
X179655000Y-61580000D03*
X179655000Y-78750000D03*
D24*
X182145000Y-77490000D03*
X182145000Y-72990000D03*
D23*
X179655000Y-71740000D03*
X179655000Y-88910000D03*
D24*
X182145000Y-87650000D03*
X182145000Y-83150000D03*
D23*
X179655000Y-81900000D03*
D25*
X142240000Y-104140000D03*
X130810000Y-104140000D03*
D26*
X132080000Y-97790000D03*
D27*
X133350000Y-95250000D03*
X134620000Y-97790000D03*
X135890000Y-95250000D03*
X137160000Y-97790000D03*
X138430000Y-95250000D03*
X139700000Y-97790000D03*
X140970000Y-95250000D03*
D25*
X124460000Y-104140000D03*
X113030000Y-104140000D03*
D26*
X114300000Y-97790000D03*
D27*
X115570000Y-95250000D03*
X116840000Y-97790000D03*
X118110000Y-95250000D03*
X119380000Y-97790000D03*
X120650000Y-95250000D03*
X121920000Y-97790000D03*
X123190000Y-95250000D03*
D19*
X104140000Y-97540200D03*
D20*
X104140000Y-95000200D03*
X104140000Y-92460200D03*
X104140000Y-89920200D03*
D23*
X179755000Y-99050000D03*
D24*
X182245000Y-97790000D03*
X182245000Y-93290000D03*
D23*
X179755000Y-92040000D03*
D28*
X138430000Y-87635000D03*
X138430000Y-89535000D03*
D29*
X140642340Y-86324440D03*
X143837660Y-86324440D03*
X143837660Y-91475560D03*
X140642340Y-91475560D03*
D30*
X135255000Y-89540000D03*
X135255000Y-88260000D03*
D31*
X160640000Y-67940000D03*
X160640000Y-70440000D03*
X160640000Y-72940000D03*
D32*
X167640000Y-66040000D03*
X167640000Y-74840000D03*
D31*
X160640000Y-89620000D03*
X160640000Y-92120000D03*
X160640000Y-94620000D03*
D32*
X167640000Y-87720000D03*
X167640000Y-96520000D03*
M02*
