G04 #@! TF.FileFunction,Copper,L2,Bot,Signal*
%FSLAX46Y46*%
G04 Gerber Fmt 4.6, Leading zero omitted, Abs format (unit mm)*
G04 Created by KiCad (PCBNEW 4.0.7-e2-6376~58~ubuntu16.04.1) date Tue May  1 20:05:14 2018*
%MOMM*%
%LPD*%
G01*
G04 APERTURE LIST*
%ADD10C,0.100000*%
%ADD11R,1.600000X1.600000*%
%ADD12C,1.600000*%
%ADD13R,2.000000X2.600000*%
%ADD14O,2.000000X2.600000*%
%ADD15C,1.520000*%
%ADD16C,2.700000*%
%ADD17R,1.700000X1.700000*%
%ADD18O,1.700000X1.700000*%
%ADD19R,2.600000X2.000000*%
%ADD20O,2.600000X2.000000*%
%ADD21C,6.000000*%
%ADD22C,1.524000*%
%ADD23C,2.100000*%
%ADD24C,1.750000*%
%ADD25C,3.650000*%
%ADD26R,1.500000X1.500000*%
%ADD27C,1.500000*%
%ADD28R,0.750000X1.200000*%
%ADD29R,0.998220X1.651000*%
%ADD30R,1.270000X0.970000*%
%ADD31C,1.800000*%
%ADD32C,4.000000*%
%ADD33C,0.600000*%
%ADD34C,1.000000*%
%ADD35C,0.750000*%
%ADD36C,0.250000*%
%ADD37C,0.254000*%
G04 APERTURE END LIST*
D10*
D11*
X176570000Y-48260000D03*
D12*
X179070000Y-48260000D03*
D11*
X165100000Y-55920000D03*
D12*
X165100000Y-58420000D03*
D13*
X170180000Y-38100000D03*
D14*
X172720000Y-38100000D03*
D15*
X159670000Y-44545000D03*
X157130000Y-44545000D03*
X157130000Y-42545000D03*
X159670000Y-42545000D03*
D16*
X164400000Y-39845000D03*
X152400000Y-39845000D03*
D13*
X154940000Y-67310000D03*
D14*
X152400000Y-67310000D03*
D17*
X157480000Y-54610000D03*
D18*
X154940000Y-54610000D03*
X152400000Y-54610000D03*
D13*
X154940000Y-104140000D03*
D14*
X152400000Y-104140000D03*
X149860000Y-104140000D03*
X147320000Y-104140000D03*
D13*
X143510000Y-79375000D03*
D14*
X140970000Y-79375000D03*
X138430000Y-79375000D03*
X135890000Y-79375000D03*
D19*
X104140000Y-85090000D03*
D20*
X104140000Y-82550000D03*
X104140000Y-80010000D03*
X104140000Y-77470000D03*
D19*
X104140000Y-72390000D03*
D20*
X104140000Y-69850000D03*
X104140000Y-67310000D03*
X104140000Y-64770000D03*
D21*
X180340000Y-104140000D03*
X104140000Y-38100000D03*
X104140000Y-104140000D03*
X180340000Y-38100000D03*
D22*
X106680000Y-43180000D03*
X106680000Y-45720000D03*
X106680000Y-48260000D03*
X106680000Y-50800000D03*
X106680000Y-53340000D03*
X106680000Y-55880000D03*
X127000000Y-55880000D03*
X127000000Y-53340000D03*
X127000000Y-50800000D03*
X127000000Y-48260000D03*
X127000000Y-45720000D03*
X127000000Y-43180000D03*
D12*
X139700000Y-69850000D03*
X142240000Y-69850000D03*
X144780000Y-69850000D03*
X147320000Y-69850000D03*
X137160000Y-69850000D03*
X134620000Y-69850000D03*
X132080000Y-69850000D03*
X147320000Y-67310000D03*
X147320000Y-64770000D03*
X147320000Y-62230000D03*
X147320000Y-59690000D03*
X147320000Y-57150000D03*
X147320000Y-54610000D03*
X147320000Y-52070000D03*
X147320000Y-49530000D03*
X147320000Y-46990000D03*
X147320000Y-44450000D03*
X147320000Y-41910000D03*
X147320000Y-39370000D03*
X147320000Y-36830000D03*
X144780000Y-39370000D03*
X144780000Y-44450000D03*
X144780000Y-46990000D03*
X144780000Y-49530000D03*
X132080000Y-67310000D03*
X132080000Y-64770000D03*
X132080000Y-62230000D03*
X132080000Y-59690000D03*
X132080000Y-57150000D03*
X132080000Y-54610000D03*
X132080000Y-52070000D03*
X132080000Y-49530000D03*
X132080000Y-46990000D03*
X132080000Y-44450000D03*
X132080000Y-41910000D03*
X132080000Y-39370000D03*
D11*
X132080000Y-36830000D03*
D12*
X139700000Y-52070000D03*
X139700000Y-54610000D03*
X139700000Y-57150000D03*
X139700000Y-59690000D03*
X139700000Y-62230000D03*
X139700000Y-64770000D03*
X139700000Y-67310000D03*
X142240000Y-67310000D03*
X142240000Y-64770000D03*
X142240000Y-62230000D03*
X142240000Y-59690000D03*
X142240000Y-57150000D03*
X142240000Y-54610000D03*
X142240000Y-52070000D03*
D23*
X179655000Y-68590000D03*
D24*
X182145000Y-67330000D03*
X182145000Y-62830000D03*
D23*
X179655000Y-61580000D03*
X179655000Y-78750000D03*
D24*
X182145000Y-77490000D03*
X182145000Y-72990000D03*
D23*
X179655000Y-71740000D03*
X179655000Y-88910000D03*
D24*
X182145000Y-87650000D03*
X182145000Y-83150000D03*
D23*
X179655000Y-81900000D03*
D25*
X142240000Y-104140000D03*
X130810000Y-104140000D03*
D26*
X132080000Y-97790000D03*
D27*
X133350000Y-95250000D03*
X134620000Y-97790000D03*
X135890000Y-95250000D03*
X137160000Y-97790000D03*
X138430000Y-95250000D03*
X139700000Y-97790000D03*
X140970000Y-95250000D03*
D25*
X124460000Y-104140000D03*
X113030000Y-104140000D03*
D26*
X114300000Y-97790000D03*
D27*
X115570000Y-95250000D03*
X116840000Y-97790000D03*
X118110000Y-95250000D03*
X119380000Y-97790000D03*
X120650000Y-95250000D03*
X121920000Y-97790000D03*
X123190000Y-95250000D03*
D19*
X104140000Y-97540200D03*
D20*
X104140000Y-95000200D03*
X104140000Y-92460200D03*
X104140000Y-89920200D03*
D23*
X179755000Y-99050000D03*
D24*
X182245000Y-97790000D03*
X182245000Y-93290000D03*
D23*
X179755000Y-92040000D03*
D28*
X138430000Y-87635000D03*
X138430000Y-89535000D03*
D29*
X140642340Y-86324440D03*
X143837660Y-86324440D03*
X143837660Y-91475560D03*
X140642340Y-91475560D03*
D30*
X135255000Y-89540000D03*
X135255000Y-88260000D03*
D31*
X160640000Y-67940000D03*
X160640000Y-70440000D03*
X160640000Y-72940000D03*
D32*
X167640000Y-66040000D03*
X167640000Y-74840000D03*
D31*
X160640000Y-89620000D03*
X160640000Y-92120000D03*
X160640000Y-94620000D03*
D32*
X167640000Y-87720000D03*
X167640000Y-96520000D03*
D33*
X120650000Y-58420000D03*
X149014300Y-68163600D03*
X123236700Y-93509700D03*
X122577600Y-92870700D03*
X120035100Y-91373900D03*
X120790300Y-91809700D03*
X120092900Y-37011500D03*
X120190500Y-52363100D03*
X114390000Y-37010000D03*
X133350000Y-69241000D03*
X129549800Y-65767300D03*
X129186700Y-67059000D03*
X128117300Y-66147000D03*
X117036700Y-37010500D03*
X154130900Y-57027000D03*
X161591700Y-81575000D03*
X124188200Y-90111700D03*
D34*
X154940000Y-55812081D02*
X154940000Y-54610000D01*
X154940000Y-55812100D02*
X154940000Y-55812081D01*
X157339010Y-68470990D02*
X157339010Y-58211110D01*
X157339010Y-58211110D02*
X154940000Y-55812100D01*
X154460000Y-71350000D02*
X157339010Y-68470990D01*
X153560990Y-72249010D02*
X154460000Y-71350000D01*
X142715990Y-72249010D02*
X153560990Y-72249010D01*
X135890000Y-79075000D02*
X142715990Y-72249010D01*
D35*
X149574977Y-49244977D02*
X154090001Y-53760001D01*
X154090001Y-53760001D02*
X154940000Y-54610000D01*
X147320000Y-36830000D02*
X149574977Y-39084978D01*
X149574977Y-39084978D02*
X149574977Y-49244977D01*
D34*
X149860000Y-101840000D02*
X149860000Y-104140000D01*
X153600000Y-98100000D02*
X149860000Y-101840000D01*
X153600000Y-72210000D02*
X153600000Y-98100000D01*
X154460000Y-71350000D02*
X153600000Y-72210000D01*
X121585000Y-59355000D02*
X120650000Y-58420000D01*
X121585000Y-64770000D02*
X121585000Y-59355000D01*
X101840000Y-75470000D02*
X103840000Y-77470000D01*
X101840000Y-66770000D02*
X101840000Y-75470000D01*
X103840000Y-64770000D02*
X101840000Y-66770000D01*
X104140000Y-64770000D02*
X103840000Y-64770000D01*
X104140000Y-77470000D02*
X103840000Y-77470000D01*
X103840000Y-89920200D02*
X104140000Y-89920200D01*
X101840000Y-87920200D02*
X103840000Y-89920200D01*
X101840000Y-79470000D02*
X101840000Y-87920200D01*
X103840000Y-77470000D02*
X101840000Y-79470000D01*
X104140000Y-64770000D02*
X121585000Y-64770000D01*
X121585000Y-64770000D02*
X135890000Y-79075000D01*
D36*
X139290100Y-87475200D02*
X139130300Y-87635000D01*
X140642300Y-87475200D02*
X139290100Y-87475200D01*
X140642300Y-86324400D02*
X140642300Y-87475200D01*
X138430000Y-87635000D02*
X139130300Y-87635000D01*
D34*
X135890000Y-79375000D02*
X135890000Y-79075000D01*
D36*
X136469000Y-81000300D02*
X140642300Y-85173600D01*
X135890000Y-81000300D02*
X136469000Y-81000300D01*
X140642300Y-86324400D02*
X140642300Y-85173600D01*
X135890000Y-79375000D02*
X135890000Y-81000300D01*
X132080000Y-36830000D02*
X132080000Y-37955300D01*
X121920000Y-97790000D02*
X132080000Y-97790000D01*
X154430000Y-39845000D02*
X157130000Y-42545000D01*
X152400000Y-39845000D02*
X154430000Y-39845000D01*
X105797700Y-75373000D02*
X104140000Y-73715300D01*
X105797700Y-83432300D02*
X105797700Y-75373000D01*
X104140000Y-85090000D02*
X105797700Y-83432300D01*
X143799400Y-92626400D02*
X143786000Y-92639800D01*
X143837700Y-92626400D02*
X143799400Y-92626400D01*
X140681200Y-89535000D02*
X138430000Y-89535000D01*
X143786000Y-92639800D02*
X140681200Y-89535000D01*
X143837700Y-91475600D02*
X143837700Y-92626400D01*
X104140000Y-72390000D02*
X104140000Y-73715300D01*
X106680000Y-45720000D02*
X106680000Y-43180000D01*
X139955200Y-97790000D02*
X139700000Y-97790000D01*
X143786000Y-93959200D02*
X139955200Y-97790000D01*
X143786000Y-92639800D02*
X143786000Y-93959200D01*
X139700000Y-97790000D02*
X137160000Y-97790000D01*
X179070000Y-46990000D02*
X179070000Y-48260000D01*
X170180000Y-38100000D02*
X179070000Y-46990000D01*
X127000000Y-42765200D02*
X127000000Y-43180000D01*
X131809900Y-37955300D02*
X127000000Y-42765200D01*
X132080000Y-37955300D02*
X131809900Y-37955300D01*
X104140000Y-85090000D02*
X104140000Y-86415300D01*
X107665800Y-97790000D02*
X105778000Y-95902200D01*
X114300000Y-97790000D02*
X107665800Y-97790000D01*
X104140000Y-97540200D02*
X105778000Y-95902200D01*
X105778000Y-88053300D02*
X104140000Y-86415300D01*
X105778000Y-95902200D02*
X105778000Y-88053300D01*
X149014300Y-58844300D02*
X149014300Y-68163600D01*
X147320000Y-57150000D02*
X149014300Y-58844300D01*
X131609700Y-93509700D02*
X123236700Y-93509700D01*
X133350000Y-95250000D02*
X131609700Y-93509700D01*
X133510700Y-92870700D02*
X122577600Y-92870700D01*
X135890000Y-95250000D02*
X133510700Y-92870700D01*
X135413000Y-92233000D02*
X138430000Y-95250000D01*
X121823100Y-92233000D02*
X135413000Y-92233000D01*
X121586200Y-92469900D02*
X121823100Y-92233000D01*
X120510100Y-92469900D02*
X121586200Y-92469900D01*
X120035100Y-91994900D02*
X120510100Y-92469900D01*
X120035100Y-91373900D02*
X120035100Y-91994900D01*
X120866200Y-91733800D02*
X120790300Y-91809700D01*
X137453800Y-91733800D02*
X120866200Y-91733800D01*
X140970000Y-95250000D02*
X137453800Y-91733800D01*
X133223400Y-52809800D02*
X132561700Y-53471500D01*
X133223400Y-46530800D02*
X133223400Y-52809800D01*
X132412600Y-45720000D02*
X133223400Y-46530800D01*
X129927600Y-45720000D02*
X132412600Y-45720000D01*
X128498200Y-44290600D02*
X129927600Y-45720000D01*
X126572900Y-44290600D02*
X128498200Y-44290600D01*
X120092900Y-37810600D02*
X126572900Y-44290600D01*
X120092900Y-37011500D02*
X120092900Y-37810600D01*
X129408500Y-53471500D02*
X127000000Y-55880000D01*
X132561700Y-53471500D02*
X129408500Y-53471500D01*
X133245400Y-54155200D02*
X132561700Y-53471500D01*
X133245400Y-68098700D02*
X133245400Y-54155200D01*
X132080000Y-69264100D02*
X133245400Y-68098700D01*
X132080000Y-69850000D02*
X132080000Y-69264100D01*
X146166000Y-68696000D02*
X147320000Y-69850000D01*
X144277300Y-68696000D02*
X146166000Y-68696000D01*
X143510000Y-69463300D02*
X144277300Y-68696000D01*
X143510000Y-70184600D02*
X143510000Y-69463300D01*
X142681200Y-71013400D02*
X143510000Y-70184600D01*
X131406500Y-71013400D02*
X142681200Y-71013400D01*
X126448500Y-66055400D02*
X131406500Y-71013400D01*
X126448500Y-62995900D02*
X126448500Y-66055400D01*
X114252600Y-50800000D02*
X126448500Y-62995900D01*
X106680000Y-50800000D02*
X114252600Y-50800000D01*
X112432200Y-48260000D02*
X106680000Y-48260000D01*
X127219000Y-63046800D02*
X112432200Y-48260000D01*
X127219000Y-66160900D02*
X127219000Y-63046800D01*
X128746600Y-67688500D02*
X127219000Y-66160900D01*
X131701500Y-67688500D02*
X128746600Y-67688500D01*
X132080000Y-67310000D02*
X131701500Y-67688500D01*
X114390000Y-40535800D02*
X114390000Y-37010000D01*
X123203900Y-49349700D02*
X114390000Y-40535800D01*
X129720300Y-49349700D02*
X123203900Y-49349700D01*
X132080000Y-46990000D02*
X129720300Y-49349700D01*
X123203900Y-49349700D02*
X120190500Y-52363100D01*
X105586000Y-52246000D02*
X106680000Y-53340000D01*
X105586000Y-47768600D02*
X105586000Y-52246000D01*
X106183700Y-47170900D02*
X105586000Y-47768600D01*
X113873100Y-47170900D02*
X106183700Y-47170900D01*
X119740400Y-53038200D02*
X113873100Y-47170900D01*
X120540900Y-53038200D02*
X119740400Y-53038200D01*
X121509100Y-52070000D02*
X120540900Y-53038200D01*
X129540000Y-52070000D02*
X121509100Y-52070000D01*
X132080000Y-49530000D02*
X129540000Y-52070000D01*
X183345400Y-74190400D02*
X182145000Y-72990000D01*
X183345400Y-81949600D02*
X183345400Y-74190400D01*
X182145000Y-83150000D02*
X183345400Y-81949600D01*
X133738700Y-46108700D02*
X132080000Y-44450000D01*
X133738700Y-68852300D02*
X133738700Y-46108700D01*
X133350000Y-69241000D02*
X133738700Y-68852300D01*
X129549800Y-59680200D02*
X129549800Y-65767300D01*
X132080000Y-57150000D02*
X129549800Y-59680200D01*
X130665400Y-65580300D02*
X129186700Y-67059000D01*
X130665400Y-61104600D02*
X130665400Y-65580300D01*
X132080000Y-59690000D02*
X130665400Y-61104600D01*
X128117300Y-58572700D02*
X128117300Y-66147000D01*
X132080000Y-54610000D02*
X128117300Y-58572700D01*
X127000000Y-48260000D02*
X127000000Y-45720000D01*
X125746200Y-45720000D02*
X117036700Y-37010500D01*
X127000000Y-45720000D02*
X125746200Y-45720000D01*
X154130900Y-64875600D02*
X154940000Y-65684700D01*
X154130900Y-57027000D02*
X154130900Y-64875600D01*
X154940000Y-67310000D02*
X154940000Y-65684700D01*
X152400000Y-67310000D02*
X151074700Y-67310000D01*
X151074700Y-54159300D02*
X151074700Y-67310000D01*
X147715400Y-50800000D02*
X151074700Y-54159300D01*
X146985300Y-50800000D02*
X147715400Y-50800000D01*
X146194600Y-50009300D02*
X146985300Y-50800000D01*
X146194600Y-42621900D02*
X146194600Y-50009300D01*
X143616600Y-40043900D02*
X146194600Y-42621900D01*
X143616600Y-37601100D02*
X143616600Y-40043900D01*
X146431200Y-34786500D02*
X143616600Y-37601100D01*
X151911500Y-34786500D02*
X146431200Y-34786500D01*
X159670000Y-42545000D02*
X151911500Y-34786500D01*
X161914600Y-71665400D02*
X161539999Y-72040001D01*
X161539999Y-72040001D02*
X160640000Y-72940000D01*
X150724999Y-37914999D02*
X150724999Y-42379099D01*
X145690200Y-38532800D02*
X145690200Y-36164400D01*
X147320000Y-41910000D02*
X146050000Y-40640000D01*
X146050000Y-38892600D02*
X145690200Y-38532800D01*
X145690200Y-36164400D02*
X146617800Y-35236800D01*
X146050000Y-40640000D02*
X146050000Y-38892600D01*
X150724999Y-42379099D02*
X161914600Y-53568700D01*
X148046800Y-35236800D02*
X150724999Y-37914999D01*
X161914600Y-53568700D02*
X161914600Y-71665400D01*
X146617800Y-35236800D02*
X148046800Y-35236800D01*
X161865400Y-81848700D02*
X161591700Y-81575000D01*
X161865400Y-93394600D02*
X161865400Y-81848700D01*
X160640000Y-94620000D02*
X161865400Y-93394600D01*
X161591700Y-73891700D02*
X160640000Y-72940000D01*
X161591700Y-81575000D02*
X161591700Y-73891700D01*
X160640000Y-66667208D02*
X160640000Y-67940000D01*
X150274988Y-38148088D02*
X150274988Y-44476488D01*
X147819300Y-35692400D02*
X150274988Y-38148088D01*
X146825400Y-35692400D02*
X147819300Y-35692400D01*
X147320000Y-39370000D02*
X146175700Y-38225700D01*
X146175700Y-36342100D02*
X146825400Y-35692400D01*
X146175700Y-38225700D02*
X146175700Y-36342100D01*
X150274988Y-44476488D02*
X160640000Y-54841500D01*
X160640000Y-54841500D02*
X160640000Y-66667208D01*
X159380900Y-69199100D02*
X160640000Y-67940000D01*
X159380900Y-88360900D02*
X159380900Y-69199100D01*
X160640000Y-89620000D02*
X159380900Y-88360900D01*
X139817900Y-90324800D02*
X140642300Y-90324800D01*
X139651700Y-90491000D02*
X139817900Y-90324800D01*
X135395700Y-90491000D02*
X139651700Y-90491000D01*
X135255000Y-90350300D02*
X135395700Y-90491000D01*
X135255000Y-89540000D02*
X135255000Y-90350300D01*
X140642300Y-91475600D02*
X140642300Y-90324800D01*
X115570000Y-94889300D02*
X115570000Y-95250000D01*
X120347600Y-90111700D02*
X115570000Y-94889300D01*
X124188200Y-90111700D02*
X120347600Y-90111700D01*
X126039900Y-88260000D02*
X135255000Y-88260000D01*
X124188200Y-90111700D02*
X126039900Y-88260000D01*
X150703600Y-105836400D02*
X152400000Y-104140000D01*
X146798200Y-105836400D02*
X150703600Y-105836400D01*
X145213400Y-104251600D02*
X146798200Y-105836400D01*
X145213400Y-91063400D02*
X145213400Y-104251600D01*
X142710300Y-88560300D02*
X145213400Y-91063400D01*
X136515600Y-88560300D02*
X142710300Y-88560300D01*
X136215300Y-88260000D02*
X136515600Y-88560300D01*
X135255000Y-88260000D02*
X136215300Y-88260000D01*
D37*
G36*
X178283628Y-35016600D02*
X177260194Y-36038249D01*
X176705632Y-37373782D01*
X176704370Y-38819874D01*
X177256600Y-40156372D01*
X178278249Y-41179806D01*
X179613782Y-41734368D01*
X181059874Y-41735630D01*
X182396372Y-41183400D01*
X183419806Y-40161751D01*
X183440000Y-40113118D01*
X183440000Y-62009987D01*
X183425862Y-61975771D01*
X183001463Y-61550630D01*
X182446675Y-61320262D01*
X181845960Y-61319738D01*
X181340045Y-61528778D01*
X181340292Y-61246303D01*
X181084306Y-60626771D01*
X180610722Y-60152360D01*
X179991638Y-59895293D01*
X179321303Y-59894708D01*
X178701771Y-60150694D01*
X178227360Y-60624278D01*
X177970293Y-61243362D01*
X177969708Y-61913697D01*
X178225694Y-62533229D01*
X178699278Y-63007640D01*
X179318362Y-63264707D01*
X179988697Y-63265292D01*
X180608229Y-63009306D01*
X180634866Y-62982716D01*
X180634738Y-63129040D01*
X180864138Y-63684229D01*
X181288537Y-64109370D01*
X181843325Y-64339738D01*
X182444040Y-64340262D01*
X182999229Y-64110862D01*
X183424370Y-63686463D01*
X183440000Y-63648822D01*
X183440000Y-66509987D01*
X183425862Y-66475771D01*
X183001463Y-66050630D01*
X182446675Y-65820262D01*
X181845960Y-65819738D01*
X181290771Y-66049138D01*
X180865630Y-66473537D01*
X180635262Y-67028325D01*
X180635124Y-67186804D01*
X180610722Y-67162360D01*
X179991638Y-66905293D01*
X179321303Y-66904708D01*
X178701771Y-67160694D01*
X178227360Y-67634278D01*
X177970293Y-68253362D01*
X177969708Y-68923697D01*
X178225694Y-69543229D01*
X178699278Y-70017640D01*
X179054268Y-70165045D01*
X178701771Y-70310694D01*
X178227360Y-70784278D01*
X177970293Y-71403362D01*
X177969708Y-72073697D01*
X178225694Y-72693229D01*
X178699278Y-73167640D01*
X179318362Y-73424707D01*
X179988697Y-73425292D01*
X180608229Y-73169306D01*
X180634866Y-73142716D01*
X180634738Y-73289040D01*
X180864138Y-73844229D01*
X181288537Y-74269370D01*
X181843325Y-74499738D01*
X182444040Y-74500262D01*
X182540573Y-74460375D01*
X182585400Y-74505202D01*
X182585400Y-76037866D01*
X182446675Y-75980262D01*
X181845960Y-75979738D01*
X181290771Y-76209138D01*
X180865630Y-76633537D01*
X180635262Y-77188325D01*
X180635124Y-77346804D01*
X180610722Y-77322360D01*
X179991638Y-77065293D01*
X179321303Y-77064708D01*
X178701771Y-77320694D01*
X178227360Y-77794278D01*
X177970293Y-78413362D01*
X177969708Y-79083697D01*
X178225694Y-79703229D01*
X178699278Y-80177640D01*
X179054268Y-80325045D01*
X178701771Y-80470694D01*
X178227360Y-80944278D01*
X177970293Y-81563362D01*
X177969708Y-82233697D01*
X178225694Y-82853229D01*
X178699278Y-83327640D01*
X179318362Y-83584707D01*
X179988697Y-83585292D01*
X180608229Y-83329306D01*
X180634866Y-83302716D01*
X180634738Y-83449040D01*
X180864138Y-84004229D01*
X181288537Y-84429370D01*
X181843325Y-84659738D01*
X182444040Y-84660262D01*
X182999229Y-84430862D01*
X183424370Y-84006463D01*
X183440000Y-83968822D01*
X183440000Y-86829987D01*
X183425862Y-86795771D01*
X183001463Y-86370630D01*
X182446675Y-86140262D01*
X181845960Y-86139738D01*
X181290771Y-86369138D01*
X180865630Y-86793537D01*
X180635262Y-87348325D01*
X180635124Y-87506804D01*
X180610722Y-87482360D01*
X179991638Y-87225293D01*
X179321303Y-87224708D01*
X178701771Y-87480694D01*
X178227360Y-87954278D01*
X177970293Y-88573362D01*
X177969708Y-89243697D01*
X178225694Y-89863229D01*
X178699278Y-90337640D01*
X179080002Y-90495731D01*
X178801771Y-90610694D01*
X178327360Y-91084278D01*
X178070293Y-91703362D01*
X178069708Y-92373697D01*
X178325694Y-92993229D01*
X178799278Y-93467640D01*
X179418362Y-93724707D01*
X180088697Y-93725292D01*
X180708229Y-93469306D01*
X180734866Y-93442716D01*
X180734738Y-93589040D01*
X180964138Y-94144229D01*
X181388537Y-94569370D01*
X181943325Y-94799738D01*
X182544040Y-94800262D01*
X183099229Y-94570862D01*
X183440000Y-94230686D01*
X183440000Y-96849759D01*
X183101463Y-96510630D01*
X182546675Y-96280262D01*
X181945960Y-96279738D01*
X181390771Y-96509138D01*
X180965630Y-96933537D01*
X180735262Y-97488325D01*
X180735124Y-97646804D01*
X180710722Y-97622360D01*
X180091638Y-97365293D01*
X179421303Y-97364708D01*
X178801771Y-97620694D01*
X178327360Y-98094278D01*
X178070293Y-98713362D01*
X178069708Y-99383697D01*
X178325694Y-100003229D01*
X178799278Y-100477640D01*
X179240954Y-100661041D01*
X178283628Y-101056600D01*
X177260194Y-102078249D01*
X176705632Y-103413782D01*
X176704370Y-104859874D01*
X177256600Y-106196372D01*
X178278249Y-107219806D01*
X178326882Y-107240000D01*
X106156197Y-107240000D01*
X106196372Y-107223400D01*
X107219806Y-106201751D01*
X107774368Y-104866218D01*
X107774576Y-104627177D01*
X110569574Y-104627177D01*
X110943298Y-105531657D01*
X111634703Y-106224270D01*
X112538529Y-106599572D01*
X113517177Y-106600426D01*
X114421657Y-106226702D01*
X115114270Y-105535297D01*
X115489572Y-104631471D01*
X115489575Y-104627177D01*
X121999574Y-104627177D01*
X122373298Y-105531657D01*
X123064703Y-106224270D01*
X123968529Y-106599572D01*
X124947177Y-106600426D01*
X125851657Y-106226702D01*
X126544270Y-105535297D01*
X126919572Y-104631471D01*
X126919575Y-104627177D01*
X128349574Y-104627177D01*
X128723298Y-105531657D01*
X129414703Y-106224270D01*
X130318529Y-106599572D01*
X131297177Y-106600426D01*
X132201657Y-106226702D01*
X132894270Y-105535297D01*
X133269572Y-104631471D01*
X133270426Y-103652823D01*
X132896702Y-102748343D01*
X132205297Y-102055730D01*
X131301471Y-101680428D01*
X130322823Y-101679574D01*
X129418343Y-102053298D01*
X128725730Y-102744703D01*
X128350428Y-103648529D01*
X128349574Y-104627177D01*
X126919575Y-104627177D01*
X126920426Y-103652823D01*
X126546702Y-102748343D01*
X125855297Y-102055730D01*
X124951471Y-101680428D01*
X123972823Y-101679574D01*
X123068343Y-102053298D01*
X122375730Y-102744703D01*
X122000428Y-103648529D01*
X121999574Y-104627177D01*
X115489575Y-104627177D01*
X115490426Y-103652823D01*
X115116702Y-102748343D01*
X114425297Y-102055730D01*
X113521471Y-101680428D01*
X112542823Y-101679574D01*
X111638343Y-102053298D01*
X110945730Y-102744703D01*
X110570428Y-103648529D01*
X110569574Y-104627177D01*
X107774576Y-104627177D01*
X107775630Y-103420126D01*
X107223400Y-102083628D01*
X106201751Y-101060194D01*
X104866218Y-100505632D01*
X103420126Y-100504370D01*
X102083628Y-101056600D01*
X101060194Y-102078249D01*
X101040000Y-102126882D01*
X101040000Y-97825950D01*
X102205000Y-97825950D01*
X102205000Y-98666509D01*
X102301673Y-98899898D01*
X102480301Y-99078527D01*
X102713690Y-99175200D01*
X103854250Y-99175200D01*
X104013000Y-99016450D01*
X104013000Y-97667200D01*
X104267000Y-97667200D01*
X104267000Y-99016450D01*
X104425750Y-99175200D01*
X105566310Y-99175200D01*
X105799699Y-99078527D01*
X105978327Y-98899898D01*
X106075000Y-98666509D01*
X106075000Y-98075750D01*
X112915000Y-98075750D01*
X112915000Y-98666310D01*
X113011673Y-98899699D01*
X113190302Y-99078327D01*
X113423691Y-99175000D01*
X114014250Y-99175000D01*
X114173000Y-99016250D01*
X114173000Y-97917000D01*
X113073750Y-97917000D01*
X112915000Y-98075750D01*
X106075000Y-98075750D01*
X106075000Y-97825950D01*
X105916250Y-97667200D01*
X104267000Y-97667200D01*
X104013000Y-97667200D01*
X102363750Y-97667200D01*
X102205000Y-97825950D01*
X101040000Y-97825950D01*
X101040000Y-88725332D01*
X102178336Y-89863668D01*
X102167091Y-89920200D01*
X102291548Y-90545887D01*
X102645971Y-91076320D01*
X102816405Y-91190200D01*
X102645971Y-91304080D01*
X102291548Y-91834513D01*
X102167091Y-92460200D01*
X102291548Y-93085887D01*
X102645971Y-93616320D01*
X102816405Y-93730200D01*
X102645971Y-93844080D01*
X102291548Y-94374513D01*
X102167091Y-95000200D01*
X102291548Y-95625887D01*
X102529231Y-95981606D01*
X102480301Y-96001873D01*
X102301673Y-96180502D01*
X102205000Y-96413891D01*
X102205000Y-97254450D01*
X102363750Y-97413200D01*
X104013000Y-97413200D01*
X104013000Y-97393200D01*
X104267000Y-97393200D01*
X104267000Y-97413200D01*
X105916250Y-97413200D01*
X106075000Y-97254450D01*
X106075000Y-96913690D01*
X112915000Y-96913690D01*
X112915000Y-97504250D01*
X113073750Y-97663000D01*
X114173000Y-97663000D01*
X114173000Y-96563750D01*
X114014250Y-96405000D01*
X113423691Y-96405000D01*
X113190302Y-96501673D01*
X113011673Y-96680301D01*
X112915000Y-96913690D01*
X106075000Y-96913690D01*
X106075000Y-96413891D01*
X105978327Y-96180502D01*
X105799699Y-96001873D01*
X105750769Y-95981606D01*
X105988452Y-95625887D01*
X106112909Y-95000200D01*
X105988452Y-94374513D01*
X105634029Y-93844080D01*
X105463595Y-93730200D01*
X105634029Y-93616320D01*
X105988452Y-93085887D01*
X106112909Y-92460200D01*
X105988452Y-91834513D01*
X105634029Y-91304080D01*
X105463595Y-91190200D01*
X105634029Y-91076320D01*
X105988452Y-90545887D01*
X106112909Y-89920200D01*
X105988452Y-89294513D01*
X105634029Y-88764080D01*
X105103596Y-88409657D01*
X104477909Y-88285200D01*
X103810132Y-88285200D01*
X102975000Y-87450068D01*
X102975000Y-86725000D01*
X103854250Y-86725000D01*
X104013000Y-86566250D01*
X104013000Y-85217000D01*
X104267000Y-85217000D01*
X104267000Y-86566250D01*
X104425750Y-86725000D01*
X105566310Y-86725000D01*
X105799699Y-86628327D01*
X105978327Y-86449698D01*
X106075000Y-86216309D01*
X106075000Y-85375750D01*
X105916250Y-85217000D01*
X104267000Y-85217000D01*
X104013000Y-85217000D01*
X103993000Y-85217000D01*
X103993000Y-84963000D01*
X104013000Y-84963000D01*
X104013000Y-84943000D01*
X104267000Y-84943000D01*
X104267000Y-84963000D01*
X105916250Y-84963000D01*
X106075000Y-84804250D01*
X106075000Y-83963691D01*
X105978327Y-83730302D01*
X105799699Y-83551673D01*
X105750769Y-83531406D01*
X105988452Y-83175687D01*
X106112909Y-82550000D01*
X105988452Y-81924313D01*
X105634029Y-81393880D01*
X105463595Y-81280000D01*
X105634029Y-81166120D01*
X105988452Y-80635687D01*
X106112909Y-80010000D01*
X105988452Y-79384313D01*
X105634029Y-78853880D01*
X105463595Y-78740000D01*
X105634029Y-78626120D01*
X105988452Y-78095687D01*
X106112909Y-77470000D01*
X105988452Y-76844313D01*
X105634029Y-76313880D01*
X105103596Y-75959457D01*
X104477909Y-75835000D01*
X103810132Y-75835000D01*
X102975000Y-74999868D01*
X102975000Y-74025000D01*
X103854250Y-74025000D01*
X104013000Y-73866250D01*
X104013000Y-72517000D01*
X104267000Y-72517000D01*
X104267000Y-73866250D01*
X104425750Y-74025000D01*
X105566310Y-74025000D01*
X105799699Y-73928327D01*
X105978327Y-73749698D01*
X106075000Y-73516309D01*
X106075000Y-72675750D01*
X105916250Y-72517000D01*
X104267000Y-72517000D01*
X104013000Y-72517000D01*
X103993000Y-72517000D01*
X103993000Y-72263000D01*
X104013000Y-72263000D01*
X104013000Y-72243000D01*
X104267000Y-72243000D01*
X104267000Y-72263000D01*
X105916250Y-72263000D01*
X106075000Y-72104250D01*
X106075000Y-71263691D01*
X105978327Y-71030302D01*
X105799699Y-70851673D01*
X105750769Y-70831406D01*
X105988452Y-70475687D01*
X106112909Y-69850000D01*
X105988452Y-69224313D01*
X105634029Y-68693880D01*
X105463595Y-68580000D01*
X105634029Y-68466120D01*
X105988452Y-67935687D01*
X106112909Y-67310000D01*
X105988452Y-66684313D01*
X105634029Y-66153880D01*
X105463595Y-66040000D01*
X105634029Y-65926120D01*
X105648141Y-65905000D01*
X121114868Y-65905000D01*
X134255000Y-79045132D01*
X134255000Y-79712909D01*
X134379457Y-80338596D01*
X134733880Y-80869029D01*
X135160604Y-81154156D01*
X135187852Y-81291139D01*
X135352599Y-81537701D01*
X135599161Y-81702448D01*
X135890000Y-81760300D01*
X136154198Y-81760300D01*
X139585016Y-85191118D01*
X139546799Y-85247050D01*
X139495790Y-85498940D01*
X139495790Y-86715200D01*
X139353799Y-86715200D01*
X139269090Y-86583559D01*
X139056890Y-86438569D01*
X138805000Y-86387560D01*
X138055000Y-86387560D01*
X137819683Y-86431838D01*
X137603559Y-86570910D01*
X137458569Y-86783110D01*
X137407560Y-87035000D01*
X137407560Y-87800300D01*
X136830402Y-87800300D01*
X136752701Y-87722599D01*
X136506139Y-87557852D01*
X136496209Y-87555877D01*
X136493162Y-87539683D01*
X136354090Y-87323559D01*
X136141890Y-87178569D01*
X135890000Y-87127560D01*
X134620000Y-87127560D01*
X134384683Y-87171838D01*
X134168559Y-87310910D01*
X134039359Y-87500000D01*
X126039900Y-87500000D01*
X125749060Y-87557852D01*
X125502499Y-87722599D01*
X124048520Y-89176578D01*
X124003033Y-89176538D01*
X123659257Y-89318583D01*
X123626082Y-89351700D01*
X120347600Y-89351700D01*
X120056761Y-89409552D01*
X119810199Y-89574299D01*
X115519543Y-93864955D01*
X115295715Y-93864760D01*
X114786485Y-94075169D01*
X114396539Y-94464436D01*
X114185241Y-94973298D01*
X114184760Y-95524285D01*
X114395169Y-96033515D01*
X114766007Y-96405000D01*
X114585750Y-96405000D01*
X114427000Y-96563750D01*
X114427000Y-97663000D01*
X114447000Y-97663000D01*
X114447000Y-97917000D01*
X114427000Y-97917000D01*
X114427000Y-99016250D01*
X114585750Y-99175000D01*
X115176309Y-99175000D01*
X115409698Y-99078327D01*
X115588327Y-98899699D01*
X115645563Y-98761517D01*
X116048088Y-98761517D01*
X116116077Y-99002460D01*
X116635171Y-99187201D01*
X117185448Y-99159230D01*
X117563923Y-99002460D01*
X117631912Y-98761517D01*
X118588088Y-98761517D01*
X118656077Y-99002460D01*
X119175171Y-99187201D01*
X119725448Y-99159230D01*
X120103923Y-99002460D01*
X120171912Y-98761517D01*
X121128088Y-98761517D01*
X121196077Y-99002460D01*
X121715171Y-99187201D01*
X122265448Y-99159230D01*
X122643923Y-99002460D01*
X122711912Y-98761517D01*
X121920000Y-97969605D01*
X121128088Y-98761517D01*
X120171912Y-98761517D01*
X119380000Y-97969605D01*
X118588088Y-98761517D01*
X117631912Y-98761517D01*
X116840000Y-97969605D01*
X116048088Y-98761517D01*
X115645563Y-98761517D01*
X115685000Y-98666310D01*
X115685000Y-98530137D01*
X115868483Y-98581912D01*
X116660395Y-97790000D01*
X117019605Y-97790000D01*
X117811517Y-98581912D01*
X118052460Y-98513923D01*
X118105642Y-98364489D01*
X118167540Y-98513923D01*
X118408483Y-98581912D01*
X119200395Y-97790000D01*
X119559605Y-97790000D01*
X120351517Y-98581912D01*
X120592460Y-98513923D01*
X120645642Y-98364489D01*
X120707540Y-98513923D01*
X120948483Y-98581912D01*
X121740395Y-97790000D01*
X122099605Y-97790000D01*
X122891517Y-98581912D01*
X123132460Y-98513923D01*
X123288401Y-98075750D01*
X130695000Y-98075750D01*
X130695000Y-98666310D01*
X130791673Y-98899699D01*
X130970302Y-99078327D01*
X131203691Y-99175000D01*
X131794250Y-99175000D01*
X131953000Y-99016250D01*
X131953000Y-97917000D01*
X130853750Y-97917000D01*
X130695000Y-98075750D01*
X123288401Y-98075750D01*
X123317201Y-97994829D01*
X123289230Y-97444552D01*
X123132460Y-97066077D01*
X122891517Y-96998088D01*
X122099605Y-97790000D01*
X121740395Y-97790000D01*
X120948483Y-96998088D01*
X120707540Y-97066077D01*
X120654358Y-97215511D01*
X120592460Y-97066077D01*
X120351517Y-96998088D01*
X119559605Y-97790000D01*
X119200395Y-97790000D01*
X118408483Y-96998088D01*
X118167540Y-97066077D01*
X118114358Y-97215511D01*
X118052460Y-97066077D01*
X117811517Y-96998088D01*
X117019605Y-97790000D01*
X116660395Y-97790000D01*
X115868483Y-96998088D01*
X115685000Y-97049863D01*
X115685000Y-96913690D01*
X115645564Y-96818483D01*
X116048088Y-96818483D01*
X116840000Y-97610395D01*
X117631912Y-96818483D01*
X118588088Y-96818483D01*
X119380000Y-97610395D01*
X120171912Y-96818483D01*
X121128088Y-96818483D01*
X121920000Y-97610395D01*
X122616705Y-96913690D01*
X130695000Y-96913690D01*
X130695000Y-97504250D01*
X130853750Y-97663000D01*
X131953000Y-97663000D01*
X131953000Y-96563750D01*
X131794250Y-96405000D01*
X131203691Y-96405000D01*
X130970302Y-96501673D01*
X130791673Y-96680301D01*
X130695000Y-96913690D01*
X122616705Y-96913690D01*
X122711912Y-96818483D01*
X122643923Y-96577540D01*
X122124829Y-96392799D01*
X121574552Y-96420770D01*
X121196077Y-96577540D01*
X121128088Y-96818483D01*
X120171912Y-96818483D01*
X120103923Y-96577540D01*
X119584829Y-96392799D01*
X119034552Y-96420770D01*
X118656077Y-96577540D01*
X118588088Y-96818483D01*
X117631912Y-96818483D01*
X117563923Y-96577540D01*
X117044829Y-96392799D01*
X116494552Y-96420770D01*
X116116077Y-96577540D01*
X116048088Y-96818483D01*
X115645564Y-96818483D01*
X115588327Y-96680301D01*
X115543003Y-96634977D01*
X115844285Y-96635240D01*
X116353515Y-96424831D01*
X116743461Y-96035564D01*
X116839976Y-95803130D01*
X116935169Y-96033515D01*
X117324436Y-96423461D01*
X117833298Y-96634759D01*
X118384285Y-96635240D01*
X118893515Y-96424831D01*
X119283461Y-96035564D01*
X119379976Y-95803130D01*
X119475169Y-96033515D01*
X119864436Y-96423461D01*
X120373298Y-96634759D01*
X120924285Y-96635240D01*
X121433515Y-96424831D01*
X121823461Y-96035564D01*
X121919976Y-95803130D01*
X122015169Y-96033515D01*
X122404436Y-96423461D01*
X122913298Y-96634759D01*
X123464285Y-96635240D01*
X123973515Y-96424831D01*
X124363461Y-96035564D01*
X124574759Y-95526702D01*
X124575240Y-94975715D01*
X124364831Y-94466485D01*
X124168389Y-94269700D01*
X131294898Y-94269700D01*
X131974998Y-94949800D01*
X131965241Y-94973298D01*
X131964760Y-95524285D01*
X132175169Y-96033515D01*
X132546007Y-96405000D01*
X132365750Y-96405000D01*
X132207000Y-96563750D01*
X132207000Y-97663000D01*
X132227000Y-97663000D01*
X132227000Y-97917000D01*
X132207000Y-97917000D01*
X132207000Y-99016250D01*
X132365750Y-99175000D01*
X132956309Y-99175000D01*
X133189698Y-99078327D01*
X133368327Y-98899699D01*
X133425563Y-98761517D01*
X133828088Y-98761517D01*
X133896077Y-99002460D01*
X134415171Y-99187201D01*
X134965448Y-99159230D01*
X135343923Y-99002460D01*
X135411912Y-98761517D01*
X136368088Y-98761517D01*
X136436077Y-99002460D01*
X136955171Y-99187201D01*
X137505448Y-99159230D01*
X137883923Y-99002460D01*
X137951912Y-98761517D01*
X138908088Y-98761517D01*
X138976077Y-99002460D01*
X139495171Y-99187201D01*
X140045448Y-99159230D01*
X140423923Y-99002460D01*
X140491912Y-98761517D01*
X139700000Y-97969605D01*
X138908088Y-98761517D01*
X137951912Y-98761517D01*
X137160000Y-97969605D01*
X136368088Y-98761517D01*
X135411912Y-98761517D01*
X134620000Y-97969605D01*
X133828088Y-98761517D01*
X133425563Y-98761517D01*
X133465000Y-98666310D01*
X133465000Y-98530137D01*
X133648483Y-98581912D01*
X134440395Y-97790000D01*
X134799605Y-97790000D01*
X135591517Y-98581912D01*
X135832460Y-98513923D01*
X135885642Y-98364489D01*
X135947540Y-98513923D01*
X136188483Y-98581912D01*
X136980395Y-97790000D01*
X137339605Y-97790000D01*
X138131517Y-98581912D01*
X138372460Y-98513923D01*
X138425642Y-98364489D01*
X138487540Y-98513923D01*
X138728483Y-98581912D01*
X139520395Y-97790000D01*
X139879605Y-97790000D01*
X140671517Y-98581912D01*
X140912460Y-98513923D01*
X141097201Y-97994829D01*
X141069230Y-97444552D01*
X140912460Y-97066077D01*
X140671517Y-96998088D01*
X139879605Y-97790000D01*
X139520395Y-97790000D01*
X138728483Y-96998088D01*
X138487540Y-97066077D01*
X138434358Y-97215511D01*
X138372460Y-97066077D01*
X138131517Y-96998088D01*
X137339605Y-97790000D01*
X136980395Y-97790000D01*
X136188483Y-96998088D01*
X135947540Y-97066077D01*
X135894358Y-97215511D01*
X135832460Y-97066077D01*
X135591517Y-96998088D01*
X134799605Y-97790000D01*
X134440395Y-97790000D01*
X133648483Y-96998088D01*
X133465000Y-97049863D01*
X133465000Y-96913690D01*
X133425564Y-96818483D01*
X133828088Y-96818483D01*
X134620000Y-97610395D01*
X135411912Y-96818483D01*
X136368088Y-96818483D01*
X137160000Y-97610395D01*
X137951912Y-96818483D01*
X138908088Y-96818483D01*
X139700000Y-97610395D01*
X140491912Y-96818483D01*
X140423923Y-96577540D01*
X139904829Y-96392799D01*
X139354552Y-96420770D01*
X138976077Y-96577540D01*
X138908088Y-96818483D01*
X137951912Y-96818483D01*
X137883923Y-96577540D01*
X137364829Y-96392799D01*
X136814552Y-96420770D01*
X136436077Y-96577540D01*
X136368088Y-96818483D01*
X135411912Y-96818483D01*
X135343923Y-96577540D01*
X134824829Y-96392799D01*
X134274552Y-96420770D01*
X133896077Y-96577540D01*
X133828088Y-96818483D01*
X133425564Y-96818483D01*
X133368327Y-96680301D01*
X133323003Y-96634977D01*
X133624285Y-96635240D01*
X134133515Y-96424831D01*
X134523461Y-96035564D01*
X134619976Y-95803130D01*
X134715169Y-96033515D01*
X135104436Y-96423461D01*
X135613298Y-96634759D01*
X136164285Y-96635240D01*
X136673515Y-96424831D01*
X137063461Y-96035564D01*
X137159976Y-95803130D01*
X137255169Y-96033515D01*
X137644436Y-96423461D01*
X138153298Y-96634759D01*
X138704285Y-96635240D01*
X139213515Y-96424831D01*
X139603461Y-96035564D01*
X139699976Y-95803130D01*
X139795169Y-96033515D01*
X140184436Y-96423461D01*
X140693298Y-96634759D01*
X141244285Y-96635240D01*
X141753515Y-96424831D01*
X142143461Y-96035564D01*
X142354759Y-95526702D01*
X142355240Y-94975715D01*
X142144831Y-94466485D01*
X141755564Y-94076539D01*
X141246702Y-93865241D01*
X140695715Y-93864760D01*
X140670132Y-93875330D01*
X138045802Y-91251000D01*
X139495790Y-91251000D01*
X139495790Y-92301060D01*
X139540068Y-92536377D01*
X139679140Y-92752501D01*
X139891340Y-92897491D01*
X140143230Y-92948500D01*
X141141450Y-92948500D01*
X141376767Y-92904222D01*
X141592891Y-92765150D01*
X141737881Y-92552950D01*
X141788890Y-92301060D01*
X141788890Y-91761310D01*
X142703550Y-91761310D01*
X142703550Y-92427369D01*
X142800223Y-92660758D01*
X142978851Y-92839387D01*
X143212240Y-92936060D01*
X143551910Y-92936060D01*
X143710660Y-92777310D01*
X143710660Y-91602560D01*
X142862300Y-91602560D01*
X142703550Y-91761310D01*
X141788890Y-91761310D01*
X141788890Y-90650060D01*
X141744612Y-90414743D01*
X141605540Y-90198619D01*
X141393340Y-90053629D01*
X141346472Y-90044138D01*
X141344448Y-90033961D01*
X141179701Y-89787399D01*
X140933139Y-89622652D01*
X140642300Y-89564800D01*
X139817900Y-89564800D01*
X139527060Y-89622652D01*
X139364906Y-89731000D01*
X139350250Y-89731000D01*
X139281250Y-89662000D01*
X138557000Y-89662000D01*
X138557000Y-89682000D01*
X138303000Y-89682000D01*
X138303000Y-89662000D01*
X137578750Y-89662000D01*
X137509750Y-89731000D01*
X136537440Y-89731000D01*
X136537440Y-89320300D01*
X137491050Y-89320300D01*
X137578750Y-89408000D01*
X138303000Y-89408000D01*
X138303000Y-89388000D01*
X138557000Y-89388000D01*
X138557000Y-89408000D01*
X139281250Y-89408000D01*
X139368950Y-89320300D01*
X142395498Y-89320300D01*
X143125986Y-90050788D01*
X142978851Y-90111733D01*
X142800223Y-90290362D01*
X142703550Y-90523751D01*
X142703550Y-91189810D01*
X142862300Y-91348560D01*
X143710660Y-91348560D01*
X143710660Y-91328560D01*
X143964660Y-91328560D01*
X143964660Y-91348560D01*
X143984660Y-91348560D01*
X143984660Y-91602560D01*
X143964660Y-91602560D01*
X143964660Y-92777310D01*
X144123410Y-92936060D01*
X144453400Y-92936060D01*
X144453400Y-103054975D01*
X144326702Y-102748343D01*
X143635297Y-102055730D01*
X142731471Y-101680428D01*
X141752823Y-101679574D01*
X140848343Y-102053298D01*
X140155730Y-102744703D01*
X139780428Y-103648529D01*
X139779574Y-104627177D01*
X140153298Y-105531657D01*
X140844703Y-106224270D01*
X141748529Y-106599572D01*
X142727177Y-106600426D01*
X143631657Y-106226702D01*
X144324270Y-105535297D01*
X144650195Y-104750383D01*
X144675999Y-104789001D01*
X146260799Y-106373801D01*
X146507361Y-106538548D01*
X146798200Y-106596400D01*
X150703600Y-106596400D01*
X150994439Y-106538548D01*
X151241001Y-106373801D01*
X151685616Y-105929186D01*
X151774313Y-105988452D01*
X152400000Y-106112909D01*
X153025687Y-105988452D01*
X153381406Y-105750769D01*
X153401673Y-105799699D01*
X153580302Y-105978327D01*
X153813691Y-106075000D01*
X154654250Y-106075000D01*
X154813000Y-105916250D01*
X154813000Y-104267000D01*
X155067000Y-104267000D01*
X155067000Y-105916250D01*
X155225750Y-106075000D01*
X156066309Y-106075000D01*
X156299698Y-105978327D01*
X156478327Y-105799699D01*
X156575000Y-105566310D01*
X156575000Y-104425750D01*
X156416250Y-104267000D01*
X155067000Y-104267000D01*
X154813000Y-104267000D01*
X154793000Y-104267000D01*
X154793000Y-104013000D01*
X154813000Y-104013000D01*
X154813000Y-102363750D01*
X155067000Y-102363750D01*
X155067000Y-104013000D01*
X156416250Y-104013000D01*
X156575000Y-103854250D01*
X156575000Y-102713690D01*
X156478327Y-102480301D01*
X156299698Y-102301673D01*
X156066309Y-102205000D01*
X155225750Y-102205000D01*
X155067000Y-102363750D01*
X154813000Y-102363750D01*
X154654250Y-102205000D01*
X153813691Y-102205000D01*
X153580302Y-102301673D01*
X153401673Y-102480301D01*
X153381406Y-102529231D01*
X153025687Y-102291548D01*
X152400000Y-102167091D01*
X151774313Y-102291548D01*
X151243880Y-102645971D01*
X151130000Y-102816405D01*
X151016120Y-102645971D01*
X150995000Y-102631859D01*
X150995000Y-102310132D01*
X154402566Y-98902566D01*
X154560427Y-98666310D01*
X154648603Y-98534346D01*
X154735000Y-98100000D01*
X154735000Y-97041834D01*
X165004543Y-97041834D01*
X165404853Y-98010658D01*
X166145443Y-98752542D01*
X167113567Y-99154542D01*
X168161834Y-99155457D01*
X169130658Y-98755147D01*
X169872542Y-98014557D01*
X170274542Y-97046433D01*
X170275457Y-95998166D01*
X169875147Y-95029342D01*
X169134557Y-94287458D01*
X168166433Y-93885458D01*
X167118166Y-93884543D01*
X166149342Y-94284853D01*
X165407458Y-95025443D01*
X165005458Y-95993567D01*
X165004543Y-97041834D01*
X154735000Y-97041834D01*
X154735000Y-72680132D01*
X158141576Y-69273556D01*
X158181930Y-69213162D01*
X158387613Y-68905336D01*
X158474010Y-68470990D01*
X158474010Y-58211110D01*
X158387613Y-57776764D01*
X158141576Y-57408543D01*
X156840472Y-56107440D01*
X158330000Y-56107440D01*
X158565317Y-56063162D01*
X158781441Y-55924090D01*
X158926431Y-55711890D01*
X158977440Y-55460000D01*
X158977440Y-54253742D01*
X159880000Y-55156302D01*
X159880000Y-66593154D01*
X159771629Y-66637932D01*
X159339449Y-67069357D01*
X159105267Y-67633330D01*
X159104735Y-68243991D01*
X159150485Y-68354713D01*
X158843499Y-68661699D01*
X158678752Y-68908261D01*
X158620900Y-69199100D01*
X158620900Y-88360900D01*
X158678752Y-88651739D01*
X158843499Y-88898301D01*
X159150234Y-89205036D01*
X159105267Y-89313330D01*
X159104735Y-89923991D01*
X159337932Y-90488371D01*
X159719182Y-90870288D01*
X159339449Y-91249357D01*
X159105267Y-91813330D01*
X159104735Y-92423991D01*
X159337932Y-92988371D01*
X159719182Y-93370288D01*
X159339449Y-93749357D01*
X159105267Y-94313330D01*
X159104735Y-94923991D01*
X159337932Y-95488371D01*
X159769357Y-95920551D01*
X160333330Y-96154733D01*
X160943991Y-96155265D01*
X161508371Y-95922068D01*
X161940551Y-95490643D01*
X162174733Y-94926670D01*
X162175265Y-94316009D01*
X162129515Y-94205287D01*
X162402801Y-93932001D01*
X162567548Y-93685440D01*
X162625400Y-93394600D01*
X162625400Y-88241834D01*
X165004543Y-88241834D01*
X165404853Y-89210658D01*
X166145443Y-89952542D01*
X167113567Y-90354542D01*
X168161834Y-90355457D01*
X169130658Y-89955147D01*
X169872542Y-89214557D01*
X170274542Y-88246433D01*
X170275457Y-87198166D01*
X169875147Y-86229342D01*
X169134557Y-85487458D01*
X168166433Y-85085458D01*
X167118166Y-85084543D01*
X166149342Y-85484853D01*
X165407458Y-86225443D01*
X165005458Y-87193567D01*
X165004543Y-88241834D01*
X162625400Y-88241834D01*
X162625400Y-81848700D01*
X162607790Y-81760167D01*
X162567548Y-81557860D01*
X162526769Y-81496830D01*
X162526862Y-81389833D01*
X162384817Y-81046057D01*
X162351700Y-81012882D01*
X162351700Y-75361834D01*
X165004543Y-75361834D01*
X165404853Y-76330658D01*
X166145443Y-77072542D01*
X167113567Y-77474542D01*
X168161834Y-77475457D01*
X169130658Y-77075147D01*
X169872542Y-76334557D01*
X170274542Y-75366433D01*
X170275457Y-74318166D01*
X169875147Y-73349342D01*
X169134557Y-72607458D01*
X168166433Y-72205458D01*
X167118166Y-72204543D01*
X166149342Y-72604853D01*
X165407458Y-73345443D01*
X165005458Y-74313567D01*
X165004543Y-75361834D01*
X162351700Y-75361834D01*
X162351700Y-73891700D01*
X162293848Y-73600861D01*
X162129681Y-73355167D01*
X162174733Y-73246670D01*
X162175265Y-72636009D01*
X162129515Y-72525287D01*
X162452001Y-72202801D01*
X162616748Y-71956239D01*
X162674600Y-71665400D01*
X162674600Y-66561834D01*
X165004543Y-66561834D01*
X165404853Y-67530658D01*
X166145443Y-68272542D01*
X167113567Y-68674542D01*
X168161834Y-68675457D01*
X169130658Y-68275147D01*
X169872542Y-67534557D01*
X170274542Y-66566433D01*
X170275457Y-65518166D01*
X169875147Y-64549342D01*
X169134557Y-63807458D01*
X168166433Y-63405458D01*
X167118166Y-63404543D01*
X166149342Y-63804853D01*
X165407458Y-64545443D01*
X165005458Y-65513567D01*
X165004543Y-66561834D01*
X162674600Y-66561834D01*
X162674600Y-59427745D01*
X164271861Y-59427745D01*
X164345995Y-59673864D01*
X164883223Y-59866965D01*
X165453454Y-59839778D01*
X165854005Y-59673864D01*
X165928139Y-59427745D01*
X165100000Y-58599605D01*
X164271861Y-59427745D01*
X162674600Y-59427745D01*
X162674600Y-58203223D01*
X163653035Y-58203223D01*
X163680222Y-58773454D01*
X163846136Y-59174005D01*
X164092255Y-59248139D01*
X164920395Y-58420000D01*
X165279605Y-58420000D01*
X166107745Y-59248139D01*
X166353864Y-59174005D01*
X166546965Y-58636777D01*
X166519778Y-58066546D01*
X166353864Y-57665995D01*
X166107745Y-57591861D01*
X165279605Y-58420000D01*
X164920395Y-58420000D01*
X164092255Y-57591861D01*
X163846136Y-57665995D01*
X163653035Y-58203223D01*
X162674600Y-58203223D01*
X162674600Y-55120000D01*
X163652560Y-55120000D01*
X163652560Y-56720000D01*
X163696838Y-56955317D01*
X163835910Y-57171441D01*
X164048110Y-57316431D01*
X164286201Y-57364646D01*
X164271861Y-57412255D01*
X165100000Y-58240395D01*
X165928139Y-57412255D01*
X165913855Y-57364833D01*
X166135317Y-57323162D01*
X166351441Y-57184090D01*
X166496431Y-56971890D01*
X166547440Y-56720000D01*
X166547440Y-55120000D01*
X166503162Y-54884683D01*
X166364090Y-54668559D01*
X166151890Y-54523569D01*
X165900000Y-54472560D01*
X164300000Y-54472560D01*
X164064683Y-54516838D01*
X163848559Y-54655910D01*
X163703569Y-54868110D01*
X163652560Y-55120000D01*
X162674600Y-55120000D01*
X162674600Y-53568700D01*
X162616748Y-53277861D01*
X162534850Y-53155292D01*
X162452001Y-53031298D01*
X156880703Y-47460000D01*
X175122560Y-47460000D01*
X175122560Y-49060000D01*
X175166838Y-49295317D01*
X175305910Y-49511441D01*
X175518110Y-49656431D01*
X175770000Y-49707440D01*
X177370000Y-49707440D01*
X177605317Y-49663162D01*
X177821441Y-49524090D01*
X177966431Y-49311890D01*
X177975370Y-49267745D01*
X178241861Y-49267745D01*
X178315995Y-49513864D01*
X178853223Y-49706965D01*
X179423454Y-49679778D01*
X179824005Y-49513864D01*
X179898139Y-49267745D01*
X179070000Y-48439605D01*
X178241861Y-49267745D01*
X177975370Y-49267745D01*
X178014646Y-49073799D01*
X178062255Y-49088139D01*
X178890395Y-48260000D01*
X179249605Y-48260000D01*
X180077745Y-49088139D01*
X180323864Y-49014005D01*
X180516965Y-48476777D01*
X180489778Y-47906546D01*
X180323864Y-47505995D01*
X180077745Y-47431861D01*
X179249605Y-48260000D01*
X178890395Y-48260000D01*
X178062255Y-47431861D01*
X178014833Y-47446145D01*
X177978351Y-47252255D01*
X178241861Y-47252255D01*
X179070000Y-48080395D01*
X179898139Y-47252255D01*
X179824005Y-47006136D01*
X179286777Y-46813035D01*
X178716546Y-46840222D01*
X178315995Y-47006136D01*
X178241861Y-47252255D01*
X177978351Y-47252255D01*
X177973162Y-47224683D01*
X177834090Y-47008559D01*
X177621890Y-46863569D01*
X177370000Y-46812560D01*
X175770000Y-46812560D01*
X175534683Y-46856838D01*
X175318559Y-46995910D01*
X175173569Y-47208110D01*
X175122560Y-47460000D01*
X156880703Y-47460000D01*
X151758483Y-42337780D01*
X155722845Y-42337780D01*
X155750659Y-42892049D01*
X155909258Y-43274941D01*
X156151236Y-43344159D01*
X156950395Y-42545000D01*
X156151236Y-41745841D01*
X155909258Y-41815059D01*
X155722845Y-42337780D01*
X151758483Y-42337780D01*
X151484999Y-42064297D01*
X151484999Y-41619372D01*
X152051955Y-41838737D01*
X152841418Y-41820164D01*
X153484522Y-41553782D01*
X153625988Y-41250593D01*
X152400000Y-40024605D01*
X152385858Y-40038748D01*
X152206253Y-39859143D01*
X152220395Y-39845000D01*
X152579605Y-39845000D01*
X153805593Y-41070988D01*
X154108782Y-40929522D01*
X154393737Y-40193045D01*
X154375164Y-39403582D01*
X154108782Y-38760478D01*
X153805593Y-38619012D01*
X152579605Y-39845000D01*
X152220395Y-39845000D01*
X152206253Y-39830858D01*
X152385858Y-39651253D01*
X152400000Y-39665395D01*
X153625988Y-38439407D01*
X153484522Y-38136218D01*
X152748045Y-37851263D01*
X151958582Y-37869836D01*
X151484999Y-38066000D01*
X151484999Y-37914999D01*
X151464233Y-37810600D01*
X151427147Y-37624159D01*
X151262400Y-37377598D01*
X149431302Y-35546500D01*
X151596698Y-35546500D01*
X157195171Y-41144973D01*
X156782951Y-41165659D01*
X156400059Y-41324258D01*
X156330841Y-41566236D01*
X157130000Y-42365395D01*
X157144143Y-42351253D01*
X157323748Y-42530858D01*
X157309605Y-42545000D01*
X158108764Y-43344159D01*
X158350742Y-43274941D01*
X158402382Y-43130138D01*
X158486687Y-43334172D01*
X158697171Y-43545024D01*
X158488066Y-43753764D01*
X158400046Y-43965738D01*
X158313313Y-43755828D01*
X157921236Y-43363066D01*
X157659976Y-43254581D01*
X157130000Y-42724605D01*
X156600010Y-43254595D01*
X156340828Y-43361687D01*
X155948066Y-43753764D01*
X155735242Y-44266300D01*
X155734758Y-44821265D01*
X155946687Y-45334172D01*
X156338764Y-45726934D01*
X156851300Y-45939758D01*
X157406265Y-45940242D01*
X157919172Y-45728313D01*
X158311934Y-45336236D01*
X158399954Y-45124262D01*
X158486687Y-45334172D01*
X158878764Y-45726934D01*
X159391300Y-45939758D01*
X159946265Y-45940242D01*
X160459172Y-45728313D01*
X160851934Y-45336236D01*
X161064758Y-44823700D01*
X161065242Y-44268735D01*
X160853313Y-43755828D01*
X160642829Y-43544976D01*
X160851934Y-43336236D01*
X161064758Y-42823700D01*
X161065242Y-42268735D01*
X160853313Y-41755828D01*
X160461236Y-41363066D01*
X160190372Y-41250593D01*
X163174012Y-41250593D01*
X163315478Y-41553782D01*
X164051955Y-41838737D01*
X164841418Y-41820164D01*
X165484522Y-41553782D01*
X165625988Y-41250593D01*
X164400000Y-40024605D01*
X163174012Y-41250593D01*
X160190372Y-41250593D01*
X159948700Y-41150242D01*
X159393735Y-41149758D01*
X159362476Y-41162674D01*
X157696757Y-39496955D01*
X162406263Y-39496955D01*
X162424836Y-40286418D01*
X162691218Y-40929522D01*
X162994407Y-41070988D01*
X164220395Y-39845000D01*
X164579605Y-39845000D01*
X165805593Y-41070988D01*
X166108782Y-40929522D01*
X166393737Y-40193045D01*
X166375164Y-39403582D01*
X166108782Y-38760478D01*
X165805593Y-38619012D01*
X164579605Y-39845000D01*
X164220395Y-39845000D01*
X162994407Y-38619012D01*
X162691218Y-38760478D01*
X162406263Y-39496955D01*
X157696757Y-39496955D01*
X156639209Y-38439407D01*
X163174012Y-38439407D01*
X164400000Y-39665395D01*
X165625988Y-38439407D01*
X165600952Y-38385750D01*
X168545000Y-38385750D01*
X168545000Y-39526310D01*
X168641673Y-39759699D01*
X168820302Y-39938327D01*
X169053691Y-40035000D01*
X169894250Y-40035000D01*
X170053000Y-39876250D01*
X170053000Y-38227000D01*
X168703750Y-38227000D01*
X168545000Y-38385750D01*
X165600952Y-38385750D01*
X165484522Y-38136218D01*
X164748045Y-37851263D01*
X163958582Y-37869836D01*
X163315478Y-38136218D01*
X163174012Y-38439407D01*
X156639209Y-38439407D01*
X154873492Y-36673690D01*
X168545000Y-36673690D01*
X168545000Y-37814250D01*
X168703750Y-37973000D01*
X170053000Y-37973000D01*
X170053000Y-36323750D01*
X170307000Y-36323750D01*
X170307000Y-37973000D01*
X170327000Y-37973000D01*
X170327000Y-38227000D01*
X170307000Y-38227000D01*
X170307000Y-39876250D01*
X170465750Y-40035000D01*
X171306309Y-40035000D01*
X171539698Y-39938327D01*
X171718327Y-39759699D01*
X171738594Y-39710769D01*
X172094313Y-39948452D01*
X172720000Y-40072909D01*
X173345687Y-39948452D01*
X173876120Y-39594029D01*
X174230543Y-39063596D01*
X174355000Y-38437909D01*
X174355000Y-37762091D01*
X174230543Y-37136404D01*
X173876120Y-36605971D01*
X173345687Y-36251548D01*
X172720000Y-36127091D01*
X172094313Y-36251548D01*
X171738594Y-36489231D01*
X171718327Y-36440301D01*
X171539698Y-36261673D01*
X171306309Y-36165000D01*
X170465750Y-36165000D01*
X170307000Y-36323750D01*
X170053000Y-36323750D01*
X169894250Y-36165000D01*
X169053691Y-36165000D01*
X168820302Y-36261673D01*
X168641673Y-36440301D01*
X168545000Y-36673690D01*
X154873492Y-36673690D01*
X153199802Y-35000000D01*
X178323803Y-35000000D01*
X178283628Y-35016600D01*
X178283628Y-35016600D01*
G37*
X178283628Y-35016600D02*
X177260194Y-36038249D01*
X176705632Y-37373782D01*
X176704370Y-38819874D01*
X177256600Y-40156372D01*
X178278249Y-41179806D01*
X179613782Y-41734368D01*
X181059874Y-41735630D01*
X182396372Y-41183400D01*
X183419806Y-40161751D01*
X183440000Y-40113118D01*
X183440000Y-62009987D01*
X183425862Y-61975771D01*
X183001463Y-61550630D01*
X182446675Y-61320262D01*
X181845960Y-61319738D01*
X181340045Y-61528778D01*
X181340292Y-61246303D01*
X181084306Y-60626771D01*
X180610722Y-60152360D01*
X179991638Y-59895293D01*
X179321303Y-59894708D01*
X178701771Y-60150694D01*
X178227360Y-60624278D01*
X177970293Y-61243362D01*
X177969708Y-61913697D01*
X178225694Y-62533229D01*
X178699278Y-63007640D01*
X179318362Y-63264707D01*
X179988697Y-63265292D01*
X180608229Y-63009306D01*
X180634866Y-62982716D01*
X180634738Y-63129040D01*
X180864138Y-63684229D01*
X181288537Y-64109370D01*
X181843325Y-64339738D01*
X182444040Y-64340262D01*
X182999229Y-64110862D01*
X183424370Y-63686463D01*
X183440000Y-63648822D01*
X183440000Y-66509987D01*
X183425862Y-66475771D01*
X183001463Y-66050630D01*
X182446675Y-65820262D01*
X181845960Y-65819738D01*
X181290771Y-66049138D01*
X180865630Y-66473537D01*
X180635262Y-67028325D01*
X180635124Y-67186804D01*
X180610722Y-67162360D01*
X179991638Y-66905293D01*
X179321303Y-66904708D01*
X178701771Y-67160694D01*
X178227360Y-67634278D01*
X177970293Y-68253362D01*
X177969708Y-68923697D01*
X178225694Y-69543229D01*
X178699278Y-70017640D01*
X179054268Y-70165045D01*
X178701771Y-70310694D01*
X178227360Y-70784278D01*
X177970293Y-71403362D01*
X177969708Y-72073697D01*
X178225694Y-72693229D01*
X178699278Y-73167640D01*
X179318362Y-73424707D01*
X179988697Y-73425292D01*
X180608229Y-73169306D01*
X180634866Y-73142716D01*
X180634738Y-73289040D01*
X180864138Y-73844229D01*
X181288537Y-74269370D01*
X181843325Y-74499738D01*
X182444040Y-74500262D01*
X182540573Y-74460375D01*
X182585400Y-74505202D01*
X182585400Y-76037866D01*
X182446675Y-75980262D01*
X181845960Y-75979738D01*
X181290771Y-76209138D01*
X180865630Y-76633537D01*
X180635262Y-77188325D01*
X180635124Y-77346804D01*
X180610722Y-77322360D01*
X179991638Y-77065293D01*
X179321303Y-77064708D01*
X178701771Y-77320694D01*
X178227360Y-77794278D01*
X177970293Y-78413362D01*
X177969708Y-79083697D01*
X178225694Y-79703229D01*
X178699278Y-80177640D01*
X179054268Y-80325045D01*
X178701771Y-80470694D01*
X178227360Y-80944278D01*
X177970293Y-81563362D01*
X177969708Y-82233697D01*
X178225694Y-82853229D01*
X178699278Y-83327640D01*
X179318362Y-83584707D01*
X179988697Y-83585292D01*
X180608229Y-83329306D01*
X180634866Y-83302716D01*
X180634738Y-83449040D01*
X180864138Y-84004229D01*
X181288537Y-84429370D01*
X181843325Y-84659738D01*
X182444040Y-84660262D01*
X182999229Y-84430862D01*
X183424370Y-84006463D01*
X183440000Y-83968822D01*
X183440000Y-86829987D01*
X183425862Y-86795771D01*
X183001463Y-86370630D01*
X182446675Y-86140262D01*
X181845960Y-86139738D01*
X181290771Y-86369138D01*
X180865630Y-86793537D01*
X180635262Y-87348325D01*
X180635124Y-87506804D01*
X180610722Y-87482360D01*
X179991638Y-87225293D01*
X179321303Y-87224708D01*
X178701771Y-87480694D01*
X178227360Y-87954278D01*
X177970293Y-88573362D01*
X177969708Y-89243697D01*
X178225694Y-89863229D01*
X178699278Y-90337640D01*
X179080002Y-90495731D01*
X178801771Y-90610694D01*
X178327360Y-91084278D01*
X178070293Y-91703362D01*
X178069708Y-92373697D01*
X178325694Y-92993229D01*
X178799278Y-93467640D01*
X179418362Y-93724707D01*
X180088697Y-93725292D01*
X180708229Y-93469306D01*
X180734866Y-93442716D01*
X180734738Y-93589040D01*
X180964138Y-94144229D01*
X181388537Y-94569370D01*
X181943325Y-94799738D01*
X182544040Y-94800262D01*
X183099229Y-94570862D01*
X183440000Y-94230686D01*
X183440000Y-96849759D01*
X183101463Y-96510630D01*
X182546675Y-96280262D01*
X181945960Y-96279738D01*
X181390771Y-96509138D01*
X180965630Y-96933537D01*
X180735262Y-97488325D01*
X180735124Y-97646804D01*
X180710722Y-97622360D01*
X180091638Y-97365293D01*
X179421303Y-97364708D01*
X178801771Y-97620694D01*
X178327360Y-98094278D01*
X178070293Y-98713362D01*
X178069708Y-99383697D01*
X178325694Y-100003229D01*
X178799278Y-100477640D01*
X179240954Y-100661041D01*
X178283628Y-101056600D01*
X177260194Y-102078249D01*
X176705632Y-103413782D01*
X176704370Y-104859874D01*
X177256600Y-106196372D01*
X178278249Y-107219806D01*
X178326882Y-107240000D01*
X106156197Y-107240000D01*
X106196372Y-107223400D01*
X107219806Y-106201751D01*
X107774368Y-104866218D01*
X107774576Y-104627177D01*
X110569574Y-104627177D01*
X110943298Y-105531657D01*
X111634703Y-106224270D01*
X112538529Y-106599572D01*
X113517177Y-106600426D01*
X114421657Y-106226702D01*
X115114270Y-105535297D01*
X115489572Y-104631471D01*
X115489575Y-104627177D01*
X121999574Y-104627177D01*
X122373298Y-105531657D01*
X123064703Y-106224270D01*
X123968529Y-106599572D01*
X124947177Y-106600426D01*
X125851657Y-106226702D01*
X126544270Y-105535297D01*
X126919572Y-104631471D01*
X126919575Y-104627177D01*
X128349574Y-104627177D01*
X128723298Y-105531657D01*
X129414703Y-106224270D01*
X130318529Y-106599572D01*
X131297177Y-106600426D01*
X132201657Y-106226702D01*
X132894270Y-105535297D01*
X133269572Y-104631471D01*
X133270426Y-103652823D01*
X132896702Y-102748343D01*
X132205297Y-102055730D01*
X131301471Y-101680428D01*
X130322823Y-101679574D01*
X129418343Y-102053298D01*
X128725730Y-102744703D01*
X128350428Y-103648529D01*
X128349574Y-104627177D01*
X126919575Y-104627177D01*
X126920426Y-103652823D01*
X126546702Y-102748343D01*
X125855297Y-102055730D01*
X124951471Y-101680428D01*
X123972823Y-101679574D01*
X123068343Y-102053298D01*
X122375730Y-102744703D01*
X122000428Y-103648529D01*
X121999574Y-104627177D01*
X115489575Y-104627177D01*
X115490426Y-103652823D01*
X115116702Y-102748343D01*
X114425297Y-102055730D01*
X113521471Y-101680428D01*
X112542823Y-101679574D01*
X111638343Y-102053298D01*
X110945730Y-102744703D01*
X110570428Y-103648529D01*
X110569574Y-104627177D01*
X107774576Y-104627177D01*
X107775630Y-103420126D01*
X107223400Y-102083628D01*
X106201751Y-101060194D01*
X104866218Y-100505632D01*
X103420126Y-100504370D01*
X102083628Y-101056600D01*
X101060194Y-102078249D01*
X101040000Y-102126882D01*
X101040000Y-97825950D01*
X102205000Y-97825950D01*
X102205000Y-98666509D01*
X102301673Y-98899898D01*
X102480301Y-99078527D01*
X102713690Y-99175200D01*
X103854250Y-99175200D01*
X104013000Y-99016450D01*
X104013000Y-97667200D01*
X104267000Y-97667200D01*
X104267000Y-99016450D01*
X104425750Y-99175200D01*
X105566310Y-99175200D01*
X105799699Y-99078527D01*
X105978327Y-98899898D01*
X106075000Y-98666509D01*
X106075000Y-98075750D01*
X112915000Y-98075750D01*
X112915000Y-98666310D01*
X113011673Y-98899699D01*
X113190302Y-99078327D01*
X113423691Y-99175000D01*
X114014250Y-99175000D01*
X114173000Y-99016250D01*
X114173000Y-97917000D01*
X113073750Y-97917000D01*
X112915000Y-98075750D01*
X106075000Y-98075750D01*
X106075000Y-97825950D01*
X105916250Y-97667200D01*
X104267000Y-97667200D01*
X104013000Y-97667200D01*
X102363750Y-97667200D01*
X102205000Y-97825950D01*
X101040000Y-97825950D01*
X101040000Y-88725332D01*
X102178336Y-89863668D01*
X102167091Y-89920200D01*
X102291548Y-90545887D01*
X102645971Y-91076320D01*
X102816405Y-91190200D01*
X102645971Y-91304080D01*
X102291548Y-91834513D01*
X102167091Y-92460200D01*
X102291548Y-93085887D01*
X102645971Y-93616320D01*
X102816405Y-93730200D01*
X102645971Y-93844080D01*
X102291548Y-94374513D01*
X102167091Y-95000200D01*
X102291548Y-95625887D01*
X102529231Y-95981606D01*
X102480301Y-96001873D01*
X102301673Y-96180502D01*
X102205000Y-96413891D01*
X102205000Y-97254450D01*
X102363750Y-97413200D01*
X104013000Y-97413200D01*
X104013000Y-97393200D01*
X104267000Y-97393200D01*
X104267000Y-97413200D01*
X105916250Y-97413200D01*
X106075000Y-97254450D01*
X106075000Y-96913690D01*
X112915000Y-96913690D01*
X112915000Y-97504250D01*
X113073750Y-97663000D01*
X114173000Y-97663000D01*
X114173000Y-96563750D01*
X114014250Y-96405000D01*
X113423691Y-96405000D01*
X113190302Y-96501673D01*
X113011673Y-96680301D01*
X112915000Y-96913690D01*
X106075000Y-96913690D01*
X106075000Y-96413891D01*
X105978327Y-96180502D01*
X105799699Y-96001873D01*
X105750769Y-95981606D01*
X105988452Y-95625887D01*
X106112909Y-95000200D01*
X105988452Y-94374513D01*
X105634029Y-93844080D01*
X105463595Y-93730200D01*
X105634029Y-93616320D01*
X105988452Y-93085887D01*
X106112909Y-92460200D01*
X105988452Y-91834513D01*
X105634029Y-91304080D01*
X105463595Y-91190200D01*
X105634029Y-91076320D01*
X105988452Y-90545887D01*
X106112909Y-89920200D01*
X105988452Y-89294513D01*
X105634029Y-88764080D01*
X105103596Y-88409657D01*
X104477909Y-88285200D01*
X103810132Y-88285200D01*
X102975000Y-87450068D01*
X102975000Y-86725000D01*
X103854250Y-86725000D01*
X104013000Y-86566250D01*
X104013000Y-85217000D01*
X104267000Y-85217000D01*
X104267000Y-86566250D01*
X104425750Y-86725000D01*
X105566310Y-86725000D01*
X105799699Y-86628327D01*
X105978327Y-86449698D01*
X106075000Y-86216309D01*
X106075000Y-85375750D01*
X105916250Y-85217000D01*
X104267000Y-85217000D01*
X104013000Y-85217000D01*
X103993000Y-85217000D01*
X103993000Y-84963000D01*
X104013000Y-84963000D01*
X104013000Y-84943000D01*
X104267000Y-84943000D01*
X104267000Y-84963000D01*
X105916250Y-84963000D01*
X106075000Y-84804250D01*
X106075000Y-83963691D01*
X105978327Y-83730302D01*
X105799699Y-83551673D01*
X105750769Y-83531406D01*
X105988452Y-83175687D01*
X106112909Y-82550000D01*
X105988452Y-81924313D01*
X105634029Y-81393880D01*
X105463595Y-81280000D01*
X105634029Y-81166120D01*
X105988452Y-80635687D01*
X106112909Y-80010000D01*
X105988452Y-79384313D01*
X105634029Y-78853880D01*
X105463595Y-78740000D01*
X105634029Y-78626120D01*
X105988452Y-78095687D01*
X106112909Y-77470000D01*
X105988452Y-76844313D01*
X105634029Y-76313880D01*
X105103596Y-75959457D01*
X104477909Y-75835000D01*
X103810132Y-75835000D01*
X102975000Y-74999868D01*
X102975000Y-74025000D01*
X103854250Y-74025000D01*
X104013000Y-73866250D01*
X104013000Y-72517000D01*
X104267000Y-72517000D01*
X104267000Y-73866250D01*
X104425750Y-74025000D01*
X105566310Y-74025000D01*
X105799699Y-73928327D01*
X105978327Y-73749698D01*
X106075000Y-73516309D01*
X106075000Y-72675750D01*
X105916250Y-72517000D01*
X104267000Y-72517000D01*
X104013000Y-72517000D01*
X103993000Y-72517000D01*
X103993000Y-72263000D01*
X104013000Y-72263000D01*
X104013000Y-72243000D01*
X104267000Y-72243000D01*
X104267000Y-72263000D01*
X105916250Y-72263000D01*
X106075000Y-72104250D01*
X106075000Y-71263691D01*
X105978327Y-71030302D01*
X105799699Y-70851673D01*
X105750769Y-70831406D01*
X105988452Y-70475687D01*
X106112909Y-69850000D01*
X105988452Y-69224313D01*
X105634029Y-68693880D01*
X105463595Y-68580000D01*
X105634029Y-68466120D01*
X105988452Y-67935687D01*
X106112909Y-67310000D01*
X105988452Y-66684313D01*
X105634029Y-66153880D01*
X105463595Y-66040000D01*
X105634029Y-65926120D01*
X105648141Y-65905000D01*
X121114868Y-65905000D01*
X134255000Y-79045132D01*
X134255000Y-79712909D01*
X134379457Y-80338596D01*
X134733880Y-80869029D01*
X135160604Y-81154156D01*
X135187852Y-81291139D01*
X135352599Y-81537701D01*
X135599161Y-81702448D01*
X135890000Y-81760300D01*
X136154198Y-81760300D01*
X139585016Y-85191118D01*
X139546799Y-85247050D01*
X139495790Y-85498940D01*
X139495790Y-86715200D01*
X139353799Y-86715200D01*
X139269090Y-86583559D01*
X139056890Y-86438569D01*
X138805000Y-86387560D01*
X138055000Y-86387560D01*
X137819683Y-86431838D01*
X137603559Y-86570910D01*
X137458569Y-86783110D01*
X137407560Y-87035000D01*
X137407560Y-87800300D01*
X136830402Y-87800300D01*
X136752701Y-87722599D01*
X136506139Y-87557852D01*
X136496209Y-87555877D01*
X136493162Y-87539683D01*
X136354090Y-87323559D01*
X136141890Y-87178569D01*
X135890000Y-87127560D01*
X134620000Y-87127560D01*
X134384683Y-87171838D01*
X134168559Y-87310910D01*
X134039359Y-87500000D01*
X126039900Y-87500000D01*
X125749060Y-87557852D01*
X125502499Y-87722599D01*
X124048520Y-89176578D01*
X124003033Y-89176538D01*
X123659257Y-89318583D01*
X123626082Y-89351700D01*
X120347600Y-89351700D01*
X120056761Y-89409552D01*
X119810199Y-89574299D01*
X115519543Y-93864955D01*
X115295715Y-93864760D01*
X114786485Y-94075169D01*
X114396539Y-94464436D01*
X114185241Y-94973298D01*
X114184760Y-95524285D01*
X114395169Y-96033515D01*
X114766007Y-96405000D01*
X114585750Y-96405000D01*
X114427000Y-96563750D01*
X114427000Y-97663000D01*
X114447000Y-97663000D01*
X114447000Y-97917000D01*
X114427000Y-97917000D01*
X114427000Y-99016250D01*
X114585750Y-99175000D01*
X115176309Y-99175000D01*
X115409698Y-99078327D01*
X115588327Y-98899699D01*
X115645563Y-98761517D01*
X116048088Y-98761517D01*
X116116077Y-99002460D01*
X116635171Y-99187201D01*
X117185448Y-99159230D01*
X117563923Y-99002460D01*
X117631912Y-98761517D01*
X118588088Y-98761517D01*
X118656077Y-99002460D01*
X119175171Y-99187201D01*
X119725448Y-99159230D01*
X120103923Y-99002460D01*
X120171912Y-98761517D01*
X121128088Y-98761517D01*
X121196077Y-99002460D01*
X121715171Y-99187201D01*
X122265448Y-99159230D01*
X122643923Y-99002460D01*
X122711912Y-98761517D01*
X121920000Y-97969605D01*
X121128088Y-98761517D01*
X120171912Y-98761517D01*
X119380000Y-97969605D01*
X118588088Y-98761517D01*
X117631912Y-98761517D01*
X116840000Y-97969605D01*
X116048088Y-98761517D01*
X115645563Y-98761517D01*
X115685000Y-98666310D01*
X115685000Y-98530137D01*
X115868483Y-98581912D01*
X116660395Y-97790000D01*
X117019605Y-97790000D01*
X117811517Y-98581912D01*
X118052460Y-98513923D01*
X118105642Y-98364489D01*
X118167540Y-98513923D01*
X118408483Y-98581912D01*
X119200395Y-97790000D01*
X119559605Y-97790000D01*
X120351517Y-98581912D01*
X120592460Y-98513923D01*
X120645642Y-98364489D01*
X120707540Y-98513923D01*
X120948483Y-98581912D01*
X121740395Y-97790000D01*
X122099605Y-97790000D01*
X122891517Y-98581912D01*
X123132460Y-98513923D01*
X123288401Y-98075750D01*
X130695000Y-98075750D01*
X130695000Y-98666310D01*
X130791673Y-98899699D01*
X130970302Y-99078327D01*
X131203691Y-99175000D01*
X131794250Y-99175000D01*
X131953000Y-99016250D01*
X131953000Y-97917000D01*
X130853750Y-97917000D01*
X130695000Y-98075750D01*
X123288401Y-98075750D01*
X123317201Y-97994829D01*
X123289230Y-97444552D01*
X123132460Y-97066077D01*
X122891517Y-96998088D01*
X122099605Y-97790000D01*
X121740395Y-97790000D01*
X120948483Y-96998088D01*
X120707540Y-97066077D01*
X120654358Y-97215511D01*
X120592460Y-97066077D01*
X120351517Y-96998088D01*
X119559605Y-97790000D01*
X119200395Y-97790000D01*
X118408483Y-96998088D01*
X118167540Y-97066077D01*
X118114358Y-97215511D01*
X118052460Y-97066077D01*
X117811517Y-96998088D01*
X117019605Y-97790000D01*
X116660395Y-97790000D01*
X115868483Y-96998088D01*
X115685000Y-97049863D01*
X115685000Y-96913690D01*
X115645564Y-96818483D01*
X116048088Y-96818483D01*
X116840000Y-97610395D01*
X117631912Y-96818483D01*
X118588088Y-96818483D01*
X119380000Y-97610395D01*
X120171912Y-96818483D01*
X121128088Y-96818483D01*
X121920000Y-97610395D01*
X122616705Y-96913690D01*
X130695000Y-96913690D01*
X130695000Y-97504250D01*
X130853750Y-97663000D01*
X131953000Y-97663000D01*
X131953000Y-96563750D01*
X131794250Y-96405000D01*
X131203691Y-96405000D01*
X130970302Y-96501673D01*
X130791673Y-96680301D01*
X130695000Y-96913690D01*
X122616705Y-96913690D01*
X122711912Y-96818483D01*
X122643923Y-96577540D01*
X122124829Y-96392799D01*
X121574552Y-96420770D01*
X121196077Y-96577540D01*
X121128088Y-96818483D01*
X120171912Y-96818483D01*
X120103923Y-96577540D01*
X119584829Y-96392799D01*
X119034552Y-96420770D01*
X118656077Y-96577540D01*
X118588088Y-96818483D01*
X117631912Y-96818483D01*
X117563923Y-96577540D01*
X117044829Y-96392799D01*
X116494552Y-96420770D01*
X116116077Y-96577540D01*
X116048088Y-96818483D01*
X115645564Y-96818483D01*
X115588327Y-96680301D01*
X115543003Y-96634977D01*
X115844285Y-96635240D01*
X116353515Y-96424831D01*
X116743461Y-96035564D01*
X116839976Y-95803130D01*
X116935169Y-96033515D01*
X117324436Y-96423461D01*
X117833298Y-96634759D01*
X118384285Y-96635240D01*
X118893515Y-96424831D01*
X119283461Y-96035564D01*
X119379976Y-95803130D01*
X119475169Y-96033515D01*
X119864436Y-96423461D01*
X120373298Y-96634759D01*
X120924285Y-96635240D01*
X121433515Y-96424831D01*
X121823461Y-96035564D01*
X121919976Y-95803130D01*
X122015169Y-96033515D01*
X122404436Y-96423461D01*
X122913298Y-96634759D01*
X123464285Y-96635240D01*
X123973515Y-96424831D01*
X124363461Y-96035564D01*
X124574759Y-95526702D01*
X124575240Y-94975715D01*
X124364831Y-94466485D01*
X124168389Y-94269700D01*
X131294898Y-94269700D01*
X131974998Y-94949800D01*
X131965241Y-94973298D01*
X131964760Y-95524285D01*
X132175169Y-96033515D01*
X132546007Y-96405000D01*
X132365750Y-96405000D01*
X132207000Y-96563750D01*
X132207000Y-97663000D01*
X132227000Y-97663000D01*
X132227000Y-97917000D01*
X132207000Y-97917000D01*
X132207000Y-99016250D01*
X132365750Y-99175000D01*
X132956309Y-99175000D01*
X133189698Y-99078327D01*
X133368327Y-98899699D01*
X133425563Y-98761517D01*
X133828088Y-98761517D01*
X133896077Y-99002460D01*
X134415171Y-99187201D01*
X134965448Y-99159230D01*
X135343923Y-99002460D01*
X135411912Y-98761517D01*
X136368088Y-98761517D01*
X136436077Y-99002460D01*
X136955171Y-99187201D01*
X137505448Y-99159230D01*
X137883923Y-99002460D01*
X137951912Y-98761517D01*
X138908088Y-98761517D01*
X138976077Y-99002460D01*
X139495171Y-99187201D01*
X140045448Y-99159230D01*
X140423923Y-99002460D01*
X140491912Y-98761517D01*
X139700000Y-97969605D01*
X138908088Y-98761517D01*
X137951912Y-98761517D01*
X137160000Y-97969605D01*
X136368088Y-98761517D01*
X135411912Y-98761517D01*
X134620000Y-97969605D01*
X133828088Y-98761517D01*
X133425563Y-98761517D01*
X133465000Y-98666310D01*
X133465000Y-98530137D01*
X133648483Y-98581912D01*
X134440395Y-97790000D01*
X134799605Y-97790000D01*
X135591517Y-98581912D01*
X135832460Y-98513923D01*
X135885642Y-98364489D01*
X135947540Y-98513923D01*
X136188483Y-98581912D01*
X136980395Y-97790000D01*
X137339605Y-97790000D01*
X138131517Y-98581912D01*
X138372460Y-98513923D01*
X138425642Y-98364489D01*
X138487540Y-98513923D01*
X138728483Y-98581912D01*
X139520395Y-97790000D01*
X139879605Y-97790000D01*
X140671517Y-98581912D01*
X140912460Y-98513923D01*
X141097201Y-97994829D01*
X141069230Y-97444552D01*
X140912460Y-97066077D01*
X140671517Y-96998088D01*
X139879605Y-97790000D01*
X139520395Y-97790000D01*
X138728483Y-96998088D01*
X138487540Y-97066077D01*
X138434358Y-97215511D01*
X138372460Y-97066077D01*
X138131517Y-96998088D01*
X137339605Y-97790000D01*
X136980395Y-97790000D01*
X136188483Y-96998088D01*
X135947540Y-97066077D01*
X135894358Y-97215511D01*
X135832460Y-97066077D01*
X135591517Y-96998088D01*
X134799605Y-97790000D01*
X134440395Y-97790000D01*
X133648483Y-96998088D01*
X133465000Y-97049863D01*
X133465000Y-96913690D01*
X133425564Y-96818483D01*
X133828088Y-96818483D01*
X134620000Y-97610395D01*
X135411912Y-96818483D01*
X136368088Y-96818483D01*
X137160000Y-97610395D01*
X137951912Y-96818483D01*
X138908088Y-96818483D01*
X139700000Y-97610395D01*
X140491912Y-96818483D01*
X140423923Y-96577540D01*
X139904829Y-96392799D01*
X139354552Y-96420770D01*
X138976077Y-96577540D01*
X138908088Y-96818483D01*
X137951912Y-96818483D01*
X137883923Y-96577540D01*
X137364829Y-96392799D01*
X136814552Y-96420770D01*
X136436077Y-96577540D01*
X136368088Y-96818483D01*
X135411912Y-96818483D01*
X135343923Y-96577540D01*
X134824829Y-96392799D01*
X134274552Y-96420770D01*
X133896077Y-96577540D01*
X133828088Y-96818483D01*
X133425564Y-96818483D01*
X133368327Y-96680301D01*
X133323003Y-96634977D01*
X133624285Y-96635240D01*
X134133515Y-96424831D01*
X134523461Y-96035564D01*
X134619976Y-95803130D01*
X134715169Y-96033515D01*
X135104436Y-96423461D01*
X135613298Y-96634759D01*
X136164285Y-96635240D01*
X136673515Y-96424831D01*
X137063461Y-96035564D01*
X137159976Y-95803130D01*
X137255169Y-96033515D01*
X137644436Y-96423461D01*
X138153298Y-96634759D01*
X138704285Y-96635240D01*
X139213515Y-96424831D01*
X139603461Y-96035564D01*
X139699976Y-95803130D01*
X139795169Y-96033515D01*
X140184436Y-96423461D01*
X140693298Y-96634759D01*
X141244285Y-96635240D01*
X141753515Y-96424831D01*
X142143461Y-96035564D01*
X142354759Y-95526702D01*
X142355240Y-94975715D01*
X142144831Y-94466485D01*
X141755564Y-94076539D01*
X141246702Y-93865241D01*
X140695715Y-93864760D01*
X140670132Y-93875330D01*
X138045802Y-91251000D01*
X139495790Y-91251000D01*
X139495790Y-92301060D01*
X139540068Y-92536377D01*
X139679140Y-92752501D01*
X139891340Y-92897491D01*
X140143230Y-92948500D01*
X141141450Y-92948500D01*
X141376767Y-92904222D01*
X141592891Y-92765150D01*
X141737881Y-92552950D01*
X141788890Y-92301060D01*
X141788890Y-91761310D01*
X142703550Y-91761310D01*
X142703550Y-92427369D01*
X142800223Y-92660758D01*
X142978851Y-92839387D01*
X143212240Y-92936060D01*
X143551910Y-92936060D01*
X143710660Y-92777310D01*
X143710660Y-91602560D01*
X142862300Y-91602560D01*
X142703550Y-91761310D01*
X141788890Y-91761310D01*
X141788890Y-90650060D01*
X141744612Y-90414743D01*
X141605540Y-90198619D01*
X141393340Y-90053629D01*
X141346472Y-90044138D01*
X141344448Y-90033961D01*
X141179701Y-89787399D01*
X140933139Y-89622652D01*
X140642300Y-89564800D01*
X139817900Y-89564800D01*
X139527060Y-89622652D01*
X139364906Y-89731000D01*
X139350250Y-89731000D01*
X139281250Y-89662000D01*
X138557000Y-89662000D01*
X138557000Y-89682000D01*
X138303000Y-89682000D01*
X138303000Y-89662000D01*
X137578750Y-89662000D01*
X137509750Y-89731000D01*
X136537440Y-89731000D01*
X136537440Y-89320300D01*
X137491050Y-89320300D01*
X137578750Y-89408000D01*
X138303000Y-89408000D01*
X138303000Y-89388000D01*
X138557000Y-89388000D01*
X138557000Y-89408000D01*
X139281250Y-89408000D01*
X139368950Y-89320300D01*
X142395498Y-89320300D01*
X143125986Y-90050788D01*
X142978851Y-90111733D01*
X142800223Y-90290362D01*
X142703550Y-90523751D01*
X142703550Y-91189810D01*
X142862300Y-91348560D01*
X143710660Y-91348560D01*
X143710660Y-91328560D01*
X143964660Y-91328560D01*
X143964660Y-91348560D01*
X143984660Y-91348560D01*
X143984660Y-91602560D01*
X143964660Y-91602560D01*
X143964660Y-92777310D01*
X144123410Y-92936060D01*
X144453400Y-92936060D01*
X144453400Y-103054975D01*
X144326702Y-102748343D01*
X143635297Y-102055730D01*
X142731471Y-101680428D01*
X141752823Y-101679574D01*
X140848343Y-102053298D01*
X140155730Y-102744703D01*
X139780428Y-103648529D01*
X139779574Y-104627177D01*
X140153298Y-105531657D01*
X140844703Y-106224270D01*
X141748529Y-106599572D01*
X142727177Y-106600426D01*
X143631657Y-106226702D01*
X144324270Y-105535297D01*
X144650195Y-104750383D01*
X144675999Y-104789001D01*
X146260799Y-106373801D01*
X146507361Y-106538548D01*
X146798200Y-106596400D01*
X150703600Y-106596400D01*
X150994439Y-106538548D01*
X151241001Y-106373801D01*
X151685616Y-105929186D01*
X151774313Y-105988452D01*
X152400000Y-106112909D01*
X153025687Y-105988452D01*
X153381406Y-105750769D01*
X153401673Y-105799699D01*
X153580302Y-105978327D01*
X153813691Y-106075000D01*
X154654250Y-106075000D01*
X154813000Y-105916250D01*
X154813000Y-104267000D01*
X155067000Y-104267000D01*
X155067000Y-105916250D01*
X155225750Y-106075000D01*
X156066309Y-106075000D01*
X156299698Y-105978327D01*
X156478327Y-105799699D01*
X156575000Y-105566310D01*
X156575000Y-104425750D01*
X156416250Y-104267000D01*
X155067000Y-104267000D01*
X154813000Y-104267000D01*
X154793000Y-104267000D01*
X154793000Y-104013000D01*
X154813000Y-104013000D01*
X154813000Y-102363750D01*
X155067000Y-102363750D01*
X155067000Y-104013000D01*
X156416250Y-104013000D01*
X156575000Y-103854250D01*
X156575000Y-102713690D01*
X156478327Y-102480301D01*
X156299698Y-102301673D01*
X156066309Y-102205000D01*
X155225750Y-102205000D01*
X155067000Y-102363750D01*
X154813000Y-102363750D01*
X154654250Y-102205000D01*
X153813691Y-102205000D01*
X153580302Y-102301673D01*
X153401673Y-102480301D01*
X153381406Y-102529231D01*
X153025687Y-102291548D01*
X152400000Y-102167091D01*
X151774313Y-102291548D01*
X151243880Y-102645971D01*
X151130000Y-102816405D01*
X151016120Y-102645971D01*
X150995000Y-102631859D01*
X150995000Y-102310132D01*
X154402566Y-98902566D01*
X154560427Y-98666310D01*
X154648603Y-98534346D01*
X154735000Y-98100000D01*
X154735000Y-97041834D01*
X165004543Y-97041834D01*
X165404853Y-98010658D01*
X166145443Y-98752542D01*
X167113567Y-99154542D01*
X168161834Y-99155457D01*
X169130658Y-98755147D01*
X169872542Y-98014557D01*
X170274542Y-97046433D01*
X170275457Y-95998166D01*
X169875147Y-95029342D01*
X169134557Y-94287458D01*
X168166433Y-93885458D01*
X167118166Y-93884543D01*
X166149342Y-94284853D01*
X165407458Y-95025443D01*
X165005458Y-95993567D01*
X165004543Y-97041834D01*
X154735000Y-97041834D01*
X154735000Y-72680132D01*
X158141576Y-69273556D01*
X158181930Y-69213162D01*
X158387613Y-68905336D01*
X158474010Y-68470990D01*
X158474010Y-58211110D01*
X158387613Y-57776764D01*
X158141576Y-57408543D01*
X156840472Y-56107440D01*
X158330000Y-56107440D01*
X158565317Y-56063162D01*
X158781441Y-55924090D01*
X158926431Y-55711890D01*
X158977440Y-55460000D01*
X158977440Y-54253742D01*
X159880000Y-55156302D01*
X159880000Y-66593154D01*
X159771629Y-66637932D01*
X159339449Y-67069357D01*
X159105267Y-67633330D01*
X159104735Y-68243991D01*
X159150485Y-68354713D01*
X158843499Y-68661699D01*
X158678752Y-68908261D01*
X158620900Y-69199100D01*
X158620900Y-88360900D01*
X158678752Y-88651739D01*
X158843499Y-88898301D01*
X159150234Y-89205036D01*
X159105267Y-89313330D01*
X159104735Y-89923991D01*
X159337932Y-90488371D01*
X159719182Y-90870288D01*
X159339449Y-91249357D01*
X159105267Y-91813330D01*
X159104735Y-92423991D01*
X159337932Y-92988371D01*
X159719182Y-93370288D01*
X159339449Y-93749357D01*
X159105267Y-94313330D01*
X159104735Y-94923991D01*
X159337932Y-95488371D01*
X159769357Y-95920551D01*
X160333330Y-96154733D01*
X160943991Y-96155265D01*
X161508371Y-95922068D01*
X161940551Y-95490643D01*
X162174733Y-94926670D01*
X162175265Y-94316009D01*
X162129515Y-94205287D01*
X162402801Y-93932001D01*
X162567548Y-93685440D01*
X162625400Y-93394600D01*
X162625400Y-88241834D01*
X165004543Y-88241834D01*
X165404853Y-89210658D01*
X166145443Y-89952542D01*
X167113567Y-90354542D01*
X168161834Y-90355457D01*
X169130658Y-89955147D01*
X169872542Y-89214557D01*
X170274542Y-88246433D01*
X170275457Y-87198166D01*
X169875147Y-86229342D01*
X169134557Y-85487458D01*
X168166433Y-85085458D01*
X167118166Y-85084543D01*
X166149342Y-85484853D01*
X165407458Y-86225443D01*
X165005458Y-87193567D01*
X165004543Y-88241834D01*
X162625400Y-88241834D01*
X162625400Y-81848700D01*
X162607790Y-81760167D01*
X162567548Y-81557860D01*
X162526769Y-81496830D01*
X162526862Y-81389833D01*
X162384817Y-81046057D01*
X162351700Y-81012882D01*
X162351700Y-75361834D01*
X165004543Y-75361834D01*
X165404853Y-76330658D01*
X166145443Y-77072542D01*
X167113567Y-77474542D01*
X168161834Y-77475457D01*
X169130658Y-77075147D01*
X169872542Y-76334557D01*
X170274542Y-75366433D01*
X170275457Y-74318166D01*
X169875147Y-73349342D01*
X169134557Y-72607458D01*
X168166433Y-72205458D01*
X167118166Y-72204543D01*
X166149342Y-72604853D01*
X165407458Y-73345443D01*
X165005458Y-74313567D01*
X165004543Y-75361834D01*
X162351700Y-75361834D01*
X162351700Y-73891700D01*
X162293848Y-73600861D01*
X162129681Y-73355167D01*
X162174733Y-73246670D01*
X162175265Y-72636009D01*
X162129515Y-72525287D01*
X162452001Y-72202801D01*
X162616748Y-71956239D01*
X162674600Y-71665400D01*
X162674600Y-66561834D01*
X165004543Y-66561834D01*
X165404853Y-67530658D01*
X166145443Y-68272542D01*
X167113567Y-68674542D01*
X168161834Y-68675457D01*
X169130658Y-68275147D01*
X169872542Y-67534557D01*
X170274542Y-66566433D01*
X170275457Y-65518166D01*
X169875147Y-64549342D01*
X169134557Y-63807458D01*
X168166433Y-63405458D01*
X167118166Y-63404543D01*
X166149342Y-63804853D01*
X165407458Y-64545443D01*
X165005458Y-65513567D01*
X165004543Y-66561834D01*
X162674600Y-66561834D01*
X162674600Y-59427745D01*
X164271861Y-59427745D01*
X164345995Y-59673864D01*
X164883223Y-59866965D01*
X165453454Y-59839778D01*
X165854005Y-59673864D01*
X165928139Y-59427745D01*
X165100000Y-58599605D01*
X164271861Y-59427745D01*
X162674600Y-59427745D01*
X162674600Y-58203223D01*
X163653035Y-58203223D01*
X163680222Y-58773454D01*
X163846136Y-59174005D01*
X164092255Y-59248139D01*
X164920395Y-58420000D01*
X165279605Y-58420000D01*
X166107745Y-59248139D01*
X166353864Y-59174005D01*
X166546965Y-58636777D01*
X166519778Y-58066546D01*
X166353864Y-57665995D01*
X166107745Y-57591861D01*
X165279605Y-58420000D01*
X164920395Y-58420000D01*
X164092255Y-57591861D01*
X163846136Y-57665995D01*
X163653035Y-58203223D01*
X162674600Y-58203223D01*
X162674600Y-55120000D01*
X163652560Y-55120000D01*
X163652560Y-56720000D01*
X163696838Y-56955317D01*
X163835910Y-57171441D01*
X164048110Y-57316431D01*
X164286201Y-57364646D01*
X164271861Y-57412255D01*
X165100000Y-58240395D01*
X165928139Y-57412255D01*
X165913855Y-57364833D01*
X166135317Y-57323162D01*
X166351441Y-57184090D01*
X166496431Y-56971890D01*
X166547440Y-56720000D01*
X166547440Y-55120000D01*
X166503162Y-54884683D01*
X166364090Y-54668559D01*
X166151890Y-54523569D01*
X165900000Y-54472560D01*
X164300000Y-54472560D01*
X164064683Y-54516838D01*
X163848559Y-54655910D01*
X163703569Y-54868110D01*
X163652560Y-55120000D01*
X162674600Y-55120000D01*
X162674600Y-53568700D01*
X162616748Y-53277861D01*
X162534850Y-53155292D01*
X162452001Y-53031298D01*
X156880703Y-47460000D01*
X175122560Y-47460000D01*
X175122560Y-49060000D01*
X175166838Y-49295317D01*
X175305910Y-49511441D01*
X175518110Y-49656431D01*
X175770000Y-49707440D01*
X177370000Y-49707440D01*
X177605317Y-49663162D01*
X177821441Y-49524090D01*
X177966431Y-49311890D01*
X177975370Y-49267745D01*
X178241861Y-49267745D01*
X178315995Y-49513864D01*
X178853223Y-49706965D01*
X179423454Y-49679778D01*
X179824005Y-49513864D01*
X179898139Y-49267745D01*
X179070000Y-48439605D01*
X178241861Y-49267745D01*
X177975370Y-49267745D01*
X178014646Y-49073799D01*
X178062255Y-49088139D01*
X178890395Y-48260000D01*
X179249605Y-48260000D01*
X180077745Y-49088139D01*
X180323864Y-49014005D01*
X180516965Y-48476777D01*
X180489778Y-47906546D01*
X180323864Y-47505995D01*
X180077745Y-47431861D01*
X179249605Y-48260000D01*
X178890395Y-48260000D01*
X178062255Y-47431861D01*
X178014833Y-47446145D01*
X177978351Y-47252255D01*
X178241861Y-47252255D01*
X179070000Y-48080395D01*
X179898139Y-47252255D01*
X179824005Y-47006136D01*
X179286777Y-46813035D01*
X178716546Y-46840222D01*
X178315995Y-47006136D01*
X178241861Y-47252255D01*
X177978351Y-47252255D01*
X177973162Y-47224683D01*
X177834090Y-47008559D01*
X177621890Y-46863569D01*
X177370000Y-46812560D01*
X175770000Y-46812560D01*
X175534683Y-46856838D01*
X175318559Y-46995910D01*
X175173569Y-47208110D01*
X175122560Y-47460000D01*
X156880703Y-47460000D01*
X151758483Y-42337780D01*
X155722845Y-42337780D01*
X155750659Y-42892049D01*
X155909258Y-43274941D01*
X156151236Y-43344159D01*
X156950395Y-42545000D01*
X156151236Y-41745841D01*
X155909258Y-41815059D01*
X155722845Y-42337780D01*
X151758483Y-42337780D01*
X151484999Y-42064297D01*
X151484999Y-41619372D01*
X152051955Y-41838737D01*
X152841418Y-41820164D01*
X153484522Y-41553782D01*
X153625988Y-41250593D01*
X152400000Y-40024605D01*
X152385858Y-40038748D01*
X152206253Y-39859143D01*
X152220395Y-39845000D01*
X152579605Y-39845000D01*
X153805593Y-41070988D01*
X154108782Y-40929522D01*
X154393737Y-40193045D01*
X154375164Y-39403582D01*
X154108782Y-38760478D01*
X153805593Y-38619012D01*
X152579605Y-39845000D01*
X152220395Y-39845000D01*
X152206253Y-39830858D01*
X152385858Y-39651253D01*
X152400000Y-39665395D01*
X153625988Y-38439407D01*
X153484522Y-38136218D01*
X152748045Y-37851263D01*
X151958582Y-37869836D01*
X151484999Y-38066000D01*
X151484999Y-37914999D01*
X151464233Y-37810600D01*
X151427147Y-37624159D01*
X151262400Y-37377598D01*
X149431302Y-35546500D01*
X151596698Y-35546500D01*
X157195171Y-41144973D01*
X156782951Y-41165659D01*
X156400059Y-41324258D01*
X156330841Y-41566236D01*
X157130000Y-42365395D01*
X157144143Y-42351253D01*
X157323748Y-42530858D01*
X157309605Y-42545000D01*
X158108764Y-43344159D01*
X158350742Y-43274941D01*
X158402382Y-43130138D01*
X158486687Y-43334172D01*
X158697171Y-43545024D01*
X158488066Y-43753764D01*
X158400046Y-43965738D01*
X158313313Y-43755828D01*
X157921236Y-43363066D01*
X157659976Y-43254581D01*
X157130000Y-42724605D01*
X156600010Y-43254595D01*
X156340828Y-43361687D01*
X155948066Y-43753764D01*
X155735242Y-44266300D01*
X155734758Y-44821265D01*
X155946687Y-45334172D01*
X156338764Y-45726934D01*
X156851300Y-45939758D01*
X157406265Y-45940242D01*
X157919172Y-45728313D01*
X158311934Y-45336236D01*
X158399954Y-45124262D01*
X158486687Y-45334172D01*
X158878764Y-45726934D01*
X159391300Y-45939758D01*
X159946265Y-45940242D01*
X160459172Y-45728313D01*
X160851934Y-45336236D01*
X161064758Y-44823700D01*
X161065242Y-44268735D01*
X160853313Y-43755828D01*
X160642829Y-43544976D01*
X160851934Y-43336236D01*
X161064758Y-42823700D01*
X161065242Y-42268735D01*
X160853313Y-41755828D01*
X160461236Y-41363066D01*
X160190372Y-41250593D01*
X163174012Y-41250593D01*
X163315478Y-41553782D01*
X164051955Y-41838737D01*
X164841418Y-41820164D01*
X165484522Y-41553782D01*
X165625988Y-41250593D01*
X164400000Y-40024605D01*
X163174012Y-41250593D01*
X160190372Y-41250593D01*
X159948700Y-41150242D01*
X159393735Y-41149758D01*
X159362476Y-41162674D01*
X157696757Y-39496955D01*
X162406263Y-39496955D01*
X162424836Y-40286418D01*
X162691218Y-40929522D01*
X162994407Y-41070988D01*
X164220395Y-39845000D01*
X164579605Y-39845000D01*
X165805593Y-41070988D01*
X166108782Y-40929522D01*
X166393737Y-40193045D01*
X166375164Y-39403582D01*
X166108782Y-38760478D01*
X165805593Y-38619012D01*
X164579605Y-39845000D01*
X164220395Y-39845000D01*
X162994407Y-38619012D01*
X162691218Y-38760478D01*
X162406263Y-39496955D01*
X157696757Y-39496955D01*
X156639209Y-38439407D01*
X163174012Y-38439407D01*
X164400000Y-39665395D01*
X165625988Y-38439407D01*
X165600952Y-38385750D01*
X168545000Y-38385750D01*
X168545000Y-39526310D01*
X168641673Y-39759699D01*
X168820302Y-39938327D01*
X169053691Y-40035000D01*
X169894250Y-40035000D01*
X170053000Y-39876250D01*
X170053000Y-38227000D01*
X168703750Y-38227000D01*
X168545000Y-38385750D01*
X165600952Y-38385750D01*
X165484522Y-38136218D01*
X164748045Y-37851263D01*
X163958582Y-37869836D01*
X163315478Y-38136218D01*
X163174012Y-38439407D01*
X156639209Y-38439407D01*
X154873492Y-36673690D01*
X168545000Y-36673690D01*
X168545000Y-37814250D01*
X168703750Y-37973000D01*
X170053000Y-37973000D01*
X170053000Y-36323750D01*
X170307000Y-36323750D01*
X170307000Y-37973000D01*
X170327000Y-37973000D01*
X170327000Y-38227000D01*
X170307000Y-38227000D01*
X170307000Y-39876250D01*
X170465750Y-40035000D01*
X171306309Y-40035000D01*
X171539698Y-39938327D01*
X171718327Y-39759699D01*
X171738594Y-39710769D01*
X172094313Y-39948452D01*
X172720000Y-40072909D01*
X173345687Y-39948452D01*
X173876120Y-39594029D01*
X174230543Y-39063596D01*
X174355000Y-38437909D01*
X174355000Y-37762091D01*
X174230543Y-37136404D01*
X173876120Y-36605971D01*
X173345687Y-36251548D01*
X172720000Y-36127091D01*
X172094313Y-36251548D01*
X171738594Y-36489231D01*
X171718327Y-36440301D01*
X171539698Y-36261673D01*
X171306309Y-36165000D01*
X170465750Y-36165000D01*
X170307000Y-36323750D01*
X170053000Y-36323750D01*
X169894250Y-36165000D01*
X169053691Y-36165000D01*
X168820302Y-36261673D01*
X168641673Y-36440301D01*
X168545000Y-36673690D01*
X154873492Y-36673690D01*
X153199802Y-35000000D01*
X178323803Y-35000000D01*
X178283628Y-35016600D01*
G36*
X152465000Y-97629868D02*
X149057434Y-101037434D01*
X148811397Y-101405654D01*
X148725000Y-101840000D01*
X148725000Y-102631859D01*
X148703880Y-102645971D01*
X148590000Y-102816405D01*
X148476120Y-102645971D01*
X147945687Y-102291548D01*
X147320000Y-102167091D01*
X146694313Y-102291548D01*
X146163880Y-102645971D01*
X145973400Y-102931045D01*
X145973400Y-91063400D01*
X145915548Y-90772561D01*
X145750801Y-90525999D01*
X143247701Y-88022899D01*
X143001139Y-87858152D01*
X142710300Y-87800300D01*
X141321556Y-87800300D01*
X141344448Y-87766039D01*
X141345865Y-87758917D01*
X141376767Y-87753102D01*
X141592891Y-87614030D01*
X141737881Y-87401830D01*
X141788890Y-87149940D01*
X141788890Y-85498940D01*
X142691110Y-85498940D01*
X142691110Y-87149940D01*
X142735388Y-87385257D01*
X142874460Y-87601381D01*
X143086660Y-87746371D01*
X143338550Y-87797380D01*
X144336770Y-87797380D01*
X144572087Y-87753102D01*
X144788211Y-87614030D01*
X144933201Y-87401830D01*
X144984210Y-87149940D01*
X144984210Y-85498940D01*
X144939932Y-85263623D01*
X144800860Y-85047499D01*
X144588660Y-84902509D01*
X144336770Y-84851500D01*
X143338550Y-84851500D01*
X143103233Y-84895778D01*
X142887109Y-85034850D01*
X142742119Y-85247050D01*
X142691110Y-85498940D01*
X141788890Y-85498940D01*
X141744612Y-85263623D01*
X141605540Y-85047499D01*
X141393340Y-84902509D01*
X141346489Y-84893021D01*
X141344448Y-84882761D01*
X141344448Y-84882760D01*
X141179701Y-84636199D01*
X137593354Y-81049852D01*
X137921645Y-81234144D01*
X138049566Y-81265124D01*
X138303000Y-81145777D01*
X138303000Y-79502000D01*
X138283000Y-79502000D01*
X138283000Y-79248000D01*
X138303000Y-79248000D01*
X138303000Y-79228000D01*
X138557000Y-79228000D01*
X138557000Y-79248000D01*
X138577000Y-79248000D01*
X138577000Y-79502000D01*
X138557000Y-79502000D01*
X138557000Y-81145777D01*
X138810434Y-81265124D01*
X138938355Y-81234144D01*
X139496317Y-80920922D01*
X139686781Y-80678812D01*
X139813880Y-80869029D01*
X140344313Y-81223452D01*
X140970000Y-81347909D01*
X141595687Y-81223452D01*
X141954192Y-80983907D01*
X142045910Y-81126441D01*
X142258110Y-81271431D01*
X142510000Y-81322440D01*
X144510000Y-81322440D01*
X144745317Y-81278162D01*
X144961441Y-81139090D01*
X145106431Y-80926890D01*
X145157440Y-80675000D01*
X145157440Y-78075000D01*
X145113162Y-77839683D01*
X144974090Y-77623559D01*
X144761890Y-77478569D01*
X144510000Y-77427560D01*
X142510000Y-77427560D01*
X142274683Y-77471838D01*
X142058559Y-77610910D01*
X141953049Y-77765329D01*
X141595687Y-77526548D01*
X140970000Y-77402091D01*
X140344313Y-77526548D01*
X139813880Y-77880971D01*
X139686781Y-78071188D01*
X139496317Y-77829078D01*
X139012598Y-77557534D01*
X143186122Y-73384010D01*
X152465000Y-73384010D01*
X152465000Y-97629868D01*
X152465000Y-97629868D01*
G37*
X152465000Y-97629868D02*
X149057434Y-101037434D01*
X148811397Y-101405654D01*
X148725000Y-101840000D01*
X148725000Y-102631859D01*
X148703880Y-102645971D01*
X148590000Y-102816405D01*
X148476120Y-102645971D01*
X147945687Y-102291548D01*
X147320000Y-102167091D01*
X146694313Y-102291548D01*
X146163880Y-102645971D01*
X145973400Y-102931045D01*
X145973400Y-91063400D01*
X145915548Y-90772561D01*
X145750801Y-90525999D01*
X143247701Y-88022899D01*
X143001139Y-87858152D01*
X142710300Y-87800300D01*
X141321556Y-87800300D01*
X141344448Y-87766039D01*
X141345865Y-87758917D01*
X141376767Y-87753102D01*
X141592891Y-87614030D01*
X141737881Y-87401830D01*
X141788890Y-87149940D01*
X141788890Y-85498940D01*
X142691110Y-85498940D01*
X142691110Y-87149940D01*
X142735388Y-87385257D01*
X142874460Y-87601381D01*
X143086660Y-87746371D01*
X143338550Y-87797380D01*
X144336770Y-87797380D01*
X144572087Y-87753102D01*
X144788211Y-87614030D01*
X144933201Y-87401830D01*
X144984210Y-87149940D01*
X144984210Y-85498940D01*
X144939932Y-85263623D01*
X144800860Y-85047499D01*
X144588660Y-84902509D01*
X144336770Y-84851500D01*
X143338550Y-84851500D01*
X143103233Y-84895778D01*
X142887109Y-85034850D01*
X142742119Y-85247050D01*
X142691110Y-85498940D01*
X141788890Y-85498940D01*
X141744612Y-85263623D01*
X141605540Y-85047499D01*
X141393340Y-84902509D01*
X141346489Y-84893021D01*
X141344448Y-84882761D01*
X141344448Y-84882760D01*
X141179701Y-84636199D01*
X137593354Y-81049852D01*
X137921645Y-81234144D01*
X138049566Y-81265124D01*
X138303000Y-81145777D01*
X138303000Y-79502000D01*
X138283000Y-79502000D01*
X138283000Y-79248000D01*
X138303000Y-79248000D01*
X138303000Y-79228000D01*
X138557000Y-79228000D01*
X138557000Y-79248000D01*
X138577000Y-79248000D01*
X138577000Y-79502000D01*
X138557000Y-79502000D01*
X138557000Y-81145777D01*
X138810434Y-81265124D01*
X138938355Y-81234144D01*
X139496317Y-80920922D01*
X139686781Y-80678812D01*
X139813880Y-80869029D01*
X140344313Y-81223452D01*
X140970000Y-81347909D01*
X141595687Y-81223452D01*
X141954192Y-80983907D01*
X142045910Y-81126441D01*
X142258110Y-81271431D01*
X142510000Y-81322440D01*
X144510000Y-81322440D01*
X144745317Y-81278162D01*
X144961441Y-81139090D01*
X145106431Y-80926890D01*
X145157440Y-80675000D01*
X145157440Y-78075000D01*
X145113162Y-77839683D01*
X144974090Y-77623559D01*
X144761890Y-77478569D01*
X144510000Y-77427560D01*
X142510000Y-77427560D01*
X142274683Y-77471838D01*
X142058559Y-77610910D01*
X141953049Y-77765329D01*
X141595687Y-77526548D01*
X140970000Y-77402091D01*
X140344313Y-77526548D01*
X139813880Y-77880971D01*
X139686781Y-78071188D01*
X139496317Y-77829078D01*
X139012598Y-77557534D01*
X143186122Y-73384010D01*
X152465000Y-73384010D01*
X152465000Y-97629868D01*
G36*
X143079199Y-37063699D02*
X142914452Y-37310261D01*
X142856600Y-37601100D01*
X142856600Y-40043900D01*
X142914452Y-40334739D01*
X143079199Y-40581301D01*
X145434600Y-42936702D01*
X145434600Y-43168019D01*
X145066691Y-43015250D01*
X144495813Y-43014752D01*
X143968200Y-43232757D01*
X143564176Y-43636077D01*
X143345250Y-44163309D01*
X143344752Y-44734187D01*
X143562757Y-45261800D01*
X143966077Y-45665824D01*
X144096215Y-45719862D01*
X143968200Y-45772757D01*
X143564176Y-46176077D01*
X143345250Y-46703309D01*
X143344752Y-47274187D01*
X143562757Y-47801800D01*
X143966077Y-48205824D01*
X144096215Y-48259862D01*
X143968200Y-48312757D01*
X143564176Y-48716077D01*
X143345250Y-49243309D01*
X143344752Y-49814187D01*
X143562757Y-50341800D01*
X143966077Y-50745824D01*
X144493309Y-50964750D01*
X145064187Y-50965248D01*
X145591800Y-50747243D01*
X145724886Y-50614388D01*
X146235490Y-51124992D01*
X146104176Y-51256077D01*
X145885250Y-51783309D01*
X145884752Y-52354187D01*
X146102757Y-52881800D01*
X146506077Y-53285824D01*
X146636215Y-53339862D01*
X146508200Y-53392757D01*
X146104176Y-53796077D01*
X145885250Y-54323309D01*
X145884752Y-54894187D01*
X146102757Y-55421800D01*
X146506077Y-55825824D01*
X146636215Y-55879862D01*
X146508200Y-55932757D01*
X146104176Y-56336077D01*
X145885250Y-56863309D01*
X145884752Y-57434187D01*
X146102757Y-57961800D01*
X146506077Y-58365824D01*
X146636215Y-58419862D01*
X146508200Y-58472757D01*
X146104176Y-58876077D01*
X145885250Y-59403309D01*
X145884752Y-59974187D01*
X146102757Y-60501800D01*
X146506077Y-60905824D01*
X146636215Y-60959862D01*
X146508200Y-61012757D01*
X146104176Y-61416077D01*
X145885250Y-61943309D01*
X145884752Y-62514187D01*
X146102757Y-63041800D01*
X146506077Y-63445824D01*
X146636215Y-63499862D01*
X146508200Y-63552757D01*
X146104176Y-63956077D01*
X145885250Y-64483309D01*
X145884752Y-65054187D01*
X146102757Y-65581800D01*
X146506077Y-65985824D01*
X146636215Y-66039862D01*
X146508200Y-66092757D01*
X146104176Y-66496077D01*
X145885250Y-67023309D01*
X145884752Y-67594187D01*
X146025986Y-67936000D01*
X144277300Y-67936000D01*
X143986461Y-67993852D01*
X143739899Y-68158599D01*
X143159031Y-68739467D01*
X143053923Y-68634176D01*
X142923785Y-68580138D01*
X143051800Y-68527243D01*
X143455824Y-68123923D01*
X143674750Y-67596691D01*
X143675248Y-67025813D01*
X143457243Y-66498200D01*
X143053923Y-66094176D01*
X142923785Y-66040138D01*
X143051800Y-65987243D01*
X143455824Y-65583923D01*
X143674750Y-65056691D01*
X143675248Y-64485813D01*
X143457243Y-63958200D01*
X143053923Y-63554176D01*
X142923785Y-63500138D01*
X143051800Y-63447243D01*
X143455824Y-63043923D01*
X143674750Y-62516691D01*
X143675248Y-61945813D01*
X143457243Y-61418200D01*
X143053923Y-61014176D01*
X142923785Y-60960138D01*
X143051800Y-60907243D01*
X143455824Y-60503923D01*
X143674750Y-59976691D01*
X143675248Y-59405813D01*
X143457243Y-58878200D01*
X143053923Y-58474176D01*
X142923785Y-58420138D01*
X143051800Y-58367243D01*
X143455824Y-57963923D01*
X143674750Y-57436691D01*
X143675248Y-56865813D01*
X143457243Y-56338200D01*
X143053923Y-55934176D01*
X142923785Y-55880138D01*
X143051800Y-55827243D01*
X143455824Y-55423923D01*
X143674750Y-54896691D01*
X143675248Y-54325813D01*
X143457243Y-53798200D01*
X143053923Y-53394176D01*
X142923785Y-53340138D01*
X143051800Y-53287243D01*
X143455824Y-52883923D01*
X143674750Y-52356691D01*
X143675248Y-51785813D01*
X143457243Y-51258200D01*
X143053923Y-50854176D01*
X142526691Y-50635250D01*
X141955813Y-50634752D01*
X141428200Y-50852757D01*
X141024176Y-51256077D01*
X140970138Y-51386215D01*
X140917243Y-51258200D01*
X140513923Y-50854176D01*
X139986691Y-50635250D01*
X139415813Y-50634752D01*
X138888200Y-50852757D01*
X138484176Y-51256077D01*
X138265250Y-51783309D01*
X138264752Y-52354187D01*
X138482757Y-52881800D01*
X138886077Y-53285824D01*
X139016215Y-53339862D01*
X138888200Y-53392757D01*
X138484176Y-53796077D01*
X138265250Y-54323309D01*
X138264752Y-54894187D01*
X138482757Y-55421800D01*
X138886077Y-55825824D01*
X139016215Y-55879862D01*
X138888200Y-55932757D01*
X138484176Y-56336077D01*
X138265250Y-56863309D01*
X138264752Y-57434187D01*
X138482757Y-57961800D01*
X138886077Y-58365824D01*
X139016215Y-58419862D01*
X138888200Y-58472757D01*
X138484176Y-58876077D01*
X138265250Y-59403309D01*
X138264752Y-59974187D01*
X138482757Y-60501800D01*
X138886077Y-60905824D01*
X139016215Y-60959862D01*
X138888200Y-61012757D01*
X138484176Y-61416077D01*
X138265250Y-61943309D01*
X138264752Y-62514187D01*
X138482757Y-63041800D01*
X138886077Y-63445824D01*
X139016215Y-63499862D01*
X138888200Y-63552757D01*
X138484176Y-63956077D01*
X138265250Y-64483309D01*
X138264752Y-65054187D01*
X138482757Y-65581800D01*
X138886077Y-65985824D01*
X139016215Y-66039862D01*
X138888200Y-66092757D01*
X138484176Y-66496077D01*
X138265250Y-67023309D01*
X138264752Y-67594187D01*
X138482757Y-68121800D01*
X138886077Y-68525824D01*
X139016215Y-68579862D01*
X138888200Y-68632757D01*
X138484176Y-69036077D01*
X138430138Y-69166215D01*
X138377243Y-69038200D01*
X137973923Y-68634176D01*
X137446691Y-68415250D01*
X136875813Y-68414752D01*
X136348200Y-68632757D01*
X135944176Y-69036077D01*
X135890138Y-69166215D01*
X135837243Y-69038200D01*
X135433923Y-68634176D01*
X134906691Y-68415250D01*
X134498700Y-68414894D01*
X134498700Y-46108700D01*
X134440848Y-45817861D01*
X134276101Y-45571299D01*
X133493256Y-44788454D01*
X133514750Y-44736691D01*
X133515248Y-44165813D01*
X133297243Y-43638200D01*
X132893923Y-43234176D01*
X132763785Y-43180138D01*
X132891800Y-43127243D01*
X133295824Y-42723923D01*
X133514750Y-42196691D01*
X133515248Y-41625813D01*
X133297243Y-41098200D01*
X132893923Y-40694176D01*
X132763785Y-40640138D01*
X132891800Y-40587243D01*
X133295824Y-40183923D01*
X133514750Y-39656691D01*
X133515248Y-39085813D01*
X133297243Y-38558200D01*
X133004554Y-38265000D01*
X133006310Y-38265000D01*
X133239699Y-38168327D01*
X133418327Y-37989698D01*
X133515000Y-37756309D01*
X133515000Y-37115750D01*
X133356250Y-36957000D01*
X132207000Y-36957000D01*
X132207000Y-36977000D01*
X131953000Y-36977000D01*
X131953000Y-36957000D01*
X130803750Y-36957000D01*
X130645000Y-37115750D01*
X130645000Y-37756309D01*
X130741673Y-37989698D01*
X130920301Y-38168327D01*
X131153690Y-38265000D01*
X131155761Y-38265000D01*
X130864176Y-38556077D01*
X130645250Y-39083309D01*
X130644752Y-39654187D01*
X130862757Y-40181800D01*
X131266077Y-40585824D01*
X131396215Y-40639862D01*
X131268200Y-40692757D01*
X130864176Y-41096077D01*
X130645250Y-41623309D01*
X130644752Y-42194187D01*
X130862757Y-42721800D01*
X131266077Y-43125824D01*
X131396215Y-43179862D01*
X131268200Y-43232757D01*
X130864176Y-43636077D01*
X130645250Y-44163309D01*
X130644752Y-44734187D01*
X130738056Y-44960000D01*
X130242402Y-44960000D01*
X129035601Y-43753199D01*
X128789039Y-43588452D01*
X128498200Y-43530600D01*
X128358162Y-43530600D01*
X128409144Y-43387698D01*
X128381362Y-42832632D01*
X128222397Y-42448857D01*
X127980213Y-42379392D01*
X127179605Y-43180000D01*
X127193748Y-43194143D01*
X127014143Y-43373748D01*
X127000000Y-43359605D01*
X126985858Y-43373748D01*
X126806253Y-43194143D01*
X126820395Y-43180000D01*
X126019787Y-42379392D01*
X125799639Y-42442537D01*
X125556889Y-42199787D01*
X126199392Y-42199787D01*
X127000000Y-43000395D01*
X127800608Y-42199787D01*
X127731143Y-41957603D01*
X127207698Y-41770856D01*
X126652632Y-41798638D01*
X126268857Y-41957603D01*
X126199392Y-42199787D01*
X125556889Y-42199787D01*
X120889152Y-37532050D01*
X121027738Y-37198299D01*
X121028062Y-36826333D01*
X120886017Y-36482557D01*
X120623227Y-36219308D01*
X120279699Y-36076662D01*
X119907733Y-36076338D01*
X119563957Y-36218383D01*
X119300708Y-36481173D01*
X119158062Y-36824701D01*
X119157738Y-37196667D01*
X119299783Y-37540443D01*
X119332900Y-37573618D01*
X119332900Y-37810600D01*
X119390752Y-38101439D01*
X119555499Y-38348001D01*
X125975889Y-44768391D01*
X125922594Y-44821592D01*
X117971822Y-36870820D01*
X117971862Y-36825333D01*
X117829817Y-36481557D01*
X117567027Y-36218308D01*
X117223499Y-36075662D01*
X116851533Y-36075338D01*
X116507757Y-36217383D01*
X116244508Y-36480173D01*
X116101862Y-36823701D01*
X116101538Y-37195667D01*
X116243583Y-37539443D01*
X116506373Y-37802692D01*
X116849901Y-37945338D01*
X116896777Y-37945379D01*
X125208799Y-46257401D01*
X125455361Y-46422148D01*
X125746200Y-46480000D01*
X125802469Y-46480000D01*
X125814990Y-46510303D01*
X126207630Y-46903629D01*
X126240000Y-46917070D01*
X126240000Y-47062469D01*
X126209697Y-47074990D01*
X125816371Y-47467630D01*
X125603243Y-47980900D01*
X125602758Y-48536661D01*
X125624673Y-48589700D01*
X123518702Y-48589700D01*
X115150000Y-40220998D01*
X115150000Y-37572463D01*
X115182192Y-37540327D01*
X115324838Y-37196799D01*
X115325162Y-36824833D01*
X115183117Y-36481057D01*
X114920327Y-36217808D01*
X114576799Y-36075162D01*
X114204833Y-36074838D01*
X113861057Y-36216883D01*
X113597808Y-36479673D01*
X113455162Y-36823201D01*
X113454838Y-37195167D01*
X113596883Y-37538943D01*
X113630000Y-37572118D01*
X113630000Y-40535800D01*
X113687852Y-40826639D01*
X113852599Y-41073201D01*
X122129098Y-49349700D01*
X120050820Y-51427978D01*
X120005333Y-51427938D01*
X119661557Y-51569983D01*
X119504134Y-51727132D01*
X114410501Y-46633499D01*
X114163939Y-46468752D01*
X113873100Y-46410900D01*
X107916754Y-46410900D01*
X108089144Y-45927698D01*
X108061362Y-45372632D01*
X107902397Y-44988857D01*
X107660213Y-44919392D01*
X106859605Y-45720000D01*
X106873748Y-45734143D01*
X106694143Y-45913748D01*
X106680000Y-45899605D01*
X106665858Y-45913748D01*
X106486253Y-45734143D01*
X106500395Y-45720000D01*
X105699787Y-44919392D01*
X105457603Y-44988857D01*
X105270856Y-45512302D01*
X105298638Y-46067368D01*
X105457603Y-46451143D01*
X105699785Y-46520607D01*
X105584774Y-46635618D01*
X105614477Y-46665321D01*
X105048599Y-47231199D01*
X104883852Y-47477761D01*
X104826000Y-47768600D01*
X104826000Y-52246000D01*
X104883852Y-52536839D01*
X105048599Y-52783401D01*
X105295817Y-53030619D01*
X105283243Y-53060900D01*
X105282758Y-53616661D01*
X105494990Y-54130303D01*
X105887630Y-54523629D01*
X106095512Y-54609949D01*
X105889697Y-54694990D01*
X105496371Y-55087630D01*
X105283243Y-55600900D01*
X105282758Y-56156661D01*
X105494990Y-56670303D01*
X105887630Y-57063629D01*
X106400900Y-57276757D01*
X106956661Y-57277242D01*
X107470303Y-57065010D01*
X107863629Y-56672370D01*
X108076757Y-56159100D01*
X108077242Y-55603339D01*
X107865010Y-55089697D01*
X107472370Y-54696371D01*
X107264488Y-54610051D01*
X107470303Y-54525010D01*
X107863629Y-54132370D01*
X108076757Y-53619100D01*
X108077242Y-53063339D01*
X107865010Y-52549697D01*
X107472370Y-52156371D01*
X107264488Y-52070051D01*
X107470303Y-51985010D01*
X107863629Y-51592370D01*
X107877070Y-51560000D01*
X113937798Y-51560000D01*
X119936032Y-57558234D01*
X119847434Y-57617434D01*
X119601397Y-57985655D01*
X119515000Y-58420000D01*
X119601397Y-58854345D01*
X119847434Y-59222566D01*
X120450000Y-59825132D01*
X120450000Y-63635000D01*
X105648141Y-63635000D01*
X105634029Y-63613880D01*
X105103596Y-63259457D01*
X104477909Y-63135000D01*
X103802091Y-63135000D01*
X103176404Y-63259457D01*
X102645971Y-63613880D01*
X102291548Y-64144313D01*
X102167091Y-64770000D01*
X102178336Y-64826532D01*
X101040000Y-65964868D01*
X101040000Y-44160213D01*
X105879392Y-44160213D01*
X105948857Y-44402397D01*
X106072344Y-44446453D01*
X105948857Y-44497603D01*
X105879392Y-44739787D01*
X106680000Y-45540395D01*
X107480608Y-44739787D01*
X107411143Y-44497603D01*
X107287656Y-44453547D01*
X107411143Y-44402397D01*
X107480608Y-44160213D01*
X106680000Y-43359605D01*
X105879392Y-44160213D01*
X101040000Y-44160213D01*
X101040000Y-42972302D01*
X105270856Y-42972302D01*
X105298638Y-43527368D01*
X105457603Y-43911143D01*
X105699787Y-43980608D01*
X106500395Y-43180000D01*
X106859605Y-43180000D01*
X107660213Y-43980608D01*
X107902397Y-43911143D01*
X108089144Y-43387698D01*
X108061362Y-42832632D01*
X107902397Y-42448857D01*
X107660213Y-42379392D01*
X106859605Y-43180000D01*
X106500395Y-43180000D01*
X105699787Y-42379392D01*
X105457603Y-42448857D01*
X105270856Y-42972302D01*
X101040000Y-42972302D01*
X101040000Y-42199787D01*
X105879392Y-42199787D01*
X106680000Y-43000395D01*
X107480608Y-42199787D01*
X107411143Y-41957603D01*
X106887698Y-41770856D01*
X106332632Y-41798638D01*
X105948857Y-41957603D01*
X105879392Y-42199787D01*
X101040000Y-42199787D01*
X101040000Y-40116197D01*
X101056600Y-40156372D01*
X102078249Y-41179806D01*
X103413782Y-41734368D01*
X104859874Y-41735630D01*
X106196372Y-41183400D01*
X107219806Y-40161751D01*
X107774368Y-38826218D01*
X107775630Y-37380126D01*
X107223400Y-36043628D01*
X107083708Y-35903691D01*
X130645000Y-35903691D01*
X130645000Y-36544250D01*
X130803750Y-36703000D01*
X131953000Y-36703000D01*
X131953000Y-35553750D01*
X132207000Y-35553750D01*
X132207000Y-36703000D01*
X133356250Y-36703000D01*
X133515000Y-36544250D01*
X133515000Y-35903691D01*
X133418327Y-35670302D01*
X133239699Y-35491673D01*
X133006310Y-35395000D01*
X132365750Y-35395000D01*
X132207000Y-35553750D01*
X131953000Y-35553750D01*
X131794250Y-35395000D01*
X131153690Y-35395000D01*
X130920301Y-35491673D01*
X130741673Y-35670302D01*
X130645000Y-35903691D01*
X107083708Y-35903691D01*
X106201751Y-35020194D01*
X106153118Y-35000000D01*
X145142897Y-35000000D01*
X143079199Y-37063699D01*
X143079199Y-37063699D01*
G37*
X143079199Y-37063699D02*
X142914452Y-37310261D01*
X142856600Y-37601100D01*
X142856600Y-40043900D01*
X142914452Y-40334739D01*
X143079199Y-40581301D01*
X145434600Y-42936702D01*
X145434600Y-43168019D01*
X145066691Y-43015250D01*
X144495813Y-43014752D01*
X143968200Y-43232757D01*
X143564176Y-43636077D01*
X143345250Y-44163309D01*
X143344752Y-44734187D01*
X143562757Y-45261800D01*
X143966077Y-45665824D01*
X144096215Y-45719862D01*
X143968200Y-45772757D01*
X143564176Y-46176077D01*
X143345250Y-46703309D01*
X143344752Y-47274187D01*
X143562757Y-47801800D01*
X143966077Y-48205824D01*
X144096215Y-48259862D01*
X143968200Y-48312757D01*
X143564176Y-48716077D01*
X143345250Y-49243309D01*
X143344752Y-49814187D01*
X143562757Y-50341800D01*
X143966077Y-50745824D01*
X144493309Y-50964750D01*
X145064187Y-50965248D01*
X145591800Y-50747243D01*
X145724886Y-50614388D01*
X146235490Y-51124992D01*
X146104176Y-51256077D01*
X145885250Y-51783309D01*
X145884752Y-52354187D01*
X146102757Y-52881800D01*
X146506077Y-53285824D01*
X146636215Y-53339862D01*
X146508200Y-53392757D01*
X146104176Y-53796077D01*
X145885250Y-54323309D01*
X145884752Y-54894187D01*
X146102757Y-55421800D01*
X146506077Y-55825824D01*
X146636215Y-55879862D01*
X146508200Y-55932757D01*
X146104176Y-56336077D01*
X145885250Y-56863309D01*
X145884752Y-57434187D01*
X146102757Y-57961800D01*
X146506077Y-58365824D01*
X146636215Y-58419862D01*
X146508200Y-58472757D01*
X146104176Y-58876077D01*
X145885250Y-59403309D01*
X145884752Y-59974187D01*
X146102757Y-60501800D01*
X146506077Y-60905824D01*
X146636215Y-60959862D01*
X146508200Y-61012757D01*
X146104176Y-61416077D01*
X145885250Y-61943309D01*
X145884752Y-62514187D01*
X146102757Y-63041800D01*
X146506077Y-63445824D01*
X146636215Y-63499862D01*
X146508200Y-63552757D01*
X146104176Y-63956077D01*
X145885250Y-64483309D01*
X145884752Y-65054187D01*
X146102757Y-65581800D01*
X146506077Y-65985824D01*
X146636215Y-66039862D01*
X146508200Y-66092757D01*
X146104176Y-66496077D01*
X145885250Y-67023309D01*
X145884752Y-67594187D01*
X146025986Y-67936000D01*
X144277300Y-67936000D01*
X143986461Y-67993852D01*
X143739899Y-68158599D01*
X143159031Y-68739467D01*
X143053923Y-68634176D01*
X142923785Y-68580138D01*
X143051800Y-68527243D01*
X143455824Y-68123923D01*
X143674750Y-67596691D01*
X143675248Y-67025813D01*
X143457243Y-66498200D01*
X143053923Y-66094176D01*
X142923785Y-66040138D01*
X143051800Y-65987243D01*
X143455824Y-65583923D01*
X143674750Y-65056691D01*
X143675248Y-64485813D01*
X143457243Y-63958200D01*
X143053923Y-63554176D01*
X142923785Y-63500138D01*
X143051800Y-63447243D01*
X143455824Y-63043923D01*
X143674750Y-62516691D01*
X143675248Y-61945813D01*
X143457243Y-61418200D01*
X143053923Y-61014176D01*
X142923785Y-60960138D01*
X143051800Y-60907243D01*
X143455824Y-60503923D01*
X143674750Y-59976691D01*
X143675248Y-59405813D01*
X143457243Y-58878200D01*
X143053923Y-58474176D01*
X142923785Y-58420138D01*
X143051800Y-58367243D01*
X143455824Y-57963923D01*
X143674750Y-57436691D01*
X143675248Y-56865813D01*
X143457243Y-56338200D01*
X143053923Y-55934176D01*
X142923785Y-55880138D01*
X143051800Y-55827243D01*
X143455824Y-55423923D01*
X143674750Y-54896691D01*
X143675248Y-54325813D01*
X143457243Y-53798200D01*
X143053923Y-53394176D01*
X142923785Y-53340138D01*
X143051800Y-53287243D01*
X143455824Y-52883923D01*
X143674750Y-52356691D01*
X143675248Y-51785813D01*
X143457243Y-51258200D01*
X143053923Y-50854176D01*
X142526691Y-50635250D01*
X141955813Y-50634752D01*
X141428200Y-50852757D01*
X141024176Y-51256077D01*
X140970138Y-51386215D01*
X140917243Y-51258200D01*
X140513923Y-50854176D01*
X139986691Y-50635250D01*
X139415813Y-50634752D01*
X138888200Y-50852757D01*
X138484176Y-51256077D01*
X138265250Y-51783309D01*
X138264752Y-52354187D01*
X138482757Y-52881800D01*
X138886077Y-53285824D01*
X139016215Y-53339862D01*
X138888200Y-53392757D01*
X138484176Y-53796077D01*
X138265250Y-54323309D01*
X138264752Y-54894187D01*
X138482757Y-55421800D01*
X138886077Y-55825824D01*
X139016215Y-55879862D01*
X138888200Y-55932757D01*
X138484176Y-56336077D01*
X138265250Y-56863309D01*
X138264752Y-57434187D01*
X138482757Y-57961800D01*
X138886077Y-58365824D01*
X139016215Y-58419862D01*
X138888200Y-58472757D01*
X138484176Y-58876077D01*
X138265250Y-59403309D01*
X138264752Y-59974187D01*
X138482757Y-60501800D01*
X138886077Y-60905824D01*
X139016215Y-60959862D01*
X138888200Y-61012757D01*
X138484176Y-61416077D01*
X138265250Y-61943309D01*
X138264752Y-62514187D01*
X138482757Y-63041800D01*
X138886077Y-63445824D01*
X139016215Y-63499862D01*
X138888200Y-63552757D01*
X138484176Y-63956077D01*
X138265250Y-64483309D01*
X138264752Y-65054187D01*
X138482757Y-65581800D01*
X138886077Y-65985824D01*
X139016215Y-66039862D01*
X138888200Y-66092757D01*
X138484176Y-66496077D01*
X138265250Y-67023309D01*
X138264752Y-67594187D01*
X138482757Y-68121800D01*
X138886077Y-68525824D01*
X139016215Y-68579862D01*
X138888200Y-68632757D01*
X138484176Y-69036077D01*
X138430138Y-69166215D01*
X138377243Y-69038200D01*
X137973923Y-68634176D01*
X137446691Y-68415250D01*
X136875813Y-68414752D01*
X136348200Y-68632757D01*
X135944176Y-69036077D01*
X135890138Y-69166215D01*
X135837243Y-69038200D01*
X135433923Y-68634176D01*
X134906691Y-68415250D01*
X134498700Y-68414894D01*
X134498700Y-46108700D01*
X134440848Y-45817861D01*
X134276101Y-45571299D01*
X133493256Y-44788454D01*
X133514750Y-44736691D01*
X133515248Y-44165813D01*
X133297243Y-43638200D01*
X132893923Y-43234176D01*
X132763785Y-43180138D01*
X132891800Y-43127243D01*
X133295824Y-42723923D01*
X133514750Y-42196691D01*
X133515248Y-41625813D01*
X133297243Y-41098200D01*
X132893923Y-40694176D01*
X132763785Y-40640138D01*
X132891800Y-40587243D01*
X133295824Y-40183923D01*
X133514750Y-39656691D01*
X133515248Y-39085813D01*
X133297243Y-38558200D01*
X133004554Y-38265000D01*
X133006310Y-38265000D01*
X133239699Y-38168327D01*
X133418327Y-37989698D01*
X133515000Y-37756309D01*
X133515000Y-37115750D01*
X133356250Y-36957000D01*
X132207000Y-36957000D01*
X132207000Y-36977000D01*
X131953000Y-36977000D01*
X131953000Y-36957000D01*
X130803750Y-36957000D01*
X130645000Y-37115750D01*
X130645000Y-37756309D01*
X130741673Y-37989698D01*
X130920301Y-38168327D01*
X131153690Y-38265000D01*
X131155761Y-38265000D01*
X130864176Y-38556077D01*
X130645250Y-39083309D01*
X130644752Y-39654187D01*
X130862757Y-40181800D01*
X131266077Y-40585824D01*
X131396215Y-40639862D01*
X131268200Y-40692757D01*
X130864176Y-41096077D01*
X130645250Y-41623309D01*
X130644752Y-42194187D01*
X130862757Y-42721800D01*
X131266077Y-43125824D01*
X131396215Y-43179862D01*
X131268200Y-43232757D01*
X130864176Y-43636077D01*
X130645250Y-44163309D01*
X130644752Y-44734187D01*
X130738056Y-44960000D01*
X130242402Y-44960000D01*
X129035601Y-43753199D01*
X128789039Y-43588452D01*
X128498200Y-43530600D01*
X128358162Y-43530600D01*
X128409144Y-43387698D01*
X128381362Y-42832632D01*
X128222397Y-42448857D01*
X127980213Y-42379392D01*
X127179605Y-43180000D01*
X127193748Y-43194143D01*
X127014143Y-43373748D01*
X127000000Y-43359605D01*
X126985858Y-43373748D01*
X126806253Y-43194143D01*
X126820395Y-43180000D01*
X126019787Y-42379392D01*
X125799639Y-42442537D01*
X125556889Y-42199787D01*
X126199392Y-42199787D01*
X127000000Y-43000395D01*
X127800608Y-42199787D01*
X127731143Y-41957603D01*
X127207698Y-41770856D01*
X126652632Y-41798638D01*
X126268857Y-41957603D01*
X126199392Y-42199787D01*
X125556889Y-42199787D01*
X120889152Y-37532050D01*
X121027738Y-37198299D01*
X121028062Y-36826333D01*
X120886017Y-36482557D01*
X120623227Y-36219308D01*
X120279699Y-36076662D01*
X119907733Y-36076338D01*
X119563957Y-36218383D01*
X119300708Y-36481173D01*
X119158062Y-36824701D01*
X119157738Y-37196667D01*
X119299783Y-37540443D01*
X119332900Y-37573618D01*
X119332900Y-37810600D01*
X119390752Y-38101439D01*
X119555499Y-38348001D01*
X125975889Y-44768391D01*
X125922594Y-44821592D01*
X117971822Y-36870820D01*
X117971862Y-36825333D01*
X117829817Y-36481557D01*
X117567027Y-36218308D01*
X117223499Y-36075662D01*
X116851533Y-36075338D01*
X116507757Y-36217383D01*
X116244508Y-36480173D01*
X116101862Y-36823701D01*
X116101538Y-37195667D01*
X116243583Y-37539443D01*
X116506373Y-37802692D01*
X116849901Y-37945338D01*
X116896777Y-37945379D01*
X125208799Y-46257401D01*
X125455361Y-46422148D01*
X125746200Y-46480000D01*
X125802469Y-46480000D01*
X125814990Y-46510303D01*
X126207630Y-46903629D01*
X126240000Y-46917070D01*
X126240000Y-47062469D01*
X126209697Y-47074990D01*
X125816371Y-47467630D01*
X125603243Y-47980900D01*
X125602758Y-48536661D01*
X125624673Y-48589700D01*
X123518702Y-48589700D01*
X115150000Y-40220998D01*
X115150000Y-37572463D01*
X115182192Y-37540327D01*
X115324838Y-37196799D01*
X115325162Y-36824833D01*
X115183117Y-36481057D01*
X114920327Y-36217808D01*
X114576799Y-36075162D01*
X114204833Y-36074838D01*
X113861057Y-36216883D01*
X113597808Y-36479673D01*
X113455162Y-36823201D01*
X113454838Y-37195167D01*
X113596883Y-37538943D01*
X113630000Y-37572118D01*
X113630000Y-40535800D01*
X113687852Y-40826639D01*
X113852599Y-41073201D01*
X122129098Y-49349700D01*
X120050820Y-51427978D01*
X120005333Y-51427938D01*
X119661557Y-51569983D01*
X119504134Y-51727132D01*
X114410501Y-46633499D01*
X114163939Y-46468752D01*
X113873100Y-46410900D01*
X107916754Y-46410900D01*
X108089144Y-45927698D01*
X108061362Y-45372632D01*
X107902397Y-44988857D01*
X107660213Y-44919392D01*
X106859605Y-45720000D01*
X106873748Y-45734143D01*
X106694143Y-45913748D01*
X106680000Y-45899605D01*
X106665858Y-45913748D01*
X106486253Y-45734143D01*
X106500395Y-45720000D01*
X105699787Y-44919392D01*
X105457603Y-44988857D01*
X105270856Y-45512302D01*
X105298638Y-46067368D01*
X105457603Y-46451143D01*
X105699785Y-46520607D01*
X105584774Y-46635618D01*
X105614477Y-46665321D01*
X105048599Y-47231199D01*
X104883852Y-47477761D01*
X104826000Y-47768600D01*
X104826000Y-52246000D01*
X104883852Y-52536839D01*
X105048599Y-52783401D01*
X105295817Y-53030619D01*
X105283243Y-53060900D01*
X105282758Y-53616661D01*
X105494990Y-54130303D01*
X105887630Y-54523629D01*
X106095512Y-54609949D01*
X105889697Y-54694990D01*
X105496371Y-55087630D01*
X105283243Y-55600900D01*
X105282758Y-56156661D01*
X105494990Y-56670303D01*
X105887630Y-57063629D01*
X106400900Y-57276757D01*
X106956661Y-57277242D01*
X107470303Y-57065010D01*
X107863629Y-56672370D01*
X108076757Y-56159100D01*
X108077242Y-55603339D01*
X107865010Y-55089697D01*
X107472370Y-54696371D01*
X107264488Y-54610051D01*
X107470303Y-54525010D01*
X107863629Y-54132370D01*
X108076757Y-53619100D01*
X108077242Y-53063339D01*
X107865010Y-52549697D01*
X107472370Y-52156371D01*
X107264488Y-52070051D01*
X107470303Y-51985010D01*
X107863629Y-51592370D01*
X107877070Y-51560000D01*
X113937798Y-51560000D01*
X119936032Y-57558234D01*
X119847434Y-57617434D01*
X119601397Y-57985655D01*
X119515000Y-58420000D01*
X119601397Y-58854345D01*
X119847434Y-59222566D01*
X120450000Y-59825132D01*
X120450000Y-63635000D01*
X105648141Y-63635000D01*
X105634029Y-63613880D01*
X105103596Y-63259457D01*
X104477909Y-63135000D01*
X103802091Y-63135000D01*
X103176404Y-63259457D01*
X102645971Y-63613880D01*
X102291548Y-64144313D01*
X102167091Y-64770000D01*
X102178336Y-64826532D01*
X101040000Y-65964868D01*
X101040000Y-44160213D01*
X105879392Y-44160213D01*
X105948857Y-44402397D01*
X106072344Y-44446453D01*
X105948857Y-44497603D01*
X105879392Y-44739787D01*
X106680000Y-45540395D01*
X107480608Y-44739787D01*
X107411143Y-44497603D01*
X107287656Y-44453547D01*
X107411143Y-44402397D01*
X107480608Y-44160213D01*
X106680000Y-43359605D01*
X105879392Y-44160213D01*
X101040000Y-44160213D01*
X101040000Y-42972302D01*
X105270856Y-42972302D01*
X105298638Y-43527368D01*
X105457603Y-43911143D01*
X105699787Y-43980608D01*
X106500395Y-43180000D01*
X106859605Y-43180000D01*
X107660213Y-43980608D01*
X107902397Y-43911143D01*
X108089144Y-43387698D01*
X108061362Y-42832632D01*
X107902397Y-42448857D01*
X107660213Y-42379392D01*
X106859605Y-43180000D01*
X106500395Y-43180000D01*
X105699787Y-42379392D01*
X105457603Y-42448857D01*
X105270856Y-42972302D01*
X101040000Y-42972302D01*
X101040000Y-42199787D01*
X105879392Y-42199787D01*
X106680000Y-43000395D01*
X107480608Y-42199787D01*
X107411143Y-41957603D01*
X106887698Y-41770856D01*
X106332632Y-41798638D01*
X105948857Y-41957603D01*
X105879392Y-42199787D01*
X101040000Y-42199787D01*
X101040000Y-40116197D01*
X101056600Y-40156372D01*
X102078249Y-41179806D01*
X103413782Y-41734368D01*
X104859874Y-41735630D01*
X106196372Y-41183400D01*
X107219806Y-40161751D01*
X107774368Y-38826218D01*
X107775630Y-37380126D01*
X107223400Y-36043628D01*
X107083708Y-35903691D01*
X130645000Y-35903691D01*
X130645000Y-36544250D01*
X130803750Y-36703000D01*
X131953000Y-36703000D01*
X131953000Y-35553750D01*
X132207000Y-35553750D01*
X132207000Y-36703000D01*
X133356250Y-36703000D01*
X133515000Y-36544250D01*
X133515000Y-35903691D01*
X133418327Y-35670302D01*
X133239699Y-35491673D01*
X133006310Y-35395000D01*
X132365750Y-35395000D01*
X132207000Y-35553750D01*
X131953000Y-35553750D01*
X131794250Y-35395000D01*
X131153690Y-35395000D01*
X130920301Y-35491673D01*
X130741673Y-35670302D01*
X130645000Y-35903691D01*
X107083708Y-35903691D01*
X106201751Y-35020194D01*
X106153118Y-35000000D01*
X145142897Y-35000000D01*
X143079199Y-37063699D01*
M02*
