%FSLAX45Y45*%
G04 Gerber Fmt 4.5, Leading zero omitted, Abs format (unit mm)*
G04 Created by KiCad (PCBNEW 4.0.7-e2-6376~58~ubuntu16.04.1) date Tue May  1 20:05:16 2018*
%MOMM*%
%LPD*%
G01*
G04 APERTURE LIST*
%ADD10C,0.127000*%
%ADD11C,0.150000*%
%ADD12C,0.200000*%
%ADD13C,0.300000*%
G04 APERTURE END LIST*
D10*
D11*
X10033000Y-10414000D02*
G75*
G03X10414000Y-10795000I381000J0D01*
G01*
X18034000Y-10795000D02*
G75*
G03X18415000Y-10414000I0J381000D01*
G01*
X18415000Y-3810000D02*
G75*
G03X18034000Y-3429000I-381000J0D01*
G01*
X10414000Y-3429000D02*
G75*
G03X10033000Y-3810000I0J-381000D01*
G01*
X18034000Y-10795000D02*
X10414000Y-10795000D01*
X10414000Y-3429000D02*
X18034000Y-3429000D01*
X18415000Y-10414000D02*
X18415000Y-3810000D01*
X10033000Y-3810000D02*
X10033000Y-10414000D01*
D12*
X11419000Y-3681000D02*
X11459000Y-3721000D01*
X11459000Y-3681000D02*
X11419000Y-3721000D01*
X11683670Y-3681050D02*
X11723670Y-3721050D01*
X11723670Y-3681050D02*
X11683670Y-3721050D01*
X11983510Y-9117390D02*
X12023510Y-9157390D01*
X12023510Y-9117390D02*
X11983510Y-9157390D01*
X11989290Y-3681150D02*
X12029290Y-3721150D01*
X12029290Y-3681150D02*
X11989290Y-3721150D01*
X11999050Y-5216310D02*
X12039050Y-5256310D01*
X12039050Y-5216310D02*
X11999050Y-5256310D01*
X12045000Y-5822000D02*
X12085000Y-5862000D01*
X12085000Y-5822000D02*
X12045000Y-5862000D01*
X12059030Y-9160970D02*
X12099030Y-9200970D01*
X12099030Y-9160970D02*
X12059030Y-9200970D01*
X12237760Y-9267070D02*
X12277760Y-9307070D01*
X12277760Y-9267070D02*
X12237760Y-9307070D01*
X12303670Y-9330970D02*
X12343670Y-9370970D01*
X12343670Y-9330970D02*
X12303670Y-9370970D01*
X12398820Y-8991170D02*
X12438820Y-9031170D01*
X12438820Y-8991170D02*
X12398820Y-9031170D01*
X12791730Y-6594700D02*
X12831730Y-6634700D01*
X12831730Y-6594700D02*
X12791730Y-6634700D01*
X12898670Y-6685900D02*
X12938670Y-6725900D01*
X12938670Y-6685900D02*
X12898670Y-6725900D01*
X12934980Y-6556730D02*
X12974980Y-6596730D01*
X12974980Y-6556730D02*
X12934980Y-6596730D01*
X13315000Y-6904100D02*
X13355000Y-6944100D01*
X13355000Y-6904100D02*
X13315000Y-6944100D01*
X14881430Y-6796360D02*
X14921430Y-6836360D01*
X14921430Y-6796360D02*
X14881430Y-6836360D01*
X15393090Y-5682700D02*
X15433090Y-5722700D01*
X15433090Y-5682700D02*
X15393090Y-5722700D01*
X16139170Y-8137500D02*
X16179170Y-8177500D01*
X16179170Y-8137500D02*
X16139170Y-8177500D01*
X10706100Y-4318000D02*
G75*
G03X10706100Y-4318000I-38100J0D01*
G01*
X10706100Y-4572000D02*
G75*
G03X10706100Y-4572000I-38100J0D01*
G01*
X10706100Y-4826000D02*
G75*
G03X10706100Y-4826000I-38100J0D01*
G01*
X10706100Y-5080000D02*
G75*
G03X10706100Y-5080000I-38100J0D01*
G01*
X10706100Y-5334000D02*
G75*
G03X10706100Y-5334000I-38100J0D01*
G01*
X10706100Y-5588000D02*
G75*
G03X10706100Y-5588000I-38100J0D01*
G01*
X12738100Y-4318000D02*
G75*
G03X12738100Y-4318000I-38100J0D01*
G01*
X12738100Y-4572000D02*
G75*
G03X12738100Y-4572000I-38100J0D01*
G01*
X12738100Y-4826000D02*
G75*
G03X12738100Y-4826000I-38100J0D01*
G01*
X12738100Y-5080000D02*
G75*
G03X12738100Y-5080000I-38100J0D01*
G01*
X12738100Y-5334000D02*
G75*
G03X12738100Y-5334000I-38100J0D01*
G01*
X12738100Y-5588000D02*
G75*
G03X12738100Y-5588000I-38100J0D01*
G01*
X16510000Y-5552000D02*
X16510000Y-5632000D01*
X16470000Y-5592000D02*
X16550000Y-5592000D01*
X16510000Y-5802000D02*
X16510000Y-5882000D01*
X16470000Y-5842000D02*
X16550000Y-5842000D01*
X17657000Y-4786000D02*
X17657000Y-4866000D01*
X17617000Y-4826000D02*
X17697000Y-4826000D01*
X17907000Y-4786000D02*
X17907000Y-4866000D01*
X17867000Y-4826000D02*
X17947000Y-4826000D01*
X15741638Y-4283138D02*
X15741638Y-4225862D01*
X15684362Y-4225862D01*
X15684362Y-4283138D01*
X15741638Y-4283138D01*
X15741638Y-4483138D02*
X15741638Y-4425862D01*
X15684362Y-4425862D01*
X15684362Y-4483138D01*
X15741638Y-4483138D01*
X15995638Y-4283138D02*
X15995638Y-4225862D01*
X15938362Y-4225862D01*
X15938362Y-4283138D01*
X15995638Y-4283138D01*
X15995638Y-4483138D02*
X15995638Y-4425862D01*
X15938362Y-4425862D01*
X15938362Y-4483138D01*
X15995638Y-4483138D01*
X11430000Y-9824000D02*
X11475000Y-9779000D01*
X11430000Y-9734000D01*
X11385000Y-9779000D01*
X11430000Y-9824000D01*
X11557000Y-9570000D02*
X11602000Y-9525000D01*
X11557000Y-9480000D01*
X11512000Y-9525000D01*
X11557000Y-9570000D01*
X11684000Y-9824000D02*
X11729000Y-9779000D01*
X11684000Y-9734000D01*
X11639000Y-9779000D01*
X11684000Y-9824000D01*
X11811000Y-9570000D02*
X11856000Y-9525000D01*
X11811000Y-9480000D01*
X11766000Y-9525000D01*
X11811000Y-9570000D01*
X11938000Y-9824000D02*
X11983000Y-9779000D01*
X11938000Y-9734000D01*
X11893000Y-9779000D01*
X11938000Y-9824000D01*
X12065000Y-9570000D02*
X12110000Y-9525000D01*
X12065000Y-9480000D01*
X12020000Y-9525000D01*
X12065000Y-9570000D01*
X12192000Y-9824000D02*
X12237000Y-9779000D01*
X12192000Y-9734000D01*
X12147000Y-9779000D01*
X12192000Y-9824000D01*
X12319000Y-9570000D02*
X12364000Y-9525000D01*
X12319000Y-9480000D01*
X12274000Y-9525000D01*
X12319000Y-9570000D01*
X13208000Y-9824000D02*
X13253000Y-9779000D01*
X13208000Y-9734000D01*
X13163000Y-9779000D01*
X13208000Y-9824000D01*
X13335000Y-9570000D02*
X13380000Y-9525000D01*
X13335000Y-9480000D01*
X13290000Y-9525000D01*
X13335000Y-9570000D01*
X13462000Y-9824000D02*
X13507000Y-9779000D01*
X13462000Y-9734000D01*
X13417000Y-9779000D01*
X13462000Y-9824000D01*
X13589000Y-9570000D02*
X13634000Y-9525000D01*
X13589000Y-9480000D01*
X13544000Y-9525000D01*
X13589000Y-9570000D01*
X13716000Y-9824000D02*
X13761000Y-9779000D01*
X13716000Y-9734000D01*
X13671000Y-9779000D01*
X13716000Y-9824000D01*
X13843000Y-9570000D02*
X13888000Y-9525000D01*
X13843000Y-9480000D01*
X13798000Y-9525000D01*
X13843000Y-9570000D01*
X13970000Y-9824000D02*
X14015000Y-9779000D01*
X13970000Y-9734000D01*
X13925000Y-9779000D01*
X13970000Y-9824000D01*
X14097000Y-9570000D02*
X14142000Y-9525000D01*
X14097000Y-9480000D01*
X14052000Y-9525000D01*
X14097000Y-9570000D01*
X18165000Y-6233500D02*
X18264000Y-6332500D01*
X18264000Y-6233500D02*
X18165000Y-6332500D01*
X18264000Y-6283000D02*
G75*
G03X18264000Y-6283000I-49500J0D01*
G01*
X18165000Y-6683500D02*
X18264000Y-6782500D01*
X18264000Y-6683500D02*
X18165000Y-6782500D01*
X18264000Y-6733000D02*
G75*
G03X18264000Y-6733000I-49500J0D01*
G01*
X18165000Y-7249500D02*
X18264000Y-7348500D01*
X18264000Y-7249500D02*
X18165000Y-7348500D01*
X18264000Y-7299000D02*
G75*
G03X18264000Y-7299000I-49500J0D01*
G01*
X18165000Y-7699500D02*
X18264000Y-7798500D01*
X18264000Y-7699500D02*
X18165000Y-7798500D01*
X18264000Y-7749000D02*
G75*
G03X18264000Y-7749000I-49500J0D01*
G01*
X18165000Y-8265500D02*
X18264000Y-8364500D01*
X18264000Y-8265500D02*
X18165000Y-8364500D01*
X18264000Y-8315000D02*
G75*
G03X18264000Y-8315000I-49500J0D01*
G01*
X18165000Y-8715500D02*
X18264000Y-8814500D01*
X18264000Y-8715500D02*
X18165000Y-8814500D01*
X18264000Y-8765000D02*
G75*
G03X18264000Y-8765000I-49500J0D01*
G01*
X18175000Y-9279500D02*
X18274000Y-9378500D01*
X18274000Y-9279500D02*
X18175000Y-9378500D01*
X18274000Y-9329000D02*
G75*
G03X18274000Y-9329000I-49500J0D01*
G01*
X18175000Y-9729500D02*
X18274000Y-9828500D01*
X18274000Y-9729500D02*
X18175000Y-9828500D01*
X18274000Y-9779000D02*
G75*
G03X18274000Y-9779000I-49500J0D01*
G01*
X15190000Y-5411000D02*
X15290000Y-5511000D01*
X15290000Y-5411000D02*
X15190000Y-5511000D01*
X15240000Y-5411000D02*
X15240000Y-5511000D01*
X15190000Y-5461000D02*
X15290000Y-5461000D01*
X15444000Y-5411000D02*
X15544000Y-5511000D01*
X15544000Y-5411000D02*
X15444000Y-5511000D01*
X15494000Y-5411000D02*
X15494000Y-5511000D01*
X15444000Y-5461000D02*
X15544000Y-5461000D01*
X15698000Y-5411000D02*
X15798000Y-5511000D01*
X15798000Y-5411000D02*
X15698000Y-5511000D01*
X15748000Y-5411000D02*
X15748000Y-5511000D01*
X15698000Y-5461000D02*
X15798000Y-5461000D01*
X16014000Y-6744000D02*
X16114000Y-6844000D01*
X16114000Y-6744000D02*
X16014000Y-6844000D01*
X16064000Y-6744000D02*
X16064000Y-6844000D01*
X16014000Y-6794000D02*
X16114000Y-6794000D01*
X16014000Y-6994000D02*
X16114000Y-7094000D01*
X16114000Y-6994000D02*
X16014000Y-7094000D01*
X16064000Y-6994000D02*
X16064000Y-7094000D01*
X16014000Y-7044000D02*
X16114000Y-7044000D01*
X16014000Y-7244000D02*
X16114000Y-7344000D01*
X16114000Y-7244000D02*
X16014000Y-7344000D01*
X16064000Y-7244000D02*
X16064000Y-7344000D01*
X16014000Y-7294000D02*
X16114000Y-7294000D01*
X16014000Y-8912000D02*
X16114000Y-9012000D01*
X16114000Y-8912000D02*
X16014000Y-9012000D01*
X16064000Y-8912000D02*
X16064000Y-9012000D01*
X16014000Y-8962000D02*
X16114000Y-8962000D01*
X16014000Y-9162000D02*
X16114000Y-9262000D01*
X16114000Y-9162000D02*
X16014000Y-9262000D01*
X16064000Y-9162000D02*
X16064000Y-9262000D01*
X16014000Y-9212000D02*
X16114000Y-9212000D01*
X16014000Y-9412000D02*
X16114000Y-9512000D01*
X16114000Y-9412000D02*
X16014000Y-9512000D01*
X16064000Y-9412000D02*
X16064000Y-9512000D01*
X16014000Y-9462000D02*
X16114000Y-9462000D01*
X13153000Y-3628000D02*
X13263000Y-3738000D01*
X13263000Y-3628000D02*
X13153000Y-3738000D01*
X13246891Y-3721891D02*
X13246891Y-3644109D01*
X13169109Y-3644109D01*
X13169109Y-3721891D01*
X13246891Y-3721891D01*
X13153000Y-3882000D02*
X13263000Y-3992000D01*
X13263000Y-3882000D02*
X13153000Y-3992000D01*
X13246891Y-3975891D02*
X13246891Y-3898109D01*
X13169109Y-3898109D01*
X13169109Y-3975891D01*
X13246891Y-3975891D01*
X13153000Y-4136000D02*
X13263000Y-4246000D01*
X13263000Y-4136000D02*
X13153000Y-4246000D01*
X13246891Y-4229891D02*
X13246891Y-4152109D01*
X13169109Y-4152109D01*
X13169109Y-4229891D01*
X13246891Y-4229891D01*
X13153000Y-4390000D02*
X13263000Y-4500000D01*
X13263000Y-4390000D02*
X13153000Y-4500000D01*
X13246891Y-4483891D02*
X13246891Y-4406109D01*
X13169109Y-4406109D01*
X13169109Y-4483891D01*
X13246891Y-4483891D01*
X13153000Y-4644000D02*
X13263000Y-4754000D01*
X13263000Y-4644000D02*
X13153000Y-4754000D01*
X13246891Y-4737891D02*
X13246891Y-4660109D01*
X13169109Y-4660109D01*
X13169109Y-4737891D01*
X13246891Y-4737891D01*
X13153000Y-4898000D02*
X13263000Y-5008000D01*
X13263000Y-4898000D02*
X13153000Y-5008000D01*
X13246891Y-4991891D02*
X13246891Y-4914109D01*
X13169109Y-4914109D01*
X13169109Y-4991891D01*
X13246891Y-4991891D01*
X13153000Y-5152000D02*
X13263000Y-5262000D01*
X13263000Y-5152000D02*
X13153000Y-5262000D01*
X13246891Y-5245891D02*
X13246891Y-5168109D01*
X13169109Y-5168109D01*
X13169109Y-5245891D01*
X13246891Y-5245891D01*
X13153000Y-5406000D02*
X13263000Y-5516000D01*
X13263000Y-5406000D02*
X13153000Y-5516000D01*
X13246891Y-5499891D02*
X13246891Y-5422109D01*
X13169109Y-5422109D01*
X13169109Y-5499891D01*
X13246891Y-5499891D01*
X13153000Y-5660000D02*
X13263000Y-5770000D01*
X13263000Y-5660000D02*
X13153000Y-5770000D01*
X13246891Y-5753891D02*
X13246891Y-5676109D01*
X13169109Y-5676109D01*
X13169109Y-5753891D01*
X13246891Y-5753891D01*
X13153000Y-5914000D02*
X13263000Y-6024000D01*
X13263000Y-5914000D02*
X13153000Y-6024000D01*
X13246891Y-6007891D02*
X13246891Y-5930109D01*
X13169109Y-5930109D01*
X13169109Y-6007891D01*
X13246891Y-6007891D01*
X13153000Y-6168000D02*
X13263000Y-6278000D01*
X13263000Y-6168000D02*
X13153000Y-6278000D01*
X13246891Y-6261891D02*
X13246891Y-6184109D01*
X13169109Y-6184109D01*
X13169109Y-6261891D01*
X13246891Y-6261891D01*
X13153000Y-6422000D02*
X13263000Y-6532000D01*
X13263000Y-6422000D02*
X13153000Y-6532000D01*
X13246891Y-6515891D02*
X13246891Y-6438109D01*
X13169109Y-6438109D01*
X13169109Y-6515891D01*
X13246891Y-6515891D01*
X13153000Y-6676000D02*
X13263000Y-6786000D01*
X13263000Y-6676000D02*
X13153000Y-6786000D01*
X13246891Y-6769891D02*
X13246891Y-6692109D01*
X13169109Y-6692109D01*
X13169109Y-6769891D01*
X13246891Y-6769891D01*
X13153000Y-6930000D02*
X13263000Y-7040000D01*
X13263000Y-6930000D02*
X13153000Y-7040000D01*
X13246891Y-7023891D02*
X13246891Y-6946109D01*
X13169109Y-6946109D01*
X13169109Y-7023891D01*
X13246891Y-7023891D01*
X13407000Y-6930000D02*
X13517000Y-7040000D01*
X13517000Y-6930000D02*
X13407000Y-7040000D01*
X13500891Y-7023891D02*
X13500891Y-6946109D01*
X13423109Y-6946109D01*
X13423109Y-7023891D01*
X13500891Y-7023891D01*
X13661000Y-6930000D02*
X13771000Y-7040000D01*
X13771000Y-6930000D02*
X13661000Y-7040000D01*
X13754891Y-7023891D02*
X13754891Y-6946109D01*
X13677109Y-6946109D01*
X13677109Y-7023891D01*
X13754891Y-7023891D01*
X13915000Y-5152000D02*
X14025000Y-5262000D01*
X14025000Y-5152000D02*
X13915000Y-5262000D01*
X14008891Y-5245891D02*
X14008891Y-5168109D01*
X13931109Y-5168109D01*
X13931109Y-5245891D01*
X14008891Y-5245891D01*
X13915000Y-5406000D02*
X14025000Y-5516000D01*
X14025000Y-5406000D02*
X13915000Y-5516000D01*
X14008891Y-5499891D02*
X14008891Y-5422109D01*
X13931109Y-5422109D01*
X13931109Y-5499891D01*
X14008891Y-5499891D01*
X13915000Y-5660000D02*
X14025000Y-5770000D01*
X14025000Y-5660000D02*
X13915000Y-5770000D01*
X14008891Y-5753891D02*
X14008891Y-5676109D01*
X13931109Y-5676109D01*
X13931109Y-5753891D01*
X14008891Y-5753891D01*
X13915000Y-5914000D02*
X14025000Y-6024000D01*
X14025000Y-5914000D02*
X13915000Y-6024000D01*
X14008891Y-6007891D02*
X14008891Y-5930109D01*
X13931109Y-5930109D01*
X13931109Y-6007891D01*
X14008891Y-6007891D01*
X13915000Y-6168000D02*
X14025000Y-6278000D01*
X14025000Y-6168000D02*
X13915000Y-6278000D01*
X14008891Y-6261891D02*
X14008891Y-6184109D01*
X13931109Y-6184109D01*
X13931109Y-6261891D01*
X14008891Y-6261891D01*
X13915000Y-6422000D02*
X14025000Y-6532000D01*
X14025000Y-6422000D02*
X13915000Y-6532000D01*
X14008891Y-6515891D02*
X14008891Y-6438109D01*
X13931109Y-6438109D01*
X13931109Y-6515891D01*
X14008891Y-6515891D01*
X13915000Y-6676000D02*
X14025000Y-6786000D01*
X14025000Y-6676000D02*
X13915000Y-6786000D01*
X14008891Y-6769891D02*
X14008891Y-6692109D01*
X13931109Y-6692109D01*
X13931109Y-6769891D01*
X14008891Y-6769891D01*
X13915000Y-6930000D02*
X14025000Y-7040000D01*
X14025000Y-6930000D02*
X13915000Y-7040000D01*
X14008891Y-7023891D02*
X14008891Y-6946109D01*
X13931109Y-6946109D01*
X13931109Y-7023891D01*
X14008891Y-7023891D01*
X14169000Y-5152000D02*
X14279000Y-5262000D01*
X14279000Y-5152000D02*
X14169000Y-5262000D01*
X14262891Y-5245891D02*
X14262891Y-5168109D01*
X14185109Y-5168109D01*
X14185109Y-5245891D01*
X14262891Y-5245891D01*
X14169000Y-5406000D02*
X14279000Y-5516000D01*
X14279000Y-5406000D02*
X14169000Y-5516000D01*
X14262891Y-5499891D02*
X14262891Y-5422109D01*
X14185109Y-5422109D01*
X14185109Y-5499891D01*
X14262891Y-5499891D01*
X14169000Y-5660000D02*
X14279000Y-5770000D01*
X14279000Y-5660000D02*
X14169000Y-5770000D01*
X14262891Y-5753891D02*
X14262891Y-5676109D01*
X14185109Y-5676109D01*
X14185109Y-5753891D01*
X14262891Y-5753891D01*
X14169000Y-5914000D02*
X14279000Y-6024000D01*
X14279000Y-5914000D02*
X14169000Y-6024000D01*
X14262891Y-6007891D02*
X14262891Y-5930109D01*
X14185109Y-5930109D01*
X14185109Y-6007891D01*
X14262891Y-6007891D01*
X14169000Y-6168000D02*
X14279000Y-6278000D01*
X14279000Y-6168000D02*
X14169000Y-6278000D01*
X14262891Y-6261891D02*
X14262891Y-6184109D01*
X14185109Y-6184109D01*
X14185109Y-6261891D01*
X14262891Y-6261891D01*
X14169000Y-6422000D02*
X14279000Y-6532000D01*
X14279000Y-6422000D02*
X14169000Y-6532000D01*
X14262891Y-6515891D02*
X14262891Y-6438109D01*
X14185109Y-6438109D01*
X14185109Y-6515891D01*
X14262891Y-6515891D01*
X14169000Y-6676000D02*
X14279000Y-6786000D01*
X14279000Y-6676000D02*
X14169000Y-6786000D01*
X14262891Y-6769891D02*
X14262891Y-6692109D01*
X14185109Y-6692109D01*
X14185109Y-6769891D01*
X14262891Y-6769891D01*
X14169000Y-6930000D02*
X14279000Y-7040000D01*
X14279000Y-6930000D02*
X14169000Y-7040000D01*
X14262891Y-7023891D02*
X14262891Y-6946109D01*
X14185109Y-6946109D01*
X14185109Y-7023891D01*
X14262891Y-7023891D01*
X14423000Y-3882000D02*
X14533000Y-3992000D01*
X14533000Y-3882000D02*
X14423000Y-3992000D01*
X14516891Y-3975891D02*
X14516891Y-3898109D01*
X14439109Y-3898109D01*
X14439109Y-3975891D01*
X14516891Y-3975891D01*
X14423000Y-4390000D02*
X14533000Y-4500000D01*
X14533000Y-4390000D02*
X14423000Y-4500000D01*
X14516891Y-4483891D02*
X14516891Y-4406109D01*
X14439109Y-4406109D01*
X14439109Y-4483891D01*
X14516891Y-4483891D01*
X14423000Y-4644000D02*
X14533000Y-4754000D01*
X14533000Y-4644000D02*
X14423000Y-4754000D01*
X14516891Y-4737891D02*
X14516891Y-4660109D01*
X14439109Y-4660109D01*
X14439109Y-4737891D01*
X14516891Y-4737891D01*
X14423000Y-4898000D02*
X14533000Y-5008000D01*
X14533000Y-4898000D02*
X14423000Y-5008000D01*
X14516891Y-4991891D02*
X14516891Y-4914109D01*
X14439109Y-4914109D01*
X14439109Y-4991891D01*
X14516891Y-4991891D01*
X14423000Y-6930000D02*
X14533000Y-7040000D01*
X14533000Y-6930000D02*
X14423000Y-7040000D01*
X14516891Y-7023891D02*
X14516891Y-6946109D01*
X14439109Y-6946109D01*
X14439109Y-7023891D01*
X14516891Y-7023891D01*
X14677000Y-3628000D02*
X14787000Y-3738000D01*
X14787000Y-3628000D02*
X14677000Y-3738000D01*
X14770891Y-3721891D02*
X14770891Y-3644109D01*
X14693109Y-3644109D01*
X14693109Y-3721891D01*
X14770891Y-3721891D01*
X14677000Y-3882000D02*
X14787000Y-3992000D01*
X14787000Y-3882000D02*
X14677000Y-3992000D01*
X14770891Y-3975891D02*
X14770891Y-3898109D01*
X14693109Y-3898109D01*
X14693109Y-3975891D01*
X14770891Y-3975891D01*
X14677000Y-4136000D02*
X14787000Y-4246000D01*
X14787000Y-4136000D02*
X14677000Y-4246000D01*
X14770891Y-4229891D02*
X14770891Y-4152109D01*
X14693109Y-4152109D01*
X14693109Y-4229891D01*
X14770891Y-4229891D01*
X14677000Y-4390000D02*
X14787000Y-4500000D01*
X14787000Y-4390000D02*
X14677000Y-4500000D01*
X14770891Y-4483891D02*
X14770891Y-4406109D01*
X14693109Y-4406109D01*
X14693109Y-4483891D01*
X14770891Y-4483891D01*
X14677000Y-4644000D02*
X14787000Y-4754000D01*
X14787000Y-4644000D02*
X14677000Y-4754000D01*
X14770891Y-4737891D02*
X14770891Y-4660109D01*
X14693109Y-4660109D01*
X14693109Y-4737891D01*
X14770891Y-4737891D01*
X14677000Y-4898000D02*
X14787000Y-5008000D01*
X14787000Y-4898000D02*
X14677000Y-5008000D01*
X14770891Y-4991891D02*
X14770891Y-4914109D01*
X14693109Y-4914109D01*
X14693109Y-4991891D01*
X14770891Y-4991891D01*
X14677000Y-5152000D02*
X14787000Y-5262000D01*
X14787000Y-5152000D02*
X14677000Y-5262000D01*
X14770891Y-5245891D02*
X14770891Y-5168109D01*
X14693109Y-5168109D01*
X14693109Y-5245891D01*
X14770891Y-5245891D01*
X14677000Y-5406000D02*
X14787000Y-5516000D01*
X14787000Y-5406000D02*
X14677000Y-5516000D01*
X14770891Y-5499891D02*
X14770891Y-5422109D01*
X14693109Y-5422109D01*
X14693109Y-5499891D01*
X14770891Y-5499891D01*
X14677000Y-5660000D02*
X14787000Y-5770000D01*
X14787000Y-5660000D02*
X14677000Y-5770000D01*
X14770891Y-5753891D02*
X14770891Y-5676109D01*
X14693109Y-5676109D01*
X14693109Y-5753891D01*
X14770891Y-5753891D01*
X14677000Y-5914000D02*
X14787000Y-6024000D01*
X14787000Y-5914000D02*
X14677000Y-6024000D01*
X14770891Y-6007891D02*
X14770891Y-5930109D01*
X14693109Y-5930109D01*
X14693109Y-6007891D01*
X14770891Y-6007891D01*
X14677000Y-6168000D02*
X14787000Y-6278000D01*
X14787000Y-6168000D02*
X14677000Y-6278000D01*
X14770891Y-6261891D02*
X14770891Y-6184109D01*
X14693109Y-6184109D01*
X14693109Y-6261891D01*
X14770891Y-6261891D01*
X14677000Y-6422000D02*
X14787000Y-6532000D01*
X14787000Y-6422000D02*
X14677000Y-6532000D01*
X14770891Y-6515891D02*
X14770891Y-6438109D01*
X14693109Y-6438109D01*
X14693109Y-6515891D01*
X14770891Y-6515891D01*
X14677000Y-6676000D02*
X14787000Y-6786000D01*
X14787000Y-6676000D02*
X14677000Y-6786000D01*
X14770891Y-6769891D02*
X14770891Y-6692109D01*
X14693109Y-6692109D01*
X14693109Y-6769891D01*
X14770891Y-6769891D01*
X14677000Y-6930000D02*
X14787000Y-7040000D01*
X14787000Y-6930000D02*
X14677000Y-7040000D01*
X14770891Y-7023891D02*
X14770891Y-6946109D01*
X14693109Y-6946109D01*
X14693109Y-7023891D01*
X14770891Y-7023891D01*
X10354000Y-6417000D02*
X10474000Y-6537000D01*
X10474000Y-6417000D02*
X10354000Y-6537000D01*
X10414000Y-6537000D02*
X10474000Y-6477000D01*
X10414000Y-6417000D01*
X10354000Y-6477000D01*
X10414000Y-6537000D01*
X10354000Y-6671000D02*
X10474000Y-6791000D01*
X10474000Y-6671000D02*
X10354000Y-6791000D01*
X10414000Y-6791000D02*
X10474000Y-6731000D01*
X10414000Y-6671000D01*
X10354000Y-6731000D01*
X10414000Y-6791000D01*
X10354000Y-6925000D02*
X10474000Y-7045000D01*
X10474000Y-6925000D02*
X10354000Y-7045000D01*
X10414000Y-7045000D02*
X10474000Y-6985000D01*
X10414000Y-6925000D01*
X10354000Y-6985000D01*
X10414000Y-7045000D01*
X10354000Y-7179000D02*
X10474000Y-7299000D01*
X10474000Y-7179000D02*
X10354000Y-7299000D01*
X10414000Y-7299000D02*
X10474000Y-7239000D01*
X10414000Y-7179000D01*
X10354000Y-7239000D01*
X10414000Y-7299000D01*
X10354000Y-7687000D02*
X10474000Y-7807000D01*
X10474000Y-7687000D02*
X10354000Y-7807000D01*
X10414000Y-7807000D02*
X10474000Y-7747000D01*
X10414000Y-7687000D01*
X10354000Y-7747000D01*
X10414000Y-7807000D01*
X10354000Y-7941000D02*
X10474000Y-8061000D01*
X10474000Y-7941000D02*
X10354000Y-8061000D01*
X10414000Y-8061000D02*
X10474000Y-8001000D01*
X10414000Y-7941000D01*
X10354000Y-8001000D01*
X10414000Y-8061000D01*
X10354000Y-8195000D02*
X10474000Y-8315000D01*
X10474000Y-8195000D02*
X10354000Y-8315000D01*
X10414000Y-8315000D02*
X10474000Y-8255000D01*
X10414000Y-8195000D01*
X10354000Y-8255000D01*
X10414000Y-8315000D01*
X10354000Y-8449000D02*
X10474000Y-8569000D01*
X10474000Y-8449000D02*
X10354000Y-8569000D01*
X10414000Y-8569000D02*
X10474000Y-8509000D01*
X10414000Y-8449000D01*
X10354000Y-8509000D01*
X10414000Y-8569000D01*
X10354000Y-8932020D02*
X10474000Y-9052020D01*
X10474000Y-8932020D02*
X10354000Y-9052020D01*
X10414000Y-9052020D02*
X10474000Y-8992020D01*
X10414000Y-8932020D01*
X10354000Y-8992020D01*
X10414000Y-9052020D01*
X10354000Y-9186020D02*
X10474000Y-9306020D01*
X10474000Y-9186020D02*
X10354000Y-9306020D01*
X10414000Y-9306020D02*
X10474000Y-9246020D01*
X10414000Y-9186020D01*
X10354000Y-9246020D01*
X10414000Y-9306020D01*
X10354000Y-9440020D02*
X10474000Y-9560020D01*
X10474000Y-9440020D02*
X10354000Y-9560020D01*
X10414000Y-9560020D02*
X10474000Y-9500020D01*
X10414000Y-9440020D01*
X10354000Y-9500020D01*
X10414000Y-9560020D01*
X10354000Y-9694020D02*
X10474000Y-9814020D01*
X10474000Y-9694020D02*
X10354000Y-9814020D01*
X10414000Y-9814020D02*
X10474000Y-9754020D01*
X10414000Y-9694020D01*
X10354000Y-9754020D01*
X10414000Y-9814020D01*
X13529000Y-7877500D02*
X13649000Y-7997500D01*
X13649000Y-7877500D02*
X13529000Y-7997500D01*
X13589000Y-7997500D02*
X13649000Y-7937500D01*
X13589000Y-7877500D01*
X13529000Y-7937500D01*
X13589000Y-7997500D01*
X13783000Y-7877500D02*
X13903000Y-7997500D01*
X13903000Y-7877500D02*
X13783000Y-7997500D01*
X13843000Y-7997500D02*
X13903000Y-7937500D01*
X13843000Y-7877500D01*
X13783000Y-7937500D01*
X13843000Y-7997500D01*
X14037000Y-7877500D02*
X14157000Y-7997500D01*
X14157000Y-7877500D02*
X14037000Y-7997500D01*
X14097000Y-7997500D02*
X14157000Y-7937500D01*
X14097000Y-7877500D01*
X14037000Y-7937500D01*
X14097000Y-7997500D01*
X14291000Y-7877500D02*
X14411000Y-7997500D01*
X14411000Y-7877500D02*
X14291000Y-7997500D01*
X14351000Y-7997500D02*
X14411000Y-7937500D01*
X14351000Y-7877500D01*
X14291000Y-7937500D01*
X14351000Y-7997500D01*
X14672000Y-10354000D02*
X14792000Y-10474000D01*
X14792000Y-10354000D02*
X14672000Y-10474000D01*
X14732000Y-10474000D02*
X14792000Y-10414000D01*
X14732000Y-10354000D01*
X14672000Y-10414000D01*
X14732000Y-10474000D01*
X14926000Y-10354000D02*
X15046000Y-10474000D01*
X15046000Y-10354000D02*
X14926000Y-10474000D01*
X14986000Y-10474000D02*
X15046000Y-10414000D01*
X14986000Y-10354000D01*
X14926000Y-10414000D01*
X14986000Y-10474000D01*
X15180000Y-6671000D02*
X15300000Y-6791000D01*
X15300000Y-6671000D02*
X15180000Y-6791000D01*
X15240000Y-6791000D02*
X15300000Y-6731000D01*
X15240000Y-6671000D01*
X15180000Y-6731000D01*
X15240000Y-6791000D01*
X15180000Y-10354000D02*
X15300000Y-10474000D01*
X15300000Y-10354000D02*
X15180000Y-10474000D01*
X15240000Y-10474000D02*
X15300000Y-10414000D01*
X15240000Y-10354000D01*
X15180000Y-10414000D01*
X15240000Y-10474000D01*
X15434000Y-6671000D02*
X15554000Y-6791000D01*
X15554000Y-6671000D02*
X15434000Y-6791000D01*
X15494000Y-6791000D02*
X15554000Y-6731000D01*
X15494000Y-6671000D01*
X15434000Y-6731000D01*
X15494000Y-6791000D01*
X15434000Y-10354000D02*
X15554000Y-10474000D01*
X15554000Y-10354000D02*
X15434000Y-10474000D01*
X15494000Y-10474000D02*
X15554000Y-10414000D01*
X15494000Y-10354000D01*
X15434000Y-10414000D01*
X15494000Y-10474000D01*
X16958000Y-3750000D02*
X17078000Y-3870000D01*
X17078000Y-3750000D02*
X16958000Y-3870000D01*
X17018000Y-3870000D02*
X17078000Y-3810000D01*
X17018000Y-3750000D01*
X16958000Y-3810000D01*
X17018000Y-3870000D01*
X17212000Y-3750000D02*
X17332000Y-3870000D01*
X17332000Y-3750000D02*
X17212000Y-3870000D01*
X17272000Y-3870000D02*
X17332000Y-3810000D01*
X17272000Y-3750000D01*
X17212000Y-3810000D01*
X17272000Y-3870000D01*
X17965500Y-6093000D02*
X17965500Y-6223000D01*
X17900500Y-6158000D02*
X18030500Y-6158000D01*
X18030500Y-6158000D02*
G75*
G03X18030500Y-6158000I-65000J0D01*
G01*
X17965500Y-6794000D02*
X17965500Y-6924000D01*
X17900500Y-6859000D02*
X18030500Y-6859000D01*
X18030500Y-6859000D02*
G75*
G03X18030500Y-6859000I-65000J0D01*
G01*
X17965500Y-7109000D02*
X17965500Y-7239000D01*
X17900500Y-7174000D02*
X18030500Y-7174000D01*
X18030500Y-7174000D02*
G75*
G03X18030500Y-7174000I-65000J0D01*
G01*
X17965500Y-7810000D02*
X17965500Y-7940000D01*
X17900500Y-7875000D02*
X18030500Y-7875000D01*
X18030500Y-7875000D02*
G75*
G03X18030500Y-7875000I-65000J0D01*
G01*
X17965500Y-8125000D02*
X17965500Y-8255000D01*
X17900500Y-8190000D02*
X18030500Y-8190000D01*
X18030500Y-8190000D02*
G75*
G03X18030500Y-8190000I-65000J0D01*
G01*
X17965500Y-8826000D02*
X17965500Y-8956000D01*
X17900500Y-8891000D02*
X18030500Y-8891000D01*
X18030500Y-8891000D02*
G75*
G03X18030500Y-8891000I-65000J0D01*
G01*
X17975500Y-9139000D02*
X17975500Y-9269000D01*
X17910500Y-9204000D02*
X18040500Y-9204000D01*
X18040500Y-9204000D02*
G75*
G03X18040500Y-9204000I-65000J0D01*
G01*
X17975500Y-9840000D02*
X17975500Y-9970000D01*
X17910500Y-9905000D02*
X18040500Y-9905000D01*
X18040500Y-9905000D02*
G75*
G03X18040500Y-9905000I-65000J0D01*
G01*
X15321318Y-4065818D02*
X15321318Y-3903182D01*
X15158682Y-3903182D01*
X15158682Y-4065818D01*
X15321318Y-4065818D01*
X15355000Y-3984500D02*
G75*
G03X15355000Y-3984500I-115000J0D01*
G01*
X16521318Y-4065818D02*
X16521318Y-3903182D01*
X16358682Y-3903182D01*
X16358682Y-4065818D01*
X16521318Y-4065818D01*
X16555000Y-3984500D02*
G75*
G03X16555000Y-3984500I-115000J0D01*
G01*
X10414000Y-3960000D02*
X10564000Y-3810000D01*
X10414000Y-3660000D01*
X10264000Y-3810000D01*
X10414000Y-3960000D01*
X10564000Y-3810000D02*
G75*
G03X10564000Y-3810000I-150000J0D01*
G01*
X10414000Y-10564000D02*
X10564000Y-10414000D01*
X10414000Y-10264000D01*
X10264000Y-10414000D01*
X10414000Y-10564000D01*
X10564000Y-10414000D02*
G75*
G03X10564000Y-10414000I-150000J0D01*
G01*
X18034000Y-3960000D02*
X18184000Y-3810000D01*
X18034000Y-3660000D01*
X17884000Y-3810000D01*
X18034000Y-3960000D01*
X18184000Y-3810000D02*
G75*
G03X18184000Y-3810000I-150000J0D01*
G01*
X18034000Y-10564000D02*
X18184000Y-10414000D01*
X18034000Y-10264000D01*
X17884000Y-10414000D01*
X18034000Y-10564000D01*
X18184000Y-10414000D02*
G75*
G03X18184000Y-10414000I-150000J0D01*
G01*
D13*
X10296929Y-11268214D02*
X10296929Y-10968214D01*
X10368357Y-10968214D01*
X10411214Y-10982500D01*
X10439786Y-11011072D01*
X10454071Y-11039643D01*
X10468357Y-11096786D01*
X10468357Y-11139643D01*
X10454071Y-11196786D01*
X10439786Y-11225357D01*
X10411214Y-11253929D01*
X10368357Y-11268214D01*
X10296929Y-11268214D01*
X10596929Y-11268214D02*
X10596929Y-11068214D01*
X10596929Y-11125357D02*
X10611214Y-11096786D01*
X10625500Y-11082500D01*
X10654071Y-11068214D01*
X10682643Y-11068214D01*
X10782643Y-11268214D02*
X10782643Y-11068214D01*
X10782643Y-10968214D02*
X10768357Y-10982500D01*
X10782643Y-10996786D01*
X10796929Y-10982500D01*
X10782643Y-10968214D01*
X10782643Y-10996786D01*
X10968357Y-11268214D02*
X10939786Y-11253929D01*
X10925500Y-11225357D01*
X10925500Y-10968214D01*
X11125500Y-11268214D02*
X11096929Y-11253929D01*
X11082643Y-11225357D01*
X11082643Y-10968214D01*
X11468357Y-11268214D02*
X11468357Y-10968214D01*
X11568357Y-11182500D01*
X11668357Y-10968214D01*
X11668357Y-11268214D01*
X11939786Y-11268214D02*
X11939786Y-11111072D01*
X11925500Y-11082500D01*
X11896928Y-11068214D01*
X11839786Y-11068214D01*
X11811214Y-11082500D01*
X11939786Y-11253929D02*
X11911214Y-11268214D01*
X11839786Y-11268214D01*
X11811214Y-11253929D01*
X11796928Y-11225357D01*
X11796928Y-11196786D01*
X11811214Y-11168214D01*
X11839786Y-11153929D01*
X11911214Y-11153929D01*
X11939786Y-11139643D01*
X12082643Y-11068214D02*
X12082643Y-11368214D01*
X12082643Y-11082500D02*
X12111214Y-11068214D01*
X12168357Y-11068214D01*
X12196928Y-11082500D01*
X12211214Y-11096786D01*
X12225500Y-11125357D01*
X12225500Y-11211071D01*
X12211214Y-11239643D01*
X12196928Y-11253929D01*
X12168357Y-11268214D01*
X12111214Y-11268214D01*
X12082643Y-11253929D01*
X12354071Y-11239643D02*
X12368357Y-11253929D01*
X12354071Y-11268214D01*
X12339786Y-11253929D01*
X12354071Y-11239643D01*
X12354071Y-11268214D01*
X12354071Y-11082500D02*
X12368357Y-11096786D01*
X12354071Y-11111072D01*
X12339786Y-11096786D01*
X12354071Y-11082500D01*
X12354071Y-11111072D01*
X9985500Y-11742500D02*
X10025500Y-11782500D01*
X10025500Y-11742500D02*
X9985500Y-11782500D01*
X10354071Y-11598214D02*
X10382643Y-11598214D01*
X10411214Y-11612500D01*
X10425500Y-11626786D01*
X10439786Y-11655357D01*
X10454071Y-11712500D01*
X10454071Y-11783929D01*
X10439786Y-11841071D01*
X10425500Y-11869643D01*
X10411214Y-11883929D01*
X10382643Y-11898214D01*
X10354071Y-11898214D01*
X10325500Y-11883929D01*
X10311214Y-11869643D01*
X10296929Y-11841071D01*
X10282643Y-11783929D01*
X10282643Y-11712500D01*
X10296929Y-11655357D01*
X10311214Y-11626786D01*
X10325500Y-11612500D01*
X10354071Y-11598214D01*
X10582643Y-11869643D02*
X10596929Y-11883929D01*
X10582643Y-11898214D01*
X10568357Y-11883929D01*
X10582643Y-11869643D01*
X10582643Y-11898214D01*
X10854071Y-11698214D02*
X10854071Y-11898214D01*
X10782643Y-11583929D02*
X10711214Y-11798214D01*
X10896928Y-11798214D01*
X11068357Y-11598214D02*
X11096929Y-11598214D01*
X11125500Y-11612500D01*
X11139786Y-11626786D01*
X11154071Y-11655357D01*
X11168357Y-11712500D01*
X11168357Y-11783929D01*
X11154071Y-11841071D01*
X11139786Y-11869643D01*
X11125500Y-11883929D01*
X11096929Y-11898214D01*
X11068357Y-11898214D01*
X11039786Y-11883929D01*
X11025500Y-11869643D01*
X11011214Y-11841071D01*
X10996929Y-11783929D01*
X10996929Y-11712500D01*
X11011214Y-11655357D01*
X11025500Y-11626786D01*
X11039786Y-11612500D01*
X11068357Y-11598214D01*
X11296928Y-11898214D02*
X11296928Y-11698214D01*
X11296928Y-11726786D02*
X11311214Y-11712500D01*
X11339786Y-11698214D01*
X11382643Y-11698214D01*
X11411214Y-11712500D01*
X11425500Y-11741071D01*
X11425500Y-11898214D01*
X11425500Y-11741071D02*
X11439786Y-11712500D01*
X11468357Y-11698214D01*
X11511214Y-11698214D01*
X11539786Y-11712500D01*
X11554071Y-11741071D01*
X11554071Y-11898214D01*
X11696928Y-11898214D02*
X11696928Y-11698214D01*
X11696928Y-11726786D02*
X11711214Y-11712500D01*
X11739786Y-11698214D01*
X11782643Y-11698214D01*
X11811214Y-11712500D01*
X11825500Y-11741071D01*
X11825500Y-11898214D01*
X11825500Y-11741071D02*
X11839786Y-11712500D01*
X11868357Y-11698214D01*
X11911214Y-11698214D01*
X11939786Y-11712500D01*
X11954071Y-11741071D01*
X11954071Y-11898214D01*
X12539786Y-11583929D02*
X12282643Y-11969643D01*
X12925500Y-11598214D02*
X12954071Y-11598214D01*
X12982643Y-11612500D01*
X12996928Y-11626786D01*
X13011214Y-11655357D01*
X13025500Y-11712500D01*
X13025500Y-11783929D01*
X13011214Y-11841071D01*
X12996928Y-11869643D01*
X12982643Y-11883929D01*
X12954071Y-11898214D01*
X12925500Y-11898214D01*
X12896928Y-11883929D01*
X12882643Y-11869643D01*
X12868357Y-11841071D01*
X12854071Y-11783929D01*
X12854071Y-11712500D01*
X12868357Y-11655357D01*
X12882643Y-11626786D01*
X12896928Y-11612500D01*
X12925500Y-11598214D01*
X13154071Y-11869643D02*
X13168357Y-11883929D01*
X13154071Y-11898214D01*
X13139786Y-11883929D01*
X13154071Y-11869643D01*
X13154071Y-11898214D01*
X13354071Y-11598214D02*
X13382643Y-11598214D01*
X13411214Y-11612500D01*
X13425500Y-11626786D01*
X13439785Y-11655357D01*
X13454071Y-11712500D01*
X13454071Y-11783929D01*
X13439785Y-11841071D01*
X13425500Y-11869643D01*
X13411214Y-11883929D01*
X13382643Y-11898214D01*
X13354071Y-11898214D01*
X13325500Y-11883929D01*
X13311214Y-11869643D01*
X13296928Y-11841071D01*
X13282643Y-11783929D01*
X13282643Y-11712500D01*
X13296928Y-11655357D01*
X13311214Y-11626786D01*
X13325500Y-11612500D01*
X13354071Y-11598214D01*
X13739785Y-11898214D02*
X13568357Y-11898214D01*
X13654071Y-11898214D02*
X13654071Y-11598214D01*
X13625500Y-11641071D01*
X13596928Y-11669643D01*
X13568357Y-11683929D01*
X13996928Y-11598214D02*
X13939785Y-11598214D01*
X13911214Y-11612500D01*
X13896928Y-11626786D01*
X13868357Y-11669643D01*
X13854071Y-11726786D01*
X13854071Y-11841071D01*
X13868357Y-11869643D01*
X13882643Y-11883929D01*
X13911214Y-11898214D01*
X13968357Y-11898214D01*
X13996928Y-11883929D01*
X14011214Y-11869643D01*
X14025500Y-11841071D01*
X14025500Y-11769643D01*
X14011214Y-11741071D01*
X13996928Y-11726786D01*
X13968357Y-11712500D01*
X13911214Y-11712500D01*
X13882643Y-11726786D01*
X13868357Y-11741071D01*
X13854071Y-11769643D01*
X14139786Y-11598214D02*
X14139786Y-11655357D01*
X14254071Y-11598214D02*
X14254071Y-11655357D01*
X14696928Y-12012500D02*
X14682643Y-11998214D01*
X14654071Y-11955357D01*
X14639785Y-11926786D01*
X14625500Y-11883929D01*
X14611214Y-11812500D01*
X14611214Y-11755357D01*
X14625500Y-11683929D01*
X14639785Y-11641071D01*
X14654071Y-11612500D01*
X14682643Y-11569643D01*
X14696928Y-11555357D01*
X14968357Y-11898214D02*
X14796928Y-11898214D01*
X14882643Y-11898214D02*
X14882643Y-11598214D01*
X14854071Y-11641071D01*
X14825500Y-11669643D01*
X14796928Y-11683929D01*
X15068357Y-11598214D02*
X15268357Y-11598214D01*
X15139785Y-11898214D01*
X15611214Y-11898214D02*
X15611214Y-11598214D01*
X15739785Y-11898214D02*
X15739785Y-11741071D01*
X15725500Y-11712500D01*
X15696928Y-11698214D01*
X15654071Y-11698214D01*
X15625500Y-11712500D01*
X15611214Y-11726786D01*
X15925500Y-11898214D02*
X15896928Y-11883929D01*
X15882643Y-11869643D01*
X15868357Y-11841071D01*
X15868357Y-11755357D01*
X15882643Y-11726786D01*
X15896928Y-11712500D01*
X15925500Y-11698214D01*
X15968357Y-11698214D01*
X15996928Y-11712500D01*
X16011214Y-11726786D01*
X16025500Y-11755357D01*
X16025500Y-11841071D01*
X16011214Y-11869643D01*
X15996928Y-11883929D01*
X15968357Y-11898214D01*
X15925500Y-11898214D01*
X16196928Y-11898214D02*
X16168357Y-11883929D01*
X16154071Y-11855357D01*
X16154071Y-11598214D01*
X16425500Y-11883929D02*
X16396928Y-11898214D01*
X16339786Y-11898214D01*
X16311214Y-11883929D01*
X16296928Y-11855357D01*
X16296928Y-11741071D01*
X16311214Y-11712500D01*
X16339786Y-11698214D01*
X16396928Y-11698214D01*
X16425500Y-11712500D01*
X16439786Y-11741071D01*
X16439786Y-11769643D01*
X16296928Y-11798214D01*
X16554071Y-11883929D02*
X16582643Y-11898214D01*
X16639786Y-11898214D01*
X16668357Y-11883929D01*
X16682643Y-11855357D01*
X16682643Y-11841071D01*
X16668357Y-11812500D01*
X16639786Y-11798214D01*
X16596928Y-11798214D01*
X16568357Y-11783929D01*
X16554071Y-11755357D01*
X16554071Y-11741071D01*
X16568357Y-11712500D01*
X16596928Y-11698214D01*
X16639786Y-11698214D01*
X16668357Y-11712500D01*
X16782643Y-12012500D02*
X16796929Y-11998214D01*
X16825500Y-11955357D01*
X16839786Y-11926786D01*
X16854071Y-11883929D01*
X16868357Y-11812500D01*
X16868357Y-11755357D01*
X16854071Y-11683929D01*
X16839786Y-11641071D01*
X16825500Y-11612500D01*
X16796929Y-11569643D01*
X16782643Y-11555357D01*
X10025500Y-12158500D02*
G75*
G03X10025500Y-12158500I-38100J0D01*
G01*
X10354071Y-11994214D02*
X10382643Y-11994214D01*
X10411214Y-12008500D01*
X10425500Y-12022786D01*
X10439786Y-12051357D01*
X10454071Y-12108500D01*
X10454071Y-12179929D01*
X10439786Y-12237071D01*
X10425500Y-12265643D01*
X10411214Y-12279929D01*
X10382643Y-12294214D01*
X10354071Y-12294214D01*
X10325500Y-12279929D01*
X10311214Y-12265643D01*
X10296929Y-12237071D01*
X10282643Y-12179929D01*
X10282643Y-12108500D01*
X10296929Y-12051357D01*
X10311214Y-12022786D01*
X10325500Y-12008500D01*
X10354071Y-11994214D01*
X10582643Y-12265643D02*
X10596929Y-12279929D01*
X10582643Y-12294214D01*
X10568357Y-12279929D01*
X10582643Y-12265643D01*
X10582643Y-12294214D01*
X10696928Y-11994214D02*
X10896928Y-11994214D01*
X10768357Y-12294214D01*
X11139786Y-11994214D02*
X11082643Y-11994214D01*
X11054071Y-12008500D01*
X11039786Y-12022786D01*
X11011214Y-12065643D01*
X10996929Y-12122786D01*
X10996929Y-12237071D01*
X11011214Y-12265643D01*
X11025500Y-12279929D01*
X11054071Y-12294214D01*
X11111214Y-12294214D01*
X11139786Y-12279929D01*
X11154071Y-12265643D01*
X11168357Y-12237071D01*
X11168357Y-12165643D01*
X11154071Y-12137071D01*
X11139786Y-12122786D01*
X11111214Y-12108500D01*
X11054071Y-12108500D01*
X11025500Y-12122786D01*
X11011214Y-12137071D01*
X10996929Y-12165643D01*
X11296928Y-12294214D02*
X11296928Y-12094214D01*
X11296928Y-12122786D02*
X11311214Y-12108500D01*
X11339786Y-12094214D01*
X11382643Y-12094214D01*
X11411214Y-12108500D01*
X11425500Y-12137071D01*
X11425500Y-12294214D01*
X11425500Y-12137071D02*
X11439786Y-12108500D01*
X11468357Y-12094214D01*
X11511214Y-12094214D01*
X11539786Y-12108500D01*
X11554071Y-12137071D01*
X11554071Y-12294214D01*
X11696928Y-12294214D02*
X11696928Y-12094214D01*
X11696928Y-12122786D02*
X11711214Y-12108500D01*
X11739786Y-12094214D01*
X11782643Y-12094214D01*
X11811214Y-12108500D01*
X11825500Y-12137071D01*
X11825500Y-12294214D01*
X11825500Y-12137071D02*
X11839786Y-12108500D01*
X11868357Y-12094214D01*
X11911214Y-12094214D01*
X11939786Y-12108500D01*
X11954071Y-12137071D01*
X11954071Y-12294214D01*
X12539786Y-11979929D02*
X12282643Y-12365643D01*
X12925500Y-11994214D02*
X12954071Y-11994214D01*
X12982643Y-12008500D01*
X12996928Y-12022786D01*
X13011214Y-12051357D01*
X13025500Y-12108500D01*
X13025500Y-12179929D01*
X13011214Y-12237071D01*
X12996928Y-12265643D01*
X12982643Y-12279929D01*
X12954071Y-12294214D01*
X12925500Y-12294214D01*
X12896928Y-12279929D01*
X12882643Y-12265643D01*
X12868357Y-12237071D01*
X12854071Y-12179929D01*
X12854071Y-12108500D01*
X12868357Y-12051357D01*
X12882643Y-12022786D01*
X12896928Y-12008500D01*
X12925500Y-11994214D01*
X13154071Y-12265643D02*
X13168357Y-12279929D01*
X13154071Y-12294214D01*
X13139786Y-12279929D01*
X13154071Y-12265643D01*
X13154071Y-12294214D01*
X13354071Y-11994214D02*
X13382643Y-11994214D01*
X13411214Y-12008500D01*
X13425500Y-12022786D01*
X13439785Y-12051357D01*
X13454071Y-12108500D01*
X13454071Y-12179929D01*
X13439785Y-12237071D01*
X13425500Y-12265643D01*
X13411214Y-12279929D01*
X13382643Y-12294214D01*
X13354071Y-12294214D01*
X13325500Y-12279929D01*
X13311214Y-12265643D01*
X13296928Y-12237071D01*
X13282643Y-12179929D01*
X13282643Y-12108500D01*
X13296928Y-12051357D01*
X13311214Y-12022786D01*
X13325500Y-12008500D01*
X13354071Y-11994214D01*
X13554071Y-11994214D02*
X13739785Y-11994214D01*
X13639785Y-12108500D01*
X13682643Y-12108500D01*
X13711214Y-12122786D01*
X13725500Y-12137071D01*
X13739785Y-12165643D01*
X13739785Y-12237071D01*
X13725500Y-12265643D01*
X13711214Y-12279929D01*
X13682643Y-12294214D01*
X13596928Y-12294214D01*
X13568357Y-12279929D01*
X13554071Y-12265643D01*
X13925500Y-11994214D02*
X13954071Y-11994214D01*
X13982643Y-12008500D01*
X13996928Y-12022786D01*
X14011214Y-12051357D01*
X14025500Y-12108500D01*
X14025500Y-12179929D01*
X14011214Y-12237071D01*
X13996928Y-12265643D01*
X13982643Y-12279929D01*
X13954071Y-12294214D01*
X13925500Y-12294214D01*
X13896928Y-12279929D01*
X13882643Y-12265643D01*
X13868357Y-12237071D01*
X13854071Y-12179929D01*
X13854071Y-12108500D01*
X13868357Y-12051357D01*
X13882643Y-12022786D01*
X13896928Y-12008500D01*
X13925500Y-11994214D01*
X14139786Y-11994214D02*
X14139786Y-12051357D01*
X14254071Y-11994214D02*
X14254071Y-12051357D01*
X14696928Y-12408500D02*
X14682643Y-12394214D01*
X14654071Y-12351357D01*
X14639785Y-12322786D01*
X14625500Y-12279929D01*
X14611214Y-12208500D01*
X14611214Y-12151357D01*
X14625500Y-12079929D01*
X14639785Y-12037071D01*
X14654071Y-12008500D01*
X14682643Y-11965643D01*
X14696928Y-11951357D01*
X14968357Y-12294214D02*
X14796928Y-12294214D01*
X14882643Y-12294214D02*
X14882643Y-11994214D01*
X14854071Y-12037071D01*
X14825500Y-12065643D01*
X14796928Y-12079929D01*
X15082643Y-12022786D02*
X15096928Y-12008500D01*
X15125500Y-11994214D01*
X15196928Y-11994214D01*
X15225500Y-12008500D01*
X15239785Y-12022786D01*
X15254071Y-12051357D01*
X15254071Y-12079929D01*
X15239785Y-12122786D01*
X15068357Y-12294214D01*
X15254071Y-12294214D01*
X15611214Y-12294214D02*
X15611214Y-11994214D01*
X15739785Y-12294214D02*
X15739785Y-12137071D01*
X15725500Y-12108500D01*
X15696928Y-12094214D01*
X15654071Y-12094214D01*
X15625500Y-12108500D01*
X15611214Y-12122786D01*
X15925500Y-12294214D02*
X15896928Y-12279929D01*
X15882643Y-12265643D01*
X15868357Y-12237071D01*
X15868357Y-12151357D01*
X15882643Y-12122786D01*
X15896928Y-12108500D01*
X15925500Y-12094214D01*
X15968357Y-12094214D01*
X15996928Y-12108500D01*
X16011214Y-12122786D01*
X16025500Y-12151357D01*
X16025500Y-12237071D01*
X16011214Y-12265643D01*
X15996928Y-12279929D01*
X15968357Y-12294214D01*
X15925500Y-12294214D01*
X16196928Y-12294214D02*
X16168357Y-12279929D01*
X16154071Y-12251357D01*
X16154071Y-11994214D01*
X16425500Y-12279929D02*
X16396928Y-12294214D01*
X16339786Y-12294214D01*
X16311214Y-12279929D01*
X16296928Y-12251357D01*
X16296928Y-12137071D01*
X16311214Y-12108500D01*
X16339786Y-12094214D01*
X16396928Y-12094214D01*
X16425500Y-12108500D01*
X16439786Y-12137071D01*
X16439786Y-12165643D01*
X16296928Y-12194214D01*
X16554071Y-12279929D02*
X16582643Y-12294214D01*
X16639786Y-12294214D01*
X16668357Y-12279929D01*
X16682643Y-12251357D01*
X16682643Y-12237071D01*
X16668357Y-12208500D01*
X16639786Y-12194214D01*
X16596928Y-12194214D01*
X16568357Y-12179929D01*
X16554071Y-12151357D01*
X16554071Y-12137071D01*
X16568357Y-12108500D01*
X16596928Y-12094214D01*
X16639786Y-12094214D01*
X16668357Y-12108500D01*
X16782643Y-12408500D02*
X16796929Y-12394214D01*
X16825500Y-12351357D01*
X16839786Y-12322786D01*
X16854071Y-12279929D01*
X16868357Y-12208500D01*
X16868357Y-12151357D01*
X16854071Y-12079929D01*
X16839786Y-12037071D01*
X16825500Y-12008500D01*
X16796929Y-11965643D01*
X16782643Y-11951357D01*
X9985500Y-12514500D02*
X9985500Y-12594500D01*
X9945500Y-12554500D02*
X10025500Y-12554500D01*
X10354071Y-12390214D02*
X10382643Y-12390214D01*
X10411214Y-12404500D01*
X10425500Y-12418786D01*
X10439786Y-12447357D01*
X10454071Y-12504500D01*
X10454071Y-12575929D01*
X10439786Y-12633071D01*
X10425500Y-12661643D01*
X10411214Y-12675929D01*
X10382643Y-12690214D01*
X10354071Y-12690214D01*
X10325500Y-12675929D01*
X10311214Y-12661643D01*
X10296929Y-12633071D01*
X10282643Y-12575929D01*
X10282643Y-12504500D01*
X10296929Y-12447357D01*
X10311214Y-12418786D01*
X10325500Y-12404500D01*
X10354071Y-12390214D01*
X10582643Y-12661643D02*
X10596929Y-12675929D01*
X10582643Y-12690214D01*
X10568357Y-12675929D01*
X10582643Y-12661643D01*
X10582643Y-12690214D01*
X10768357Y-12518786D02*
X10739786Y-12504500D01*
X10725500Y-12490214D01*
X10711214Y-12461643D01*
X10711214Y-12447357D01*
X10725500Y-12418786D01*
X10739786Y-12404500D01*
X10768357Y-12390214D01*
X10825500Y-12390214D01*
X10854071Y-12404500D01*
X10868357Y-12418786D01*
X10882643Y-12447357D01*
X10882643Y-12461643D01*
X10868357Y-12490214D01*
X10854071Y-12504500D01*
X10825500Y-12518786D01*
X10768357Y-12518786D01*
X10739786Y-12533071D01*
X10725500Y-12547357D01*
X10711214Y-12575929D01*
X10711214Y-12633071D01*
X10725500Y-12661643D01*
X10739786Y-12675929D01*
X10768357Y-12690214D01*
X10825500Y-12690214D01*
X10854071Y-12675929D01*
X10868357Y-12661643D01*
X10882643Y-12633071D01*
X10882643Y-12575929D01*
X10868357Y-12547357D01*
X10854071Y-12533071D01*
X10825500Y-12518786D01*
X11068357Y-12390214D02*
X11096929Y-12390214D01*
X11125500Y-12404500D01*
X11139786Y-12418786D01*
X11154071Y-12447357D01*
X11168357Y-12504500D01*
X11168357Y-12575929D01*
X11154071Y-12633071D01*
X11139786Y-12661643D01*
X11125500Y-12675929D01*
X11096929Y-12690214D01*
X11068357Y-12690214D01*
X11039786Y-12675929D01*
X11025500Y-12661643D01*
X11011214Y-12633071D01*
X10996929Y-12575929D01*
X10996929Y-12504500D01*
X11011214Y-12447357D01*
X11025500Y-12418786D01*
X11039786Y-12404500D01*
X11068357Y-12390214D01*
X11296928Y-12690214D02*
X11296928Y-12490214D01*
X11296928Y-12518786D02*
X11311214Y-12504500D01*
X11339786Y-12490214D01*
X11382643Y-12490214D01*
X11411214Y-12504500D01*
X11425500Y-12533071D01*
X11425500Y-12690214D01*
X11425500Y-12533071D02*
X11439786Y-12504500D01*
X11468357Y-12490214D01*
X11511214Y-12490214D01*
X11539786Y-12504500D01*
X11554071Y-12533071D01*
X11554071Y-12690214D01*
X11696928Y-12690214D02*
X11696928Y-12490214D01*
X11696928Y-12518786D02*
X11711214Y-12504500D01*
X11739786Y-12490214D01*
X11782643Y-12490214D01*
X11811214Y-12504500D01*
X11825500Y-12533071D01*
X11825500Y-12690214D01*
X11825500Y-12533071D02*
X11839786Y-12504500D01*
X11868357Y-12490214D01*
X11911214Y-12490214D01*
X11939786Y-12504500D01*
X11954071Y-12533071D01*
X11954071Y-12690214D01*
X12539786Y-12375929D02*
X12282643Y-12761643D01*
X12925500Y-12390214D02*
X12954071Y-12390214D01*
X12982643Y-12404500D01*
X12996928Y-12418786D01*
X13011214Y-12447357D01*
X13025500Y-12504500D01*
X13025500Y-12575929D01*
X13011214Y-12633071D01*
X12996928Y-12661643D01*
X12982643Y-12675929D01*
X12954071Y-12690214D01*
X12925500Y-12690214D01*
X12896928Y-12675929D01*
X12882643Y-12661643D01*
X12868357Y-12633071D01*
X12854071Y-12575929D01*
X12854071Y-12504500D01*
X12868357Y-12447357D01*
X12882643Y-12418786D01*
X12896928Y-12404500D01*
X12925500Y-12390214D01*
X13154071Y-12661643D02*
X13168357Y-12675929D01*
X13154071Y-12690214D01*
X13139786Y-12675929D01*
X13154071Y-12661643D01*
X13154071Y-12690214D01*
X13354071Y-12390214D02*
X13382643Y-12390214D01*
X13411214Y-12404500D01*
X13425500Y-12418786D01*
X13439785Y-12447357D01*
X13454071Y-12504500D01*
X13454071Y-12575929D01*
X13439785Y-12633071D01*
X13425500Y-12661643D01*
X13411214Y-12675929D01*
X13382643Y-12690214D01*
X13354071Y-12690214D01*
X13325500Y-12675929D01*
X13311214Y-12661643D01*
X13296928Y-12633071D01*
X13282643Y-12575929D01*
X13282643Y-12504500D01*
X13296928Y-12447357D01*
X13311214Y-12418786D01*
X13325500Y-12404500D01*
X13354071Y-12390214D01*
X13554071Y-12390214D02*
X13739785Y-12390214D01*
X13639785Y-12504500D01*
X13682643Y-12504500D01*
X13711214Y-12518786D01*
X13725500Y-12533071D01*
X13739785Y-12561643D01*
X13739785Y-12633071D01*
X13725500Y-12661643D01*
X13711214Y-12675929D01*
X13682643Y-12690214D01*
X13596928Y-12690214D01*
X13568357Y-12675929D01*
X13554071Y-12661643D01*
X14025500Y-12690214D02*
X13854071Y-12690214D01*
X13939785Y-12690214D02*
X13939785Y-12390214D01*
X13911214Y-12433071D01*
X13882643Y-12461643D01*
X13854071Y-12475929D01*
X14139786Y-12390214D02*
X14139786Y-12447357D01*
X14254071Y-12390214D02*
X14254071Y-12447357D01*
X14696928Y-12804500D02*
X14682643Y-12790214D01*
X14654071Y-12747357D01*
X14639785Y-12718786D01*
X14625500Y-12675929D01*
X14611214Y-12604500D01*
X14611214Y-12547357D01*
X14625500Y-12475929D01*
X14639785Y-12433071D01*
X14654071Y-12404500D01*
X14682643Y-12361643D01*
X14696928Y-12347357D01*
X14939785Y-12490214D02*
X14939785Y-12690214D01*
X14868357Y-12375929D02*
X14796928Y-12590214D01*
X14982643Y-12590214D01*
X15325500Y-12690214D02*
X15325500Y-12390214D01*
X15454071Y-12690214D02*
X15454071Y-12533071D01*
X15439785Y-12504500D01*
X15411214Y-12490214D01*
X15368357Y-12490214D01*
X15339785Y-12504500D01*
X15325500Y-12518786D01*
X15639785Y-12690214D02*
X15611214Y-12675929D01*
X15596928Y-12661643D01*
X15582643Y-12633071D01*
X15582643Y-12547357D01*
X15596928Y-12518786D01*
X15611214Y-12504500D01*
X15639785Y-12490214D01*
X15682643Y-12490214D01*
X15711214Y-12504500D01*
X15725500Y-12518786D01*
X15739785Y-12547357D01*
X15739785Y-12633071D01*
X15725500Y-12661643D01*
X15711214Y-12675929D01*
X15682643Y-12690214D01*
X15639785Y-12690214D01*
X15911214Y-12690214D02*
X15882643Y-12675929D01*
X15868357Y-12647357D01*
X15868357Y-12390214D01*
X16139786Y-12675929D02*
X16111214Y-12690214D01*
X16054071Y-12690214D01*
X16025500Y-12675929D01*
X16011214Y-12647357D01*
X16011214Y-12533071D01*
X16025500Y-12504500D01*
X16054071Y-12490214D01*
X16111214Y-12490214D01*
X16139786Y-12504500D01*
X16154071Y-12533071D01*
X16154071Y-12561643D01*
X16011214Y-12590214D01*
X16268357Y-12675929D02*
X16296928Y-12690214D01*
X16354071Y-12690214D01*
X16382643Y-12675929D01*
X16396928Y-12647357D01*
X16396928Y-12633071D01*
X16382643Y-12604500D01*
X16354071Y-12590214D01*
X16311214Y-12590214D01*
X16282643Y-12575929D01*
X16268357Y-12547357D01*
X16268357Y-12533071D01*
X16282643Y-12504500D01*
X16311214Y-12490214D01*
X16354071Y-12490214D01*
X16382643Y-12504500D01*
X16496928Y-12804500D02*
X16511214Y-12790214D01*
X16539786Y-12747357D01*
X16554071Y-12718786D01*
X16568357Y-12675929D01*
X16582643Y-12604500D01*
X16582643Y-12547357D01*
X16568357Y-12475929D01*
X16554071Y-12433071D01*
X16539786Y-12404500D01*
X16511214Y-12361643D01*
X16496928Y-12347357D01*
X10013638Y-12979138D02*
X10013638Y-12921862D01*
X9956362Y-12921862D01*
X9956362Y-12979138D01*
X10013638Y-12979138D01*
X10354071Y-12786214D02*
X10382643Y-12786214D01*
X10411214Y-12800500D01*
X10425500Y-12814786D01*
X10439786Y-12843357D01*
X10454071Y-12900500D01*
X10454071Y-12971929D01*
X10439786Y-13029071D01*
X10425500Y-13057643D01*
X10411214Y-13071929D01*
X10382643Y-13086214D01*
X10354071Y-13086214D01*
X10325500Y-13071929D01*
X10311214Y-13057643D01*
X10296929Y-13029071D01*
X10282643Y-12971929D01*
X10282643Y-12900500D01*
X10296929Y-12843357D01*
X10311214Y-12814786D01*
X10325500Y-12800500D01*
X10354071Y-12786214D01*
X10582643Y-13057643D02*
X10596929Y-13071929D01*
X10582643Y-13086214D01*
X10568357Y-13071929D01*
X10582643Y-13057643D01*
X10582643Y-13086214D01*
X10768357Y-12914786D02*
X10739786Y-12900500D01*
X10725500Y-12886214D01*
X10711214Y-12857643D01*
X10711214Y-12843357D01*
X10725500Y-12814786D01*
X10739786Y-12800500D01*
X10768357Y-12786214D01*
X10825500Y-12786214D01*
X10854071Y-12800500D01*
X10868357Y-12814786D01*
X10882643Y-12843357D01*
X10882643Y-12857643D01*
X10868357Y-12886214D01*
X10854071Y-12900500D01*
X10825500Y-12914786D01*
X10768357Y-12914786D01*
X10739786Y-12929071D01*
X10725500Y-12943357D01*
X10711214Y-12971929D01*
X10711214Y-13029071D01*
X10725500Y-13057643D01*
X10739786Y-13071929D01*
X10768357Y-13086214D01*
X10825500Y-13086214D01*
X10854071Y-13071929D01*
X10868357Y-13057643D01*
X10882643Y-13029071D01*
X10882643Y-12971929D01*
X10868357Y-12943357D01*
X10854071Y-12929071D01*
X10825500Y-12914786D01*
X11168357Y-13086214D02*
X10996929Y-13086214D01*
X11082643Y-13086214D02*
X11082643Y-12786214D01*
X11054071Y-12829071D01*
X11025500Y-12857643D01*
X10996929Y-12871929D01*
X11296928Y-13086214D02*
X11296928Y-12886214D01*
X11296928Y-12914786D02*
X11311214Y-12900500D01*
X11339786Y-12886214D01*
X11382643Y-12886214D01*
X11411214Y-12900500D01*
X11425500Y-12929071D01*
X11425500Y-13086214D01*
X11425500Y-12929071D02*
X11439786Y-12900500D01*
X11468357Y-12886214D01*
X11511214Y-12886214D01*
X11539786Y-12900500D01*
X11554071Y-12929071D01*
X11554071Y-13086214D01*
X11696928Y-13086214D02*
X11696928Y-12886214D01*
X11696928Y-12914786D02*
X11711214Y-12900500D01*
X11739786Y-12886214D01*
X11782643Y-12886214D01*
X11811214Y-12900500D01*
X11825500Y-12929071D01*
X11825500Y-13086214D01*
X11825500Y-12929071D02*
X11839786Y-12900500D01*
X11868357Y-12886214D01*
X11911214Y-12886214D01*
X11939786Y-12900500D01*
X11954071Y-12929071D01*
X11954071Y-13086214D01*
X12539786Y-12771929D02*
X12282643Y-13157643D01*
X12925500Y-12786214D02*
X12954071Y-12786214D01*
X12982643Y-12800500D01*
X12996928Y-12814786D01*
X13011214Y-12843357D01*
X13025500Y-12900500D01*
X13025500Y-12971929D01*
X13011214Y-13029071D01*
X12996928Y-13057643D01*
X12982643Y-13071929D01*
X12954071Y-13086214D01*
X12925500Y-13086214D01*
X12896928Y-13071929D01*
X12882643Y-13057643D01*
X12868357Y-13029071D01*
X12854071Y-12971929D01*
X12854071Y-12900500D01*
X12868357Y-12843357D01*
X12882643Y-12814786D01*
X12896928Y-12800500D01*
X12925500Y-12786214D01*
X13154071Y-13057643D02*
X13168357Y-13071929D01*
X13154071Y-13086214D01*
X13139786Y-13071929D01*
X13154071Y-13057643D01*
X13154071Y-13086214D01*
X13354071Y-12786214D02*
X13382643Y-12786214D01*
X13411214Y-12800500D01*
X13425500Y-12814786D01*
X13439785Y-12843357D01*
X13454071Y-12900500D01*
X13454071Y-12971929D01*
X13439785Y-13029071D01*
X13425500Y-13057643D01*
X13411214Y-13071929D01*
X13382643Y-13086214D01*
X13354071Y-13086214D01*
X13325500Y-13071929D01*
X13311214Y-13057643D01*
X13296928Y-13029071D01*
X13282643Y-12971929D01*
X13282643Y-12900500D01*
X13296928Y-12843357D01*
X13311214Y-12814786D01*
X13325500Y-12800500D01*
X13354071Y-12786214D01*
X13554071Y-12786214D02*
X13739785Y-12786214D01*
X13639785Y-12900500D01*
X13682643Y-12900500D01*
X13711214Y-12914786D01*
X13725500Y-12929071D01*
X13739785Y-12957643D01*
X13739785Y-13029071D01*
X13725500Y-13057643D01*
X13711214Y-13071929D01*
X13682643Y-13086214D01*
X13596928Y-13086214D01*
X13568357Y-13071929D01*
X13554071Y-13057643D01*
X13854071Y-12814786D02*
X13868357Y-12800500D01*
X13896928Y-12786214D01*
X13968357Y-12786214D01*
X13996928Y-12800500D01*
X14011214Y-12814786D01*
X14025500Y-12843357D01*
X14025500Y-12871929D01*
X14011214Y-12914786D01*
X13839785Y-13086214D01*
X14025500Y-13086214D01*
X14139786Y-12786214D02*
X14139786Y-12843357D01*
X14254071Y-12786214D02*
X14254071Y-12843357D01*
X14696928Y-13200500D02*
X14682643Y-13186214D01*
X14654071Y-13143357D01*
X14639785Y-13114786D01*
X14625500Y-13071929D01*
X14611214Y-13000500D01*
X14611214Y-12943357D01*
X14625500Y-12871929D01*
X14639785Y-12829071D01*
X14654071Y-12800500D01*
X14682643Y-12757643D01*
X14696928Y-12743357D01*
X14939785Y-12886214D02*
X14939785Y-13086214D01*
X14868357Y-12771929D02*
X14796928Y-12986214D01*
X14982643Y-12986214D01*
X15325500Y-13086214D02*
X15325500Y-12786214D01*
X15454071Y-13086214D02*
X15454071Y-12929071D01*
X15439785Y-12900500D01*
X15411214Y-12886214D01*
X15368357Y-12886214D01*
X15339785Y-12900500D01*
X15325500Y-12914786D01*
X15639785Y-13086214D02*
X15611214Y-13071929D01*
X15596928Y-13057643D01*
X15582643Y-13029071D01*
X15582643Y-12943357D01*
X15596928Y-12914786D01*
X15611214Y-12900500D01*
X15639785Y-12886214D01*
X15682643Y-12886214D01*
X15711214Y-12900500D01*
X15725500Y-12914786D01*
X15739785Y-12943357D01*
X15739785Y-13029071D01*
X15725500Y-13057643D01*
X15711214Y-13071929D01*
X15682643Y-13086214D01*
X15639785Y-13086214D01*
X15911214Y-13086214D02*
X15882643Y-13071929D01*
X15868357Y-13043357D01*
X15868357Y-12786214D01*
X16139786Y-13071929D02*
X16111214Y-13086214D01*
X16054071Y-13086214D01*
X16025500Y-13071929D01*
X16011214Y-13043357D01*
X16011214Y-12929071D01*
X16025500Y-12900500D01*
X16054071Y-12886214D01*
X16111214Y-12886214D01*
X16139786Y-12900500D01*
X16154071Y-12929071D01*
X16154071Y-12957643D01*
X16011214Y-12986214D01*
X16268357Y-13071929D02*
X16296928Y-13086214D01*
X16354071Y-13086214D01*
X16382643Y-13071929D01*
X16396928Y-13043357D01*
X16396928Y-13029071D01*
X16382643Y-13000500D01*
X16354071Y-12986214D01*
X16311214Y-12986214D01*
X16282643Y-12971929D01*
X16268357Y-12943357D01*
X16268357Y-12929071D01*
X16282643Y-12900500D01*
X16311214Y-12886214D01*
X16354071Y-12886214D01*
X16382643Y-12900500D01*
X16496928Y-13200500D02*
X16511214Y-13186214D01*
X16539786Y-13143357D01*
X16554071Y-13114786D01*
X16568357Y-13071929D01*
X16582643Y-13000500D01*
X16582643Y-12943357D01*
X16568357Y-12871929D01*
X16554071Y-12829071D01*
X16539786Y-12800500D01*
X16511214Y-12757643D01*
X16496928Y-12743357D01*
X9980500Y-13391500D02*
X10025500Y-13346500D01*
X9980500Y-13301500D01*
X9935500Y-13346500D01*
X9980500Y-13391500D01*
X10354071Y-13182214D02*
X10382643Y-13182214D01*
X10411214Y-13196500D01*
X10425500Y-13210786D01*
X10439786Y-13239357D01*
X10454071Y-13296500D01*
X10454071Y-13367929D01*
X10439786Y-13425071D01*
X10425500Y-13453643D01*
X10411214Y-13467929D01*
X10382643Y-13482214D01*
X10354071Y-13482214D01*
X10325500Y-13467929D01*
X10311214Y-13453643D01*
X10296929Y-13425071D01*
X10282643Y-13367929D01*
X10282643Y-13296500D01*
X10296929Y-13239357D01*
X10311214Y-13210786D01*
X10325500Y-13196500D01*
X10354071Y-13182214D01*
X10582643Y-13453643D02*
X10596929Y-13467929D01*
X10582643Y-13482214D01*
X10568357Y-13467929D01*
X10582643Y-13453643D01*
X10582643Y-13482214D01*
X10739786Y-13482214D02*
X10796928Y-13482214D01*
X10825500Y-13467929D01*
X10839786Y-13453643D01*
X10868357Y-13410786D01*
X10882643Y-13353643D01*
X10882643Y-13239357D01*
X10868357Y-13210786D01*
X10854071Y-13196500D01*
X10825500Y-13182214D01*
X10768357Y-13182214D01*
X10739786Y-13196500D01*
X10725500Y-13210786D01*
X10711214Y-13239357D01*
X10711214Y-13310786D01*
X10725500Y-13339357D01*
X10739786Y-13353643D01*
X10768357Y-13367929D01*
X10825500Y-13367929D01*
X10854071Y-13353643D01*
X10868357Y-13339357D01*
X10882643Y-13310786D01*
X11068357Y-13182214D02*
X11096929Y-13182214D01*
X11125500Y-13196500D01*
X11139786Y-13210786D01*
X11154071Y-13239357D01*
X11168357Y-13296500D01*
X11168357Y-13367929D01*
X11154071Y-13425071D01*
X11139786Y-13453643D01*
X11125500Y-13467929D01*
X11096929Y-13482214D01*
X11068357Y-13482214D01*
X11039786Y-13467929D01*
X11025500Y-13453643D01*
X11011214Y-13425071D01*
X10996929Y-13367929D01*
X10996929Y-13296500D01*
X11011214Y-13239357D01*
X11025500Y-13210786D01*
X11039786Y-13196500D01*
X11068357Y-13182214D01*
X11296928Y-13482214D02*
X11296928Y-13282214D01*
X11296928Y-13310786D02*
X11311214Y-13296500D01*
X11339786Y-13282214D01*
X11382643Y-13282214D01*
X11411214Y-13296500D01*
X11425500Y-13325071D01*
X11425500Y-13482214D01*
X11425500Y-13325071D02*
X11439786Y-13296500D01*
X11468357Y-13282214D01*
X11511214Y-13282214D01*
X11539786Y-13296500D01*
X11554071Y-13325071D01*
X11554071Y-13482214D01*
X11696928Y-13482214D02*
X11696928Y-13282214D01*
X11696928Y-13310786D02*
X11711214Y-13296500D01*
X11739786Y-13282214D01*
X11782643Y-13282214D01*
X11811214Y-13296500D01*
X11825500Y-13325071D01*
X11825500Y-13482214D01*
X11825500Y-13325071D02*
X11839786Y-13296500D01*
X11868357Y-13282214D01*
X11911214Y-13282214D01*
X11939786Y-13296500D01*
X11954071Y-13325071D01*
X11954071Y-13482214D01*
X12539786Y-13167929D02*
X12282643Y-13553643D01*
X12925500Y-13182214D02*
X12954071Y-13182214D01*
X12982643Y-13196500D01*
X12996928Y-13210786D01*
X13011214Y-13239357D01*
X13025500Y-13296500D01*
X13025500Y-13367929D01*
X13011214Y-13425071D01*
X12996928Y-13453643D01*
X12982643Y-13467929D01*
X12954071Y-13482214D01*
X12925500Y-13482214D01*
X12896928Y-13467929D01*
X12882643Y-13453643D01*
X12868357Y-13425071D01*
X12854071Y-13367929D01*
X12854071Y-13296500D01*
X12868357Y-13239357D01*
X12882643Y-13210786D01*
X12896928Y-13196500D01*
X12925500Y-13182214D01*
X13154071Y-13453643D02*
X13168357Y-13467929D01*
X13154071Y-13482214D01*
X13139786Y-13467929D01*
X13154071Y-13453643D01*
X13154071Y-13482214D01*
X13354071Y-13182214D02*
X13382643Y-13182214D01*
X13411214Y-13196500D01*
X13425500Y-13210786D01*
X13439785Y-13239357D01*
X13454071Y-13296500D01*
X13454071Y-13367929D01*
X13439785Y-13425071D01*
X13425500Y-13453643D01*
X13411214Y-13467929D01*
X13382643Y-13482214D01*
X13354071Y-13482214D01*
X13325500Y-13467929D01*
X13311214Y-13453643D01*
X13296928Y-13425071D01*
X13282643Y-13367929D01*
X13282643Y-13296500D01*
X13296928Y-13239357D01*
X13311214Y-13210786D01*
X13325500Y-13196500D01*
X13354071Y-13182214D01*
X13554071Y-13182214D02*
X13739785Y-13182214D01*
X13639785Y-13296500D01*
X13682643Y-13296500D01*
X13711214Y-13310786D01*
X13725500Y-13325071D01*
X13739785Y-13353643D01*
X13739785Y-13425071D01*
X13725500Y-13453643D01*
X13711214Y-13467929D01*
X13682643Y-13482214D01*
X13596928Y-13482214D01*
X13568357Y-13467929D01*
X13554071Y-13453643D01*
X14011214Y-13182214D02*
X13868357Y-13182214D01*
X13854071Y-13325071D01*
X13868357Y-13310786D01*
X13896928Y-13296500D01*
X13968357Y-13296500D01*
X13996928Y-13310786D01*
X14011214Y-13325071D01*
X14025500Y-13353643D01*
X14025500Y-13425071D01*
X14011214Y-13453643D01*
X13996928Y-13467929D01*
X13968357Y-13482214D01*
X13896928Y-13482214D01*
X13868357Y-13467929D01*
X13854071Y-13453643D01*
X14139786Y-13182214D02*
X14139786Y-13239357D01*
X14254071Y-13182214D02*
X14254071Y-13239357D01*
X14696928Y-13596500D02*
X14682643Y-13582214D01*
X14654071Y-13539357D01*
X14639785Y-13510786D01*
X14625500Y-13467929D01*
X14611214Y-13396500D01*
X14611214Y-13339357D01*
X14625500Y-13267929D01*
X14639785Y-13225071D01*
X14654071Y-13196500D01*
X14682643Y-13153643D01*
X14696928Y-13139357D01*
X14968357Y-13482214D02*
X14796928Y-13482214D01*
X14882643Y-13482214D02*
X14882643Y-13182214D01*
X14854071Y-13225071D01*
X14825500Y-13253643D01*
X14796928Y-13267929D01*
X15225500Y-13182214D02*
X15168357Y-13182214D01*
X15139785Y-13196500D01*
X15125500Y-13210786D01*
X15096928Y-13253643D01*
X15082643Y-13310786D01*
X15082643Y-13425071D01*
X15096928Y-13453643D01*
X15111214Y-13467929D01*
X15139785Y-13482214D01*
X15196928Y-13482214D01*
X15225500Y-13467929D01*
X15239785Y-13453643D01*
X15254071Y-13425071D01*
X15254071Y-13353643D01*
X15239785Y-13325071D01*
X15225500Y-13310786D01*
X15196928Y-13296500D01*
X15139785Y-13296500D01*
X15111214Y-13310786D01*
X15096928Y-13325071D01*
X15082643Y-13353643D01*
X15611214Y-13482214D02*
X15611214Y-13182214D01*
X15739785Y-13482214D02*
X15739785Y-13325071D01*
X15725500Y-13296500D01*
X15696928Y-13282214D01*
X15654071Y-13282214D01*
X15625500Y-13296500D01*
X15611214Y-13310786D01*
X15925500Y-13482214D02*
X15896928Y-13467929D01*
X15882643Y-13453643D01*
X15868357Y-13425071D01*
X15868357Y-13339357D01*
X15882643Y-13310786D01*
X15896928Y-13296500D01*
X15925500Y-13282214D01*
X15968357Y-13282214D01*
X15996928Y-13296500D01*
X16011214Y-13310786D01*
X16025500Y-13339357D01*
X16025500Y-13425071D01*
X16011214Y-13453643D01*
X15996928Y-13467929D01*
X15968357Y-13482214D01*
X15925500Y-13482214D01*
X16196928Y-13482214D02*
X16168357Y-13467929D01*
X16154071Y-13439357D01*
X16154071Y-13182214D01*
X16425500Y-13467929D02*
X16396928Y-13482214D01*
X16339786Y-13482214D01*
X16311214Y-13467929D01*
X16296928Y-13439357D01*
X16296928Y-13325071D01*
X16311214Y-13296500D01*
X16339786Y-13282214D01*
X16396928Y-13282214D01*
X16425500Y-13296500D01*
X16439786Y-13325071D01*
X16439786Y-13353643D01*
X16296928Y-13382214D01*
X16554071Y-13467929D02*
X16582643Y-13482214D01*
X16639786Y-13482214D01*
X16668357Y-13467929D01*
X16682643Y-13439357D01*
X16682643Y-13425071D01*
X16668357Y-13396500D01*
X16639786Y-13382214D01*
X16596928Y-13382214D01*
X16568357Y-13367929D01*
X16554071Y-13339357D01*
X16554071Y-13325071D01*
X16568357Y-13296500D01*
X16596928Y-13282214D01*
X16639786Y-13282214D01*
X16668357Y-13296500D01*
X16782643Y-13596500D02*
X16796929Y-13582214D01*
X16825500Y-13539357D01*
X16839786Y-13510786D01*
X16854071Y-13467929D01*
X16868357Y-13396500D01*
X16868357Y-13339357D01*
X16854071Y-13267929D01*
X16839786Y-13225071D01*
X16825500Y-13196500D01*
X16796929Y-13153643D01*
X16782643Y-13139357D01*
X9926500Y-13693000D02*
X10025500Y-13792000D01*
X10025500Y-13693000D02*
X9926500Y-13792000D01*
X10025500Y-13742500D02*
G75*
G03X10025500Y-13742500I-49500J0D01*
G01*
X10354071Y-13578214D02*
X10382643Y-13578214D01*
X10411214Y-13592500D01*
X10425500Y-13606786D01*
X10439786Y-13635357D01*
X10454071Y-13692500D01*
X10454071Y-13763929D01*
X10439786Y-13821071D01*
X10425500Y-13849643D01*
X10411214Y-13863929D01*
X10382643Y-13878214D01*
X10354071Y-13878214D01*
X10325500Y-13863929D01*
X10311214Y-13849643D01*
X10296929Y-13821071D01*
X10282643Y-13763929D01*
X10282643Y-13692500D01*
X10296929Y-13635357D01*
X10311214Y-13606786D01*
X10325500Y-13592500D01*
X10354071Y-13578214D01*
X10582643Y-13849643D02*
X10596929Y-13863929D01*
X10582643Y-13878214D01*
X10568357Y-13863929D01*
X10582643Y-13849643D01*
X10582643Y-13878214D01*
X10739786Y-13878214D02*
X10796928Y-13878214D01*
X10825500Y-13863929D01*
X10839786Y-13849643D01*
X10868357Y-13806786D01*
X10882643Y-13749643D01*
X10882643Y-13635357D01*
X10868357Y-13606786D01*
X10854071Y-13592500D01*
X10825500Y-13578214D01*
X10768357Y-13578214D01*
X10739786Y-13592500D01*
X10725500Y-13606786D01*
X10711214Y-13635357D01*
X10711214Y-13706786D01*
X10725500Y-13735357D01*
X10739786Y-13749643D01*
X10768357Y-13763929D01*
X10825500Y-13763929D01*
X10854071Y-13749643D01*
X10868357Y-13735357D01*
X10882643Y-13706786D01*
X11025500Y-13878214D02*
X11082643Y-13878214D01*
X11111214Y-13863929D01*
X11125500Y-13849643D01*
X11154071Y-13806786D01*
X11168357Y-13749643D01*
X11168357Y-13635357D01*
X11154071Y-13606786D01*
X11139786Y-13592500D01*
X11111214Y-13578214D01*
X11054071Y-13578214D01*
X11025500Y-13592500D01*
X11011214Y-13606786D01*
X10996929Y-13635357D01*
X10996929Y-13706786D01*
X11011214Y-13735357D01*
X11025500Y-13749643D01*
X11054071Y-13763929D01*
X11111214Y-13763929D01*
X11139786Y-13749643D01*
X11154071Y-13735357D01*
X11168357Y-13706786D01*
X11296928Y-13878214D02*
X11296928Y-13678214D01*
X11296928Y-13706786D02*
X11311214Y-13692500D01*
X11339786Y-13678214D01*
X11382643Y-13678214D01*
X11411214Y-13692500D01*
X11425500Y-13721071D01*
X11425500Y-13878214D01*
X11425500Y-13721071D02*
X11439786Y-13692500D01*
X11468357Y-13678214D01*
X11511214Y-13678214D01*
X11539786Y-13692500D01*
X11554071Y-13721071D01*
X11554071Y-13878214D01*
X11696928Y-13878214D02*
X11696928Y-13678214D01*
X11696928Y-13706786D02*
X11711214Y-13692500D01*
X11739786Y-13678214D01*
X11782643Y-13678214D01*
X11811214Y-13692500D01*
X11825500Y-13721071D01*
X11825500Y-13878214D01*
X11825500Y-13721071D02*
X11839786Y-13692500D01*
X11868357Y-13678214D01*
X11911214Y-13678214D01*
X11939786Y-13692500D01*
X11954071Y-13721071D01*
X11954071Y-13878214D01*
X12539786Y-13563929D02*
X12282643Y-13949643D01*
X12925500Y-13578214D02*
X12954071Y-13578214D01*
X12982643Y-13592500D01*
X12996928Y-13606786D01*
X13011214Y-13635357D01*
X13025500Y-13692500D01*
X13025500Y-13763929D01*
X13011214Y-13821071D01*
X12996928Y-13849643D01*
X12982643Y-13863929D01*
X12954071Y-13878214D01*
X12925500Y-13878214D01*
X12896928Y-13863929D01*
X12882643Y-13849643D01*
X12868357Y-13821071D01*
X12854071Y-13763929D01*
X12854071Y-13692500D01*
X12868357Y-13635357D01*
X12882643Y-13606786D01*
X12896928Y-13592500D01*
X12925500Y-13578214D01*
X13154071Y-13849643D02*
X13168357Y-13863929D01*
X13154071Y-13878214D01*
X13139786Y-13863929D01*
X13154071Y-13849643D01*
X13154071Y-13878214D01*
X13354071Y-13578214D02*
X13382643Y-13578214D01*
X13411214Y-13592500D01*
X13425500Y-13606786D01*
X13439785Y-13635357D01*
X13454071Y-13692500D01*
X13454071Y-13763929D01*
X13439785Y-13821071D01*
X13425500Y-13849643D01*
X13411214Y-13863929D01*
X13382643Y-13878214D01*
X13354071Y-13878214D01*
X13325500Y-13863929D01*
X13311214Y-13849643D01*
X13296928Y-13821071D01*
X13282643Y-13763929D01*
X13282643Y-13692500D01*
X13296928Y-13635357D01*
X13311214Y-13606786D01*
X13325500Y-13592500D01*
X13354071Y-13578214D01*
X13554071Y-13578214D02*
X13739785Y-13578214D01*
X13639785Y-13692500D01*
X13682643Y-13692500D01*
X13711214Y-13706786D01*
X13725500Y-13721071D01*
X13739785Y-13749643D01*
X13739785Y-13821071D01*
X13725500Y-13849643D01*
X13711214Y-13863929D01*
X13682643Y-13878214D01*
X13596928Y-13878214D01*
X13568357Y-13863929D01*
X13554071Y-13849643D01*
X13882643Y-13878214D02*
X13939785Y-13878214D01*
X13968357Y-13863929D01*
X13982643Y-13849643D01*
X14011214Y-13806786D01*
X14025500Y-13749643D01*
X14025500Y-13635357D01*
X14011214Y-13606786D01*
X13996928Y-13592500D01*
X13968357Y-13578214D01*
X13911214Y-13578214D01*
X13882643Y-13592500D01*
X13868357Y-13606786D01*
X13854071Y-13635357D01*
X13854071Y-13706786D01*
X13868357Y-13735357D01*
X13882643Y-13749643D01*
X13911214Y-13763929D01*
X13968357Y-13763929D01*
X13996928Y-13749643D01*
X14011214Y-13735357D01*
X14025500Y-13706786D01*
X14139786Y-13578214D02*
X14139786Y-13635357D01*
X14254071Y-13578214D02*
X14254071Y-13635357D01*
X14696928Y-13992500D02*
X14682643Y-13978214D01*
X14654071Y-13935357D01*
X14639785Y-13906786D01*
X14625500Y-13863929D01*
X14611214Y-13792500D01*
X14611214Y-13735357D01*
X14625500Y-13663929D01*
X14639785Y-13621071D01*
X14654071Y-13592500D01*
X14682643Y-13549643D01*
X14696928Y-13535357D01*
X14854071Y-13706786D02*
X14825500Y-13692500D01*
X14811214Y-13678214D01*
X14796928Y-13649643D01*
X14796928Y-13635357D01*
X14811214Y-13606786D01*
X14825500Y-13592500D01*
X14854071Y-13578214D01*
X14911214Y-13578214D01*
X14939785Y-13592500D01*
X14954071Y-13606786D01*
X14968357Y-13635357D01*
X14968357Y-13649643D01*
X14954071Y-13678214D01*
X14939785Y-13692500D01*
X14911214Y-13706786D01*
X14854071Y-13706786D01*
X14825500Y-13721071D01*
X14811214Y-13735357D01*
X14796928Y-13763929D01*
X14796928Y-13821071D01*
X14811214Y-13849643D01*
X14825500Y-13863929D01*
X14854071Y-13878214D01*
X14911214Y-13878214D01*
X14939785Y-13863929D01*
X14954071Y-13849643D01*
X14968357Y-13821071D01*
X14968357Y-13763929D01*
X14954071Y-13735357D01*
X14939785Y-13721071D01*
X14911214Y-13706786D01*
X15325500Y-13878214D02*
X15325500Y-13578214D01*
X15454071Y-13878214D02*
X15454071Y-13721071D01*
X15439785Y-13692500D01*
X15411214Y-13678214D01*
X15368357Y-13678214D01*
X15339785Y-13692500D01*
X15325500Y-13706786D01*
X15639785Y-13878214D02*
X15611214Y-13863929D01*
X15596928Y-13849643D01*
X15582643Y-13821071D01*
X15582643Y-13735357D01*
X15596928Y-13706786D01*
X15611214Y-13692500D01*
X15639785Y-13678214D01*
X15682643Y-13678214D01*
X15711214Y-13692500D01*
X15725500Y-13706786D01*
X15739785Y-13735357D01*
X15739785Y-13821071D01*
X15725500Y-13849643D01*
X15711214Y-13863929D01*
X15682643Y-13878214D01*
X15639785Y-13878214D01*
X15911214Y-13878214D02*
X15882643Y-13863929D01*
X15868357Y-13835357D01*
X15868357Y-13578214D01*
X16139786Y-13863929D02*
X16111214Y-13878214D01*
X16054071Y-13878214D01*
X16025500Y-13863929D01*
X16011214Y-13835357D01*
X16011214Y-13721071D01*
X16025500Y-13692500D01*
X16054071Y-13678214D01*
X16111214Y-13678214D01*
X16139786Y-13692500D01*
X16154071Y-13721071D01*
X16154071Y-13749643D01*
X16011214Y-13778214D01*
X16268357Y-13863929D02*
X16296928Y-13878214D01*
X16354071Y-13878214D01*
X16382643Y-13863929D01*
X16396928Y-13835357D01*
X16396928Y-13821071D01*
X16382643Y-13792500D01*
X16354071Y-13778214D01*
X16311214Y-13778214D01*
X16282643Y-13763929D01*
X16268357Y-13735357D01*
X16268357Y-13721071D01*
X16282643Y-13692500D01*
X16311214Y-13678214D01*
X16354071Y-13678214D01*
X16382643Y-13692500D01*
X16496928Y-13992500D02*
X16511214Y-13978214D01*
X16539786Y-13935357D01*
X16554071Y-13906786D01*
X16568357Y-13863929D01*
X16582643Y-13792500D01*
X16582643Y-13735357D01*
X16568357Y-13663929D01*
X16554071Y-13621071D01*
X16539786Y-13592500D01*
X16511214Y-13549643D01*
X16496928Y-13535357D01*
X9925500Y-14088500D02*
X10025500Y-14188500D01*
X10025500Y-14088500D02*
X9925500Y-14188500D01*
X9975500Y-14088500D02*
X9975500Y-14188500D01*
X9925500Y-14138500D02*
X10025500Y-14138500D01*
X10454071Y-14274214D02*
X10282643Y-14274214D01*
X10368357Y-14274214D02*
X10368357Y-13974214D01*
X10339786Y-14017071D01*
X10311214Y-14045643D01*
X10282643Y-14059929D01*
X10582643Y-14245643D02*
X10596929Y-14259929D01*
X10582643Y-14274214D01*
X10568357Y-14259929D01*
X10582643Y-14245643D01*
X10582643Y-14274214D01*
X10782643Y-13974214D02*
X10811214Y-13974214D01*
X10839786Y-13988500D01*
X10854071Y-14002786D01*
X10868357Y-14031357D01*
X10882643Y-14088500D01*
X10882643Y-14159929D01*
X10868357Y-14217071D01*
X10854071Y-14245643D01*
X10839786Y-14259929D01*
X10811214Y-14274214D01*
X10782643Y-14274214D01*
X10754071Y-14259929D01*
X10739786Y-14245643D01*
X10725500Y-14217071D01*
X10711214Y-14159929D01*
X10711214Y-14088500D01*
X10725500Y-14031357D01*
X10739786Y-14002786D01*
X10754071Y-13988500D01*
X10782643Y-13974214D01*
X11068357Y-13974214D02*
X11096929Y-13974214D01*
X11125500Y-13988500D01*
X11139786Y-14002786D01*
X11154071Y-14031357D01*
X11168357Y-14088500D01*
X11168357Y-14159929D01*
X11154071Y-14217071D01*
X11139786Y-14245643D01*
X11125500Y-14259929D01*
X11096929Y-14274214D01*
X11068357Y-14274214D01*
X11039786Y-14259929D01*
X11025500Y-14245643D01*
X11011214Y-14217071D01*
X10996929Y-14159929D01*
X10996929Y-14088500D01*
X11011214Y-14031357D01*
X11025500Y-14002786D01*
X11039786Y-13988500D01*
X11068357Y-13974214D01*
X11296928Y-14274214D02*
X11296928Y-14074214D01*
X11296928Y-14102786D02*
X11311214Y-14088500D01*
X11339786Y-14074214D01*
X11382643Y-14074214D01*
X11411214Y-14088500D01*
X11425500Y-14117071D01*
X11425500Y-14274214D01*
X11425500Y-14117071D02*
X11439786Y-14088500D01*
X11468357Y-14074214D01*
X11511214Y-14074214D01*
X11539786Y-14088500D01*
X11554071Y-14117071D01*
X11554071Y-14274214D01*
X11696928Y-14274214D02*
X11696928Y-14074214D01*
X11696928Y-14102786D02*
X11711214Y-14088500D01*
X11739786Y-14074214D01*
X11782643Y-14074214D01*
X11811214Y-14088500D01*
X11825500Y-14117071D01*
X11825500Y-14274214D01*
X11825500Y-14117071D02*
X11839786Y-14088500D01*
X11868357Y-14074214D01*
X11911214Y-14074214D01*
X11939786Y-14088500D01*
X11954071Y-14117071D01*
X11954071Y-14274214D01*
X12539786Y-13959929D02*
X12282643Y-14345643D01*
X12925500Y-13974214D02*
X12954071Y-13974214D01*
X12982643Y-13988500D01*
X12996928Y-14002786D01*
X13011214Y-14031357D01*
X13025500Y-14088500D01*
X13025500Y-14159929D01*
X13011214Y-14217071D01*
X12996928Y-14245643D01*
X12982643Y-14259929D01*
X12954071Y-14274214D01*
X12925500Y-14274214D01*
X12896928Y-14259929D01*
X12882643Y-14245643D01*
X12868357Y-14217071D01*
X12854071Y-14159929D01*
X12854071Y-14088500D01*
X12868357Y-14031357D01*
X12882643Y-14002786D01*
X12896928Y-13988500D01*
X12925500Y-13974214D01*
X13154071Y-14245643D02*
X13168357Y-14259929D01*
X13154071Y-14274214D01*
X13139786Y-14259929D01*
X13154071Y-14245643D01*
X13154071Y-14274214D01*
X13354071Y-13974214D02*
X13382643Y-13974214D01*
X13411214Y-13988500D01*
X13425500Y-14002786D01*
X13439785Y-14031357D01*
X13454071Y-14088500D01*
X13454071Y-14159929D01*
X13439785Y-14217071D01*
X13425500Y-14245643D01*
X13411214Y-14259929D01*
X13382643Y-14274214D01*
X13354071Y-14274214D01*
X13325500Y-14259929D01*
X13311214Y-14245643D01*
X13296928Y-14217071D01*
X13282643Y-14159929D01*
X13282643Y-14088500D01*
X13296928Y-14031357D01*
X13311214Y-14002786D01*
X13325500Y-13988500D01*
X13354071Y-13974214D01*
X13554071Y-13974214D02*
X13739785Y-13974214D01*
X13639785Y-14088500D01*
X13682643Y-14088500D01*
X13711214Y-14102786D01*
X13725500Y-14117071D01*
X13739785Y-14145643D01*
X13739785Y-14217071D01*
X13725500Y-14245643D01*
X13711214Y-14259929D01*
X13682643Y-14274214D01*
X13596928Y-14274214D01*
X13568357Y-14259929D01*
X13554071Y-14245643D01*
X13882643Y-14274214D02*
X13939785Y-14274214D01*
X13968357Y-14259929D01*
X13982643Y-14245643D01*
X14011214Y-14202786D01*
X14025500Y-14145643D01*
X14025500Y-14031357D01*
X14011214Y-14002786D01*
X13996928Y-13988500D01*
X13968357Y-13974214D01*
X13911214Y-13974214D01*
X13882643Y-13988500D01*
X13868357Y-14002786D01*
X13854071Y-14031357D01*
X13854071Y-14102786D01*
X13868357Y-14131357D01*
X13882643Y-14145643D01*
X13911214Y-14159929D01*
X13968357Y-14159929D01*
X13996928Y-14145643D01*
X14011214Y-14131357D01*
X14025500Y-14102786D01*
X14139786Y-13974214D02*
X14139786Y-14031357D01*
X14254071Y-13974214D02*
X14254071Y-14031357D01*
X14696928Y-14388500D02*
X14682643Y-14374214D01*
X14654071Y-14331357D01*
X14639785Y-14302786D01*
X14625500Y-14259929D01*
X14611214Y-14188500D01*
X14611214Y-14131357D01*
X14625500Y-14059929D01*
X14639785Y-14017071D01*
X14654071Y-13988500D01*
X14682643Y-13945643D01*
X14696928Y-13931357D01*
X14825500Y-14274214D02*
X14882643Y-14274214D01*
X14911214Y-14259929D01*
X14925500Y-14245643D01*
X14954071Y-14202786D01*
X14968357Y-14145643D01*
X14968357Y-14031357D01*
X14954071Y-14002786D01*
X14939785Y-13988500D01*
X14911214Y-13974214D01*
X14854071Y-13974214D01*
X14825500Y-13988500D01*
X14811214Y-14002786D01*
X14796928Y-14031357D01*
X14796928Y-14102786D01*
X14811214Y-14131357D01*
X14825500Y-14145643D01*
X14854071Y-14159929D01*
X14911214Y-14159929D01*
X14939785Y-14145643D01*
X14954071Y-14131357D01*
X14968357Y-14102786D01*
X15325500Y-14274214D02*
X15325500Y-13974214D01*
X15454071Y-14274214D02*
X15454071Y-14117071D01*
X15439785Y-14088500D01*
X15411214Y-14074214D01*
X15368357Y-14074214D01*
X15339785Y-14088500D01*
X15325500Y-14102786D01*
X15639785Y-14274214D02*
X15611214Y-14259929D01*
X15596928Y-14245643D01*
X15582643Y-14217071D01*
X15582643Y-14131357D01*
X15596928Y-14102786D01*
X15611214Y-14088500D01*
X15639785Y-14074214D01*
X15682643Y-14074214D01*
X15711214Y-14088500D01*
X15725500Y-14102786D01*
X15739785Y-14131357D01*
X15739785Y-14217071D01*
X15725500Y-14245643D01*
X15711214Y-14259929D01*
X15682643Y-14274214D01*
X15639785Y-14274214D01*
X15911214Y-14274214D02*
X15882643Y-14259929D01*
X15868357Y-14231357D01*
X15868357Y-13974214D01*
X16139786Y-14259929D02*
X16111214Y-14274214D01*
X16054071Y-14274214D01*
X16025500Y-14259929D01*
X16011214Y-14231357D01*
X16011214Y-14117071D01*
X16025500Y-14088500D01*
X16054071Y-14074214D01*
X16111214Y-14074214D01*
X16139786Y-14088500D01*
X16154071Y-14117071D01*
X16154071Y-14145643D01*
X16011214Y-14174214D01*
X16268357Y-14259929D02*
X16296928Y-14274214D01*
X16354071Y-14274214D01*
X16382643Y-14259929D01*
X16396928Y-14231357D01*
X16396928Y-14217071D01*
X16382643Y-14188500D01*
X16354071Y-14174214D01*
X16311214Y-14174214D01*
X16282643Y-14159929D01*
X16268357Y-14131357D01*
X16268357Y-14117071D01*
X16282643Y-14088500D01*
X16311214Y-14074214D01*
X16354071Y-14074214D01*
X16382643Y-14088500D01*
X16496928Y-14388500D02*
X16511214Y-14374214D01*
X16539786Y-14331357D01*
X16554071Y-14302786D01*
X16568357Y-14259929D01*
X16582643Y-14188500D01*
X16582643Y-14131357D01*
X16568357Y-14059929D01*
X16554071Y-14017071D01*
X16539786Y-13988500D01*
X16511214Y-13945643D01*
X16496928Y-13931357D01*
X9915500Y-14479500D02*
X10025500Y-14589500D01*
X10025500Y-14479500D02*
X9915500Y-14589500D01*
X10009391Y-14573391D02*
X10009391Y-14495609D01*
X9931609Y-14495609D01*
X9931609Y-14573391D01*
X10009391Y-14573391D01*
X10454071Y-14670214D02*
X10282643Y-14670214D01*
X10368357Y-14670214D02*
X10368357Y-14370214D01*
X10339786Y-14413071D01*
X10311214Y-14441643D01*
X10282643Y-14455929D01*
X10582643Y-14641643D02*
X10596929Y-14655929D01*
X10582643Y-14670214D01*
X10568357Y-14655929D01*
X10582643Y-14641643D01*
X10582643Y-14670214D01*
X10882643Y-14670214D02*
X10711214Y-14670214D01*
X10796928Y-14670214D02*
X10796928Y-14370214D01*
X10768357Y-14413071D01*
X10739786Y-14441643D01*
X10711214Y-14455929D01*
X11068357Y-14370214D02*
X11096929Y-14370214D01*
X11125500Y-14384500D01*
X11139786Y-14398786D01*
X11154071Y-14427357D01*
X11168357Y-14484500D01*
X11168357Y-14555929D01*
X11154071Y-14613071D01*
X11139786Y-14641643D01*
X11125500Y-14655929D01*
X11096929Y-14670214D01*
X11068357Y-14670214D01*
X11039786Y-14655929D01*
X11025500Y-14641643D01*
X11011214Y-14613071D01*
X10996929Y-14555929D01*
X10996929Y-14484500D01*
X11011214Y-14427357D01*
X11025500Y-14398786D01*
X11039786Y-14384500D01*
X11068357Y-14370214D01*
X11296928Y-14670214D02*
X11296928Y-14470214D01*
X11296928Y-14498786D02*
X11311214Y-14484500D01*
X11339786Y-14470214D01*
X11382643Y-14470214D01*
X11411214Y-14484500D01*
X11425500Y-14513071D01*
X11425500Y-14670214D01*
X11425500Y-14513071D02*
X11439786Y-14484500D01*
X11468357Y-14470214D01*
X11511214Y-14470214D01*
X11539786Y-14484500D01*
X11554071Y-14513071D01*
X11554071Y-14670214D01*
X11696928Y-14670214D02*
X11696928Y-14470214D01*
X11696928Y-14498786D02*
X11711214Y-14484500D01*
X11739786Y-14470214D01*
X11782643Y-14470214D01*
X11811214Y-14484500D01*
X11825500Y-14513071D01*
X11825500Y-14670214D01*
X11825500Y-14513071D02*
X11839786Y-14484500D01*
X11868357Y-14470214D01*
X11911214Y-14470214D01*
X11939786Y-14484500D01*
X11954071Y-14513071D01*
X11954071Y-14670214D01*
X12539786Y-14355929D02*
X12282643Y-14741643D01*
X12925500Y-14370214D02*
X12954071Y-14370214D01*
X12982643Y-14384500D01*
X12996928Y-14398786D01*
X13011214Y-14427357D01*
X13025500Y-14484500D01*
X13025500Y-14555929D01*
X13011214Y-14613071D01*
X12996928Y-14641643D01*
X12982643Y-14655929D01*
X12954071Y-14670214D01*
X12925500Y-14670214D01*
X12896928Y-14655929D01*
X12882643Y-14641643D01*
X12868357Y-14613071D01*
X12854071Y-14555929D01*
X12854071Y-14484500D01*
X12868357Y-14427357D01*
X12882643Y-14398786D01*
X12896928Y-14384500D01*
X12925500Y-14370214D01*
X13154071Y-14641643D02*
X13168357Y-14655929D01*
X13154071Y-14670214D01*
X13139786Y-14655929D01*
X13154071Y-14641643D01*
X13154071Y-14670214D01*
X13354071Y-14370214D02*
X13382643Y-14370214D01*
X13411214Y-14384500D01*
X13425500Y-14398786D01*
X13439785Y-14427357D01*
X13454071Y-14484500D01*
X13454071Y-14555929D01*
X13439785Y-14613071D01*
X13425500Y-14641643D01*
X13411214Y-14655929D01*
X13382643Y-14670214D01*
X13354071Y-14670214D01*
X13325500Y-14655929D01*
X13311214Y-14641643D01*
X13296928Y-14613071D01*
X13282643Y-14555929D01*
X13282643Y-14484500D01*
X13296928Y-14427357D01*
X13311214Y-14398786D01*
X13325500Y-14384500D01*
X13354071Y-14370214D01*
X13711214Y-14470214D02*
X13711214Y-14670214D01*
X13639785Y-14355929D02*
X13568357Y-14570214D01*
X13754071Y-14570214D01*
X13839785Y-14370214D02*
X14025500Y-14370214D01*
X13925500Y-14484500D01*
X13968357Y-14484500D01*
X13996928Y-14498786D01*
X14011214Y-14513071D01*
X14025500Y-14541643D01*
X14025500Y-14613071D01*
X14011214Y-14641643D01*
X13996928Y-14655929D01*
X13968357Y-14670214D01*
X13882643Y-14670214D01*
X13854071Y-14655929D01*
X13839785Y-14641643D01*
X14139786Y-14370214D02*
X14139786Y-14427357D01*
X14254071Y-14370214D02*
X14254071Y-14427357D01*
X14696928Y-14784500D02*
X14682643Y-14770214D01*
X14654071Y-14727357D01*
X14639785Y-14698786D01*
X14625500Y-14655929D01*
X14611214Y-14584500D01*
X14611214Y-14527357D01*
X14625500Y-14455929D01*
X14639785Y-14413071D01*
X14654071Y-14384500D01*
X14682643Y-14341643D01*
X14696928Y-14327357D01*
X14954071Y-14370214D02*
X14811214Y-14370214D01*
X14796928Y-14513071D01*
X14811214Y-14498786D01*
X14839785Y-14484500D01*
X14911214Y-14484500D01*
X14939785Y-14498786D01*
X14954071Y-14513071D01*
X14968357Y-14541643D01*
X14968357Y-14613071D01*
X14954071Y-14641643D01*
X14939785Y-14655929D01*
X14911214Y-14670214D01*
X14839785Y-14670214D01*
X14811214Y-14655929D01*
X14796928Y-14641643D01*
X15254071Y-14670214D02*
X15082643Y-14670214D01*
X15168357Y-14670214D02*
X15168357Y-14370214D01*
X15139785Y-14413071D01*
X15111214Y-14441643D01*
X15082643Y-14455929D01*
X15611214Y-14670214D02*
X15611214Y-14370214D01*
X15739785Y-14670214D02*
X15739785Y-14513071D01*
X15725500Y-14484500D01*
X15696928Y-14470214D01*
X15654071Y-14470214D01*
X15625500Y-14484500D01*
X15611214Y-14498786D01*
X15925500Y-14670214D02*
X15896928Y-14655929D01*
X15882643Y-14641643D01*
X15868357Y-14613071D01*
X15868357Y-14527357D01*
X15882643Y-14498786D01*
X15896928Y-14484500D01*
X15925500Y-14470214D01*
X15968357Y-14470214D01*
X15996928Y-14484500D01*
X16011214Y-14498786D01*
X16025500Y-14527357D01*
X16025500Y-14613071D01*
X16011214Y-14641643D01*
X15996928Y-14655929D01*
X15968357Y-14670214D01*
X15925500Y-14670214D01*
X16196928Y-14670214D02*
X16168357Y-14655929D01*
X16154071Y-14627357D01*
X16154071Y-14370214D01*
X16425500Y-14655929D02*
X16396928Y-14670214D01*
X16339786Y-14670214D01*
X16311214Y-14655929D01*
X16296928Y-14627357D01*
X16296928Y-14513071D01*
X16311214Y-14484500D01*
X16339786Y-14470214D01*
X16396928Y-14470214D01*
X16425500Y-14484500D01*
X16439786Y-14513071D01*
X16439786Y-14541643D01*
X16296928Y-14570214D01*
X16554071Y-14655929D02*
X16582643Y-14670214D01*
X16639786Y-14670214D01*
X16668357Y-14655929D01*
X16682643Y-14627357D01*
X16682643Y-14613071D01*
X16668357Y-14584500D01*
X16639786Y-14570214D01*
X16596928Y-14570214D01*
X16568357Y-14555929D01*
X16554071Y-14527357D01*
X16554071Y-14513071D01*
X16568357Y-14484500D01*
X16596928Y-14470214D01*
X16639786Y-14470214D01*
X16668357Y-14484500D01*
X16782643Y-14784500D02*
X16796929Y-14770214D01*
X16825500Y-14727357D01*
X16839786Y-14698786D01*
X16854071Y-14655929D01*
X16868357Y-14584500D01*
X16868357Y-14527357D01*
X16854071Y-14455929D01*
X16839786Y-14413071D01*
X16825500Y-14384500D01*
X16796929Y-14341643D01*
X16782643Y-14327357D01*
X9905500Y-14870500D02*
X10025500Y-14990500D01*
X10025500Y-14870500D02*
X9905500Y-14990500D01*
X9965500Y-14990500D02*
X10025500Y-14930500D01*
X9965500Y-14870500D01*
X9905500Y-14930500D01*
X9965500Y-14990500D01*
X10454071Y-15066214D02*
X10282643Y-15066214D01*
X10368357Y-15066214D02*
X10368357Y-14766214D01*
X10339786Y-14809071D01*
X10311214Y-14837643D01*
X10282643Y-14851929D01*
X10582643Y-15037643D02*
X10596929Y-15051929D01*
X10582643Y-15066214D01*
X10568357Y-15051929D01*
X10582643Y-15037643D01*
X10582643Y-15066214D01*
X10711214Y-14794786D02*
X10725500Y-14780500D01*
X10754071Y-14766214D01*
X10825500Y-14766214D01*
X10854071Y-14780500D01*
X10868357Y-14794786D01*
X10882643Y-14823357D01*
X10882643Y-14851929D01*
X10868357Y-14894786D01*
X10696928Y-15066214D01*
X10882643Y-15066214D01*
X11068357Y-14766214D02*
X11096929Y-14766214D01*
X11125500Y-14780500D01*
X11139786Y-14794786D01*
X11154071Y-14823357D01*
X11168357Y-14880500D01*
X11168357Y-14951929D01*
X11154071Y-15009071D01*
X11139786Y-15037643D01*
X11125500Y-15051929D01*
X11096929Y-15066214D01*
X11068357Y-15066214D01*
X11039786Y-15051929D01*
X11025500Y-15037643D01*
X11011214Y-15009071D01*
X10996929Y-14951929D01*
X10996929Y-14880500D01*
X11011214Y-14823357D01*
X11025500Y-14794786D01*
X11039786Y-14780500D01*
X11068357Y-14766214D01*
X11296928Y-15066214D02*
X11296928Y-14866214D01*
X11296928Y-14894786D02*
X11311214Y-14880500D01*
X11339786Y-14866214D01*
X11382643Y-14866214D01*
X11411214Y-14880500D01*
X11425500Y-14909071D01*
X11425500Y-15066214D01*
X11425500Y-14909071D02*
X11439786Y-14880500D01*
X11468357Y-14866214D01*
X11511214Y-14866214D01*
X11539786Y-14880500D01*
X11554071Y-14909071D01*
X11554071Y-15066214D01*
X11696928Y-15066214D02*
X11696928Y-14866214D01*
X11696928Y-14894786D02*
X11711214Y-14880500D01*
X11739786Y-14866214D01*
X11782643Y-14866214D01*
X11811214Y-14880500D01*
X11825500Y-14909071D01*
X11825500Y-15066214D01*
X11825500Y-14909071D02*
X11839786Y-14880500D01*
X11868357Y-14866214D01*
X11911214Y-14866214D01*
X11939786Y-14880500D01*
X11954071Y-14909071D01*
X11954071Y-15066214D01*
X12539786Y-14751929D02*
X12282643Y-15137643D01*
X12925500Y-14766214D02*
X12954071Y-14766214D01*
X12982643Y-14780500D01*
X12996928Y-14794786D01*
X13011214Y-14823357D01*
X13025500Y-14880500D01*
X13025500Y-14951929D01*
X13011214Y-15009071D01*
X12996928Y-15037643D01*
X12982643Y-15051929D01*
X12954071Y-15066214D01*
X12925500Y-15066214D01*
X12896928Y-15051929D01*
X12882643Y-15037643D01*
X12868357Y-15009071D01*
X12854071Y-14951929D01*
X12854071Y-14880500D01*
X12868357Y-14823357D01*
X12882643Y-14794786D01*
X12896928Y-14780500D01*
X12925500Y-14766214D01*
X13154071Y-15037643D02*
X13168357Y-15051929D01*
X13154071Y-15066214D01*
X13139786Y-15051929D01*
X13154071Y-15037643D01*
X13154071Y-15066214D01*
X13354071Y-14766214D02*
X13382643Y-14766214D01*
X13411214Y-14780500D01*
X13425500Y-14794786D01*
X13439785Y-14823357D01*
X13454071Y-14880500D01*
X13454071Y-14951929D01*
X13439785Y-15009071D01*
X13425500Y-15037643D01*
X13411214Y-15051929D01*
X13382643Y-15066214D01*
X13354071Y-15066214D01*
X13325500Y-15051929D01*
X13311214Y-15037643D01*
X13296928Y-15009071D01*
X13282643Y-14951929D01*
X13282643Y-14880500D01*
X13296928Y-14823357D01*
X13311214Y-14794786D01*
X13325500Y-14780500D01*
X13354071Y-14766214D01*
X13711214Y-14866214D02*
X13711214Y-15066214D01*
X13639785Y-14751929D02*
X13568357Y-14966214D01*
X13754071Y-14966214D01*
X13839785Y-14766214D02*
X14039785Y-14766214D01*
X13911214Y-15066214D01*
X14139786Y-14766214D02*
X14139786Y-14823357D01*
X14254071Y-14766214D02*
X14254071Y-14823357D01*
X14696928Y-15180500D02*
X14682643Y-15166214D01*
X14654071Y-15123357D01*
X14639785Y-15094786D01*
X14625500Y-15051929D01*
X14611214Y-14980500D01*
X14611214Y-14923357D01*
X14625500Y-14851929D01*
X14639785Y-14809071D01*
X14654071Y-14780500D01*
X14682643Y-14737643D01*
X14696928Y-14723357D01*
X14796928Y-14794786D02*
X14811214Y-14780500D01*
X14839785Y-14766214D01*
X14911214Y-14766214D01*
X14939785Y-14780500D01*
X14954071Y-14794786D01*
X14968357Y-14823357D01*
X14968357Y-14851929D01*
X14954071Y-14894786D01*
X14782643Y-15066214D01*
X14968357Y-15066214D01*
X15225500Y-14866214D02*
X15225500Y-15066214D01*
X15154071Y-14751929D02*
X15082643Y-14966214D01*
X15268357Y-14966214D01*
X15611214Y-15066214D02*
X15611214Y-14766214D01*
X15739785Y-15066214D02*
X15739785Y-14909071D01*
X15725500Y-14880500D01*
X15696928Y-14866214D01*
X15654071Y-14866214D01*
X15625500Y-14880500D01*
X15611214Y-14894786D01*
X15925500Y-15066214D02*
X15896928Y-15051929D01*
X15882643Y-15037643D01*
X15868357Y-15009071D01*
X15868357Y-14923357D01*
X15882643Y-14894786D01*
X15896928Y-14880500D01*
X15925500Y-14866214D01*
X15968357Y-14866214D01*
X15996928Y-14880500D01*
X16011214Y-14894786D01*
X16025500Y-14923357D01*
X16025500Y-15009071D01*
X16011214Y-15037643D01*
X15996928Y-15051929D01*
X15968357Y-15066214D01*
X15925500Y-15066214D01*
X16196928Y-15066214D02*
X16168357Y-15051929D01*
X16154071Y-15023357D01*
X16154071Y-14766214D01*
X16425500Y-15051929D02*
X16396928Y-15066214D01*
X16339786Y-15066214D01*
X16311214Y-15051929D01*
X16296928Y-15023357D01*
X16296928Y-14909071D01*
X16311214Y-14880500D01*
X16339786Y-14866214D01*
X16396928Y-14866214D01*
X16425500Y-14880500D01*
X16439786Y-14909071D01*
X16439786Y-14937643D01*
X16296928Y-14966214D01*
X16554071Y-15051929D02*
X16582643Y-15066214D01*
X16639786Y-15066214D01*
X16668357Y-15051929D01*
X16682643Y-15023357D01*
X16682643Y-15009071D01*
X16668357Y-14980500D01*
X16639786Y-14966214D01*
X16596928Y-14966214D01*
X16568357Y-14951929D01*
X16554071Y-14923357D01*
X16554071Y-14909071D01*
X16568357Y-14880500D01*
X16596928Y-14866214D01*
X16639786Y-14866214D01*
X16668357Y-14880500D01*
X16782643Y-15180500D02*
X16796929Y-15166214D01*
X16825500Y-15123357D01*
X16839786Y-15094786D01*
X16854071Y-15051929D01*
X16868357Y-14980500D01*
X16868357Y-14923357D01*
X16854071Y-14851929D01*
X16839786Y-14809071D01*
X16825500Y-14780500D01*
X16796929Y-14737643D01*
X16782643Y-14723357D01*
X9960500Y-15261500D02*
X9960500Y-15391500D01*
X9895500Y-15326500D02*
X10025500Y-15326500D01*
X10025500Y-15326500D02*
G75*
G03X10025500Y-15326500I-65000J0D01*
G01*
X10454071Y-15462214D02*
X10282643Y-15462214D01*
X10368357Y-15462214D02*
X10368357Y-15162214D01*
X10339786Y-15205071D01*
X10311214Y-15233643D01*
X10282643Y-15247929D01*
X10582643Y-15433643D02*
X10596929Y-15447929D01*
X10582643Y-15462214D01*
X10568357Y-15447929D01*
X10582643Y-15433643D01*
X10582643Y-15462214D01*
X10696928Y-15162214D02*
X10882643Y-15162214D01*
X10782643Y-15276500D01*
X10825500Y-15276500D01*
X10854071Y-15290786D01*
X10868357Y-15305071D01*
X10882643Y-15333643D01*
X10882643Y-15405071D01*
X10868357Y-15433643D01*
X10854071Y-15447929D01*
X10825500Y-15462214D01*
X10739786Y-15462214D01*
X10711214Y-15447929D01*
X10696928Y-15433643D01*
X11068357Y-15162214D02*
X11096929Y-15162214D01*
X11125500Y-15176500D01*
X11139786Y-15190786D01*
X11154071Y-15219357D01*
X11168357Y-15276500D01*
X11168357Y-15347929D01*
X11154071Y-15405071D01*
X11139786Y-15433643D01*
X11125500Y-15447929D01*
X11096929Y-15462214D01*
X11068357Y-15462214D01*
X11039786Y-15447929D01*
X11025500Y-15433643D01*
X11011214Y-15405071D01*
X10996929Y-15347929D01*
X10996929Y-15276500D01*
X11011214Y-15219357D01*
X11025500Y-15190786D01*
X11039786Y-15176500D01*
X11068357Y-15162214D01*
X11296928Y-15462214D02*
X11296928Y-15262214D01*
X11296928Y-15290786D02*
X11311214Y-15276500D01*
X11339786Y-15262214D01*
X11382643Y-15262214D01*
X11411214Y-15276500D01*
X11425500Y-15305071D01*
X11425500Y-15462214D01*
X11425500Y-15305071D02*
X11439786Y-15276500D01*
X11468357Y-15262214D01*
X11511214Y-15262214D01*
X11539786Y-15276500D01*
X11554071Y-15305071D01*
X11554071Y-15462214D01*
X11696928Y-15462214D02*
X11696928Y-15262214D01*
X11696928Y-15290786D02*
X11711214Y-15276500D01*
X11739786Y-15262214D01*
X11782643Y-15262214D01*
X11811214Y-15276500D01*
X11825500Y-15305071D01*
X11825500Y-15462214D01*
X11825500Y-15305071D02*
X11839786Y-15276500D01*
X11868357Y-15262214D01*
X11911214Y-15262214D01*
X11939786Y-15276500D01*
X11954071Y-15305071D01*
X11954071Y-15462214D01*
X12539786Y-15147929D02*
X12282643Y-15533643D01*
X12925500Y-15162214D02*
X12954071Y-15162214D01*
X12982643Y-15176500D01*
X12996928Y-15190786D01*
X13011214Y-15219357D01*
X13025500Y-15276500D01*
X13025500Y-15347929D01*
X13011214Y-15405071D01*
X12996928Y-15433643D01*
X12982643Y-15447929D01*
X12954071Y-15462214D01*
X12925500Y-15462214D01*
X12896928Y-15447929D01*
X12882643Y-15433643D01*
X12868357Y-15405071D01*
X12854071Y-15347929D01*
X12854071Y-15276500D01*
X12868357Y-15219357D01*
X12882643Y-15190786D01*
X12896928Y-15176500D01*
X12925500Y-15162214D01*
X13154071Y-15433643D02*
X13168357Y-15447929D01*
X13154071Y-15462214D01*
X13139786Y-15447929D01*
X13154071Y-15433643D01*
X13154071Y-15462214D01*
X13354071Y-15162214D02*
X13382643Y-15162214D01*
X13411214Y-15176500D01*
X13425500Y-15190786D01*
X13439785Y-15219357D01*
X13454071Y-15276500D01*
X13454071Y-15347929D01*
X13439785Y-15405071D01*
X13425500Y-15433643D01*
X13411214Y-15447929D01*
X13382643Y-15462214D01*
X13354071Y-15462214D01*
X13325500Y-15447929D01*
X13311214Y-15433643D01*
X13296928Y-15405071D01*
X13282643Y-15347929D01*
X13282643Y-15276500D01*
X13296928Y-15219357D01*
X13311214Y-15190786D01*
X13325500Y-15176500D01*
X13354071Y-15162214D01*
X13725500Y-15162214D02*
X13582643Y-15162214D01*
X13568357Y-15305071D01*
X13582643Y-15290786D01*
X13611214Y-15276500D01*
X13682643Y-15276500D01*
X13711214Y-15290786D01*
X13725500Y-15305071D01*
X13739785Y-15333643D01*
X13739785Y-15405071D01*
X13725500Y-15433643D01*
X13711214Y-15447929D01*
X13682643Y-15462214D01*
X13611214Y-15462214D01*
X13582643Y-15447929D01*
X13568357Y-15433643D01*
X14025500Y-15462214D02*
X13854071Y-15462214D01*
X13939785Y-15462214D02*
X13939785Y-15162214D01*
X13911214Y-15205071D01*
X13882643Y-15233643D01*
X13854071Y-15247929D01*
X14139786Y-15162214D02*
X14139786Y-15219357D01*
X14254071Y-15162214D02*
X14254071Y-15219357D01*
X14696928Y-15576500D02*
X14682643Y-15562214D01*
X14654071Y-15519357D01*
X14639785Y-15490786D01*
X14625500Y-15447929D01*
X14611214Y-15376500D01*
X14611214Y-15319357D01*
X14625500Y-15247929D01*
X14639785Y-15205071D01*
X14654071Y-15176500D01*
X14682643Y-15133643D01*
X14696928Y-15119357D01*
X14854071Y-15290786D02*
X14825500Y-15276500D01*
X14811214Y-15262214D01*
X14796928Y-15233643D01*
X14796928Y-15219357D01*
X14811214Y-15190786D01*
X14825500Y-15176500D01*
X14854071Y-15162214D01*
X14911214Y-15162214D01*
X14939785Y-15176500D01*
X14954071Y-15190786D01*
X14968357Y-15219357D01*
X14968357Y-15233643D01*
X14954071Y-15262214D01*
X14939785Y-15276500D01*
X14911214Y-15290786D01*
X14854071Y-15290786D01*
X14825500Y-15305071D01*
X14811214Y-15319357D01*
X14796928Y-15347929D01*
X14796928Y-15405071D01*
X14811214Y-15433643D01*
X14825500Y-15447929D01*
X14854071Y-15462214D01*
X14911214Y-15462214D01*
X14939785Y-15447929D01*
X14954071Y-15433643D01*
X14968357Y-15405071D01*
X14968357Y-15347929D01*
X14954071Y-15319357D01*
X14939785Y-15305071D01*
X14911214Y-15290786D01*
X15325500Y-15462214D02*
X15325500Y-15162214D01*
X15454071Y-15462214D02*
X15454071Y-15305071D01*
X15439785Y-15276500D01*
X15411214Y-15262214D01*
X15368357Y-15262214D01*
X15339785Y-15276500D01*
X15325500Y-15290786D01*
X15639785Y-15462214D02*
X15611214Y-15447929D01*
X15596928Y-15433643D01*
X15582643Y-15405071D01*
X15582643Y-15319357D01*
X15596928Y-15290786D01*
X15611214Y-15276500D01*
X15639785Y-15262214D01*
X15682643Y-15262214D01*
X15711214Y-15276500D01*
X15725500Y-15290786D01*
X15739785Y-15319357D01*
X15739785Y-15405071D01*
X15725500Y-15433643D01*
X15711214Y-15447929D01*
X15682643Y-15462214D01*
X15639785Y-15462214D01*
X15911214Y-15462214D02*
X15882643Y-15447929D01*
X15868357Y-15419357D01*
X15868357Y-15162214D01*
X16139786Y-15447929D02*
X16111214Y-15462214D01*
X16054071Y-15462214D01*
X16025500Y-15447929D01*
X16011214Y-15419357D01*
X16011214Y-15305071D01*
X16025500Y-15276500D01*
X16054071Y-15262214D01*
X16111214Y-15262214D01*
X16139786Y-15276500D01*
X16154071Y-15305071D01*
X16154071Y-15333643D01*
X16011214Y-15362214D01*
X16268357Y-15447929D02*
X16296928Y-15462214D01*
X16354071Y-15462214D01*
X16382643Y-15447929D01*
X16396928Y-15419357D01*
X16396928Y-15405071D01*
X16382643Y-15376500D01*
X16354071Y-15362214D01*
X16311214Y-15362214D01*
X16282643Y-15347929D01*
X16268357Y-15319357D01*
X16268357Y-15305071D01*
X16282643Y-15276500D01*
X16311214Y-15262214D01*
X16354071Y-15262214D01*
X16382643Y-15276500D01*
X16496928Y-15576500D02*
X16511214Y-15562214D01*
X16539786Y-15519357D01*
X16554071Y-15490786D01*
X16568357Y-15447929D01*
X16582643Y-15376500D01*
X16582643Y-15319357D01*
X16568357Y-15247929D01*
X16554071Y-15205071D01*
X16539786Y-15176500D01*
X16511214Y-15133643D01*
X16496928Y-15119357D01*
X9991818Y-15803818D02*
X9991818Y-15641182D01*
X9829182Y-15641182D01*
X9829182Y-15803818D01*
X9991818Y-15803818D01*
X10025500Y-15722500D02*
G75*
G03X10025500Y-15722500I-115000J0D01*
G01*
X10282643Y-15586786D02*
X10296929Y-15572500D01*
X10325500Y-15558214D01*
X10396929Y-15558214D01*
X10425500Y-15572500D01*
X10439786Y-15586786D01*
X10454071Y-15615357D01*
X10454071Y-15643929D01*
X10439786Y-15686786D01*
X10268357Y-15858214D01*
X10454071Y-15858214D01*
X10582643Y-15829643D02*
X10596929Y-15843929D01*
X10582643Y-15858214D01*
X10568357Y-15843929D01*
X10582643Y-15829643D01*
X10582643Y-15858214D01*
X10696928Y-15558214D02*
X10882643Y-15558214D01*
X10782643Y-15672500D01*
X10825500Y-15672500D01*
X10854071Y-15686786D01*
X10868357Y-15701071D01*
X10882643Y-15729643D01*
X10882643Y-15801071D01*
X10868357Y-15829643D01*
X10854071Y-15843929D01*
X10825500Y-15858214D01*
X10739786Y-15858214D01*
X10711214Y-15843929D01*
X10696928Y-15829643D01*
X11068357Y-15558214D02*
X11096929Y-15558214D01*
X11125500Y-15572500D01*
X11139786Y-15586786D01*
X11154071Y-15615357D01*
X11168357Y-15672500D01*
X11168357Y-15743929D01*
X11154071Y-15801071D01*
X11139786Y-15829643D01*
X11125500Y-15843929D01*
X11096929Y-15858214D01*
X11068357Y-15858214D01*
X11039786Y-15843929D01*
X11025500Y-15829643D01*
X11011214Y-15801071D01*
X10996929Y-15743929D01*
X10996929Y-15672500D01*
X11011214Y-15615357D01*
X11025500Y-15586786D01*
X11039786Y-15572500D01*
X11068357Y-15558214D01*
X11296928Y-15858214D02*
X11296928Y-15658214D01*
X11296928Y-15686786D02*
X11311214Y-15672500D01*
X11339786Y-15658214D01*
X11382643Y-15658214D01*
X11411214Y-15672500D01*
X11425500Y-15701071D01*
X11425500Y-15858214D01*
X11425500Y-15701071D02*
X11439786Y-15672500D01*
X11468357Y-15658214D01*
X11511214Y-15658214D01*
X11539786Y-15672500D01*
X11554071Y-15701071D01*
X11554071Y-15858214D01*
X11696928Y-15858214D02*
X11696928Y-15658214D01*
X11696928Y-15686786D02*
X11711214Y-15672500D01*
X11739786Y-15658214D01*
X11782643Y-15658214D01*
X11811214Y-15672500D01*
X11825500Y-15701071D01*
X11825500Y-15858214D01*
X11825500Y-15701071D02*
X11839786Y-15672500D01*
X11868357Y-15658214D01*
X11911214Y-15658214D01*
X11939786Y-15672500D01*
X11954071Y-15701071D01*
X11954071Y-15858214D01*
X12539786Y-15543929D02*
X12282643Y-15929643D01*
X12925500Y-15558214D02*
X12954071Y-15558214D01*
X12982643Y-15572500D01*
X12996928Y-15586786D01*
X13011214Y-15615357D01*
X13025500Y-15672500D01*
X13025500Y-15743929D01*
X13011214Y-15801071D01*
X12996928Y-15829643D01*
X12982643Y-15843929D01*
X12954071Y-15858214D01*
X12925500Y-15858214D01*
X12896928Y-15843929D01*
X12882643Y-15829643D01*
X12868357Y-15801071D01*
X12854071Y-15743929D01*
X12854071Y-15672500D01*
X12868357Y-15615357D01*
X12882643Y-15586786D01*
X12896928Y-15572500D01*
X12925500Y-15558214D01*
X13154071Y-15829643D02*
X13168357Y-15843929D01*
X13154071Y-15858214D01*
X13139786Y-15843929D01*
X13154071Y-15829643D01*
X13154071Y-15858214D01*
X13354071Y-15558214D02*
X13382643Y-15558214D01*
X13411214Y-15572500D01*
X13425500Y-15586786D01*
X13439785Y-15615357D01*
X13454071Y-15672500D01*
X13454071Y-15743929D01*
X13439785Y-15801071D01*
X13425500Y-15829643D01*
X13411214Y-15843929D01*
X13382643Y-15858214D01*
X13354071Y-15858214D01*
X13325500Y-15843929D01*
X13311214Y-15829643D01*
X13296928Y-15801071D01*
X13282643Y-15743929D01*
X13282643Y-15672500D01*
X13296928Y-15615357D01*
X13311214Y-15586786D01*
X13325500Y-15572500D01*
X13354071Y-15558214D01*
X13596928Y-15858214D02*
X13654071Y-15858214D01*
X13682643Y-15843929D01*
X13696928Y-15829643D01*
X13725500Y-15786786D01*
X13739785Y-15729643D01*
X13739785Y-15615357D01*
X13725500Y-15586786D01*
X13711214Y-15572500D01*
X13682643Y-15558214D01*
X13625500Y-15558214D01*
X13596928Y-15572500D01*
X13582643Y-15586786D01*
X13568357Y-15615357D01*
X13568357Y-15686786D01*
X13582643Y-15715357D01*
X13596928Y-15729643D01*
X13625500Y-15743929D01*
X13682643Y-15743929D01*
X13711214Y-15729643D01*
X13725500Y-15715357D01*
X13739785Y-15686786D01*
X14025500Y-15858214D02*
X13854071Y-15858214D01*
X13939785Y-15858214D02*
X13939785Y-15558214D01*
X13911214Y-15601071D01*
X13882643Y-15629643D01*
X13854071Y-15643929D01*
X14139786Y-15558214D02*
X14139786Y-15615357D01*
X14254071Y-15558214D02*
X14254071Y-15615357D01*
X14696928Y-15972500D02*
X14682643Y-15958214D01*
X14654071Y-15915357D01*
X14639785Y-15886786D01*
X14625500Y-15843929D01*
X14611214Y-15772500D01*
X14611214Y-15715357D01*
X14625500Y-15643929D01*
X14639785Y-15601071D01*
X14654071Y-15572500D01*
X14682643Y-15529643D01*
X14696928Y-15515357D01*
X14796928Y-15586786D02*
X14811214Y-15572500D01*
X14839785Y-15558214D01*
X14911214Y-15558214D01*
X14939785Y-15572500D01*
X14954071Y-15586786D01*
X14968357Y-15615357D01*
X14968357Y-15643929D01*
X14954071Y-15686786D01*
X14782643Y-15858214D01*
X14968357Y-15858214D01*
X15325500Y-15858214D02*
X15325500Y-15558214D01*
X15454071Y-15858214D02*
X15454071Y-15701071D01*
X15439785Y-15672500D01*
X15411214Y-15658214D01*
X15368357Y-15658214D01*
X15339785Y-15672500D01*
X15325500Y-15686786D01*
X15639785Y-15858214D02*
X15611214Y-15843929D01*
X15596928Y-15829643D01*
X15582643Y-15801071D01*
X15582643Y-15715357D01*
X15596928Y-15686786D01*
X15611214Y-15672500D01*
X15639785Y-15658214D01*
X15682643Y-15658214D01*
X15711214Y-15672500D01*
X15725500Y-15686786D01*
X15739785Y-15715357D01*
X15739785Y-15801071D01*
X15725500Y-15829643D01*
X15711214Y-15843929D01*
X15682643Y-15858214D01*
X15639785Y-15858214D01*
X15911214Y-15858214D02*
X15882643Y-15843929D01*
X15868357Y-15815357D01*
X15868357Y-15558214D01*
X16139786Y-15843929D02*
X16111214Y-15858214D01*
X16054071Y-15858214D01*
X16025500Y-15843929D01*
X16011214Y-15815357D01*
X16011214Y-15701071D01*
X16025500Y-15672500D01*
X16054071Y-15658214D01*
X16111214Y-15658214D01*
X16139786Y-15672500D01*
X16154071Y-15701071D01*
X16154071Y-15729643D01*
X16011214Y-15758214D01*
X16268357Y-15843929D02*
X16296928Y-15858214D01*
X16354071Y-15858214D01*
X16382643Y-15843929D01*
X16396928Y-15815357D01*
X16396928Y-15801071D01*
X16382643Y-15772500D01*
X16354071Y-15758214D01*
X16311214Y-15758214D01*
X16282643Y-15743929D01*
X16268357Y-15715357D01*
X16268357Y-15701071D01*
X16282643Y-15672500D01*
X16311214Y-15658214D01*
X16354071Y-15658214D01*
X16382643Y-15672500D01*
X16496928Y-15972500D02*
X16511214Y-15958214D01*
X16539786Y-15915357D01*
X16554071Y-15886786D01*
X16568357Y-15843929D01*
X16582643Y-15772500D01*
X16582643Y-15715357D01*
X16568357Y-15643929D01*
X16554071Y-15601071D01*
X16539786Y-15572500D01*
X16511214Y-15529643D01*
X16496928Y-15515357D01*
X9875500Y-16268500D02*
X10025500Y-16118500D01*
X9875500Y-15968500D01*
X9725500Y-16118500D01*
X9875500Y-16268500D01*
X10025500Y-16118500D02*
G75*
G03X10025500Y-16118500I-150000J0D01*
G01*
X10268357Y-15954214D02*
X10454071Y-15954214D01*
X10354071Y-16068500D01*
X10396929Y-16068500D01*
X10425500Y-16082786D01*
X10439786Y-16097071D01*
X10454071Y-16125643D01*
X10454071Y-16197071D01*
X10439786Y-16225643D01*
X10425500Y-16239929D01*
X10396929Y-16254214D01*
X10311214Y-16254214D01*
X10282643Y-16239929D01*
X10268357Y-16225643D01*
X10582643Y-16225643D02*
X10596929Y-16239929D01*
X10582643Y-16254214D01*
X10568357Y-16239929D01*
X10582643Y-16225643D01*
X10582643Y-16254214D01*
X10782643Y-15954214D02*
X10811214Y-15954214D01*
X10839786Y-15968500D01*
X10854071Y-15982786D01*
X10868357Y-16011357D01*
X10882643Y-16068500D01*
X10882643Y-16139929D01*
X10868357Y-16197071D01*
X10854071Y-16225643D01*
X10839786Y-16239929D01*
X10811214Y-16254214D01*
X10782643Y-16254214D01*
X10754071Y-16239929D01*
X10739786Y-16225643D01*
X10725500Y-16197071D01*
X10711214Y-16139929D01*
X10711214Y-16068500D01*
X10725500Y-16011357D01*
X10739786Y-15982786D01*
X10754071Y-15968500D01*
X10782643Y-15954214D01*
X11068357Y-15954214D02*
X11096929Y-15954214D01*
X11125500Y-15968500D01*
X11139786Y-15982786D01*
X11154071Y-16011357D01*
X11168357Y-16068500D01*
X11168357Y-16139929D01*
X11154071Y-16197071D01*
X11139786Y-16225643D01*
X11125500Y-16239929D01*
X11096929Y-16254214D01*
X11068357Y-16254214D01*
X11039786Y-16239929D01*
X11025500Y-16225643D01*
X11011214Y-16197071D01*
X10996929Y-16139929D01*
X10996929Y-16068500D01*
X11011214Y-16011357D01*
X11025500Y-15982786D01*
X11039786Y-15968500D01*
X11068357Y-15954214D01*
X11296928Y-16254214D02*
X11296928Y-16054214D01*
X11296928Y-16082786D02*
X11311214Y-16068500D01*
X11339786Y-16054214D01*
X11382643Y-16054214D01*
X11411214Y-16068500D01*
X11425500Y-16097071D01*
X11425500Y-16254214D01*
X11425500Y-16097071D02*
X11439786Y-16068500D01*
X11468357Y-16054214D01*
X11511214Y-16054214D01*
X11539786Y-16068500D01*
X11554071Y-16097071D01*
X11554071Y-16254214D01*
X11696928Y-16254214D02*
X11696928Y-16054214D01*
X11696928Y-16082786D02*
X11711214Y-16068500D01*
X11739786Y-16054214D01*
X11782643Y-16054214D01*
X11811214Y-16068500D01*
X11825500Y-16097071D01*
X11825500Y-16254214D01*
X11825500Y-16097071D02*
X11839786Y-16068500D01*
X11868357Y-16054214D01*
X11911214Y-16054214D01*
X11939786Y-16068500D01*
X11954071Y-16097071D01*
X11954071Y-16254214D01*
X12539786Y-15939929D02*
X12282643Y-16325643D01*
X12925500Y-15954214D02*
X12954071Y-15954214D01*
X12982643Y-15968500D01*
X12996928Y-15982786D01*
X13011214Y-16011357D01*
X13025500Y-16068500D01*
X13025500Y-16139929D01*
X13011214Y-16197071D01*
X12996928Y-16225643D01*
X12982643Y-16239929D01*
X12954071Y-16254214D01*
X12925500Y-16254214D01*
X12896928Y-16239929D01*
X12882643Y-16225643D01*
X12868357Y-16197071D01*
X12854071Y-16139929D01*
X12854071Y-16068500D01*
X12868357Y-16011357D01*
X12882643Y-15982786D01*
X12896928Y-15968500D01*
X12925500Y-15954214D01*
X13154071Y-16225643D02*
X13168357Y-16239929D01*
X13154071Y-16254214D01*
X13139786Y-16239929D01*
X13154071Y-16225643D01*
X13154071Y-16254214D01*
X13454071Y-16254214D02*
X13282643Y-16254214D01*
X13368357Y-16254214D02*
X13368357Y-15954214D01*
X13339785Y-15997071D01*
X13311214Y-16025643D01*
X13282643Y-16039929D01*
X13739785Y-16254214D02*
X13568357Y-16254214D01*
X13654071Y-16254214D02*
X13654071Y-15954214D01*
X13625500Y-15997071D01*
X13596928Y-16025643D01*
X13568357Y-16039929D01*
X13911214Y-16082786D02*
X13882643Y-16068500D01*
X13868357Y-16054214D01*
X13854071Y-16025643D01*
X13854071Y-16011357D01*
X13868357Y-15982786D01*
X13882643Y-15968500D01*
X13911214Y-15954214D01*
X13968357Y-15954214D01*
X13996928Y-15968500D01*
X14011214Y-15982786D01*
X14025500Y-16011357D01*
X14025500Y-16025643D01*
X14011214Y-16054214D01*
X13996928Y-16068500D01*
X13968357Y-16082786D01*
X13911214Y-16082786D01*
X13882643Y-16097071D01*
X13868357Y-16111357D01*
X13854071Y-16139929D01*
X13854071Y-16197071D01*
X13868357Y-16225643D01*
X13882643Y-16239929D01*
X13911214Y-16254214D01*
X13968357Y-16254214D01*
X13996928Y-16239929D01*
X14011214Y-16225643D01*
X14025500Y-16197071D01*
X14025500Y-16139929D01*
X14011214Y-16111357D01*
X13996928Y-16097071D01*
X13968357Y-16082786D01*
X14139786Y-15954214D02*
X14139786Y-16011357D01*
X14254071Y-15954214D02*
X14254071Y-16011357D01*
X14696928Y-16368500D02*
X14682643Y-16354214D01*
X14654071Y-16311357D01*
X14639785Y-16282786D01*
X14625500Y-16239929D01*
X14611214Y-16168500D01*
X14611214Y-16111357D01*
X14625500Y-16039929D01*
X14639785Y-15997071D01*
X14654071Y-15968500D01*
X14682643Y-15925643D01*
X14696928Y-15911357D01*
X14939785Y-16054214D02*
X14939785Y-16254214D01*
X14868357Y-15939929D02*
X14796928Y-16154214D01*
X14982643Y-16154214D01*
X15325500Y-16254214D02*
X15325500Y-15954214D01*
X15454071Y-16254214D02*
X15454071Y-16097071D01*
X15439785Y-16068500D01*
X15411214Y-16054214D01*
X15368357Y-16054214D01*
X15339785Y-16068500D01*
X15325500Y-16082786D01*
X15639785Y-16254214D02*
X15611214Y-16239929D01*
X15596928Y-16225643D01*
X15582643Y-16197071D01*
X15582643Y-16111357D01*
X15596928Y-16082786D01*
X15611214Y-16068500D01*
X15639785Y-16054214D01*
X15682643Y-16054214D01*
X15711214Y-16068500D01*
X15725500Y-16082786D01*
X15739785Y-16111357D01*
X15739785Y-16197071D01*
X15725500Y-16225643D01*
X15711214Y-16239929D01*
X15682643Y-16254214D01*
X15639785Y-16254214D01*
X15911214Y-16254214D02*
X15882643Y-16239929D01*
X15868357Y-16211357D01*
X15868357Y-15954214D01*
X16139786Y-16239929D02*
X16111214Y-16254214D01*
X16054071Y-16254214D01*
X16025500Y-16239929D01*
X16011214Y-16211357D01*
X16011214Y-16097071D01*
X16025500Y-16068500D01*
X16054071Y-16054214D01*
X16111214Y-16054214D01*
X16139786Y-16068500D01*
X16154071Y-16097071D01*
X16154071Y-16125643D01*
X16011214Y-16154214D01*
X16268357Y-16239929D02*
X16296928Y-16254214D01*
X16354071Y-16254214D01*
X16382643Y-16239929D01*
X16396928Y-16211357D01*
X16396928Y-16197071D01*
X16382643Y-16168500D01*
X16354071Y-16154214D01*
X16311214Y-16154214D01*
X16282643Y-16139929D01*
X16268357Y-16111357D01*
X16268357Y-16097071D01*
X16282643Y-16068500D01*
X16311214Y-16054214D01*
X16354071Y-16054214D01*
X16382643Y-16068500D01*
X16496928Y-16368500D02*
X16511214Y-16354214D01*
X16539786Y-16311357D01*
X16554071Y-16282786D01*
X16568357Y-16239929D01*
X16582643Y-16168500D01*
X16582643Y-16111357D01*
X16568357Y-16039929D01*
X16554071Y-15997071D01*
X16539786Y-15968500D01*
X16511214Y-15925643D01*
X16496928Y-15911357D01*
M02*
