G04 #@! TF.FileFunction,Copper,L1,Top,Signal*
%FSLAX46Y46*%
G04 Gerber Fmt 4.6, Leading zero omitted, Abs format (unit mm)*
G04 Created by KiCad (PCBNEW 4.0.7-e2-6376~58~ubuntu16.04.1) date Tue May  1 20:05:14 2018*
%MOMM*%
%LPD*%
G01*
G04 APERTURE LIST*
%ADD10C,0.100000*%
%ADD11R,1.600000X1.600000*%
%ADD12C,1.600000*%
%ADD13R,0.750000X1.200000*%
%ADD14R,1.800000X3.500000*%
%ADD15R,1.200000X0.900000*%
%ADD16R,2.000000X2.600000*%
%ADD17O,2.000000X2.600000*%
%ADD18C,1.520000*%
%ADD19C,2.700000*%
%ADD20R,1.700000X1.700000*%
%ADD21O,1.700000X1.700000*%
%ADD22R,0.700000X1.750000*%
%ADD23R,1.300000X1.500000*%
%ADD24R,1.500000X1.500000*%
%ADD25R,0.800000X1.500000*%
%ADD26R,1.450000X1.000000*%
%ADD27R,1.000000X1.550000*%
%ADD28R,0.800000X1.400000*%
%ADD29R,2.600000X2.000000*%
%ADD30O,2.600000X2.000000*%
%ADD31C,6.000000*%
%ADD32R,0.900000X1.200000*%
%ADD33R,0.430000X0.760000*%
%ADD34R,2.200000X1.200000*%
%ADD35R,6.400000X5.800000*%
%ADD36R,3.050000X2.750000*%
%ADD37R,3.800000X2.000000*%
%ADD38R,1.500000X2.000000*%
%ADD39C,1.524000*%
%ADD40C,2.100000*%
%ADD41C,1.750000*%
%ADD42C,3.650000*%
%ADD43C,1.500000*%
%ADD44R,0.600000X1.950000*%
%ADD45C,1.800000*%
%ADD46C,4.000000*%
%ADD47C,0.600000*%
%ADD48C,1.000000*%
%ADD49C,0.250000*%
%ADD50C,0.254000*%
G04 APERTURE END LIST*
D10*
D11*
X176570000Y-48260000D03*
D12*
X179070000Y-48260000D03*
D11*
X165100000Y-55920000D03*
D12*
X165100000Y-58420000D03*
D13*
X170180000Y-55880000D03*
X170180000Y-57780000D03*
X129540000Y-77790000D03*
X129540000Y-79690000D03*
X123190000Y-59690000D03*
X123190000Y-61590000D03*
X110490000Y-59695000D03*
X110490000Y-61595000D03*
D14*
X170180000Y-50760000D03*
X170180000Y-45760000D03*
D15*
X164882000Y-106581000D03*
X167082000Y-106581000D03*
X164882000Y-104041000D03*
X167082000Y-104041000D03*
D16*
X170180000Y-38100000D03*
D17*
X172720000Y-38100000D03*
D18*
X159670000Y-44545000D03*
X157130000Y-44545000D03*
X157130000Y-42545000D03*
X159670000Y-42545000D03*
D19*
X164400000Y-39845000D03*
X152400000Y-39845000D03*
D16*
X154940000Y-67310000D03*
D17*
X152400000Y-67310000D03*
D20*
X157480000Y-54610000D03*
D21*
X154940000Y-54610000D03*
X152400000Y-54610000D03*
D22*
X113290000Y-35608300D03*
X114390000Y-35608300D03*
X115490000Y-35608300D03*
X116590000Y-35608300D03*
X117690000Y-35608300D03*
X118790000Y-35608300D03*
X119890000Y-35608300D03*
X120990000Y-35608300D03*
D23*
X122190000Y-35733300D03*
D24*
X110840000Y-35733300D03*
D25*
X122440000Y-43333300D03*
D26*
X122115000Y-44833300D03*
D27*
X110590000Y-46408300D03*
D28*
X110490000Y-43983300D03*
D16*
X154940000Y-104140000D03*
D17*
X152400000Y-104140000D03*
X149860000Y-104140000D03*
X147320000Y-104140000D03*
D16*
X143510000Y-79375000D03*
D17*
X140970000Y-79375000D03*
X138430000Y-79375000D03*
X135890000Y-79375000D03*
D29*
X104140000Y-85090000D03*
D30*
X104140000Y-82550000D03*
X104140000Y-80010000D03*
X104140000Y-77470000D03*
D29*
X104140000Y-72390000D03*
D30*
X104140000Y-69850000D03*
X104140000Y-67310000D03*
X104140000Y-64770000D03*
D31*
X180340000Y-104140000D03*
X104140000Y-38100000D03*
X104140000Y-104140000D03*
X180340000Y-38100000D03*
D15*
X162002000Y-106581000D03*
X159802000Y-106581000D03*
X159802000Y-104041000D03*
X162002000Y-104041000D03*
X114130000Y-53333300D03*
X111930000Y-53333300D03*
X121750000Y-53333300D03*
X119550000Y-53333300D03*
D32*
X162560000Y-81575000D03*
X162560000Y-79375000D03*
X165100000Y-81575000D03*
X165100000Y-79375000D03*
X167640000Y-81575000D03*
X167640000Y-79375000D03*
X172720000Y-81575000D03*
X172720000Y-79375000D03*
D33*
X121260000Y-87630000D03*
X121260000Y-89150000D03*
X120460000Y-87630000D03*
X120460000Y-89150000D03*
X122060000Y-87630000D03*
X119660000Y-87630000D03*
X119660000Y-89150000D03*
X122060000Y-89150000D03*
X118860000Y-87630000D03*
X118060000Y-87630000D03*
X123660000Y-87630000D03*
X122860000Y-87630000D03*
X122860000Y-89150000D03*
X123660000Y-89150000D03*
X118060000Y-89150000D03*
X118860000Y-89150000D03*
D34*
X173816000Y-54015200D03*
X173816000Y-58575200D03*
D35*
X180116000Y-56295200D03*
D36*
X181791000Y-57820200D03*
X178441000Y-54770200D03*
X181791000Y-54770200D03*
X178441000Y-57820200D03*
D37*
X116840000Y-66040000D03*
D38*
X116840000Y-59740000D03*
X114540000Y-59740000D03*
X119140000Y-59740000D03*
D39*
X106680000Y-43180000D03*
X106680000Y-45720000D03*
X106680000Y-48260000D03*
X106680000Y-50800000D03*
X106680000Y-53340000D03*
X106680000Y-55880000D03*
X127000000Y-55880000D03*
X127000000Y-53340000D03*
X127000000Y-50800000D03*
X127000000Y-48260000D03*
X127000000Y-45720000D03*
X127000000Y-43180000D03*
D12*
X139700000Y-69850000D03*
X142240000Y-69850000D03*
X144780000Y-69850000D03*
X147320000Y-69850000D03*
X137160000Y-69850000D03*
X134620000Y-69850000D03*
X132080000Y-69850000D03*
X147320000Y-67310000D03*
X147320000Y-64770000D03*
X147320000Y-62230000D03*
X147320000Y-59690000D03*
X147320000Y-57150000D03*
X147320000Y-54610000D03*
X147320000Y-52070000D03*
X147320000Y-49530000D03*
X147320000Y-46990000D03*
X147320000Y-44450000D03*
X147320000Y-41910000D03*
X147320000Y-39370000D03*
X147320000Y-36830000D03*
X144780000Y-39370000D03*
X144780000Y-44450000D03*
X144780000Y-46990000D03*
X144780000Y-49530000D03*
X132080000Y-67310000D03*
X132080000Y-64770000D03*
X132080000Y-62230000D03*
X132080000Y-59690000D03*
X132080000Y-57150000D03*
X132080000Y-54610000D03*
X132080000Y-52070000D03*
X132080000Y-49530000D03*
X132080000Y-46990000D03*
X132080000Y-44450000D03*
X132080000Y-41910000D03*
X132080000Y-39370000D03*
D11*
X132080000Y-36830000D03*
D12*
X139700000Y-52070000D03*
X139700000Y-54610000D03*
X139700000Y-57150000D03*
X139700000Y-59690000D03*
X139700000Y-62230000D03*
X139700000Y-64770000D03*
X139700000Y-67310000D03*
X142240000Y-67310000D03*
X142240000Y-64770000D03*
X142240000Y-62230000D03*
X142240000Y-59690000D03*
X142240000Y-57150000D03*
X142240000Y-54610000D03*
X142240000Y-52070000D03*
D40*
X179655000Y-68590000D03*
D41*
X182145000Y-67330000D03*
X182145000Y-62830000D03*
D40*
X179655000Y-61580000D03*
X179655000Y-78750000D03*
D41*
X182145000Y-77490000D03*
X182145000Y-72990000D03*
D40*
X179655000Y-71740000D03*
X179655000Y-88910000D03*
D41*
X182145000Y-87650000D03*
X182145000Y-83150000D03*
D40*
X179655000Y-81900000D03*
D42*
X142240000Y-104140000D03*
X130810000Y-104140000D03*
D24*
X132080000Y-97790000D03*
D43*
X133350000Y-95250000D03*
X134620000Y-97790000D03*
X135890000Y-95250000D03*
X137160000Y-97790000D03*
X138430000Y-95250000D03*
X139700000Y-97790000D03*
X140970000Y-95250000D03*
D42*
X124460000Y-104140000D03*
X113030000Y-104140000D03*
D24*
X114300000Y-97790000D03*
D43*
X115570000Y-95250000D03*
X116840000Y-97790000D03*
X118110000Y-95250000D03*
X119380000Y-97790000D03*
X120650000Y-95250000D03*
X121920000Y-97790000D03*
X123190000Y-95250000D03*
D29*
X104140000Y-97540200D03*
D30*
X104140000Y-95000200D03*
X104140000Y-92460200D03*
X104140000Y-89920200D03*
D44*
X127635000Y-74040000D03*
X126365000Y-74040000D03*
X125095000Y-74040000D03*
X123825000Y-74040000D03*
X122555000Y-74040000D03*
X121285000Y-74040000D03*
X120015000Y-74040000D03*
X118745000Y-74040000D03*
X117475000Y-74040000D03*
X116205000Y-74040000D03*
X116205000Y-83440000D03*
X117475000Y-83440000D03*
X118745000Y-83440000D03*
X120015000Y-83440000D03*
X121285000Y-83440000D03*
X122555000Y-83440000D03*
X123825000Y-83440000D03*
X125095000Y-83440000D03*
X126365000Y-83440000D03*
X127635000Y-83440000D03*
D32*
X170180000Y-81575000D03*
X170180000Y-79375000D03*
D40*
X179755000Y-99050000D03*
D41*
X182245000Y-97790000D03*
X182245000Y-93290000D03*
D40*
X179755000Y-92040000D03*
D45*
X160640000Y-67940000D03*
X160640000Y-70440000D03*
X160640000Y-72940000D03*
D46*
X167640000Y-66040000D03*
X167640000Y-74840000D03*
D45*
X160640000Y-89620000D03*
X160640000Y-92120000D03*
X160640000Y-94620000D03*
D46*
X167640000Y-87720000D03*
X167640000Y-96520000D03*
D47*
X120650000Y-58420000D03*
X149014300Y-68163600D03*
X123236700Y-93509700D03*
X122577600Y-92870700D03*
X120035100Y-91373900D03*
X120790300Y-91809700D03*
X120092900Y-37011500D03*
X120190500Y-52363100D03*
X114390000Y-37010000D03*
X133350000Y-69241000D03*
X129549800Y-65767300D03*
X129186700Y-67059000D03*
X128117300Y-66147000D03*
X117036700Y-37010500D03*
X154130900Y-57027000D03*
X161591700Y-81575000D03*
X124188200Y-90111700D03*
D48*
X120460000Y-58420000D02*
X119140000Y-59740000D01*
X120650000Y-58420000D02*
X120460000Y-58420000D01*
D49*
X127635000Y-83440000D02*
X127635000Y-82139700D01*
X129159400Y-76864700D02*
X129540000Y-76864700D01*
X127635000Y-75340300D02*
X129159400Y-76864700D01*
X127635000Y-74040000D02*
X127635000Y-75340300D01*
X129540000Y-77790000D02*
X129540000Y-76864700D01*
X153076300Y-107356300D02*
X149860000Y-104140000D01*
X167082000Y-107356300D02*
X153076300Y-107356300D01*
X167082000Y-106581000D02*
X167082000Y-107356300D01*
X135890000Y-79375000D02*
X135227400Y-79375000D01*
X129540000Y-77790000D02*
X130240300Y-77790000D01*
X128526000Y-82139700D02*
X131558000Y-79107700D01*
X127635000Y-82139700D02*
X128526000Y-82139700D01*
X131825300Y-79375000D02*
X131558000Y-79107700D01*
X135227400Y-79375000D02*
X131825300Y-79375000D01*
X131558000Y-79107700D02*
X130240300Y-77790000D01*
X121219700Y-58420000D02*
X122489700Y-59690000D01*
X120650000Y-58420000D02*
X121219700Y-58420000D01*
X123190000Y-59690000D02*
X122489700Y-59690000D01*
X126365000Y-83440000D02*
X126365000Y-82139700D01*
X119380000Y-97790000D02*
X116840000Y-97790000D01*
X180116000Y-57820200D02*
X181791000Y-57820200D01*
X128814700Y-79690000D02*
X129540000Y-79690000D01*
X126365000Y-82139700D02*
X128814700Y-79690000D01*
X150510300Y-37955300D02*
X152400000Y-39845000D01*
X134330600Y-37955300D02*
X150510300Y-37955300D01*
X133205300Y-36830000D02*
X134330600Y-37955300D01*
X167109700Y-39845000D02*
X168854700Y-38100000D01*
X164400000Y-39845000D02*
X167109700Y-39845000D01*
X170180000Y-38100000D02*
X168854700Y-38100000D01*
X165740000Y-57780000D02*
X165100000Y-58420000D01*
X170180000Y-57780000D02*
X165740000Y-57780000D01*
X119065300Y-65014400D02*
X122489700Y-61590000D01*
X119065300Y-66040000D02*
X119065300Y-65014400D01*
X123190000Y-61590000D02*
X122489700Y-61590000D01*
X121920000Y-97790000D02*
X119380000Y-97790000D01*
X154940000Y-104140000D02*
X156265300Y-104140000D01*
X159802000Y-104140000D02*
X156265300Y-104140000D01*
X159802000Y-106581000D02*
X159802000Y-104140000D01*
X159802000Y-104140000D02*
X159802000Y-104041000D01*
X170180000Y-57780000D02*
X170880300Y-57780000D01*
X180116000Y-57820200D02*
X178441000Y-57820200D01*
X170880300Y-57867500D02*
X170880300Y-57780000D01*
X172513400Y-59500600D02*
X170880300Y-57867500D01*
X175120500Y-59500600D02*
X172513400Y-59500600D01*
X176590700Y-58030400D02*
X175120500Y-59500600D01*
X176590700Y-57820200D02*
X176590700Y-58030400D01*
X178441000Y-57820200D02*
X176590700Y-57820200D01*
X181791000Y-54770200D02*
X180116000Y-54770200D01*
X180116000Y-57820200D02*
X180116000Y-56295200D01*
X132080000Y-36830000D02*
X133205300Y-36830000D01*
X179070000Y-52440900D02*
X178441000Y-53069900D01*
X179070000Y-48260000D02*
X179070000Y-52440900D01*
X178441000Y-54770200D02*
X178441000Y-53069900D01*
X180116000Y-56295200D02*
X180116000Y-54770200D01*
X180116000Y-54770200D02*
X178441000Y-54770200D01*
X115764700Y-60815300D02*
X115764700Y-59740000D01*
X114985000Y-61595000D02*
X115764700Y-60815300D01*
X110490000Y-61595000D02*
X114985000Y-61595000D01*
X116840000Y-59740000D02*
X115764700Y-59740000D01*
X117045000Y-66040000D02*
X119065300Y-66040000D01*
X117045000Y-66040000D02*
X117024600Y-66040000D01*
X106115000Y-72739700D02*
X105765300Y-72390000D01*
X116205000Y-72739700D02*
X106115000Y-72739700D01*
X116205000Y-74040000D02*
X116205000Y-72739700D01*
X104140000Y-72390000D02*
X105765300Y-72390000D01*
X116840000Y-66040000D02*
X116932300Y-66040000D01*
X116932300Y-66040000D02*
X117024600Y-66040000D01*
X116205000Y-66767300D02*
X116205000Y-72739700D01*
X116932300Y-66040000D02*
X116205000Y-66767300D01*
X137160000Y-97790000D02*
X134620000Y-97790000D01*
X110490000Y-43983300D02*
X110490000Y-42958000D01*
X108632000Y-41228000D02*
X108760000Y-41228000D01*
X106680000Y-43180000D02*
X108632000Y-41228000D01*
X108760000Y-41228000D02*
X110490000Y-42958000D01*
X110840000Y-39148000D02*
X108760000Y-41228000D01*
X110840000Y-35733300D02*
X110840000Y-39148000D01*
X105128500Y-61595000D02*
X105589100Y-61595000D01*
X102489100Y-64234400D02*
X105128500Y-61595000D01*
X102489100Y-70739100D02*
X102489100Y-64234400D01*
X104140000Y-72390000D02*
X102489100Y-70739100D01*
X105589100Y-61595000D02*
X110490000Y-61595000D01*
X148590000Y-97790000D02*
X154940000Y-104140000D01*
X139700000Y-97790000D02*
X148590000Y-97790000D01*
X122440000Y-43333300D02*
X122440000Y-43064400D01*
X122190000Y-35733300D02*
X122190000Y-36808600D01*
X134620000Y-97790000D02*
X132080000Y-97790000D01*
X132080000Y-97790000D02*
X132080000Y-96714700D01*
X132080000Y-96714700D02*
X132080000Y-84808600D01*
X132011700Y-84740300D02*
X132080000Y-84808600D01*
X126365000Y-84740300D02*
X132011700Y-84740300D01*
X132996400Y-84808600D02*
X138430000Y-79375000D01*
X132080000Y-84808600D02*
X132996400Y-84808600D01*
X126365000Y-83440000D02*
X126365000Y-84740300D01*
X116840000Y-97790000D02*
X114300000Y-97790000D01*
X118815000Y-43333300D02*
X122440000Y-43333300D01*
X110242600Y-51905700D02*
X118815000Y-43333300D01*
X105589100Y-51905700D02*
X110242600Y-51905700D01*
X105589100Y-46810900D02*
X105589100Y-51905700D01*
X106680000Y-45720000D02*
X105589100Y-46810900D01*
X105589100Y-51905700D02*
X105589100Y-61595000D01*
X122190000Y-36808600D02*
X121356800Y-37641800D01*
X119623200Y-37641800D02*
X118790000Y-36808600D01*
X121356800Y-37641800D02*
X119623200Y-37641800D01*
X126884400Y-43064400D02*
X127000000Y-43180000D01*
X122440000Y-43064400D02*
X126884400Y-43064400D01*
X118790000Y-35608300D02*
X118790000Y-36808600D01*
X122440000Y-38725000D02*
X121356800Y-37641800D01*
X122440000Y-43064400D02*
X122440000Y-38725000D01*
X159830000Y-39845000D02*
X164400000Y-39845000D01*
X157130000Y-42545000D02*
X159830000Y-39845000D01*
X152990000Y-70440000D02*
X147320000Y-64770000D01*
X160640000Y-70440000D02*
X152990000Y-70440000D01*
X150774600Y-65684600D02*
X147320000Y-62230000D01*
X156621400Y-65684600D02*
X150774600Y-65684600D01*
X160102200Y-69165400D02*
X156621400Y-65684600D01*
X161136700Y-69165400D02*
X160102200Y-69165400D01*
X161871400Y-69900100D02*
X161136700Y-69165400D01*
X161871400Y-74552700D02*
X161871400Y-69900100D01*
X158961500Y-77462600D02*
X161871400Y-74552700D01*
X158961500Y-90441500D02*
X158961500Y-77462600D01*
X160640000Y-92120000D02*
X158961500Y-90441500D01*
X140970000Y-79375000D02*
X140970000Y-77749700D01*
X141035300Y-77749700D02*
X140970000Y-77749700D01*
X148456000Y-70329000D02*
X141035300Y-77749700D01*
X148456000Y-68684500D02*
X148456000Y-70329000D01*
X148389000Y-68617500D02*
X148456000Y-68684500D01*
X148389000Y-67904600D02*
X148389000Y-68617500D01*
X148456000Y-67837600D02*
X148389000Y-67904600D01*
X148456000Y-66783100D02*
X148456000Y-67837600D01*
X147712900Y-66040000D02*
X148456000Y-66783100D01*
X146992500Y-66040000D02*
X147712900Y-66040000D01*
X145722800Y-64770300D02*
X146992500Y-66040000D01*
X145722800Y-56207200D02*
X145722800Y-64770300D01*
X147320000Y-54610000D02*
X145722800Y-56207200D01*
X149014300Y-75196000D02*
X144835300Y-79375000D01*
X149014300Y-68163600D02*
X149014300Y-75196000D01*
X143510000Y-79375000D02*
X144835300Y-79375000D01*
X120460000Y-89150000D02*
X120460000Y-89855300D01*
X123236700Y-92632000D02*
X120460000Y-89855300D01*
X123236700Y-93509700D02*
X123236700Y-92632000D01*
X119660000Y-89150000D02*
X119660000Y-89855300D01*
X122577600Y-92661200D02*
X122577600Y-92870700D01*
X119771700Y-89855300D02*
X122577600Y-92661200D01*
X119660000Y-89855300D02*
X119771700Y-89855300D01*
X118860000Y-89150000D02*
X118860000Y-89855300D01*
X120035000Y-91373900D02*
X120035100Y-91373900D01*
X120035000Y-91030300D02*
X120035000Y-91373900D01*
X118860000Y-89855300D02*
X120035000Y-91030300D01*
X118060000Y-90294100D02*
X118060000Y-89150000D01*
X119808600Y-92042700D02*
X118060000Y-90294100D01*
X120557300Y-92042700D02*
X119808600Y-92042700D01*
X120790300Y-91809700D02*
X120557300Y-92042700D01*
X119890000Y-35608300D02*
X119890000Y-36808600D01*
X120092900Y-37011500D02*
X119890000Y-36808600D01*
X117690000Y-41066600D02*
X117690000Y-35608300D01*
X107956600Y-50800000D02*
X117690000Y-41066600D01*
X106680000Y-50800000D02*
X107956600Y-50800000D01*
X115490000Y-35608300D02*
X115490000Y-36808600D01*
X115490000Y-40551100D02*
X115490000Y-36808600D01*
X110882800Y-45158300D02*
X115490000Y-40551100D01*
X109781700Y-45158300D02*
X110882800Y-45158300D01*
X106680000Y-48260000D02*
X109781700Y-45158300D01*
X119995600Y-52558000D02*
X120190500Y-52363100D01*
X119550000Y-52558000D02*
X119995600Y-52558000D01*
X119550000Y-53333300D02*
X119550000Y-52558000D01*
X114390000Y-37010000D02*
X114390000Y-35608300D01*
X108521000Y-62929000D02*
X104140000Y-67310000D01*
X108521000Y-62928900D02*
X108521000Y-62929000D01*
X115896100Y-62928900D02*
X108521000Y-62928900D01*
X117915400Y-60909600D02*
X115896100Y-62928900D01*
X117915400Y-58743600D02*
X117915400Y-60909600D01*
X125848300Y-50810700D02*
X117915400Y-58743600D01*
X125848300Y-50410400D02*
X125848300Y-50810700D01*
X126728700Y-49530000D02*
X125848300Y-50410400D01*
X127323100Y-49530000D02*
X126728700Y-49530000D01*
X128480000Y-48373100D02*
X127323100Y-49530000D01*
X128480000Y-42970000D02*
X128480000Y-48373100D01*
X132080000Y-39370000D02*
X128480000Y-42970000D01*
X110556200Y-63433800D02*
X104140000Y-69850000D01*
X118990400Y-63433800D02*
X110556200Y-63433800D01*
X121808800Y-60615400D02*
X118990400Y-63433800D01*
X123777900Y-60615400D02*
X121808800Y-60615400D01*
X124629200Y-59764100D02*
X123777900Y-60615400D01*
X124629200Y-54133700D02*
X124629200Y-59764100D01*
X126692900Y-52070000D02*
X124629200Y-54133700D01*
X127300000Y-52070000D02*
X126692900Y-52070000D01*
X130101900Y-49268100D02*
X127300000Y-52070000D01*
X130101900Y-43888100D02*
X130101900Y-49268100D01*
X132080000Y-41910000D02*
X130101900Y-43888100D01*
X110998000Y-53340000D02*
X111004700Y-53333300D01*
X106680000Y-53340000D02*
X110998000Y-53340000D01*
X111930000Y-53333300D02*
X111004700Y-53333300D01*
X162560000Y-76619000D02*
X162560000Y-79375000D01*
X171964900Y-67214100D02*
X162560000Y-76619000D01*
X182029100Y-67214100D02*
X171964900Y-67214100D01*
X182145000Y-67330000D02*
X182029100Y-67214100D01*
X167922600Y-77327700D02*
X165875300Y-79375000D01*
X181982700Y-77327700D02*
X167922600Y-77327700D01*
X182145000Y-77490000D02*
X181982700Y-77327700D01*
X165100000Y-79375000D02*
X165875300Y-79375000D01*
X172720000Y-79375000D02*
X173495300Y-79375000D01*
X182220100Y-93265100D02*
X182245000Y-93290000D01*
X182220100Y-89347500D02*
X182220100Y-93265100D01*
X182144900Y-89347500D02*
X182220100Y-89347500D01*
X180896300Y-88098900D02*
X182144900Y-89347500D01*
X180896300Y-86776000D02*
X180896300Y-88098900D01*
X173495300Y-79375000D02*
X180896300Y-86776000D01*
X183345400Y-84350400D02*
X182145000Y-83150000D01*
X183345400Y-88222200D02*
X183345400Y-84350400D01*
X182220100Y-89347500D02*
X183345400Y-88222200D01*
X183359400Y-64345800D02*
X181994300Y-62980700D01*
X183359400Y-71775600D02*
X183359400Y-64345800D01*
X182145000Y-72990000D02*
X183359400Y-71775600D01*
X182145000Y-62830000D02*
X181994300Y-62980700D01*
X150610700Y-62980700D02*
X147320000Y-59690000D01*
X181994300Y-62980700D02*
X150610700Y-62980700D01*
X121260000Y-84765300D02*
X121260000Y-87630000D01*
X121285000Y-84740300D02*
X121260000Y-84765300D01*
X121285000Y-83440000D02*
X121285000Y-84740300D01*
X120460000Y-85185300D02*
X120460000Y-87630000D01*
X120015000Y-84740300D02*
X120460000Y-85185300D01*
X120015000Y-83440000D02*
X120015000Y-84740300D01*
X122060000Y-85235300D02*
X122060000Y-87630000D01*
X122555000Y-84740300D02*
X122060000Y-85235300D01*
X122555000Y-83440000D02*
X122555000Y-84740300D01*
X119660000Y-85655300D02*
X119660000Y-87630000D01*
X118745000Y-84740300D02*
X119660000Y-85655300D01*
X118745000Y-83440000D02*
X118745000Y-84740300D01*
X118860000Y-86178900D02*
X118860000Y-87630000D01*
X117475000Y-84793900D02*
X118860000Y-86178900D01*
X117475000Y-83440000D02*
X117475000Y-84793900D01*
X116205000Y-85069700D02*
X118060000Y-86924700D01*
X116205000Y-83440000D02*
X116205000Y-85069700D01*
X118060000Y-87630000D02*
X118060000Y-86924700D01*
X125095000Y-85489700D02*
X123660000Y-86924700D01*
X125095000Y-83440000D02*
X125095000Y-85489700D01*
X123660000Y-87630000D02*
X123660000Y-86924700D01*
X122860000Y-85705300D02*
X122860000Y-87630000D01*
X123825000Y-84740300D02*
X122860000Y-85705300D01*
X123825000Y-83440000D02*
X123825000Y-84740300D01*
X129540000Y-50800000D02*
X127000000Y-53340000D01*
X134450900Y-50800000D02*
X129540000Y-50800000D01*
X139530900Y-45720000D02*
X134450900Y-50800000D01*
X146050000Y-45720000D02*
X139530900Y-45720000D01*
X147320000Y-44450000D02*
X146050000Y-45720000D01*
X133350000Y-70247600D02*
X133350000Y-69241000D01*
X130857900Y-72739700D02*
X133350000Y-70247600D01*
X126365000Y-72739700D02*
X130857900Y-72739700D01*
X126365000Y-74040000D02*
X126365000Y-72739700D01*
X146050000Y-68580000D02*
X147320000Y-67310000D01*
X129254700Y-68580000D02*
X146050000Y-68580000D01*
X125095000Y-72739700D02*
X129254700Y-68580000D01*
X125095000Y-74040000D02*
X125095000Y-72739700D01*
X123825000Y-74040000D02*
X123825000Y-72739700D01*
X104140000Y-92460200D02*
X105765300Y-92460200D01*
X129817000Y-66034500D02*
X129549800Y-65767300D01*
X129817000Y-67313100D02*
X129817000Y-66034500D01*
X124390400Y-72739700D02*
X129817000Y-67313100D01*
X123825000Y-72739700D02*
X124390400Y-72739700D01*
X128544800Y-66772300D02*
X129549800Y-65767300D01*
X127814400Y-66772300D02*
X128544800Y-66772300D01*
X121929600Y-72657100D02*
X127814400Y-66772300D01*
X121929600Y-75148500D02*
X121929600Y-72657100D01*
X105765300Y-91312800D02*
X121929600Y-75148500D01*
X105765300Y-92460200D02*
X105765300Y-91312800D01*
X114494600Y-84645600D02*
X104140000Y-95000200D01*
X114494600Y-83400700D02*
X114494600Y-84645600D01*
X122555000Y-75340300D02*
X114494600Y-83400700D01*
X122555000Y-74690100D02*
X122555000Y-75340300D01*
X122555000Y-74690100D02*
X122555000Y-74040000D01*
X122555000Y-74040000D02*
X122555000Y-72739700D01*
X128157400Y-68088300D02*
X129186700Y-67059000D01*
X127206400Y-68088300D02*
X128157400Y-68088300D01*
X122555000Y-72739700D02*
X127206400Y-68088300D01*
X121285000Y-74040000D02*
X121285000Y-72739700D01*
X127798100Y-66147000D02*
X128117300Y-66147000D01*
X121285000Y-72660100D02*
X127798100Y-66147000D01*
X121285000Y-72739700D02*
X121285000Y-72660100D01*
X120015000Y-74040000D02*
X120015000Y-72739700D01*
X143510000Y-55880000D02*
X147320000Y-52070000D01*
X141905300Y-55880000D02*
X143510000Y-55880000D01*
X141114600Y-56670700D02*
X141905300Y-55880000D01*
X141114600Y-57333000D02*
X141114600Y-56670700D01*
X139883000Y-58564600D02*
X141114600Y-57333000D01*
X137468700Y-58564600D02*
X139883000Y-58564600D01*
X132473100Y-63560200D02*
X137468700Y-58564600D01*
X129104000Y-63560200D02*
X132473100Y-63560200D01*
X120015000Y-72649200D02*
X129104000Y-63560200D01*
X120015000Y-72739700D02*
X120015000Y-72649200D01*
X118745000Y-72641900D02*
X118745000Y-74040000D01*
X130426900Y-60960000D02*
X118745000Y-72641900D01*
X133121800Y-60960000D02*
X130426900Y-60960000D01*
X138346400Y-55735400D02*
X133121800Y-60960000D01*
X140179400Y-55735400D02*
X138346400Y-55735400D01*
X141114600Y-54800200D02*
X140179400Y-55735400D01*
X141114600Y-54134200D02*
X141114600Y-54800200D01*
X141764200Y-53484600D02*
X141114600Y-54134200D01*
X143365400Y-53484600D02*
X141764200Y-53484600D01*
X147320000Y-49530000D02*
X143365400Y-53484600D01*
X130665400Y-53484600D02*
X132080000Y-52070000D01*
X130665400Y-57288500D02*
X130665400Y-53484600D01*
X117475000Y-70478900D02*
X130665400Y-57288500D01*
X117475000Y-74040000D02*
X117475000Y-70478900D01*
X167082000Y-104041000D02*
X167082000Y-103265700D01*
X148454000Y-48124000D02*
X147320000Y-46990000D01*
X148454000Y-55125900D02*
X148454000Y-48124000D01*
X147699900Y-55880000D02*
X148454000Y-55125900D01*
X146940100Y-55880000D02*
X147699900Y-55880000D01*
X146173200Y-56646900D02*
X146940100Y-55880000D01*
X146173200Y-60174100D02*
X146173200Y-56646900D01*
X146959100Y-60960000D02*
X146173200Y-60174100D01*
X147953000Y-60960000D02*
X146959100Y-60960000D01*
X150884900Y-63891900D02*
X147953000Y-60960000D01*
X158376700Y-63891900D02*
X150884900Y-63891900D01*
X162321800Y-67837000D02*
X158376700Y-63891900D01*
X162321800Y-76036600D02*
X162321800Y-67837000D01*
X159411900Y-78946500D02*
X162321800Y-76036600D01*
X159411900Y-90134400D02*
X159411900Y-78946500D01*
X160147500Y-90870000D02*
X159411900Y-90134400D01*
X161134200Y-90870000D02*
X160147500Y-90870000D01*
X161865400Y-91601200D02*
X161134200Y-90870000D01*
X161865400Y-98049100D02*
X161865400Y-91601200D01*
X167082000Y-103265700D02*
X161865400Y-98049100D01*
D48*
X172720000Y-43220000D02*
X170180000Y-45760000D01*
X172720000Y-38100000D02*
X172720000Y-43220000D01*
D49*
X162002000Y-104041000D02*
X164882000Y-104041000D01*
X113240100Y-82550000D02*
X104140000Y-82550000D01*
X120659600Y-75130500D02*
X113240100Y-82550000D01*
X120659600Y-72641500D02*
X120659600Y-75130500D01*
X128531100Y-64770000D02*
X120659600Y-72641500D01*
X132080000Y-64770000D02*
X128531100Y-64770000D01*
X114551000Y-80010000D02*
X104140000Y-80010000D01*
X119389600Y-75171400D02*
X114551000Y-80010000D01*
X119389600Y-72635600D02*
X119389600Y-75171400D01*
X129795200Y-62230000D02*
X119389600Y-72635600D01*
X132080000Y-62230000D02*
X129795200Y-62230000D01*
D48*
X173816000Y-51014000D02*
X176570000Y-48260000D01*
X173816000Y-54015200D02*
X173816000Y-51014000D01*
X170561000Y-50760000D02*
X173816000Y-54015200D01*
X170180000Y-50760000D02*
X170561000Y-50760000D01*
X158790000Y-55920000D02*
X157480000Y-54610000D01*
X165100000Y-55920000D02*
X158790000Y-55920000D01*
X165140000Y-55880000D02*
X165100000Y-55920000D01*
X170180000Y-55880000D02*
X165140000Y-55880000D01*
X171121000Y-55880000D02*
X170180000Y-55880000D01*
X173816000Y-58575200D02*
X171121000Y-55880000D01*
D49*
X111235300Y-59740000D02*
X111190300Y-59695000D01*
X114540000Y-59740000D02*
X111235300Y-59740000D01*
X110490000Y-59695000D02*
X111190300Y-59695000D01*
X121750000Y-53333300D02*
X121750000Y-54108600D01*
X114540000Y-59740000D02*
X114540000Y-58414700D01*
X114130000Y-53333300D02*
X114130000Y-54108600D01*
X114540000Y-54108600D02*
X114540000Y-58414700D01*
X121750000Y-54108600D02*
X114540000Y-54108600D01*
X114540000Y-54108600D02*
X114130000Y-54108600D01*
X116834800Y-36808600D02*
X117036700Y-37010500D01*
X116590000Y-36808600D02*
X116834800Y-36808600D01*
X116590000Y-35608300D02*
X116590000Y-36808600D01*
X122675300Y-52584700D02*
X122675300Y-53333300D01*
X127000000Y-48260000D02*
X122675300Y-52584700D01*
X121750000Y-53333300D02*
X122675300Y-53333300D01*
X162002000Y-106581000D02*
X164882000Y-106581000D01*
X154249300Y-57027000D02*
X154130900Y-57027000D01*
X156304600Y-54971700D02*
X154249300Y-57027000D01*
X156304600Y-47910400D02*
X156304600Y-54971700D01*
X159670000Y-44545000D02*
X156304600Y-47910400D01*
X152400000Y-49275000D02*
X157130000Y-44545000D01*
X152400000Y-54610000D02*
X152400000Y-49275000D01*
X147320000Y-104140000D02*
X145994700Y-104140000D01*
X142961300Y-101106600D02*
X145994700Y-104140000D01*
X129725800Y-101106600D02*
X142961300Y-101106600D01*
X124312300Y-95693100D02*
X129725800Y-101106600D01*
X123680000Y-96325400D02*
X124312300Y-95693100D01*
X119185400Y-96325400D02*
X123680000Y-96325400D01*
X118110000Y-95250000D02*
X119185400Y-96325400D01*
X124312300Y-91529300D02*
X124312300Y-95693100D01*
X122860000Y-90077000D02*
X124312300Y-91529300D01*
X122860000Y-89150000D02*
X122860000Y-90077000D01*
X117634300Y-88444700D02*
X122060000Y-88444700D01*
X117519600Y-88559400D02*
X117634300Y-88444700D01*
X117519600Y-92119600D02*
X117519600Y-88559400D01*
X120650000Y-95250000D02*
X117519600Y-92119600D01*
X122060000Y-89150000D02*
X122060000Y-88444700D01*
X121260000Y-89150000D02*
X121260000Y-89855300D01*
X123862000Y-92457300D02*
X121260000Y-89855300D01*
X123862000Y-94578000D02*
X123862000Y-92457300D01*
X123190000Y-95250000D02*
X123862000Y-94578000D01*
X169348300Y-78442000D02*
X168415300Y-79375000D01*
X173339400Y-78442000D02*
X169348300Y-78442000D01*
X182145000Y-87247600D02*
X173339400Y-78442000D01*
X182145000Y-87650000D02*
X182145000Y-87247600D01*
X167640000Y-79375000D02*
X168415300Y-79375000D01*
X170180000Y-81575000D02*
X167640000Y-81575000D01*
X167640000Y-81575000D02*
X165100000Y-81575000D01*
X165100000Y-81575000D02*
X162560000Y-81575000D01*
X162560000Y-81575000D02*
X161784700Y-81575000D01*
X161784700Y-81575000D02*
X161591700Y-81575000D01*
X170691100Y-82828600D02*
X171944700Y-81575000D01*
X167431400Y-82828600D02*
X170691100Y-82828600D01*
X160640000Y-89620000D02*
X167431400Y-82828600D01*
X172720000Y-81575000D02*
X171944700Y-81575000D01*
X172229900Y-80649600D02*
X170955300Y-79375000D01*
X173329700Y-80649600D02*
X172229900Y-80649600D01*
X173495400Y-80815300D02*
X173329700Y-80649600D01*
X173495400Y-89040400D02*
X173495400Y-80815300D01*
X182245000Y-97790000D02*
X173495400Y-89040400D01*
X170180000Y-79375000D02*
X170955300Y-79375000D01*
X123660000Y-89150000D02*
X123660000Y-89855300D01*
X123916400Y-90111700D02*
X124188200Y-90111700D01*
X123660000Y-89855300D02*
X123916400Y-90111700D01*
D50*
G36*
X109455000Y-35447550D02*
X109613750Y-35606300D01*
X110713000Y-35606300D01*
X110713000Y-35586300D01*
X110967000Y-35586300D01*
X110967000Y-35606300D01*
X112066250Y-35606300D01*
X112225000Y-35447550D01*
X112225000Y-35000000D01*
X112292560Y-35000000D01*
X112292560Y-36483300D01*
X112336838Y-36718617D01*
X112475910Y-36934741D01*
X112688110Y-37079731D01*
X112940000Y-37130740D01*
X113454894Y-37130740D01*
X113454838Y-37195167D01*
X113596883Y-37538943D01*
X113859673Y-37802192D01*
X114203201Y-37944838D01*
X114575167Y-37945162D01*
X114730000Y-37881186D01*
X114730000Y-40236298D01*
X111525000Y-43441298D01*
X111525000Y-43156990D01*
X111428327Y-42923601D01*
X111249698Y-42744973D01*
X111016309Y-42648300D01*
X110775750Y-42648300D01*
X110617000Y-42807050D01*
X110617000Y-43856300D01*
X110637000Y-43856300D01*
X110637000Y-44110300D01*
X110617000Y-44110300D01*
X110617000Y-44130300D01*
X110363000Y-44130300D01*
X110363000Y-44110300D01*
X109613750Y-44110300D01*
X109455000Y-44269050D01*
X109455000Y-44480113D01*
X109244299Y-44620899D01*
X108081916Y-45783282D01*
X108061362Y-45372632D01*
X107902397Y-44988857D01*
X107660213Y-44919392D01*
X106859605Y-45720000D01*
X106873748Y-45734143D01*
X106694143Y-45913748D01*
X106680000Y-45899605D01*
X105879392Y-46700213D01*
X105948857Y-46942397D01*
X106089318Y-46992509D01*
X105889697Y-47074990D01*
X105496371Y-47467630D01*
X105283243Y-47980900D01*
X105282758Y-48536661D01*
X105494990Y-49050303D01*
X105887630Y-49443629D01*
X106095512Y-49529949D01*
X105889697Y-49614990D01*
X105496371Y-50007630D01*
X105283243Y-50520900D01*
X105282758Y-51076661D01*
X105494990Y-51590303D01*
X105887630Y-51983629D01*
X106095512Y-52069949D01*
X105889697Y-52154990D01*
X105496371Y-52547630D01*
X105283243Y-53060900D01*
X105282758Y-53616661D01*
X105494990Y-54130303D01*
X105887630Y-54523629D01*
X106095512Y-54609949D01*
X105889697Y-54694990D01*
X105496371Y-55087630D01*
X105283243Y-55600900D01*
X105282758Y-56156661D01*
X105494990Y-56670303D01*
X105887630Y-57063629D01*
X106400900Y-57276757D01*
X106956661Y-57277242D01*
X107470303Y-57065010D01*
X107863629Y-56672370D01*
X108076757Y-56159100D01*
X108077242Y-55603339D01*
X107865010Y-55089697D01*
X107472370Y-54696371D01*
X107264488Y-54610051D01*
X107470303Y-54525010D01*
X107863629Y-54132370D01*
X107877070Y-54100000D01*
X110779207Y-54100000D01*
X110865910Y-54234741D01*
X111078110Y-54379731D01*
X111330000Y-54430740D01*
X112530000Y-54430740D01*
X112765317Y-54386462D01*
X112981441Y-54247390D01*
X113029134Y-54177589D01*
X113065910Y-54234741D01*
X113278110Y-54379731D01*
X113436055Y-54411716D01*
X113592599Y-54646001D01*
X113780000Y-54771218D01*
X113780000Y-58094442D01*
X113554683Y-58136838D01*
X113338559Y-58275910D01*
X113193569Y-58488110D01*
X113142560Y-58740000D01*
X113142560Y-58980000D01*
X111490801Y-58980000D01*
X111468162Y-58859683D01*
X111329090Y-58643559D01*
X111116890Y-58498569D01*
X110865000Y-58447560D01*
X110115000Y-58447560D01*
X109879683Y-58491838D01*
X109663559Y-58630910D01*
X109518569Y-58843110D01*
X109467560Y-59095000D01*
X109467560Y-60295000D01*
X109511838Y-60530317D01*
X109578329Y-60633646D01*
X109576673Y-60635302D01*
X109480000Y-60868691D01*
X109480000Y-61309250D01*
X109638750Y-61468000D01*
X110363000Y-61468000D01*
X110363000Y-61448000D01*
X110617000Y-61448000D01*
X110617000Y-61468000D01*
X111341250Y-61468000D01*
X111500000Y-61309250D01*
X111500000Y-60868691D01*
X111403327Y-60635302D01*
X111401957Y-60633932D01*
X111461431Y-60546890D01*
X111470926Y-60500000D01*
X113142560Y-60500000D01*
X113142560Y-60740000D01*
X113186838Y-60975317D01*
X113325910Y-61191441D01*
X113538110Y-61336431D01*
X113790000Y-61387440D01*
X115290000Y-61387440D01*
X115525317Y-61343162D01*
X115689492Y-61237518D01*
X115730301Y-61278327D01*
X115963690Y-61375000D01*
X116375198Y-61375000D01*
X115581298Y-62168900D01*
X111500000Y-62168900D01*
X111500000Y-61880750D01*
X111341250Y-61722000D01*
X110617000Y-61722000D01*
X110617000Y-61742000D01*
X110363000Y-61742000D01*
X110363000Y-61722000D01*
X109638750Y-61722000D01*
X109480000Y-61880750D01*
X109480000Y-62168900D01*
X108521000Y-62168900D01*
X108230161Y-62226752D01*
X107983599Y-62391499D01*
X107983398Y-62391800D01*
X106028674Y-64346524D01*
X105988452Y-64144313D01*
X105634029Y-63613880D01*
X105103596Y-63259457D01*
X104477909Y-63135000D01*
X103802091Y-63135000D01*
X103176404Y-63259457D01*
X102645971Y-63613880D01*
X102291548Y-64144313D01*
X102167091Y-64770000D01*
X102291548Y-65395687D01*
X102645971Y-65926120D01*
X102816405Y-66040000D01*
X102645971Y-66153880D01*
X102291548Y-66684313D01*
X102167091Y-67310000D01*
X102291548Y-67935687D01*
X102645971Y-68466120D01*
X102816405Y-68580000D01*
X102645971Y-68693880D01*
X102291548Y-69224313D01*
X102167091Y-69850000D01*
X102291548Y-70475687D01*
X102529231Y-70831406D01*
X102480301Y-70851673D01*
X102301673Y-71030302D01*
X102205000Y-71263691D01*
X102205000Y-72104250D01*
X102363750Y-72263000D01*
X104013000Y-72263000D01*
X104013000Y-72243000D01*
X104267000Y-72243000D01*
X104267000Y-72263000D01*
X105916250Y-72263000D01*
X106075000Y-72104250D01*
X106075000Y-71263691D01*
X105978327Y-71030302D01*
X105799699Y-70851673D01*
X105750769Y-70831406D01*
X105988452Y-70475687D01*
X106112909Y-69850000D01*
X105988452Y-69224313D01*
X105929186Y-69135616D01*
X108739052Y-66325750D01*
X114305000Y-66325750D01*
X114305000Y-67166309D01*
X114401673Y-67399698D01*
X114580301Y-67578327D01*
X114813690Y-67675000D01*
X116554250Y-67675000D01*
X116713000Y-67516250D01*
X116713000Y-66167000D01*
X116967000Y-66167000D01*
X116967000Y-67516250D01*
X117125750Y-67675000D01*
X118866310Y-67675000D01*
X119099699Y-67578327D01*
X119278327Y-67399698D01*
X119375000Y-67166309D01*
X119375000Y-66325750D01*
X119216250Y-66167000D01*
X116967000Y-66167000D01*
X116713000Y-66167000D01*
X114463750Y-66167000D01*
X114305000Y-66325750D01*
X108739052Y-66325750D01*
X110151111Y-64913691D01*
X114305000Y-64913691D01*
X114305000Y-65754250D01*
X114463750Y-65913000D01*
X116713000Y-65913000D01*
X116713000Y-64563750D01*
X116967000Y-64563750D01*
X116967000Y-65913000D01*
X119216250Y-65913000D01*
X119375000Y-65754250D01*
X119375000Y-64913691D01*
X119278327Y-64680302D01*
X119099699Y-64501673D01*
X118866310Y-64405000D01*
X117125750Y-64405000D01*
X116967000Y-64563750D01*
X116713000Y-64563750D01*
X116554250Y-64405000D01*
X114813690Y-64405000D01*
X114580301Y-64501673D01*
X114401673Y-64680302D01*
X114305000Y-64913691D01*
X110151111Y-64913691D01*
X110871002Y-64193800D01*
X118990400Y-64193800D01*
X119281239Y-64135948D01*
X119527801Y-63971201D01*
X121623252Y-61875750D01*
X122180000Y-61875750D01*
X122180000Y-62316309D01*
X122276673Y-62549698D01*
X122455301Y-62728327D01*
X122688690Y-62825000D01*
X122904250Y-62825000D01*
X123063000Y-62666250D01*
X123063000Y-61717000D01*
X123317000Y-61717000D01*
X123317000Y-62666250D01*
X123475750Y-62825000D01*
X123691310Y-62825000D01*
X123924699Y-62728327D01*
X124103327Y-62549698D01*
X124200000Y-62316309D01*
X124200000Y-61875750D01*
X124041250Y-61717000D01*
X123317000Y-61717000D01*
X123063000Y-61717000D01*
X122338750Y-61717000D01*
X122180000Y-61875750D01*
X121623252Y-61875750D01*
X122123603Y-61375400D01*
X122251150Y-61375400D01*
X122338750Y-61463000D01*
X123063000Y-61463000D01*
X123063000Y-61443000D01*
X123317000Y-61443000D01*
X123317000Y-61463000D01*
X124041250Y-61463000D01*
X124200000Y-61304250D01*
X124200000Y-61229842D01*
X124315301Y-61152801D01*
X125166601Y-60301501D01*
X125331348Y-60054939D01*
X125389200Y-59764100D01*
X125389200Y-54448502D01*
X125783532Y-54054170D01*
X125814990Y-54130303D01*
X126207630Y-54523629D01*
X126415512Y-54609949D01*
X126209697Y-54694990D01*
X125816371Y-55087630D01*
X125603243Y-55600900D01*
X125602758Y-56156661D01*
X125814990Y-56670303D01*
X126207630Y-57063629D01*
X126720900Y-57276757D01*
X127276661Y-57277242D01*
X127790303Y-57065010D01*
X128183629Y-56672370D01*
X128396757Y-56159100D01*
X128397242Y-55603339D01*
X128185010Y-55089697D01*
X127792370Y-54696371D01*
X127584488Y-54610051D01*
X127790303Y-54525010D01*
X128183629Y-54132370D01*
X128396757Y-53619100D01*
X128397242Y-53063339D01*
X128383857Y-53030945D01*
X129854802Y-51560000D01*
X130737976Y-51560000D01*
X130645250Y-51783309D01*
X130644752Y-52354187D01*
X130667049Y-52408149D01*
X130127999Y-52947199D01*
X129963252Y-53193761D01*
X129905400Y-53484600D01*
X129905400Y-56973698D01*
X116937599Y-69941499D01*
X116772852Y-70188061D01*
X116715000Y-70478900D01*
X116715000Y-72464666D01*
X116631310Y-72430000D01*
X116490750Y-72430000D01*
X116332000Y-72588750D01*
X116332000Y-73913000D01*
X116352000Y-73913000D01*
X116352000Y-74167000D01*
X116332000Y-74167000D01*
X116332000Y-75491250D01*
X116490750Y-75650000D01*
X116631310Y-75650000D01*
X116848122Y-75560194D01*
X116923110Y-75611431D01*
X117175000Y-75662440D01*
X117775000Y-75662440D01*
X117835059Y-75651139D01*
X114236198Y-79250000D01*
X105898707Y-79250000D01*
X105634029Y-78853880D01*
X105463595Y-78740000D01*
X105634029Y-78626120D01*
X105988452Y-78095687D01*
X106112909Y-77470000D01*
X105988452Y-76844313D01*
X105634029Y-76313880D01*
X105103596Y-75959457D01*
X104477909Y-75835000D01*
X103802091Y-75835000D01*
X103176404Y-75959457D01*
X102645971Y-76313880D01*
X102291548Y-76844313D01*
X102167091Y-77470000D01*
X102291548Y-78095687D01*
X102645971Y-78626120D01*
X102816405Y-78740000D01*
X102645971Y-78853880D01*
X102291548Y-79384313D01*
X102167091Y-80010000D01*
X102291548Y-80635687D01*
X102645971Y-81166120D01*
X102816405Y-81280000D01*
X102645971Y-81393880D01*
X102291548Y-81924313D01*
X102167091Y-82550000D01*
X102291548Y-83175687D01*
X102529231Y-83531406D01*
X102480301Y-83551673D01*
X102301673Y-83730302D01*
X102205000Y-83963691D01*
X102205000Y-84804250D01*
X102363750Y-84963000D01*
X104013000Y-84963000D01*
X104013000Y-84943000D01*
X104267000Y-84943000D01*
X104267000Y-84963000D01*
X105916250Y-84963000D01*
X106075000Y-84804250D01*
X106075000Y-83963691D01*
X105978327Y-83730302D01*
X105799699Y-83551673D01*
X105750769Y-83531406D01*
X105898707Y-83310000D01*
X112693298Y-83310000D01*
X106107963Y-89895335D01*
X105988452Y-89294513D01*
X105634029Y-88764080D01*
X105103596Y-88409657D01*
X104477909Y-88285200D01*
X103802091Y-88285200D01*
X103176404Y-88409657D01*
X102645971Y-88764080D01*
X102291548Y-89294513D01*
X102167091Y-89920200D01*
X102291548Y-90545887D01*
X102645971Y-91076320D01*
X102816405Y-91190200D01*
X102645971Y-91304080D01*
X102291548Y-91834513D01*
X102167091Y-92460200D01*
X102291548Y-93085887D01*
X102645971Y-93616320D01*
X102816405Y-93730200D01*
X102645971Y-93844080D01*
X102291548Y-94374513D01*
X102167091Y-95000200D01*
X102291548Y-95625887D01*
X102529231Y-95981606D01*
X102480301Y-96001873D01*
X102301673Y-96180502D01*
X102205000Y-96413891D01*
X102205000Y-97254450D01*
X102363750Y-97413200D01*
X104013000Y-97413200D01*
X104013000Y-97393200D01*
X104267000Y-97393200D01*
X104267000Y-97413200D01*
X105916250Y-97413200D01*
X106075000Y-97254450D01*
X106075000Y-96913690D01*
X112915000Y-96913690D01*
X112915000Y-97504250D01*
X113073750Y-97663000D01*
X114173000Y-97663000D01*
X114173000Y-96563750D01*
X114014250Y-96405000D01*
X113423691Y-96405000D01*
X113190302Y-96501673D01*
X113011673Y-96680301D01*
X112915000Y-96913690D01*
X106075000Y-96913690D01*
X106075000Y-96413891D01*
X105978327Y-96180502D01*
X105799699Y-96001873D01*
X105750769Y-95981606D01*
X105988452Y-95625887D01*
X106112909Y-95000200D01*
X105988452Y-94374513D01*
X105929186Y-94285816D01*
X115032001Y-85183001D01*
X115196748Y-84936439D01*
X115254600Y-84645600D01*
X115254600Y-83715502D01*
X115257560Y-83712542D01*
X115257560Y-84415000D01*
X115301838Y-84650317D01*
X115440910Y-84866441D01*
X115445000Y-84869236D01*
X115445000Y-85069700D01*
X115502852Y-85360539D01*
X115667599Y-85607101D01*
X117216579Y-87156081D01*
X117197560Y-87250000D01*
X117197560Y-87840039D01*
X117096899Y-87907299D01*
X116982199Y-88021999D01*
X116817452Y-88268561D01*
X116759600Y-88559400D01*
X116759600Y-92119600D01*
X116817452Y-92410439D01*
X116982199Y-92657001D01*
X118190268Y-93865070D01*
X117835715Y-93864760D01*
X117326485Y-94075169D01*
X116936539Y-94464436D01*
X116840024Y-94696870D01*
X116744831Y-94466485D01*
X116355564Y-94076539D01*
X115846702Y-93865241D01*
X115295715Y-93864760D01*
X114786485Y-94075169D01*
X114396539Y-94464436D01*
X114185241Y-94973298D01*
X114184760Y-95524285D01*
X114395169Y-96033515D01*
X114766007Y-96405000D01*
X114585750Y-96405000D01*
X114427000Y-96563750D01*
X114427000Y-97663000D01*
X114447000Y-97663000D01*
X114447000Y-97917000D01*
X114427000Y-97917000D01*
X114427000Y-99016250D01*
X114585750Y-99175000D01*
X115176309Y-99175000D01*
X115409698Y-99078327D01*
X115588327Y-98899699D01*
X115645563Y-98761517D01*
X116048088Y-98761517D01*
X116116077Y-99002460D01*
X116635171Y-99187201D01*
X117185448Y-99159230D01*
X117563923Y-99002460D01*
X117631912Y-98761517D01*
X118588088Y-98761517D01*
X118656077Y-99002460D01*
X119175171Y-99187201D01*
X119725448Y-99159230D01*
X120103923Y-99002460D01*
X120171912Y-98761517D01*
X121128088Y-98761517D01*
X121196077Y-99002460D01*
X121715171Y-99187201D01*
X122265448Y-99159230D01*
X122643923Y-99002460D01*
X122711912Y-98761517D01*
X121920000Y-97969605D01*
X121128088Y-98761517D01*
X120171912Y-98761517D01*
X119380000Y-97969605D01*
X118588088Y-98761517D01*
X117631912Y-98761517D01*
X116840000Y-97969605D01*
X116048088Y-98761517D01*
X115645563Y-98761517D01*
X115685000Y-98666310D01*
X115685000Y-98530137D01*
X115868483Y-98581912D01*
X116660395Y-97790000D01*
X117019605Y-97790000D01*
X117811517Y-98581912D01*
X118052460Y-98513923D01*
X118105642Y-98364489D01*
X118167540Y-98513923D01*
X118408483Y-98581912D01*
X119200395Y-97790000D01*
X118408483Y-96998088D01*
X118167540Y-97066077D01*
X118114358Y-97215511D01*
X118052460Y-97066077D01*
X117811517Y-96998088D01*
X117019605Y-97790000D01*
X116660395Y-97790000D01*
X115868483Y-96998088D01*
X115685000Y-97049863D01*
X115685000Y-96913690D01*
X115645564Y-96818483D01*
X116048088Y-96818483D01*
X116840000Y-97610395D01*
X117631912Y-96818483D01*
X117563923Y-96577540D01*
X117044829Y-96392799D01*
X116494552Y-96420770D01*
X116116077Y-96577540D01*
X116048088Y-96818483D01*
X115645564Y-96818483D01*
X115588327Y-96680301D01*
X115543003Y-96634977D01*
X115844285Y-96635240D01*
X116353515Y-96424831D01*
X116743461Y-96035564D01*
X116839976Y-95803130D01*
X116935169Y-96033515D01*
X117324436Y-96423461D01*
X117833298Y-96634759D01*
X118384285Y-96635240D01*
X118409868Y-96624670D01*
X118591520Y-96806322D01*
X118588088Y-96818483D01*
X119380000Y-97610395D01*
X119394143Y-97596253D01*
X119573748Y-97775858D01*
X119559605Y-97790000D01*
X120351517Y-98581912D01*
X120592460Y-98513923D01*
X120645642Y-98364489D01*
X120707540Y-98513923D01*
X120948483Y-98581912D01*
X121740395Y-97790000D01*
X121726253Y-97775858D01*
X121905858Y-97596253D01*
X121920000Y-97610395D01*
X121934143Y-97596253D01*
X122113748Y-97775858D01*
X122099605Y-97790000D01*
X122891517Y-98581912D01*
X123132460Y-98513923D01*
X123317201Y-97994829D01*
X123289230Y-97444552D01*
X123140464Y-97085400D01*
X123680000Y-97085400D01*
X123970839Y-97027548D01*
X124217401Y-96862801D01*
X124312300Y-96767902D01*
X129188399Y-101644001D01*
X129434961Y-101808748D01*
X129725800Y-101866600D01*
X129870186Y-101866600D01*
X129418343Y-102053298D01*
X128725730Y-102744703D01*
X128350428Y-103648529D01*
X128349574Y-104627177D01*
X128723298Y-105531657D01*
X129414703Y-106224270D01*
X130318529Y-106599572D01*
X131297177Y-106600426D01*
X132201657Y-106226702D01*
X132894270Y-105535297D01*
X133269572Y-104631471D01*
X133270426Y-103652823D01*
X132896702Y-102748343D01*
X132205297Y-102055730D01*
X131749822Y-101866600D01*
X141300186Y-101866600D01*
X140848343Y-102053298D01*
X140155730Y-102744703D01*
X139780428Y-103648529D01*
X139779574Y-104627177D01*
X140153298Y-105531657D01*
X140844703Y-106224270D01*
X141748529Y-106599572D01*
X142727177Y-106600426D01*
X143631657Y-106226702D01*
X144324270Y-105535297D01*
X144699572Y-104631471D01*
X144700193Y-103920295D01*
X145457299Y-104677401D01*
X145703860Y-104842148D01*
X145743335Y-104850000D01*
X145759659Y-104853247D01*
X145809457Y-105103596D01*
X146163880Y-105634029D01*
X146694313Y-105988452D01*
X147320000Y-106112909D01*
X147945687Y-105988452D01*
X148476120Y-105634029D01*
X148590000Y-105463595D01*
X148703880Y-105634029D01*
X149234313Y-105988452D01*
X149860000Y-106112909D01*
X150485687Y-105988452D01*
X150574384Y-105929186D01*
X151885198Y-107240000D01*
X106156197Y-107240000D01*
X106196372Y-107223400D01*
X107219806Y-106201751D01*
X107774368Y-104866218D01*
X107774576Y-104627177D01*
X110569574Y-104627177D01*
X110943298Y-105531657D01*
X111634703Y-106224270D01*
X112538529Y-106599572D01*
X113517177Y-106600426D01*
X114421657Y-106226702D01*
X115114270Y-105535297D01*
X115489572Y-104631471D01*
X115489575Y-104627177D01*
X121999574Y-104627177D01*
X122373298Y-105531657D01*
X123064703Y-106224270D01*
X123968529Y-106599572D01*
X124947177Y-106600426D01*
X125851657Y-106226702D01*
X126544270Y-105535297D01*
X126919572Y-104631471D01*
X126920426Y-103652823D01*
X126546702Y-102748343D01*
X125855297Y-102055730D01*
X124951471Y-101680428D01*
X123972823Y-101679574D01*
X123068343Y-102053298D01*
X122375730Y-102744703D01*
X122000428Y-103648529D01*
X121999574Y-104627177D01*
X115489575Y-104627177D01*
X115490426Y-103652823D01*
X115116702Y-102748343D01*
X114425297Y-102055730D01*
X113521471Y-101680428D01*
X112542823Y-101679574D01*
X111638343Y-102053298D01*
X110945730Y-102744703D01*
X110570428Y-103648529D01*
X110569574Y-104627177D01*
X107774576Y-104627177D01*
X107775630Y-103420126D01*
X107223400Y-102083628D01*
X106201751Y-101060194D01*
X104866218Y-100505632D01*
X103420126Y-100504370D01*
X102083628Y-101056600D01*
X101060194Y-102078249D01*
X101040000Y-102126882D01*
X101040000Y-97825950D01*
X102205000Y-97825950D01*
X102205000Y-98666509D01*
X102301673Y-98899898D01*
X102480301Y-99078527D01*
X102713690Y-99175200D01*
X103854250Y-99175200D01*
X104013000Y-99016450D01*
X104013000Y-97667200D01*
X104267000Y-97667200D01*
X104267000Y-99016450D01*
X104425750Y-99175200D01*
X105566310Y-99175200D01*
X105799699Y-99078527D01*
X105978327Y-98899898D01*
X106075000Y-98666509D01*
X106075000Y-98075750D01*
X112915000Y-98075750D01*
X112915000Y-98666310D01*
X113011673Y-98899699D01*
X113190302Y-99078327D01*
X113423691Y-99175000D01*
X114014250Y-99175000D01*
X114173000Y-99016250D01*
X114173000Y-97917000D01*
X113073750Y-97917000D01*
X112915000Y-98075750D01*
X106075000Y-98075750D01*
X106075000Y-97825950D01*
X105916250Y-97667200D01*
X104267000Y-97667200D01*
X104013000Y-97667200D01*
X102363750Y-97667200D01*
X102205000Y-97825950D01*
X101040000Y-97825950D01*
X101040000Y-85375750D01*
X102205000Y-85375750D01*
X102205000Y-86216309D01*
X102301673Y-86449698D01*
X102480301Y-86628327D01*
X102713690Y-86725000D01*
X103854250Y-86725000D01*
X104013000Y-86566250D01*
X104013000Y-85217000D01*
X104267000Y-85217000D01*
X104267000Y-86566250D01*
X104425750Y-86725000D01*
X105566310Y-86725000D01*
X105799699Y-86628327D01*
X105978327Y-86449698D01*
X106075000Y-86216309D01*
X106075000Y-85375750D01*
X105916250Y-85217000D01*
X104267000Y-85217000D01*
X104013000Y-85217000D01*
X102363750Y-85217000D01*
X102205000Y-85375750D01*
X101040000Y-85375750D01*
X101040000Y-74325750D01*
X115270000Y-74325750D01*
X115270000Y-75141309D01*
X115366673Y-75374698D01*
X115545301Y-75553327D01*
X115778690Y-75650000D01*
X115919250Y-75650000D01*
X116078000Y-75491250D01*
X116078000Y-74167000D01*
X115428750Y-74167000D01*
X115270000Y-74325750D01*
X101040000Y-74325750D01*
X101040000Y-72675750D01*
X102205000Y-72675750D01*
X102205000Y-73516309D01*
X102301673Y-73749698D01*
X102480301Y-73928327D01*
X102713690Y-74025000D01*
X103854250Y-74025000D01*
X104013000Y-73866250D01*
X104013000Y-72517000D01*
X104267000Y-72517000D01*
X104267000Y-73866250D01*
X104425750Y-74025000D01*
X105566310Y-74025000D01*
X105799699Y-73928327D01*
X105978327Y-73749698D01*
X106075000Y-73516309D01*
X106075000Y-72938691D01*
X115270000Y-72938691D01*
X115270000Y-73754250D01*
X115428750Y-73913000D01*
X116078000Y-73913000D01*
X116078000Y-72588750D01*
X115919250Y-72430000D01*
X115778690Y-72430000D01*
X115545301Y-72526673D01*
X115366673Y-72705302D01*
X115270000Y-72938691D01*
X106075000Y-72938691D01*
X106075000Y-72675750D01*
X105916250Y-72517000D01*
X104267000Y-72517000D01*
X104013000Y-72517000D01*
X102363750Y-72517000D01*
X102205000Y-72675750D01*
X101040000Y-72675750D01*
X101040000Y-45512302D01*
X105270856Y-45512302D01*
X105298638Y-46067368D01*
X105457603Y-46451143D01*
X105699787Y-46520608D01*
X106500395Y-45720000D01*
X105699787Y-44919392D01*
X105457603Y-44988857D01*
X105270856Y-45512302D01*
X101040000Y-45512302D01*
X101040000Y-44160213D01*
X105879392Y-44160213D01*
X105948857Y-44402397D01*
X106072344Y-44446453D01*
X105948857Y-44497603D01*
X105879392Y-44739787D01*
X106680000Y-45540395D01*
X107480608Y-44739787D01*
X107411143Y-44497603D01*
X107287656Y-44453547D01*
X107411143Y-44402397D01*
X107480608Y-44160213D01*
X106680000Y-43359605D01*
X105879392Y-44160213D01*
X101040000Y-44160213D01*
X101040000Y-42972302D01*
X105270856Y-42972302D01*
X105298638Y-43527368D01*
X105457603Y-43911143D01*
X105699787Y-43980608D01*
X106500395Y-43180000D01*
X106859605Y-43180000D01*
X107660213Y-43980608D01*
X107902397Y-43911143D01*
X108089144Y-43387698D01*
X108077597Y-43156990D01*
X109455000Y-43156990D01*
X109455000Y-43697550D01*
X109613750Y-43856300D01*
X110363000Y-43856300D01*
X110363000Y-42807050D01*
X110204250Y-42648300D01*
X109963691Y-42648300D01*
X109730302Y-42744973D01*
X109551673Y-42923601D01*
X109455000Y-43156990D01*
X108077597Y-43156990D01*
X108061362Y-42832632D01*
X107902397Y-42448857D01*
X107660213Y-42379392D01*
X106859605Y-43180000D01*
X106500395Y-43180000D01*
X105699787Y-42379392D01*
X105457603Y-42448857D01*
X105270856Y-42972302D01*
X101040000Y-42972302D01*
X101040000Y-42199787D01*
X105879392Y-42199787D01*
X106680000Y-43000395D01*
X107480608Y-42199787D01*
X107411143Y-41957603D01*
X106887698Y-41770856D01*
X106332632Y-41798638D01*
X105948857Y-41957603D01*
X105879392Y-42199787D01*
X101040000Y-42199787D01*
X101040000Y-40116197D01*
X101056600Y-40156372D01*
X102078249Y-41179806D01*
X103413782Y-41734368D01*
X104859874Y-41735630D01*
X106196372Y-41183400D01*
X107219806Y-40161751D01*
X107774368Y-38826218D01*
X107775630Y-37380126D01*
X107223400Y-36043628D01*
X107198865Y-36019050D01*
X109455000Y-36019050D01*
X109455000Y-36609610D01*
X109551673Y-36842999D01*
X109730302Y-37021627D01*
X109963691Y-37118300D01*
X110554250Y-37118300D01*
X110713000Y-36959550D01*
X110713000Y-35860300D01*
X110967000Y-35860300D01*
X110967000Y-36959550D01*
X111125750Y-37118300D01*
X111716309Y-37118300D01*
X111949698Y-37021627D01*
X112128327Y-36842999D01*
X112225000Y-36609610D01*
X112225000Y-36019050D01*
X112066250Y-35860300D01*
X110967000Y-35860300D01*
X110713000Y-35860300D01*
X109613750Y-35860300D01*
X109455000Y-36019050D01*
X107198865Y-36019050D01*
X106201751Y-35020194D01*
X106153118Y-35000000D01*
X109455000Y-35000000D01*
X109455000Y-35447550D01*
X109455000Y-35447550D01*
G37*
X109455000Y-35447550D02*
X109613750Y-35606300D01*
X110713000Y-35606300D01*
X110713000Y-35586300D01*
X110967000Y-35586300D01*
X110967000Y-35606300D01*
X112066250Y-35606300D01*
X112225000Y-35447550D01*
X112225000Y-35000000D01*
X112292560Y-35000000D01*
X112292560Y-36483300D01*
X112336838Y-36718617D01*
X112475910Y-36934741D01*
X112688110Y-37079731D01*
X112940000Y-37130740D01*
X113454894Y-37130740D01*
X113454838Y-37195167D01*
X113596883Y-37538943D01*
X113859673Y-37802192D01*
X114203201Y-37944838D01*
X114575167Y-37945162D01*
X114730000Y-37881186D01*
X114730000Y-40236298D01*
X111525000Y-43441298D01*
X111525000Y-43156990D01*
X111428327Y-42923601D01*
X111249698Y-42744973D01*
X111016309Y-42648300D01*
X110775750Y-42648300D01*
X110617000Y-42807050D01*
X110617000Y-43856300D01*
X110637000Y-43856300D01*
X110637000Y-44110300D01*
X110617000Y-44110300D01*
X110617000Y-44130300D01*
X110363000Y-44130300D01*
X110363000Y-44110300D01*
X109613750Y-44110300D01*
X109455000Y-44269050D01*
X109455000Y-44480113D01*
X109244299Y-44620899D01*
X108081916Y-45783282D01*
X108061362Y-45372632D01*
X107902397Y-44988857D01*
X107660213Y-44919392D01*
X106859605Y-45720000D01*
X106873748Y-45734143D01*
X106694143Y-45913748D01*
X106680000Y-45899605D01*
X105879392Y-46700213D01*
X105948857Y-46942397D01*
X106089318Y-46992509D01*
X105889697Y-47074990D01*
X105496371Y-47467630D01*
X105283243Y-47980900D01*
X105282758Y-48536661D01*
X105494990Y-49050303D01*
X105887630Y-49443629D01*
X106095512Y-49529949D01*
X105889697Y-49614990D01*
X105496371Y-50007630D01*
X105283243Y-50520900D01*
X105282758Y-51076661D01*
X105494990Y-51590303D01*
X105887630Y-51983629D01*
X106095512Y-52069949D01*
X105889697Y-52154990D01*
X105496371Y-52547630D01*
X105283243Y-53060900D01*
X105282758Y-53616661D01*
X105494990Y-54130303D01*
X105887630Y-54523629D01*
X106095512Y-54609949D01*
X105889697Y-54694990D01*
X105496371Y-55087630D01*
X105283243Y-55600900D01*
X105282758Y-56156661D01*
X105494990Y-56670303D01*
X105887630Y-57063629D01*
X106400900Y-57276757D01*
X106956661Y-57277242D01*
X107470303Y-57065010D01*
X107863629Y-56672370D01*
X108076757Y-56159100D01*
X108077242Y-55603339D01*
X107865010Y-55089697D01*
X107472370Y-54696371D01*
X107264488Y-54610051D01*
X107470303Y-54525010D01*
X107863629Y-54132370D01*
X107877070Y-54100000D01*
X110779207Y-54100000D01*
X110865910Y-54234741D01*
X111078110Y-54379731D01*
X111330000Y-54430740D01*
X112530000Y-54430740D01*
X112765317Y-54386462D01*
X112981441Y-54247390D01*
X113029134Y-54177589D01*
X113065910Y-54234741D01*
X113278110Y-54379731D01*
X113436055Y-54411716D01*
X113592599Y-54646001D01*
X113780000Y-54771218D01*
X113780000Y-58094442D01*
X113554683Y-58136838D01*
X113338559Y-58275910D01*
X113193569Y-58488110D01*
X113142560Y-58740000D01*
X113142560Y-58980000D01*
X111490801Y-58980000D01*
X111468162Y-58859683D01*
X111329090Y-58643559D01*
X111116890Y-58498569D01*
X110865000Y-58447560D01*
X110115000Y-58447560D01*
X109879683Y-58491838D01*
X109663559Y-58630910D01*
X109518569Y-58843110D01*
X109467560Y-59095000D01*
X109467560Y-60295000D01*
X109511838Y-60530317D01*
X109578329Y-60633646D01*
X109576673Y-60635302D01*
X109480000Y-60868691D01*
X109480000Y-61309250D01*
X109638750Y-61468000D01*
X110363000Y-61468000D01*
X110363000Y-61448000D01*
X110617000Y-61448000D01*
X110617000Y-61468000D01*
X111341250Y-61468000D01*
X111500000Y-61309250D01*
X111500000Y-60868691D01*
X111403327Y-60635302D01*
X111401957Y-60633932D01*
X111461431Y-60546890D01*
X111470926Y-60500000D01*
X113142560Y-60500000D01*
X113142560Y-60740000D01*
X113186838Y-60975317D01*
X113325910Y-61191441D01*
X113538110Y-61336431D01*
X113790000Y-61387440D01*
X115290000Y-61387440D01*
X115525317Y-61343162D01*
X115689492Y-61237518D01*
X115730301Y-61278327D01*
X115963690Y-61375000D01*
X116375198Y-61375000D01*
X115581298Y-62168900D01*
X111500000Y-62168900D01*
X111500000Y-61880750D01*
X111341250Y-61722000D01*
X110617000Y-61722000D01*
X110617000Y-61742000D01*
X110363000Y-61742000D01*
X110363000Y-61722000D01*
X109638750Y-61722000D01*
X109480000Y-61880750D01*
X109480000Y-62168900D01*
X108521000Y-62168900D01*
X108230161Y-62226752D01*
X107983599Y-62391499D01*
X107983398Y-62391800D01*
X106028674Y-64346524D01*
X105988452Y-64144313D01*
X105634029Y-63613880D01*
X105103596Y-63259457D01*
X104477909Y-63135000D01*
X103802091Y-63135000D01*
X103176404Y-63259457D01*
X102645971Y-63613880D01*
X102291548Y-64144313D01*
X102167091Y-64770000D01*
X102291548Y-65395687D01*
X102645971Y-65926120D01*
X102816405Y-66040000D01*
X102645971Y-66153880D01*
X102291548Y-66684313D01*
X102167091Y-67310000D01*
X102291548Y-67935687D01*
X102645971Y-68466120D01*
X102816405Y-68580000D01*
X102645971Y-68693880D01*
X102291548Y-69224313D01*
X102167091Y-69850000D01*
X102291548Y-70475687D01*
X102529231Y-70831406D01*
X102480301Y-70851673D01*
X102301673Y-71030302D01*
X102205000Y-71263691D01*
X102205000Y-72104250D01*
X102363750Y-72263000D01*
X104013000Y-72263000D01*
X104013000Y-72243000D01*
X104267000Y-72243000D01*
X104267000Y-72263000D01*
X105916250Y-72263000D01*
X106075000Y-72104250D01*
X106075000Y-71263691D01*
X105978327Y-71030302D01*
X105799699Y-70851673D01*
X105750769Y-70831406D01*
X105988452Y-70475687D01*
X106112909Y-69850000D01*
X105988452Y-69224313D01*
X105929186Y-69135616D01*
X108739052Y-66325750D01*
X114305000Y-66325750D01*
X114305000Y-67166309D01*
X114401673Y-67399698D01*
X114580301Y-67578327D01*
X114813690Y-67675000D01*
X116554250Y-67675000D01*
X116713000Y-67516250D01*
X116713000Y-66167000D01*
X116967000Y-66167000D01*
X116967000Y-67516250D01*
X117125750Y-67675000D01*
X118866310Y-67675000D01*
X119099699Y-67578327D01*
X119278327Y-67399698D01*
X119375000Y-67166309D01*
X119375000Y-66325750D01*
X119216250Y-66167000D01*
X116967000Y-66167000D01*
X116713000Y-66167000D01*
X114463750Y-66167000D01*
X114305000Y-66325750D01*
X108739052Y-66325750D01*
X110151111Y-64913691D01*
X114305000Y-64913691D01*
X114305000Y-65754250D01*
X114463750Y-65913000D01*
X116713000Y-65913000D01*
X116713000Y-64563750D01*
X116967000Y-64563750D01*
X116967000Y-65913000D01*
X119216250Y-65913000D01*
X119375000Y-65754250D01*
X119375000Y-64913691D01*
X119278327Y-64680302D01*
X119099699Y-64501673D01*
X118866310Y-64405000D01*
X117125750Y-64405000D01*
X116967000Y-64563750D01*
X116713000Y-64563750D01*
X116554250Y-64405000D01*
X114813690Y-64405000D01*
X114580301Y-64501673D01*
X114401673Y-64680302D01*
X114305000Y-64913691D01*
X110151111Y-64913691D01*
X110871002Y-64193800D01*
X118990400Y-64193800D01*
X119281239Y-64135948D01*
X119527801Y-63971201D01*
X121623252Y-61875750D01*
X122180000Y-61875750D01*
X122180000Y-62316309D01*
X122276673Y-62549698D01*
X122455301Y-62728327D01*
X122688690Y-62825000D01*
X122904250Y-62825000D01*
X123063000Y-62666250D01*
X123063000Y-61717000D01*
X123317000Y-61717000D01*
X123317000Y-62666250D01*
X123475750Y-62825000D01*
X123691310Y-62825000D01*
X123924699Y-62728327D01*
X124103327Y-62549698D01*
X124200000Y-62316309D01*
X124200000Y-61875750D01*
X124041250Y-61717000D01*
X123317000Y-61717000D01*
X123063000Y-61717000D01*
X122338750Y-61717000D01*
X122180000Y-61875750D01*
X121623252Y-61875750D01*
X122123603Y-61375400D01*
X122251150Y-61375400D01*
X122338750Y-61463000D01*
X123063000Y-61463000D01*
X123063000Y-61443000D01*
X123317000Y-61443000D01*
X123317000Y-61463000D01*
X124041250Y-61463000D01*
X124200000Y-61304250D01*
X124200000Y-61229842D01*
X124315301Y-61152801D01*
X125166601Y-60301501D01*
X125331348Y-60054939D01*
X125389200Y-59764100D01*
X125389200Y-54448502D01*
X125783532Y-54054170D01*
X125814990Y-54130303D01*
X126207630Y-54523629D01*
X126415512Y-54609949D01*
X126209697Y-54694990D01*
X125816371Y-55087630D01*
X125603243Y-55600900D01*
X125602758Y-56156661D01*
X125814990Y-56670303D01*
X126207630Y-57063629D01*
X126720900Y-57276757D01*
X127276661Y-57277242D01*
X127790303Y-57065010D01*
X128183629Y-56672370D01*
X128396757Y-56159100D01*
X128397242Y-55603339D01*
X128185010Y-55089697D01*
X127792370Y-54696371D01*
X127584488Y-54610051D01*
X127790303Y-54525010D01*
X128183629Y-54132370D01*
X128396757Y-53619100D01*
X128397242Y-53063339D01*
X128383857Y-53030945D01*
X129854802Y-51560000D01*
X130737976Y-51560000D01*
X130645250Y-51783309D01*
X130644752Y-52354187D01*
X130667049Y-52408149D01*
X130127999Y-52947199D01*
X129963252Y-53193761D01*
X129905400Y-53484600D01*
X129905400Y-56973698D01*
X116937599Y-69941499D01*
X116772852Y-70188061D01*
X116715000Y-70478900D01*
X116715000Y-72464666D01*
X116631310Y-72430000D01*
X116490750Y-72430000D01*
X116332000Y-72588750D01*
X116332000Y-73913000D01*
X116352000Y-73913000D01*
X116352000Y-74167000D01*
X116332000Y-74167000D01*
X116332000Y-75491250D01*
X116490750Y-75650000D01*
X116631310Y-75650000D01*
X116848122Y-75560194D01*
X116923110Y-75611431D01*
X117175000Y-75662440D01*
X117775000Y-75662440D01*
X117835059Y-75651139D01*
X114236198Y-79250000D01*
X105898707Y-79250000D01*
X105634029Y-78853880D01*
X105463595Y-78740000D01*
X105634029Y-78626120D01*
X105988452Y-78095687D01*
X106112909Y-77470000D01*
X105988452Y-76844313D01*
X105634029Y-76313880D01*
X105103596Y-75959457D01*
X104477909Y-75835000D01*
X103802091Y-75835000D01*
X103176404Y-75959457D01*
X102645971Y-76313880D01*
X102291548Y-76844313D01*
X102167091Y-77470000D01*
X102291548Y-78095687D01*
X102645971Y-78626120D01*
X102816405Y-78740000D01*
X102645971Y-78853880D01*
X102291548Y-79384313D01*
X102167091Y-80010000D01*
X102291548Y-80635687D01*
X102645971Y-81166120D01*
X102816405Y-81280000D01*
X102645971Y-81393880D01*
X102291548Y-81924313D01*
X102167091Y-82550000D01*
X102291548Y-83175687D01*
X102529231Y-83531406D01*
X102480301Y-83551673D01*
X102301673Y-83730302D01*
X102205000Y-83963691D01*
X102205000Y-84804250D01*
X102363750Y-84963000D01*
X104013000Y-84963000D01*
X104013000Y-84943000D01*
X104267000Y-84943000D01*
X104267000Y-84963000D01*
X105916250Y-84963000D01*
X106075000Y-84804250D01*
X106075000Y-83963691D01*
X105978327Y-83730302D01*
X105799699Y-83551673D01*
X105750769Y-83531406D01*
X105898707Y-83310000D01*
X112693298Y-83310000D01*
X106107963Y-89895335D01*
X105988452Y-89294513D01*
X105634029Y-88764080D01*
X105103596Y-88409657D01*
X104477909Y-88285200D01*
X103802091Y-88285200D01*
X103176404Y-88409657D01*
X102645971Y-88764080D01*
X102291548Y-89294513D01*
X102167091Y-89920200D01*
X102291548Y-90545887D01*
X102645971Y-91076320D01*
X102816405Y-91190200D01*
X102645971Y-91304080D01*
X102291548Y-91834513D01*
X102167091Y-92460200D01*
X102291548Y-93085887D01*
X102645971Y-93616320D01*
X102816405Y-93730200D01*
X102645971Y-93844080D01*
X102291548Y-94374513D01*
X102167091Y-95000200D01*
X102291548Y-95625887D01*
X102529231Y-95981606D01*
X102480301Y-96001873D01*
X102301673Y-96180502D01*
X102205000Y-96413891D01*
X102205000Y-97254450D01*
X102363750Y-97413200D01*
X104013000Y-97413200D01*
X104013000Y-97393200D01*
X104267000Y-97393200D01*
X104267000Y-97413200D01*
X105916250Y-97413200D01*
X106075000Y-97254450D01*
X106075000Y-96913690D01*
X112915000Y-96913690D01*
X112915000Y-97504250D01*
X113073750Y-97663000D01*
X114173000Y-97663000D01*
X114173000Y-96563750D01*
X114014250Y-96405000D01*
X113423691Y-96405000D01*
X113190302Y-96501673D01*
X113011673Y-96680301D01*
X112915000Y-96913690D01*
X106075000Y-96913690D01*
X106075000Y-96413891D01*
X105978327Y-96180502D01*
X105799699Y-96001873D01*
X105750769Y-95981606D01*
X105988452Y-95625887D01*
X106112909Y-95000200D01*
X105988452Y-94374513D01*
X105929186Y-94285816D01*
X115032001Y-85183001D01*
X115196748Y-84936439D01*
X115254600Y-84645600D01*
X115254600Y-83715502D01*
X115257560Y-83712542D01*
X115257560Y-84415000D01*
X115301838Y-84650317D01*
X115440910Y-84866441D01*
X115445000Y-84869236D01*
X115445000Y-85069700D01*
X115502852Y-85360539D01*
X115667599Y-85607101D01*
X117216579Y-87156081D01*
X117197560Y-87250000D01*
X117197560Y-87840039D01*
X117096899Y-87907299D01*
X116982199Y-88021999D01*
X116817452Y-88268561D01*
X116759600Y-88559400D01*
X116759600Y-92119600D01*
X116817452Y-92410439D01*
X116982199Y-92657001D01*
X118190268Y-93865070D01*
X117835715Y-93864760D01*
X117326485Y-94075169D01*
X116936539Y-94464436D01*
X116840024Y-94696870D01*
X116744831Y-94466485D01*
X116355564Y-94076539D01*
X115846702Y-93865241D01*
X115295715Y-93864760D01*
X114786485Y-94075169D01*
X114396539Y-94464436D01*
X114185241Y-94973298D01*
X114184760Y-95524285D01*
X114395169Y-96033515D01*
X114766007Y-96405000D01*
X114585750Y-96405000D01*
X114427000Y-96563750D01*
X114427000Y-97663000D01*
X114447000Y-97663000D01*
X114447000Y-97917000D01*
X114427000Y-97917000D01*
X114427000Y-99016250D01*
X114585750Y-99175000D01*
X115176309Y-99175000D01*
X115409698Y-99078327D01*
X115588327Y-98899699D01*
X115645563Y-98761517D01*
X116048088Y-98761517D01*
X116116077Y-99002460D01*
X116635171Y-99187201D01*
X117185448Y-99159230D01*
X117563923Y-99002460D01*
X117631912Y-98761517D01*
X118588088Y-98761517D01*
X118656077Y-99002460D01*
X119175171Y-99187201D01*
X119725448Y-99159230D01*
X120103923Y-99002460D01*
X120171912Y-98761517D01*
X121128088Y-98761517D01*
X121196077Y-99002460D01*
X121715171Y-99187201D01*
X122265448Y-99159230D01*
X122643923Y-99002460D01*
X122711912Y-98761517D01*
X121920000Y-97969605D01*
X121128088Y-98761517D01*
X120171912Y-98761517D01*
X119380000Y-97969605D01*
X118588088Y-98761517D01*
X117631912Y-98761517D01*
X116840000Y-97969605D01*
X116048088Y-98761517D01*
X115645563Y-98761517D01*
X115685000Y-98666310D01*
X115685000Y-98530137D01*
X115868483Y-98581912D01*
X116660395Y-97790000D01*
X117019605Y-97790000D01*
X117811517Y-98581912D01*
X118052460Y-98513923D01*
X118105642Y-98364489D01*
X118167540Y-98513923D01*
X118408483Y-98581912D01*
X119200395Y-97790000D01*
X118408483Y-96998088D01*
X118167540Y-97066077D01*
X118114358Y-97215511D01*
X118052460Y-97066077D01*
X117811517Y-96998088D01*
X117019605Y-97790000D01*
X116660395Y-97790000D01*
X115868483Y-96998088D01*
X115685000Y-97049863D01*
X115685000Y-96913690D01*
X115645564Y-96818483D01*
X116048088Y-96818483D01*
X116840000Y-97610395D01*
X117631912Y-96818483D01*
X117563923Y-96577540D01*
X117044829Y-96392799D01*
X116494552Y-96420770D01*
X116116077Y-96577540D01*
X116048088Y-96818483D01*
X115645564Y-96818483D01*
X115588327Y-96680301D01*
X115543003Y-96634977D01*
X115844285Y-96635240D01*
X116353515Y-96424831D01*
X116743461Y-96035564D01*
X116839976Y-95803130D01*
X116935169Y-96033515D01*
X117324436Y-96423461D01*
X117833298Y-96634759D01*
X118384285Y-96635240D01*
X118409868Y-96624670D01*
X118591520Y-96806322D01*
X118588088Y-96818483D01*
X119380000Y-97610395D01*
X119394143Y-97596253D01*
X119573748Y-97775858D01*
X119559605Y-97790000D01*
X120351517Y-98581912D01*
X120592460Y-98513923D01*
X120645642Y-98364489D01*
X120707540Y-98513923D01*
X120948483Y-98581912D01*
X121740395Y-97790000D01*
X121726253Y-97775858D01*
X121905858Y-97596253D01*
X121920000Y-97610395D01*
X121934143Y-97596253D01*
X122113748Y-97775858D01*
X122099605Y-97790000D01*
X122891517Y-98581912D01*
X123132460Y-98513923D01*
X123317201Y-97994829D01*
X123289230Y-97444552D01*
X123140464Y-97085400D01*
X123680000Y-97085400D01*
X123970839Y-97027548D01*
X124217401Y-96862801D01*
X124312300Y-96767902D01*
X129188399Y-101644001D01*
X129434961Y-101808748D01*
X129725800Y-101866600D01*
X129870186Y-101866600D01*
X129418343Y-102053298D01*
X128725730Y-102744703D01*
X128350428Y-103648529D01*
X128349574Y-104627177D01*
X128723298Y-105531657D01*
X129414703Y-106224270D01*
X130318529Y-106599572D01*
X131297177Y-106600426D01*
X132201657Y-106226702D01*
X132894270Y-105535297D01*
X133269572Y-104631471D01*
X133270426Y-103652823D01*
X132896702Y-102748343D01*
X132205297Y-102055730D01*
X131749822Y-101866600D01*
X141300186Y-101866600D01*
X140848343Y-102053298D01*
X140155730Y-102744703D01*
X139780428Y-103648529D01*
X139779574Y-104627177D01*
X140153298Y-105531657D01*
X140844703Y-106224270D01*
X141748529Y-106599572D01*
X142727177Y-106600426D01*
X143631657Y-106226702D01*
X144324270Y-105535297D01*
X144699572Y-104631471D01*
X144700193Y-103920295D01*
X145457299Y-104677401D01*
X145703860Y-104842148D01*
X145743335Y-104850000D01*
X145759659Y-104853247D01*
X145809457Y-105103596D01*
X146163880Y-105634029D01*
X146694313Y-105988452D01*
X147320000Y-106112909D01*
X147945687Y-105988452D01*
X148476120Y-105634029D01*
X148590000Y-105463595D01*
X148703880Y-105634029D01*
X149234313Y-105988452D01*
X149860000Y-106112909D01*
X150485687Y-105988452D01*
X150574384Y-105929186D01*
X151885198Y-107240000D01*
X106156197Y-107240000D01*
X106196372Y-107223400D01*
X107219806Y-106201751D01*
X107774368Y-104866218D01*
X107774576Y-104627177D01*
X110569574Y-104627177D01*
X110943298Y-105531657D01*
X111634703Y-106224270D01*
X112538529Y-106599572D01*
X113517177Y-106600426D01*
X114421657Y-106226702D01*
X115114270Y-105535297D01*
X115489572Y-104631471D01*
X115489575Y-104627177D01*
X121999574Y-104627177D01*
X122373298Y-105531657D01*
X123064703Y-106224270D01*
X123968529Y-106599572D01*
X124947177Y-106600426D01*
X125851657Y-106226702D01*
X126544270Y-105535297D01*
X126919572Y-104631471D01*
X126920426Y-103652823D01*
X126546702Y-102748343D01*
X125855297Y-102055730D01*
X124951471Y-101680428D01*
X123972823Y-101679574D01*
X123068343Y-102053298D01*
X122375730Y-102744703D01*
X122000428Y-103648529D01*
X121999574Y-104627177D01*
X115489575Y-104627177D01*
X115490426Y-103652823D01*
X115116702Y-102748343D01*
X114425297Y-102055730D01*
X113521471Y-101680428D01*
X112542823Y-101679574D01*
X111638343Y-102053298D01*
X110945730Y-102744703D01*
X110570428Y-103648529D01*
X110569574Y-104627177D01*
X107774576Y-104627177D01*
X107775630Y-103420126D01*
X107223400Y-102083628D01*
X106201751Y-101060194D01*
X104866218Y-100505632D01*
X103420126Y-100504370D01*
X102083628Y-101056600D01*
X101060194Y-102078249D01*
X101040000Y-102126882D01*
X101040000Y-97825950D01*
X102205000Y-97825950D01*
X102205000Y-98666509D01*
X102301673Y-98899898D01*
X102480301Y-99078527D01*
X102713690Y-99175200D01*
X103854250Y-99175200D01*
X104013000Y-99016450D01*
X104013000Y-97667200D01*
X104267000Y-97667200D01*
X104267000Y-99016450D01*
X104425750Y-99175200D01*
X105566310Y-99175200D01*
X105799699Y-99078527D01*
X105978327Y-98899898D01*
X106075000Y-98666509D01*
X106075000Y-98075750D01*
X112915000Y-98075750D01*
X112915000Y-98666310D01*
X113011673Y-98899699D01*
X113190302Y-99078327D01*
X113423691Y-99175000D01*
X114014250Y-99175000D01*
X114173000Y-99016250D01*
X114173000Y-97917000D01*
X113073750Y-97917000D01*
X112915000Y-98075750D01*
X106075000Y-98075750D01*
X106075000Y-97825950D01*
X105916250Y-97667200D01*
X104267000Y-97667200D01*
X104013000Y-97667200D01*
X102363750Y-97667200D01*
X102205000Y-97825950D01*
X101040000Y-97825950D01*
X101040000Y-85375750D01*
X102205000Y-85375750D01*
X102205000Y-86216309D01*
X102301673Y-86449698D01*
X102480301Y-86628327D01*
X102713690Y-86725000D01*
X103854250Y-86725000D01*
X104013000Y-86566250D01*
X104013000Y-85217000D01*
X104267000Y-85217000D01*
X104267000Y-86566250D01*
X104425750Y-86725000D01*
X105566310Y-86725000D01*
X105799699Y-86628327D01*
X105978327Y-86449698D01*
X106075000Y-86216309D01*
X106075000Y-85375750D01*
X105916250Y-85217000D01*
X104267000Y-85217000D01*
X104013000Y-85217000D01*
X102363750Y-85217000D01*
X102205000Y-85375750D01*
X101040000Y-85375750D01*
X101040000Y-74325750D01*
X115270000Y-74325750D01*
X115270000Y-75141309D01*
X115366673Y-75374698D01*
X115545301Y-75553327D01*
X115778690Y-75650000D01*
X115919250Y-75650000D01*
X116078000Y-75491250D01*
X116078000Y-74167000D01*
X115428750Y-74167000D01*
X115270000Y-74325750D01*
X101040000Y-74325750D01*
X101040000Y-72675750D01*
X102205000Y-72675750D01*
X102205000Y-73516309D01*
X102301673Y-73749698D01*
X102480301Y-73928327D01*
X102713690Y-74025000D01*
X103854250Y-74025000D01*
X104013000Y-73866250D01*
X104013000Y-72517000D01*
X104267000Y-72517000D01*
X104267000Y-73866250D01*
X104425750Y-74025000D01*
X105566310Y-74025000D01*
X105799699Y-73928327D01*
X105978327Y-73749698D01*
X106075000Y-73516309D01*
X106075000Y-72938691D01*
X115270000Y-72938691D01*
X115270000Y-73754250D01*
X115428750Y-73913000D01*
X116078000Y-73913000D01*
X116078000Y-72588750D01*
X115919250Y-72430000D01*
X115778690Y-72430000D01*
X115545301Y-72526673D01*
X115366673Y-72705302D01*
X115270000Y-72938691D01*
X106075000Y-72938691D01*
X106075000Y-72675750D01*
X105916250Y-72517000D01*
X104267000Y-72517000D01*
X104013000Y-72517000D01*
X102363750Y-72517000D01*
X102205000Y-72675750D01*
X101040000Y-72675750D01*
X101040000Y-45512302D01*
X105270856Y-45512302D01*
X105298638Y-46067368D01*
X105457603Y-46451143D01*
X105699787Y-46520608D01*
X106500395Y-45720000D01*
X105699787Y-44919392D01*
X105457603Y-44988857D01*
X105270856Y-45512302D01*
X101040000Y-45512302D01*
X101040000Y-44160213D01*
X105879392Y-44160213D01*
X105948857Y-44402397D01*
X106072344Y-44446453D01*
X105948857Y-44497603D01*
X105879392Y-44739787D01*
X106680000Y-45540395D01*
X107480608Y-44739787D01*
X107411143Y-44497603D01*
X107287656Y-44453547D01*
X107411143Y-44402397D01*
X107480608Y-44160213D01*
X106680000Y-43359605D01*
X105879392Y-44160213D01*
X101040000Y-44160213D01*
X101040000Y-42972302D01*
X105270856Y-42972302D01*
X105298638Y-43527368D01*
X105457603Y-43911143D01*
X105699787Y-43980608D01*
X106500395Y-43180000D01*
X106859605Y-43180000D01*
X107660213Y-43980608D01*
X107902397Y-43911143D01*
X108089144Y-43387698D01*
X108077597Y-43156990D01*
X109455000Y-43156990D01*
X109455000Y-43697550D01*
X109613750Y-43856300D01*
X110363000Y-43856300D01*
X110363000Y-42807050D01*
X110204250Y-42648300D01*
X109963691Y-42648300D01*
X109730302Y-42744973D01*
X109551673Y-42923601D01*
X109455000Y-43156990D01*
X108077597Y-43156990D01*
X108061362Y-42832632D01*
X107902397Y-42448857D01*
X107660213Y-42379392D01*
X106859605Y-43180000D01*
X106500395Y-43180000D01*
X105699787Y-42379392D01*
X105457603Y-42448857D01*
X105270856Y-42972302D01*
X101040000Y-42972302D01*
X101040000Y-42199787D01*
X105879392Y-42199787D01*
X106680000Y-43000395D01*
X107480608Y-42199787D01*
X107411143Y-41957603D01*
X106887698Y-41770856D01*
X106332632Y-41798638D01*
X105948857Y-41957603D01*
X105879392Y-42199787D01*
X101040000Y-42199787D01*
X101040000Y-40116197D01*
X101056600Y-40156372D01*
X102078249Y-41179806D01*
X103413782Y-41734368D01*
X104859874Y-41735630D01*
X106196372Y-41183400D01*
X107219806Y-40161751D01*
X107774368Y-38826218D01*
X107775630Y-37380126D01*
X107223400Y-36043628D01*
X107198865Y-36019050D01*
X109455000Y-36019050D01*
X109455000Y-36609610D01*
X109551673Y-36842999D01*
X109730302Y-37021627D01*
X109963691Y-37118300D01*
X110554250Y-37118300D01*
X110713000Y-36959550D01*
X110713000Y-35860300D01*
X110967000Y-35860300D01*
X110967000Y-36959550D01*
X111125750Y-37118300D01*
X111716309Y-37118300D01*
X111949698Y-37021627D01*
X112128327Y-36842999D01*
X112225000Y-36609610D01*
X112225000Y-36019050D01*
X112066250Y-35860300D01*
X110967000Y-35860300D01*
X110713000Y-35860300D01*
X109613750Y-35860300D01*
X109455000Y-36019050D01*
X107198865Y-36019050D01*
X106201751Y-35020194D01*
X106153118Y-35000000D01*
X109455000Y-35000000D01*
X109455000Y-35447550D01*
G36*
X152452599Y-70977401D02*
X152699161Y-71142148D01*
X152990000Y-71200000D01*
X159293154Y-71200000D01*
X159337932Y-71308371D01*
X159719182Y-71690288D01*
X159339449Y-72069357D01*
X159105267Y-72633330D01*
X159104735Y-73243991D01*
X159337932Y-73808371D01*
X159769357Y-74240551D01*
X160333330Y-74474733D01*
X160874094Y-74475204D01*
X158424099Y-76925199D01*
X158259352Y-77171761D01*
X158201500Y-77462600D01*
X158201500Y-90441500D01*
X158259352Y-90732339D01*
X158424099Y-90978901D01*
X159150234Y-91705036D01*
X159105267Y-91813330D01*
X159104735Y-92423991D01*
X159337932Y-92988371D01*
X159719182Y-93370288D01*
X159339449Y-93749357D01*
X159105267Y-94313330D01*
X159104735Y-94923991D01*
X159337932Y-95488371D01*
X159769357Y-95920551D01*
X160333330Y-96154733D01*
X160943991Y-96155265D01*
X161105400Y-96088572D01*
X161105400Y-98049100D01*
X161163252Y-98339939D01*
X161327999Y-98586501D01*
X165740763Y-102999265D01*
X165733890Y-102994569D01*
X165482000Y-102943560D01*
X164282000Y-102943560D01*
X164046683Y-102987838D01*
X163830559Y-103126910D01*
X163725274Y-103281000D01*
X163157105Y-103281000D01*
X163066090Y-103139559D01*
X162853890Y-102994569D01*
X162602000Y-102943560D01*
X161402000Y-102943560D01*
X161166683Y-102987838D01*
X160950559Y-103126910D01*
X160904031Y-103195006D01*
X160761698Y-103052673D01*
X160528309Y-102956000D01*
X160087750Y-102956000D01*
X159929000Y-103114750D01*
X159929000Y-103914000D01*
X159949000Y-103914000D01*
X159949000Y-104168000D01*
X159929000Y-104168000D01*
X159929000Y-104967250D01*
X160087750Y-105126000D01*
X160528309Y-105126000D01*
X160761698Y-105029327D01*
X160902936Y-104888090D01*
X160937910Y-104942441D01*
X161150110Y-105087431D01*
X161402000Y-105138440D01*
X162602000Y-105138440D01*
X162837317Y-105094162D01*
X163053441Y-104955090D01*
X163158726Y-104801000D01*
X163726895Y-104801000D01*
X163817910Y-104942441D01*
X164030110Y-105087431D01*
X164282000Y-105138440D01*
X165482000Y-105138440D01*
X165717317Y-105094162D01*
X165933441Y-104955090D01*
X165981134Y-104885289D01*
X166017910Y-104942441D01*
X166230110Y-105087431D01*
X166482000Y-105138440D01*
X167682000Y-105138440D01*
X167917317Y-105094162D01*
X168133441Y-104955090D01*
X168278431Y-104742890D01*
X168329440Y-104491000D01*
X168329440Y-103591000D01*
X168285162Y-103355683D01*
X168146090Y-103139559D01*
X167933890Y-102994569D01*
X167775946Y-102962584D01*
X167619401Y-102728299D01*
X162625400Y-97734298D01*
X162625400Y-97041834D01*
X165004543Y-97041834D01*
X165404853Y-98010658D01*
X166145443Y-98752542D01*
X167113567Y-99154542D01*
X168161834Y-99155457D01*
X169130658Y-98755147D01*
X169872542Y-98014557D01*
X170274542Y-97046433D01*
X170275457Y-95998166D01*
X169875147Y-95029342D01*
X169134557Y-94287458D01*
X168166433Y-93885458D01*
X167118166Y-93884543D01*
X166149342Y-94284853D01*
X165407458Y-95025443D01*
X165005458Y-95993567D01*
X165004543Y-97041834D01*
X162625400Y-97041834D01*
X162625400Y-91601200D01*
X162567548Y-91310361D01*
X162402801Y-91063799D01*
X161885050Y-90546048D01*
X161940551Y-90490643D01*
X162174733Y-89926670D01*
X162175265Y-89316009D01*
X162129515Y-89205287D01*
X163092968Y-88241834D01*
X165004543Y-88241834D01*
X165404853Y-89210658D01*
X166145443Y-89952542D01*
X167113567Y-90354542D01*
X168161834Y-90355457D01*
X169130658Y-89955147D01*
X169872542Y-89214557D01*
X170274542Y-88246433D01*
X170275457Y-87198166D01*
X169875147Y-86229342D01*
X169134557Y-85487458D01*
X168166433Y-85085458D01*
X167118166Y-85084543D01*
X166149342Y-85484853D01*
X165407458Y-86225443D01*
X165005458Y-87193567D01*
X165004543Y-88241834D01*
X163092968Y-88241834D01*
X167746202Y-83588600D01*
X170691100Y-83588600D01*
X170981939Y-83530748D01*
X171228501Y-83366001D01*
X171902241Y-82692261D01*
X172018110Y-82771431D01*
X172270000Y-82822440D01*
X172735400Y-82822440D01*
X172735400Y-89040400D01*
X172793252Y-89331239D01*
X172957999Y-89577801D01*
X180774361Y-97394163D01*
X180735262Y-97488325D01*
X180735124Y-97646804D01*
X180710722Y-97622360D01*
X180091638Y-97365293D01*
X179421303Y-97364708D01*
X178801771Y-97620694D01*
X178327360Y-98094278D01*
X178070293Y-98713362D01*
X178069708Y-99383697D01*
X178325694Y-100003229D01*
X178799278Y-100477640D01*
X179240954Y-100661041D01*
X178283628Y-101056600D01*
X177260194Y-102078249D01*
X176705632Y-103413782D01*
X176704370Y-104859874D01*
X177256600Y-106196372D01*
X178278249Y-107219806D01*
X178326882Y-107240000D01*
X168287116Y-107240000D01*
X168329440Y-107031000D01*
X168329440Y-106131000D01*
X168285162Y-105895683D01*
X168146090Y-105679559D01*
X167933890Y-105534569D01*
X167682000Y-105483560D01*
X166482000Y-105483560D01*
X166246683Y-105527838D01*
X166030559Y-105666910D01*
X165982866Y-105736711D01*
X165946090Y-105679559D01*
X165733890Y-105534569D01*
X165482000Y-105483560D01*
X164282000Y-105483560D01*
X164046683Y-105527838D01*
X163830559Y-105666910D01*
X163725274Y-105821000D01*
X163157105Y-105821000D01*
X163066090Y-105679559D01*
X162853890Y-105534569D01*
X162602000Y-105483560D01*
X161402000Y-105483560D01*
X161166683Y-105527838D01*
X160950559Y-105666910D01*
X160904031Y-105735006D01*
X160761698Y-105592673D01*
X160528309Y-105496000D01*
X160087750Y-105496000D01*
X159929000Y-105654750D01*
X159929000Y-106454000D01*
X159949000Y-106454000D01*
X159949000Y-106596300D01*
X153391102Y-106596300D01*
X152823476Y-106028674D01*
X153025687Y-105988452D01*
X153381406Y-105750769D01*
X153401673Y-105799699D01*
X153580302Y-105978327D01*
X153813691Y-106075000D01*
X154654250Y-106075000D01*
X154813000Y-105916250D01*
X154813000Y-104267000D01*
X155067000Y-104267000D01*
X155067000Y-105916250D01*
X155225750Y-106075000D01*
X156066309Y-106075000D01*
X156236052Y-106004690D01*
X158567000Y-106004690D01*
X158567000Y-106295250D01*
X158725750Y-106454000D01*
X159675000Y-106454000D01*
X159675000Y-105654750D01*
X159516250Y-105496000D01*
X159075691Y-105496000D01*
X158842302Y-105592673D01*
X158663673Y-105771301D01*
X158567000Y-106004690D01*
X156236052Y-106004690D01*
X156299698Y-105978327D01*
X156478327Y-105799699D01*
X156575000Y-105566310D01*
X156575000Y-104425750D01*
X156476000Y-104326750D01*
X158567000Y-104326750D01*
X158567000Y-104617310D01*
X158663673Y-104850699D01*
X158842302Y-105029327D01*
X159075691Y-105126000D01*
X159516250Y-105126000D01*
X159675000Y-104967250D01*
X159675000Y-104168000D01*
X158725750Y-104168000D01*
X158567000Y-104326750D01*
X156476000Y-104326750D01*
X156416250Y-104267000D01*
X155067000Y-104267000D01*
X154813000Y-104267000D01*
X154793000Y-104267000D01*
X154793000Y-104013000D01*
X154813000Y-104013000D01*
X154813000Y-102363750D01*
X155067000Y-102363750D01*
X155067000Y-104013000D01*
X156416250Y-104013000D01*
X156575000Y-103854250D01*
X156575000Y-103464690D01*
X158567000Y-103464690D01*
X158567000Y-103755250D01*
X158725750Y-103914000D01*
X159675000Y-103914000D01*
X159675000Y-103114750D01*
X159516250Y-102956000D01*
X159075691Y-102956000D01*
X158842302Y-103052673D01*
X158663673Y-103231301D01*
X158567000Y-103464690D01*
X156575000Y-103464690D01*
X156575000Y-102713690D01*
X156478327Y-102480301D01*
X156299698Y-102301673D01*
X156066309Y-102205000D01*
X155225750Y-102205000D01*
X155067000Y-102363750D01*
X154813000Y-102363750D01*
X154654250Y-102205000D01*
X153813691Y-102205000D01*
X153580302Y-102301673D01*
X153401673Y-102480301D01*
X153381406Y-102529231D01*
X153025687Y-102291548D01*
X152400000Y-102167091D01*
X151774313Y-102291548D01*
X151243880Y-102645971D01*
X151130000Y-102816405D01*
X151016120Y-102645971D01*
X150485687Y-102291548D01*
X149860000Y-102167091D01*
X149234313Y-102291548D01*
X148703880Y-102645971D01*
X148590000Y-102816405D01*
X148476120Y-102645971D01*
X147945687Y-102291548D01*
X147320000Y-102167091D01*
X146694313Y-102291548D01*
X146163880Y-102645971D01*
X145928198Y-102998696D01*
X143498701Y-100569199D01*
X143252139Y-100404452D01*
X142961300Y-100346600D01*
X130040602Y-100346600D01*
X127769752Y-98075750D01*
X130695000Y-98075750D01*
X130695000Y-98666310D01*
X130791673Y-98899699D01*
X130970302Y-99078327D01*
X131203691Y-99175000D01*
X131794250Y-99175000D01*
X131953000Y-99016250D01*
X131953000Y-97917000D01*
X130853750Y-97917000D01*
X130695000Y-98075750D01*
X127769752Y-98075750D01*
X126607692Y-96913690D01*
X130695000Y-96913690D01*
X130695000Y-97504250D01*
X130853750Y-97663000D01*
X131953000Y-97663000D01*
X131953000Y-96563750D01*
X131794250Y-96405000D01*
X131203691Y-96405000D01*
X130970302Y-96501673D01*
X130791673Y-96680301D01*
X130695000Y-96913690D01*
X126607692Y-96913690D01*
X125218287Y-95524285D01*
X131964760Y-95524285D01*
X132175169Y-96033515D01*
X132546007Y-96405000D01*
X132365750Y-96405000D01*
X132207000Y-96563750D01*
X132207000Y-97663000D01*
X132227000Y-97663000D01*
X132227000Y-97917000D01*
X132207000Y-97917000D01*
X132207000Y-99016250D01*
X132365750Y-99175000D01*
X132956309Y-99175000D01*
X133189698Y-99078327D01*
X133368327Y-98899699D01*
X133425563Y-98761517D01*
X133828088Y-98761517D01*
X133896077Y-99002460D01*
X134415171Y-99187201D01*
X134965448Y-99159230D01*
X135343923Y-99002460D01*
X135411912Y-98761517D01*
X136368088Y-98761517D01*
X136436077Y-99002460D01*
X136955171Y-99187201D01*
X137505448Y-99159230D01*
X137883923Y-99002460D01*
X137951912Y-98761517D01*
X138908088Y-98761517D01*
X138976077Y-99002460D01*
X139495171Y-99187201D01*
X140045448Y-99159230D01*
X140423923Y-99002460D01*
X140491912Y-98761517D01*
X139700000Y-97969605D01*
X138908088Y-98761517D01*
X137951912Y-98761517D01*
X137160000Y-97969605D01*
X136368088Y-98761517D01*
X135411912Y-98761517D01*
X134620000Y-97969605D01*
X133828088Y-98761517D01*
X133425563Y-98761517D01*
X133465000Y-98666310D01*
X133465000Y-98530137D01*
X133648483Y-98581912D01*
X134440395Y-97790000D01*
X134799605Y-97790000D01*
X135591517Y-98581912D01*
X135832460Y-98513923D01*
X135885642Y-98364489D01*
X135947540Y-98513923D01*
X136188483Y-98581912D01*
X136980395Y-97790000D01*
X137339605Y-97790000D01*
X138131517Y-98581912D01*
X138372460Y-98513923D01*
X138425642Y-98364489D01*
X138487540Y-98513923D01*
X138728483Y-98581912D01*
X139520395Y-97790000D01*
X139879605Y-97790000D01*
X140671517Y-98581912D01*
X140912460Y-98513923D01*
X141097201Y-97994829D01*
X141069230Y-97444552D01*
X140912460Y-97066077D01*
X140671517Y-96998088D01*
X139879605Y-97790000D01*
X139520395Y-97790000D01*
X138728483Y-96998088D01*
X138487540Y-97066077D01*
X138434358Y-97215511D01*
X138372460Y-97066077D01*
X138131517Y-96998088D01*
X137339605Y-97790000D01*
X136980395Y-97790000D01*
X136188483Y-96998088D01*
X135947540Y-97066077D01*
X135894358Y-97215511D01*
X135832460Y-97066077D01*
X135591517Y-96998088D01*
X134799605Y-97790000D01*
X134440395Y-97790000D01*
X133648483Y-96998088D01*
X133465000Y-97049863D01*
X133465000Y-96913690D01*
X133425564Y-96818483D01*
X133828088Y-96818483D01*
X134620000Y-97610395D01*
X135411912Y-96818483D01*
X136368088Y-96818483D01*
X137160000Y-97610395D01*
X137951912Y-96818483D01*
X138908088Y-96818483D01*
X139700000Y-97610395D01*
X140491912Y-96818483D01*
X140423923Y-96577540D01*
X139904829Y-96392799D01*
X139354552Y-96420770D01*
X138976077Y-96577540D01*
X138908088Y-96818483D01*
X137951912Y-96818483D01*
X137883923Y-96577540D01*
X137364829Y-96392799D01*
X136814552Y-96420770D01*
X136436077Y-96577540D01*
X136368088Y-96818483D01*
X135411912Y-96818483D01*
X135343923Y-96577540D01*
X134824829Y-96392799D01*
X134274552Y-96420770D01*
X133896077Y-96577540D01*
X133828088Y-96818483D01*
X133425564Y-96818483D01*
X133368327Y-96680301D01*
X133323003Y-96634977D01*
X133624285Y-96635240D01*
X134133515Y-96424831D01*
X134523461Y-96035564D01*
X134619976Y-95803130D01*
X134715169Y-96033515D01*
X135104436Y-96423461D01*
X135613298Y-96634759D01*
X136164285Y-96635240D01*
X136673515Y-96424831D01*
X137063461Y-96035564D01*
X137159976Y-95803130D01*
X137255169Y-96033515D01*
X137644436Y-96423461D01*
X138153298Y-96634759D01*
X138704285Y-96635240D01*
X139213515Y-96424831D01*
X139603461Y-96035564D01*
X139699976Y-95803130D01*
X139795169Y-96033515D01*
X140184436Y-96423461D01*
X140693298Y-96634759D01*
X141244285Y-96635240D01*
X141753515Y-96424831D01*
X142143461Y-96035564D01*
X142354759Y-95526702D01*
X142355240Y-94975715D01*
X142144831Y-94466485D01*
X141755564Y-94076539D01*
X141246702Y-93865241D01*
X140695715Y-93864760D01*
X140186485Y-94075169D01*
X139796539Y-94464436D01*
X139700024Y-94696870D01*
X139604831Y-94466485D01*
X139215564Y-94076539D01*
X138706702Y-93865241D01*
X138155715Y-93864760D01*
X137646485Y-94075169D01*
X137256539Y-94464436D01*
X137160024Y-94696870D01*
X137064831Y-94466485D01*
X136675564Y-94076539D01*
X136166702Y-93865241D01*
X135615715Y-93864760D01*
X135106485Y-94075169D01*
X134716539Y-94464436D01*
X134620024Y-94696870D01*
X134524831Y-94466485D01*
X134135564Y-94076539D01*
X133626702Y-93865241D01*
X133075715Y-93864760D01*
X132566485Y-94075169D01*
X132176539Y-94464436D01*
X131965241Y-94973298D01*
X131964760Y-95524285D01*
X125218287Y-95524285D01*
X125072300Y-95378298D01*
X125072300Y-91529300D01*
X125017067Y-91251629D01*
X125014448Y-91238460D01*
X124849701Y-90991899D01*
X124739901Y-90882099D01*
X124980392Y-90642027D01*
X125123038Y-90298499D01*
X125123362Y-89926533D01*
X124981317Y-89582757D01*
X124718527Y-89319508D01*
X124522440Y-89238085D01*
X124522440Y-88770000D01*
X124478162Y-88534683D01*
X124384497Y-88389123D01*
X124471431Y-88261890D01*
X124522440Y-88010000D01*
X124522440Y-87250000D01*
X124504555Y-87154947D01*
X125632401Y-86027101D01*
X125797148Y-85780540D01*
X125812114Y-85705300D01*
X125855000Y-85489700D01*
X125855000Y-85015334D01*
X125938690Y-85050000D01*
X126079250Y-85050000D01*
X126238000Y-84891250D01*
X126238000Y-83567000D01*
X126218000Y-83567000D01*
X126218000Y-83313000D01*
X126238000Y-83313000D01*
X126238000Y-81988750D01*
X126079250Y-81830000D01*
X125938690Y-81830000D01*
X125721878Y-81919806D01*
X125646890Y-81868569D01*
X125395000Y-81817560D01*
X124795000Y-81817560D01*
X124559683Y-81861838D01*
X124460472Y-81925678D01*
X124376890Y-81868569D01*
X124125000Y-81817560D01*
X123525000Y-81817560D01*
X123289683Y-81861838D01*
X123190472Y-81925678D01*
X123106890Y-81868569D01*
X122855000Y-81817560D01*
X122255000Y-81817560D01*
X122019683Y-81861838D01*
X121920472Y-81925678D01*
X121836890Y-81868569D01*
X121585000Y-81817560D01*
X120985000Y-81817560D01*
X120749683Y-81861838D01*
X120650472Y-81925678D01*
X120566890Y-81868569D01*
X120315000Y-81817560D01*
X119715000Y-81817560D01*
X119479683Y-81861838D01*
X119380472Y-81925678D01*
X119296890Y-81868569D01*
X119045000Y-81817560D01*
X118445000Y-81817560D01*
X118209683Y-81861838D01*
X118110472Y-81925678D01*
X118026890Y-81868569D01*
X117775000Y-81817560D01*
X117175000Y-81817560D01*
X117147337Y-81822765D01*
X123092401Y-75877701D01*
X123257148Y-75631139D01*
X123262509Y-75604188D01*
X123273110Y-75611431D01*
X123525000Y-75662440D01*
X124125000Y-75662440D01*
X124360317Y-75618162D01*
X124459528Y-75554322D01*
X124543110Y-75611431D01*
X124795000Y-75662440D01*
X125395000Y-75662440D01*
X125630317Y-75618162D01*
X125729528Y-75554322D01*
X125813110Y-75611431D01*
X126065000Y-75662440D01*
X126665000Y-75662440D01*
X126900317Y-75618162D01*
X126926872Y-75601074D01*
X126932852Y-75631139D01*
X127097599Y-75877701D01*
X128517560Y-77297662D01*
X128517560Y-78390000D01*
X128561838Y-78625317D01*
X128628329Y-78728646D01*
X128626673Y-78730302D01*
X128530000Y-78963691D01*
X128530000Y-79404250D01*
X128688750Y-79563000D01*
X129413000Y-79563000D01*
X129413000Y-79543000D01*
X129667000Y-79543000D01*
X129667000Y-79563000D01*
X129687000Y-79563000D01*
X129687000Y-79817000D01*
X129667000Y-79817000D01*
X129667000Y-79837000D01*
X129413000Y-79837000D01*
X129413000Y-79817000D01*
X128688750Y-79817000D01*
X128530000Y-79975750D01*
X128530000Y-80416309D01*
X128626673Y-80649698D01*
X128783936Y-80806962D01*
X128211198Y-81379700D01*
X127635000Y-81379700D01*
X127344161Y-81437552D01*
X127097599Y-81602299D01*
X126932852Y-81848861D01*
X126925544Y-81885602D01*
X126791310Y-81830000D01*
X126650750Y-81830000D01*
X126492000Y-81988750D01*
X126492000Y-83313000D01*
X126512000Y-83313000D01*
X126512000Y-83567000D01*
X126492000Y-83567000D01*
X126492000Y-84891250D01*
X126650750Y-85050000D01*
X126791310Y-85050000D01*
X127008122Y-84960194D01*
X127083110Y-85011431D01*
X127335000Y-85062440D01*
X127935000Y-85062440D01*
X128170317Y-85018162D01*
X128386441Y-84879090D01*
X128531431Y-84666890D01*
X128582440Y-84415000D01*
X128582440Y-82888473D01*
X128816839Y-82841848D01*
X129063401Y-82677101D01*
X131641969Y-80098533D01*
X131825300Y-80135000D01*
X134338959Y-80135000D01*
X134379457Y-80338596D01*
X134733880Y-80869029D01*
X135264313Y-81223452D01*
X135890000Y-81347909D01*
X136515687Y-81223452D01*
X137046120Y-80869029D01*
X137173219Y-80678812D01*
X137363683Y-80920922D01*
X137921645Y-81234144D01*
X138049566Y-81265124D01*
X138303000Y-81145777D01*
X138303000Y-79502000D01*
X138283000Y-79502000D01*
X138283000Y-79248000D01*
X138303000Y-79248000D01*
X138303000Y-77604223D01*
X138049566Y-77484876D01*
X137921645Y-77515856D01*
X137363683Y-77829078D01*
X137173219Y-78071188D01*
X137046120Y-77880971D01*
X136515687Y-77526548D01*
X135890000Y-77402091D01*
X135264313Y-77526548D01*
X134733880Y-77880971D01*
X134379457Y-78411404D01*
X134338959Y-78615000D01*
X132140102Y-78615000D01*
X130777701Y-77252599D01*
X130544957Y-77097085D01*
X130518162Y-76954683D01*
X130379090Y-76738559D01*
X130258522Y-76656179D01*
X130242148Y-76573861D01*
X130077401Y-76327299D01*
X129830839Y-76162552D01*
X129540000Y-76104700D01*
X129474202Y-76104700D01*
X128549107Y-75179605D01*
X128582440Y-75015000D01*
X128582440Y-73499700D01*
X130857900Y-73499700D01*
X131148739Y-73441848D01*
X131395301Y-73277101D01*
X133706414Y-70965988D01*
X133806077Y-71065824D01*
X134333309Y-71284750D01*
X134904187Y-71285248D01*
X135431800Y-71067243D01*
X135835824Y-70663923D01*
X135889862Y-70533785D01*
X135942757Y-70661800D01*
X136346077Y-71065824D01*
X136873309Y-71284750D01*
X137444187Y-71285248D01*
X137971800Y-71067243D01*
X138375824Y-70663923D01*
X138429862Y-70533785D01*
X138482757Y-70661800D01*
X138886077Y-71065824D01*
X139413309Y-71284750D01*
X139984187Y-71285248D01*
X140511800Y-71067243D01*
X140915824Y-70663923D01*
X140969862Y-70533785D01*
X141022757Y-70661800D01*
X141426077Y-71065824D01*
X141953309Y-71284750D01*
X142524187Y-71285248D01*
X143051800Y-71067243D01*
X143455824Y-70663923D01*
X143509862Y-70533785D01*
X143562757Y-70661800D01*
X143966077Y-71065824D01*
X144493309Y-71284750D01*
X145064187Y-71285248D01*
X145591800Y-71067243D01*
X145995824Y-70663923D01*
X146049862Y-70533785D01*
X146102757Y-70661800D01*
X146506077Y-71065824D01*
X146603797Y-71106401D01*
X140629391Y-77080807D01*
X140432599Y-77212299D01*
X140267852Y-77458861D01*
X140240604Y-77595844D01*
X139813880Y-77880971D01*
X139686781Y-78071188D01*
X139496317Y-77829078D01*
X138938355Y-77515856D01*
X138810434Y-77484876D01*
X138557000Y-77604223D01*
X138557000Y-79248000D01*
X138577000Y-79248000D01*
X138577000Y-79502000D01*
X138557000Y-79502000D01*
X138557000Y-81145777D01*
X138810434Y-81265124D01*
X138938355Y-81234144D01*
X139496317Y-80920922D01*
X139686781Y-80678812D01*
X139813880Y-80869029D01*
X140344313Y-81223452D01*
X140970000Y-81347909D01*
X141595687Y-81223452D01*
X141954192Y-80983907D01*
X142045910Y-81126441D01*
X142258110Y-81271431D01*
X142510000Y-81322440D01*
X144510000Y-81322440D01*
X144745317Y-81278162D01*
X144961441Y-81139090D01*
X145106431Y-80926890D01*
X145157440Y-80675000D01*
X145157440Y-80056233D01*
X145372701Y-79912401D01*
X149551701Y-75733401D01*
X149716448Y-75486840D01*
X149741313Y-75361834D01*
X149774300Y-75196000D01*
X149774300Y-68726063D01*
X149806492Y-68693927D01*
X149912890Y-68437692D01*
X152452599Y-70977401D01*
X152452599Y-70977401D01*
G37*
X152452599Y-70977401D02*
X152699161Y-71142148D01*
X152990000Y-71200000D01*
X159293154Y-71200000D01*
X159337932Y-71308371D01*
X159719182Y-71690288D01*
X159339449Y-72069357D01*
X159105267Y-72633330D01*
X159104735Y-73243991D01*
X159337932Y-73808371D01*
X159769357Y-74240551D01*
X160333330Y-74474733D01*
X160874094Y-74475204D01*
X158424099Y-76925199D01*
X158259352Y-77171761D01*
X158201500Y-77462600D01*
X158201500Y-90441500D01*
X158259352Y-90732339D01*
X158424099Y-90978901D01*
X159150234Y-91705036D01*
X159105267Y-91813330D01*
X159104735Y-92423991D01*
X159337932Y-92988371D01*
X159719182Y-93370288D01*
X159339449Y-93749357D01*
X159105267Y-94313330D01*
X159104735Y-94923991D01*
X159337932Y-95488371D01*
X159769357Y-95920551D01*
X160333330Y-96154733D01*
X160943991Y-96155265D01*
X161105400Y-96088572D01*
X161105400Y-98049100D01*
X161163252Y-98339939D01*
X161327999Y-98586501D01*
X165740763Y-102999265D01*
X165733890Y-102994569D01*
X165482000Y-102943560D01*
X164282000Y-102943560D01*
X164046683Y-102987838D01*
X163830559Y-103126910D01*
X163725274Y-103281000D01*
X163157105Y-103281000D01*
X163066090Y-103139559D01*
X162853890Y-102994569D01*
X162602000Y-102943560D01*
X161402000Y-102943560D01*
X161166683Y-102987838D01*
X160950559Y-103126910D01*
X160904031Y-103195006D01*
X160761698Y-103052673D01*
X160528309Y-102956000D01*
X160087750Y-102956000D01*
X159929000Y-103114750D01*
X159929000Y-103914000D01*
X159949000Y-103914000D01*
X159949000Y-104168000D01*
X159929000Y-104168000D01*
X159929000Y-104967250D01*
X160087750Y-105126000D01*
X160528309Y-105126000D01*
X160761698Y-105029327D01*
X160902936Y-104888090D01*
X160937910Y-104942441D01*
X161150110Y-105087431D01*
X161402000Y-105138440D01*
X162602000Y-105138440D01*
X162837317Y-105094162D01*
X163053441Y-104955090D01*
X163158726Y-104801000D01*
X163726895Y-104801000D01*
X163817910Y-104942441D01*
X164030110Y-105087431D01*
X164282000Y-105138440D01*
X165482000Y-105138440D01*
X165717317Y-105094162D01*
X165933441Y-104955090D01*
X165981134Y-104885289D01*
X166017910Y-104942441D01*
X166230110Y-105087431D01*
X166482000Y-105138440D01*
X167682000Y-105138440D01*
X167917317Y-105094162D01*
X168133441Y-104955090D01*
X168278431Y-104742890D01*
X168329440Y-104491000D01*
X168329440Y-103591000D01*
X168285162Y-103355683D01*
X168146090Y-103139559D01*
X167933890Y-102994569D01*
X167775946Y-102962584D01*
X167619401Y-102728299D01*
X162625400Y-97734298D01*
X162625400Y-97041834D01*
X165004543Y-97041834D01*
X165404853Y-98010658D01*
X166145443Y-98752542D01*
X167113567Y-99154542D01*
X168161834Y-99155457D01*
X169130658Y-98755147D01*
X169872542Y-98014557D01*
X170274542Y-97046433D01*
X170275457Y-95998166D01*
X169875147Y-95029342D01*
X169134557Y-94287458D01*
X168166433Y-93885458D01*
X167118166Y-93884543D01*
X166149342Y-94284853D01*
X165407458Y-95025443D01*
X165005458Y-95993567D01*
X165004543Y-97041834D01*
X162625400Y-97041834D01*
X162625400Y-91601200D01*
X162567548Y-91310361D01*
X162402801Y-91063799D01*
X161885050Y-90546048D01*
X161940551Y-90490643D01*
X162174733Y-89926670D01*
X162175265Y-89316009D01*
X162129515Y-89205287D01*
X163092968Y-88241834D01*
X165004543Y-88241834D01*
X165404853Y-89210658D01*
X166145443Y-89952542D01*
X167113567Y-90354542D01*
X168161834Y-90355457D01*
X169130658Y-89955147D01*
X169872542Y-89214557D01*
X170274542Y-88246433D01*
X170275457Y-87198166D01*
X169875147Y-86229342D01*
X169134557Y-85487458D01*
X168166433Y-85085458D01*
X167118166Y-85084543D01*
X166149342Y-85484853D01*
X165407458Y-86225443D01*
X165005458Y-87193567D01*
X165004543Y-88241834D01*
X163092968Y-88241834D01*
X167746202Y-83588600D01*
X170691100Y-83588600D01*
X170981939Y-83530748D01*
X171228501Y-83366001D01*
X171902241Y-82692261D01*
X172018110Y-82771431D01*
X172270000Y-82822440D01*
X172735400Y-82822440D01*
X172735400Y-89040400D01*
X172793252Y-89331239D01*
X172957999Y-89577801D01*
X180774361Y-97394163D01*
X180735262Y-97488325D01*
X180735124Y-97646804D01*
X180710722Y-97622360D01*
X180091638Y-97365293D01*
X179421303Y-97364708D01*
X178801771Y-97620694D01*
X178327360Y-98094278D01*
X178070293Y-98713362D01*
X178069708Y-99383697D01*
X178325694Y-100003229D01*
X178799278Y-100477640D01*
X179240954Y-100661041D01*
X178283628Y-101056600D01*
X177260194Y-102078249D01*
X176705632Y-103413782D01*
X176704370Y-104859874D01*
X177256600Y-106196372D01*
X178278249Y-107219806D01*
X178326882Y-107240000D01*
X168287116Y-107240000D01*
X168329440Y-107031000D01*
X168329440Y-106131000D01*
X168285162Y-105895683D01*
X168146090Y-105679559D01*
X167933890Y-105534569D01*
X167682000Y-105483560D01*
X166482000Y-105483560D01*
X166246683Y-105527838D01*
X166030559Y-105666910D01*
X165982866Y-105736711D01*
X165946090Y-105679559D01*
X165733890Y-105534569D01*
X165482000Y-105483560D01*
X164282000Y-105483560D01*
X164046683Y-105527838D01*
X163830559Y-105666910D01*
X163725274Y-105821000D01*
X163157105Y-105821000D01*
X163066090Y-105679559D01*
X162853890Y-105534569D01*
X162602000Y-105483560D01*
X161402000Y-105483560D01*
X161166683Y-105527838D01*
X160950559Y-105666910D01*
X160904031Y-105735006D01*
X160761698Y-105592673D01*
X160528309Y-105496000D01*
X160087750Y-105496000D01*
X159929000Y-105654750D01*
X159929000Y-106454000D01*
X159949000Y-106454000D01*
X159949000Y-106596300D01*
X153391102Y-106596300D01*
X152823476Y-106028674D01*
X153025687Y-105988452D01*
X153381406Y-105750769D01*
X153401673Y-105799699D01*
X153580302Y-105978327D01*
X153813691Y-106075000D01*
X154654250Y-106075000D01*
X154813000Y-105916250D01*
X154813000Y-104267000D01*
X155067000Y-104267000D01*
X155067000Y-105916250D01*
X155225750Y-106075000D01*
X156066309Y-106075000D01*
X156236052Y-106004690D01*
X158567000Y-106004690D01*
X158567000Y-106295250D01*
X158725750Y-106454000D01*
X159675000Y-106454000D01*
X159675000Y-105654750D01*
X159516250Y-105496000D01*
X159075691Y-105496000D01*
X158842302Y-105592673D01*
X158663673Y-105771301D01*
X158567000Y-106004690D01*
X156236052Y-106004690D01*
X156299698Y-105978327D01*
X156478327Y-105799699D01*
X156575000Y-105566310D01*
X156575000Y-104425750D01*
X156476000Y-104326750D01*
X158567000Y-104326750D01*
X158567000Y-104617310D01*
X158663673Y-104850699D01*
X158842302Y-105029327D01*
X159075691Y-105126000D01*
X159516250Y-105126000D01*
X159675000Y-104967250D01*
X159675000Y-104168000D01*
X158725750Y-104168000D01*
X158567000Y-104326750D01*
X156476000Y-104326750D01*
X156416250Y-104267000D01*
X155067000Y-104267000D01*
X154813000Y-104267000D01*
X154793000Y-104267000D01*
X154793000Y-104013000D01*
X154813000Y-104013000D01*
X154813000Y-102363750D01*
X155067000Y-102363750D01*
X155067000Y-104013000D01*
X156416250Y-104013000D01*
X156575000Y-103854250D01*
X156575000Y-103464690D01*
X158567000Y-103464690D01*
X158567000Y-103755250D01*
X158725750Y-103914000D01*
X159675000Y-103914000D01*
X159675000Y-103114750D01*
X159516250Y-102956000D01*
X159075691Y-102956000D01*
X158842302Y-103052673D01*
X158663673Y-103231301D01*
X158567000Y-103464690D01*
X156575000Y-103464690D01*
X156575000Y-102713690D01*
X156478327Y-102480301D01*
X156299698Y-102301673D01*
X156066309Y-102205000D01*
X155225750Y-102205000D01*
X155067000Y-102363750D01*
X154813000Y-102363750D01*
X154654250Y-102205000D01*
X153813691Y-102205000D01*
X153580302Y-102301673D01*
X153401673Y-102480301D01*
X153381406Y-102529231D01*
X153025687Y-102291548D01*
X152400000Y-102167091D01*
X151774313Y-102291548D01*
X151243880Y-102645971D01*
X151130000Y-102816405D01*
X151016120Y-102645971D01*
X150485687Y-102291548D01*
X149860000Y-102167091D01*
X149234313Y-102291548D01*
X148703880Y-102645971D01*
X148590000Y-102816405D01*
X148476120Y-102645971D01*
X147945687Y-102291548D01*
X147320000Y-102167091D01*
X146694313Y-102291548D01*
X146163880Y-102645971D01*
X145928198Y-102998696D01*
X143498701Y-100569199D01*
X143252139Y-100404452D01*
X142961300Y-100346600D01*
X130040602Y-100346600D01*
X127769752Y-98075750D01*
X130695000Y-98075750D01*
X130695000Y-98666310D01*
X130791673Y-98899699D01*
X130970302Y-99078327D01*
X131203691Y-99175000D01*
X131794250Y-99175000D01*
X131953000Y-99016250D01*
X131953000Y-97917000D01*
X130853750Y-97917000D01*
X130695000Y-98075750D01*
X127769752Y-98075750D01*
X126607692Y-96913690D01*
X130695000Y-96913690D01*
X130695000Y-97504250D01*
X130853750Y-97663000D01*
X131953000Y-97663000D01*
X131953000Y-96563750D01*
X131794250Y-96405000D01*
X131203691Y-96405000D01*
X130970302Y-96501673D01*
X130791673Y-96680301D01*
X130695000Y-96913690D01*
X126607692Y-96913690D01*
X125218287Y-95524285D01*
X131964760Y-95524285D01*
X132175169Y-96033515D01*
X132546007Y-96405000D01*
X132365750Y-96405000D01*
X132207000Y-96563750D01*
X132207000Y-97663000D01*
X132227000Y-97663000D01*
X132227000Y-97917000D01*
X132207000Y-97917000D01*
X132207000Y-99016250D01*
X132365750Y-99175000D01*
X132956309Y-99175000D01*
X133189698Y-99078327D01*
X133368327Y-98899699D01*
X133425563Y-98761517D01*
X133828088Y-98761517D01*
X133896077Y-99002460D01*
X134415171Y-99187201D01*
X134965448Y-99159230D01*
X135343923Y-99002460D01*
X135411912Y-98761517D01*
X136368088Y-98761517D01*
X136436077Y-99002460D01*
X136955171Y-99187201D01*
X137505448Y-99159230D01*
X137883923Y-99002460D01*
X137951912Y-98761517D01*
X138908088Y-98761517D01*
X138976077Y-99002460D01*
X139495171Y-99187201D01*
X140045448Y-99159230D01*
X140423923Y-99002460D01*
X140491912Y-98761517D01*
X139700000Y-97969605D01*
X138908088Y-98761517D01*
X137951912Y-98761517D01*
X137160000Y-97969605D01*
X136368088Y-98761517D01*
X135411912Y-98761517D01*
X134620000Y-97969605D01*
X133828088Y-98761517D01*
X133425563Y-98761517D01*
X133465000Y-98666310D01*
X133465000Y-98530137D01*
X133648483Y-98581912D01*
X134440395Y-97790000D01*
X134799605Y-97790000D01*
X135591517Y-98581912D01*
X135832460Y-98513923D01*
X135885642Y-98364489D01*
X135947540Y-98513923D01*
X136188483Y-98581912D01*
X136980395Y-97790000D01*
X137339605Y-97790000D01*
X138131517Y-98581912D01*
X138372460Y-98513923D01*
X138425642Y-98364489D01*
X138487540Y-98513923D01*
X138728483Y-98581912D01*
X139520395Y-97790000D01*
X139879605Y-97790000D01*
X140671517Y-98581912D01*
X140912460Y-98513923D01*
X141097201Y-97994829D01*
X141069230Y-97444552D01*
X140912460Y-97066077D01*
X140671517Y-96998088D01*
X139879605Y-97790000D01*
X139520395Y-97790000D01*
X138728483Y-96998088D01*
X138487540Y-97066077D01*
X138434358Y-97215511D01*
X138372460Y-97066077D01*
X138131517Y-96998088D01*
X137339605Y-97790000D01*
X136980395Y-97790000D01*
X136188483Y-96998088D01*
X135947540Y-97066077D01*
X135894358Y-97215511D01*
X135832460Y-97066077D01*
X135591517Y-96998088D01*
X134799605Y-97790000D01*
X134440395Y-97790000D01*
X133648483Y-96998088D01*
X133465000Y-97049863D01*
X133465000Y-96913690D01*
X133425564Y-96818483D01*
X133828088Y-96818483D01*
X134620000Y-97610395D01*
X135411912Y-96818483D01*
X136368088Y-96818483D01*
X137160000Y-97610395D01*
X137951912Y-96818483D01*
X138908088Y-96818483D01*
X139700000Y-97610395D01*
X140491912Y-96818483D01*
X140423923Y-96577540D01*
X139904829Y-96392799D01*
X139354552Y-96420770D01*
X138976077Y-96577540D01*
X138908088Y-96818483D01*
X137951912Y-96818483D01*
X137883923Y-96577540D01*
X137364829Y-96392799D01*
X136814552Y-96420770D01*
X136436077Y-96577540D01*
X136368088Y-96818483D01*
X135411912Y-96818483D01*
X135343923Y-96577540D01*
X134824829Y-96392799D01*
X134274552Y-96420770D01*
X133896077Y-96577540D01*
X133828088Y-96818483D01*
X133425564Y-96818483D01*
X133368327Y-96680301D01*
X133323003Y-96634977D01*
X133624285Y-96635240D01*
X134133515Y-96424831D01*
X134523461Y-96035564D01*
X134619976Y-95803130D01*
X134715169Y-96033515D01*
X135104436Y-96423461D01*
X135613298Y-96634759D01*
X136164285Y-96635240D01*
X136673515Y-96424831D01*
X137063461Y-96035564D01*
X137159976Y-95803130D01*
X137255169Y-96033515D01*
X137644436Y-96423461D01*
X138153298Y-96634759D01*
X138704285Y-96635240D01*
X139213515Y-96424831D01*
X139603461Y-96035564D01*
X139699976Y-95803130D01*
X139795169Y-96033515D01*
X140184436Y-96423461D01*
X140693298Y-96634759D01*
X141244285Y-96635240D01*
X141753515Y-96424831D01*
X142143461Y-96035564D01*
X142354759Y-95526702D01*
X142355240Y-94975715D01*
X142144831Y-94466485D01*
X141755564Y-94076539D01*
X141246702Y-93865241D01*
X140695715Y-93864760D01*
X140186485Y-94075169D01*
X139796539Y-94464436D01*
X139700024Y-94696870D01*
X139604831Y-94466485D01*
X139215564Y-94076539D01*
X138706702Y-93865241D01*
X138155715Y-93864760D01*
X137646485Y-94075169D01*
X137256539Y-94464436D01*
X137160024Y-94696870D01*
X137064831Y-94466485D01*
X136675564Y-94076539D01*
X136166702Y-93865241D01*
X135615715Y-93864760D01*
X135106485Y-94075169D01*
X134716539Y-94464436D01*
X134620024Y-94696870D01*
X134524831Y-94466485D01*
X134135564Y-94076539D01*
X133626702Y-93865241D01*
X133075715Y-93864760D01*
X132566485Y-94075169D01*
X132176539Y-94464436D01*
X131965241Y-94973298D01*
X131964760Y-95524285D01*
X125218287Y-95524285D01*
X125072300Y-95378298D01*
X125072300Y-91529300D01*
X125017067Y-91251629D01*
X125014448Y-91238460D01*
X124849701Y-90991899D01*
X124739901Y-90882099D01*
X124980392Y-90642027D01*
X125123038Y-90298499D01*
X125123362Y-89926533D01*
X124981317Y-89582757D01*
X124718527Y-89319508D01*
X124522440Y-89238085D01*
X124522440Y-88770000D01*
X124478162Y-88534683D01*
X124384497Y-88389123D01*
X124471431Y-88261890D01*
X124522440Y-88010000D01*
X124522440Y-87250000D01*
X124504555Y-87154947D01*
X125632401Y-86027101D01*
X125797148Y-85780540D01*
X125812114Y-85705300D01*
X125855000Y-85489700D01*
X125855000Y-85015334D01*
X125938690Y-85050000D01*
X126079250Y-85050000D01*
X126238000Y-84891250D01*
X126238000Y-83567000D01*
X126218000Y-83567000D01*
X126218000Y-83313000D01*
X126238000Y-83313000D01*
X126238000Y-81988750D01*
X126079250Y-81830000D01*
X125938690Y-81830000D01*
X125721878Y-81919806D01*
X125646890Y-81868569D01*
X125395000Y-81817560D01*
X124795000Y-81817560D01*
X124559683Y-81861838D01*
X124460472Y-81925678D01*
X124376890Y-81868569D01*
X124125000Y-81817560D01*
X123525000Y-81817560D01*
X123289683Y-81861838D01*
X123190472Y-81925678D01*
X123106890Y-81868569D01*
X122855000Y-81817560D01*
X122255000Y-81817560D01*
X122019683Y-81861838D01*
X121920472Y-81925678D01*
X121836890Y-81868569D01*
X121585000Y-81817560D01*
X120985000Y-81817560D01*
X120749683Y-81861838D01*
X120650472Y-81925678D01*
X120566890Y-81868569D01*
X120315000Y-81817560D01*
X119715000Y-81817560D01*
X119479683Y-81861838D01*
X119380472Y-81925678D01*
X119296890Y-81868569D01*
X119045000Y-81817560D01*
X118445000Y-81817560D01*
X118209683Y-81861838D01*
X118110472Y-81925678D01*
X118026890Y-81868569D01*
X117775000Y-81817560D01*
X117175000Y-81817560D01*
X117147337Y-81822765D01*
X123092401Y-75877701D01*
X123257148Y-75631139D01*
X123262509Y-75604188D01*
X123273110Y-75611431D01*
X123525000Y-75662440D01*
X124125000Y-75662440D01*
X124360317Y-75618162D01*
X124459528Y-75554322D01*
X124543110Y-75611431D01*
X124795000Y-75662440D01*
X125395000Y-75662440D01*
X125630317Y-75618162D01*
X125729528Y-75554322D01*
X125813110Y-75611431D01*
X126065000Y-75662440D01*
X126665000Y-75662440D01*
X126900317Y-75618162D01*
X126926872Y-75601074D01*
X126932852Y-75631139D01*
X127097599Y-75877701D01*
X128517560Y-77297662D01*
X128517560Y-78390000D01*
X128561838Y-78625317D01*
X128628329Y-78728646D01*
X128626673Y-78730302D01*
X128530000Y-78963691D01*
X128530000Y-79404250D01*
X128688750Y-79563000D01*
X129413000Y-79563000D01*
X129413000Y-79543000D01*
X129667000Y-79543000D01*
X129667000Y-79563000D01*
X129687000Y-79563000D01*
X129687000Y-79817000D01*
X129667000Y-79817000D01*
X129667000Y-79837000D01*
X129413000Y-79837000D01*
X129413000Y-79817000D01*
X128688750Y-79817000D01*
X128530000Y-79975750D01*
X128530000Y-80416309D01*
X128626673Y-80649698D01*
X128783936Y-80806962D01*
X128211198Y-81379700D01*
X127635000Y-81379700D01*
X127344161Y-81437552D01*
X127097599Y-81602299D01*
X126932852Y-81848861D01*
X126925544Y-81885602D01*
X126791310Y-81830000D01*
X126650750Y-81830000D01*
X126492000Y-81988750D01*
X126492000Y-83313000D01*
X126512000Y-83313000D01*
X126512000Y-83567000D01*
X126492000Y-83567000D01*
X126492000Y-84891250D01*
X126650750Y-85050000D01*
X126791310Y-85050000D01*
X127008122Y-84960194D01*
X127083110Y-85011431D01*
X127335000Y-85062440D01*
X127935000Y-85062440D01*
X128170317Y-85018162D01*
X128386441Y-84879090D01*
X128531431Y-84666890D01*
X128582440Y-84415000D01*
X128582440Y-82888473D01*
X128816839Y-82841848D01*
X129063401Y-82677101D01*
X131641969Y-80098533D01*
X131825300Y-80135000D01*
X134338959Y-80135000D01*
X134379457Y-80338596D01*
X134733880Y-80869029D01*
X135264313Y-81223452D01*
X135890000Y-81347909D01*
X136515687Y-81223452D01*
X137046120Y-80869029D01*
X137173219Y-80678812D01*
X137363683Y-80920922D01*
X137921645Y-81234144D01*
X138049566Y-81265124D01*
X138303000Y-81145777D01*
X138303000Y-79502000D01*
X138283000Y-79502000D01*
X138283000Y-79248000D01*
X138303000Y-79248000D01*
X138303000Y-77604223D01*
X138049566Y-77484876D01*
X137921645Y-77515856D01*
X137363683Y-77829078D01*
X137173219Y-78071188D01*
X137046120Y-77880971D01*
X136515687Y-77526548D01*
X135890000Y-77402091D01*
X135264313Y-77526548D01*
X134733880Y-77880971D01*
X134379457Y-78411404D01*
X134338959Y-78615000D01*
X132140102Y-78615000D01*
X130777701Y-77252599D01*
X130544957Y-77097085D01*
X130518162Y-76954683D01*
X130379090Y-76738559D01*
X130258522Y-76656179D01*
X130242148Y-76573861D01*
X130077401Y-76327299D01*
X129830839Y-76162552D01*
X129540000Y-76104700D01*
X129474202Y-76104700D01*
X128549107Y-75179605D01*
X128582440Y-75015000D01*
X128582440Y-73499700D01*
X130857900Y-73499700D01*
X131148739Y-73441848D01*
X131395301Y-73277101D01*
X133706414Y-70965988D01*
X133806077Y-71065824D01*
X134333309Y-71284750D01*
X134904187Y-71285248D01*
X135431800Y-71067243D01*
X135835824Y-70663923D01*
X135889862Y-70533785D01*
X135942757Y-70661800D01*
X136346077Y-71065824D01*
X136873309Y-71284750D01*
X137444187Y-71285248D01*
X137971800Y-71067243D01*
X138375824Y-70663923D01*
X138429862Y-70533785D01*
X138482757Y-70661800D01*
X138886077Y-71065824D01*
X139413309Y-71284750D01*
X139984187Y-71285248D01*
X140511800Y-71067243D01*
X140915824Y-70663923D01*
X140969862Y-70533785D01*
X141022757Y-70661800D01*
X141426077Y-71065824D01*
X141953309Y-71284750D01*
X142524187Y-71285248D01*
X143051800Y-71067243D01*
X143455824Y-70663923D01*
X143509862Y-70533785D01*
X143562757Y-70661800D01*
X143966077Y-71065824D01*
X144493309Y-71284750D01*
X145064187Y-71285248D01*
X145591800Y-71067243D01*
X145995824Y-70663923D01*
X146049862Y-70533785D01*
X146102757Y-70661800D01*
X146506077Y-71065824D01*
X146603797Y-71106401D01*
X140629391Y-77080807D01*
X140432599Y-77212299D01*
X140267852Y-77458861D01*
X140240604Y-77595844D01*
X139813880Y-77880971D01*
X139686781Y-78071188D01*
X139496317Y-77829078D01*
X138938355Y-77515856D01*
X138810434Y-77484876D01*
X138557000Y-77604223D01*
X138557000Y-79248000D01*
X138577000Y-79248000D01*
X138577000Y-79502000D01*
X138557000Y-79502000D01*
X138557000Y-81145777D01*
X138810434Y-81265124D01*
X138938355Y-81234144D01*
X139496317Y-80920922D01*
X139686781Y-80678812D01*
X139813880Y-80869029D01*
X140344313Y-81223452D01*
X140970000Y-81347909D01*
X141595687Y-81223452D01*
X141954192Y-80983907D01*
X142045910Y-81126441D01*
X142258110Y-81271431D01*
X142510000Y-81322440D01*
X144510000Y-81322440D01*
X144745317Y-81278162D01*
X144961441Y-81139090D01*
X145106431Y-80926890D01*
X145157440Y-80675000D01*
X145157440Y-80056233D01*
X145372701Y-79912401D01*
X149551701Y-75733401D01*
X149716448Y-75486840D01*
X149741313Y-75361834D01*
X149774300Y-75196000D01*
X149774300Y-68726063D01*
X149806492Y-68693927D01*
X149912890Y-68437692D01*
X152452599Y-70977401D01*
G36*
X178283628Y-35016600D02*
X177260194Y-36038249D01*
X176705632Y-37373782D01*
X176704370Y-38819874D01*
X177256600Y-40156372D01*
X178278249Y-41179806D01*
X179613782Y-41734368D01*
X181059874Y-41735630D01*
X182396372Y-41183400D01*
X183419806Y-40161751D01*
X183440000Y-40113118D01*
X183440000Y-52760200D01*
X180139691Y-52760200D01*
X180116000Y-52770013D01*
X180092309Y-52760200D01*
X176789691Y-52760200D01*
X176556302Y-52856873D01*
X176377673Y-53035501D01*
X176281000Y-53268890D01*
X176281000Y-56271510D01*
X176290813Y-56295200D01*
X176281000Y-56318890D01*
X176281000Y-59321510D01*
X176377673Y-59554899D01*
X176556302Y-59733527D01*
X176789691Y-59830200D01*
X180092309Y-59830200D01*
X180116000Y-59820387D01*
X180139691Y-59830200D01*
X183440000Y-59830200D01*
X183440000Y-62009987D01*
X183425862Y-61975771D01*
X183001463Y-61550630D01*
X182446675Y-61320262D01*
X181845960Y-61319738D01*
X181340045Y-61528778D01*
X181340292Y-61246303D01*
X181084306Y-60626771D01*
X180610722Y-60152360D01*
X179991638Y-59895293D01*
X179321303Y-59894708D01*
X178701771Y-60150694D01*
X178227360Y-60624278D01*
X177970293Y-61243362D01*
X177969708Y-61913697D01*
X178096559Y-62220700D01*
X150925502Y-62220700D01*
X148733256Y-60028454D01*
X148754750Y-59976691D01*
X148755228Y-59427745D01*
X164271861Y-59427745D01*
X164345995Y-59673864D01*
X164883223Y-59866965D01*
X165453454Y-59839778D01*
X165854005Y-59673864D01*
X165928139Y-59427745D01*
X165100000Y-58599605D01*
X164271861Y-59427745D01*
X148755228Y-59427745D01*
X148755248Y-59405813D01*
X148537243Y-58878200D01*
X148133923Y-58474176D01*
X148003785Y-58420138D01*
X148131800Y-58367243D01*
X148296106Y-58203223D01*
X163653035Y-58203223D01*
X163680222Y-58773454D01*
X163846136Y-59174005D01*
X164092255Y-59248139D01*
X164920395Y-58420000D01*
X165279605Y-58420000D01*
X166107745Y-59248139D01*
X166353864Y-59174005D01*
X166546965Y-58636777D01*
X166519778Y-58066546D01*
X166519449Y-58065750D01*
X169170000Y-58065750D01*
X169170000Y-58506309D01*
X169266673Y-58739698D01*
X169445301Y-58918327D01*
X169678690Y-59015000D01*
X169894250Y-59015000D01*
X170053000Y-58856250D01*
X170053000Y-57907000D01*
X170307000Y-57907000D01*
X170307000Y-58856250D01*
X170465750Y-59015000D01*
X170681310Y-59015000D01*
X170914699Y-58918327D01*
X171093327Y-58739698D01*
X171190000Y-58506309D01*
X171190000Y-58065750D01*
X171031250Y-57907000D01*
X170307000Y-57907000D01*
X170053000Y-57907000D01*
X169328750Y-57907000D01*
X169170000Y-58065750D01*
X166519449Y-58065750D01*
X166353864Y-57665995D01*
X166107745Y-57591861D01*
X165279605Y-58420000D01*
X164920395Y-58420000D01*
X164092255Y-57591861D01*
X163846136Y-57665995D01*
X163653035Y-58203223D01*
X148296106Y-58203223D01*
X148535824Y-57963923D01*
X148754750Y-57436691D01*
X148755248Y-56865813D01*
X148537243Y-56338200D01*
X148426969Y-56227733D01*
X148991401Y-55663301D01*
X149156148Y-55416740D01*
X149171890Y-55337601D01*
X149214000Y-55125900D01*
X149214000Y-54580907D01*
X150915000Y-54580907D01*
X150915000Y-54639093D01*
X151028039Y-55207378D01*
X151349946Y-55689147D01*
X151831715Y-56011054D01*
X152400000Y-56124093D01*
X152968285Y-56011054D01*
X153450054Y-55689147D01*
X153670000Y-55359974D01*
X153889946Y-55689147D01*
X154263051Y-55938447D01*
X154109517Y-56091981D01*
X153945733Y-56091838D01*
X153601957Y-56233883D01*
X153338708Y-56496673D01*
X153196062Y-56840201D01*
X153195738Y-57212167D01*
X153337783Y-57555943D01*
X153600573Y-57819192D01*
X153944101Y-57961838D01*
X154316067Y-57962162D01*
X154659843Y-57820117D01*
X154923092Y-57557327D01*
X155014920Y-57336182D01*
X156328540Y-56022562D01*
X156378110Y-56056431D01*
X156630000Y-56107440D01*
X157372308Y-56107440D01*
X157987434Y-56722566D01*
X158355654Y-56968603D01*
X158790000Y-57055000D01*
X163760982Y-57055000D01*
X163835910Y-57171441D01*
X164048110Y-57316431D01*
X164286201Y-57364646D01*
X164271861Y-57412255D01*
X165100000Y-58240395D01*
X165928139Y-57412255D01*
X165913855Y-57364833D01*
X166135317Y-57323162D01*
X166351441Y-57184090D01*
X166466975Y-57015000D01*
X169186026Y-57015000D01*
X169170000Y-57053691D01*
X169170000Y-57494250D01*
X169328750Y-57653000D01*
X170053000Y-57653000D01*
X170053000Y-57633000D01*
X170307000Y-57633000D01*
X170307000Y-57653000D01*
X171031250Y-57653000D01*
X171160028Y-57524222D01*
X172068560Y-58432822D01*
X172068560Y-59175200D01*
X172112838Y-59410517D01*
X172251910Y-59626641D01*
X172464110Y-59771631D01*
X172716000Y-59822640D01*
X174916000Y-59822640D01*
X175151317Y-59778362D01*
X175367441Y-59639290D01*
X175512431Y-59427090D01*
X175563440Y-59175200D01*
X175563440Y-57975200D01*
X175519162Y-57739883D01*
X175380090Y-57523759D01*
X175167890Y-57378769D01*
X174916000Y-57327760D01*
X174173725Y-57327760D01*
X171923596Y-55077464D01*
X171923578Y-55077452D01*
X171923566Y-55077434D01*
X171734124Y-54950853D01*
X171555384Y-54831413D01*
X171555364Y-54831409D01*
X171555346Y-54831397D01*
X171337088Y-54787983D01*
X171121042Y-54745000D01*
X171121021Y-54745004D01*
X171121000Y-54745000D01*
X170896797Y-54745000D01*
X170806890Y-54683569D01*
X170555000Y-54632560D01*
X169805000Y-54632560D01*
X169569683Y-54676838D01*
X169463756Y-54745000D01*
X166413278Y-54745000D01*
X166364090Y-54668559D01*
X166151890Y-54523569D01*
X165900000Y-54472560D01*
X164300000Y-54472560D01*
X164064683Y-54516838D01*
X163848559Y-54655910D01*
X163760356Y-54785000D01*
X159260132Y-54785000D01*
X158977440Y-54502308D01*
X158977440Y-53760000D01*
X158933162Y-53524683D01*
X158794090Y-53308559D01*
X158581890Y-53163569D01*
X158330000Y-53112560D01*
X157064600Y-53112560D01*
X157064600Y-49010000D01*
X168632560Y-49010000D01*
X168632560Y-52510000D01*
X168676838Y-52745317D01*
X168815910Y-52961441D01*
X169028110Y-53106431D01*
X169280000Y-53157440D01*
X171080000Y-53157440D01*
X171309945Y-53114173D01*
X172068560Y-53872835D01*
X172068560Y-54615200D01*
X172112838Y-54850517D01*
X172251910Y-55066641D01*
X172464110Y-55211631D01*
X172716000Y-55262640D01*
X174916000Y-55262640D01*
X175151317Y-55218362D01*
X175367441Y-55079290D01*
X175512431Y-54867090D01*
X175563440Y-54615200D01*
X175563440Y-53415200D01*
X175519162Y-53179883D01*
X175380090Y-52963759D01*
X175167890Y-52818769D01*
X174951000Y-52774848D01*
X174951000Y-51484132D01*
X176727692Y-49707440D01*
X177370000Y-49707440D01*
X177605317Y-49663162D01*
X177821441Y-49524090D01*
X177966431Y-49311890D01*
X177975370Y-49267745D01*
X178241861Y-49267745D01*
X178315995Y-49513864D01*
X178853223Y-49706965D01*
X179423454Y-49679778D01*
X179824005Y-49513864D01*
X179898139Y-49267745D01*
X179070000Y-48439605D01*
X178241861Y-49267745D01*
X177975370Y-49267745D01*
X178014646Y-49073799D01*
X178062255Y-49088139D01*
X178890395Y-48260000D01*
X179249605Y-48260000D01*
X180077745Y-49088139D01*
X180323864Y-49014005D01*
X180516965Y-48476777D01*
X180489778Y-47906546D01*
X180323864Y-47505995D01*
X180077745Y-47431861D01*
X179249605Y-48260000D01*
X178890395Y-48260000D01*
X178062255Y-47431861D01*
X178014833Y-47446145D01*
X177978351Y-47252255D01*
X178241861Y-47252255D01*
X179070000Y-48080395D01*
X179898139Y-47252255D01*
X179824005Y-47006136D01*
X179286777Y-46813035D01*
X178716546Y-46840222D01*
X178315995Y-47006136D01*
X178241861Y-47252255D01*
X177978351Y-47252255D01*
X177973162Y-47224683D01*
X177834090Y-47008559D01*
X177621890Y-46863569D01*
X177370000Y-46812560D01*
X175770000Y-46812560D01*
X175534683Y-46856838D01*
X175318559Y-46995910D01*
X175173569Y-47208110D01*
X175122560Y-47460000D01*
X175122560Y-48102308D01*
X173013434Y-50211434D01*
X172767397Y-50579654D01*
X172681000Y-51014000D01*
X172681000Y-51274948D01*
X171727440Y-50321329D01*
X171727440Y-49010000D01*
X171683162Y-48774683D01*
X171544090Y-48558559D01*
X171331890Y-48413569D01*
X171080000Y-48362560D01*
X169280000Y-48362560D01*
X169044683Y-48406838D01*
X168828559Y-48545910D01*
X168683569Y-48758110D01*
X168632560Y-49010000D01*
X157064600Y-49010000D01*
X157064600Y-48225202D01*
X159362149Y-45927653D01*
X159391300Y-45939758D01*
X159946265Y-45940242D01*
X160459172Y-45728313D01*
X160851934Y-45336236D01*
X161064758Y-44823700D01*
X161065242Y-44268735D01*
X160958335Y-44010000D01*
X168632560Y-44010000D01*
X168632560Y-47510000D01*
X168676838Y-47745317D01*
X168815910Y-47961441D01*
X169028110Y-48106431D01*
X169280000Y-48157440D01*
X171080000Y-48157440D01*
X171315317Y-48113162D01*
X171531441Y-47974090D01*
X171676431Y-47761890D01*
X171727440Y-47510000D01*
X171727440Y-45817692D01*
X173522566Y-44022567D01*
X173768603Y-43654346D01*
X173790172Y-43545910D01*
X173855000Y-43220000D01*
X173855000Y-39608141D01*
X173876120Y-39594029D01*
X174230543Y-39063596D01*
X174355000Y-38437909D01*
X174355000Y-37762091D01*
X174230543Y-37136404D01*
X173876120Y-36605971D01*
X173345687Y-36251548D01*
X172720000Y-36127091D01*
X172094313Y-36251548D01*
X171738594Y-36489231D01*
X171718327Y-36440301D01*
X171539698Y-36261673D01*
X171306309Y-36165000D01*
X170465750Y-36165000D01*
X170307000Y-36323750D01*
X170307000Y-37973000D01*
X170327000Y-37973000D01*
X170327000Y-38227000D01*
X170307000Y-38227000D01*
X170307000Y-39876250D01*
X170465750Y-40035000D01*
X171306309Y-40035000D01*
X171539698Y-39938327D01*
X171585000Y-39893025D01*
X171585000Y-42749867D01*
X170972307Y-43362560D01*
X169280000Y-43362560D01*
X169044683Y-43406838D01*
X168828559Y-43545910D01*
X168683569Y-43758110D01*
X168632560Y-44010000D01*
X160958335Y-44010000D01*
X160853313Y-43755828D01*
X160642829Y-43544976D01*
X160851934Y-43336236D01*
X161064758Y-42823700D01*
X161065242Y-42268735D01*
X160853313Y-41755828D01*
X160461236Y-41363066D01*
X160190372Y-41250593D01*
X163174012Y-41250593D01*
X163315478Y-41553782D01*
X164051955Y-41838737D01*
X164841418Y-41820164D01*
X165484522Y-41553782D01*
X165625988Y-41250593D01*
X164400000Y-40024605D01*
X163174012Y-41250593D01*
X160190372Y-41250593D01*
X159948700Y-41150242D01*
X159393735Y-41149758D01*
X158880828Y-41361687D01*
X158488066Y-41753764D01*
X158406609Y-41949934D01*
X158350742Y-41815059D01*
X158108764Y-41745841D01*
X157309605Y-42545000D01*
X158108764Y-43344159D01*
X158350742Y-43274941D01*
X158402382Y-43130138D01*
X158486687Y-43334172D01*
X158697171Y-43545024D01*
X158488066Y-43753764D01*
X158400046Y-43965738D01*
X158313313Y-43755828D01*
X157921236Y-43363066D01*
X157659976Y-43254581D01*
X157130000Y-42724605D01*
X156600010Y-43254595D01*
X156340828Y-43361687D01*
X155948066Y-43753764D01*
X155735242Y-44266300D01*
X155734758Y-44821265D01*
X155747674Y-44852524D01*
X151862599Y-48737599D01*
X151697852Y-48984161D01*
X151640000Y-49275000D01*
X151640000Y-53337046D01*
X151349946Y-53530853D01*
X151028039Y-54012622D01*
X150915000Y-54580907D01*
X149214000Y-54580907D01*
X149214000Y-48124000D01*
X149156148Y-47833161D01*
X149156148Y-47833160D01*
X148991401Y-47586599D01*
X148733256Y-47328454D01*
X148754750Y-47276691D01*
X148755248Y-46705813D01*
X148537243Y-46178200D01*
X148133923Y-45774176D01*
X148003785Y-45720138D01*
X148131800Y-45667243D01*
X148535824Y-45263923D01*
X148754750Y-44736691D01*
X148755248Y-44165813D01*
X148537243Y-43638200D01*
X148133923Y-43234176D01*
X148003785Y-43180138D01*
X148131800Y-43127243D01*
X148535824Y-42723923D01*
X148696164Y-42337780D01*
X155722845Y-42337780D01*
X155750659Y-42892049D01*
X155909258Y-43274941D01*
X156151236Y-43344159D01*
X156950395Y-42545000D01*
X156151236Y-41745841D01*
X155909258Y-41815059D01*
X155722845Y-42337780D01*
X148696164Y-42337780D01*
X148754750Y-42196691D01*
X148755248Y-41625813D01*
X148600211Y-41250593D01*
X151174012Y-41250593D01*
X151315478Y-41553782D01*
X152051955Y-41838737D01*
X152841418Y-41820164D01*
X153454455Y-41566236D01*
X156330841Y-41566236D01*
X157130000Y-42365395D01*
X157929159Y-41566236D01*
X157859941Y-41324258D01*
X157337220Y-41137845D01*
X156782951Y-41165659D01*
X156400059Y-41324258D01*
X156330841Y-41566236D01*
X153454455Y-41566236D01*
X153484522Y-41553782D01*
X153625988Y-41250593D01*
X152400000Y-40024605D01*
X151174012Y-41250593D01*
X148600211Y-41250593D01*
X148537243Y-41098200D01*
X148133923Y-40694176D01*
X148003785Y-40640138D01*
X148131800Y-40587243D01*
X148535824Y-40183923D01*
X148754750Y-39656691D01*
X148754889Y-39496955D01*
X150406263Y-39496955D01*
X150424836Y-40286418D01*
X150691218Y-40929522D01*
X150994407Y-41070988D01*
X152220395Y-39845000D01*
X152579605Y-39845000D01*
X153805593Y-41070988D01*
X154108782Y-40929522D01*
X154393737Y-40193045D01*
X154377361Y-39496955D01*
X162406263Y-39496955D01*
X162424836Y-40286418D01*
X162691218Y-40929522D01*
X162994407Y-41070988D01*
X164220395Y-39845000D01*
X164579605Y-39845000D01*
X165805593Y-41070988D01*
X166108782Y-40929522D01*
X166393737Y-40193045D01*
X166375164Y-39403582D01*
X166108782Y-38760478D01*
X165805593Y-38619012D01*
X164579605Y-39845000D01*
X164220395Y-39845000D01*
X162994407Y-38619012D01*
X162691218Y-38760478D01*
X162406263Y-39496955D01*
X154377361Y-39496955D01*
X154375164Y-39403582D01*
X154108782Y-38760478D01*
X153805593Y-38619012D01*
X152579605Y-39845000D01*
X152220395Y-39845000D01*
X150994407Y-38619012D01*
X150691218Y-38760478D01*
X150406263Y-39496955D01*
X148754889Y-39496955D01*
X148755248Y-39085813D01*
X148537243Y-38558200D01*
X148418657Y-38439407D01*
X151174012Y-38439407D01*
X152400000Y-39665395D01*
X153625988Y-38439407D01*
X163174012Y-38439407D01*
X164400000Y-39665395D01*
X165625988Y-38439407D01*
X165600952Y-38385750D01*
X168545000Y-38385750D01*
X168545000Y-39526310D01*
X168641673Y-39759699D01*
X168820302Y-39938327D01*
X169053691Y-40035000D01*
X169894250Y-40035000D01*
X170053000Y-39876250D01*
X170053000Y-38227000D01*
X168703750Y-38227000D01*
X168545000Y-38385750D01*
X165600952Y-38385750D01*
X165484522Y-38136218D01*
X164748045Y-37851263D01*
X163958582Y-37869836D01*
X163315478Y-38136218D01*
X163174012Y-38439407D01*
X153625988Y-38439407D01*
X153484522Y-38136218D01*
X152748045Y-37851263D01*
X151958582Y-37869836D01*
X151315478Y-38136218D01*
X151174012Y-38439407D01*
X148418657Y-38439407D01*
X148133923Y-38154176D01*
X148003785Y-38100138D01*
X148131800Y-38047243D01*
X148535824Y-37643923D01*
X148754750Y-37116691D01*
X148755136Y-36673690D01*
X168545000Y-36673690D01*
X168545000Y-37814250D01*
X168703750Y-37973000D01*
X170053000Y-37973000D01*
X170053000Y-36323750D01*
X169894250Y-36165000D01*
X169053691Y-36165000D01*
X168820302Y-36261673D01*
X168641673Y-36440301D01*
X168545000Y-36673690D01*
X148755136Y-36673690D01*
X148755248Y-36545813D01*
X148537243Y-36018200D01*
X148133923Y-35614176D01*
X147606691Y-35395250D01*
X147035813Y-35394752D01*
X146508200Y-35612757D01*
X146104176Y-36016077D01*
X145885250Y-36543309D01*
X145884752Y-37114187D01*
X146102757Y-37641800D01*
X146506077Y-38045824D01*
X146636215Y-38099862D01*
X146508200Y-38152757D01*
X146104176Y-38556077D01*
X146050138Y-38686215D01*
X145997243Y-38558200D01*
X145593923Y-38154176D01*
X145066691Y-37935250D01*
X144495813Y-37934752D01*
X143968200Y-38152757D01*
X143564176Y-38556077D01*
X143345250Y-39083309D01*
X143344752Y-39654187D01*
X143562757Y-40181800D01*
X143966077Y-40585824D01*
X144493309Y-40804750D01*
X145064187Y-40805248D01*
X145591800Y-40587243D01*
X145995824Y-40183923D01*
X146049862Y-40053785D01*
X146102757Y-40181800D01*
X146506077Y-40585824D01*
X146636215Y-40639862D01*
X146508200Y-40692757D01*
X146104176Y-41096077D01*
X145885250Y-41623309D01*
X145884752Y-42194187D01*
X146102757Y-42721800D01*
X146506077Y-43125824D01*
X146636215Y-43179862D01*
X146508200Y-43232757D01*
X146104176Y-43636077D01*
X146050138Y-43766215D01*
X145997243Y-43638200D01*
X145593923Y-43234176D01*
X145066691Y-43015250D01*
X144495813Y-43014752D01*
X143968200Y-43232757D01*
X143564176Y-43636077D01*
X143345250Y-44163309D01*
X143344752Y-44734187D01*
X143438056Y-44960000D01*
X139530900Y-44960000D01*
X139240061Y-45017852D01*
X138993499Y-45182599D01*
X134136098Y-50040000D01*
X133422024Y-50040000D01*
X133514750Y-49816691D01*
X133515248Y-49245813D01*
X133297243Y-48718200D01*
X132893923Y-48314176D01*
X132763785Y-48260138D01*
X132891800Y-48207243D01*
X133295824Y-47803923D01*
X133514750Y-47276691D01*
X133515248Y-46705813D01*
X133297243Y-46178200D01*
X132893923Y-45774176D01*
X132763785Y-45720138D01*
X132891800Y-45667243D01*
X133295824Y-45263923D01*
X133514750Y-44736691D01*
X133515248Y-44165813D01*
X133297243Y-43638200D01*
X132893923Y-43234176D01*
X132763785Y-43180138D01*
X132891800Y-43127243D01*
X133295824Y-42723923D01*
X133514750Y-42196691D01*
X133515248Y-41625813D01*
X133297243Y-41098200D01*
X132893923Y-40694176D01*
X132763785Y-40640138D01*
X132891800Y-40587243D01*
X133295824Y-40183923D01*
X133514750Y-39656691D01*
X133515248Y-39085813D01*
X133297243Y-38558200D01*
X133004554Y-38265000D01*
X133006310Y-38265000D01*
X133239699Y-38168327D01*
X133418327Y-37989698D01*
X133515000Y-37756309D01*
X133515000Y-37115750D01*
X133356250Y-36957000D01*
X132207000Y-36957000D01*
X132207000Y-36977000D01*
X131953000Y-36977000D01*
X131953000Y-36957000D01*
X130803750Y-36957000D01*
X130645000Y-37115750D01*
X130645000Y-37756309D01*
X130741673Y-37989698D01*
X130920301Y-38168327D01*
X131153690Y-38265000D01*
X131155761Y-38265000D01*
X130864176Y-38556077D01*
X130645250Y-39083309D01*
X130644752Y-39654187D01*
X130667049Y-39708149D01*
X127992330Y-42382868D01*
X127980213Y-42379392D01*
X127179605Y-43180000D01*
X127193748Y-43194143D01*
X127014143Y-43373748D01*
X127000000Y-43359605D01*
X126199392Y-44160213D01*
X126268857Y-44402397D01*
X126409318Y-44452509D01*
X126209697Y-44534990D01*
X125816371Y-44927630D01*
X125603243Y-45440900D01*
X125602758Y-45996661D01*
X125814990Y-46510303D01*
X126207630Y-46903629D01*
X126415512Y-46989949D01*
X126209697Y-47074990D01*
X125816371Y-47467630D01*
X125603243Y-47980900D01*
X125602758Y-48536661D01*
X125616143Y-48569055D01*
X122137899Y-52047299D01*
X122011907Y-52235860D01*
X121150000Y-52235860D01*
X121125608Y-52240450D01*
X121125662Y-52177933D01*
X120983617Y-51834157D01*
X120720827Y-51570908D01*
X120377299Y-51428262D01*
X120005333Y-51427938D01*
X119661557Y-51569983D01*
X119404062Y-51827029D01*
X119259161Y-51855852D01*
X119012599Y-52020599D01*
X118857085Y-52253343D01*
X118714683Y-52280138D01*
X118498559Y-52419210D01*
X118353569Y-52631410D01*
X118302560Y-52883300D01*
X118302560Y-53348600D01*
X115377440Y-53348600D01*
X115377440Y-52883300D01*
X115333162Y-52647983D01*
X115194090Y-52431859D01*
X114981890Y-52286869D01*
X114730000Y-52235860D01*
X113530000Y-52235860D01*
X113294683Y-52280138D01*
X113078559Y-52419210D01*
X113030866Y-52489011D01*
X112994090Y-52431859D01*
X112781890Y-52286869D01*
X112530000Y-52235860D01*
X111330000Y-52235860D01*
X111094683Y-52280138D01*
X110878559Y-52419210D01*
X110768696Y-52580000D01*
X107877531Y-52580000D01*
X107865010Y-52549697D01*
X107472370Y-52156371D01*
X107264488Y-52070051D01*
X107470303Y-51985010D01*
X107863629Y-51592370D01*
X107877070Y-51560000D01*
X107956600Y-51560000D01*
X108247439Y-51502148D01*
X108494001Y-51337401D01*
X115498102Y-44333300D01*
X120742560Y-44333300D01*
X120742560Y-45333300D01*
X120786838Y-45568617D01*
X120925910Y-45784741D01*
X121138110Y-45929731D01*
X121390000Y-45980740D01*
X122840000Y-45980740D01*
X123075317Y-45936462D01*
X123291441Y-45797390D01*
X123436431Y-45585190D01*
X123487440Y-45333300D01*
X123487440Y-44333300D01*
X123467550Y-44227595D01*
X123475000Y-44209610D01*
X123475000Y-43619050D01*
X123316250Y-43460300D01*
X122567000Y-43460300D01*
X122567000Y-43480300D01*
X122313000Y-43480300D01*
X122313000Y-43460300D01*
X121563750Y-43460300D01*
X121405000Y-43619050D01*
X121405000Y-43685860D01*
X121390000Y-43685860D01*
X121154683Y-43730138D01*
X120938559Y-43869210D01*
X120793569Y-44081410D01*
X120742560Y-44333300D01*
X115498102Y-44333300D01*
X117374412Y-42456990D01*
X121405000Y-42456990D01*
X121405000Y-43047550D01*
X121563750Y-43206300D01*
X122313000Y-43206300D01*
X122313000Y-42107050D01*
X122567000Y-42107050D01*
X122567000Y-43206300D01*
X123316250Y-43206300D01*
X123475000Y-43047550D01*
X123475000Y-42972302D01*
X125590856Y-42972302D01*
X125618638Y-43527368D01*
X125777603Y-43911143D01*
X126019787Y-43980608D01*
X126820395Y-43180000D01*
X126019787Y-42379392D01*
X125777603Y-42448857D01*
X125590856Y-42972302D01*
X123475000Y-42972302D01*
X123475000Y-42456990D01*
X123378327Y-42223601D01*
X123354513Y-42199787D01*
X126199392Y-42199787D01*
X127000000Y-43000395D01*
X127800608Y-42199787D01*
X127731143Y-41957603D01*
X127207698Y-41770856D01*
X126652632Y-41798638D01*
X126268857Y-41957603D01*
X126199392Y-42199787D01*
X123354513Y-42199787D01*
X123199698Y-42044973D01*
X122966309Y-41948300D01*
X122725750Y-41948300D01*
X122567000Y-42107050D01*
X122313000Y-42107050D01*
X122154250Y-41948300D01*
X121913691Y-41948300D01*
X121680302Y-42044973D01*
X121501673Y-42223601D01*
X121405000Y-42456990D01*
X117374412Y-42456990D01*
X118227401Y-41604001D01*
X118392148Y-41357440D01*
X118450000Y-41066600D01*
X118450000Y-37118300D01*
X118504250Y-37118300D01*
X118663000Y-36959550D01*
X118663000Y-36603988D01*
X118687440Y-36483300D01*
X118687440Y-35461300D01*
X118892560Y-35461300D01*
X118892560Y-36483300D01*
X118917000Y-36613187D01*
X118917000Y-36959550D01*
X119075750Y-37118300D01*
X119157806Y-37118300D01*
X119157738Y-37196667D01*
X119299783Y-37540443D01*
X119562573Y-37803692D01*
X119906101Y-37946338D01*
X120278067Y-37946662D01*
X120621843Y-37804617D01*
X120885092Y-37541827D01*
X121027738Y-37198299D01*
X121027797Y-37130740D01*
X121340000Y-37130740D01*
X121411324Y-37117319D01*
X121413691Y-37118300D01*
X121904250Y-37118300D01*
X122063000Y-36959550D01*
X122063000Y-35860300D01*
X122317000Y-35860300D01*
X122317000Y-36959550D01*
X122475750Y-37118300D01*
X122966309Y-37118300D01*
X123199698Y-37021627D01*
X123378327Y-36842999D01*
X123475000Y-36609610D01*
X123475000Y-36019050D01*
X123359641Y-35903691D01*
X130645000Y-35903691D01*
X130645000Y-36544250D01*
X130803750Y-36703000D01*
X131953000Y-36703000D01*
X131953000Y-35553750D01*
X132207000Y-35553750D01*
X132207000Y-36703000D01*
X133356250Y-36703000D01*
X133515000Y-36544250D01*
X133515000Y-35903691D01*
X133418327Y-35670302D01*
X133239699Y-35491673D01*
X133006310Y-35395000D01*
X132365750Y-35395000D01*
X132207000Y-35553750D01*
X131953000Y-35553750D01*
X131794250Y-35395000D01*
X131153690Y-35395000D01*
X130920301Y-35491673D01*
X130741673Y-35670302D01*
X130645000Y-35903691D01*
X123359641Y-35903691D01*
X123316250Y-35860300D01*
X122317000Y-35860300D01*
X122063000Y-35860300D01*
X122043000Y-35860300D01*
X122043000Y-35606300D01*
X122063000Y-35606300D01*
X122063000Y-35586300D01*
X122317000Y-35586300D01*
X122317000Y-35606300D01*
X123316250Y-35606300D01*
X123475000Y-35447550D01*
X123475000Y-35000000D01*
X178323803Y-35000000D01*
X178283628Y-35016600D01*
X178283628Y-35016600D01*
G37*
X178283628Y-35016600D02*
X177260194Y-36038249D01*
X176705632Y-37373782D01*
X176704370Y-38819874D01*
X177256600Y-40156372D01*
X178278249Y-41179806D01*
X179613782Y-41734368D01*
X181059874Y-41735630D01*
X182396372Y-41183400D01*
X183419806Y-40161751D01*
X183440000Y-40113118D01*
X183440000Y-52760200D01*
X180139691Y-52760200D01*
X180116000Y-52770013D01*
X180092309Y-52760200D01*
X176789691Y-52760200D01*
X176556302Y-52856873D01*
X176377673Y-53035501D01*
X176281000Y-53268890D01*
X176281000Y-56271510D01*
X176290813Y-56295200D01*
X176281000Y-56318890D01*
X176281000Y-59321510D01*
X176377673Y-59554899D01*
X176556302Y-59733527D01*
X176789691Y-59830200D01*
X180092309Y-59830200D01*
X180116000Y-59820387D01*
X180139691Y-59830200D01*
X183440000Y-59830200D01*
X183440000Y-62009987D01*
X183425862Y-61975771D01*
X183001463Y-61550630D01*
X182446675Y-61320262D01*
X181845960Y-61319738D01*
X181340045Y-61528778D01*
X181340292Y-61246303D01*
X181084306Y-60626771D01*
X180610722Y-60152360D01*
X179991638Y-59895293D01*
X179321303Y-59894708D01*
X178701771Y-60150694D01*
X178227360Y-60624278D01*
X177970293Y-61243362D01*
X177969708Y-61913697D01*
X178096559Y-62220700D01*
X150925502Y-62220700D01*
X148733256Y-60028454D01*
X148754750Y-59976691D01*
X148755228Y-59427745D01*
X164271861Y-59427745D01*
X164345995Y-59673864D01*
X164883223Y-59866965D01*
X165453454Y-59839778D01*
X165854005Y-59673864D01*
X165928139Y-59427745D01*
X165100000Y-58599605D01*
X164271861Y-59427745D01*
X148755228Y-59427745D01*
X148755248Y-59405813D01*
X148537243Y-58878200D01*
X148133923Y-58474176D01*
X148003785Y-58420138D01*
X148131800Y-58367243D01*
X148296106Y-58203223D01*
X163653035Y-58203223D01*
X163680222Y-58773454D01*
X163846136Y-59174005D01*
X164092255Y-59248139D01*
X164920395Y-58420000D01*
X165279605Y-58420000D01*
X166107745Y-59248139D01*
X166353864Y-59174005D01*
X166546965Y-58636777D01*
X166519778Y-58066546D01*
X166519449Y-58065750D01*
X169170000Y-58065750D01*
X169170000Y-58506309D01*
X169266673Y-58739698D01*
X169445301Y-58918327D01*
X169678690Y-59015000D01*
X169894250Y-59015000D01*
X170053000Y-58856250D01*
X170053000Y-57907000D01*
X170307000Y-57907000D01*
X170307000Y-58856250D01*
X170465750Y-59015000D01*
X170681310Y-59015000D01*
X170914699Y-58918327D01*
X171093327Y-58739698D01*
X171190000Y-58506309D01*
X171190000Y-58065750D01*
X171031250Y-57907000D01*
X170307000Y-57907000D01*
X170053000Y-57907000D01*
X169328750Y-57907000D01*
X169170000Y-58065750D01*
X166519449Y-58065750D01*
X166353864Y-57665995D01*
X166107745Y-57591861D01*
X165279605Y-58420000D01*
X164920395Y-58420000D01*
X164092255Y-57591861D01*
X163846136Y-57665995D01*
X163653035Y-58203223D01*
X148296106Y-58203223D01*
X148535824Y-57963923D01*
X148754750Y-57436691D01*
X148755248Y-56865813D01*
X148537243Y-56338200D01*
X148426969Y-56227733D01*
X148991401Y-55663301D01*
X149156148Y-55416740D01*
X149171890Y-55337601D01*
X149214000Y-55125900D01*
X149214000Y-54580907D01*
X150915000Y-54580907D01*
X150915000Y-54639093D01*
X151028039Y-55207378D01*
X151349946Y-55689147D01*
X151831715Y-56011054D01*
X152400000Y-56124093D01*
X152968285Y-56011054D01*
X153450054Y-55689147D01*
X153670000Y-55359974D01*
X153889946Y-55689147D01*
X154263051Y-55938447D01*
X154109517Y-56091981D01*
X153945733Y-56091838D01*
X153601957Y-56233883D01*
X153338708Y-56496673D01*
X153196062Y-56840201D01*
X153195738Y-57212167D01*
X153337783Y-57555943D01*
X153600573Y-57819192D01*
X153944101Y-57961838D01*
X154316067Y-57962162D01*
X154659843Y-57820117D01*
X154923092Y-57557327D01*
X155014920Y-57336182D01*
X156328540Y-56022562D01*
X156378110Y-56056431D01*
X156630000Y-56107440D01*
X157372308Y-56107440D01*
X157987434Y-56722566D01*
X158355654Y-56968603D01*
X158790000Y-57055000D01*
X163760982Y-57055000D01*
X163835910Y-57171441D01*
X164048110Y-57316431D01*
X164286201Y-57364646D01*
X164271861Y-57412255D01*
X165100000Y-58240395D01*
X165928139Y-57412255D01*
X165913855Y-57364833D01*
X166135317Y-57323162D01*
X166351441Y-57184090D01*
X166466975Y-57015000D01*
X169186026Y-57015000D01*
X169170000Y-57053691D01*
X169170000Y-57494250D01*
X169328750Y-57653000D01*
X170053000Y-57653000D01*
X170053000Y-57633000D01*
X170307000Y-57633000D01*
X170307000Y-57653000D01*
X171031250Y-57653000D01*
X171160028Y-57524222D01*
X172068560Y-58432822D01*
X172068560Y-59175200D01*
X172112838Y-59410517D01*
X172251910Y-59626641D01*
X172464110Y-59771631D01*
X172716000Y-59822640D01*
X174916000Y-59822640D01*
X175151317Y-59778362D01*
X175367441Y-59639290D01*
X175512431Y-59427090D01*
X175563440Y-59175200D01*
X175563440Y-57975200D01*
X175519162Y-57739883D01*
X175380090Y-57523759D01*
X175167890Y-57378769D01*
X174916000Y-57327760D01*
X174173725Y-57327760D01*
X171923596Y-55077464D01*
X171923578Y-55077452D01*
X171923566Y-55077434D01*
X171734124Y-54950853D01*
X171555384Y-54831413D01*
X171555364Y-54831409D01*
X171555346Y-54831397D01*
X171337088Y-54787983D01*
X171121042Y-54745000D01*
X171121021Y-54745004D01*
X171121000Y-54745000D01*
X170896797Y-54745000D01*
X170806890Y-54683569D01*
X170555000Y-54632560D01*
X169805000Y-54632560D01*
X169569683Y-54676838D01*
X169463756Y-54745000D01*
X166413278Y-54745000D01*
X166364090Y-54668559D01*
X166151890Y-54523569D01*
X165900000Y-54472560D01*
X164300000Y-54472560D01*
X164064683Y-54516838D01*
X163848559Y-54655910D01*
X163760356Y-54785000D01*
X159260132Y-54785000D01*
X158977440Y-54502308D01*
X158977440Y-53760000D01*
X158933162Y-53524683D01*
X158794090Y-53308559D01*
X158581890Y-53163569D01*
X158330000Y-53112560D01*
X157064600Y-53112560D01*
X157064600Y-49010000D01*
X168632560Y-49010000D01*
X168632560Y-52510000D01*
X168676838Y-52745317D01*
X168815910Y-52961441D01*
X169028110Y-53106431D01*
X169280000Y-53157440D01*
X171080000Y-53157440D01*
X171309945Y-53114173D01*
X172068560Y-53872835D01*
X172068560Y-54615200D01*
X172112838Y-54850517D01*
X172251910Y-55066641D01*
X172464110Y-55211631D01*
X172716000Y-55262640D01*
X174916000Y-55262640D01*
X175151317Y-55218362D01*
X175367441Y-55079290D01*
X175512431Y-54867090D01*
X175563440Y-54615200D01*
X175563440Y-53415200D01*
X175519162Y-53179883D01*
X175380090Y-52963759D01*
X175167890Y-52818769D01*
X174951000Y-52774848D01*
X174951000Y-51484132D01*
X176727692Y-49707440D01*
X177370000Y-49707440D01*
X177605317Y-49663162D01*
X177821441Y-49524090D01*
X177966431Y-49311890D01*
X177975370Y-49267745D01*
X178241861Y-49267745D01*
X178315995Y-49513864D01*
X178853223Y-49706965D01*
X179423454Y-49679778D01*
X179824005Y-49513864D01*
X179898139Y-49267745D01*
X179070000Y-48439605D01*
X178241861Y-49267745D01*
X177975370Y-49267745D01*
X178014646Y-49073799D01*
X178062255Y-49088139D01*
X178890395Y-48260000D01*
X179249605Y-48260000D01*
X180077745Y-49088139D01*
X180323864Y-49014005D01*
X180516965Y-48476777D01*
X180489778Y-47906546D01*
X180323864Y-47505995D01*
X180077745Y-47431861D01*
X179249605Y-48260000D01*
X178890395Y-48260000D01*
X178062255Y-47431861D01*
X178014833Y-47446145D01*
X177978351Y-47252255D01*
X178241861Y-47252255D01*
X179070000Y-48080395D01*
X179898139Y-47252255D01*
X179824005Y-47006136D01*
X179286777Y-46813035D01*
X178716546Y-46840222D01*
X178315995Y-47006136D01*
X178241861Y-47252255D01*
X177978351Y-47252255D01*
X177973162Y-47224683D01*
X177834090Y-47008559D01*
X177621890Y-46863569D01*
X177370000Y-46812560D01*
X175770000Y-46812560D01*
X175534683Y-46856838D01*
X175318559Y-46995910D01*
X175173569Y-47208110D01*
X175122560Y-47460000D01*
X175122560Y-48102308D01*
X173013434Y-50211434D01*
X172767397Y-50579654D01*
X172681000Y-51014000D01*
X172681000Y-51274948D01*
X171727440Y-50321329D01*
X171727440Y-49010000D01*
X171683162Y-48774683D01*
X171544090Y-48558559D01*
X171331890Y-48413569D01*
X171080000Y-48362560D01*
X169280000Y-48362560D01*
X169044683Y-48406838D01*
X168828559Y-48545910D01*
X168683569Y-48758110D01*
X168632560Y-49010000D01*
X157064600Y-49010000D01*
X157064600Y-48225202D01*
X159362149Y-45927653D01*
X159391300Y-45939758D01*
X159946265Y-45940242D01*
X160459172Y-45728313D01*
X160851934Y-45336236D01*
X161064758Y-44823700D01*
X161065242Y-44268735D01*
X160958335Y-44010000D01*
X168632560Y-44010000D01*
X168632560Y-47510000D01*
X168676838Y-47745317D01*
X168815910Y-47961441D01*
X169028110Y-48106431D01*
X169280000Y-48157440D01*
X171080000Y-48157440D01*
X171315317Y-48113162D01*
X171531441Y-47974090D01*
X171676431Y-47761890D01*
X171727440Y-47510000D01*
X171727440Y-45817692D01*
X173522566Y-44022567D01*
X173768603Y-43654346D01*
X173790172Y-43545910D01*
X173855000Y-43220000D01*
X173855000Y-39608141D01*
X173876120Y-39594029D01*
X174230543Y-39063596D01*
X174355000Y-38437909D01*
X174355000Y-37762091D01*
X174230543Y-37136404D01*
X173876120Y-36605971D01*
X173345687Y-36251548D01*
X172720000Y-36127091D01*
X172094313Y-36251548D01*
X171738594Y-36489231D01*
X171718327Y-36440301D01*
X171539698Y-36261673D01*
X171306309Y-36165000D01*
X170465750Y-36165000D01*
X170307000Y-36323750D01*
X170307000Y-37973000D01*
X170327000Y-37973000D01*
X170327000Y-38227000D01*
X170307000Y-38227000D01*
X170307000Y-39876250D01*
X170465750Y-40035000D01*
X171306309Y-40035000D01*
X171539698Y-39938327D01*
X171585000Y-39893025D01*
X171585000Y-42749867D01*
X170972307Y-43362560D01*
X169280000Y-43362560D01*
X169044683Y-43406838D01*
X168828559Y-43545910D01*
X168683569Y-43758110D01*
X168632560Y-44010000D01*
X160958335Y-44010000D01*
X160853313Y-43755828D01*
X160642829Y-43544976D01*
X160851934Y-43336236D01*
X161064758Y-42823700D01*
X161065242Y-42268735D01*
X160853313Y-41755828D01*
X160461236Y-41363066D01*
X160190372Y-41250593D01*
X163174012Y-41250593D01*
X163315478Y-41553782D01*
X164051955Y-41838737D01*
X164841418Y-41820164D01*
X165484522Y-41553782D01*
X165625988Y-41250593D01*
X164400000Y-40024605D01*
X163174012Y-41250593D01*
X160190372Y-41250593D01*
X159948700Y-41150242D01*
X159393735Y-41149758D01*
X158880828Y-41361687D01*
X158488066Y-41753764D01*
X158406609Y-41949934D01*
X158350742Y-41815059D01*
X158108764Y-41745841D01*
X157309605Y-42545000D01*
X158108764Y-43344159D01*
X158350742Y-43274941D01*
X158402382Y-43130138D01*
X158486687Y-43334172D01*
X158697171Y-43545024D01*
X158488066Y-43753764D01*
X158400046Y-43965738D01*
X158313313Y-43755828D01*
X157921236Y-43363066D01*
X157659976Y-43254581D01*
X157130000Y-42724605D01*
X156600010Y-43254595D01*
X156340828Y-43361687D01*
X155948066Y-43753764D01*
X155735242Y-44266300D01*
X155734758Y-44821265D01*
X155747674Y-44852524D01*
X151862599Y-48737599D01*
X151697852Y-48984161D01*
X151640000Y-49275000D01*
X151640000Y-53337046D01*
X151349946Y-53530853D01*
X151028039Y-54012622D01*
X150915000Y-54580907D01*
X149214000Y-54580907D01*
X149214000Y-48124000D01*
X149156148Y-47833161D01*
X149156148Y-47833160D01*
X148991401Y-47586599D01*
X148733256Y-47328454D01*
X148754750Y-47276691D01*
X148755248Y-46705813D01*
X148537243Y-46178200D01*
X148133923Y-45774176D01*
X148003785Y-45720138D01*
X148131800Y-45667243D01*
X148535824Y-45263923D01*
X148754750Y-44736691D01*
X148755248Y-44165813D01*
X148537243Y-43638200D01*
X148133923Y-43234176D01*
X148003785Y-43180138D01*
X148131800Y-43127243D01*
X148535824Y-42723923D01*
X148696164Y-42337780D01*
X155722845Y-42337780D01*
X155750659Y-42892049D01*
X155909258Y-43274941D01*
X156151236Y-43344159D01*
X156950395Y-42545000D01*
X156151236Y-41745841D01*
X155909258Y-41815059D01*
X155722845Y-42337780D01*
X148696164Y-42337780D01*
X148754750Y-42196691D01*
X148755248Y-41625813D01*
X148600211Y-41250593D01*
X151174012Y-41250593D01*
X151315478Y-41553782D01*
X152051955Y-41838737D01*
X152841418Y-41820164D01*
X153454455Y-41566236D01*
X156330841Y-41566236D01*
X157130000Y-42365395D01*
X157929159Y-41566236D01*
X157859941Y-41324258D01*
X157337220Y-41137845D01*
X156782951Y-41165659D01*
X156400059Y-41324258D01*
X156330841Y-41566236D01*
X153454455Y-41566236D01*
X153484522Y-41553782D01*
X153625988Y-41250593D01*
X152400000Y-40024605D01*
X151174012Y-41250593D01*
X148600211Y-41250593D01*
X148537243Y-41098200D01*
X148133923Y-40694176D01*
X148003785Y-40640138D01*
X148131800Y-40587243D01*
X148535824Y-40183923D01*
X148754750Y-39656691D01*
X148754889Y-39496955D01*
X150406263Y-39496955D01*
X150424836Y-40286418D01*
X150691218Y-40929522D01*
X150994407Y-41070988D01*
X152220395Y-39845000D01*
X152579605Y-39845000D01*
X153805593Y-41070988D01*
X154108782Y-40929522D01*
X154393737Y-40193045D01*
X154377361Y-39496955D01*
X162406263Y-39496955D01*
X162424836Y-40286418D01*
X162691218Y-40929522D01*
X162994407Y-41070988D01*
X164220395Y-39845000D01*
X164579605Y-39845000D01*
X165805593Y-41070988D01*
X166108782Y-40929522D01*
X166393737Y-40193045D01*
X166375164Y-39403582D01*
X166108782Y-38760478D01*
X165805593Y-38619012D01*
X164579605Y-39845000D01*
X164220395Y-39845000D01*
X162994407Y-38619012D01*
X162691218Y-38760478D01*
X162406263Y-39496955D01*
X154377361Y-39496955D01*
X154375164Y-39403582D01*
X154108782Y-38760478D01*
X153805593Y-38619012D01*
X152579605Y-39845000D01*
X152220395Y-39845000D01*
X150994407Y-38619012D01*
X150691218Y-38760478D01*
X150406263Y-39496955D01*
X148754889Y-39496955D01*
X148755248Y-39085813D01*
X148537243Y-38558200D01*
X148418657Y-38439407D01*
X151174012Y-38439407D01*
X152400000Y-39665395D01*
X153625988Y-38439407D01*
X163174012Y-38439407D01*
X164400000Y-39665395D01*
X165625988Y-38439407D01*
X165600952Y-38385750D01*
X168545000Y-38385750D01*
X168545000Y-39526310D01*
X168641673Y-39759699D01*
X168820302Y-39938327D01*
X169053691Y-40035000D01*
X169894250Y-40035000D01*
X170053000Y-39876250D01*
X170053000Y-38227000D01*
X168703750Y-38227000D01*
X168545000Y-38385750D01*
X165600952Y-38385750D01*
X165484522Y-38136218D01*
X164748045Y-37851263D01*
X163958582Y-37869836D01*
X163315478Y-38136218D01*
X163174012Y-38439407D01*
X153625988Y-38439407D01*
X153484522Y-38136218D01*
X152748045Y-37851263D01*
X151958582Y-37869836D01*
X151315478Y-38136218D01*
X151174012Y-38439407D01*
X148418657Y-38439407D01*
X148133923Y-38154176D01*
X148003785Y-38100138D01*
X148131800Y-38047243D01*
X148535824Y-37643923D01*
X148754750Y-37116691D01*
X148755136Y-36673690D01*
X168545000Y-36673690D01*
X168545000Y-37814250D01*
X168703750Y-37973000D01*
X170053000Y-37973000D01*
X170053000Y-36323750D01*
X169894250Y-36165000D01*
X169053691Y-36165000D01*
X168820302Y-36261673D01*
X168641673Y-36440301D01*
X168545000Y-36673690D01*
X148755136Y-36673690D01*
X148755248Y-36545813D01*
X148537243Y-36018200D01*
X148133923Y-35614176D01*
X147606691Y-35395250D01*
X147035813Y-35394752D01*
X146508200Y-35612757D01*
X146104176Y-36016077D01*
X145885250Y-36543309D01*
X145884752Y-37114187D01*
X146102757Y-37641800D01*
X146506077Y-38045824D01*
X146636215Y-38099862D01*
X146508200Y-38152757D01*
X146104176Y-38556077D01*
X146050138Y-38686215D01*
X145997243Y-38558200D01*
X145593923Y-38154176D01*
X145066691Y-37935250D01*
X144495813Y-37934752D01*
X143968200Y-38152757D01*
X143564176Y-38556077D01*
X143345250Y-39083309D01*
X143344752Y-39654187D01*
X143562757Y-40181800D01*
X143966077Y-40585824D01*
X144493309Y-40804750D01*
X145064187Y-40805248D01*
X145591800Y-40587243D01*
X145995824Y-40183923D01*
X146049862Y-40053785D01*
X146102757Y-40181800D01*
X146506077Y-40585824D01*
X146636215Y-40639862D01*
X146508200Y-40692757D01*
X146104176Y-41096077D01*
X145885250Y-41623309D01*
X145884752Y-42194187D01*
X146102757Y-42721800D01*
X146506077Y-43125824D01*
X146636215Y-43179862D01*
X146508200Y-43232757D01*
X146104176Y-43636077D01*
X146050138Y-43766215D01*
X145997243Y-43638200D01*
X145593923Y-43234176D01*
X145066691Y-43015250D01*
X144495813Y-43014752D01*
X143968200Y-43232757D01*
X143564176Y-43636077D01*
X143345250Y-44163309D01*
X143344752Y-44734187D01*
X143438056Y-44960000D01*
X139530900Y-44960000D01*
X139240061Y-45017852D01*
X138993499Y-45182599D01*
X134136098Y-50040000D01*
X133422024Y-50040000D01*
X133514750Y-49816691D01*
X133515248Y-49245813D01*
X133297243Y-48718200D01*
X132893923Y-48314176D01*
X132763785Y-48260138D01*
X132891800Y-48207243D01*
X133295824Y-47803923D01*
X133514750Y-47276691D01*
X133515248Y-46705813D01*
X133297243Y-46178200D01*
X132893923Y-45774176D01*
X132763785Y-45720138D01*
X132891800Y-45667243D01*
X133295824Y-45263923D01*
X133514750Y-44736691D01*
X133515248Y-44165813D01*
X133297243Y-43638200D01*
X132893923Y-43234176D01*
X132763785Y-43180138D01*
X132891800Y-43127243D01*
X133295824Y-42723923D01*
X133514750Y-42196691D01*
X133515248Y-41625813D01*
X133297243Y-41098200D01*
X132893923Y-40694176D01*
X132763785Y-40640138D01*
X132891800Y-40587243D01*
X133295824Y-40183923D01*
X133514750Y-39656691D01*
X133515248Y-39085813D01*
X133297243Y-38558200D01*
X133004554Y-38265000D01*
X133006310Y-38265000D01*
X133239699Y-38168327D01*
X133418327Y-37989698D01*
X133515000Y-37756309D01*
X133515000Y-37115750D01*
X133356250Y-36957000D01*
X132207000Y-36957000D01*
X132207000Y-36977000D01*
X131953000Y-36977000D01*
X131953000Y-36957000D01*
X130803750Y-36957000D01*
X130645000Y-37115750D01*
X130645000Y-37756309D01*
X130741673Y-37989698D01*
X130920301Y-38168327D01*
X131153690Y-38265000D01*
X131155761Y-38265000D01*
X130864176Y-38556077D01*
X130645250Y-39083309D01*
X130644752Y-39654187D01*
X130667049Y-39708149D01*
X127992330Y-42382868D01*
X127980213Y-42379392D01*
X127179605Y-43180000D01*
X127193748Y-43194143D01*
X127014143Y-43373748D01*
X127000000Y-43359605D01*
X126199392Y-44160213D01*
X126268857Y-44402397D01*
X126409318Y-44452509D01*
X126209697Y-44534990D01*
X125816371Y-44927630D01*
X125603243Y-45440900D01*
X125602758Y-45996661D01*
X125814990Y-46510303D01*
X126207630Y-46903629D01*
X126415512Y-46989949D01*
X126209697Y-47074990D01*
X125816371Y-47467630D01*
X125603243Y-47980900D01*
X125602758Y-48536661D01*
X125616143Y-48569055D01*
X122137899Y-52047299D01*
X122011907Y-52235860D01*
X121150000Y-52235860D01*
X121125608Y-52240450D01*
X121125662Y-52177933D01*
X120983617Y-51834157D01*
X120720827Y-51570908D01*
X120377299Y-51428262D01*
X120005333Y-51427938D01*
X119661557Y-51569983D01*
X119404062Y-51827029D01*
X119259161Y-51855852D01*
X119012599Y-52020599D01*
X118857085Y-52253343D01*
X118714683Y-52280138D01*
X118498559Y-52419210D01*
X118353569Y-52631410D01*
X118302560Y-52883300D01*
X118302560Y-53348600D01*
X115377440Y-53348600D01*
X115377440Y-52883300D01*
X115333162Y-52647983D01*
X115194090Y-52431859D01*
X114981890Y-52286869D01*
X114730000Y-52235860D01*
X113530000Y-52235860D01*
X113294683Y-52280138D01*
X113078559Y-52419210D01*
X113030866Y-52489011D01*
X112994090Y-52431859D01*
X112781890Y-52286869D01*
X112530000Y-52235860D01*
X111330000Y-52235860D01*
X111094683Y-52280138D01*
X110878559Y-52419210D01*
X110768696Y-52580000D01*
X107877531Y-52580000D01*
X107865010Y-52549697D01*
X107472370Y-52156371D01*
X107264488Y-52070051D01*
X107470303Y-51985010D01*
X107863629Y-51592370D01*
X107877070Y-51560000D01*
X107956600Y-51560000D01*
X108247439Y-51502148D01*
X108494001Y-51337401D01*
X115498102Y-44333300D01*
X120742560Y-44333300D01*
X120742560Y-45333300D01*
X120786838Y-45568617D01*
X120925910Y-45784741D01*
X121138110Y-45929731D01*
X121390000Y-45980740D01*
X122840000Y-45980740D01*
X123075317Y-45936462D01*
X123291441Y-45797390D01*
X123436431Y-45585190D01*
X123487440Y-45333300D01*
X123487440Y-44333300D01*
X123467550Y-44227595D01*
X123475000Y-44209610D01*
X123475000Y-43619050D01*
X123316250Y-43460300D01*
X122567000Y-43460300D01*
X122567000Y-43480300D01*
X122313000Y-43480300D01*
X122313000Y-43460300D01*
X121563750Y-43460300D01*
X121405000Y-43619050D01*
X121405000Y-43685860D01*
X121390000Y-43685860D01*
X121154683Y-43730138D01*
X120938559Y-43869210D01*
X120793569Y-44081410D01*
X120742560Y-44333300D01*
X115498102Y-44333300D01*
X117374412Y-42456990D01*
X121405000Y-42456990D01*
X121405000Y-43047550D01*
X121563750Y-43206300D01*
X122313000Y-43206300D01*
X122313000Y-42107050D01*
X122567000Y-42107050D01*
X122567000Y-43206300D01*
X123316250Y-43206300D01*
X123475000Y-43047550D01*
X123475000Y-42972302D01*
X125590856Y-42972302D01*
X125618638Y-43527368D01*
X125777603Y-43911143D01*
X126019787Y-43980608D01*
X126820395Y-43180000D01*
X126019787Y-42379392D01*
X125777603Y-42448857D01*
X125590856Y-42972302D01*
X123475000Y-42972302D01*
X123475000Y-42456990D01*
X123378327Y-42223601D01*
X123354513Y-42199787D01*
X126199392Y-42199787D01*
X127000000Y-43000395D01*
X127800608Y-42199787D01*
X127731143Y-41957603D01*
X127207698Y-41770856D01*
X126652632Y-41798638D01*
X126268857Y-41957603D01*
X126199392Y-42199787D01*
X123354513Y-42199787D01*
X123199698Y-42044973D01*
X122966309Y-41948300D01*
X122725750Y-41948300D01*
X122567000Y-42107050D01*
X122313000Y-42107050D01*
X122154250Y-41948300D01*
X121913691Y-41948300D01*
X121680302Y-42044973D01*
X121501673Y-42223601D01*
X121405000Y-42456990D01*
X117374412Y-42456990D01*
X118227401Y-41604001D01*
X118392148Y-41357440D01*
X118450000Y-41066600D01*
X118450000Y-37118300D01*
X118504250Y-37118300D01*
X118663000Y-36959550D01*
X118663000Y-36603988D01*
X118687440Y-36483300D01*
X118687440Y-35461300D01*
X118892560Y-35461300D01*
X118892560Y-36483300D01*
X118917000Y-36613187D01*
X118917000Y-36959550D01*
X119075750Y-37118300D01*
X119157806Y-37118300D01*
X119157738Y-37196667D01*
X119299783Y-37540443D01*
X119562573Y-37803692D01*
X119906101Y-37946338D01*
X120278067Y-37946662D01*
X120621843Y-37804617D01*
X120885092Y-37541827D01*
X121027738Y-37198299D01*
X121027797Y-37130740D01*
X121340000Y-37130740D01*
X121411324Y-37117319D01*
X121413691Y-37118300D01*
X121904250Y-37118300D01*
X122063000Y-36959550D01*
X122063000Y-35860300D01*
X122317000Y-35860300D01*
X122317000Y-36959550D01*
X122475750Y-37118300D01*
X122966309Y-37118300D01*
X123199698Y-37021627D01*
X123378327Y-36842999D01*
X123475000Y-36609610D01*
X123475000Y-36019050D01*
X123359641Y-35903691D01*
X130645000Y-35903691D01*
X130645000Y-36544250D01*
X130803750Y-36703000D01*
X131953000Y-36703000D01*
X131953000Y-35553750D01*
X132207000Y-35553750D01*
X132207000Y-36703000D01*
X133356250Y-36703000D01*
X133515000Y-36544250D01*
X133515000Y-35903691D01*
X133418327Y-35670302D01*
X133239699Y-35491673D01*
X133006310Y-35395000D01*
X132365750Y-35395000D01*
X132207000Y-35553750D01*
X131953000Y-35553750D01*
X131794250Y-35395000D01*
X131153690Y-35395000D01*
X130920301Y-35491673D01*
X130741673Y-35670302D01*
X130645000Y-35903691D01*
X123359641Y-35903691D01*
X123316250Y-35860300D01*
X122317000Y-35860300D01*
X122063000Y-35860300D01*
X122043000Y-35860300D01*
X122043000Y-35606300D01*
X122063000Y-35606300D01*
X122063000Y-35586300D01*
X122317000Y-35586300D01*
X122317000Y-35606300D01*
X123316250Y-35606300D01*
X123475000Y-35447550D01*
X123475000Y-35000000D01*
X178323803Y-35000000D01*
X178283628Y-35016600D01*
G36*
X117479198Y-58105000D02*
X117125750Y-58105000D01*
X116967000Y-58263750D01*
X116967000Y-59613000D01*
X116987000Y-59613000D01*
X116987000Y-59867000D01*
X116967000Y-59867000D01*
X116967000Y-59887000D01*
X116713000Y-59887000D01*
X116713000Y-59867000D01*
X116693000Y-59867000D01*
X116693000Y-59613000D01*
X116713000Y-59613000D01*
X116713000Y-58263750D01*
X116554250Y-58105000D01*
X115963690Y-58105000D01*
X115730301Y-58201673D01*
X115688340Y-58243634D01*
X115541890Y-58143569D01*
X115300000Y-58094585D01*
X115300000Y-54868600D01*
X120715598Y-54868600D01*
X117479198Y-58105000D01*
X117479198Y-58105000D01*
G37*
X117479198Y-58105000D02*
X117125750Y-58105000D01*
X116967000Y-58263750D01*
X116967000Y-59613000D01*
X116987000Y-59613000D01*
X116987000Y-59867000D01*
X116967000Y-59867000D01*
X116967000Y-59887000D01*
X116713000Y-59887000D01*
X116713000Y-59867000D01*
X116693000Y-59867000D01*
X116693000Y-59613000D01*
X116713000Y-59613000D01*
X116713000Y-58263750D01*
X116554250Y-58105000D01*
X115963690Y-58105000D01*
X115730301Y-58201673D01*
X115688340Y-58243634D01*
X115541890Y-58143569D01*
X115300000Y-58094585D01*
X115300000Y-54868600D01*
X120715598Y-54868600D01*
X117479198Y-58105000D01*
M02*
