M48
;DRILL file {KiCad 4.0.7-e2-6376~58~ubuntu16.04.1} date Mon Jun 11 11:02:27 2018
;FORMAT={-:-/ absolute / metric / decimal}
FMAT,2
METRIC,TZ
T1C0.762
T2C0.800
T3C0.810
T4C0.900
T5C0.990
T6C1.000
T7C1.100
T8C1.200
T9C1.300
T10C2.300
T11C3.000
%
G90
G05
M71
T1
X106.68Y-43.18
X106.68Y-45.72
X106.68Y-48.26
X106.68Y-50.8
X106.68Y-53.34
X106.68Y-55.88
X127.Y-43.18
X127.Y-45.72
X127.Y-48.26
X127.Y-50.8
X127.Y-53.34
X127.Y-55.88
T2
X165.1Y-55.92
X165.1Y-58.42
X176.57Y-48.26
X179.07Y-48.26
T3
X157.13Y-42.545
X157.13Y-44.545
X159.67Y-42.545
X159.67Y-44.545
T4
X114.3Y-97.79
X115.57Y-95.25
X116.84Y-97.79
X118.11Y-95.25
X119.38Y-97.79
X120.65Y-95.25
X121.92Y-97.79
X123.19Y-95.25
X132.08Y-97.79
X133.35Y-95.25
X134.62Y-97.79
X135.89Y-95.25
X137.16Y-97.79
X138.43Y-95.25
X139.7Y-97.79
X140.97Y-95.25
T5
X182.145Y-62.83
X182.145Y-67.33
X182.145Y-72.99
X182.145Y-77.49
X182.145Y-83.15
X182.145Y-87.65
X182.245Y-93.29
X182.245Y-97.79
T6
X152.4Y-54.61
X154.94Y-54.61
X157.48Y-54.61
X160.64Y-67.94
X160.64Y-70.44
X160.64Y-72.94
X160.64Y-89.62
X160.64Y-92.12
X160.64Y-94.62
T7
X132.08Y-36.83
X132.08Y-39.37
X132.08Y-41.91
X132.08Y-44.45
X132.08Y-46.99
X132.08Y-49.53
X132.08Y-52.07
X132.08Y-54.61
X132.08Y-57.15
X132.08Y-59.69
X132.08Y-62.23
X132.08Y-64.77
X132.08Y-67.31
X132.08Y-69.85
X134.62Y-69.85
X137.16Y-69.85
X139.7Y-52.07
X139.7Y-54.61
X139.7Y-57.15
X139.7Y-59.69
X139.7Y-62.23
X139.7Y-64.77
X139.7Y-67.31
X139.7Y-69.85
X142.24Y-52.07
X142.24Y-54.61
X142.24Y-57.15
X142.24Y-59.69
X142.24Y-62.23
X142.24Y-64.77
X142.24Y-67.31
X142.24Y-69.85
X144.78Y-39.37
X144.78Y-44.45
X144.78Y-46.99
X144.78Y-49.53
X144.78Y-69.85
X147.32Y-36.83
X147.32Y-39.37
X147.32Y-41.91
X147.32Y-44.45
X147.32Y-46.99
X147.32Y-49.53
X147.32Y-52.07
X147.32Y-54.61
X147.32Y-57.15
X147.32Y-59.69
X147.32Y-62.23
X147.32Y-64.77
X147.32Y-67.31
X147.32Y-69.85
T8
X104.14Y-64.77
X104.14Y-67.31
X104.14Y-69.85
X104.14Y-72.39
X104.14Y-77.47
X104.14Y-80.01
X104.14Y-82.55
X104.14Y-85.09
X104.14Y-89.92
X104.14Y-92.46
X104.14Y-95.
X104.14Y-97.54
X135.89Y-79.375
X138.43Y-79.375
X140.97Y-79.375
X143.51Y-79.375
X147.32Y-104.14
X149.86Y-104.14
X152.4Y-67.31
X152.4Y-104.14
X154.94Y-67.31
X154.94Y-104.14
X170.18Y-38.1
X172.72Y-38.1
T9
X179.655Y-61.58
X179.655Y-68.59
X179.655Y-71.74
X179.655Y-78.75
X179.655Y-81.9
X179.655Y-88.91
X179.755Y-92.04
X179.755Y-99.05
T10
X152.4Y-39.845
X164.4Y-39.845
T11
X104.14Y-38.1
X104.14Y-104.14
X180.34Y-38.1
X180.34Y-104.14
T0
M30
