G04 #@! TF.FileFunction,Legend,Top*
%FSLAX46Y46*%
G04 Gerber Fmt 4.6, Leading zero omitted, Abs format (unit mm)*
G04 Created by KiCad (PCBNEW 4.0.7-e2-6376~58~ubuntu16.04.1) date Tue May  1 20:05:14 2018*
%MOMM*%
%LPD*%
G01*
G04 APERTURE LIST*
%ADD10C,0.100000*%
%ADD11C,0.375000*%
%ADD12C,0.200000*%
%ADD13C,0.300000*%
%ADD14C,0.120000*%
%ADD15C,0.350000*%
%ADD16C,0.150000*%
%ADD17C,0.203200*%
%ADD18C,0.076200*%
%ADD19C,0.050800*%
G04 APERTURE END LIST*
D10*
D11*
X169255714Y-107358571D02*
X169255714Y-105858571D01*
X169827142Y-105858571D01*
X169970000Y-105930000D01*
X170041428Y-106001429D01*
X170112857Y-106144286D01*
X170112857Y-106358571D01*
X170041428Y-106501429D01*
X169970000Y-106572857D01*
X169827142Y-106644286D01*
X169255714Y-106644286D01*
X171041428Y-105858571D02*
X171327142Y-105858571D01*
X171470000Y-105930000D01*
X171612857Y-106072857D01*
X171684285Y-106358571D01*
X171684285Y-106858571D01*
X171612857Y-107144286D01*
X171470000Y-107287143D01*
X171327142Y-107358571D01*
X171041428Y-107358571D01*
X170898571Y-107287143D01*
X170755714Y-107144286D01*
X170684285Y-106858571D01*
X170684285Y-106358571D01*
X170755714Y-106072857D01*
X170898571Y-105930000D01*
X171041428Y-105858571D01*
X172184286Y-105858571D02*
X172541429Y-107358571D01*
X172827143Y-106287143D01*
X173112857Y-107358571D01*
X173470000Y-105858571D01*
X174041429Y-106572857D02*
X174541429Y-106572857D01*
X174755715Y-107358571D02*
X174041429Y-107358571D01*
X174041429Y-105858571D01*
X174755715Y-105858571D01*
X176255715Y-107358571D02*
X175755715Y-106644286D01*
X175398572Y-107358571D02*
X175398572Y-105858571D01*
X175970000Y-105858571D01*
X176112858Y-105930000D01*
X176184286Y-106001429D01*
X176255715Y-106144286D01*
X176255715Y-106358571D01*
X176184286Y-106501429D01*
X176112858Y-106572857D01*
X175970000Y-106644286D01*
X175398572Y-106644286D01*
D12*
X108940715Y-97190000D02*
X108826429Y-97132857D01*
X108655000Y-97132857D01*
X108483572Y-97190000D01*
X108369286Y-97304286D01*
X108312143Y-97418571D01*
X108255000Y-97647143D01*
X108255000Y-97818571D01*
X108312143Y-98047143D01*
X108369286Y-98161429D01*
X108483572Y-98275714D01*
X108655000Y-98332857D01*
X108769286Y-98332857D01*
X108940715Y-98275714D01*
X108997858Y-98218571D01*
X108997858Y-97818571D01*
X108769286Y-97818571D01*
X109512143Y-98332857D02*
X109512143Y-97132857D01*
X110197858Y-98332857D01*
X110197858Y-97132857D01*
X110769286Y-98332857D02*
X110769286Y-97132857D01*
X111055001Y-97132857D01*
X111226429Y-97190000D01*
X111340715Y-97304286D01*
X111397858Y-97418571D01*
X111455001Y-97647143D01*
X111455001Y-97818571D01*
X111397858Y-98047143D01*
X111340715Y-98161429D01*
X111226429Y-98275714D01*
X111055001Y-98332857D01*
X110769286Y-98332857D01*
X108369286Y-94592857D02*
X109055000Y-94592857D01*
X108712143Y-95792857D02*
X108712143Y-94592857D01*
X109340715Y-94592857D02*
X110140715Y-95792857D01*
X110140715Y-94592857D02*
X109340715Y-95792857D01*
X110483572Y-94592857D02*
X111226429Y-94592857D01*
X110826429Y-95050000D01*
X110997857Y-95050000D01*
X111112143Y-95107143D01*
X111169286Y-95164286D01*
X111226429Y-95278571D01*
X111226429Y-95564286D01*
X111169286Y-95678571D01*
X111112143Y-95735714D01*
X110997857Y-95792857D01*
X110655000Y-95792857D01*
X110540714Y-95735714D01*
X110483572Y-95678571D01*
X109083572Y-93252857D02*
X108683572Y-92681429D01*
X108397857Y-93252857D02*
X108397857Y-92052857D01*
X108855000Y-92052857D01*
X108969286Y-92110000D01*
X109026429Y-92167143D01*
X109083572Y-92281429D01*
X109083572Y-92452857D01*
X109026429Y-92567143D01*
X108969286Y-92624286D01*
X108855000Y-92681429D01*
X108397857Y-92681429D01*
X109483572Y-92052857D02*
X110283572Y-93252857D01*
X110283572Y-92052857D02*
X109483572Y-93252857D01*
X110626429Y-92052857D02*
X111369286Y-92052857D01*
X110969286Y-92510000D01*
X111140714Y-92510000D01*
X111255000Y-92567143D01*
X111312143Y-92624286D01*
X111369286Y-92738571D01*
X111369286Y-93024286D01*
X111312143Y-93138571D01*
X111255000Y-93195714D01*
X111140714Y-93252857D01*
X110797857Y-93252857D01*
X110683571Y-93195714D01*
X110626429Y-93138571D01*
X108255001Y-89512857D02*
X108655001Y-90712857D01*
X109055001Y-89512857D01*
X110140715Y-90598571D02*
X110083572Y-90655714D01*
X109912143Y-90712857D01*
X109797857Y-90712857D01*
X109626429Y-90655714D01*
X109512143Y-90541429D01*
X109455000Y-90427143D01*
X109397857Y-90198571D01*
X109397857Y-90027143D01*
X109455000Y-89798571D01*
X109512143Y-89684286D01*
X109626429Y-89570000D01*
X109797857Y-89512857D01*
X109912143Y-89512857D01*
X110083572Y-89570000D01*
X110140715Y-89627143D01*
X111340715Y-90598571D02*
X111283572Y-90655714D01*
X111112143Y-90712857D01*
X110997857Y-90712857D01*
X110826429Y-90655714D01*
X110712143Y-90541429D01*
X110655000Y-90427143D01*
X110597857Y-90198571D01*
X110597857Y-90027143D01*
X110655000Y-89798571D01*
X110712143Y-89684286D01*
X110826429Y-89570000D01*
X110997857Y-89512857D01*
X111112143Y-89512857D01*
X111283572Y-89570000D01*
X111340715Y-89627143D01*
D13*
X158158571Y-95169285D02*
X158158571Y-95883571D01*
X156658571Y-95883571D01*
X157372857Y-94669285D02*
X157372857Y-94169285D01*
X158158571Y-93954999D02*
X158158571Y-94669285D01*
X156658571Y-94669285D01*
X156658571Y-93954999D01*
X158158571Y-93312142D02*
X156658571Y-93312142D01*
X156658571Y-92954999D01*
X156730000Y-92740714D01*
X156872857Y-92597856D01*
X157015714Y-92526428D01*
X157301429Y-92454999D01*
X157515714Y-92454999D01*
X157801429Y-92526428D01*
X157944286Y-92597856D01*
X158087143Y-92740714D01*
X158158571Y-92954999D01*
X158158571Y-93312142D01*
X158158571Y-90954999D02*
X157444286Y-91454999D01*
X158158571Y-91812142D02*
X156658571Y-91812142D01*
X156658571Y-91240714D01*
X156730000Y-91097856D01*
X156801429Y-91026428D01*
X156944286Y-90954999D01*
X157158571Y-90954999D01*
X157301429Y-91026428D01*
X157372857Y-91097856D01*
X157444286Y-91240714D01*
X157444286Y-91812142D01*
X158158571Y-90312142D02*
X156658571Y-90312142D01*
X156658571Y-89812142D02*
X158158571Y-89312142D01*
X156658571Y-88812142D01*
X157372857Y-88312142D02*
X157372857Y-87812142D01*
X158158571Y-87597856D02*
X158158571Y-88312142D01*
X156658571Y-88312142D01*
X156658571Y-87597856D01*
X158158571Y-86097856D02*
X157444286Y-86597856D01*
X158158571Y-86954999D02*
X156658571Y-86954999D01*
X156658571Y-86383571D01*
X156730000Y-86240713D01*
X156801429Y-86169285D01*
X156944286Y-86097856D01*
X157158571Y-86097856D01*
X157301429Y-86169285D01*
X157372857Y-86240713D01*
X157444286Y-86383571D01*
X157444286Y-86954999D01*
X158301429Y-85812142D02*
X158301429Y-84669285D01*
X157158571Y-84312142D02*
X158658571Y-84312142D01*
X157230000Y-84312142D02*
X157158571Y-84169285D01*
X157158571Y-83883571D01*
X157230000Y-83740714D01*
X157301429Y-83669285D01*
X157444286Y-83597856D01*
X157872857Y-83597856D01*
X158015714Y-83669285D01*
X158087143Y-83740714D01*
X158158571Y-83883571D01*
X158158571Y-84169285D01*
X158087143Y-84312142D01*
X158158571Y-82954999D02*
X157158571Y-82954999D01*
X157444286Y-82954999D02*
X157301429Y-82883571D01*
X157230000Y-82812142D01*
X157158571Y-82669285D01*
X157158571Y-82526428D01*
X158158571Y-81812142D02*
X158087143Y-81955000D01*
X158015714Y-82026428D01*
X157872857Y-82097857D01*
X157444286Y-82097857D01*
X157301429Y-82026428D01*
X157230000Y-81955000D01*
X157158571Y-81812142D01*
X157158571Y-81597857D01*
X157230000Y-81455000D01*
X157301429Y-81383571D01*
X157444286Y-81312142D01*
X157872857Y-81312142D01*
X158015714Y-81383571D01*
X158087143Y-81455000D01*
X158158571Y-81597857D01*
X158158571Y-81812142D01*
X157158571Y-80883571D02*
X157158571Y-80312142D01*
X156658571Y-80669285D02*
X157944286Y-80669285D01*
X158087143Y-80597857D01*
X158158571Y-80454999D01*
X158158571Y-80312142D01*
X158158571Y-79597856D02*
X158087143Y-79740714D01*
X158015714Y-79812142D01*
X157872857Y-79883571D01*
X157444286Y-79883571D01*
X157301429Y-79812142D01*
X157230000Y-79740714D01*
X157158571Y-79597856D01*
X157158571Y-79383571D01*
X157230000Y-79240714D01*
X157301429Y-79169285D01*
X157444286Y-79097856D01*
X157872857Y-79097856D01*
X158015714Y-79169285D01*
X158087143Y-79240714D01*
X158158571Y-79383571D01*
X158158571Y-79597856D01*
X158301429Y-78812142D02*
X158301429Y-77669285D01*
X156658571Y-77026428D02*
X156658571Y-76883571D01*
X156730000Y-76740714D01*
X156801429Y-76669285D01*
X156944286Y-76597856D01*
X157230000Y-76526428D01*
X157587143Y-76526428D01*
X157872857Y-76597856D01*
X158015714Y-76669285D01*
X158087143Y-76740714D01*
X158158571Y-76883571D01*
X158158571Y-77026428D01*
X158087143Y-77169285D01*
X158015714Y-77240714D01*
X157872857Y-77312142D01*
X157587143Y-77383571D01*
X157230000Y-77383571D01*
X156944286Y-77312142D01*
X156801429Y-77240714D01*
X156730000Y-77169285D01*
X156658571Y-77026428D01*
X158015714Y-75883571D02*
X158087143Y-75812143D01*
X158158571Y-75883571D01*
X158087143Y-75955000D01*
X158015714Y-75883571D01*
X158158571Y-75883571D01*
X156658571Y-74883571D02*
X156658571Y-74740714D01*
X156730000Y-74597857D01*
X156801429Y-74526428D01*
X156944286Y-74454999D01*
X157230000Y-74383571D01*
X157587143Y-74383571D01*
X157872857Y-74454999D01*
X158015714Y-74526428D01*
X158087143Y-74597857D01*
X158158571Y-74740714D01*
X158158571Y-74883571D01*
X158087143Y-75026428D01*
X158015714Y-75097857D01*
X157872857Y-75169285D01*
X157587143Y-75240714D01*
X157230000Y-75240714D01*
X156944286Y-75169285D01*
X156801429Y-75097857D01*
X156730000Y-75026428D01*
X156658571Y-74883571D01*
X156658571Y-73883571D02*
X156658571Y-72955000D01*
X157230000Y-73455000D01*
X157230000Y-73240714D01*
X157301429Y-73097857D01*
X157372857Y-73026428D01*
X157515714Y-72955000D01*
X157872857Y-72955000D01*
X158015714Y-73026428D01*
X158087143Y-73097857D01*
X158158571Y-73240714D01*
X158158571Y-73669286D01*
X158087143Y-73812143D01*
X158015714Y-73883571D01*
X166433572Y-38207143D02*
X167576429Y-38207143D01*
X175323572Y-38207143D02*
X176466429Y-38207143D01*
X175895000Y-38778571D02*
X175895000Y-37635714D01*
D12*
X143995714Y-86547143D02*
X144052857Y-86375714D01*
X144052857Y-86090000D01*
X143995714Y-85975714D01*
X143938571Y-85918571D01*
X143824286Y-85861428D01*
X143710000Y-85861428D01*
X143595714Y-85918571D01*
X143538571Y-85975714D01*
X143481429Y-86090000D01*
X143424286Y-86318571D01*
X143367143Y-86432857D01*
X143310000Y-86490000D01*
X143195714Y-86547143D01*
X143081429Y-86547143D01*
X142967143Y-86490000D01*
X142910000Y-86432857D01*
X142852857Y-86318571D01*
X142852857Y-86032857D01*
X142910000Y-85861428D01*
X144052857Y-85347143D02*
X142852857Y-85347143D01*
X142852857Y-85061428D01*
X142910000Y-84890000D01*
X143024286Y-84775714D01*
X143138571Y-84718571D01*
X143367143Y-84661428D01*
X143538571Y-84661428D01*
X143767143Y-84718571D01*
X143881429Y-84775714D01*
X143995714Y-84890000D01*
X144052857Y-85061428D01*
X144052857Y-85347143D01*
X143710000Y-84204286D02*
X143710000Y-83632857D01*
X144052857Y-84318571D02*
X142852857Y-83918571D01*
X144052857Y-83518571D01*
X141455714Y-86518572D02*
X141512857Y-86347143D01*
X141512857Y-86061429D01*
X141455714Y-85947143D01*
X141398571Y-85890000D01*
X141284286Y-85832857D01*
X141170000Y-85832857D01*
X141055714Y-85890000D01*
X140998571Y-85947143D01*
X140941429Y-86061429D01*
X140884286Y-86290000D01*
X140827143Y-86404286D01*
X140770000Y-86461429D01*
X140655714Y-86518572D01*
X140541429Y-86518572D01*
X140427143Y-86461429D01*
X140370000Y-86404286D01*
X140312857Y-86290000D01*
X140312857Y-86004286D01*
X140370000Y-85832857D01*
X141512857Y-85318572D02*
X140312857Y-85318572D01*
X140312857Y-85032857D01*
X140370000Y-84861429D01*
X140484286Y-84747143D01*
X140598571Y-84690000D01*
X140827143Y-84632857D01*
X140998571Y-84632857D01*
X141227143Y-84690000D01*
X141341429Y-84747143D01*
X141455714Y-84861429D01*
X141512857Y-85032857D01*
X141512857Y-85318572D01*
X141512857Y-83547143D02*
X141512857Y-84118572D01*
X140312857Y-84118572D01*
X137830000Y-86004285D02*
X137772857Y-86118571D01*
X137772857Y-86290000D01*
X137830000Y-86461428D01*
X137944286Y-86575714D01*
X138058571Y-86632857D01*
X138287143Y-86690000D01*
X138458571Y-86690000D01*
X138687143Y-86632857D01*
X138801429Y-86575714D01*
X138915714Y-86461428D01*
X138972857Y-86290000D01*
X138972857Y-86175714D01*
X138915714Y-86004285D01*
X138858571Y-85947142D01*
X138458571Y-85947142D01*
X138458571Y-86175714D01*
X138972857Y-85432857D02*
X137772857Y-85432857D01*
X138972857Y-84747142D01*
X137772857Y-84747142D01*
X138972857Y-84175714D02*
X137772857Y-84175714D01*
X137772857Y-83889999D01*
X137830000Y-83718571D01*
X137944286Y-83604285D01*
X138058571Y-83547142D01*
X138287143Y-83489999D01*
X138458571Y-83489999D01*
X138687143Y-83547142D01*
X138801429Y-83604285D01*
X138915714Y-83718571D01*
X138972857Y-83889999D01*
X138972857Y-84175714D01*
X135232857Y-86689999D02*
X136432857Y-86289999D01*
X135232857Y-85889999D01*
X136318571Y-84804285D02*
X136375714Y-84861428D01*
X136432857Y-85032857D01*
X136432857Y-85147143D01*
X136375714Y-85318571D01*
X136261429Y-85432857D01*
X136147143Y-85490000D01*
X135918571Y-85547143D01*
X135747143Y-85547143D01*
X135518571Y-85490000D01*
X135404286Y-85432857D01*
X135290000Y-85318571D01*
X135232857Y-85147143D01*
X135232857Y-85032857D01*
X135290000Y-84861428D01*
X135347143Y-84804285D01*
X136318571Y-83604285D02*
X136375714Y-83661428D01*
X136432857Y-83832857D01*
X136432857Y-83947143D01*
X136375714Y-84118571D01*
X136261429Y-84232857D01*
X136147143Y-84290000D01*
X135918571Y-84347143D01*
X135747143Y-84347143D01*
X135518571Y-84290000D01*
X135404286Y-84232857D01*
X135290000Y-84118571D01*
X135232857Y-83947143D01*
X135232857Y-83832857D01*
X135290000Y-83661428D01*
X135347143Y-83604285D01*
X152942857Y-99945714D02*
X151742857Y-99945714D01*
X151742857Y-99659999D01*
X151800000Y-99488571D01*
X151914286Y-99374285D01*
X152028571Y-99317142D01*
X152257143Y-99259999D01*
X152428571Y-99259999D01*
X152657143Y-99317142D01*
X152771429Y-99374285D01*
X152885714Y-99488571D01*
X152942857Y-99659999D01*
X152942857Y-99945714D01*
X152942857Y-98117142D02*
X152942857Y-98802857D01*
X152942857Y-98459999D02*
X151742857Y-98459999D01*
X151914286Y-98574285D01*
X152028571Y-98688571D01*
X152085714Y-98802857D01*
X147748571Y-98862857D02*
X147805714Y-98920000D01*
X147862857Y-99091429D01*
X147862857Y-99205715D01*
X147805714Y-99377143D01*
X147691429Y-99491429D01*
X147577143Y-99548572D01*
X147348571Y-99605715D01*
X147177143Y-99605715D01*
X146948571Y-99548572D01*
X146834286Y-99491429D01*
X146720000Y-99377143D01*
X146662857Y-99205715D01*
X146662857Y-99091429D01*
X146720000Y-98920000D01*
X146777143Y-98862857D01*
X147862857Y-97777143D02*
X147862857Y-98348572D01*
X146662857Y-98348572D01*
X147862857Y-97377143D02*
X146662857Y-97377143D01*
X147862857Y-96691428D02*
X147177143Y-97205714D01*
X146662857Y-96691428D02*
X147348571Y-97377143D01*
X147862857Y-95262857D02*
X146662857Y-95262857D01*
X146662857Y-94977142D01*
X146720000Y-94805714D01*
X146834286Y-94691428D01*
X146948571Y-94634285D01*
X147177143Y-94577142D01*
X147348571Y-94577142D01*
X147577143Y-94634285D01*
X147691429Y-94691428D01*
X147805714Y-94805714D01*
X147862857Y-94977142D01*
X147862857Y-95262857D01*
X146777143Y-94120000D02*
X146720000Y-94062857D01*
X146662857Y-93948571D01*
X146662857Y-93662857D01*
X146720000Y-93548571D01*
X146777143Y-93491428D01*
X146891429Y-93434285D01*
X147005714Y-93434285D01*
X147177143Y-93491428D01*
X147862857Y-94177142D01*
X147862857Y-93434285D01*
X154340000Y-98704285D02*
X154282857Y-98818571D01*
X154282857Y-98990000D01*
X154340000Y-99161428D01*
X154454286Y-99275714D01*
X154568571Y-99332857D01*
X154797143Y-99390000D01*
X154968571Y-99390000D01*
X155197143Y-99332857D01*
X155311429Y-99275714D01*
X155425714Y-99161428D01*
X155482857Y-98990000D01*
X155482857Y-98875714D01*
X155425714Y-98704285D01*
X155368571Y-98647142D01*
X154968571Y-98647142D01*
X154968571Y-98875714D01*
X155482857Y-98132857D02*
X154282857Y-98132857D01*
X155482857Y-97447142D01*
X154282857Y-97447142D01*
X155482857Y-96875714D02*
X154282857Y-96875714D01*
X154282857Y-96589999D01*
X154340000Y-96418571D01*
X154454286Y-96304285D01*
X154568571Y-96247142D01*
X154797143Y-96189999D01*
X154968571Y-96189999D01*
X155197143Y-96247142D01*
X155311429Y-96304285D01*
X155425714Y-96418571D01*
X155482857Y-96589999D01*
X155482857Y-96875714D01*
X149202857Y-99389999D02*
X150402857Y-98989999D01*
X149202857Y-98589999D01*
X150288571Y-97504285D02*
X150345714Y-97561428D01*
X150402857Y-97732857D01*
X150402857Y-97847143D01*
X150345714Y-98018571D01*
X150231429Y-98132857D01*
X150117143Y-98190000D01*
X149888571Y-98247143D01*
X149717143Y-98247143D01*
X149488571Y-98190000D01*
X149374286Y-98132857D01*
X149260000Y-98018571D01*
X149202857Y-97847143D01*
X149202857Y-97732857D01*
X149260000Y-97561428D01*
X149317143Y-97504285D01*
X150288571Y-96304285D02*
X150345714Y-96361428D01*
X150402857Y-96532857D01*
X150402857Y-96647143D01*
X150345714Y-96818571D01*
X150231429Y-96932857D01*
X150117143Y-96990000D01*
X149888571Y-97047143D01*
X149717143Y-97047143D01*
X149488571Y-96990000D01*
X149374286Y-96932857D01*
X149260000Y-96818571D01*
X149202857Y-96647143D01*
X149202857Y-96532857D01*
X149260000Y-96361428D01*
X149317143Y-96304285D01*
X109083572Y-80552857D02*
X108683572Y-79981429D01*
X108397857Y-80552857D02*
X108397857Y-79352857D01*
X108855000Y-79352857D01*
X108969286Y-79410000D01*
X109026429Y-79467143D01*
X109083572Y-79581429D01*
X109083572Y-79752857D01*
X109026429Y-79867143D01*
X108969286Y-79924286D01*
X108855000Y-79981429D01*
X108397857Y-79981429D01*
X109483572Y-79352857D02*
X110283572Y-80552857D01*
X110283572Y-79352857D02*
X109483572Y-80552857D01*
X110683571Y-79467143D02*
X110740714Y-79410000D01*
X110855000Y-79352857D01*
X111140714Y-79352857D01*
X111255000Y-79410000D01*
X111312143Y-79467143D01*
X111369286Y-79581429D01*
X111369286Y-79695714D01*
X111312143Y-79867143D01*
X110626429Y-80552857D01*
X111369286Y-80552857D01*
X108255001Y-76812857D02*
X108655001Y-78012857D01*
X109055001Y-76812857D01*
X110140715Y-77898571D02*
X110083572Y-77955714D01*
X109912143Y-78012857D01*
X109797857Y-78012857D01*
X109626429Y-77955714D01*
X109512143Y-77841429D01*
X109455000Y-77727143D01*
X109397857Y-77498571D01*
X109397857Y-77327143D01*
X109455000Y-77098571D01*
X109512143Y-76984286D01*
X109626429Y-76870000D01*
X109797857Y-76812857D01*
X109912143Y-76812857D01*
X110083572Y-76870000D01*
X110140715Y-76927143D01*
X111340715Y-77898571D02*
X111283572Y-77955714D01*
X111112143Y-78012857D01*
X110997857Y-78012857D01*
X110826429Y-77955714D01*
X110712143Y-77841429D01*
X110655000Y-77727143D01*
X110597857Y-77498571D01*
X110597857Y-77327143D01*
X110655000Y-77098571D01*
X110712143Y-76984286D01*
X110826429Y-76870000D01*
X110997857Y-76812857D01*
X111112143Y-76812857D01*
X111283572Y-76870000D01*
X111340715Y-76927143D01*
X108940715Y-84490000D02*
X108826429Y-84432857D01*
X108655000Y-84432857D01*
X108483572Y-84490000D01*
X108369286Y-84604286D01*
X108312143Y-84718571D01*
X108255000Y-84947143D01*
X108255000Y-85118571D01*
X108312143Y-85347143D01*
X108369286Y-85461429D01*
X108483572Y-85575714D01*
X108655000Y-85632857D01*
X108769286Y-85632857D01*
X108940715Y-85575714D01*
X108997858Y-85518571D01*
X108997858Y-85118571D01*
X108769286Y-85118571D01*
X109512143Y-85632857D02*
X109512143Y-84432857D01*
X110197858Y-85632857D01*
X110197858Y-84432857D01*
X110769286Y-85632857D02*
X110769286Y-84432857D01*
X111055001Y-84432857D01*
X111226429Y-84490000D01*
X111340715Y-84604286D01*
X111397858Y-84718571D01*
X111455001Y-84947143D01*
X111455001Y-85118571D01*
X111397858Y-85347143D01*
X111340715Y-85461429D01*
X111226429Y-85575714D01*
X111055001Y-85632857D01*
X110769286Y-85632857D01*
X108369286Y-81892857D02*
X109055000Y-81892857D01*
X108712143Y-83092857D02*
X108712143Y-81892857D01*
X109340715Y-81892857D02*
X110140715Y-83092857D01*
X110140715Y-81892857D02*
X109340715Y-83092857D01*
X110540714Y-82007143D02*
X110597857Y-81950000D01*
X110712143Y-81892857D01*
X110997857Y-81892857D01*
X111112143Y-81950000D01*
X111169286Y-82007143D01*
X111226429Y-82121429D01*
X111226429Y-82235714D01*
X111169286Y-82407143D01*
X110483572Y-83092857D01*
X111226429Y-83092857D01*
X108255001Y-64112857D02*
X108655001Y-65312857D01*
X109055001Y-64112857D01*
X110140715Y-65198571D02*
X110083572Y-65255714D01*
X109912143Y-65312857D01*
X109797857Y-65312857D01*
X109626429Y-65255714D01*
X109512143Y-65141429D01*
X109455000Y-65027143D01*
X109397857Y-64798571D01*
X109397857Y-64627143D01*
X109455000Y-64398571D01*
X109512143Y-64284286D01*
X109626429Y-64170000D01*
X109797857Y-64112857D01*
X109912143Y-64112857D01*
X110083572Y-64170000D01*
X110140715Y-64227143D01*
X111340715Y-65198571D02*
X111283572Y-65255714D01*
X111112143Y-65312857D01*
X110997857Y-65312857D01*
X110826429Y-65255714D01*
X110712143Y-65141429D01*
X110655000Y-65027143D01*
X110597857Y-64798571D01*
X110597857Y-64627143D01*
X110655000Y-64398571D01*
X110712143Y-64284286D01*
X110826429Y-64170000D01*
X110997857Y-64112857D01*
X111112143Y-64112857D01*
X111283572Y-64170000D01*
X111340715Y-64227143D01*
X109083572Y-67852857D02*
X108683572Y-67281429D01*
X108397857Y-67852857D02*
X108397857Y-66652857D01*
X108855000Y-66652857D01*
X108969286Y-66710000D01*
X109026429Y-66767143D01*
X109083572Y-66881429D01*
X109083572Y-67052857D01*
X109026429Y-67167143D01*
X108969286Y-67224286D01*
X108855000Y-67281429D01*
X108397857Y-67281429D01*
X109483572Y-66652857D02*
X110283572Y-67852857D01*
X110283572Y-66652857D02*
X109483572Y-67852857D01*
X111369286Y-67852857D02*
X110683571Y-67852857D01*
X111026429Y-67852857D02*
X111026429Y-66652857D01*
X110912143Y-66824286D01*
X110797857Y-66938571D01*
X110683571Y-66995714D01*
X108369286Y-69192857D02*
X109055000Y-69192857D01*
X108712143Y-70392857D02*
X108712143Y-69192857D01*
X109340715Y-69192857D02*
X110140715Y-70392857D01*
X110140715Y-69192857D02*
X109340715Y-70392857D01*
X111226429Y-70392857D02*
X110540714Y-70392857D01*
X110883572Y-70392857D02*
X110883572Y-69192857D01*
X110769286Y-69364286D01*
X110655000Y-69478571D01*
X110540714Y-69535714D01*
X108940715Y-71790000D02*
X108826429Y-71732857D01*
X108655000Y-71732857D01*
X108483572Y-71790000D01*
X108369286Y-71904286D01*
X108312143Y-72018571D01*
X108255000Y-72247143D01*
X108255000Y-72418571D01*
X108312143Y-72647143D01*
X108369286Y-72761429D01*
X108483572Y-72875714D01*
X108655000Y-72932857D01*
X108769286Y-72932857D01*
X108940715Y-72875714D01*
X108997858Y-72818571D01*
X108997858Y-72418571D01*
X108769286Y-72418571D01*
X109512143Y-72932857D02*
X109512143Y-71732857D01*
X110197858Y-72932857D01*
X110197858Y-71732857D01*
X110769286Y-72932857D02*
X110769286Y-71732857D01*
X111055001Y-71732857D01*
X111226429Y-71790000D01*
X111340715Y-71904286D01*
X111397858Y-72018571D01*
X111455001Y-72247143D01*
X111455001Y-72418571D01*
X111397858Y-72647143D01*
X111340715Y-72761429D01*
X111226429Y-72875714D01*
X111055001Y-72932857D01*
X110769286Y-72932857D01*
D13*
X169005715Y-104747143D02*
X169220001Y-104818571D01*
X169577144Y-104818571D01*
X169720001Y-104747143D01*
X169791430Y-104675714D01*
X169862858Y-104532857D01*
X169862858Y-104390000D01*
X169791430Y-104247143D01*
X169720001Y-104175714D01*
X169577144Y-104104286D01*
X169291430Y-104032857D01*
X169148572Y-103961429D01*
X169077144Y-103890000D01*
X169005715Y-103747143D01*
X169005715Y-103604286D01*
X169077144Y-103461429D01*
X169148572Y-103390000D01*
X169291430Y-103318571D01*
X169648572Y-103318571D01*
X169862858Y-103390000D01*
X170291429Y-103318571D02*
X171148572Y-103318571D01*
X170720001Y-104818571D02*
X170720001Y-103318571D01*
X171577143Y-104390000D02*
X172291429Y-104390000D01*
X171434286Y-104818571D02*
X171934286Y-103318571D01*
X172434286Y-104818571D01*
X172720000Y-103318571D02*
X173577143Y-103318571D01*
X173148572Y-104818571D02*
X173148572Y-103318571D01*
X174077143Y-103318571D02*
X174077143Y-104532857D01*
X174148571Y-104675714D01*
X174220000Y-104747143D01*
X174362857Y-104818571D01*
X174648571Y-104818571D01*
X174791429Y-104747143D01*
X174862857Y-104675714D01*
X174934286Y-104532857D01*
X174934286Y-103318571D01*
X175577143Y-104747143D02*
X175791429Y-104818571D01*
X176148572Y-104818571D01*
X176291429Y-104747143D01*
X176362858Y-104675714D01*
X176434286Y-104532857D01*
X176434286Y-104390000D01*
X176362858Y-104247143D01*
X176291429Y-104175714D01*
X176148572Y-104104286D01*
X175862858Y-104032857D01*
X175720000Y-103961429D01*
X175648572Y-103890000D01*
X175577143Y-103747143D01*
X175577143Y-103604286D01*
X175648572Y-103461429D01*
X175720000Y-103390000D01*
X175862858Y-103318571D01*
X176220000Y-103318571D01*
X176434286Y-103390000D01*
D14*
X180837820Y-47080864D02*
G75*
G03X174802518Y-47080000I-3017820J-1179136D01*
G01*
X180837820Y-49439136D02*
G75*
G02X174802518Y-49440000I-3017820J1179136D01*
G01*
X180837820Y-49439136D02*
G75*
G03X180837482Y-47080000I-3017820J1179136D01*
G01*
X177820000Y-45060000D02*
X177820000Y-51460000D01*
X177860000Y-45060000D02*
X177860000Y-51460000D01*
X177900000Y-45060000D02*
X177900000Y-51460000D01*
X177940000Y-45062000D02*
X177940000Y-51458000D01*
X177980000Y-45063000D02*
X177980000Y-51457000D01*
X178020000Y-45066000D02*
X178020000Y-51454000D01*
X178060000Y-45068000D02*
X178060000Y-51452000D01*
X178100000Y-45072000D02*
X178100000Y-47280000D01*
X178100000Y-49240000D02*
X178100000Y-51448000D01*
X178140000Y-45075000D02*
X178140000Y-47280000D01*
X178140000Y-49240000D02*
X178140000Y-51445000D01*
X178180000Y-45080000D02*
X178180000Y-47280000D01*
X178180000Y-49240000D02*
X178180000Y-51440000D01*
X178220000Y-45084000D02*
X178220000Y-47280000D01*
X178220000Y-49240000D02*
X178220000Y-51436000D01*
X178260000Y-45090000D02*
X178260000Y-47280000D01*
X178260000Y-49240000D02*
X178260000Y-51430000D01*
X178300000Y-45095000D02*
X178300000Y-47280000D01*
X178300000Y-49240000D02*
X178300000Y-51425000D01*
X178340000Y-45102000D02*
X178340000Y-47280000D01*
X178340000Y-49240000D02*
X178340000Y-51418000D01*
X178380000Y-45108000D02*
X178380000Y-47280000D01*
X178380000Y-49240000D02*
X178380000Y-51412000D01*
X178420000Y-45116000D02*
X178420000Y-47280000D01*
X178420000Y-49240000D02*
X178420000Y-51404000D01*
X178460000Y-45123000D02*
X178460000Y-47280000D01*
X178460000Y-49240000D02*
X178460000Y-51397000D01*
X178500000Y-45132000D02*
X178500000Y-47280000D01*
X178500000Y-49240000D02*
X178500000Y-51388000D01*
X178541000Y-45141000D02*
X178541000Y-47280000D01*
X178541000Y-49240000D02*
X178541000Y-51379000D01*
X178581000Y-45150000D02*
X178581000Y-47280000D01*
X178581000Y-49240000D02*
X178581000Y-51370000D01*
X178621000Y-45160000D02*
X178621000Y-47280000D01*
X178621000Y-49240000D02*
X178621000Y-51360000D01*
X178661000Y-45170000D02*
X178661000Y-47280000D01*
X178661000Y-49240000D02*
X178661000Y-51350000D01*
X178701000Y-45181000D02*
X178701000Y-47280000D01*
X178701000Y-49240000D02*
X178701000Y-51339000D01*
X178741000Y-45193000D02*
X178741000Y-47280000D01*
X178741000Y-49240000D02*
X178741000Y-51327000D01*
X178781000Y-45205000D02*
X178781000Y-47280000D01*
X178781000Y-49240000D02*
X178781000Y-51315000D01*
X178821000Y-45218000D02*
X178821000Y-47280000D01*
X178821000Y-49240000D02*
X178821000Y-51302000D01*
X178861000Y-45231000D02*
X178861000Y-47280000D01*
X178861000Y-49240000D02*
X178861000Y-51289000D01*
X178901000Y-45245000D02*
X178901000Y-47280000D01*
X178901000Y-49240000D02*
X178901000Y-51275000D01*
X178941000Y-45259000D02*
X178941000Y-47280000D01*
X178941000Y-49240000D02*
X178941000Y-51261000D01*
X178981000Y-45274000D02*
X178981000Y-47280000D01*
X178981000Y-49240000D02*
X178981000Y-51246000D01*
X179021000Y-45290000D02*
X179021000Y-47280000D01*
X179021000Y-49240000D02*
X179021000Y-51230000D01*
X179061000Y-45306000D02*
X179061000Y-47280000D01*
X179061000Y-49240000D02*
X179061000Y-51214000D01*
X179101000Y-45323000D02*
X179101000Y-47280000D01*
X179101000Y-49240000D02*
X179101000Y-51197000D01*
X179141000Y-45341000D02*
X179141000Y-47280000D01*
X179141000Y-49240000D02*
X179141000Y-51179000D01*
X179181000Y-45359000D02*
X179181000Y-47280000D01*
X179181000Y-49240000D02*
X179181000Y-51161000D01*
X179221000Y-45378000D02*
X179221000Y-47280000D01*
X179221000Y-49240000D02*
X179221000Y-51142000D01*
X179261000Y-45397000D02*
X179261000Y-47280000D01*
X179261000Y-49240000D02*
X179261000Y-51123000D01*
X179301000Y-45417000D02*
X179301000Y-47280000D01*
X179301000Y-49240000D02*
X179301000Y-51103000D01*
X179341000Y-45438000D02*
X179341000Y-47280000D01*
X179341000Y-49240000D02*
X179341000Y-51082000D01*
X179381000Y-45460000D02*
X179381000Y-47280000D01*
X179381000Y-49240000D02*
X179381000Y-51060000D01*
X179421000Y-45482000D02*
X179421000Y-47280000D01*
X179421000Y-49240000D02*
X179421000Y-51038000D01*
X179461000Y-45505000D02*
X179461000Y-47280000D01*
X179461000Y-49240000D02*
X179461000Y-51015000D01*
X179501000Y-45529000D02*
X179501000Y-47280000D01*
X179501000Y-49240000D02*
X179501000Y-50991000D01*
X179541000Y-45554000D02*
X179541000Y-47280000D01*
X179541000Y-49240000D02*
X179541000Y-50966000D01*
X179581000Y-45579000D02*
X179581000Y-47280000D01*
X179581000Y-49240000D02*
X179581000Y-50941000D01*
X179621000Y-45606000D02*
X179621000Y-47280000D01*
X179621000Y-49240000D02*
X179621000Y-50914000D01*
X179661000Y-45633000D02*
X179661000Y-47280000D01*
X179661000Y-49240000D02*
X179661000Y-50887000D01*
X179701000Y-45661000D02*
X179701000Y-47280000D01*
X179701000Y-49240000D02*
X179701000Y-50859000D01*
X179741000Y-45690000D02*
X179741000Y-47280000D01*
X179741000Y-49240000D02*
X179741000Y-50830000D01*
X179781000Y-45720000D02*
X179781000Y-47280000D01*
X179781000Y-49240000D02*
X179781000Y-50800000D01*
X179821000Y-45750000D02*
X179821000Y-47280000D01*
X179821000Y-49240000D02*
X179821000Y-50770000D01*
X179861000Y-45782000D02*
X179861000Y-47280000D01*
X179861000Y-49240000D02*
X179861000Y-50738000D01*
X179901000Y-45815000D02*
X179901000Y-47280000D01*
X179901000Y-49240000D02*
X179901000Y-50705000D01*
X179941000Y-45849000D02*
X179941000Y-47280000D01*
X179941000Y-49240000D02*
X179941000Y-50671000D01*
X179981000Y-45885000D02*
X179981000Y-47280000D01*
X179981000Y-49240000D02*
X179981000Y-50635000D01*
X180021000Y-45921000D02*
X180021000Y-47280000D01*
X180021000Y-49240000D02*
X180021000Y-50599000D01*
X180061000Y-45959000D02*
X180061000Y-50561000D01*
X180101000Y-45998000D02*
X180101000Y-50522000D01*
X180141000Y-46038000D02*
X180141000Y-50482000D01*
X180181000Y-46080000D02*
X180181000Y-50440000D01*
X180221000Y-46123000D02*
X180221000Y-50397000D01*
X180261000Y-46168000D02*
X180261000Y-50352000D01*
X180301000Y-46215000D02*
X180301000Y-50305000D01*
X180341000Y-46263000D02*
X180341000Y-50257000D01*
X180381000Y-46314000D02*
X180381000Y-50206000D01*
X180421000Y-46366000D02*
X180421000Y-50154000D01*
X180461000Y-46421000D02*
X180461000Y-50099000D01*
X180501000Y-46479000D02*
X180501000Y-50041000D01*
X180541000Y-46539000D02*
X180541000Y-49981000D01*
X180581000Y-46602000D02*
X180581000Y-49918000D01*
X180621000Y-46669000D02*
X180621000Y-49851000D01*
X180661000Y-46740000D02*
X180661000Y-49780000D01*
X180701000Y-46815000D02*
X180701000Y-49705000D01*
X180741000Y-46896000D02*
X180741000Y-49624000D01*
X180781000Y-46982000D02*
X180781000Y-49538000D01*
X180821000Y-47076000D02*
X180821000Y-49444000D01*
X180861000Y-47179000D02*
X180861000Y-49341000D01*
X180901000Y-47294000D02*
X180901000Y-49226000D01*
X180941000Y-47426000D02*
X180941000Y-49094000D01*
X180981000Y-47584000D02*
X180981000Y-48936000D01*
X181021000Y-47792000D02*
X181021000Y-48728000D01*
X174370000Y-48260000D02*
X175570000Y-48260000D01*
X174970000Y-47610000D02*
X174970000Y-48910000D01*
X166279136Y-60187820D02*
G75*
G03X166280000Y-54152518I-1179136J3017820D01*
G01*
X163920864Y-60187820D02*
G75*
G02X163920000Y-54152518I1179136J3017820D01*
G01*
X163920864Y-60187820D02*
G75*
G03X166280000Y-60187482I1179136J3017820D01*
G01*
X168300000Y-57170000D02*
X161900000Y-57170000D01*
X168300000Y-57210000D02*
X161900000Y-57210000D01*
X168300000Y-57250000D02*
X161900000Y-57250000D01*
X168298000Y-57290000D02*
X161902000Y-57290000D01*
X168297000Y-57330000D02*
X161903000Y-57330000D01*
X168294000Y-57370000D02*
X161906000Y-57370000D01*
X168292000Y-57410000D02*
X161908000Y-57410000D01*
X168288000Y-57450000D02*
X166080000Y-57450000D01*
X164120000Y-57450000D02*
X161912000Y-57450000D01*
X168285000Y-57490000D02*
X166080000Y-57490000D01*
X164120000Y-57490000D02*
X161915000Y-57490000D01*
X168280000Y-57530000D02*
X166080000Y-57530000D01*
X164120000Y-57530000D02*
X161920000Y-57530000D01*
X168276000Y-57570000D02*
X166080000Y-57570000D01*
X164120000Y-57570000D02*
X161924000Y-57570000D01*
X168270000Y-57610000D02*
X166080000Y-57610000D01*
X164120000Y-57610000D02*
X161930000Y-57610000D01*
X168265000Y-57650000D02*
X166080000Y-57650000D01*
X164120000Y-57650000D02*
X161935000Y-57650000D01*
X168258000Y-57690000D02*
X166080000Y-57690000D01*
X164120000Y-57690000D02*
X161942000Y-57690000D01*
X168252000Y-57730000D02*
X166080000Y-57730000D01*
X164120000Y-57730000D02*
X161948000Y-57730000D01*
X168244000Y-57770000D02*
X166080000Y-57770000D01*
X164120000Y-57770000D02*
X161956000Y-57770000D01*
X168237000Y-57810000D02*
X166080000Y-57810000D01*
X164120000Y-57810000D02*
X161963000Y-57810000D01*
X168228000Y-57850000D02*
X166080000Y-57850000D01*
X164120000Y-57850000D02*
X161972000Y-57850000D01*
X168219000Y-57891000D02*
X166080000Y-57891000D01*
X164120000Y-57891000D02*
X161981000Y-57891000D01*
X168210000Y-57931000D02*
X166080000Y-57931000D01*
X164120000Y-57931000D02*
X161990000Y-57931000D01*
X168200000Y-57971000D02*
X166080000Y-57971000D01*
X164120000Y-57971000D02*
X162000000Y-57971000D01*
X168190000Y-58011000D02*
X166080000Y-58011000D01*
X164120000Y-58011000D02*
X162010000Y-58011000D01*
X168179000Y-58051000D02*
X166080000Y-58051000D01*
X164120000Y-58051000D02*
X162021000Y-58051000D01*
X168167000Y-58091000D02*
X166080000Y-58091000D01*
X164120000Y-58091000D02*
X162033000Y-58091000D01*
X168155000Y-58131000D02*
X166080000Y-58131000D01*
X164120000Y-58131000D02*
X162045000Y-58131000D01*
X168142000Y-58171000D02*
X166080000Y-58171000D01*
X164120000Y-58171000D02*
X162058000Y-58171000D01*
X168129000Y-58211000D02*
X166080000Y-58211000D01*
X164120000Y-58211000D02*
X162071000Y-58211000D01*
X168115000Y-58251000D02*
X166080000Y-58251000D01*
X164120000Y-58251000D02*
X162085000Y-58251000D01*
X168101000Y-58291000D02*
X166080000Y-58291000D01*
X164120000Y-58291000D02*
X162099000Y-58291000D01*
X168086000Y-58331000D02*
X166080000Y-58331000D01*
X164120000Y-58331000D02*
X162114000Y-58331000D01*
X168070000Y-58371000D02*
X166080000Y-58371000D01*
X164120000Y-58371000D02*
X162130000Y-58371000D01*
X168054000Y-58411000D02*
X166080000Y-58411000D01*
X164120000Y-58411000D02*
X162146000Y-58411000D01*
X168037000Y-58451000D02*
X166080000Y-58451000D01*
X164120000Y-58451000D02*
X162163000Y-58451000D01*
X168019000Y-58491000D02*
X166080000Y-58491000D01*
X164120000Y-58491000D02*
X162181000Y-58491000D01*
X168001000Y-58531000D02*
X166080000Y-58531000D01*
X164120000Y-58531000D02*
X162199000Y-58531000D01*
X167982000Y-58571000D02*
X166080000Y-58571000D01*
X164120000Y-58571000D02*
X162218000Y-58571000D01*
X167963000Y-58611000D02*
X166080000Y-58611000D01*
X164120000Y-58611000D02*
X162237000Y-58611000D01*
X167943000Y-58651000D02*
X166080000Y-58651000D01*
X164120000Y-58651000D02*
X162257000Y-58651000D01*
X167922000Y-58691000D02*
X166080000Y-58691000D01*
X164120000Y-58691000D02*
X162278000Y-58691000D01*
X167900000Y-58731000D02*
X166080000Y-58731000D01*
X164120000Y-58731000D02*
X162300000Y-58731000D01*
X167878000Y-58771000D02*
X166080000Y-58771000D01*
X164120000Y-58771000D02*
X162322000Y-58771000D01*
X167855000Y-58811000D02*
X166080000Y-58811000D01*
X164120000Y-58811000D02*
X162345000Y-58811000D01*
X167831000Y-58851000D02*
X166080000Y-58851000D01*
X164120000Y-58851000D02*
X162369000Y-58851000D01*
X167806000Y-58891000D02*
X166080000Y-58891000D01*
X164120000Y-58891000D02*
X162394000Y-58891000D01*
X167781000Y-58931000D02*
X166080000Y-58931000D01*
X164120000Y-58931000D02*
X162419000Y-58931000D01*
X167754000Y-58971000D02*
X166080000Y-58971000D01*
X164120000Y-58971000D02*
X162446000Y-58971000D01*
X167727000Y-59011000D02*
X166080000Y-59011000D01*
X164120000Y-59011000D02*
X162473000Y-59011000D01*
X167699000Y-59051000D02*
X166080000Y-59051000D01*
X164120000Y-59051000D02*
X162501000Y-59051000D01*
X167670000Y-59091000D02*
X166080000Y-59091000D01*
X164120000Y-59091000D02*
X162530000Y-59091000D01*
X167640000Y-59131000D02*
X166080000Y-59131000D01*
X164120000Y-59131000D02*
X162560000Y-59131000D01*
X167610000Y-59171000D02*
X166080000Y-59171000D01*
X164120000Y-59171000D02*
X162590000Y-59171000D01*
X167578000Y-59211000D02*
X166080000Y-59211000D01*
X164120000Y-59211000D02*
X162622000Y-59211000D01*
X167545000Y-59251000D02*
X166080000Y-59251000D01*
X164120000Y-59251000D02*
X162655000Y-59251000D01*
X167511000Y-59291000D02*
X166080000Y-59291000D01*
X164120000Y-59291000D02*
X162689000Y-59291000D01*
X167475000Y-59331000D02*
X166080000Y-59331000D01*
X164120000Y-59331000D02*
X162725000Y-59331000D01*
X167439000Y-59371000D02*
X166080000Y-59371000D01*
X164120000Y-59371000D02*
X162761000Y-59371000D01*
X167401000Y-59411000D02*
X162799000Y-59411000D01*
X167362000Y-59451000D02*
X162838000Y-59451000D01*
X167322000Y-59491000D02*
X162878000Y-59491000D01*
X167280000Y-59531000D02*
X162920000Y-59531000D01*
X167237000Y-59571000D02*
X162963000Y-59571000D01*
X167192000Y-59611000D02*
X163008000Y-59611000D01*
X167145000Y-59651000D02*
X163055000Y-59651000D01*
X167097000Y-59691000D02*
X163103000Y-59691000D01*
X167046000Y-59731000D02*
X163154000Y-59731000D01*
X166994000Y-59771000D02*
X163206000Y-59771000D01*
X166939000Y-59811000D02*
X163261000Y-59811000D01*
X166881000Y-59851000D02*
X163319000Y-59851000D01*
X166821000Y-59891000D02*
X163379000Y-59891000D01*
X166758000Y-59931000D02*
X163442000Y-59931000D01*
X166691000Y-59971000D02*
X163509000Y-59971000D01*
X166620000Y-60011000D02*
X163580000Y-60011000D01*
X166545000Y-60051000D02*
X163655000Y-60051000D01*
X166464000Y-60091000D02*
X163736000Y-60091000D01*
X166378000Y-60131000D02*
X163822000Y-60131000D01*
X166284000Y-60171000D02*
X163916000Y-60171000D01*
X166181000Y-60211000D02*
X164019000Y-60211000D01*
X166066000Y-60251000D02*
X164134000Y-60251000D01*
X165934000Y-60291000D02*
X164266000Y-60291000D01*
X165776000Y-60331000D02*
X164424000Y-60331000D01*
X165568000Y-60371000D02*
X164632000Y-60371000D01*
X165100000Y-53720000D02*
X165100000Y-54920000D01*
X165750000Y-54320000D02*
X164450000Y-54320000D01*
X170780000Y-56480000D02*
X170780000Y-57180000D01*
X169580000Y-57180000D02*
X169580000Y-56480000D01*
X130140000Y-78390000D02*
X130140000Y-79090000D01*
X128940000Y-79090000D02*
X128940000Y-78390000D01*
X123790000Y-60290000D02*
X123790000Y-60990000D01*
X122590000Y-60990000D02*
X122590000Y-60290000D01*
X111090000Y-60295000D02*
X111090000Y-60995000D01*
X109890000Y-60995000D02*
X109890000Y-60295000D01*
X168530000Y-52660000D02*
X171830000Y-52660000D01*
X171830000Y-52660000D02*
X171830000Y-45760000D01*
X168530000Y-52660000D02*
X168530000Y-45760000D01*
X164182000Y-106031000D02*
X164182000Y-107131000D01*
X164182000Y-107131000D02*
X166782000Y-107131000D01*
X164182000Y-106031000D02*
X166782000Y-106031000D01*
X164182000Y-103491000D02*
X164182000Y-104591000D01*
X164182000Y-104591000D02*
X166782000Y-104591000D01*
X164182000Y-103491000D02*
X166782000Y-103491000D01*
X168810000Y-35080000D02*
X168810000Y-41080000D01*
X168810000Y-41080000D02*
X174090000Y-41080000D01*
X174090000Y-41080000D02*
X174090000Y-35080000D01*
X174090000Y-35080000D02*
X168810000Y-35080000D01*
X170180000Y-41080000D02*
X170180000Y-40080000D01*
X170180000Y-40080000D02*
X172720000Y-40080000D01*
X172720000Y-40080000D02*
X172720000Y-41080000D01*
X170180000Y-40080000D02*
X170430000Y-39650000D01*
X170430000Y-39650000D02*
X172470000Y-39650000D01*
X172470000Y-39650000D02*
X172720000Y-40080000D01*
X170430000Y-41080000D02*
X170430000Y-40080000D01*
X172470000Y-41080000D02*
X172470000Y-40080000D01*
X169380000Y-35080000D02*
X169380000Y-35700000D01*
X169380000Y-35700000D02*
X170980000Y-35700000D01*
X170980000Y-35700000D02*
X170980000Y-35080000D01*
X171920000Y-35080000D02*
X171920000Y-35700000D01*
X171920000Y-35700000D02*
X173520000Y-35700000D01*
X173520000Y-35700000D02*
X173520000Y-35080000D01*
X164500000Y-38195000D02*
X164500000Y-29555000D01*
X164500000Y-46575000D02*
X164500000Y-41495000D01*
X152300000Y-38195000D02*
X152300000Y-29555000D01*
X152300000Y-46575000D02*
X152300000Y-41495000D01*
X152300000Y-29555000D02*
X164500000Y-29555000D01*
X164500000Y-46575000D02*
X152300000Y-46575000D01*
X156310000Y-70330000D02*
X156310000Y-64330000D01*
X156310000Y-64330000D02*
X151030000Y-64330000D01*
X151030000Y-64330000D02*
X151030000Y-70330000D01*
X151030000Y-70330000D02*
X156310000Y-70330000D01*
X154940000Y-64330000D02*
X154940000Y-65330000D01*
X154940000Y-65330000D02*
X152400000Y-65330000D01*
X152400000Y-65330000D02*
X152400000Y-64330000D01*
X154940000Y-65330000D02*
X154690000Y-65760000D01*
X154690000Y-65760000D02*
X152650000Y-65760000D01*
X152650000Y-65760000D02*
X152400000Y-65330000D01*
X154690000Y-64330000D02*
X154690000Y-65330000D01*
X152650000Y-64330000D02*
X152650000Y-65330000D01*
X155740000Y-70330000D02*
X155740000Y-69710000D01*
X155740000Y-69710000D02*
X154140000Y-69710000D01*
X154140000Y-69710000D02*
X154140000Y-70330000D01*
X153200000Y-70330000D02*
X153200000Y-69710000D01*
X153200000Y-69710000D02*
X151600000Y-69710000D01*
X151600000Y-69710000D02*
X151600000Y-70330000D01*
X151070000Y-53280000D02*
X151070000Y-55940000D01*
X156210000Y-53280000D02*
X151070000Y-53280000D01*
X156210000Y-55940000D02*
X151070000Y-55940000D01*
X156210000Y-53280000D02*
X156210000Y-55940000D01*
X157480000Y-53280000D02*
X158810000Y-53280000D01*
X158810000Y-53280000D02*
X158810000Y-54610000D01*
D15*
X111990000Y-37983300D02*
X111490000Y-36983300D01*
X120990000Y-37983300D02*
X111990000Y-37983300D01*
X121490000Y-36983300D02*
X120990000Y-37983300D01*
X112990000Y-33483300D02*
X111990000Y-33483300D01*
X123490000Y-33983300D02*
X109490000Y-33983300D01*
X123490000Y-47983300D02*
X123490000Y-33983300D01*
X109490000Y-47983300D02*
X123490000Y-47983300D01*
X109490000Y-33983300D02*
X109490000Y-47983300D01*
D14*
X156310000Y-107160000D02*
X156310000Y-101160000D01*
X156310000Y-101160000D02*
X145950000Y-101160000D01*
X145950000Y-101160000D02*
X145950000Y-107160000D01*
X145950000Y-107160000D02*
X156310000Y-107160000D01*
X154940000Y-101160000D02*
X154940000Y-102160000D01*
X154940000Y-102160000D02*
X147320000Y-102160000D01*
X147320000Y-102160000D02*
X147320000Y-101160000D01*
X154940000Y-102160000D02*
X154690000Y-102590000D01*
X154690000Y-102590000D02*
X147570000Y-102590000D01*
X147570000Y-102590000D02*
X147320000Y-102160000D01*
X154690000Y-101160000D02*
X154690000Y-102160000D01*
X147570000Y-101160000D02*
X147570000Y-102160000D01*
X155740000Y-107160000D02*
X155740000Y-106540000D01*
X155740000Y-106540000D02*
X154140000Y-106540000D01*
X154140000Y-106540000D02*
X154140000Y-107160000D01*
X153200000Y-107160000D02*
X153200000Y-106540000D01*
X153200000Y-106540000D02*
X151600000Y-106540000D01*
X151600000Y-106540000D02*
X151600000Y-107160000D01*
X150660000Y-107160000D02*
X150660000Y-106540000D01*
X150660000Y-106540000D02*
X149060000Y-106540000D01*
X149060000Y-106540000D02*
X149060000Y-107160000D01*
X148120000Y-107160000D02*
X148120000Y-106540000D01*
X148120000Y-106540000D02*
X146520000Y-106540000D01*
X146520000Y-106540000D02*
X146520000Y-107160000D01*
X144880000Y-82395000D02*
X144880000Y-76395000D01*
X144880000Y-76395000D02*
X134520000Y-76395000D01*
X134520000Y-76395000D02*
X134520000Y-82395000D01*
X134520000Y-82395000D02*
X144880000Y-82395000D01*
X143510000Y-76395000D02*
X143510000Y-77395000D01*
X143510000Y-77395000D02*
X135890000Y-77395000D01*
X135890000Y-77395000D02*
X135890000Y-76395000D01*
X143510000Y-77395000D02*
X143260000Y-77825000D01*
X143260000Y-77825000D02*
X136140000Y-77825000D01*
X136140000Y-77825000D02*
X135890000Y-77395000D01*
X143260000Y-76395000D02*
X143260000Y-77395000D01*
X136140000Y-76395000D02*
X136140000Y-77395000D01*
X144310000Y-82395000D02*
X144310000Y-81775000D01*
X144310000Y-81775000D02*
X142710000Y-81775000D01*
X142710000Y-81775000D02*
X142710000Y-82395000D01*
X141770000Y-82395000D02*
X141770000Y-81775000D01*
X141770000Y-81775000D02*
X140170000Y-81775000D01*
X140170000Y-81775000D02*
X140170000Y-82395000D01*
X139230000Y-82395000D02*
X139230000Y-81775000D01*
X139230000Y-81775000D02*
X137630000Y-81775000D01*
X137630000Y-81775000D02*
X137630000Y-82395000D01*
X136690000Y-82395000D02*
X136690000Y-81775000D01*
X136690000Y-81775000D02*
X135090000Y-81775000D01*
X135090000Y-81775000D02*
X135090000Y-82395000D01*
X101120000Y-86460000D02*
X107120000Y-86460000D01*
X107120000Y-86460000D02*
X107120000Y-76100000D01*
X107120000Y-76100000D02*
X101120000Y-76100000D01*
X101120000Y-76100000D02*
X101120000Y-86460000D01*
X107120000Y-85090000D02*
X106120000Y-85090000D01*
X106120000Y-85090000D02*
X106120000Y-77470000D01*
X106120000Y-77470000D02*
X107120000Y-77470000D01*
X106120000Y-85090000D02*
X105690000Y-84840000D01*
X105690000Y-84840000D02*
X105690000Y-77720000D01*
X105690000Y-77720000D02*
X106120000Y-77470000D01*
X107120000Y-84840000D02*
X106120000Y-84840000D01*
X107120000Y-77720000D02*
X106120000Y-77720000D01*
X101120000Y-85890000D02*
X101740000Y-85890000D01*
X101740000Y-85890000D02*
X101740000Y-84290000D01*
X101740000Y-84290000D02*
X101120000Y-84290000D01*
X101120000Y-83350000D02*
X101740000Y-83350000D01*
X101740000Y-83350000D02*
X101740000Y-81750000D01*
X101740000Y-81750000D02*
X101120000Y-81750000D01*
X101120000Y-80810000D02*
X101740000Y-80810000D01*
X101740000Y-80810000D02*
X101740000Y-79210000D01*
X101740000Y-79210000D02*
X101120000Y-79210000D01*
X101120000Y-78270000D02*
X101740000Y-78270000D01*
X101740000Y-78270000D02*
X101740000Y-76670000D01*
X101740000Y-76670000D02*
X101120000Y-76670000D01*
X101120000Y-73760000D02*
X107120000Y-73760000D01*
X107120000Y-73760000D02*
X107120000Y-63400000D01*
X107120000Y-63400000D02*
X101120000Y-63400000D01*
X101120000Y-63400000D02*
X101120000Y-73760000D01*
X107120000Y-72390000D02*
X106120000Y-72390000D01*
X106120000Y-72390000D02*
X106120000Y-64770000D01*
X106120000Y-64770000D02*
X107120000Y-64770000D01*
X106120000Y-72390000D02*
X105690000Y-72140000D01*
X105690000Y-72140000D02*
X105690000Y-65020000D01*
X105690000Y-65020000D02*
X106120000Y-64770000D01*
X107120000Y-72140000D02*
X106120000Y-72140000D01*
X107120000Y-65020000D02*
X106120000Y-65020000D01*
X101120000Y-73190000D02*
X101740000Y-73190000D01*
X101740000Y-73190000D02*
X101740000Y-71590000D01*
X101740000Y-71590000D02*
X101120000Y-71590000D01*
X101120000Y-70650000D02*
X101740000Y-70650000D01*
X101740000Y-70650000D02*
X101740000Y-69050000D01*
X101740000Y-69050000D02*
X101120000Y-69050000D01*
X101120000Y-68110000D02*
X101740000Y-68110000D01*
X101740000Y-68110000D02*
X101740000Y-66510000D01*
X101740000Y-66510000D02*
X101120000Y-66510000D01*
X101120000Y-65570000D02*
X101740000Y-65570000D01*
X101740000Y-65570000D02*
X101740000Y-63970000D01*
X101740000Y-63970000D02*
X101120000Y-63970000D01*
X160402000Y-105901000D02*
X161402000Y-105901000D01*
X161402000Y-107261000D02*
X160402000Y-107261000D01*
X161402000Y-104721000D02*
X160402000Y-104721000D01*
X160402000Y-103361000D02*
X161402000Y-103361000D01*
X112530000Y-52653300D02*
X113530000Y-52653300D01*
X113530000Y-54013300D02*
X112530000Y-54013300D01*
X120150000Y-52653300D02*
X121150000Y-52653300D01*
X121150000Y-54013300D02*
X120150000Y-54013300D01*
X163240000Y-79975000D02*
X163240000Y-80975000D01*
X161880000Y-80975000D02*
X161880000Y-79975000D01*
X165780000Y-79975000D02*
X165780000Y-80975000D01*
X164420000Y-80975000D02*
X164420000Y-79975000D01*
X168320000Y-79975000D02*
X168320000Y-80975000D01*
X166960000Y-80975000D02*
X166960000Y-79975000D01*
X173400000Y-79975000D02*
X173400000Y-80975000D01*
X172040000Y-80975000D02*
X172040000Y-79975000D01*
X117560000Y-89490000D02*
X117560000Y-87290000D01*
X124160000Y-89490000D02*
X124160000Y-87290000D01*
X177046000Y-52845200D02*
X175546000Y-52845200D01*
X175546000Y-52845200D02*
X175546000Y-53115200D01*
X175546000Y-53115200D02*
X172716000Y-53115200D01*
X177046000Y-59745200D02*
X175546000Y-59745200D01*
X175546000Y-59745200D02*
X175546000Y-59475200D01*
X175546000Y-59475200D02*
X174446000Y-59475200D01*
X113430000Y-64800000D02*
X114690000Y-64800000D01*
X120250000Y-64800000D02*
X118990000Y-64800000D01*
X113430000Y-61040000D02*
X113430000Y-64800000D01*
X120250000Y-58790000D02*
X120250000Y-64800000D01*
D16*
X124460000Y-33020000D02*
X124460000Y-36830000D01*
X109220000Y-33020000D02*
X124460000Y-33020000D01*
X109220000Y-36830000D02*
X109220000Y-33020000D01*
X105410000Y-36830000D02*
X105410000Y-41910000D01*
X128270000Y-36830000D02*
X105410000Y-36830000D01*
X128270000Y-41910000D02*
X128270000Y-36830000D01*
X105410000Y-60960000D02*
X105410000Y-57150000D01*
X128270000Y-60960000D02*
X128270000Y-57150000D01*
X105410000Y-60960000D02*
X128270000Y-60960000D01*
X107950000Y-41910000D02*
X105410000Y-41910000D01*
X107950000Y-57150000D02*
X107950000Y-41910000D01*
X105410000Y-57150000D02*
X107950000Y-57150000D01*
X105410000Y-41910000D02*
X105410000Y-57150000D01*
X128270000Y-41910000D02*
X125730000Y-41910000D01*
X128270000Y-57150000D02*
X128270000Y-41910000D01*
X125730000Y-57150000D02*
X128270000Y-57150000D01*
X125730000Y-41910000D02*
X125730000Y-57150000D01*
X135890000Y-35560000D02*
X135890000Y-34290000D01*
X135890000Y-34290000D02*
X143510000Y-34290000D01*
X143510000Y-34290000D02*
X143510000Y-35560000D01*
X134620000Y-46990000D02*
X134620000Y-50800000D01*
X134620000Y-50800000D02*
X137160000Y-50800000D01*
X137160000Y-50800000D02*
X137160000Y-46990000D01*
X137160000Y-46990000D02*
X134620000Y-46990000D01*
X135890000Y-40640000D02*
X143510000Y-40640000D01*
X143510000Y-40640000D02*
X143510000Y-35560000D01*
X135890000Y-40640000D02*
X135890000Y-35560000D01*
X134620000Y-41910000D02*
X134620000Y-44450000D01*
X134620000Y-44450000D02*
X137160000Y-44450000D01*
X137160000Y-44450000D02*
X137160000Y-41910000D01*
X137160000Y-41910000D02*
X134620000Y-41910000D01*
X142240000Y-68580000D02*
X137160000Y-68580000D01*
X137160000Y-68580000D02*
X137160000Y-66040000D01*
X137160000Y-66040000D02*
X142240000Y-66040000D01*
X142240000Y-66040000D02*
X142240000Y-68580000D01*
X134620000Y-62230000D02*
X144780000Y-62230000D01*
X144780000Y-53340000D02*
X134620000Y-53340000D01*
X144780000Y-62230000D02*
X144780000Y-53340000D01*
X134620000Y-62230000D02*
X134620000Y-53340000D01*
X148590000Y-35560000D02*
X148590000Y-71120000D01*
X148590000Y-71120000D02*
X130810000Y-71120000D01*
X130810000Y-71120000D02*
X130810000Y-35560000D01*
X130810000Y-35560000D02*
X148590000Y-35560000D01*
D14*
X181175000Y-61740000D02*
X180945000Y-61740000D01*
X184845000Y-61220000D02*
X184845000Y-68940000D01*
X184845000Y-68940000D02*
X180945000Y-68940000D01*
X177835000Y-61220000D02*
X177835000Y-61740000D01*
X184845000Y-61220000D02*
X180945000Y-61220000D01*
X181175000Y-68420000D02*
X180945000Y-68420000D01*
X178345000Y-61740000D02*
X177835000Y-61740000D01*
X178345000Y-61220000D02*
X177835000Y-61220000D01*
X181175000Y-67880000D02*
X181175000Y-68420000D01*
X178345000Y-68420000D02*
X177835000Y-68420000D01*
X177835000Y-68420000D02*
X177835000Y-68940000D01*
X178345000Y-68940000D02*
X177835000Y-68940000D01*
X181175000Y-61740000D02*
X181175000Y-62280000D01*
X181175000Y-63380000D02*
X181175000Y-66780000D01*
X181175000Y-71900000D02*
X180945000Y-71900000D01*
X184845000Y-71380000D02*
X184845000Y-79100000D01*
X184845000Y-79100000D02*
X180945000Y-79100000D01*
X177835000Y-71380000D02*
X177835000Y-71900000D01*
X184845000Y-71380000D02*
X180945000Y-71380000D01*
X181175000Y-78580000D02*
X180945000Y-78580000D01*
X178345000Y-71900000D02*
X177835000Y-71900000D01*
X178345000Y-71380000D02*
X177835000Y-71380000D01*
X181175000Y-78040000D02*
X181175000Y-78580000D01*
X178345000Y-78580000D02*
X177835000Y-78580000D01*
X177835000Y-78580000D02*
X177835000Y-79100000D01*
X178345000Y-79100000D02*
X177835000Y-79100000D01*
X181175000Y-71900000D02*
X181175000Y-72440000D01*
X181175000Y-73540000D02*
X181175000Y-76940000D01*
X181175000Y-82060000D02*
X180945000Y-82060000D01*
X184845000Y-81540000D02*
X184845000Y-89260000D01*
X184845000Y-89260000D02*
X180945000Y-89260000D01*
X177835000Y-81540000D02*
X177835000Y-82060000D01*
X184845000Y-81540000D02*
X180945000Y-81540000D01*
X181175000Y-88740000D02*
X180945000Y-88740000D01*
X178345000Y-82060000D02*
X177835000Y-82060000D01*
X178345000Y-81540000D02*
X177835000Y-81540000D01*
X181175000Y-88200000D02*
X181175000Y-88740000D01*
X178345000Y-88740000D02*
X177835000Y-88740000D01*
X177835000Y-88740000D02*
X177835000Y-89260000D01*
X178345000Y-89260000D02*
X177835000Y-89260000D01*
X181175000Y-82060000D02*
X181175000Y-82600000D01*
X181175000Y-83700000D02*
X181175000Y-87100000D01*
X128910000Y-112010000D02*
X144150000Y-112010000D01*
X144150000Y-93980000D02*
X144140000Y-102970000D01*
X144150000Y-93980000D02*
X128910000Y-93980000D01*
X128910000Y-93980000D02*
X128910000Y-102980000D01*
X144140000Y-105310000D02*
X144150000Y-112010000D01*
X128910000Y-105300000D02*
X128910000Y-112010000D01*
X111130000Y-112010000D02*
X126370000Y-112010000D01*
X126370000Y-93980000D02*
X126360000Y-102970000D01*
X126370000Y-93980000D02*
X111130000Y-93980000D01*
X111130000Y-93980000D02*
X111130000Y-102980000D01*
X126360000Y-105310000D02*
X126370000Y-112010000D01*
X111130000Y-105300000D02*
X111130000Y-112010000D01*
X101120000Y-98910200D02*
X107120000Y-98910200D01*
X107120000Y-98910200D02*
X107120000Y-88550200D01*
X107120000Y-88550200D02*
X101120000Y-88550200D01*
X101120000Y-88550200D02*
X101120000Y-98910200D01*
X107120000Y-97540200D02*
X106120000Y-97540200D01*
X106120000Y-97540200D02*
X106120000Y-89920200D01*
X106120000Y-89920200D02*
X107120000Y-89920200D01*
X106120000Y-97540200D02*
X105690000Y-97290200D01*
X105690000Y-97290200D02*
X105690000Y-90170200D01*
X105690000Y-90170200D02*
X106120000Y-89920200D01*
X107120000Y-97290200D02*
X106120000Y-97290200D01*
X107120000Y-90170200D02*
X106120000Y-90170200D01*
X101120000Y-98340200D02*
X101740000Y-98340200D01*
X101740000Y-98340200D02*
X101740000Y-96740200D01*
X101740000Y-96740200D02*
X101120000Y-96740200D01*
X101120000Y-95800200D02*
X101740000Y-95800200D01*
X101740000Y-95800200D02*
X101740000Y-94200200D01*
X101740000Y-94200200D02*
X101120000Y-94200200D01*
X101120000Y-93260200D02*
X101740000Y-93260200D01*
X101740000Y-93260200D02*
X101740000Y-91660200D01*
X101740000Y-91660200D02*
X101120000Y-91660200D01*
X101120000Y-90720200D02*
X101740000Y-90720200D01*
X101740000Y-90720200D02*
X101740000Y-89120200D01*
X101740000Y-89120200D02*
X101120000Y-89120200D01*
D16*
X128495000Y-74865000D02*
X128245000Y-74865000D01*
X128495000Y-82615000D02*
X128160000Y-82615000D01*
X115345000Y-82615000D02*
X115680000Y-82615000D01*
X115345000Y-74865000D02*
X115680000Y-74865000D01*
X128495000Y-74865000D02*
X128495000Y-82615000D01*
X115345000Y-74865000D02*
X115345000Y-82615000D01*
X128245000Y-74865000D02*
X128245000Y-73065000D01*
D14*
X170860000Y-79975000D02*
X170860000Y-80975000D01*
X169500000Y-80975000D02*
X169500000Y-79975000D01*
X181275000Y-92200000D02*
X181045000Y-92200000D01*
X184945000Y-91680000D02*
X184945000Y-99400000D01*
X184945000Y-99400000D02*
X181045000Y-99400000D01*
X177935000Y-91680000D02*
X177935000Y-92200000D01*
X184945000Y-91680000D02*
X181045000Y-91680000D01*
X181275000Y-98880000D02*
X181045000Y-98880000D01*
X178445000Y-92200000D02*
X177935000Y-92200000D01*
X178445000Y-91680000D02*
X177935000Y-91680000D01*
X181275000Y-98340000D02*
X181275000Y-98880000D01*
X178445000Y-98880000D02*
X177935000Y-98880000D01*
X177935000Y-98880000D02*
X177935000Y-99400000D01*
X178445000Y-99400000D02*
X177935000Y-99400000D01*
X181275000Y-92200000D02*
X181275000Y-92740000D01*
X181275000Y-93840000D02*
X181275000Y-97240000D01*
D17*
X139877800Y-86410800D02*
X139623800Y-86410800D01*
X139623800Y-86410800D02*
X139623800Y-86461600D01*
X139623800Y-86461600D02*
X139628880Y-86461600D01*
X139628880Y-86461600D02*
X139628880Y-91409520D01*
X139628880Y-91409520D02*
X139860020Y-91409520D01*
X144559020Y-86393020D02*
X144828260Y-86393020D01*
X144828260Y-86393020D02*
X144828260Y-86443820D01*
X144828260Y-86443820D02*
X144833340Y-86443820D01*
X144833340Y-86443820D02*
X144833340Y-91406980D01*
X144833340Y-91406980D02*
X144607280Y-91406980D01*
X143129000Y-86360000D02*
X141427200Y-86360000D01*
X141376400Y-91440000D02*
X142240000Y-91440000D01*
X142240000Y-91440000D02*
X143103600Y-91440000D01*
X142240000Y-91440000D02*
X144780000Y-88900000D01*
D14*
X169311982Y-67677568D02*
G75*
G02X169313000Y-73202000I-1171982J-2762432D01*
G01*
X166211705Y-72737753D02*
G75*
G02X166212000Y-68142000I1928295J2297753D01*
G01*
X161580000Y-65530000D02*
X165446000Y-65530000D01*
X169835000Y-65530000D02*
X173700000Y-65530000D01*
X161580000Y-75350000D02*
X165446000Y-75350000D01*
X169835000Y-75350000D02*
X173700000Y-75350000D01*
X161580000Y-65530000D02*
X161580000Y-67115000D01*
X161580000Y-68765000D02*
X161580000Y-69615000D01*
X161580000Y-71265000D02*
X161580000Y-72115000D01*
X161580000Y-73765000D02*
X161580000Y-75350000D01*
X173700000Y-65530000D02*
X173700000Y-75350000D01*
X169311982Y-89357568D02*
G75*
G02X169313000Y-94882000I-1171982J-2762432D01*
G01*
X166211705Y-94417753D02*
G75*
G02X166212000Y-89822000I1928295J2297753D01*
G01*
X161580000Y-87210000D02*
X165446000Y-87210000D01*
X169835000Y-87210000D02*
X173700000Y-87210000D01*
X161580000Y-97030000D02*
X165446000Y-97030000D01*
X169835000Y-97030000D02*
X173700000Y-97030000D01*
X161580000Y-87210000D02*
X161580000Y-88795000D01*
X161580000Y-90445000D02*
X161580000Y-91295000D01*
X161580000Y-92945000D02*
X161580000Y-93795000D01*
X161580000Y-95445000D02*
X161580000Y-97030000D01*
X173700000Y-87210000D02*
X173700000Y-97030000D01*
D16*
X182602143Y-48426666D02*
X182649762Y-48474285D01*
X182697381Y-48617142D01*
X182697381Y-48712380D01*
X182649762Y-48855238D01*
X182554524Y-48950476D01*
X182459286Y-48998095D01*
X182268810Y-49045714D01*
X182125952Y-49045714D01*
X181935476Y-48998095D01*
X181840238Y-48950476D01*
X181745000Y-48855238D01*
X181697381Y-48712380D01*
X181697381Y-48617142D01*
X181745000Y-48474285D01*
X181792619Y-48426666D01*
X182697381Y-47474285D02*
X182697381Y-48045714D01*
X182697381Y-47760000D02*
X181697381Y-47760000D01*
X181840238Y-47855238D01*
X181935476Y-47950476D01*
X181983095Y-48045714D01*
X164953334Y-62307143D02*
X164905715Y-62354762D01*
X164762858Y-62402381D01*
X164667620Y-62402381D01*
X164524762Y-62354762D01*
X164429524Y-62259524D01*
X164381905Y-62164286D01*
X164334286Y-61973810D01*
X164334286Y-61830952D01*
X164381905Y-61640476D01*
X164429524Y-61545238D01*
X164524762Y-61450000D01*
X164667620Y-61402381D01*
X164762858Y-61402381D01*
X164905715Y-61450000D01*
X164953334Y-61497619D01*
X165334286Y-61497619D02*
X165381905Y-61450000D01*
X165477143Y-61402381D01*
X165715239Y-61402381D01*
X165810477Y-61450000D01*
X165858096Y-61497619D01*
X165905715Y-61592857D01*
X165905715Y-61688095D01*
X165858096Y-61830952D01*
X165286667Y-62402381D01*
X165905715Y-62402381D01*
X169051490Y-56996666D02*
X169099109Y-57044285D01*
X169146728Y-57187142D01*
X169146728Y-57282380D01*
X169099109Y-57425238D01*
X169003871Y-57520476D01*
X168908633Y-57568095D01*
X168718157Y-57615714D01*
X168575299Y-57615714D01*
X168384823Y-57568095D01*
X168289585Y-57520476D01*
X168194347Y-57425238D01*
X168146728Y-57282380D01*
X168146728Y-57187142D01*
X168194347Y-57044285D01*
X168241966Y-56996666D01*
X168146728Y-56663333D02*
X168146728Y-56044285D01*
X168527680Y-56377619D01*
X168527680Y-56234761D01*
X168575299Y-56139523D01*
X168622918Y-56091904D01*
X168718157Y-56044285D01*
X168956252Y-56044285D01*
X169051490Y-56091904D01*
X169099109Y-56139523D01*
X169146728Y-56234761D01*
X169146728Y-56520476D01*
X169099109Y-56615714D01*
X169051490Y-56663333D01*
X131147143Y-78906666D02*
X131194762Y-78954285D01*
X131242381Y-79097142D01*
X131242381Y-79192380D01*
X131194762Y-79335238D01*
X131099524Y-79430476D01*
X131004286Y-79478095D01*
X130813810Y-79525714D01*
X130670952Y-79525714D01*
X130480476Y-79478095D01*
X130385238Y-79430476D01*
X130290000Y-79335238D01*
X130242381Y-79192380D01*
X130242381Y-79097142D01*
X130290000Y-78954285D01*
X130337619Y-78906666D01*
X130575714Y-78049523D02*
X131242381Y-78049523D01*
X130194762Y-78287619D02*
X130909048Y-78525714D01*
X130909048Y-77906666D01*
X124797143Y-60806666D02*
X124844762Y-60854285D01*
X124892381Y-60997142D01*
X124892381Y-61092380D01*
X124844762Y-61235238D01*
X124749524Y-61330476D01*
X124654286Y-61378095D01*
X124463810Y-61425714D01*
X124320952Y-61425714D01*
X124130476Y-61378095D01*
X124035238Y-61330476D01*
X123940000Y-61235238D01*
X123892381Y-61092380D01*
X123892381Y-60997142D01*
X123940000Y-60854285D01*
X123987619Y-60806666D01*
X123892381Y-59901904D02*
X123892381Y-60378095D01*
X124368571Y-60425714D01*
X124320952Y-60378095D01*
X124273333Y-60282857D01*
X124273333Y-60044761D01*
X124320952Y-59949523D01*
X124368571Y-59901904D01*
X124463810Y-59854285D01*
X124701905Y-59854285D01*
X124797143Y-59901904D01*
X124844762Y-59949523D01*
X124892381Y-60044761D01*
X124892381Y-60282857D01*
X124844762Y-60378095D01*
X124797143Y-60425714D01*
X112097143Y-60811666D02*
X112144762Y-60859285D01*
X112192381Y-61002142D01*
X112192381Y-61097380D01*
X112144762Y-61240238D01*
X112049524Y-61335476D01*
X111954286Y-61383095D01*
X111763810Y-61430714D01*
X111620952Y-61430714D01*
X111430476Y-61383095D01*
X111335238Y-61335476D01*
X111240000Y-61240238D01*
X111192381Y-61097380D01*
X111192381Y-61002142D01*
X111240000Y-60859285D01*
X111287619Y-60811666D01*
X111192381Y-59954523D02*
X111192381Y-60145000D01*
X111240000Y-60240238D01*
X111287619Y-60287857D01*
X111430476Y-60383095D01*
X111620952Y-60430714D01*
X112001905Y-60430714D01*
X112097143Y-60383095D01*
X112144762Y-60335476D01*
X112192381Y-60240238D01*
X112192381Y-60049761D01*
X112144762Y-59954523D01*
X112097143Y-59906904D01*
X112001905Y-59859285D01*
X111763810Y-59859285D01*
X111668571Y-59906904D01*
X111620952Y-59954523D01*
X111573333Y-60049761D01*
X111573333Y-60240238D01*
X111620952Y-60335476D01*
X111668571Y-60383095D01*
X111763810Y-60430714D01*
X168132381Y-48998095D02*
X167132381Y-48998095D01*
X167132381Y-48760000D01*
X167180000Y-48617142D01*
X167275238Y-48521904D01*
X167370476Y-48474285D01*
X167560952Y-48426666D01*
X167703810Y-48426666D01*
X167894286Y-48474285D01*
X167989524Y-48521904D01*
X168084762Y-48617142D01*
X168132381Y-48760000D01*
X168132381Y-48998095D01*
X168132381Y-47474285D02*
X168132381Y-48045714D01*
X168132381Y-47760000D02*
X167132381Y-47760000D01*
X167275238Y-47855238D01*
X167370476Y-47950476D01*
X167418095Y-48045714D01*
X173232381Y-50402857D02*
X173232381Y-50974286D01*
X173232381Y-50688572D02*
X172232381Y-50688572D01*
X172375238Y-50783810D01*
X172470476Y-50879048D01*
X172518095Y-50974286D01*
X173232381Y-49974286D02*
X172232381Y-49974286D01*
X173232381Y-49402857D01*
X172232381Y-49402857D01*
X172565714Y-48498095D02*
X173232381Y-48498095D01*
X172184762Y-48736191D02*
X172899048Y-48974286D01*
X172899048Y-48355238D01*
X172232381Y-47783810D02*
X172232381Y-47688571D01*
X172280000Y-47593333D01*
X172327619Y-47545714D01*
X172422857Y-47498095D01*
X172613333Y-47450476D01*
X172851429Y-47450476D01*
X173041905Y-47498095D01*
X173137143Y-47545714D01*
X173184762Y-47593333D01*
X173232381Y-47688571D01*
X173232381Y-47783810D01*
X173184762Y-47879048D01*
X173137143Y-47926667D01*
X173041905Y-47974286D01*
X172851429Y-48021905D01*
X172613333Y-48021905D01*
X172422857Y-47974286D01*
X172327619Y-47926667D01*
X172280000Y-47879048D01*
X172232381Y-47783810D01*
X172232381Y-46831429D02*
X172232381Y-46736190D01*
X172280000Y-46640952D01*
X172327619Y-46593333D01*
X172422857Y-46545714D01*
X172613333Y-46498095D01*
X172851429Y-46498095D01*
X173041905Y-46545714D01*
X173137143Y-46593333D01*
X173184762Y-46640952D01*
X173232381Y-46736190D01*
X173232381Y-46831429D01*
X173184762Y-46926667D01*
X173137143Y-46974286D01*
X173041905Y-47021905D01*
X172851429Y-47069524D01*
X172613333Y-47069524D01*
X172422857Y-47021905D01*
X172327619Y-46974286D01*
X172280000Y-46926667D01*
X172232381Y-46831429D01*
X172565714Y-45640952D02*
X173232381Y-45640952D01*
X172184762Y-45879048D02*
X172899048Y-46117143D01*
X172899048Y-45498095D01*
X165073905Y-105862381D02*
X165073905Y-104862381D01*
X165312000Y-104862381D01*
X165454858Y-104910000D01*
X165550096Y-105005238D01*
X165597715Y-105100476D01*
X165645334Y-105290952D01*
X165645334Y-105433810D01*
X165597715Y-105624286D01*
X165550096Y-105719524D01*
X165454858Y-105814762D01*
X165312000Y-105862381D01*
X165073905Y-105862381D01*
X166026286Y-104957619D02*
X166073905Y-104910000D01*
X166169143Y-104862381D01*
X166407239Y-104862381D01*
X166502477Y-104910000D01*
X166550096Y-104957619D01*
X166597715Y-105052857D01*
X166597715Y-105148095D01*
X166550096Y-105290952D01*
X165978667Y-105862381D01*
X166597715Y-105862381D01*
X164996905Y-103322381D02*
X164996905Y-102322381D01*
X165235000Y-102322381D01*
X165377858Y-102370000D01*
X165473096Y-102465238D01*
X165520715Y-102560476D01*
X165568334Y-102750952D01*
X165568334Y-102893810D01*
X165520715Y-103084286D01*
X165473096Y-103179524D01*
X165377858Y-103274762D01*
X165235000Y-103322381D01*
X164996905Y-103322381D01*
X165901667Y-102322381D02*
X166520715Y-102322381D01*
X166187381Y-102703333D01*
X166330239Y-102703333D01*
X166425477Y-102750952D01*
X166473096Y-102798571D01*
X166520715Y-102893810D01*
X166520715Y-103131905D01*
X166473096Y-103227143D01*
X166425477Y-103274762D01*
X166330239Y-103322381D01*
X166044524Y-103322381D01*
X165949286Y-103274762D01*
X165901667Y-103227143D01*
X174926667Y-40092381D02*
X174926667Y-40806667D01*
X174879047Y-40949524D01*
X174783809Y-41044762D01*
X174640952Y-41092381D01*
X174545714Y-41092381D01*
X175926667Y-41092381D02*
X175355238Y-41092381D01*
X175640952Y-41092381D02*
X175640952Y-40092381D01*
X175545714Y-40235238D01*
X175450476Y-40330476D01*
X175355238Y-40378095D01*
X168854762Y-42052381D02*
X168378571Y-42052381D01*
X168330952Y-42528571D01*
X168378571Y-42480952D01*
X168473809Y-42433333D01*
X168711905Y-42433333D01*
X168807143Y-42480952D01*
X168854762Y-42528571D01*
X168902381Y-42623810D01*
X168902381Y-42861905D01*
X168854762Y-42957143D01*
X168807143Y-43004762D01*
X168711905Y-43052381D01*
X168473809Y-43052381D01*
X168378571Y-43004762D01*
X168330952Y-42957143D01*
X169330952Y-42671429D02*
X170092857Y-42671429D01*
X171092857Y-43052381D02*
X170521428Y-43052381D01*
X170807142Y-43052381D02*
X170807142Y-42052381D01*
X170711904Y-42195238D01*
X170616666Y-42290476D01*
X170521428Y-42338095D01*
X171473809Y-42147619D02*
X171521428Y-42100000D01*
X171616666Y-42052381D01*
X171854762Y-42052381D01*
X171950000Y-42100000D01*
X171997619Y-42147619D01*
X172045238Y-42242857D01*
X172045238Y-42338095D01*
X171997619Y-42480952D01*
X171426190Y-43052381D01*
X172045238Y-43052381D01*
X172378571Y-42385714D02*
X172616666Y-43052381D01*
X172854762Y-42385714D01*
X173664286Y-43052381D02*
X173664286Y-42052381D01*
X173664286Y-43004762D02*
X173569048Y-43052381D01*
X173378571Y-43052381D01*
X173283333Y-43004762D01*
X173235714Y-42957143D01*
X173188095Y-42861905D01*
X173188095Y-42576190D01*
X173235714Y-42480952D01*
X173283333Y-42433333D01*
X173378571Y-42385714D01*
X173569048Y-42385714D01*
X173664286Y-42433333D01*
X174569048Y-43004762D02*
X174473810Y-43052381D01*
X174283333Y-43052381D01*
X174188095Y-43004762D01*
X174140476Y-42957143D01*
X174092857Y-42861905D01*
X174092857Y-42576190D01*
X174140476Y-42480952D01*
X174188095Y-42433333D01*
X174283333Y-42385714D01*
X174473810Y-42385714D01*
X174569048Y-42433333D01*
X158041667Y-47377381D02*
X158041667Y-48091667D01*
X157994047Y-48234524D01*
X157898809Y-48329762D01*
X157755952Y-48377381D01*
X157660714Y-48377381D01*
X158470238Y-47472619D02*
X158517857Y-47425000D01*
X158613095Y-47377381D01*
X158851191Y-47377381D01*
X158946429Y-47425000D01*
X158994048Y-47472619D01*
X159041667Y-47567857D01*
X159041667Y-47663095D01*
X158994048Y-47805952D01*
X158422619Y-48377381D01*
X159041667Y-48377381D01*
X153336667Y-62952381D02*
X153336667Y-63666667D01*
X153289047Y-63809524D01*
X153193809Y-63904762D01*
X153050952Y-63952381D01*
X152955714Y-63952381D01*
X153717619Y-62952381D02*
X154336667Y-62952381D01*
X154003333Y-63333333D01*
X154146191Y-63333333D01*
X154241429Y-63380952D01*
X154289048Y-63428571D01*
X154336667Y-63523810D01*
X154336667Y-63761905D01*
X154289048Y-63857143D01*
X154241429Y-63904762D01*
X154146191Y-63952381D01*
X153860476Y-63952381D01*
X153765238Y-63904762D01*
X153717619Y-63857143D01*
X151170000Y-71207381D02*
X151170000Y-72016905D01*
X151217619Y-72112143D01*
X151265238Y-72159762D01*
X151360476Y-72207381D01*
X151550953Y-72207381D01*
X151646191Y-72159762D01*
X151693810Y-72112143D01*
X151741429Y-72016905D01*
X151741429Y-71207381D01*
X152170000Y-72159762D02*
X152312857Y-72207381D01*
X152550953Y-72207381D01*
X152646191Y-72159762D01*
X152693810Y-72112143D01*
X152741429Y-72016905D01*
X152741429Y-71921667D01*
X152693810Y-71826429D01*
X152646191Y-71778810D01*
X152550953Y-71731190D01*
X152360476Y-71683571D01*
X152265238Y-71635952D01*
X152217619Y-71588333D01*
X152170000Y-71493095D01*
X152170000Y-71397857D01*
X152217619Y-71302619D01*
X152265238Y-71255000D01*
X152360476Y-71207381D01*
X152598572Y-71207381D01*
X152741429Y-71255000D01*
X153503334Y-71683571D02*
X153646191Y-71731190D01*
X153693810Y-71778810D01*
X153741429Y-71874048D01*
X153741429Y-72016905D01*
X153693810Y-72112143D01*
X153646191Y-72159762D01*
X153550953Y-72207381D01*
X153170000Y-72207381D01*
X153170000Y-71207381D01*
X153503334Y-71207381D01*
X153598572Y-71255000D01*
X153646191Y-71302619D01*
X153693810Y-71397857D01*
X153693810Y-71493095D01*
X153646191Y-71588333D01*
X153598572Y-71635952D01*
X153503334Y-71683571D01*
X153170000Y-71683571D01*
X154170000Y-71826429D02*
X154931905Y-71826429D01*
X154550953Y-72207381D02*
X154550953Y-71445476D01*
X155408095Y-71826429D02*
X156170000Y-71826429D01*
X154606667Y-51522381D02*
X154606667Y-52236667D01*
X154559047Y-52379524D01*
X154463809Y-52474762D01*
X154320952Y-52522381D01*
X154225714Y-52522381D01*
X155511429Y-51855714D02*
X155511429Y-52522381D01*
X155273333Y-51474762D02*
X155035238Y-52189048D01*
X155654286Y-52189048D01*
X151987619Y-56602381D02*
X151987619Y-57411905D01*
X152035238Y-57507143D01*
X152082857Y-57554762D01*
X152178095Y-57602381D01*
X152368572Y-57602381D01*
X152463810Y-57554762D01*
X152511429Y-57507143D01*
X152559048Y-57411905D01*
X152559048Y-56602381D01*
X152987619Y-57554762D02*
X153130476Y-57602381D01*
X153368572Y-57602381D01*
X153463810Y-57554762D01*
X153511429Y-57507143D01*
X153559048Y-57411905D01*
X153559048Y-57316667D01*
X153511429Y-57221429D01*
X153463810Y-57173810D01*
X153368572Y-57126190D01*
X153178095Y-57078571D01*
X153082857Y-57030952D01*
X153035238Y-56983333D01*
X152987619Y-56888095D01*
X152987619Y-56792857D01*
X153035238Y-56697619D01*
X153082857Y-56650000D01*
X153178095Y-56602381D01*
X153416191Y-56602381D01*
X153559048Y-56650000D01*
X154320953Y-57078571D02*
X154463810Y-57126190D01*
X154511429Y-57173810D01*
X154559048Y-57269048D01*
X154559048Y-57411905D01*
X154511429Y-57507143D01*
X154463810Y-57554762D01*
X154368572Y-57602381D01*
X153987619Y-57602381D01*
X153987619Y-56602381D01*
X154320953Y-56602381D01*
X154416191Y-56650000D01*
X154463810Y-56697619D01*
X154511429Y-56792857D01*
X154511429Y-56888095D01*
X154463810Y-56983333D01*
X154416191Y-57030952D01*
X154320953Y-57078571D01*
X153987619Y-57078571D01*
X154749524Y-57697619D02*
X155511429Y-57697619D01*
X155749524Y-57078571D02*
X156082858Y-57078571D01*
X156225715Y-57602381D02*
X155749524Y-57602381D01*
X155749524Y-56602381D01*
X156225715Y-56602381D01*
X156559048Y-56602381D02*
X157225715Y-57602381D01*
X157225715Y-56602381D02*
X156559048Y-57602381D01*
X157463810Y-56602381D02*
X158035239Y-56602381D01*
X157749524Y-57602381D02*
X157749524Y-56602381D01*
X116506667Y-48515681D02*
X116506667Y-49229967D01*
X116459047Y-49372824D01*
X116363809Y-49468062D01*
X116220952Y-49515681D01*
X116125714Y-49515681D01*
X117411429Y-48515681D02*
X117220952Y-48515681D01*
X117125714Y-48563300D01*
X117078095Y-48610919D01*
X116982857Y-48753776D01*
X116935238Y-48944252D01*
X116935238Y-49325205D01*
X116982857Y-49420443D01*
X117030476Y-49468062D01*
X117125714Y-49515681D01*
X117316191Y-49515681D01*
X117411429Y-49468062D01*
X117459048Y-49420443D01*
X117506667Y-49325205D01*
X117506667Y-49087110D01*
X117459048Y-48991871D01*
X117411429Y-48944252D01*
X117316191Y-48896633D01*
X117125714Y-48896633D01*
X117030476Y-48944252D01*
X116982857Y-48991871D01*
X116935238Y-49087110D01*
X144232381Y-104473333D02*
X144946667Y-104473333D01*
X145089524Y-104520953D01*
X145184762Y-104616191D01*
X145232381Y-104759048D01*
X145232381Y-104854286D01*
X144660952Y-103854286D02*
X144613333Y-103949524D01*
X144565714Y-103997143D01*
X144470476Y-104044762D01*
X144422857Y-104044762D01*
X144327619Y-103997143D01*
X144280000Y-103949524D01*
X144232381Y-103854286D01*
X144232381Y-103663809D01*
X144280000Y-103568571D01*
X144327619Y-103520952D01*
X144422857Y-103473333D01*
X144470476Y-103473333D01*
X144565714Y-103520952D01*
X144613333Y-103568571D01*
X144660952Y-103663809D01*
X144660952Y-103854286D01*
X144708571Y-103949524D01*
X144756190Y-103997143D01*
X144851429Y-104044762D01*
X145041905Y-104044762D01*
X145137143Y-103997143D01*
X145184762Y-103949524D01*
X145232381Y-103854286D01*
X145232381Y-103663809D01*
X145184762Y-103568571D01*
X145137143Y-103520952D01*
X145041905Y-103473333D01*
X144851429Y-103473333D01*
X144756190Y-103520952D01*
X144708571Y-103568571D01*
X144660952Y-103663809D01*
X145502381Y-82089523D02*
X146216667Y-82089523D01*
X146359524Y-82137143D01*
X146454762Y-82232381D01*
X146502381Y-82375238D01*
X146502381Y-82470476D01*
X146502381Y-81089523D02*
X146502381Y-81660952D01*
X146502381Y-81375238D02*
X145502381Y-81375238D01*
X145645238Y-81470476D01*
X145740476Y-81565714D01*
X145788095Y-81660952D01*
X146502381Y-80137142D02*
X146502381Y-80708571D01*
X146502381Y-80422857D02*
X145502381Y-80422857D01*
X145645238Y-80518095D01*
X145740476Y-80613333D01*
X145788095Y-80708571D01*
X146502381Y-78446190D02*
X145502381Y-78446190D01*
X145597619Y-78017619D02*
X145550000Y-77970000D01*
X145502381Y-77874762D01*
X145502381Y-77636666D01*
X145550000Y-77541428D01*
X145597619Y-77493809D01*
X145692857Y-77446190D01*
X145788095Y-77446190D01*
X145930952Y-77493809D01*
X146502381Y-78065238D01*
X146502381Y-77446190D01*
X146407143Y-76446190D02*
X146454762Y-76493809D01*
X146502381Y-76636666D01*
X146502381Y-76731904D01*
X146454762Y-76874762D01*
X146359524Y-76970000D01*
X146264286Y-77017619D01*
X146073810Y-77065238D01*
X145930952Y-77065238D01*
X145740476Y-77017619D01*
X145645238Y-76970000D01*
X145550000Y-76874762D01*
X145502381Y-76731904D01*
X145502381Y-76636666D01*
X145550000Y-76493809D01*
X145597619Y-76446190D01*
X103232089Y-74526469D02*
X103232089Y-75240755D01*
X103184469Y-75383612D01*
X103089231Y-75478850D01*
X102946374Y-75526469D01*
X102851136Y-75526469D01*
X104232089Y-75526469D02*
X103660660Y-75526469D01*
X103946374Y-75526469D02*
X103946374Y-74526469D01*
X103851136Y-74669326D01*
X103755898Y-74764564D01*
X103660660Y-74812183D01*
X104613041Y-74621707D02*
X104660660Y-74574088D01*
X104755898Y-74526469D01*
X104993994Y-74526469D01*
X105089232Y-74574088D01*
X105136851Y-74621707D01*
X105184470Y-74716945D01*
X105184470Y-74812183D01*
X105136851Y-74955040D01*
X104565422Y-75526469D01*
X105184470Y-75526469D01*
X103232089Y-61826469D02*
X103232089Y-62540755D01*
X103184469Y-62683612D01*
X103089231Y-62778850D01*
X102946374Y-62826469D01*
X102851136Y-62826469D01*
X104232089Y-62826469D02*
X103660660Y-62826469D01*
X103946374Y-62826469D02*
X103946374Y-61826469D01*
X103851136Y-61969326D01*
X103755898Y-62064564D01*
X103660660Y-62112183D01*
X104565422Y-61826469D02*
X105184470Y-61826469D01*
X104851136Y-62207421D01*
X104993994Y-62207421D01*
X105089232Y-62255040D01*
X105136851Y-62302659D01*
X105184470Y-62397898D01*
X105184470Y-62635993D01*
X105136851Y-62731231D01*
X105089232Y-62778850D01*
X104993994Y-62826469D01*
X104708279Y-62826469D01*
X104613041Y-62778850D01*
X104565422Y-62731231D01*
X160488334Y-105862381D02*
X160155000Y-105386190D01*
X159916905Y-105862381D02*
X159916905Y-104862381D01*
X160297858Y-104862381D01*
X160393096Y-104910000D01*
X160440715Y-104957619D01*
X160488334Y-105052857D01*
X160488334Y-105195714D01*
X160440715Y-105290952D01*
X160393096Y-105338571D01*
X160297858Y-105386190D01*
X159916905Y-105386190D01*
X161440715Y-105862381D02*
X160869286Y-105862381D01*
X161155000Y-105862381D02*
X161155000Y-104862381D01*
X161059762Y-105005238D01*
X160964524Y-105100476D01*
X160869286Y-105148095D01*
X157900715Y-105862381D02*
X157329286Y-105862381D01*
X157615000Y-105862381D02*
X157615000Y-104862381D01*
X157519762Y-105005238D01*
X157424524Y-105100476D01*
X157329286Y-105148095D01*
X158329286Y-105862381D02*
X158329286Y-104862381D01*
X158900715Y-105862381D02*
X158472143Y-105290952D01*
X158900715Y-104862381D02*
X158329286Y-105433810D01*
X160488334Y-103322381D02*
X160155000Y-102846190D01*
X159916905Y-103322381D02*
X159916905Y-102322381D01*
X160297858Y-102322381D01*
X160393096Y-102370000D01*
X160440715Y-102417619D01*
X160488334Y-102512857D01*
X160488334Y-102655714D01*
X160440715Y-102750952D01*
X160393096Y-102798571D01*
X160297858Y-102846190D01*
X159916905Y-102846190D01*
X160869286Y-102417619D02*
X160916905Y-102370000D01*
X161012143Y-102322381D01*
X161250239Y-102322381D01*
X161345477Y-102370000D01*
X161393096Y-102417619D01*
X161440715Y-102512857D01*
X161440715Y-102608095D01*
X161393096Y-102750952D01*
X160821667Y-103322381D01*
X161440715Y-103322381D01*
X112863334Y-55235681D02*
X112530000Y-54759490D01*
X112291905Y-55235681D02*
X112291905Y-54235681D01*
X112672858Y-54235681D01*
X112768096Y-54283300D01*
X112815715Y-54330919D01*
X112863334Y-54426157D01*
X112863334Y-54569014D01*
X112815715Y-54664252D01*
X112768096Y-54711871D01*
X112672858Y-54759490D01*
X112291905Y-54759490D01*
X113720477Y-54569014D02*
X113720477Y-55235681D01*
X113482381Y-54188062D02*
X113244286Y-54902348D01*
X113863334Y-54902348D01*
X112434762Y-52235681D02*
X111863333Y-52235681D01*
X112149047Y-52235681D02*
X112149047Y-51235681D01*
X112053809Y-51378538D01*
X111958571Y-51473776D01*
X111863333Y-51521395D01*
X113053809Y-51235681D02*
X113149048Y-51235681D01*
X113244286Y-51283300D01*
X113291905Y-51330919D01*
X113339524Y-51426157D01*
X113387143Y-51616633D01*
X113387143Y-51854729D01*
X113339524Y-52045205D01*
X113291905Y-52140443D01*
X113244286Y-52188062D01*
X113149048Y-52235681D01*
X113053809Y-52235681D01*
X112958571Y-52188062D01*
X112910952Y-52140443D01*
X112863333Y-52045205D01*
X112815714Y-51854729D01*
X112815714Y-51616633D01*
X112863333Y-51426157D01*
X112910952Y-51330919D01*
X112958571Y-51283300D01*
X113053809Y-51235681D01*
X113815714Y-52235681D02*
X113815714Y-51235681D01*
X113910952Y-51854729D02*
X114196667Y-52235681D01*
X114196667Y-51569014D02*
X113815714Y-51949967D01*
X120483334Y-55235681D02*
X120150000Y-54759490D01*
X119911905Y-55235681D02*
X119911905Y-54235681D01*
X120292858Y-54235681D01*
X120388096Y-54283300D01*
X120435715Y-54330919D01*
X120483334Y-54426157D01*
X120483334Y-54569014D01*
X120435715Y-54664252D01*
X120388096Y-54711871D01*
X120292858Y-54759490D01*
X119911905Y-54759490D01*
X121388096Y-54235681D02*
X120911905Y-54235681D01*
X120864286Y-54711871D01*
X120911905Y-54664252D01*
X121007143Y-54616633D01*
X121245239Y-54616633D01*
X121340477Y-54664252D01*
X121388096Y-54711871D01*
X121435715Y-54807110D01*
X121435715Y-55045205D01*
X121388096Y-55140443D01*
X121340477Y-55188062D01*
X121245239Y-55235681D01*
X121007143Y-55235681D01*
X120911905Y-55188062D01*
X120864286Y-55140443D01*
X120054762Y-52235681D02*
X119483333Y-52235681D01*
X119769047Y-52235681D02*
X119769047Y-51235681D01*
X119673809Y-51378538D01*
X119578571Y-51473776D01*
X119483333Y-51521395D01*
X120673809Y-51235681D02*
X120769048Y-51235681D01*
X120864286Y-51283300D01*
X120911905Y-51330919D01*
X120959524Y-51426157D01*
X121007143Y-51616633D01*
X121007143Y-51854729D01*
X120959524Y-52045205D01*
X120911905Y-52140443D01*
X120864286Y-52188062D01*
X120769048Y-52235681D01*
X120673809Y-52235681D01*
X120578571Y-52188062D01*
X120530952Y-52140443D01*
X120483333Y-52045205D01*
X120435714Y-51854729D01*
X120435714Y-51616633D01*
X120483333Y-51426157D01*
X120530952Y-51330919D01*
X120578571Y-51283300D01*
X120673809Y-51235681D01*
X121435714Y-52235681D02*
X121435714Y-51235681D01*
X121530952Y-51854729D02*
X121816667Y-52235681D01*
X121816667Y-51569014D02*
X121435714Y-51949967D01*
X161742381Y-82791082D02*
X161266190Y-83124416D01*
X161742381Y-83362511D02*
X160742381Y-83362511D01*
X160742381Y-82981558D01*
X160790000Y-82886320D01*
X160837619Y-82838701D01*
X160932857Y-82791082D01*
X161075714Y-82791082D01*
X161170952Y-82838701D01*
X161218571Y-82886320D01*
X161266190Y-82981558D01*
X161266190Y-83362511D01*
X160742381Y-81933939D02*
X160742381Y-82124416D01*
X160790000Y-82219654D01*
X160837619Y-82267273D01*
X160980476Y-82362511D01*
X161170952Y-82410130D01*
X161551905Y-82410130D01*
X161647143Y-82362511D01*
X161694762Y-82314892D01*
X161742381Y-82219654D01*
X161742381Y-82029177D01*
X161694762Y-81933939D01*
X161647143Y-81886320D01*
X161551905Y-81838701D01*
X161313810Y-81838701D01*
X161218571Y-81886320D01*
X161170952Y-81933939D01*
X161123333Y-82029177D01*
X161123333Y-82219654D01*
X161170952Y-82314892D01*
X161218571Y-82362511D01*
X161313810Y-82410130D01*
X161742381Y-79028701D02*
X161742381Y-79600130D01*
X161742381Y-79314416D02*
X160742381Y-79314416D01*
X160885238Y-79409654D01*
X160980476Y-79504892D01*
X161028095Y-79600130D01*
X161742381Y-78600130D02*
X160742381Y-78600130D01*
X161742381Y-78028701D02*
X161170952Y-78457273D01*
X160742381Y-78028701D02*
X161313810Y-78600130D01*
X164282381Y-82791082D02*
X163806190Y-83124416D01*
X164282381Y-83362511D02*
X163282381Y-83362511D01*
X163282381Y-82981558D01*
X163330000Y-82886320D01*
X163377619Y-82838701D01*
X163472857Y-82791082D01*
X163615714Y-82791082D01*
X163710952Y-82838701D01*
X163758571Y-82886320D01*
X163806190Y-82981558D01*
X163806190Y-83362511D01*
X163282381Y-82457749D02*
X163282381Y-81791082D01*
X164282381Y-82219654D01*
X163377619Y-79600130D02*
X163330000Y-79552511D01*
X163282381Y-79457273D01*
X163282381Y-79219177D01*
X163330000Y-79123939D01*
X163377619Y-79076320D01*
X163472857Y-79028701D01*
X163568095Y-79028701D01*
X163710952Y-79076320D01*
X164282381Y-79647749D01*
X164282381Y-79028701D01*
X164282381Y-78600130D02*
X163282381Y-78600130D01*
X164282381Y-78028701D02*
X163710952Y-78457273D01*
X163282381Y-78028701D02*
X163853810Y-78600130D01*
X166822381Y-82791082D02*
X166346190Y-83124416D01*
X166822381Y-83362511D02*
X165822381Y-83362511D01*
X165822381Y-82981558D01*
X165870000Y-82886320D01*
X165917619Y-82838701D01*
X166012857Y-82791082D01*
X166155714Y-82791082D01*
X166250952Y-82838701D01*
X166298571Y-82886320D01*
X166346190Y-82981558D01*
X166346190Y-83362511D01*
X166250952Y-82219654D02*
X166203333Y-82314892D01*
X166155714Y-82362511D01*
X166060476Y-82410130D01*
X166012857Y-82410130D01*
X165917619Y-82362511D01*
X165870000Y-82314892D01*
X165822381Y-82219654D01*
X165822381Y-82029177D01*
X165870000Y-81933939D01*
X165917619Y-81886320D01*
X166012857Y-81838701D01*
X166060476Y-81838701D01*
X166155714Y-81886320D01*
X166203333Y-81933939D01*
X166250952Y-82029177D01*
X166250952Y-82219654D01*
X166298571Y-82314892D01*
X166346190Y-82362511D01*
X166441429Y-82410130D01*
X166631905Y-82410130D01*
X166727143Y-82362511D01*
X166774762Y-82314892D01*
X166822381Y-82219654D01*
X166822381Y-82029177D01*
X166774762Y-81933939D01*
X166727143Y-81886320D01*
X166631905Y-81838701D01*
X166441429Y-81838701D01*
X166346190Y-81886320D01*
X166298571Y-81933939D01*
X166250952Y-82029177D01*
X165822381Y-79647749D02*
X165822381Y-79028701D01*
X166203333Y-79362035D01*
X166203333Y-79219177D01*
X166250952Y-79123939D01*
X166298571Y-79076320D01*
X166393810Y-79028701D01*
X166631905Y-79028701D01*
X166727143Y-79076320D01*
X166774762Y-79123939D01*
X166822381Y-79219177D01*
X166822381Y-79504892D01*
X166774762Y-79600130D01*
X166727143Y-79647749D01*
X166822381Y-78600130D02*
X165822381Y-78600130D01*
X166822381Y-78028701D02*
X166250952Y-78457273D01*
X165822381Y-78028701D02*
X166393810Y-78600130D01*
X171902381Y-82791082D02*
X171426190Y-83124416D01*
X171902381Y-83362511D02*
X170902381Y-83362511D01*
X170902381Y-82981558D01*
X170950000Y-82886320D01*
X170997619Y-82838701D01*
X171092857Y-82791082D01*
X171235714Y-82791082D01*
X171330952Y-82838701D01*
X171378571Y-82886320D01*
X171426190Y-82981558D01*
X171426190Y-83362511D01*
X171902381Y-82314892D02*
X171902381Y-82124416D01*
X171854762Y-82029177D01*
X171807143Y-81981558D01*
X171664286Y-81886320D01*
X171473810Y-81838701D01*
X171092857Y-81838701D01*
X170997619Y-81886320D01*
X170950000Y-81933939D01*
X170902381Y-82029177D01*
X170902381Y-82219654D01*
X170950000Y-82314892D01*
X170997619Y-82362511D01*
X171092857Y-82410130D01*
X171330952Y-82410130D01*
X171426190Y-82362511D01*
X171473810Y-82314892D01*
X171521429Y-82219654D01*
X171521429Y-82029177D01*
X171473810Y-81933939D01*
X171426190Y-81886320D01*
X171330952Y-81838701D01*
X171902381Y-79504892D02*
X171902381Y-80076321D01*
X171902381Y-79790607D02*
X170902381Y-79790607D01*
X171045238Y-79885845D01*
X171140476Y-79981083D01*
X171188095Y-80076321D01*
X170902381Y-78885845D02*
X170902381Y-78790606D01*
X170950000Y-78695368D01*
X170997619Y-78647749D01*
X171092857Y-78600130D01*
X171283333Y-78552511D01*
X171521429Y-78552511D01*
X171711905Y-78600130D01*
X171807143Y-78647749D01*
X171854762Y-78695368D01*
X171902381Y-78790606D01*
X171902381Y-78885845D01*
X171854762Y-78981083D01*
X171807143Y-79028702D01*
X171711905Y-79076321D01*
X171521429Y-79123940D01*
X171283333Y-79123940D01*
X171092857Y-79076321D01*
X170997619Y-79028702D01*
X170950000Y-78981083D01*
X170902381Y-78885845D01*
X171902381Y-78123940D02*
X170902381Y-78123940D01*
X171902381Y-77552511D02*
X171330952Y-77981083D01*
X170902381Y-77552511D02*
X171473810Y-78123940D01*
X117127381Y-89205476D02*
X116651190Y-89538810D01*
X117127381Y-89776905D02*
X116127381Y-89776905D01*
X116127381Y-89395952D01*
X116175000Y-89300714D01*
X116222619Y-89253095D01*
X116317857Y-89205476D01*
X116460714Y-89205476D01*
X116555952Y-89253095D01*
X116603571Y-89300714D01*
X116651190Y-89395952D01*
X116651190Y-89776905D01*
X117127381Y-88776905D02*
X116127381Y-88776905D01*
X117127381Y-88205476D01*
X116127381Y-88205476D01*
X117127381Y-87205476D02*
X117127381Y-87776905D01*
X117127381Y-87491191D02*
X116127381Y-87491191D01*
X116270238Y-87586429D01*
X116365476Y-87681667D01*
X116413095Y-87776905D01*
X173442728Y-56641905D02*
X174252252Y-56641905D01*
X174347490Y-56594286D01*
X174395109Y-56546667D01*
X174442728Y-56451429D01*
X174442728Y-56260952D01*
X174395109Y-56165714D01*
X174347490Y-56118095D01*
X174252252Y-56070476D01*
X173442728Y-56070476D01*
X174442728Y-55070476D02*
X174442728Y-55641905D01*
X174442728Y-55356191D02*
X173442728Y-55356191D01*
X173585585Y-55451429D01*
X173680823Y-55546667D01*
X173728442Y-55641905D01*
X171902381Y-58110238D02*
X171902381Y-58586429D01*
X170902381Y-58586429D01*
X170902381Y-57872143D02*
X170902381Y-57205476D01*
X171902381Y-57634048D01*
X171330952Y-56681667D02*
X171283333Y-56776905D01*
X171235714Y-56824524D01*
X171140476Y-56872143D01*
X171092857Y-56872143D01*
X170997619Y-56824524D01*
X170950000Y-56776905D01*
X170902381Y-56681667D01*
X170902381Y-56491190D01*
X170950000Y-56395952D01*
X170997619Y-56348333D01*
X171092857Y-56300714D01*
X171140476Y-56300714D01*
X171235714Y-56348333D01*
X171283333Y-56395952D01*
X171330952Y-56491190D01*
X171330952Y-56681667D01*
X171378571Y-56776905D01*
X171426190Y-56824524D01*
X171521429Y-56872143D01*
X171711905Y-56872143D01*
X171807143Y-56824524D01*
X171854762Y-56776905D01*
X171902381Y-56681667D01*
X171902381Y-56491190D01*
X171854762Y-56395952D01*
X171807143Y-56348333D01*
X171711905Y-56300714D01*
X171521429Y-56300714D01*
X171426190Y-56348333D01*
X171378571Y-56395952D01*
X171330952Y-56491190D01*
X170902381Y-55681667D02*
X170902381Y-55586428D01*
X170950000Y-55491190D01*
X170997619Y-55443571D01*
X171092857Y-55395952D01*
X171283333Y-55348333D01*
X171521429Y-55348333D01*
X171711905Y-55395952D01*
X171807143Y-55443571D01*
X171854762Y-55491190D01*
X171902381Y-55586428D01*
X171902381Y-55681667D01*
X171854762Y-55776905D01*
X171807143Y-55824524D01*
X171711905Y-55872143D01*
X171521429Y-55919762D01*
X171283333Y-55919762D01*
X171092857Y-55872143D01*
X170997619Y-55824524D01*
X170950000Y-55776905D01*
X170902381Y-55681667D01*
X170902381Y-54443571D02*
X170902381Y-54919762D01*
X171378571Y-54967381D01*
X171330952Y-54919762D01*
X171283333Y-54824524D01*
X171283333Y-54586428D01*
X171330952Y-54491190D01*
X171378571Y-54443571D01*
X171473810Y-54395952D01*
X171711905Y-54395952D01*
X171807143Y-54443571D01*
X171854762Y-54491190D01*
X171902381Y-54586428D01*
X171902381Y-54824524D01*
X171854762Y-54919762D01*
X171807143Y-54967381D01*
X116078095Y-68032381D02*
X116078095Y-68841905D01*
X116125714Y-68937143D01*
X116173333Y-68984762D01*
X116268571Y-69032381D01*
X116459048Y-69032381D01*
X116554286Y-68984762D01*
X116601905Y-68937143D01*
X116649524Y-68841905D01*
X116649524Y-68032381D01*
X117078095Y-68127619D02*
X117125714Y-68080000D01*
X117220952Y-68032381D01*
X117459048Y-68032381D01*
X117554286Y-68080000D01*
X117601905Y-68127619D01*
X117649524Y-68222857D01*
X117649524Y-68318095D01*
X117601905Y-68460952D01*
X117030476Y-69032381D01*
X117649524Y-69032381D01*
X113601905Y-63342381D02*
X113601905Y-62342381D01*
X113935239Y-63056667D01*
X114268572Y-62342381D01*
X114268572Y-63342381D01*
X115316191Y-63247143D02*
X115268572Y-63294762D01*
X115125715Y-63342381D01*
X115030477Y-63342381D01*
X114887619Y-63294762D01*
X114792381Y-63199524D01*
X114744762Y-63104286D01*
X114697143Y-62913810D01*
X114697143Y-62770952D01*
X114744762Y-62580476D01*
X114792381Y-62485238D01*
X114887619Y-62390000D01*
X115030477Y-62342381D01*
X115125715Y-62342381D01*
X115268572Y-62390000D01*
X115316191Y-62437619D01*
X115744762Y-63342381D02*
X115744762Y-62342381D01*
X116125715Y-62342381D01*
X116220953Y-62390000D01*
X116268572Y-62437619D01*
X116316191Y-62532857D01*
X116316191Y-62675714D01*
X116268572Y-62770952D01*
X116220953Y-62818571D01*
X116125715Y-62866190D01*
X115744762Y-62866190D01*
X117268572Y-63342381D02*
X116697143Y-63342381D01*
X116982857Y-63342381D02*
X116982857Y-62342381D01*
X116887619Y-62485238D01*
X116792381Y-62580476D01*
X116697143Y-62628095D01*
X117840000Y-62770952D02*
X117744762Y-62723333D01*
X117697143Y-62675714D01*
X117649524Y-62580476D01*
X117649524Y-62532857D01*
X117697143Y-62437619D01*
X117744762Y-62390000D01*
X117840000Y-62342381D01*
X118030477Y-62342381D01*
X118125715Y-62390000D01*
X118173334Y-62437619D01*
X118220953Y-62532857D01*
X118220953Y-62580476D01*
X118173334Y-62675714D01*
X118125715Y-62723333D01*
X118030477Y-62770952D01*
X117840000Y-62770952D01*
X117744762Y-62818571D01*
X117697143Y-62866190D01*
X117649524Y-62961429D01*
X117649524Y-63151905D01*
X117697143Y-63247143D01*
X117744762Y-63294762D01*
X117840000Y-63342381D01*
X118030477Y-63342381D01*
X118125715Y-63294762D01*
X118173334Y-63247143D01*
X118220953Y-63151905D01*
X118220953Y-62961429D01*
X118173334Y-62866190D01*
X118125715Y-62818571D01*
X118030477Y-62770952D01*
X118601905Y-62437619D02*
X118649524Y-62390000D01*
X118744762Y-62342381D01*
X118982858Y-62342381D01*
X119078096Y-62390000D01*
X119125715Y-62437619D01*
X119173334Y-62532857D01*
X119173334Y-62628095D01*
X119125715Y-62770952D01*
X118554286Y-63342381D01*
X119173334Y-63342381D01*
X120078096Y-62342381D02*
X119601905Y-62342381D01*
X119554286Y-62818571D01*
X119601905Y-62770952D01*
X119697143Y-62723333D01*
X119935239Y-62723333D01*
X120030477Y-62770952D01*
X120078096Y-62818571D01*
X120125715Y-62913810D01*
X120125715Y-63151905D01*
X120078096Y-63247143D01*
X120030477Y-63294762D01*
X119935239Y-63342381D01*
X119697143Y-63342381D01*
X119601905Y-63294762D01*
X119554286Y-63247143D01*
X115443095Y-36282381D02*
X115443095Y-37091905D01*
X115490714Y-37187143D01*
X115538333Y-37234762D01*
X115633571Y-37282381D01*
X115824048Y-37282381D01*
X115919286Y-37234762D01*
X115966905Y-37187143D01*
X116014524Y-37091905D01*
X116014524Y-36282381D01*
X116395476Y-36282381D02*
X117014524Y-36282381D01*
X116681190Y-36663333D01*
X116824048Y-36663333D01*
X116919286Y-36710952D01*
X116966905Y-36758571D01*
X117014524Y-36853810D01*
X117014524Y-37091905D01*
X116966905Y-37187143D01*
X116919286Y-37234762D01*
X116824048Y-37282381D01*
X116538333Y-37282381D01*
X116443095Y-37234762D01*
X116395476Y-37187143D01*
X131318095Y-71842381D02*
X131318095Y-72651905D01*
X131365714Y-72747143D01*
X131413333Y-72794762D01*
X131508571Y-72842381D01*
X131699048Y-72842381D01*
X131794286Y-72794762D01*
X131841905Y-72747143D01*
X131889524Y-72651905D01*
X131889524Y-71842381D01*
X132841905Y-71842381D02*
X132365714Y-71842381D01*
X132318095Y-72318571D01*
X132365714Y-72270952D01*
X132460952Y-72223333D01*
X132699048Y-72223333D01*
X132794286Y-72270952D01*
X132841905Y-72318571D01*
X132889524Y-72413810D01*
X132889524Y-72651905D01*
X132841905Y-72747143D01*
X132794286Y-72794762D01*
X132699048Y-72842381D01*
X132460952Y-72842381D01*
X132365714Y-72794762D01*
X132318095Y-72747143D01*
X136128571Y-71842381D02*
X136700000Y-71842381D01*
X136414285Y-72842381D02*
X136414285Y-71842381D01*
X137414286Y-72794762D02*
X137319048Y-72842381D01*
X137128571Y-72842381D01*
X137033333Y-72794762D01*
X136985714Y-72699524D01*
X136985714Y-72318571D01*
X137033333Y-72223333D01*
X137128571Y-72175714D01*
X137319048Y-72175714D01*
X137414286Y-72223333D01*
X137461905Y-72318571D01*
X137461905Y-72413810D01*
X136985714Y-72509048D01*
X138271429Y-72794762D02*
X138176191Y-72842381D01*
X137985714Y-72842381D01*
X137890476Y-72794762D01*
X137842857Y-72699524D01*
X137842857Y-72318571D01*
X137890476Y-72223333D01*
X137985714Y-72175714D01*
X138176191Y-72175714D01*
X138271429Y-72223333D01*
X138319048Y-72318571D01*
X138319048Y-72413810D01*
X137842857Y-72509048D01*
X138747619Y-72175714D02*
X138747619Y-72842381D01*
X138747619Y-72270952D02*
X138795238Y-72223333D01*
X138890476Y-72175714D01*
X139033334Y-72175714D01*
X139128572Y-72223333D01*
X139176191Y-72318571D01*
X139176191Y-72842381D01*
X139604762Y-72794762D02*
X139700000Y-72842381D01*
X139890476Y-72842381D01*
X139985715Y-72794762D01*
X140033334Y-72699524D01*
X140033334Y-72651905D01*
X139985715Y-72556667D01*
X139890476Y-72509048D01*
X139747619Y-72509048D01*
X139652381Y-72461429D01*
X139604762Y-72366190D01*
X139604762Y-72318571D01*
X139652381Y-72223333D01*
X139747619Y-72175714D01*
X139890476Y-72175714D01*
X139985715Y-72223333D01*
X140366667Y-72175714D02*
X140604762Y-72842381D01*
X140842858Y-72175714D02*
X140604762Y-72842381D01*
X140509524Y-73080476D01*
X140461905Y-73128095D01*
X140366667Y-73175714D01*
X141128572Y-71842381D02*
X141747620Y-71842381D01*
X141414286Y-72223333D01*
X141557144Y-72223333D01*
X141652382Y-72270952D01*
X141700001Y-72318571D01*
X141747620Y-72413810D01*
X141747620Y-72651905D01*
X141700001Y-72747143D01*
X141652382Y-72794762D01*
X141557144Y-72842381D01*
X141271429Y-72842381D01*
X141176191Y-72794762D01*
X141128572Y-72747143D01*
X142176191Y-72747143D02*
X142223810Y-72794762D01*
X142176191Y-72842381D01*
X142128572Y-72794762D01*
X142176191Y-72747143D01*
X142176191Y-72842381D01*
X142604762Y-71937619D02*
X142652381Y-71890000D01*
X142747619Y-71842381D01*
X142985715Y-71842381D01*
X143080953Y-71890000D01*
X143128572Y-71937619D01*
X143176191Y-72032857D01*
X143176191Y-72128095D01*
X143128572Y-72270952D01*
X142557143Y-72842381D01*
X143176191Y-72842381D01*
X177569762Y-66413333D02*
X177617381Y-66270476D01*
X177617381Y-66032380D01*
X177569762Y-65937142D01*
X177522143Y-65889523D01*
X177426905Y-65841904D01*
X177331667Y-65841904D01*
X177236429Y-65889523D01*
X177188810Y-65937142D01*
X177141190Y-66032380D01*
X177093571Y-66222857D01*
X177045952Y-66318095D01*
X176998333Y-66365714D01*
X176903095Y-66413333D01*
X176807857Y-66413333D01*
X176712619Y-66365714D01*
X176665000Y-66318095D01*
X176617381Y-66222857D01*
X176617381Y-65984761D01*
X176665000Y-65841904D01*
X176617381Y-65508571D02*
X177617381Y-65270476D01*
X176903095Y-65079999D01*
X177617381Y-64889523D01*
X176617381Y-64651428D01*
X177617381Y-63746666D02*
X177617381Y-64318095D01*
X177617381Y-64032381D02*
X176617381Y-64032381D01*
X176760238Y-64127619D01*
X176855476Y-64222857D01*
X176903095Y-64318095D01*
X177569762Y-76573333D02*
X177617381Y-76430476D01*
X177617381Y-76192380D01*
X177569762Y-76097142D01*
X177522143Y-76049523D01*
X177426905Y-76001904D01*
X177331667Y-76001904D01*
X177236429Y-76049523D01*
X177188810Y-76097142D01*
X177141190Y-76192380D01*
X177093571Y-76382857D01*
X177045952Y-76478095D01*
X176998333Y-76525714D01*
X176903095Y-76573333D01*
X176807857Y-76573333D01*
X176712619Y-76525714D01*
X176665000Y-76478095D01*
X176617381Y-76382857D01*
X176617381Y-76144761D01*
X176665000Y-76001904D01*
X176617381Y-75668571D02*
X177617381Y-75430476D01*
X176903095Y-75239999D01*
X177617381Y-75049523D01*
X176617381Y-74811428D01*
X176712619Y-74478095D02*
X176665000Y-74430476D01*
X176617381Y-74335238D01*
X176617381Y-74097142D01*
X176665000Y-74001904D01*
X176712619Y-73954285D01*
X176807857Y-73906666D01*
X176903095Y-73906666D01*
X177045952Y-73954285D01*
X177617381Y-74525714D01*
X177617381Y-73906666D01*
X177569762Y-86423333D02*
X177617381Y-86280476D01*
X177617381Y-86042380D01*
X177569762Y-85947142D01*
X177522143Y-85899523D01*
X177426905Y-85851904D01*
X177331667Y-85851904D01*
X177236429Y-85899523D01*
X177188810Y-85947142D01*
X177141190Y-86042380D01*
X177093571Y-86232857D01*
X177045952Y-86328095D01*
X176998333Y-86375714D01*
X176903095Y-86423333D01*
X176807857Y-86423333D01*
X176712619Y-86375714D01*
X176665000Y-86328095D01*
X176617381Y-86232857D01*
X176617381Y-85994761D01*
X176665000Y-85851904D01*
X176617381Y-85518571D02*
X177617381Y-85280476D01*
X176903095Y-85089999D01*
X177617381Y-84899523D01*
X176617381Y-84661428D01*
X176617381Y-84375714D02*
X176617381Y-83756666D01*
X176998333Y-84090000D01*
X176998333Y-83947142D01*
X177045952Y-83851904D01*
X177093571Y-83804285D01*
X177188810Y-83756666D01*
X177426905Y-83756666D01*
X177522143Y-83804285D01*
X177569762Y-83851904D01*
X177617381Y-83947142D01*
X177617381Y-84232857D01*
X177569762Y-84328095D01*
X177522143Y-84375714D01*
X136446667Y-108422381D02*
X136446667Y-109136667D01*
X136399047Y-109279524D01*
X136303809Y-109374762D01*
X136160952Y-109422381D01*
X136065714Y-109422381D01*
X137399048Y-108422381D02*
X136922857Y-108422381D01*
X136875238Y-108898571D01*
X136922857Y-108850952D01*
X137018095Y-108803333D01*
X137256191Y-108803333D01*
X137351429Y-108850952D01*
X137399048Y-108898571D01*
X137446667Y-108993810D01*
X137446667Y-109231905D01*
X137399048Y-109327143D01*
X137351429Y-109374762D01*
X137256191Y-109422381D01*
X137018095Y-109422381D01*
X136922857Y-109374762D01*
X136875238Y-109327143D01*
X136122381Y-93162381D02*
X135789047Y-92686190D01*
X135550952Y-93162381D02*
X135550952Y-92162381D01*
X135931905Y-92162381D01*
X136027143Y-92210000D01*
X136074762Y-92257619D01*
X136122381Y-92352857D01*
X136122381Y-92495714D01*
X136074762Y-92590952D01*
X136027143Y-92638571D01*
X135931905Y-92686190D01*
X135550952Y-92686190D01*
X136836667Y-92162381D02*
X136836667Y-92876667D01*
X136789047Y-93019524D01*
X136693809Y-93114762D01*
X136550952Y-93162381D01*
X136455714Y-93162381D01*
X137265238Y-92257619D02*
X137312857Y-92210000D01*
X137408095Y-92162381D01*
X137646191Y-92162381D01*
X137741429Y-92210000D01*
X137789048Y-92257619D01*
X137836667Y-92352857D01*
X137836667Y-92448095D01*
X137789048Y-92590952D01*
X137217619Y-93162381D01*
X137836667Y-93162381D01*
X118666667Y-108422381D02*
X118666667Y-109136667D01*
X118619047Y-109279524D01*
X118523809Y-109374762D01*
X118380952Y-109422381D01*
X118285714Y-109422381D01*
X119047619Y-108422381D02*
X119714286Y-108422381D01*
X119285714Y-109422381D01*
X118342381Y-93162381D02*
X118009047Y-92686190D01*
X117770952Y-93162381D02*
X117770952Y-92162381D01*
X118151905Y-92162381D01*
X118247143Y-92210000D01*
X118294762Y-92257619D01*
X118342381Y-92352857D01*
X118342381Y-92495714D01*
X118294762Y-92590952D01*
X118247143Y-92638571D01*
X118151905Y-92686190D01*
X117770952Y-92686190D01*
X119056667Y-92162381D02*
X119056667Y-92876667D01*
X119009047Y-93019524D01*
X118913809Y-93114762D01*
X118770952Y-93162381D01*
X118675714Y-93162381D01*
X120056667Y-93162381D02*
X119485238Y-93162381D01*
X119770952Y-93162381D02*
X119770952Y-92162381D01*
X119675714Y-92305238D01*
X119580476Y-92400476D01*
X119485238Y-92448095D01*
X99092381Y-97349723D02*
X99806667Y-97349723D01*
X99949524Y-97397343D01*
X100044762Y-97492581D01*
X100092381Y-97635438D01*
X100092381Y-97730676D01*
X100092381Y-96349723D02*
X100092381Y-96921152D01*
X100092381Y-96635438D02*
X99092381Y-96635438D01*
X99235238Y-96730676D01*
X99330476Y-96825914D01*
X99378095Y-96921152D01*
X99520952Y-95778295D02*
X99473333Y-95873533D01*
X99425714Y-95921152D01*
X99330476Y-95968771D01*
X99282857Y-95968771D01*
X99187619Y-95921152D01*
X99140000Y-95873533D01*
X99092381Y-95778295D01*
X99092381Y-95587818D01*
X99140000Y-95492580D01*
X99187619Y-95444961D01*
X99282857Y-95397342D01*
X99330476Y-95397342D01*
X99425714Y-95444961D01*
X99473333Y-95492580D01*
X99520952Y-95587818D01*
X99520952Y-95778295D01*
X99568571Y-95873533D01*
X99616190Y-95921152D01*
X99711429Y-95968771D01*
X99901905Y-95968771D01*
X99997143Y-95921152D01*
X100044762Y-95873533D01*
X100092381Y-95778295D01*
X100092381Y-95587818D01*
X100044762Y-95492580D01*
X99997143Y-95444961D01*
X99901905Y-95397342D01*
X99711429Y-95397342D01*
X99616190Y-95444961D01*
X99568571Y-95492580D01*
X99520952Y-95587818D01*
X128872381Y-79501905D02*
X129681905Y-79501905D01*
X129777143Y-79454286D01*
X129824762Y-79406667D01*
X129872381Y-79311429D01*
X129872381Y-79120952D01*
X129824762Y-79025714D01*
X129777143Y-78978095D01*
X129681905Y-78930476D01*
X128872381Y-78930476D01*
X129205714Y-78025714D02*
X129872381Y-78025714D01*
X128824762Y-78263810D02*
X129539048Y-78501905D01*
X129539048Y-77882857D01*
X169182381Y-82546666D02*
X168706190Y-82880000D01*
X169182381Y-83118095D02*
X168182381Y-83118095D01*
X168182381Y-82737142D01*
X168230000Y-82641904D01*
X168277619Y-82594285D01*
X168372857Y-82546666D01*
X168515714Y-82546666D01*
X168610952Y-82594285D01*
X168658571Y-82641904D01*
X168706190Y-82737142D01*
X168706190Y-83118095D01*
X168182381Y-82213333D02*
X168182381Y-81594285D01*
X168563333Y-81927619D01*
X168563333Y-81784761D01*
X168610952Y-81689523D01*
X168658571Y-81641904D01*
X168753810Y-81594285D01*
X168991905Y-81594285D01*
X169087143Y-81641904D01*
X169134762Y-81689523D01*
X169182381Y-81784761D01*
X169182381Y-82070476D01*
X169134762Y-82165714D01*
X169087143Y-82213333D01*
X168695714Y-78879523D02*
X169362381Y-78879523D01*
X168314762Y-79117619D02*
X169029048Y-79355714D01*
X169029048Y-78736666D01*
X169362381Y-78355714D02*
X168362381Y-78355714D01*
X169362381Y-77784285D02*
X168790952Y-78212857D01*
X168362381Y-77784285D02*
X168933810Y-78355714D01*
X177569762Y-96873333D02*
X177617381Y-96730476D01*
X177617381Y-96492380D01*
X177569762Y-96397142D01*
X177522143Y-96349523D01*
X177426905Y-96301904D01*
X177331667Y-96301904D01*
X177236429Y-96349523D01*
X177188810Y-96397142D01*
X177141190Y-96492380D01*
X177093571Y-96682857D01*
X177045952Y-96778095D01*
X176998333Y-96825714D01*
X176903095Y-96873333D01*
X176807857Y-96873333D01*
X176712619Y-96825714D01*
X176665000Y-96778095D01*
X176617381Y-96682857D01*
X176617381Y-96444761D01*
X176665000Y-96301904D01*
X176617381Y-95968571D02*
X177617381Y-95730476D01*
X176903095Y-95539999D01*
X177617381Y-95349523D01*
X176617381Y-95111428D01*
X176950714Y-94301904D02*
X177617381Y-94301904D01*
X176569762Y-94540000D02*
X177284048Y-94778095D01*
X177284048Y-94159047D01*
D18*
X140992739Y-96441864D02*
X139976739Y-96441864D01*
X139976739Y-96199959D01*
X140025120Y-96054817D01*
X140121882Y-95958055D01*
X140218644Y-95909674D01*
X140412168Y-95861293D01*
X140557310Y-95861293D01*
X140750834Y-95909674D01*
X140847596Y-95958055D01*
X140944358Y-96054817D01*
X140992739Y-96199959D01*
X140992739Y-96441864D01*
X140315406Y-94990436D02*
X140992739Y-94990436D01*
X139928358Y-95232340D02*
X140654072Y-95474245D01*
X140654072Y-94845293D01*
D19*
X143199031Y-96998244D02*
X143808631Y-96853101D01*
X143373203Y-96736987D01*
X143808631Y-96620873D01*
X143199031Y-96475730D01*
X143779603Y-96272530D02*
X143808631Y-96185444D01*
X143808631Y-96040301D01*
X143779603Y-95982244D01*
X143750574Y-95953215D01*
X143692517Y-95924187D01*
X143634460Y-95924187D01*
X143576403Y-95953215D01*
X143547374Y-95982244D01*
X143518346Y-96040301D01*
X143489317Y-96156415D01*
X143460289Y-96214473D01*
X143431260Y-96243501D01*
X143373203Y-96272530D01*
X143315146Y-96272530D01*
X143257089Y-96243501D01*
X143228060Y-96214473D01*
X143199031Y-96156415D01*
X143199031Y-96011273D01*
X143228060Y-95924187D01*
X143257089Y-95691959D02*
X143228060Y-95662930D01*
X143199031Y-95604873D01*
X143199031Y-95459730D01*
X143228060Y-95401673D01*
X143257089Y-95372644D01*
X143315146Y-95343616D01*
X143373203Y-95343616D01*
X143460289Y-95372644D01*
X143808631Y-95720987D01*
X143808631Y-95343616D01*
X143460289Y-94995273D02*
X143431260Y-95053331D01*
X143402231Y-95082359D01*
X143344174Y-95111388D01*
X143315146Y-95111388D01*
X143257089Y-95082359D01*
X143228060Y-95053331D01*
X143199031Y-94995273D01*
X143199031Y-94879159D01*
X143228060Y-94821102D01*
X143257089Y-94792073D01*
X143315146Y-94763045D01*
X143344174Y-94763045D01*
X143402231Y-94792073D01*
X143431260Y-94821102D01*
X143460289Y-94879159D01*
X143460289Y-94995273D01*
X143489317Y-95053331D01*
X143518346Y-95082359D01*
X143576403Y-95111388D01*
X143692517Y-95111388D01*
X143750574Y-95082359D01*
X143779603Y-95053331D01*
X143808631Y-94995273D01*
X143808631Y-94879159D01*
X143779603Y-94821102D01*
X143750574Y-94792073D01*
X143692517Y-94763045D01*
X143576403Y-94763045D01*
X143518346Y-94792073D01*
X143489317Y-94821102D01*
X143460289Y-94879159D01*
X143808631Y-94182474D02*
X143808631Y-94530817D01*
X143808631Y-94356645D02*
X143199031Y-94356645D01*
X143286117Y-94414702D01*
X143344174Y-94472760D01*
X143373203Y-94530817D01*
X143257089Y-93950246D02*
X143228060Y-93921217D01*
X143199031Y-93863160D01*
X143199031Y-93718017D01*
X143228060Y-93659960D01*
X143257089Y-93630931D01*
X143315146Y-93601903D01*
X143373203Y-93601903D01*
X143460289Y-93630931D01*
X143808631Y-93979274D01*
X143808631Y-93601903D01*
X143489317Y-93137446D02*
X143518346Y-93050360D01*
X143547374Y-93021332D01*
X143605431Y-92992303D01*
X143692517Y-92992303D01*
X143750574Y-93021332D01*
X143779603Y-93050360D01*
X143808631Y-93108418D01*
X143808631Y-93340646D01*
X143199031Y-93340646D01*
X143199031Y-93137446D01*
X143228060Y-93079389D01*
X143257089Y-93050360D01*
X143315146Y-93021332D01*
X143373203Y-93021332D01*
X143431260Y-93050360D01*
X143460289Y-93079389D01*
X143489317Y-93137446D01*
X143489317Y-93340646D01*
D16*
X166094762Y-63242381D02*
X165761428Y-62766190D01*
X165523333Y-63242381D02*
X165523333Y-62242381D01*
X165904286Y-62242381D01*
X165999524Y-62290000D01*
X166047143Y-62337619D01*
X166094762Y-62432857D01*
X166094762Y-62575714D01*
X166047143Y-62670952D01*
X165999524Y-62718571D01*
X165904286Y-62766190D01*
X165523333Y-62766190D01*
X166380476Y-62242381D02*
X166713809Y-63242381D01*
X167047143Y-62242381D01*
X167904286Y-63242381D02*
X167332857Y-63242381D01*
X167618571Y-63242381D02*
X167618571Y-62242381D01*
X167523333Y-62385238D01*
X167428095Y-62480476D01*
X167332857Y-62528095D01*
X166094762Y-84922381D02*
X165761428Y-84446190D01*
X165523333Y-84922381D02*
X165523333Y-83922381D01*
X165904286Y-83922381D01*
X165999524Y-83970000D01*
X166047143Y-84017619D01*
X166094762Y-84112857D01*
X166094762Y-84255714D01*
X166047143Y-84350952D01*
X165999524Y-84398571D01*
X165904286Y-84446190D01*
X165523333Y-84446190D01*
X166380476Y-83922381D02*
X166713809Y-84922381D01*
X167047143Y-83922381D01*
X167332857Y-84017619D02*
X167380476Y-83970000D01*
X167475714Y-83922381D01*
X167713810Y-83922381D01*
X167809048Y-83970000D01*
X167856667Y-84017619D01*
X167904286Y-84112857D01*
X167904286Y-84208095D01*
X167856667Y-84350952D01*
X167285238Y-84922381D01*
X167904286Y-84922381D01*
M02*
