G04 #@! TF.FileFunction,Legend,Bot*
%FSLAX46Y46*%
G04 Gerber Fmt 4.6, Leading zero omitted, Abs format (unit mm)*
G04 Created by KiCad (PCBNEW 4.0.7-e2-6376~58~ubuntu16.04.1) date Tue May  1 20:05:14 2018*
%MOMM*%
%LPD*%
G01*
G04 APERTURE LIST*
%ADD10C,0.100000*%
%ADD11C,0.120000*%
%ADD12C,0.127000*%
%ADD13C,0.150000*%
G04 APERTURE END LIST*
D10*
D11*
X137830000Y-88235000D02*
X137830000Y-88935000D01*
X139030000Y-88935000D02*
X139030000Y-88235000D01*
D12*
X139740640Y-86400640D02*
X144739360Y-86400640D01*
X144739360Y-86400640D02*
X144739360Y-91399360D01*
X144739360Y-91399360D02*
X139740640Y-91399360D01*
X139740640Y-91399360D02*
X139740640Y-86400640D01*
D11*
X134365000Y-90170000D02*
X134365000Y-87630000D01*
X136145000Y-87630000D02*
X136145000Y-90170000D01*
X136145000Y-87630000D02*
X134365000Y-87630000D01*
X134365000Y-90170000D02*
X136145000Y-90170000D01*
D13*
X137537143Y-88418334D02*
X137584762Y-88370715D01*
X137632381Y-88227858D01*
X137632381Y-88132620D01*
X137584762Y-87989762D01*
X137489524Y-87894524D01*
X137394286Y-87846905D01*
X137203810Y-87799286D01*
X137060952Y-87799286D01*
X136870476Y-87846905D01*
X136775238Y-87894524D01*
X136680000Y-87989762D01*
X136632381Y-88132620D01*
X136632381Y-88227858D01*
X136680000Y-88370715D01*
X136727619Y-88418334D01*
X136632381Y-88751667D02*
X136632381Y-89418334D01*
X137632381Y-88989762D01*
X136487381Y-88090477D02*
X137201667Y-88090477D01*
X137344524Y-88042857D01*
X137439762Y-87947619D01*
X137487381Y-87804762D01*
X137487381Y-87709524D01*
X137487381Y-89090477D02*
X137487381Y-88519048D01*
X137487381Y-88804762D02*
X136487381Y-88804762D01*
X136630238Y-88709524D01*
X136725476Y-88614286D01*
X136773095Y-88519048D01*
X137487381Y-89566667D02*
X137487381Y-89757143D01*
X137439762Y-89852382D01*
X137392143Y-89900001D01*
X137249286Y-89995239D01*
X137058810Y-90042858D01*
X136677857Y-90042858D01*
X136582619Y-89995239D01*
X136535000Y-89947620D01*
X136487381Y-89852382D01*
X136487381Y-89661905D01*
X136535000Y-89566667D01*
X136582619Y-89519048D01*
X136677857Y-89471429D01*
X136915952Y-89471429D01*
X137011190Y-89519048D01*
X137058810Y-89566667D01*
X137106429Y-89661905D01*
X137106429Y-89852382D01*
X137058810Y-89947620D01*
X137011190Y-89995239D01*
X136915952Y-90042858D01*
M02*
